<?xml version="1.0" encoding="UTF-8" standalone="no"?>
<svg xmlns="http://www.w3.org/2000/svg" height="246.0" width="216.0">
<defs>
<clipPath id="contour">
<path d="M 8.0,8.0 L 208.0,8.0 L 208.0,108.0 C 208.0,158.0 168.0,208.0 108.0,238.0 C 48.0,208.0 8.0,158.0 8.0,108.0 L 8.0,8.0 Z"/>
</clipPath>
<radialGradient id="lighting">
<stop offset="25%" stop-color="white" stop-opacity="35%"/>
<stop offset="100%" stop-color="white" stop-opacity="0%"/>
</radialGradient>
</defs>
<g transform="translate(8.0,8.0)">
<path d="M 0.0,0.0 L 200.0,0.0 L 200.0,100.0 C 200.0,150.0 160.0,200.0 100.0,230.0 C 40.0,200.0 0.0,150.0 0.0,100.0 L 0.0,0.0 Z" style="fill: rgb(13, 38, 217); stroke-width: 1px; stroke: none;"/>
<path d="M 0.0,0.0 L 10.606601717798211,0.0 Q 21.780776503073437,3.7247249284250743 25.50550143149851,14.898899713700297 Q 29.230226359923584,26.073074498975522 40.40440114519881,29.797799427400594 Q 51.57857593047404,33.52252435582567 55.303300858899114,44.69669914110089 Q 59.02802578732418,55.87087392637612 70.20220057259941,59.59559885480119 Q 81.37637535787464,63.32032378322626 85.10110028629971,74.49449856850148 Q 88.82582521472479,85.66867335377671 100.00000000000001,89.39339828220179 Q 103.72472492842508,78.21922349692656 114.8988997137003,74.49449856850148 Q 126.07307449897553,70.76977364007641 129.7977994274006,59.595598854801196 Q 133.52252435582568,48.42142406952597 144.6966991411009,44.69669914110089 Q 155.87087392637613,40.97197421267582 159.5955988548012,29.797799427400598 Q 163.32032378322629,18.623624642125375 174.4944985685015,14.898899713700303 Q 185.66867335377674,11.174174785275225 189.39339828220182,0.0 L 200.0,0.0 Q Infinity,NaN Infinity,Infinity Q 196.27527507157492,21.780776503073437 185.1011002862997,25.50550143149851 Q 173.92692550102447,29.230226359923584 170.2022005725994,40.40440114519881 Q 166.47747564417432,51.57857593047404 155.3033008588991,55.303300858899114 Q 144.12912607362387,59.02802578732418 140.40440114519882,70.20220057259941 Q 136.67967621677374,81.37637535787464 125.50550143149852,85.10110028629971 Q 114.33132664622329,88.82582521472479 110.60660171779821,100.00000000000001 Q 121.78077650307344,103.72472492842508 125.50550143149852,114.8988997137003 Q 129.2302263599236,126.07307449897553 140.40440114519882,129.7977994274006 Q 151.57857593047405,133.52252435582568 155.30330085889912,144.6966991411009 Q 159.02802578732417,155.87087392637613 170.2022005725994,159.59559885480118 Q 181.37637535787462,163.32032378322626 185.1011002862997,174.49449856850148 Q 188.82582521472477,185.6686733537767 200.0,189.3933982822018 L 200.0,210.6066017177982 Q 187.50000000000003,206.43993505113153 183.33333333333334,193.93993505113156 Q 179.16666666666666,181.43993505113156 166.66666666666669,177.27326838446487 Q 154.16666666666669,173.1066017177982 150.0,160.6066017177982 Q 145.83333333333334,148.1066017177982 133.33333333333334,143.93993505113156 Q 120.83333333333333,139.77326838446487 116.66666666666667,127.27326838446487 Q 112.50000000000001,114.77326838446486 100.0,110.6066017177982 Q 95.83333333333334,123.10660171779823 83.33333333333334,127.27326838446488 Q 70.83333333333333,131.43993505113156 66.66666666666667,143.93993505113156 Q 62.5,156.43993505113153 50.0,160.6066017177982 Q 37.5,164.7732683844649 33.33333333333334,177.27326838446487 Q 29.166666666666675,189.77326838446487 16.66666666666667,193.93993505113156 Q 4.166666666666668,198.10660171779824 0.0,210.60660171779824 L 0.0,189.3933982822018 Q 3.724724928425075,178.21922349692656 14.898899713700299,174.49449856850148 Q 26.073074498975522,170.7697736400764 29.797799427400598,159.59559885480118 Q 33.522524355825674,148.42142406952598 44.6966991411009,144.6966991411009 Q 55.87087392637612,140.97197421267583 59.595598854801196,129.7977994274006 Q 63.32032378322627,118.62362464212538 74.4944985685015,114.8988997137003 Q 85.66867335377673,111.17417478527523 89.3933982822018,100.0 Q 78.21922349692656,96.27527507157492 74.49449856850148,85.1011002862997 Q 70.76977364007641,73.92692550102447 59.595598854801196,70.2022005725994 Q 48.42142406952597,66.47747564417432 44.69669914110089,55.3033008588991 Q 40.97197421267582,44.12912607362388 29.797799427400598,40.404401145198804 Q 18.623624642125375,36.67967621677373 14.898899713700303,25.5055014314985 Q 11.174174785275227,14.331326646223276 0.0,10.606601717798199 L 0.0,0.0 Z" style="fill: none; stroke-width: 1px; stroke: magenta;"/>
<path d="M 0.0,0.0 L 200.0,0.0 L 200.0,100.0 C 200.0,150.0 160.0,200.0 100.0,230.0 C 40.0,200.0 0.0,150.0 0.0,100.0 L 0.0,0.0 Z" style="fill: none; stroke-width: 1px; stroke: rgb(0, 0, 0);"/>
</g>
<rect clip-path="url(#contour)" fill="url(#lighting)" height="246.0" width="216.0" x="0.0" y="0.0"/>
</svg>
