<svg xmlns="http://www.w3.org/2000/svg" width="350" height="350" version="1">
    <g stroke="#000">
        <path d="M330.7 212.023c-13.13-7.248-33.936-22.78-46.33-40.56l-56.72 1.753-5.773 18.288 52.223 27.823c25.708-5.423 41.596-10.23 56.603-7.305zM174.654 322.106c2.792-15.17 10.94-40.398 23.64-57.943l-18.36-55.76-18.53-.33-10.18 60.03c12.577 23.905 21.69 38.25 23.43 54.003zM18.008 215.168c14.817-1.304 40.41.033 60.105 7.995l46.746-33.412-4.698-18.616-58.407 6.026c-18.77 19.03-29.61 32.016-43.747 38.007zm255.73-183.974c-12.25 8.758-35.115 20.768-56.022 23.99l-24.655 53.078 12.966 13.752L253.88 86.72c7.22-26.19 10.44-43.046 19.857-55.526zM76.45 32.74c6.76 13.757 15.23 38.87 15.57 60.817l47.443 32.332 14.827-11.55-27.428-53.887C102.806 49.59 87.134 44.07 76.452 32.74z"
              fill="#e20909" fill-rule="evenodd" stroke-width="4.084"/>
        <g fill="#e20909" stroke-width="12.373">
            <path d="M375.288 14.554c-32.685-.297-59.353 14.483-75.187 56.313-6.987 36.77-9.94 71.538 6.75 96.47 60.618 96.863 92.606 132.067 132.346 183.967 10.67-56.3 23.002-102.66 27.5-196 4.498 93.34 16.828 139.7 27.5 196 44.968-60.9 90.684-121.428 132.375-183.968 16.69-24.93 13.708-59.698 6.72-96.47-19.49-51.48-55.382-61.986-98.72-53.842-23.696 6.38-40.852 16.455-67.282 15.72l-.053.003h-1.094l-.007-.004c-26.43.736-43.616-9.34-67.312-15.72-8.125-1.526-15.987-2.4-23.53-2.468z"
                  transform="matrix(.3239 0 0 .33637 20.112 32.338)"/>
            <path d="M466.695 155.304c-4.498 93.34-16.83 139.7-27.5 196-.156-.203-.314-.39-.47-.593l.063 1.19h54.97l.124-2.22c-10.6-55.567-22.733-101.94-27.187-194.375zM82.133 367.212c-9.933 31.14-3.684 60.983 31.607 88.46 33.07 17.533 65.415 30.617 94.163 22.03 110.44-29.32 153.52-49.49 214.838-72.137-50.64-26.816-91.293-52.284-179.144-84.135 90.507 23.256 138.442 25.16 195.383 31.586-44.914-60.943-89.248-122.49-136.693-180.785-18.893-23.305-52.99-30.717-90.186-34.895-54.94 3.422-75.573 34.612-80.586 78.424-.9 24.522 3.662 43.887-4.844 68.922l-.013.053-.323 1.045-.006.008c-7.1 25.47-21.8 38.916-34.89 59.672-3.857 7.314-7.012 14.568-9.304 21.754z"
                  transform="matrix(.3239 0 0 .33637 20.112 32.338)"/>
            <path d="M243.595 321.43c87.85 31.85 128.506 57.32 179.146 84.135-.24.088-.464.184-.703.272l1.153.29 16.226-52.518-2.083-.776c-56.22-6.278-104.11-8.374-193.738-31.405zM768.51 631.02c26.093-19.69 38.224-47.66 25.28-90.473-16.874-33.41-35.725-62.772-64.154-72.36-107.096-39.84-153.914-48.25-217.053-65.17 25.857 51.134 44.342 95.404 97.67 172.14-60.46-71.253-98.495-100.49-141.272-138.616 1.477 75.69 2.13 151.54 7.2 226.53 1.966 29.94 25.523 55.68 53.477 80.57 46.83 28.936 81.687 15.386 111.08-17.487 14.896-19.5 22.355-37.946 43.755-53.473l.04-.036.868-.667.01-.003c20.504-16.694 40.27-19.183 62.944-28.57 7.372-3.742 14.137-7.842 20.16-12.386z"
                  transform="matrix(.3239 0 0 .33637 20.112 32.338)"/>
            <path d="M610.254 575.157c-53.33-76.736-71.814-121.006-97.67-172.14.246.065.485.118.732.184l-.773-.902-43.577 33.507 1.254 1.835c42.273 37.59 80.16 66.955 140.034 137.517zm-277.186 175.06c26.96 18.48 57.34 21.088 93.815-4.796 26.312-26.62 48.156-53.826 48.21-83.83 3.724-114.204-3.187-161.266-7.218-226.51-40.262 40.774-76.357 72.374-132.157 147.33 48.333-79.975 63.96-125.33 86.51-178.01-71.295 25.46-143 50.196-212.49 78.845-27.76 11.38-44.676 41.9-59.388 76.317-12.543 53.6 11.385 82.34 51.898 99.757 23.225 7.922 43.083 9.13 64.61 24.484l.045.027.908.61.008.008c22.346 14.132 30.99 32.082 47.098 50.594 5.893 5.802 11.93 10.912 18.153 15.177z"
                  transform="matrix(.3239 0 0 .33637 20.112 32.338)"/>
            <path d="M335.718 582.41c55.8-74.957 91.895-106.557 132.157-147.33.016.255.042.5.058.754l.61-1.02-45.62-30.664-1.343 1.772c-22.2 52.03-37.997 97.288-85.862 176.49zm459.576-399.883c-10.18-31.06-32.72-51.594-77.418-53.205-37.073 5.15-70.955 13.48-89.23 37.275-72.365 88.433-95.477 130.007-131.925 184.27 56.754-7.912 104.624-11.07 194.49-36.688-86.987 34.14-126.962 60.66-176.882 88.792 72.09 23.106 144.067 47.04 216.662 66.52 28.96 7.832 60.943-6.124 93.542-24.516 42.536-34.943 41-72.308 19.41-110.76-13.63-20.407-28.666-33.434-36.43-58.71l-.02-.05-.35-1.035v-.01c-9.156-24.802-5.113-44.31-6.654-68.8-1.155-8.188-2.845-15.916-5.194-23.084z"
                  transform="matrix(.3239 0 0 .33637 20.112 32.338)"/>
            <path d="M469.438 156.22c-4.498 93.338-16.83 139.7-27.5 196-.156-.204-.314-.392-.47-.595l.063 1.188h54.97l.126-2.22c-10.6-55.567-22.733-101.94-27.188-194.374z"
                  transform="matrix(.10545 .31804 -.30625 .1095 242.022 -29.886)"/>
        </g>
        <path d="M212.468 163.355c.006 22.734-18.202 41.167-40.665 41.167-22.463 0-40.67-18.433-40.665-41.167-.006-22.734 18.202-41.167 40.665-41.167 22.463 0 40.67 18.433 40.665 41.167z"
              fill="#fcef3c" fill-rule="evenodd" stroke-width="4.084"/>
    </g>
</svg>
