<?xml version="1.0" encoding="UTF-8" standalone="no"?>
<svg xmlns="http://www.w3.org/2000/svg"
     width="50"
     height="100"
     version="1.1">
    <g>
        <path style="color:#000000;fill:#000000;fill-opacity:1;fill-rule:nonzero;stroke:none;stroke-width:8;marker:none;visibility:visible;display:inline;overflow:visible"
              d="m 35.6294,9.7989771 c 0,5.4062499 -4.3877,9.7939399 -9.794,9.7939399 -5.4062,0 -9.7939,-4.38769 -9.7939,-9.7939399 0,-5.40626 4.3877,-9.79392996 9.7939,-9.79392996 5.4063,0 9.794,4.38766996 9.794,9.79392996 z M 21.5261,27.036317 c 0,5.40625 -4.3877,9.79394 -9.7939,9.79394 -5.4063,0 -9.794,-4.38769 -9.794,-9.79394 0,-5.40626 4.3877,-9.79394 9.794,-9.79394 5.4062,0 9.7939,4.38768 9.7939,9.79394 z m 28.2066,0 c 0,5.40625 -4.3877,9.79394 -9.794,9.79394 -5.4062,0 -9.7939,-4.38769 -9.7939,-9.79394 0,-5.40626 4.3877,-9.79394 9.7939,-9.79394 5.4063,0 9.794,4.38768 9.794,9.79394 z m -26.7629,-5.19236 4.6259,0.31903 C 27.7552,52.310857 50.725,100.00506 50.725,100.00506 L 36.2891,86.207257 c -3.9878,4.6258 -11.0861,13.797803 -11.0861,13.797803 0,0 -5.1044,-9.251703 -8.7732,-13.877603 L 0,99.845557 c 0,0 22.6508,-47.2157 22.9698,-78.0016 z"/>
    </g>
</svg>
