<?xml version="1.0" encoding="UTF-8" standalone="no"?>
<svg xmlns="http://www.w3.org/2000/svg" height="246.0" width="216.0">
<defs>
<clipPath id="contour">
<path d="M 8.0,8.0 L 208.0,8.0 L 208.0,108.0 C 208.0,158.0 168.0,208.0 108.0,238.0 C 48.0,208.0 8.0,158.0 8.0,108.0 L 8.0,8.0 Z"/>
</clipPath>
<radialGradient id="lighting">
<stop offset="25%" stop-color="white" stop-opacity="35%"/>
<stop offset="100%" stop-color="white" stop-opacity="0%"/>
</radialGradient>
</defs>
<g transform="translate(8.0,8.0)">
<path d="M 0.0,0.0 L 0.0,100.0 L 100.0,100.0 L 100.0,0.0 L 0.0,0.0 Z" style="fill: rgb(217, 217, 38); stroke-width: 1px; stroke: rgb(0, 255, 255);"/>
<path d="M 100.0,0.0 L 100.0,100.0 L 200.0,100.0 L 200.0,0.0 L 100.0,0.0 Z" style="fill: rgb(230, 230, 230); stroke-width: 1px; stroke: rgb(0, 255, 255);"/>
<path d="M 100.0,100.0 L 100.0,230.0 C 160.0,200.0 200.0,150.0 200.0,100.0 L 100.0,100.0 Z" style="fill: rgb(217, 217, 38); stroke-width: 1px; stroke: rgb(0, 255, 255);"/>
<path d="M 0.0,100.0 C 0.0,150.0 40.0,200.0 100.0,230.0 L 100.0,100.0 L 0.0,100.0 Z" style="fill: rgb(230, 230, 230); stroke-width: 1px; stroke: rgb(0, 255, 255);"/>
<path d="M 0.0,0.0 L 0.0,10.0 L 55.66666793823242,65.66666412353516 L 65.66666412353516,55.66666793823242 L 10.0,0.0 L 0.0,0.0 Z" style="fill: rgb(217, 38, 38); stroke-width: 1px; stroke: rgb(0, 255, 255);"/>
<path d="M 77.66666412353516,67.66666412353516 L 67.66666412353516,77.66666412353516 L 122.33333587646484,132.3333282470703 L 132.3333282470703,122.33333587646484 L 77.66666412353516,67.66666412353516 L 77.66666412353516,67.66666412353516 Z" style="fill: rgb(217, 38, 38); stroke-width: 1px; stroke: rgb(0, 255, 255);"/>
<path d="M 144.3333282470703,134.3333282470703 L 134.3333282470703,144.3333282470703 L 168.01669311523438,178.01669311523438 L 168.01669311523438,178.01669311523438 C 171.13836669921875,174.33641052246094 174.05723571777344,170.5808868408203 176.76170349121094,166.76170349121094 L 176.76170349121094,166.76170349121094 L 144.3333282470703,134.3333282470703 L 144.3333282470703,134.3333282470703 Z" style="fill: rgb(217, 38, 38); stroke-width: 1px; stroke: rgb(0, 255, 255);"/>
<path d="M 190.0,0.0 L 101.0,89.0 L 111.0,99.0 L 200.0,10.0 L 200.0,0.0 L 190.0,0.0 Z" style="fill: rgb(217, 38, 38); stroke-width: 1px; stroke: rgb(0, 255, 255);"/>
<path d="M 89.0,101.0 L 23.238300323486328,166.76170349121094 L 23.238300323486328,166.76170349121094 C 25.942768096923828,170.5808868408203 28.861637115478516,174.33641052246094 31.983314514160156,178.01669311523438 L 31.983314514160156,178.01669311523438 L 99.0,111.0 L 89.0,101.0 L 89.0,101.0 Z" style="fill: rgb(217, 38, 38); stroke-width: 1px; stroke: rgb(0, 255, 255);"/>
<path d="M 100.0,23.33333396911621 L 23.33333396911621,100.0 L 55.66666793823242,132.3333282470703 L 65.66666412353516,122.33333587646484 L 43.33333206176758,100.0 L 100.0,43.33333206176758 L 122.33333587646484,65.66666412353516 L 132.3333282470703,55.66666793823242 L 100.0,23.33333396911621 L 100.0,23.33333396911621 Z" style="fill: rgb(217, 38, 38); stroke-width: 1px; stroke: rgb(0, 255, 255);"/>
<path d="M 144.3333282470703,67.66666412353516 L 134.3333282470703,77.66666412353516 L 156.6666717529297,100.0 L 100.0,156.6666717529297 L 77.66666412353516,134.3333282470703 L 67.66666412353516,144.3333282470703 L 100.0,176.6666717529297 L 176.6666717529297,100.0 L 144.3333282470703,67.66666412353516 L 144.3333282470703,67.66666412353516 Z" style="fill: rgb(217, 38, 38); stroke-width: 1px; stroke: rgb(0, 255, 255);"/>
<path d="M 0.0,0.0 L 200.0,0.0 L 200.0,100.0 C 200.0,150.0 160.0,200.0 100.0,230.0 C 40.0,200.0 0.0,150.0 0.0,100.0 L 0.0,0.0 Z" style="fill: none; stroke-width: 1px; stroke: rgb(0, 0, 0);"/>
</g>
<rect clip-path="url(#contour)" fill="url(#lighting)" height="246.0" width="216.0" x="0.0" y="0.0"/>
</svg>
