<?xml version="1.0" encoding="UTF-8" standalone="no"?>
<svg xmlns="http://www.w3.org/2000/svg" height="116.0" width="216.0">
<defs>
<clipPath id="contour">
<path d="M 0.0,0.0 L 200.0,0.0 L 160.0,50.0 L 200.0,100.0 L 0.0,100.0 L 0.0,0.0 Z"/>
</clipPath>
<radialGradient id="lighting">
<stop offset="25%" stop-color="white" stop-opacity="35%"/>
<stop offset="100%" stop-color="white" stop-opacity="0%"/>
</radialGradient>
</defs>
<g transform="translate(8.0,8.0)">
<path clip-path="url(#contour)" comment="FieldBackground" d="M 0.0,0.0 L 0.0,100.0 L 200.0,100.0 L 160.0,50.0 L 200.0,0.0 L 0.0,0.0 Z" style="fill-rule: evenodd; fill: rgb(230, 230, 230); stroke-width: 1px; stroke: none;"/>
<path clip-path="url(#contour)" comment="FieldBackground" d="M 40.5719108581543,0.0 L 78.1192855834961,37.54737854003906 L 87.54737854003906,28.119287490844727 L 59.4280891418457,0.0 L 40.5719108581543,0.0 Z M 140.57191467285156,0.0 L 100.5,40.0719108581543 L 109.92809295654297,49.5 L 159.42808532714844,0.0 L 140.57191467285156,0.0 Z M 100.0,16.66666603088379 L 66.66666412353516,50.0 L 78.1192855834961,61.45262145996094 L 87.54737854003906,52.024532318115234 L 85.5228500366211,50.0 L 100.0,35.52284622192383 L 102.02452850341797,37.54737854003906 L 111.45262145996094,28.119287490844727 L 100.0,16.66666603088379 Z M 97.97547149658203,38.54737854003906 L 88.54737854003906,47.975467681884766 L 102.02452850341797,61.45262145996094 L 111.45262145996094,52.024532318115234 L 97.97547149658203,38.54737854003906 Z M 121.8807144165039,38.54737854003906 L 112.45262145996094,47.975467681884766 L 114.4771499633789,50.0 L 100.0,64.4771499633789 L 97.97547149658203,62.45262145996094 L 88.54737854003906,71.8807144165039 L 100.0,83.33333587646484 L 133.3333282470703,50.0 L 121.8807144165039,38.54737854003906 Z M 90.07190704345703,50.5 L 40.5719108581543,100.0 L 59.4280891418457,100.0 L 99.5,59.9280891418457 L 90.07190704345703,50.5 Z M 121.8807144165039,62.45262145996094 L 112.45262145996094,71.8807144165039 L 140.57191467285156,100.0 L 159.42808532714844,100.0 L 121.8807144165039,62.45262145996094 Z" style="fill-rule: evenodd; fill: rgb(38, 38, 38); stroke-width: 1px; stroke: none;"/>
<path clip-path="url(#contour)" comment="FieldBackground" d="M 40.5719108581543,0.0 L 78.1192855834961,37.54737854003906 L 87.54737854003906,28.119287490844727 L 59.4280891418457,0.0 L 40.5719108581543,0.0 Z M 140.57191467285156,0.0 L 100.5,40.0719108581543 L 109.92809295654297,49.5 L 159.42808532714844,0.0 L 140.57191467285156,0.0 Z M 100.0,16.66666603088379 L 66.66666412353516,50.0 L 78.1192855834961,61.45262145996094 L 87.54737854003906,52.024532318115234 L 85.5228500366211,50.0 L 100.0,35.52284622192383 L 102.02452850341797,37.54737854003906 L 111.45262145996094,28.119287490844727 L 100.0,16.66666603088379 Z M 97.97547149658203,38.54737854003906 L 88.54737854003906,47.975467681884766 L 102.02452850341797,61.45262145996094 L 111.45262145996094,52.024532318115234 L 97.97547149658203,38.54737854003906 Z M 121.8807144165039,38.54737854003906 L 112.45262145996094,47.975467681884766 L 114.4771499633789,50.0 L 100.0,64.4771499633789 L 97.97547149658203,62.45262145996094 L 88.54737854003906,71.8807144165039 L 100.0,83.33333587646484 L 133.3333282470703,50.0 L 121.8807144165039,38.54737854003906 Z M 90.07190704345703,50.5 L 40.5719108581543,100.0 L 59.4280891418457,100.0 L 99.5,59.9280891418457 L 90.07190704345703,50.5 Z M 121.8807144165039,62.45262145996094 L 112.45262145996094,71.8807144165039 L 140.57191467285156,100.0 L 159.42808532714844,100.0 L 121.8807144165039,62.45262145996094 Z" style="fill-rule: evenodd; fill: rgb(38, 38, 38); stroke-width: 1px; stroke: none;"/>
<path clip-path="url(#contour)" comment="FieldBackground" d="M 40.5719108581543,0.0 L 78.1192855834961,37.54737854003906 L 87.54737854003906,28.119287490844727 L 59.4280891418457,0.0 L 40.5719108581543,0.0 Z M 140.57191467285156,0.0 L 100.5,40.0719108581543 L 109.92809295654297,49.5 L 159.42808532714844,0.0 L 140.57191467285156,0.0 Z M 100.0,16.66666603088379 L 66.66666412353516,50.0 L 78.1192855834961,61.45262145996094 L 87.54737854003906,52.024532318115234 L 85.5228500366211,50.0 L 100.0,35.52284622192383 L 102.02452850341797,37.54737854003906 L 111.45262145996094,28.119287490844727 L 100.0,16.66666603088379 Z M 97.97547149658203,38.54737854003906 L 88.54737854003906,47.975467681884766 L 102.02452850341797,61.45262145996094 L 111.45262145996094,52.024532318115234 L 97.97547149658203,38.54737854003906 Z M 121.8807144165039,38.54737854003906 L 112.45262145996094,47.975467681884766 L 114.4771499633789,50.0 L 100.0,64.4771499633789 L 97.97547149658203,62.45262145996094 L 88.54737854003906,71.8807144165039 L 100.0,83.33333587646484 L 133.3333282470703,50.0 L 121.8807144165039,38.54737854003906 Z M 90.07190704345703,50.5 L 40.5719108581543,100.0 L 59.4280891418457,100.0 L 99.5,59.9280891418457 L 90.07190704345703,50.5 Z M 121.8807144165039,62.45262145996094 L 112.45262145996094,71.8807144165039 L 140.57191467285156,100.0 L 159.42808532714844,100.0 L 121.8807144165039,62.45262145996094 Z" style="fill-rule: evenodd; fill: rgb(38, 38, 38); stroke-width: 1px; stroke: none;"/>
<path clip-path="url(#contour)" comment="FieldBackground" d="M 40.5719108581543,0.0 L 78.1192855834961,37.54737854003906 L 87.54737854003906,28.119287490844727 L 59.4280891418457,0.0 L 40.5719108581543,0.0 Z M 140.57191467285156,0.0 L 100.5,40.0719108581543 L 109.92809295654297,49.5 L 159.42808532714844,0.0 L 140.57191467285156,0.0 Z M 100.0,16.66666603088379 L 66.66666412353516,50.0 L 78.1192855834961,61.45262145996094 L 87.54737854003906,52.024532318115234 L 85.5228500366211,50.0 L 100.0,35.52284622192383 L 102.02452850341797,37.54737854003906 L 111.45262145996094,28.119287490844727 L 100.0,16.66666603088379 Z M 97.97547149658203,38.54737854003906 L 88.54737854003906,47.975467681884766 L 102.02452850341797,61.45262145996094 L 111.45262145996094,52.024532318115234 L 97.97547149658203,38.54737854003906 Z M 121.8807144165039,38.54737854003906 L 112.45262145996094,47.975467681884766 L 114.4771499633789,50.0 L 100.0,64.4771499633789 L 97.97547149658203,62.45262145996094 L 88.54737854003906,71.8807144165039 L 100.0,83.33333587646484 L 133.3333282470703,50.0 L 121.8807144165039,38.54737854003906 Z M 90.07190704345703,50.5 L 40.5719108581543,100.0 L 59.4280891418457,100.0 L 99.5,59.9280891418457 L 90.07190704345703,50.5 Z M 121.8807144165039,62.45262145996094 L 112.45262145996094,71.8807144165039 L 140.57191467285156,100.0 L 159.42808532714844,100.0 L 121.8807144165039,62.45262145996094 Z" style="fill-rule: evenodd; fill: rgb(38, 38, 38); stroke-width: 1px; stroke: none;"/>
<path clip-path="url(#contour)" comment="FieldBackground" d="M 40.5719108581543,0.0 L 78.1192855834961,37.54737854003906 L 87.54737854003906,28.119287490844727 L 59.4280891418457,0.0 L 40.5719108581543,0.0 Z M 140.57191467285156,0.0 L 100.5,40.0719108581543 L 109.92809295654297,49.5 L 159.42808532714844,0.0 L 140.57191467285156,0.0 Z M 100.0,16.66666603088379 L 66.66666412353516,50.0 L 78.1192855834961,61.45262145996094 L 87.54737854003906,52.024532318115234 L 85.5228500366211,50.0 L 100.0,35.52284622192383 L 102.02452850341797,37.54737854003906 L 111.45262145996094,28.119287490844727 L 100.0,16.66666603088379 Z M 97.97547149658203,38.54737854003906 L 88.54737854003906,47.975467681884766 L 102.02452850341797,61.45262145996094 L 111.45262145996094,52.024532318115234 L 97.97547149658203,38.54737854003906 Z M 121.8807144165039,38.54737854003906 L 112.45262145996094,47.975467681884766 L 114.4771499633789,50.0 L 100.0,64.4771499633789 L 97.97547149658203,62.45262145996094 L 88.54737854003906,71.8807144165039 L 100.0,83.33333587646484 L 133.3333282470703,50.0 L 121.8807144165039,38.54737854003906 Z M 90.07190704345703,50.5 L 40.5719108581543,100.0 L 59.4280891418457,100.0 L 99.5,59.9280891418457 L 90.07190704345703,50.5 Z M 121.8807144165039,62.45262145996094 L 112.45262145996094,71.8807144165039 L 140.57191467285156,100.0 L 159.42808532714844,100.0 L 121.8807144165039,62.45262145996094 Z" style="fill-rule: evenodd; fill: rgb(38, 38, 38); stroke-width: 1px; stroke: none;"/>
<path clip-path="url(#contour)" comment="FieldBackground" d="M 40.5719108581543,0.0 L 78.1192855834961,37.54737854003906 L 87.54737854003906,28.119287490844727 L 59.4280891418457,0.0 L 40.5719108581543,0.0 Z M 140.57191467285156,0.0 L 100.5,40.0719108581543 L 109.92809295654297,49.5 L 159.42808532714844,0.0 L 140.57191467285156,0.0 Z M 100.0,16.66666603088379 L 66.66666412353516,50.0 L 78.1192855834961,61.45262145996094 L 87.54737854003906,52.024532318115234 L 85.5228500366211,50.0 L 100.0,35.52284622192383 L 102.02452850341797,37.54737854003906 L 111.45262145996094,28.119287490844727 L 100.0,16.66666603088379 Z M 97.97547149658203,38.54737854003906 L 88.54737854003906,47.975467681884766 L 102.02452850341797,61.45262145996094 L 111.45262145996094,52.024532318115234 L 97.97547149658203,38.54737854003906 Z M 121.8807144165039,38.54737854003906 L 112.45262145996094,47.975467681884766 L 114.4771499633789,50.0 L 100.0,64.4771499633789 L 97.97547149658203,62.45262145996094 L 88.54737854003906,71.8807144165039 L 100.0,83.33333587646484 L 133.3333282470703,50.0 L 121.8807144165039,38.54737854003906 Z M 90.07190704345703,50.5 L 40.5719108581543,100.0 L 59.4280891418457,100.0 L 99.5,59.9280891418457 L 90.07190704345703,50.5 Z M 121.8807144165039,62.45262145996094 L 112.45262145996094,71.8807144165039 L 140.57191467285156,100.0 L 159.42808532714844,100.0 L 121.8807144165039,62.45262145996094 Z" style="fill-rule: evenodd; fill: rgb(38, 38, 38); stroke-width: 1px; stroke: none;"/>
<path clip-path="url(#contour)" comment="FieldBackground" d="M 40.5719108581543,0.0 L 78.1192855834961,37.54737854003906 L 87.54737854003906,28.119287490844727 L 59.4280891418457,0.0 L 40.5719108581543,0.0 Z M 140.57191467285156,0.0 L 100.5,40.0719108581543 L 109.92809295654297,49.5 L 159.42808532714844,0.0 L 140.57191467285156,0.0 Z M 100.0,16.66666603088379 L 66.66666412353516,50.0 L 78.1192855834961,61.45262145996094 L 87.54737854003906,52.024532318115234 L 85.5228500366211,50.0 L 100.0,35.52284622192383 L 102.02452850341797,37.54737854003906 L 111.45262145996094,28.119287490844727 L 100.0,16.66666603088379 Z M 97.97547149658203,38.54737854003906 L 88.54737854003906,47.975467681884766 L 102.02452850341797,61.45262145996094 L 111.45262145996094,52.024532318115234 L 97.97547149658203,38.54737854003906 Z M 121.8807144165039,38.54737854003906 L 112.45262145996094,47.975467681884766 L 114.4771499633789,50.0 L 100.0,64.4771499633789 L 97.97547149658203,62.45262145996094 L 88.54737854003906,71.8807144165039 L 100.0,83.33333587646484 L 133.3333282470703,50.0 L 121.8807144165039,38.54737854003906 Z M 90.07190704345703,50.5 L 40.5719108581543,100.0 L 59.4280891418457,100.0 L 99.5,59.9280891418457 L 90.07190704345703,50.5 Z M 121.8807144165039,62.45262145996094 L 112.45262145996094,71.8807144165039 L 140.57191467285156,100.0 L 159.42808532714844,100.0 L 121.8807144165039,62.45262145996094 Z" style="fill-rule: evenodd; fill: rgb(38, 38, 38); stroke-width: 1px; stroke: none;"/>
<path clip-path="url(#contour)" comment="outer shield shape border" d="M 0.0,0.0 L 0.0,100.0 L 200.0,100.0 L 160.0,50.0 L 200.0,0.0 L 0.0,0.0 Z" style="fill-rule: evenodd; fill: none; stroke-width: 1px; stroke: rgb(0, 0, 0);"/>
</g>
</svg>
