<?xml version="1.0" encoding="UTF-8" standalone="no"?>
<svg xmlns="http://www.w3.org/2000/svg" height="246.0" width="216.0">
<defs>
<clipPath id="contour">
<path d="M 0.0,0.0 L 200.0,0.0 L 200.0,100.0 C 200.0,150.0 160.0,200.0 100.0,230.0 C 40.0,200.0 0.0,150.0 0.0,100.0 L 0.0,0.0 Z"/>
</clipPath>
<radialGradient id="lighting">
<stop offset="25%" stop-color="white" stop-opacity="35%"/>
<stop offset="100%" stop-color="white" stop-opacity="0%"/>
</radialGradient>
</defs>
<g transform="translate(8.0,8.0)">
<path clip-path="url(#contour)" comment="FieldBackground" d="M 0.0,0.0 L 0.0,100.0 C 0.0,150.0 40.0,200.0 100.0,230.0 C 160.0,200.0 200.0,150.0 200.0,100.0 L 200.0,0.0 L 0.0,0.0 Z" style="fill-rule: evenodd; fill: rgb(179, 38, 26); stroke-width: 1px; stroke: none;"/>
<path clip-path="url(#contour)" comment="'fleur-de-lis' clipped chequy element 89.7755053030703, 72.47257474305118" d="M 89.77550506591797,72.47257232666016 C 89.77550506591797,72.47257995605469 89.7755126953125,72.47258758544922 89.7755126953125,72.47259521484375 L 89.77552032470703,72.47259521484375 C 89.7755126953125,72.47258758544922 89.77550506591797,72.47257995605469 89.77550506591797,72.47257232666016 Z" style="fill-rule: evenodd; fill: rgb(128, 64, 128); stroke-width: 1px; stroke: rgb(38, 38, 38);"/>
<path clip-path="url(#contour)" comment="'fleur-de-lis' clipped chequy element 73.72301462285904, 8.103782653808594" d="M 100.03144836425781,8.103782653808594 C 99.99169921875,8.103782653808594 99.95384216308594,8.13427734375 99.89730072021484,8.202120780944824 C 95.31698608398438,12.166251182556152 91.25016021728516,15.842827796936035 88.0665283203125,19.930194854736328 C 83.74951171875,25.46788215637207 80.81828308105469,31.235733032226562 79.50684356689453,36.853782653808594 L 102.47301483154297,36.853782653808594 L 102.47301483154297,10.191576957702637 C 101.71414947509766,9.520355224609375 100.93721008300781,8.844669342041016 100.1437759399414,8.161041259765625 L 100.1437759399414,8.161042213439941 C 100.09761810302734,8.124113082885742 100.06390380859375,8.103782653808594 100.03144836425781,8.103782653808594 Z" style="fill-rule: evenodd; fill: rgb(230, 230, 230); stroke-width: 1px; stroke: rgb(38, 38, 38);"/>
<path clip-path="url(#contour)" comment="'fleur-de-lis' clipped chequy element 102.47301462285904, 8.103782653808594" d="M 102.47301483154297,10.191576957702637 L 102.47301483154297,36.853782653808594 L 120.52679443359375,36.853782653808594 C 119.2179946899414,31.235733032226562 116.29155731201172,25.46788215637207 111.97454833984375,19.930194854736328 C 109.3399429321289,16.530710220336914 106.11456298828125,13.412549018859863 102.47301483154297,10.191576957702637 Z" style="fill-rule: evenodd; fill: rgb(128, 64, 128); stroke-width: 1px; stroke: rgb(38, 38, 38);"/>
<path clip-path="url(#contour)" comment="'fleur-de-lis' clipped chequy element 44.97301462285905, 36.853782653808594" d="M 66.06127166748047,58.774208068847656 C 61.30598449707031,58.774208068847656 56.03359603881836,60.386959075927734 51.0748291015625,64.33667755126953 C 50.5905647277832,64.72295379638672 50.12532424926758,65.14689636230469 49.68286895751953,65.6037826538086 L 73.72301483154297,65.6037826538086 L 73.72301483154297,60.20050811767578 C 73.08182525634766,59.97732925415039 72.43341827392578,59.774410247802734 71.77867889404297,59.592041015625 C 70.00869750976562,59.06533432006836 68.08165740966797,58.774208068847656 66.06127166748047,58.774208068847656 Z" style="fill-rule: evenodd; fill: rgb(230, 230, 230); stroke-width: 1px; stroke: rgb(38, 38, 38);"/>
<path clip-path="url(#contour)" comment="'fleur-de-lis' clipped chequy element 73.72301462285904, 36.853782653808594" d="M 73.72301483154297,60.20050811767578 L 73.72301483154297,65.6037826538086 L 83.41797637939453,65.6037826538086 C 80.4948959350586,63.23316955566406 77.21595764160156,61.41627502441406 73.72301483154297,60.20050811767578 Z M 79.50684356689453,36.853782653808594 C 78.10406494140625,42.86311721801758 78.55455780029297,48.70105743408203 81.14470672607422,53.902584075927734 C 83.25333404541016,58.43416213989258 85.08450317382812,62.24659729003906 86.6609115600586,65.6037826538086 L 102.47301483154297,65.6037826538086 L 102.47301483154297,36.853782653808594 L 79.50684356689453,36.853782653808594 Z" style="fill-rule: evenodd; fill: rgb(128, 64, 128); stroke-width: 1px; stroke: rgb(38, 38, 38);"/>
<path clip-path="url(#contour)" comment="'fleur-de-lis' clipped chequy element 73.72301462285904, 36.853782653808594" d="M 73.72301483154297,60.20050811767578 L 73.72301483154297,65.6037826538086 L 83.41797637939453,65.6037826538086 C 80.4948959350586,63.23316955566406 77.21595764160156,61.41627502441406 73.72301483154297,60.20050811767578 Z M 79.50684356689453,36.853782653808594 C 78.10406494140625,42.86311721801758 78.55455780029297,48.70105743408203 81.14470672607422,53.902584075927734 C 83.25333404541016,58.43416213989258 85.08450317382812,62.24659729003906 86.6609115600586,65.6037826538086 L 102.47301483154297,65.6037826538086 L 102.47301483154297,36.853782653808594 L 79.50684356689453,36.853782653808594 Z" style="fill-rule: evenodd; fill: rgb(128, 64, 128); stroke-width: 1px; stroke: rgb(38, 38, 38);"/>
<path clip-path="url(#contour)" comment="'fleur-de-lis' clipped chequy element 102.47301462285904, 36.853782653808594" d="M 102.47301483154297,36.853782653808594 L 102.47301483154297,65.6037826538086 L 113.38016510009766,65.6037826538086 C 114.95657348632812,62.24659729003906 116.7877426147461,58.43416213989258 118.89636993408203,53.902584075927734 C 121.47589874267578,48.701053619384766 121.92675018310547,42.86311721801758 120.52679443359375,36.853782653808594 L 102.47301483154297,36.853782653808594 Z M 131.22300720214844,58.92145538330078 C 130.09519958496094,59.057308197021484 129.0082550048828,59.28451919555664 127.97484588623047,59.592041015625 C 123.75337219238281,60.76788330078125 119.79521942138672,62.79800033569336 116.3355484008789,65.6037826538086 L 131.22300720214844,65.6037826538086 L 131.22300720214844,58.92145538330078 Z" style="fill-rule: evenodd; fill: rgb(230, 230, 230); stroke-width: 1px; stroke: rgb(38, 38, 38);"/>
<path clip-path="url(#contour)" comment="'fleur-de-lis' clipped chequy element 102.47301462285904, 36.853782653808594" d="M 102.47301483154297,36.853782653808594 L 102.47301483154297,65.6037826538086 L 113.38016510009766,65.6037826538086 C 114.95657348632812,62.24659729003906 116.7877426147461,58.43416213989258 118.89636993408203,53.902584075927734 C 121.47589874267578,48.701053619384766 121.92675018310547,42.86311721801758 120.52679443359375,36.853782653808594 L 102.47301483154297,36.853782653808594 Z M 131.22300720214844,58.92145538330078 C 130.09519958496094,59.057308197021484 129.0082550048828,59.28451919555664 127.97484588623047,59.592041015625 C 123.75337219238281,60.76788330078125 119.79521942138672,62.79800033569336 116.3355484008789,65.6037826538086 L 131.22300720214844,65.6037826538086 L 131.22300720214844,58.92145538330078 Z" style="fill-rule: evenodd; fill: rgb(230, 230, 230); stroke-width: 1px; stroke: rgb(38, 38, 38);"/>
<path clip-path="url(#contour)" comment="'fleur-de-lis' clipped chequy element 131.22301462285904, 36.853782653808594" d="M 133.69224548339844,58.774208068847656 C 132.85147094726562,58.774208068847656 132.02687072753906,58.824623107910156 131.22300720214844,58.92145538330078 L 131.22300720214844,65.6037826538086 L 150.07064819335938,65.6037826538086 C 149.62820434570312,65.14689636230469 149.1629638671875,64.72295379638672 148.67869567871094,64.33667755126953 C 143.7199249267578,60.386959075927734 138.44754028320312,58.774208068847656 133.69224548339844,58.774208068847656 Z" style="fill-rule: evenodd; fill: rgb(128, 64, 128); stroke-width: 1px; stroke: rgb(38, 38, 38);"/>
<path clip-path="url(#contour)" comment="'fleur-de-lis' clipped chequy element 44.97301462285905, 65.6037826538086" d="M 73.72301483154297,80.84416961669922 L 73.72303009033203,80.84416961669922 C 73.7230224609375,80.84416961669922 73.7230224609375,80.84416961669922 73.72301483154297,80.84416961669922 Z M 49.68286895751953,65.6037826538086 C 42.14973449707031,73.38262176513672 41.22179412841797,90.70914459228516 65.45249938964844,94.20115661621094 C 62.74128341674805,91.05860900878906 62.967220306396484,84.21894073486328 68.38965606689453,81.79528045654297 C 70.12242126464844,81.12619018554688 71.95191192626953,80.8440170288086 73.6537094116211,80.8440170288086 C 73.67683410644531,80.8440170288086 73.69994354248047,80.84407043457031 73.72301483154297,80.84416961669922 L 73.72301483154297,65.6037826538086 L 49.68286895751953,65.6037826538086 Z" style="fill-rule: evenodd; fill: rgb(128, 64, 128); stroke-width: 1px; stroke: rgb(38, 38, 38);"/>
<path clip-path="url(#contour)" comment="'fleur-de-lis' clipped chequy element 44.97301462285905, 65.6037826538086" d="M 73.72301483154297,80.84416961669922 L 73.72303009033203,80.84416961669922 C 73.7230224609375,80.84416961669922 73.7230224609375,80.84416961669922 73.72301483154297,80.84416961669922 Z M 49.68286895751953,65.6037826538086 C 42.14973449707031,73.38262176513672 41.22179412841797,90.70914459228516 65.45249938964844,94.20115661621094 C 62.74128341674805,91.05860900878906 62.967220306396484,84.21894073486328 68.38965606689453,81.79528045654297 C 70.12242126464844,81.12619018554688 71.95191192626953,80.8440170288086 73.6537094116211,80.8440170288086 C 73.67683410644531,80.8440170288086 73.69994354248047,80.84407043457031 73.72301483154297,80.84416961669922 L 73.72301483154297,65.6037826538086 L 49.68286895751953,65.6037826538086 Z" style="fill-rule: evenodd; fill: rgb(128, 64, 128); stroke-width: 1px; stroke: rgb(38, 38, 38);"/>
<path clip-path="url(#contour)" comment="'fleur-de-lis' clipped chequy element 73.72301462285904, 65.6037826538086" d="M 73.72301483154297,65.6037826538086 L 73.72301483154297,80.84416961669922 L 73.72303009033203,80.84416961669922 C 76.06807708740234,80.854736328125 78.16382598876953,81.40061950683594 79.41938781738281,82.20606994628906 C 81.4664535522461,83.15819549560547 83.97557830810547,86.24128723144531 85.42826080322266,90.07270812988281 L 79.09075164794922,90.07270812988281 L 79.09075164794922,94.3537826538086 L 102.47301483154297,94.3537826538086 L 102.47301483154297,65.6037826538086 L 86.6609115600586,65.6037826538086 C 87.83800506591797,68.11058044433594 88.87306213378906,70.36355590820312 89.77550506591797,72.47257232666016 C 87.9434814453125,69.83272552490234 85.79875946044922,67.53459167480469 83.41797637939453,65.6037826538086 L 73.72301483154297,65.6037826538086 Z" style="fill-rule: evenodd; fill: rgb(230, 230, 230); stroke-width: 1px; stroke: rgb(38, 38, 38);"/>
<path clip-path="url(#contour)" comment="'fleur-de-lis' clipped chequy element 102.47301462285904, 65.6037826538086" d="M 131.22300720214844,81.74181365966797 L 131.22300720214844,81.7418212890625 L 131.2230224609375,81.7418212890625 C 131.2230224609375,81.7418212890625 131.22300720214844,81.7418212890625 131.22300720214844,81.74181365966797 Z M 102.47301483154297,65.6037826538086 L 102.47301483154297,94.3537826538086 L 120.97086334228516,94.3537826538086 L 120.97086334228516,90.07270812988281 L 114.32526397705078,90.07270812988281 C 115.77793884277344,86.24128723144531 118.28706359863281,83.15819549560547 120.33413696289062,82.20606994628906 C 121.60205078125,81.39269256591797 123.7267837524414,80.8440170288086 126.09981536865234,80.8440170288086 C 127.75555419921875,80.8440170288086 129.5321807861328,81.11112976074219 131.22300720214844,81.74181365966797 L 131.22300720214844,65.6037826538086 L 116.3355484008789,65.6037826538086 C 114.25994110107422,67.28710174560547 112.36375427246094,69.24960327148438 110.69776916503906,71.47432708740234 C 111.49451446533203,69.65424346923828 112.38675689697266,67.71940612792969 113.38016510009766,65.6037826538086 L 102.47301483154297,65.6037826538086 Z" style="fill-rule: evenodd; fill: rgb(128, 64, 128); stroke-width: 1px; stroke: rgb(38, 38, 38);"/>
<path clip-path="url(#contour)" comment="'fleur-de-lis' clipped chequy element 102.47301462285904, 65.6037826538086" d="M 131.22300720214844,81.74181365966797 L 131.22300720214844,81.7418212890625 L 131.2230224609375,81.7418212890625 C 131.2230224609375,81.7418212890625 131.22300720214844,81.7418212890625 131.22300720214844,81.74181365966797 Z M 102.47301483154297,65.6037826538086 L 102.47301483154297,94.3537826538086 L 120.97086334228516,94.3537826538086 L 120.97086334228516,90.07270812988281 L 114.32526397705078,90.07270812988281 C 115.77793884277344,86.24128723144531 118.28706359863281,83.15819549560547 120.33413696289062,82.20606994628906 C 121.60205078125,81.39269256591797 123.7267837524414,80.8440170288086 126.09981536865234,80.8440170288086 C 127.75555419921875,80.8440170288086 129.5321807861328,81.11112976074219 131.22300720214844,81.74181365966797 L 131.22300720214844,65.6037826538086 L 116.3355484008789,65.6037826538086 C 114.25994110107422,67.28710174560547 112.36375427246094,69.24960327148438 110.69776916503906,71.47432708740234 C 111.49451446533203,69.65424346923828 112.38675689697266,67.71940612792969 113.38016510009766,65.6037826538086 L 102.47301483154297,65.6037826538086 Z" style="fill-rule: evenodd; fill: rgb(128, 64, 128); stroke-width: 1px; stroke: rgb(38, 38, 38);"/>
<path clip-path="url(#contour)" comment="'fleur-de-lis' clipped chequy element 131.22301462285904, 65.6037826538086" d="M 131.22300720214844,65.6037826538086 L 131.22300720214844,81.7418212890625 L 131.2230224609375,81.7418212890625 C 131.27003479003906,81.75936126708984 131.31698608398438,81.77717590332031 131.36386108398438,81.79528045654297 C 136.7863006591797,84.21894073486328 137.01223754882812,91.05860900878906 134.301025390625,94.20115661621094 C 158.53172302246094,90.70914459228516 157.60379028320312,73.38262176513672 150.07064819335938,65.6037826538086 L 131.22300720214844,65.6037826538086 Z" style="fill-rule: evenodd; fill: rgb(230, 230, 230); stroke-width: 1px; stroke: rgb(38, 38, 38);"/>
<path clip-path="url(#contour)" comment="'fleur-de-lis' clipped chequy element 44.97301462285905, 94.3537826538086" d="M 73.72301483154297,113.97584533691406 C 71.83454132080078,115.38285827636719 69.6849136352539,116.95469665527344 67.23944091796875,118.76644134521484 C 69.33989715576172,118.76644134521484 71.53836059570312,118.47889709472656 73.72301483154297,118.00365447998047 L 73.72301483154297,113.97584533691406 Z" style="fill-rule: evenodd; fill: rgb(230, 230, 230); stroke-width: 1px; stroke: rgb(38, 38, 38);"/>
<path clip-path="url(#contour)" comment="'fleur-de-lis' clipped chequy element 73.72301462285904, 94.3537826538086" d="M 79.09075164794922,94.3537826538086 L 79.09075164794922,101.1517333984375 L 85.77640533447266,101.1517333984375 C 84.20886993408203,105.74568939208984 80.79939270019531,108.7035903930664 73.72301483154297,113.97584533691406 L 73.72301483154297,118.00365447998047 C 81.83525848388672,116.23896026611328 89.75711059570312,111.8862075805664 91.7636489868164,110.05767822265625 C 91.96062469482422,109.88240051269531 92.15692901611328,109.63277435302734 92.35135650634766,109.3220443725586 C 91.5713119506836,114.18263244628906 87.84429168701172,118.04356384277344 81.2679443359375,120.28636169433594 C 81.57073974609375,121.05023193359375 82.24935913085938,122.08155822753906 83.2389144897461,123.1037826538086 L 102.47301483154297,123.1037826538086 L 102.47301483154297,94.3537826538086 L 79.09075164794922,94.3537826538086 Z" style="fill-rule: evenodd; fill: rgb(128, 64, 128); stroke-width: 1px; stroke: rgb(38, 38, 38);"/>
<path clip-path="url(#contour)" comment="'fleur-de-lis' clipped chequy element 102.47301462285904, 94.3537826538086" d="M 102.47301483154297,94.3537826538086 L 102.47301483154297,123.1037826538086 L 116.80216217041016,123.1037826538086 C 117.79171752929688,122.08155822753906 118.47034454345703,121.05023193359375 118.77313995361328,120.28636169433594 C 112.437255859375,118.12557220458984 108.74613952636719,114.46282196044922 107.787109375,109.85118865966797 C 107.85458374023438,109.92843627929688 107.92218780517578,109.99744415283203 107.98987579345703,110.05767822265625 C 110.4270248413086,112.27861785888672 121.59082794189453,118.22344970703125 131.22300720214844,118.731689453125 L 131.22300720214844,117.8116683959961 C 120.53482055664062,109.91999816894531 115.88774108886719,106.75116729736328 113.97711944580078,101.1517333984375 L 120.97086334228516,101.1517333984375 L 120.97086334228516,94.3537826538086 L 102.47301483154297,94.3537826538086 Z" style="fill-rule: evenodd; fill: rgb(230, 230, 230); stroke-width: 1px; stroke: rgb(38, 38, 38);"/>
<path clip-path="url(#contour)" comment="'fleur-de-lis' clipped chequy element 131.22301462285904, 94.3537826538086" d="M 131.22300720214844,117.8116683959961 L 131.22300720214844,118.731689453125 C 131.6567840576172,118.75457763671875 132.08746337890625,118.76644134521484 132.5140838623047,118.76644134521484 C 132.07421875,118.44056701660156 131.64393615722656,118.12245178222656 131.22300720214844,117.8116683959961 Z" style="fill-rule: evenodd; fill: rgb(128, 64, 128); stroke-width: 1px; stroke: rgb(38, 38, 38);"/>
<path clip-path="url(#contour)" comment="'fleur-de-lis' clipped chequy element 73.72301462285904, 123.1037826538086" d="M 83.2389144897461,123.1037826538086 C 85.10911560058594,125.03572845458984 88.0899429321289,126.93517303466797 91.74333953857422,126.93517303466797 C 91.92644500732422,126.93517303466797 92.11123657226562,126.93040466308594 92.29766845703125,126.92062377929688 C 93.44788360595703,131.85011291503906 94.59809875488281,134.6024169921875 99.89730072021484,139.0800323486328 C 99.95892333984375,139.13137817382812 99.98973083496094,139.1570587158203 100.02053833007812,139.1570587158203 C 100.05135345458984,139.1570587158203 100.08216094970703,139.13137817382812 100.1437759399414,139.0800323486328 C 101.0296859741211,138.33148193359375 101.79963684082031,137.63113403320312 102.47301483154297,136.96078491210938 L 102.47301483154297,123.1037826538086 L 83.2389144897461,123.1037826538086 Z" style="fill-rule: evenodd; fill: rgb(230, 230, 230); stroke-width: 1px; stroke: rgb(38, 38, 38);"/>
<path clip-path="url(#contour)" comment="'fleur-de-lis' clipped chequy element 102.47301462285904, 123.1037826538086" d="M 102.47301483154297,123.1037826538086 L 102.47301483154297,136.96078491210938 C 105.82756042480469,133.62132263183594 106.78548431396484,131.02601623535156 107.743408203125,126.92062377929688 C 107.92984008789062,126.93040466308594 108.11463928222656,126.93517303466797 108.29774475097656,126.93517303466797 C 111.95113372802734,126.93517303466797 114.93196105957031,125.03572845458984 116.80216217041016,123.1037826538086 L 102.47301483154297,123.1037826538086 Z" style="fill-rule: evenodd; fill: rgb(128, 64, 128); stroke-width: 1px; stroke: rgb(38, 38, 38);"/>
<path clip-path="url(#contour)" comment="outer shield shape border" d="M 0.0,0.0 L 0.0,100.0 C 0.0,150.0 40.0,200.0 100.0,230.0 C 160.0,200.0 200.0,150.0 200.0,100.0 L 200.0,0.0 L 0.0,0.0 Z" style="fill-rule: evenodd; fill: none; stroke-width: 1px; stroke: rgb(0, 0, 0);"/>
</g>
</svg>
