<?xml version="1.0" encoding="UTF-8" standalone="no"?>
<svg xmlns="http://www.w3.org/2000/svg" height="246.0" width="216.0">
<defs>
<clipPath id="contour">
<path d="M 8.0,8.0 L 208.0,8.0 L 208.0,108.0 C 208.0,158.0 168.0,208.0 108.0,238.0 C 48.0,208.0 8.0,158.0 8.0,108.0 L 8.0,8.0 Z"/>
</clipPath>
<radialGradient id="lighting">
<stop offset="25%" stop-color="white" stop-opacity="35%"/>
<stop offset="100%" stop-color="white" stop-opacity="0%"/>
</radialGradient>
</defs>
<g>
<path d="M 8.0,8.0 L 8.0,108.0 C 8.0,158.0 48.0,208.0 108.0,238.0 C 168.0,208.0 208.0,158.0 208.0,108.0 L 208.0,8.0 L 8.0,8.0 Z" style="fill: rgb(217, 38, 38); stroke-width: 1px; stroke: none;"/>
<path d="M 8.0,8.0 Q 20.5,35.5 33.0,35.5 Q 45.5,35.5 58.0,8.0 L 53.0,8.0 Q 43.0,33.0 33.0,33.0 Q 23.0,33.0 13.0,8.0 L 8.0,8.0 Z" style="fill: rgb(217, 217, 38); stroke-width: 1px; stroke: none;"/>
<path d="M 58.0,8.0 Q 70.5,35.5 83.0,35.5 Q 95.5,35.5 108.0,8.0 L 103.0,8.0 Q 93.0,33.0 83.0,33.0 Q 73.0,33.0 63.0,8.0 L 58.0,8.0 Z" style="fill: rgb(217, 217, 38); stroke-width: 1px; stroke: none;"/>
<path d="M 108.0,8.0 Q 120.5,35.5 133.0,35.5 Q 145.5,35.5 158.0,8.0 L 153.0,8.0 Q 143.0,33.0 133.0,33.0 Q 123.0,33.0 113.0,8.0 L 108.0,8.0 Z" style="fill: rgb(217, 217, 38); stroke-width: 1px; stroke: none;"/>
<path d="M 158.0,8.0 Q 170.5,35.5 183.0,35.5 Q 195.5,35.5 208.0,8.0 L 203.0,8.0 Q 193.0,33.0 183.0,33.0 Q 173.0,33.0 163.0,8.0 L 158.0,8.0 Z" style="fill: rgb(217, 217, 38); stroke-width: 1px; stroke: none;"/>
<path d="M 33.0,33.0 Q 45.5,60.5 58.0,60.5 Q 70.5,60.5 83.0,33.0 L 78.0,33.0 Q 68.0,58.0 58.0,58.0 Q 48.0,58.0 38.0,33.0 L 33.0,33.0 Z" style="fill: rgb(217, 217, 38); stroke-width: 1px; stroke: none;"/>
<path d="M 83.0,33.0 Q 95.5,60.5 108.0,60.5 Q 120.5,60.5 133.0,33.0 L 128.0,33.0 Q 118.0,58.0 108.0,58.0 Q 98.0,58.0 88.0,33.0 L 83.0,33.0 Z" style="fill: rgb(217, 217, 38); stroke-width: 1px; stroke: none;"/>
<path d="M 133.0,33.0 Q 145.5,60.5 158.0,60.5 Q 170.5,60.5 183.0,33.0 L 178.0,33.0 Q 168.0,58.0 158.0,58.0 Q 148.0,58.0 138.0,33.0 L 133.0,33.0 Z" style="fill: rgb(217, 217, 38); stroke-width: 1px; stroke: none;"/>
<path d="M 183.0,33.0 Q 195.5,60.5 208.0,60.5 L 208.0,58.0 Q 198.0,58.0 188.0,33.0 L 183.0,33.0 Z" style="fill: rgb(217, 217, 38); stroke-width: 1px; stroke: none;"/>
<path d="M 8.0,58.0 Q 20.5,85.5 33.0,85.5 Q 45.5,85.5 58.0,58.0 L 53.0,58.0 Q 43.0,83.0 33.0,83.0 Q 23.0,83.0 13.0,58.0 L 8.0,58.0 Z" style="fill: rgb(217, 217, 38); stroke-width: 1px; stroke: none;"/>
<path d="M 58.0,58.0 Q 70.5,85.5 83.0,85.5 Q 95.5,85.5 108.0,58.0 L 103.0,58.0 Q 93.0,83.0 83.0,83.0 Q 73.0,83.0 63.0,58.0 L 58.0,58.0 Z" style="fill: rgb(217, 217, 38); stroke-width: 1px; stroke: none;"/>
<path d="M 108.0,58.0 Q 120.5,85.5 133.0,85.5 Q 145.5,85.5 158.0,58.0 L 153.0,58.0 Q 143.0,83.0 133.0,83.0 Q 123.0,83.0 113.0,58.0 L 108.0,58.0 Z" style="fill: rgb(217, 217, 38); stroke-width: 1px; stroke: none;"/>
<path d="M 158.0,58.0 Q 170.5,85.5 183.0,85.5 Q 195.5,85.5 208.0,58.0 L 203.0,58.0 Q 193.0,83.0 183.0,83.0 Q 173.0,83.0 163.0,58.0 L 158.0,58.0 Z" style="fill: rgb(217, 217, 38); stroke-width: 1px; stroke: none;"/>
<path d="M 33.0,83.0 Q 45.5,110.5 58.0,110.5 Q 70.5,110.5 83.0,83.0 L 78.0,83.0 Q 68.0,108.0 58.0,108.0 Q 48.0,108.0 38.0,83.0 L 33.0,83.0 Z" style="fill: rgb(217, 217, 38); stroke-width: 1px; stroke: none;"/>
<path d="M 83.0,83.0 Q 95.5,110.5 108.0,110.5 Q 120.5,110.5 133.0,83.0 L 128.0,83.0 Q 118.0,108.0 108.0,108.0 Q 98.0,108.0 88.0,83.0 L 83.0,83.0 Z" style="fill: rgb(217, 217, 38); stroke-width: 1px; stroke: none;"/>
<path d="M 133.0,83.0 Q 145.5,110.5 158.0,110.5 Q 170.5,110.5 183.0,83.0 L 178.0,83.0 Q 168.0,108.0 158.0,108.0 Q 148.0,108.0 138.0,83.0 L 133.0,83.0 Z" style="fill: rgb(217, 217, 38); stroke-width: 1px; stroke: none;"/>
<path d="M 183.0,83.0 Q 195.48338317871094,110.46343231201172 207.9667510986328,110.49995422363281 L 207.9667510986328,110.49995422363281 C 207.9888916015625,109.66669464111328 208.0,108.8333511352539 208.0,108.0 Q 198.0,108.0 188.0,83.0 L 183.0,83.0 Z" style="fill: rgb(217, 217, 38); stroke-width: 1px; stroke: none;"/>
<path d="M 8.0,108.0 Q 20.5,135.5 33.0,135.5 Q 45.5,135.5 58.0,108.0 L 53.0,108.0 Q 43.0,133.0 33.0,133.0 Q 23.0,133.0 13.0,108.0 L 8.0,108.0 Z" style="fill: rgb(217, 217, 38); stroke-width: 1px; stroke: none;"/>
<path d="M 58.0,108.0 Q 70.5,135.5 83.0,135.5 Q 95.5,135.5 108.0,108.0 L 103.0,108.0 Q 93.0,133.0 83.0,133.0 Q 73.0,133.0 63.0,108.0 L 58.0,108.0 Z" style="fill: rgb(217, 217, 38); stroke-width: 1px; stroke: none;"/>
<path d="M 108.0,108.0 Q 120.5,135.5 133.0,135.5 Q 145.5,135.5 158.0,108.0 L 153.0,108.0 Q 143.0,133.0 133.0,133.0 Q 123.0,133.0 113.0,108.0 L 108.0,108.0 Z" style="fill: rgb(217, 217, 38); stroke-width: 1px; stroke: none;"/>
<path d="M 158.0,108.0 Q 170.5,135.5 183.0,135.5 Q 195.5,135.5 208.0,108.0 L 208.0,108.0 C 208.0,108.0 208.0,108.0 208.0,108.0 L 203.0,108.0 Q 193.0,133.0 183.0,133.0 Q 173.0,133.0 163.0,108.0 L 158.0,108.0 Z" style="fill: rgb(217, 217, 38); stroke-width: 1px; stroke: none;"/>
<path d="M 33.0,133.0 Q 45.5,160.5 58.0,160.5 Q 70.5,160.5 83.0,133.0 L 78.0,133.0 Q 68.0,158.0 58.0,158.0 Q 48.0,158.0 38.0,133.0 L 33.0,133.0 Z" style="fill: rgb(217, 217, 38); stroke-width: 1px; stroke: none;"/>
<path d="M 83.0,133.0 Q 95.5,160.5 108.0,160.5 Q 120.5,160.5 133.0,133.0 L 128.0,133.0 Q 118.0,158.0 108.0,158.0 Q 98.0,158.0 88.0,133.0 L 83.0,133.0 Z" style="fill: rgb(217, 217, 38); stroke-width: 1px; stroke: none;"/>
<path d="M 133.0,133.0 Q 145.5,160.5 158.0,160.5 Q 170.5,160.5 183.0,133.0 L 178.0,133.0 Q 168.0,158.0 158.0,158.0 Q 148.0,158.0 138.0,133.0 L 133.0,133.0 Z" style="fill: rgb(217, 217, 38); stroke-width: 1px; stroke: none;"/>
<path d="M 183.0,133.0 Q 189.81417846679688,147.99118041992188 196.62835693359375,154.81016540527344 L 196.62835693359375,154.81016540527344 C 197.11395263671875,153.8098907470703 197.58493041992188,152.80686950683594 198.04110717773438,151.80128479003906 L 198.04110717773438,151.80128479003906 Q 193.0205535888672,145.5513916015625 188.0,133.0 L 183.0,133.0 Z" style="fill: rgb(217, 217, 38); stroke-width: 1px; stroke: none;"/>
<path d="M 53.0,158.0 Q 44.884918212890625,178.28770446777344 36.76983451843262,182.1117706298828 L 36.76983451843262,182.1117706298828 C 37.32468795776367,182.80709838867188 37.8867244720459,183.4999542236328 38.45586967468262,184.19027709960938 L 38.45586967468262,184.19027709960938 Q 48.227935791015625,179.49855041503906 58.0,158.0 L 53.0,158.0 Z" style="fill: rgb(217, 217, 38); stroke-width: 1px; stroke: none;"/>
<path d="M 58.0,158.0 Q 70.5,185.5 83.0,185.5 Q 95.5,185.5 108.0,158.0 L 103.0,158.0 Q 93.0,183.0 83.0,183.0 Q 73.0,183.0 63.0,158.0 L 58.0,158.0 Z" style="fill: rgb(217, 217, 38); stroke-width: 1px; stroke: none;"/>
<path d="M 108.0,158.0 Q 120.5,185.5 133.0,185.5 Q 145.5,185.5 158.0,158.0 L 153.0,158.0 Q 143.0,183.0 133.0,183.0 Q 123.0,183.0 113.0,158.0 L 108.0,158.0 Z" style="fill: rgb(217, 217, 38); stroke-width: 1px; stroke: none;"/>
<path d="M 158.0,158.0 Q 167.77206420898438,179.49855041503906 177.54412841796875,184.19027709960938 L 177.54412841796875,184.19027709960938 C 178.11328125,183.4999542236328 178.67530822753906,182.80709838867188 179.23016357421875,182.1117706298828 L 179.23016357421875,182.1117706298828 Q 171.11508178710938,178.28770446777344 163.0,158.0 L 158.0,158.0 Z" style="fill: rgb(217, 217, 38); stroke-width: 1px; stroke: none;"/>
<path d="M 37.48360824584961,183.0 L 37.48360824584961,183.0 C 37.82236099243164,183.41860961914062 38.16372299194336,183.8363037109375 38.507673263549805,184.25308227539062 L 38.507673263549805,184.25308227539062 Q 38.25383758544922,183.6345977783203 38.0,183.0 L 37.48360824584961,183.0 Z" style="fill: rgb(217, 217, 38); stroke-width: 1px; stroke: none;"/>
<path d="M 78.0,183.0 Q 69.65254974365234,203.86862182617188 61.30509948730469,207.31727600097656 L 61.30509948730469,207.31727600097656 C 62.0309944152832,207.937744140625 62.763126373291016,208.55477905273438 63.50141143798828,209.16831970214844 L 63.50141143798828,209.16831970214844 Q 73.25070190429688,204.4484405517578 83.0,183.0 L 37.48360824584961,183.0 Z" style="fill: rgb(217, 217, 38); stroke-width: 1px; stroke: none;"/>
<path d="M 83.0,183.0 Q 95.5,210.5 108.0,210.5 Q 120.5,210.5 133.0,183.0 L 128.0,183.0 Q 118.0,208.0 108.0,208.0 Q 98.0,208.0 88.0,183.0 L 83.0,183.0 Z" style="fill: rgb(217, 217, 38); stroke-width: 1px; stroke: none;"/>
<path d="M 178.0,183.0 Q 177.7461700439453,183.6345977783203 177.49232482910156,184.25308227539062 L 177.49232482910156,184.25308227539062 C 177.83627319335938,183.8363037109375 178.17764282226562,183.41860961914062 178.51638793945312,183.0 L 178.0,183.0 Z" style="fill: rgb(217, 217, 38); stroke-width: 1px; stroke: none;"/>
<path d="M 133.0,183.0 Q 142.74929809570312,204.4484405517578 152.49859619140625,209.16831970214844 L 152.49859619140625,209.16831970214844 C 153.23687744140625,208.55477905273438 153.96900939941406,207.937744140625 154.6949005126953,207.31727600097656 L 154.6949005126953,207.31727600097656 Q 146.34744262695312,203.86862182617188 138.0,183.0 L 178.0,183.0 Z" style="fill: rgb(217, 217, 38); stroke-width: 1px; stroke: none;"/>
<path d="M 62.10798645019531,208.0 C 62.55573654174805,208.37876892089844 63.00581741333008,208.75625610351562 63.458213806152344,209.1324005126953 L 63.458213806152344,209.1324005126953 Q 63.22910690307617,208.57276916503906 63.0,208.0 L 62.10798645019531,208.0 Z" style="fill: rgb(217, 217, 38); stroke-width: 1px; stroke: none;"/>
<path d="M 103.0,208.0 Q 97.10838317871094,222.72903442382812 91.21676635742188,228.78028869628906 L 91.21676635742188,228.78028869628906 C 92.08454132080078,229.30247497558594 92.95759582519531,229.8203125 93.8358383178711,230.33372497558594 L 93.8358383178711,230.33372497558594 Q 100.91792297363281,223.58058166503906 108.0,208.0 L 62.10798645019531,208.0 Z" style="fill: rgb(217, 217, 38); stroke-width: 1px; stroke: none;"/>
<path d="M 153.0,208.0 Q 152.77088928222656,208.57276916503906 152.5417938232422,209.1324005126953 L 152.5417938232422,209.1324005126953 C 152.9941864013672,208.75625610351562 153.4442596435547,208.37876892089844 153.8920135498047,208.0 L 153.0,208.0 Z" style="fill: rgb(217, 217, 38); stroke-width: 1px; stroke: none;"/>
<path d="M 108.0,208.0 Q 115.08207702636719,223.58058166503906 122.1641616821289,230.33372497558594 L 122.1641616821289,230.33372497558594 C 123.04240417480469,229.8203125 123.91545867919922,229.30247497558594 124.78323364257812,228.78028869628906 L 124.78323364257812,228.78028869628906 Q 118.89161682128906,222.72903442382812 113.0,208.0 L 153.0,208.0 Z" style="fill: rgb(217, 217, 38); stroke-width: 1px; stroke: none;"/>
<path d="M 8.0,8.0 L 208.0,8.0 L 208.0,108.0 C 208.0,158.0 168.0,208.0 108.0,238.0 C 48.0,208.0 8.0,158.0 8.0,108.0 L 8.0,8.0 Z" style="fill: none; stroke-width: 1px; stroke: rgb(0, 0, 0);"/>
</g>
<rect clip-path="url(#contour)" fill="url(#lighting)" height="246.0" width="216.0" x="0.0" y="0.0"/>
</svg>
