<?xml version="1.0" encoding="UTF-8" standalone="no"?>
<svg xmlns="http://www.w3.org/2000/svg" height="246.0" width="216.0">
<defs>
<clipPath id="contour">
<path d="M 8.0,8.0 L 208.0,8.0 L 208.0,108.0 C 208.0,158.0 168.0,208.0 108.0,238.0 C 48.0,208.0 8.0,158.0 8.0,108.0 L 8.0,8.0 Z"/>
</clipPath>
<radialGradient id="lighting">
<stop offset="25%" stop-color="white" stop-opacity="35%"/>
<stop offset="100%" stop-color="white" stop-opacity="0%"/>
</radialGradient>
</defs>
<g transform="translate(8.0,8.0)">
<path d="M 0.0,0.0 L 0.0,28.75 L 100.0,28.75 L 100.0,0.0 L 0.0,0.0 Z" style="fill: rgb(13, 38, 217); stroke-width: 1px; stroke: none;"/>
<path d="M 0.0,28.75 L 0.0,57.5 L 100.0,57.5 L 100.0,28.75 L 0.0,28.75 Z" style="fill: rgb(38, 217, 38); stroke-width: 1px; stroke: none;"/>
<path d="M 0.0,57.5 L 0.0,86.25 L 100.0,86.25 L 100.0,57.5 L 0.0,57.5 Z" style="fill: rgb(13, 38, 217); stroke-width: 1px; stroke: none;"/>
<path d="M 0.0,86.25 L 0.0,100.0 L 100.0,100.0 L 100.0,86.25 L 0.0,86.25 Z" style="fill: rgb(38, 217, 38); stroke-width: 1px; stroke: none;"/>
<path d="M 100.0,0.0 L 100.0,100.0 L 128.75,100.0 L 128.75,0.0 L 100.0,0.0 Z" style="fill: rgb(230, 230, 230); stroke-width: 1px; stroke: none;"/>
<path d="M 128.75,0.0 L 128.75,100.0 L 157.5,100.0 L 157.5,0.0 L 128.75,0.0 Z" style="fill: rgb(166, 64, 166); stroke-width: 1px; stroke: none;"/>
<path d="M 157.5,0.0 L 157.5,100.0 L 186.25,100.0 L 186.25,0.0 L 157.5,0.0 Z" style="fill: rgb(230, 230, 230); stroke-width: 1px; stroke: none;"/>
<path d="M 186.25,0.0 L 186.25,100.0 L 200.0,100.0 L 200.0,0.0 L 186.25,0.0 Z" style="fill: rgb(166, 64, 166); stroke-width: 1px; stroke: none;"/>
<path d="M 100.0,100.0 L 100.0,230.0 C 160.0,200.0 200.0,150.0 200.0,100.0 L 100.0,100.0 Z" style="fill: rgb(217, 217, 38); stroke-width: 1px; stroke: none;"/>
<path d="M 189.39340209960938,100.0 L 199.4644775390625,110.07107543945312 L 199.4644775390625,110.07107543945312 C 199.81947326660156,106.71809387207031 200.0,103.35904693603516 200.0,100.0 L 189.39340209960938,100.0 Z" style="fill: rgb(38, 217, 38); stroke-width: 1px; stroke: none;"/>
<path d="M 100.0,100.0 L 100.0,110.60660552978516 L 110.60660552978516,100.0 L 189.39340209960938,100.0 Z" style="fill: rgb(38, 217, 38); stroke-width: 1px; stroke: none;"/>
<path d="M 131.81980895996094,100.0 L 100.0,131.81980895996094 L 100.0,153.0330047607422 L 150.0,103.03301239013672 L 190.26712036132812,143.30014038085938 L 190.26712036132812,143.30014038085938 C 192.55921936035156,138.1880340576172 194.46856689453125,133.010498046875 195.971435546875,127.79124450683594 L 195.971435546875,127.79124450683594 L 168.18019104003906,100.0 L 131.81980895996094,100.0 Z" style="fill: rgb(38, 217, 38); stroke-width: 1px; stroke: none;"/>
<path d="M 150.0,124.2462158203125 L 100.0,174.2462158203125 L 100.0,195.45941162109375 L 150.0,145.45941162109375 L 174.4634552001953,169.92286682128906 L 174.4634552001953,169.92286682128906 C 177.56362915039062,165.76760864257812 180.40899658203125,161.53167724609375 182.98422241210938,157.23043823242188 L 182.98422241210938,157.23043823242188 L 150.0,124.2462158203125 L 150.0,124.2462158203125 Z" style="fill: rgb(38, 217, 38); stroke-width: 1px; stroke: none;"/>
<path d="M 150.0,166.67262268066406 L 100.0,216.67262268066406 L 100.0,230.0 C 106.07820892333984,226.9608917236328 111.95116424560547,223.716552734375 117.59808349609375,220.28773498535156 L 117.59808349609375,220.28773498535156 L 150.0,187.8858184814453 L 154.44879150390625,192.33462524414062 L 154.44879150390625,192.33462524414062 C 158.1307830810547,188.83888244628906 161.62139892578125,185.2504425048828 164.90866088867188,181.58128356933594 L 164.90866088867188,181.58128356933594 L 150.0,166.67262268066406 L 150.0,166.67262268066406 Z" style="fill: rgb(38, 217, 38); stroke-width: 1px; stroke: none;"/>
<path d="M 0.0,100.0 C 0.0,150.0 40.0,200.0 100.0,230.0 L 100.0,100.0 L 0.0,100.0 Z" style="fill: rgb(38, 38, 38); stroke-width: 1px; stroke: none;"/>
<path d="M 31.819805145263672,100.0 L 50.0,118.18019104003906 L 68.18019104003906,100.0 L 31.819805145263672,100.0 Z" style="fill: rgb(217, 38, 38); stroke-width: 1px; stroke: none;"/>
<path d="M 0.0,100.0 C 0.0,103.76197814941406 0.22643931210041046,107.5239486694336 0.6707993745803833,111.27740478515625 L 0.6708053350448608,111.27740478515625 L 50.0,160.60659790039062 L 100.0,110.60660552978516 L 100.0,100.0 L 89.39339447021484,100.0 L 50.0,139.39340209960938 L 10.60660171508789,100.0 L 0.0,100.0 Z" style="fill: rgb(217, 38, 38); stroke-width: 1px; stroke: none;"/>
<path d="M 100.0,131.81980895996094 L 50.0,181.81980895996094 L 8.40256404876709,140.2223663330078 L 8.402555465698242,140.2223663330078 C 17.30097007751465,161.60511779785156 32.91246795654297,181.93658447265625 53.526641845703125,199.50636291503906 L 53.526641845703125,199.50636291503906 L 100.0,153.0330047607422 L 100.0,131.81980895996094 L 100.0,131.81980895996094 Z" style="fill: rgb(217, 38, 38); stroke-width: 1px; stroke: none;"/>
<path d="M 100.0,174.2462158203125 L 65.3624496459961,208.88375854492188 L 65.3624496459961,208.88375854492188 C 69.40719604492188,211.86415100097656 73.60494995117188,214.7441864013672 77.94562530517578,217.5137939453125 L 77.94562530517578,217.5137939453125 L 100.0,195.45941162109375 L 100.0,174.2462158203125 L 100.0,174.2462158203125 Z" style="fill: rgb(217, 38, 38); stroke-width: 1px; stroke: none;"/>
<path d="M 100.0,216.67262268066406 L 91.26057434082031,225.41204833984375 L 91.26057434082031,225.41204833984375 C 94.12334442138672,226.988525390625 97.03729248046875,228.51864624023438 100.0,230.0 L 100.0,216.67262268066406 L 100.0,216.67262268066406 Z" style="fill: rgb(217, 38, 38); stroke-width: 1px; stroke: none;"/>
<path d="M 0.0,0.0 L 200.0,0.0 L 200.0,100.0 C 200.0,150.0 160.0,200.0 100.0,230.0 C 40.0,200.0 0.0,150.0 0.0,100.0 L 0.0,0.0 Z" style="fill: none; stroke-width: 1px; stroke: rgb(0, 0, 0);"/>
</g>
<rect clip-path="url(#contour)" fill="url(#lighting)" height="246.0" width="216.0" x="0.0" y="0.0"/>
</svg>
