<?xml version="1.0" encoding="UTF-8" standalone="no"?>
<svg xmlns="http://www.w3.org/2000/svg" height="246.0" width="216.0">
<defs>
<clipPath id="contour">
<path d="M 8.0,8.0 L 208.0,8.0 L 208.0,108.0 C 208.0,158.0 168.0,208.0 108.0,238.0 C 48.0,208.0 8.0,158.0 8.0,108.0 L 8.0,8.0 Z"/>
</clipPath>
<radialGradient id="lighting">
<stop offset="25%" stop-color="white" stop-opacity="35%"/>
<stop offset="100%" stop-color="white" stop-opacity="0%"/>
</radialGradient>
</defs>
<g transform="translate(8.0,8.0)">
<path d="M 0.0,0.0 L 200.0,0.0 L 200.0,100.0 C 200.0,150.0 160.0,200.0 100.0,230.0 C 40.0,200.0 0.0,150.0 0.0,100.0 L 0.0,0.0 Z" style="fill: rgb(217, 217, 38); stroke-width: 1px; stroke: rgb(0, 255, 255);"/>
<path d="M 0.0,0.0 L 0.0,36.54653549194336 L -2.5757174171303632E-14,36.54653549194336 L 15.333333015441895,36.54653549194336 L 30.66666603088379,36.54653549194336 L 30.66666603088379,51.8798713684082 L 30.66666603088379,67.21320343017578 L 46.0,67.21320343017578 L 61.33333206176758,67.21320343017578 L 61.33333206176758,82.54653930664062 L 61.33333206176758,97.87986755371094 L 92.0,97.87986755371094 L 92.0,113.21320343017578 L 92.0,128.54653930664062 L 107.33333587646484,128.54653930664062 L 122.66666412353516,128.54653930664062 L 122.66666412353516,143.87986755371094 L 122.66666412353516,159.2132110595703 L 138.0,159.2132110595703 L 153.3333282470703,159.2132110595703 L 153.3333282470703,174.54653930664062 L 153.3333282470703,189.87986755371094 L 156.98741149902344,189.87986755371094 C 165.6793975830078,181.3187255859375 173.2346649169922,172.23117065429688 179.48365783691406,162.7867889404297 L 168.6666717529297,162.7867889404297 L 168.6666717529297,147.45346069335938 L 168.6666717529297,132.12013244628906 L 138.0,132.12013244628906 L 138.0,116.78679656982422 L 138.0,101.45346069335938 L 107.33333587646484,101.45346069335938 L 107.33333587646484,86.12013244628906 L 107.33333587646484,70.78679656982422 L 76.66666412353516,70.78679656982422 L 76.66666412353516,55.45346450805664 L 76.66666412353516,40.1201286315918 L 61.33333206176758,40.1201286315918 L 46.0,40.1201286315918 L 46.0,24.78679656982422 L 46.0,9.453463554382324 L 30.66666603088379,9.453463554382324 L 15.333333015441895,9.453463554382324 L 15.333333015441895,0.0 L 0.0,0.0 Z" style="fill: rgb(13, 38, 217); stroke-width: 1px; stroke: rgb(0, 255, 255);"/>
<path d="M 0.0,0.0 L 200.0,0.0 L 200.0,100.0 C 200.0,150.0 160.0,200.0 100.0,230.0 C 40.0,200.0 0.0,150.0 0.0,100.0 L 0.0,0.0 Z" style="fill: none; stroke-width: 1px; stroke: rgb(0, 0, 0);"/>
</g>
<rect clip-path="url(#contour)" fill="url(#lighting)" height="246.0" width="216.0" x="0.0" y="0.0"/>
</svg>
