<?xml version="1.0" encoding="UTF-8" standalone="no"?>
<svg xmlns="http://www.w3.org/2000/svg" height="246.0" width="216.0">
<defs>
<clipPath id="contour">
<path d="M 8.0,8.0 L 208.0,8.0 L 208.0,108.0 C 208.0,158.0 168.0,208.0 108.0,238.0 C 48.0,208.0 8.0,158.0 8.0,108.0 L 8.0,8.0 Z"/>
</clipPath>
<radialGradient id="lighting">
<stop offset="25%" stop-color="white" stop-opacity="35%"/>
<stop offset="100%" stop-color="white" stop-opacity="0%"/>
</radialGradient>
</defs>
<g transform="translate(8.0,8.0)">
<path d="M 0.0,0.0 L 200.0,0.0 L 200.0,100.0 C 200.0,150.0 160.0,200.0 100.0,230.0 C 40.0,200.0 0.0,150.0 0.0,100.0 L 0.0,0.0 Z" style="fill: rgb(13, 38, 217); stroke-width: 1px; stroke: none;"/>
<path d="M 162.49392700195312,16.292858123779297 L 150.0367889404297,28.75 L 162.49392700195312,28.75 L 162.49392700195312,16.292858123779297 L 162.49392700195312,16.292858123779297 Z" style="fill: rgb(230, 230, 230); stroke-width: 1px; stroke: none;"/>
<path d="M 178.7867889404297,0.0 L 162.49392700195312,16.292858123779297 L 162.49392700195312,28.75 L 191.24392700195312,28.75 L 191.24392700195312,0.0 L 178.7867889404297,0.0 Z" style="fill: rgb(38, 38, 38); stroke-width: 1px; stroke: none;"/>
<path d="M 191.24392700195312,0.0 L 191.24392700195312,28.75 L 192.46319580078125,28.75 L 200.0,21.21320343017578 L 200.0,0.0 L 191.24392700195312,0.0 Z" style="fill: rgb(230, 230, 230); stroke-width: 1px; stroke: none;"/>
<path d="M 133.74392700195312,45.0428581237793 L 121.28678894042969,57.5 L 133.74392700195312,57.5 L 133.74392700195312,45.0428581237793 L 133.74392700195312,45.0428581237793 Z" style="fill: rgb(230, 230, 230); stroke-width: 1px; stroke: none;"/>
<path d="M 150.0367889404297,28.75 L 133.74392700195312,45.0428581237793 L 133.74392700195312,57.5 L 162.49392700195312,57.5 L 162.49392700195312,28.75 L 150.0367889404297,28.75 Z" style="fill: rgb(38, 38, 38); stroke-width: 1px; stroke: none;"/>
<path d="M 162.49392700195312,28.75 L 162.49392700195312,57.5 L 163.71319580078125,57.5 L 191.24392700195312,29.96927261352539 L 191.24392700195312,28.75 L 162.49392700195312,28.75 Z" style="fill: rgb(230, 230, 230); stroke-width: 1px; stroke: none;"/>
<path d="M 191.24392700195312,28.75 L 191.24392700195312,29.96927261352539 L 192.46319580078125,28.75 L 191.24392700195312,28.75 Z" style="fill: rgb(38, 38, 38); stroke-width: 1px; stroke: none;"/>
<path d="M 104.99392700195312,73.79286193847656 L 92.53678894042969,86.25 L 104.99392700195312,86.25 L 104.99392700195312,73.79286193847656 L 104.99392700195312,73.79286193847656 Z" style="fill: rgb(230, 230, 230); stroke-width: 1px; stroke: none;"/>
<path d="M 121.28678894042969,57.5 L 104.99392700195312,73.79286193847656 L 104.99392700195312,86.25 L 133.74392700195312,86.25 L 133.74392700195312,57.5 L 121.28678894042969,57.5 Z" style="fill: rgb(38, 38, 38); stroke-width: 1px; stroke: none;"/>
<path d="M 133.74392700195312,57.5 L 133.74392700195312,86.25 L 134.96319580078125,86.25 L 162.49392700195312,58.71927261352539 L 162.49392700195312,57.5 L 133.74392700195312,57.5 Z" style="fill: rgb(230, 230, 230); stroke-width: 1px; stroke: none;"/>
<path d="M 162.49392700195312,57.5 L 162.49392700195312,58.71927261352539 L 163.71319580078125,57.5 L 162.49392700195312,57.5 Z" style="fill: rgb(38, 38, 38); stroke-width: 1px; stroke: none;"/>
<path d="M 76.24392700195312,102.54286193847656 L 63.78679275512695,115.0 L 76.24392700195312,115.0 L 76.24392700195312,102.54286193847656 L 76.24392700195312,102.54286193847656 Z" style="fill: rgb(230, 230, 230); stroke-width: 1px; stroke: none;"/>
<path d="M 92.53678894042969,86.25 L 76.24392700195312,102.54286193847656 L 76.24392700195312,115.0 L 104.99392700195312,115.0 L 104.99392700195312,86.25 L 92.53678894042969,86.25 Z" style="fill: rgb(38, 38, 38); stroke-width: 1px; stroke: none;"/>
<path d="M 104.99392700195312,86.25 L 104.99392700195312,115.0 L 106.21320343017578,115.0 L 133.74392700195312,87.46926879882812 L 133.74392700195312,86.25 L 104.99392700195312,86.25 Z" style="fill: rgb(230, 230, 230); stroke-width: 1px; stroke: none;"/>
<path d="M 133.74392700195312,86.25 L 133.74392700195312,87.46926879882812 L 134.96319580078125,86.25 L 133.74392700195312,86.25 Z" style="fill: rgb(38, 38, 38); stroke-width: 1px; stroke: none;"/>
<path d="M 47.49393081665039,131.29286193847656 L 35.03679275512695,143.75 L 47.49393081665039,143.75 L 47.49393081665039,131.29286193847656 L 47.49393081665039,131.29286193847656 Z" style="fill: rgb(230, 230, 230); stroke-width: 1px; stroke: none;"/>
<path d="M 63.78679275512695,115.0 L 47.49393081665039,131.29286193847656 L 47.49393081665039,143.75 L 76.24392700195312,143.75 L 76.24392700195312,115.0 L 63.78679275512695,115.0 Z" style="fill: rgb(38, 38, 38); stroke-width: 1px; stroke: none;"/>
<path d="M 76.24392700195312,115.0 L 76.24392700195312,143.75 L 77.46320343017578,143.75 L 104.99393463134766,116.21926879882812 L 104.99392700195312,116.21926879882812 L 104.99392700195312,115.0 L 76.24392700195312,115.0 Z" style="fill: rgb(230, 230, 230); stroke-width: 1px; stroke: none;"/>
<path d="M 104.99392700195312,115.0 L 104.99392700195312,116.21926879882812 L 104.99393463134766,116.21926879882812 L 106.21320343017578,115.0 L 104.99392700195312,115.0 Z" style="fill: rgb(38, 38, 38); stroke-width: 1px; stroke: none;"/>
<path d="M 35.03679275512695,143.75 L 18.74393081665039,160.04286193847656 C 21.40666961669922,164.26736450195312 24.330312728881836,168.4246826171875 27.500001907348633,172.5 L 47.49393081665039,172.5 L 47.49393081665039,143.75 L 35.03679275512695,143.75 Z" style="fill: rgb(38, 38, 38); stroke-width: 1px; stroke: none;"/>
<path d="M 47.49393081665039,143.75 L 47.49393081665039,172.5 L 48.713199615478516,172.5 L 76.24392700195312,144.96926879882812 L 76.24392700195312,143.75 L 47.49393081665039,143.75 Z" style="fill: rgb(230, 230, 230); stroke-width: 1px; stroke: none;"/>
<path d="M 76.24392700195312,143.75 L 76.24392700195312,144.96926879882812 L 77.46320343017578,143.75 L 76.24392700195312,143.75 Z" style="fill: rgb(38, 38, 38); stroke-width: 1px; stroke: none;"/>
<path d="M 27.500001907348633,172.5 C 30.5317325592041,176.39793395996094 33.78855895996094,180.22084045410156 37.25748062133789,183.95571899414062 L 47.49393081665039,173.71926879882812 L 47.49393081665039,172.5 L 27.500001907348633,172.5 Z" style="fill: rgb(230, 230, 230); stroke-width: 1px; stroke: none;"/>
<path d="M 47.49393081665039,172.5 L 47.49393081665039,173.71926879882812 L 48.713199615478516,172.5 L 47.49393081665039,172.5 Z" style="fill: rgb(38, 38, 38); stroke-width: 1px; stroke: none;"/>
<path d="M 0.0,0.0 L 200.0,0.0 L 200.0,100.0 C 200.0,150.0 160.0,200.0 100.0,230.0 C 40.0,200.0 0.0,150.0 0.0,100.0 L 0.0,0.0 Z" style="fill: none; stroke-width: 1px; stroke: rgb(0, 0, 0);"/>
</g>
<rect clip-path="url(#contour)" fill="url(#lighting)" height="246.0" width="216.0" x="0.0" y="0.0"/>
</svg>
