<?xml version="1.0" encoding="UTF-8" standalone="no"?>
<svg xmlns="http://www.w3.org/2000/svg" height="416.0" width="216.0">
<defs>
<clipPath id="contour">
<path d="M 8.0,8.0 L 208.0,8.0 L 208.0,408.0 L 108.0,328.0 L 8.0,408.0 L 8.0,8.0 Z"/>
</clipPath>
<radialGradient id="lighting">
<stop offset="25%" stop-color="white" stop-opacity="35%"/>
<stop offset="100%" stop-color="white" stop-opacity="0%"/>
</radialGradient>
</defs>
<g>
<path d="M 8.0,8.0 L 208.0,8.0 L 208.0,408.0 L 108.0,328.0 L 8.0,408.0 L 8.0,8.0 Z" style="fill: rgb(217, 217, 38); stroke-width: 1px; stroke: none;"/>
<path d="M 8.0,8.0 L 8.0,40.304473876953125 L 10.252435684204102,40.304473876953125 L 19.091270446777344,40.304473876953125 L 19.091270446777344,40.304473876953125 L 36.76893997192383,40.304473876953125 L 36.76893997192383,57.98214340209961 L 36.76893997192383,75.6598129272461 L 54.44660949707031,75.6598129272461 L 72.12427520751953,75.6598129272461 L 72.12427520751953,93.33747863769531 L 72.12427520751953,111.01515197753906 L 89.80194854736328,111.01515197753906 L 107.4796142578125,111.01515197753906 L 107.4796142578125,128.69281768798828 L 107.4796142578125,146.3704833984375 L 125.15728759765625,146.3704833984375 L 142.8349609375,146.3704833984375 L 142.8349609375,164.04815673828125 L 142.8349609375,181.725830078125 L 160.5126190185547,181.725830078125 L 178.19029235839844,181.725830078125 L 178.19029235839844,199.40350341796875 L 178.19029235839844,217.08116149902344 L 195.8679656982422,217.08116149902344 L 208.0,217.08116149902344 L 208.0,198.91883850097656 L 220.1320343017578,198.91883850097656 L 202.45436096191406,198.91883850097656 L 202.45436096191406,181.2411651611328 L 202.45436096191406,163.56349182128906 L 184.77670288085938,163.56349182128906 L 167.09902954101562,163.56349182128906 L 167.09902954101562,145.8858184814453 L 167.09902954101562,128.2081527709961 L 149.42135620117188,128.2081527709961 L 131.74369049072266,128.2081527709961 L 131.74369049072266,110.53048706054688 L 131.74369049072266,92.85281372070312 L 96.38835144042969,92.85281372070312 L 96.38835144042969,75.1751480102539 L 96.38835144042969,57.497474670410156 L 78.71067810058594,57.497474670410156 L 61.03300857543945,57.497474670410156 L 61.03300857543945,39.81980514526367 L 61.03300857543945,22.142135620117188 L 43.35533905029297,22.142135620117188 L 25.677669525146484,22.142135620117188 L 25.677669525146484,8.0 L 8.0,8.0 Z" style="fill: rgb(38, 38, 217); stroke-width: 1px; stroke: none;"/>
<path d="M 8.0,8.0 L 208.0,8.0 L 208.0,408.0 L 108.0,328.0 L 8.0,408.0 L 8.0,8.0 Z" style="fill: none; stroke-width: 1px; stroke: rgb(0, 0, 0);"/>
</g>
<rect clip-path="url(#contour)" fill="url(#lighting)" height="416.0" width="216.0" x="0.0" y="0.0"/>
</svg>
