<?xml version="1.0" encoding="UTF-8" standalone="no"?>
<svg xmlns="http://www.w3.org/2000/svg" height="246.0" width="216.0">
<defs>
<clipPath id="contour">
<path d="M 8.0,8.0 L 208.0,8.0 L 208.0,108.0 C 208.0,158.0 168.0,208.0 108.0,238.0 C 48.0,208.0 8.0,158.0 8.0,108.0 L 8.0,8.0 Z"/>
</clipPath>
<radialGradient id="lighting">
<stop offset="25%" stop-color="white" stop-opacity="35%"/>
<stop offset="100%" stop-color="white" stop-opacity="0%"/>
</radialGradient>
</defs>
<g>
<path d="M 8.0,8.0 L 8.0,108.0 C 8.0,158.0 48.0,208.0 108.0,238.0 C 168.0,208.0 208.0,158.0 208.0,108.0 L 208.0,8.0 L 8.0,8.0 Z" style="fill: rgb(217, 217, 38); stroke-width: 1px; stroke: none;"/>
<path d="M 19.0,9.0 L 9.0,19.0 L 47.0,57.0 L 57.0,47.0 L 19.0,9.0 L 19.0,9.0 Z" style="fill: rgb(217, 38, 38); stroke-width: 1px; stroke: none;"/>
<path d="M 8.0,8.0 L 8.0,18.0 L 18.0,8.0 L 8.0,8.0 Z" style="fill: rgb(217, 38, 38); stroke-width: 1px; stroke: none;"/>
<path d="M 19.0,59.0 L 9.0,69.0 L 47.0,107.0 L 57.0,97.0 L 19.0,59.0 L 19.0,59.0 Z" style="fill: rgb(217, 38, 38); stroke-width: 1px; stroke: none;"/>
<path d="M 22.0,34.0 L 8.0,48.0 L 8.0,68.0 L 32.0,44.0 L 22.0,34.0 L 22.0,34.0 Z" style="fill: rgb(217, 38, 38); stroke-width: 1px; stroke: none;"/>
<path d="M 19.0,109.0 L 9.0,119.0 L 47.0,157.0 L 57.0,147.0 L 19.0,109.0 L 19.0,109.0 Z" style="fill: rgb(217, 38, 38); stroke-width: 1px; stroke: none;"/>
<path d="M 22.0,84.0 L 8.0,98.0 L 8.0,108.0 C 8.0,111.1754150390625 8.161332309246063,114.350830078125 8.478873938322067,117.52112579345703 L 8.478873938322067,117.52112579345703 L 32.0,94.0 L 22.0,84.0 L 22.0,84.0 Z" style="fill: rgb(217, 38, 38); stroke-width: 1px; stroke: none;"/>
<path d="M 24.699432373046875,164.69944763183594 C 32.15459060668945,177.27548217773438 41.91888427734375,189.2999267578125 53.60978698730469,200.3902130126953 L 53.60978698730469,200.3902130126953 L 57.0,197.0 L 24.69944190979004,164.69944763183594 L 24.699432373046875,164.69944763183594 Z" style="fill: rgb(217, 38, 38); stroke-width: 1px; stroke: none;"/>
<path d="M 22.0,134.0 L 14.010398387908936,141.98960876464844 L 14.010398387908936,141.98960876464844 C 15.672806739807129,146.71791076660156 17.665738105773926,151.40365600585938 19.971177101135254,156.02882385253906 L 19.971177101135254,156.02882385253906 L 32.0,144.0 L 22.0,134.0 L 22.0,134.0 Z" style="fill: rgb(217, 38, 38); stroke-width: 1px; stroke: none;"/>
<path d="M 69.0,9.0 L 59.0,19.0 L 97.0,57.0 L 107.0,47.0 L 69.0,9.0 L 69.0,9.0 Z" style="fill: rgb(217, 38, 38); stroke-width: 1px; stroke: none;"/>
<path d="M 48.0,8.0 L 34.0,22.0 L 44.0,32.0 L 68.0,8.0 L 48.0,8.0 Z" style="fill: rgb(217, 38, 38); stroke-width: 1px; stroke: none;"/>
<path d="M 69.0,59.0 L 59.0,69.0 L 97.0,107.0 L 107.0,97.0 L 69.0,59.0 L 69.0,59.0 Z" style="fill: rgb(217, 38, 38); stroke-width: 1px; stroke: none;"/>
<path d="M 72.0,34.0 L 34.0,72.0 L 44.0,82.0 L 82.0,44.0 L 72.0,34.0 L 72.0,34.0 Z" style="fill: rgb(217, 38, 38); stroke-width: 1px; stroke: none;"/>
<path d="M 69.0,109.0 L 59.0,119.0 L 97.0,157.0 L 107.0,147.0 L 69.0,109.0 L 69.0,109.0 Z" style="fill: rgb(217, 38, 38); stroke-width: 1px; stroke: none;"/>
<path d="M 72.0,84.0 L 34.0,122.0 L 44.0,132.0 L 82.0,94.0 L 72.0,84.0 L 72.0,84.0 Z" style="fill: rgb(217, 38, 38); stroke-width: 1px; stroke: none;"/>
<path d="M 69.0,159.0 L 59.0,169.0 L 97.0,207.0 L 107.0,197.0 L 69.0,159.0 L 69.0,159.0 Z" style="fill: rgb(217, 38, 38); stroke-width: 1px; stroke: none;"/>
<path d="M 72.0,134.0 L 34.0,172.0 L 44.0,182.0 L 82.0,144.0 L 72.0,134.0 L 72.0,134.0 Z" style="fill: rgb(217, 38, 38); stroke-width: 1px; stroke: none;"/>
<path d="M 69.0,209.0 L 66.43678665161133,211.56321716308594 L 66.43678665161133,211.56321716308594 C 72.19522857666016,216.1759033203125 78.30679321289062,220.5786590576172 84.73808288574219,224.7380828857422 L 84.73808288574219,224.7380828857422 L 69.0,209.0 L 69.0,209.0 Z" style="fill: rgb(217, 38, 38); stroke-width: 1px; stroke: none;"/>
<path d="M 72.0,184.0 L 54.6397819519043,201.36021423339844 L 54.6397819519043,201.36021423339844 C 58.04658508300781,204.54539489746094 61.61295700073242,207.65182495117188 65.32970809936523,210.6702880859375 L 65.32970809936523,210.6702880859375 L 82.0,194.0 L 72.0,184.0 L 72.0,184.0 Z" style="fill: rgb(217, 38, 38); stroke-width: 1px; stroke: none;"/>
<path d="M 119.0,9.0 L 109.0,19.0 L 147.0,57.0 L 157.0,47.0 L 119.0,9.0 L 119.0,9.0 Z" style="fill: rgb(217, 38, 38); stroke-width: 1px; stroke: none;"/>
<path d="M 98.0,8.0 L 84.0,22.0 L 94.0,32.0 L 118.0,8.0 L 98.0,8.0 Z" style="fill: rgb(217, 38, 38); stroke-width: 1px; stroke: none;"/>
<path d="M 119.0,59.0 L 109.0,69.0 L 147.0,107.0 L 157.0,97.0 L 119.0,59.0 L 119.0,59.0 Z" style="fill: rgb(217, 38, 38); stroke-width: 1px; stroke: none;"/>
<path d="M 122.0,34.0 L 84.0,72.0 L 94.0,82.0 L 132.0,44.0 L 122.0,34.0 L 122.0,34.0 Z" style="fill: rgb(217, 38, 38); stroke-width: 1px; stroke: none;"/>
<path d="M 119.0,109.0 L 109.0,119.0 L 147.0,157.0 L 157.0,147.0 L 119.0,109.0 L 119.0,109.0 Z" style="fill: rgb(217, 38, 38); stroke-width: 1px; stroke: none;"/>
<path d="M 122.0,84.0 L 84.0,122.0 L 94.0,132.0 L 132.0,94.0 L 122.0,84.0 L 122.0,84.0 Z" style="fill: rgb(217, 38, 38); stroke-width: 1px; stroke: none;"/>
<path d="M 119.0,159.0 L 109.0,169.0 L 147.0,207.0 L 157.0,197.0 L 119.0,159.0 L 119.0,159.0 Z" style="fill: rgb(217, 38, 38); stroke-width: 1px; stroke: none;"/>
<path d="M 122.0,134.0 L 84.0,172.0 L 94.0,182.0 L 132.0,144.0 L 122.0,134.0 L 122.0,134.0 Z" style="fill: rgb(217, 38, 38); stroke-width: 1px; stroke: none;"/>
<path d="M 119.0,209.0 L 109.0,219.0 L 121.00629425048828,231.0063018798828 L 121.00629425048828,231.0063018798828 C 125.2471923828125,228.55856323242188 129.36885833740234,226.00804138183594 133.36302185058594,223.36302185058594 L 133.36302185058594,223.36302185058594 L 119.0,209.0 L 119.0,209.0 Z" style="fill: rgb(217, 38, 38); stroke-width: 1px; stroke: none;"/>
<path d="M 122.0,184.0 L 84.0,222.0 L 90.11051177978516,228.1105194091797 L 90.11051177978516,228.1105194091797 C 91.71996307373047,229.09092712402344 93.34785461425781,230.0563507080078 94.99370574951172,231.0063018798828 L 94.99370574951172,231.0063018798828 L 132.0,194.0 L 122.0,184.0 L 122.0,184.0 Z" style="fill: rgb(217, 38, 38); stroke-width: 1px; stroke: none;"/>
<path d="M 169.0,9.0 L 159.0,19.0 L 197.0,57.0 L 207.0,47.0 L 169.0,9.0 L 169.0,9.0 Z" style="fill: rgb(217, 38, 38); stroke-width: 1px; stroke: none;"/>
<path d="M 148.0,8.0 L 134.0,22.0 L 144.0,32.0 L 168.0,8.0 L 148.0,8.0 Z" style="fill: rgb(217, 38, 38); stroke-width: 1px; stroke: none;"/>
<path d="M 169.0,59.0 L 159.0,69.0 L 197.0,107.0 L 207.0,97.0 L 169.0,59.0 L 169.0,59.0 Z" style="fill: rgb(217, 38, 38); stroke-width: 1px; stroke: none;"/>
<path d="M 172.0,34.0 L 134.0,72.0 L 144.0,82.0 L 182.0,44.0 L 172.0,34.0 L 172.0,34.0 Z" style="fill: rgb(217, 38, 38); stroke-width: 1px; stroke: none;"/>
<path d="M 169.0,109.0 L 159.0,119.0 L 196.02882385253906,156.02882385253906 L 196.02882385253906,156.02882385253906 C 198.33425903320312,151.40365600585938 200.3271942138672,146.71791076660156 201.98960876464844,141.98960876464844 L 201.98960876464844,141.98960876464844 L 169.0,109.0 L 169.0,109.0 Z" style="fill: rgb(217, 38, 38); stroke-width: 1px; stroke: none;"/>
<path d="M 172.0,84.0 L 134.0,122.0 L 144.0,132.0 L 182.0,94.0 L 172.0,84.0 L 172.0,84.0 Z" style="fill: rgb(217, 38, 38); stroke-width: 1px; stroke: none;"/>
<path d="M 169.0,159.0 L 159.0,169.0 L 176.01669311523438,186.01669311523438 L 176.01669311523438,186.01669311523438 C 179.13836669921875,182.33641052246094 182.05723571777344,178.5808868408203 184.76170349121094,174.76170349121094 L 184.76170349121094,174.76170349121094 L 169.0,159.0 L 169.0,159.0 Z" style="fill: rgb(217, 38, 38); stroke-width: 1px; stroke: none;"/>
<path d="M 172.0,134.0 L 134.0,172.0 L 144.0,182.0 L 182.0,144.0 L 172.0,134.0 L 172.0,134.0 Z" style="fill: rgb(217, 38, 38); stroke-width: 1px; stroke: none;"/>
<path d="M 172.0,184.0 L 134.0,222.0 L 134.56297302246094,222.56297302246094 L 134.56297302246094,222.56297302246094 C 150.248779296875,212.0334930419922 163.92958068847656,200.0404815673828 175.09466552734375,187.09466552734375 L 175.09466552734375,187.09466552734375 L 172.0,184.0 L 172.0,184.0 Z" style="fill: rgb(217, 38, 38); stroke-width: 1px; stroke: none;"/>
<path d="M 198.0,8.0 L 184.0,22.0 L 194.0,32.0 L 208.0,18.0 L 208.0,8.0 L 198.0,8.0 Z" style="fill: rgb(217, 38, 38); stroke-width: 1px; stroke: none;"/>
<path d="M 208.0,48.0 L 184.0,72.0 L 194.0,82.0 L 208.0,68.0 L 208.0,48.0 L 208.0,48.0 Z" style="fill: rgb(217, 38, 38); stroke-width: 1px; stroke: none;"/>
<path d="M 208.0,98.0 L 184.0,122.0 L 194.0,132.0 L 207.4078826904297,118.59211730957031 L 207.40789794921875,118.59211730957031 C 207.80027770996094,115.06611633300781 208.0,111.5330581665039 208.0,108.0 L 208.0,98.0 L 208.0,98.0 Z" style="fill: rgb(217, 38, 38); stroke-width: 1px; stroke: none;"/>
<path d="M 191.30055236816406,164.69944763183594 L 184.0,172.0 L 185.58604431152344,173.58604431152344 L 185.58604431152344,173.58604431152344 C 187.61842346191406,170.65858459472656 189.5249786376953,167.6946563720703 191.30056762695312,164.69944763183594 L 191.30055236816406,164.69944763183594 Z" style="fill: rgb(217, 38, 38); stroke-width: 1px; stroke: none;"/>
<path d="M 8.0,8.0 L 208.0,8.0 L 208.0,108.0 C 208.0,158.0 168.0,208.0 108.0,238.0 C 48.0,208.0 8.0,158.0 8.0,108.0 L 8.0,8.0 Z" style="fill: none; stroke-width: 1px; stroke: rgb(0, 0, 0);"/>
</g>
<rect clip-path="url(#contour)" fill="url(#lighting)" height="246.0" width="216.0" x="0.0" y="0.0"/>
</svg>
