<?xml version="1.0" encoding="UTF-8" standalone="no"?>
<svg xmlns="http://www.w3.org/2000/svg" height="246.0" width="216.0">
<defs>
<clipPath id="contour">
<path d="M 8.0,8.0 L 208.0,8.0 L 208.0,108.0 C 208.0,158.0 168.0,208.0 108.0,238.0 C 48.0,208.0 8.0,158.0 8.0,108.0 L 8.0,8.0 Z"/>
</clipPath>
<radialGradient id="lighting">
<stop offset="25%" stop-color="white" stop-opacity="35%"/>
<stop offset="100%" stop-color="white" stop-opacity="0%"/>
</radialGradient>
</defs>
<g>
<path d="M 8.0,8.0 L 8.0,108.0 L 108.0,108.0 L 108.0,8.0 L 8.0,8.0 Z" style="fill: rgb(230, 230, 230); stroke-width: 1px; stroke: none;"/>
<path d="M 58.0,36.78679656982422 L 8.0,86.78679656982422 L 8.0,108.0 L 29.21320343017578,108.0 L 58.0,79.21320343017578 L 86.78679656982422,108.0 L 108.0,108.0 L 108.0,86.78679656982422 L 58.0,36.78679656982422 L 58.0,36.78679656982422 Z" style="fill: rgb(38, 38, 217); stroke-width: 1px; stroke: none;"/>
<path d="M 108.0,8.0 L 108.0,108.0 L 208.0,108.0 L 208.0,8.0 L 108.0,8.0 Z" style="fill: rgb(38, 38, 38); stroke-width: 1px; stroke: none;"/>
<path d="M 158.0,38.90811729431152 Q 149.6666717529297,38.90811729431152 149.6666717529297,47.241451263427734 Q 141.3333282470703,47.241451263427734 141.3333282470703,55.57478332519531 Q 133.0,55.57478332519531 133.0,63.90811538696289 Q 124.66666412353516,63.90811538696289 124.66666412353516,72.24144744873047 Q 116.33333587646484,72.24144744873047 116.33333587646484,80.57478332519531 L 116.33333587646484,80.57478332519531 Q 108.0,80.57478332519531 108.0,88.90811920166016 L 108.0,108.0 L 127.09188079833984,108.0 Q 137.39459228515625,108.0 137.39459228515625,97.69729614257812 Q 147.69729614257812,97.69729614257812 147.69729614257812,87.39459228515625 Q 158.0,87.39459228515625 158.0,77.09188079833984 Q 158.0,87.39459228515625 168.30270385742188,87.39459228515625 Q 168.30270385742188,97.69729614257812 178.60540771484375,97.69729614257812 Q 178.60540771484375,108.0 188.90811157226562,108.0 L 208.0,108.0 L 208.0,88.90811920166016 Q 208.0,80.57478332519531 199.6666717529297,80.57478332519531 Q 199.6666717529297,72.24144744873047 191.3333282470703,72.24144744873047 Q 191.3333282470703,63.90811538696289 183.0,63.90811538696289 Q 183.0,55.57478332519531 174.6666717529297,55.57478332519531 Q 174.6666717529297,47.241451263427734 166.3333282470703,47.241451263427734 Q 166.3333282470703,38.90811729431152 158.0,38.90811729431152 L 158.0,38.90811729431152 Z" style="fill: rgb(217, 217, 38); stroke-width: 1px; stroke: none;"/>
<path d="M 108.0,108.0 L 108.0,238.0 C 168.0,208.0 208.0,158.0 208.0,108.0 L 108.0,108.0 Z" style="fill: rgb(230, 230, 230); stroke-width: 1px; stroke: none;"/>
<path d="M 108.0,108.0 L 108.0,137.54653930664062 L 116.33333587646484,137.54653930664062 L 124.66666412353516,137.54653930664062 L 124.66666412353516,145.87986755371094 L 124.66666412353516,154.2132110595703 L 133.0,154.2132110595703 L 141.3333282470703,154.2132110595703 L 141.3333282470703,162.54653930664062 L 141.3333282470703,170.87986755371094 L 158.0,170.87986755371094 L 158.0,179.2132110595703 L 166.3333282470703,179.2132110595703 L 166.3333282470703,170.87986755371094 L 166.3333282470703,162.54653930664062 L 183.0,162.54653930664062 L 183.0,154.2132110595703 L 183.0,145.87986755371094 L 199.6666717529297,145.87986755371094 L 199.6666717529297,137.54653930664062 L 199.6666717529297,129.21320343017578 L 205.64410400390625,129.21320343017578 C 207.19569396972656,122.1801528930664 208.0,115.09008026123047 208.0,108.0 L 186.7867889404297,108.0 L 186.7867889404297,117.59559631347656 L 167.59559631347656,117.59559631347656 L 167.59559631347656,127.19120025634766 L 167.59559631347656,136.7867889404297 L 148.40440368652344,136.7867889404297 L 148.40440368652344,127.19120025634766 L 148.40440368652344,117.59559631347656 L 129.21320343017578,117.59559631347656 L 129.21320343017578,108.0 L 108.0,108.0 Z" style="fill: rgb(38, 217, 38); stroke-width: 1px; stroke: none;"/>
<path d="M 8.0,108.0 C 8.0,158.0 48.0,208.0 108.0,238.0 L 108.0,108.0 L 8.0,108.0 Z" style="fill: rgb(38, 38, 38); stroke-width: 1px; stroke: none;"/>
<path d="M 8.0,108.0 C 8.0,117.68417358398438 9.500531911849976,127.36834716796875 12.356281757354736,136.90721130371094 L 12.356290340423584,136.90721130371094 Q 14.025148868560791,137.54653930664062 16.333333015441895,137.54653930664062 Q 24.66666603088379,137.54653930664062 24.66666603088379,145.87986755371094 Q 24.66666603088379,154.2132110595703 33.0,154.2132110595703 Q 41.33333206176758,154.2132110595703 41.33333206176758,162.54653930664062 Q 41.33333206176758,170.87986755371094 49.66666793823242,170.87986755371094 Q 58.0,170.87986755371094 58.0,179.2132110595703 Q 66.33333206176758,179.2132110595703 66.33333206176758,170.87986755371094 Q 66.33333206176758,162.54653930664062 74.66666412353516,162.54653930664062 Q 83.0,162.54653930664062 83.0,154.2132110595703 Q 83.0,145.87986755371094 91.33333587646484,145.87986755371094 Q 99.66666412353516,145.87986755371094 99.66666412353516,137.54653930664062 Q 99.66666412353516,129.21320343017578 108.0,129.21320343017578 L 108.0,108.0 L 86.78679656982422,108.0 Q 86.78679656982422,117.59559631347656 77.19120025634766,117.59559631347656 Q 67.59560012817383,117.59559631347656 67.59560012817383,127.19120025634766 Q 67.59560012817383,136.7867889404297 58.0,136.7867889404297 Q 48.40439987182617,136.7867889404297 48.40439987182617,127.19120025634766 Q 48.40439987182617,117.59559631347656 38.80880165100098,117.59559631347656 Q 29.21320343017578,117.59559631347656 29.21320343017578,108.0 L 8.0,108.0 Z" style="fill: rgb(217, 38, 38); stroke-width: 1px; stroke: none;"/>
<path d="M 8.0,8.0 L 208.0,8.0 L 208.0,108.0 C 208.0,158.0 168.0,208.0 108.0,238.0 C 48.0,208.0 8.0,158.0 8.0,108.0 L 8.0,8.0 Z" style="fill: none; stroke-width: 1px; stroke: rgb(0, 0, 0);"/>
</g>
<rect clip-path="url(#contour)" fill="url(#lighting)" height="246.0" width="216.0" x="0.0" y="0.0"/>
</svg>
