<?xml version="1.0" encoding="UTF-8" standalone="no"?>
<svg xmlns="http://www.w3.org/2000/svg" height="246.0" width="216.0">
<defs>
<clipPath id="contour">
<path d="M 0.0,0.0 L 200.0,0.0 L 200.0,100.0 C 200.0,150.0 160.0,200.0 100.0,230.0 C 40.0,200.0 0.0,150.0 0.0,100.0 L 0.0,0.0 Z"/>
</clipPath>
<radialGradient id="lighting">
<stop offset="25%" stop-color="white" stop-opacity="35%"/>
<stop offset="100%" stop-color="white" stop-opacity="0%"/>
</radialGradient>
</defs>
<g transform="translate(8.0,8.0)">
<path clip-path="url(#contour)" comment="FieldBackground" d="M 0.0,0.0 L 200.0,0.0 L 200.0,100.0 C 200.0,150.0 160.0,200.0 100.0,230.0 C 40.0,200.0 0.0,150.0 0.0,100.0 L 0.0,0.0 Z" style="fill: rgb(230, 230, 230); stroke-width: 1px; stroke: none;"/>
<path clip-path="url(#contour)" comment="Bend FieldBackground" d="M 0.0,0.0 L 0.0,21.21320343017578 L 162.74252319335938,183.95571899414062 C 169.8382110595703,176.31600952148438 176.04647827148438,168.3079833984375 181.25607299804688,160.04286193847656 L 21.21320343017578,0.0 L 0.0,0.0 Z" style="fill: rgb(38, 38, 38); stroke-width: 1px; stroke: none;"/>
<path clip-path="url(#contour)" comment="clipped 'rose' FieldBackground" d="M 144.10400390625,137.60023498535156 C 144.10398864746094,137.60043334960938 144.10398864746094,137.60061645507812 144.10397338867188,137.60081481933594 C 144.1603546142578,138.8153839111328 144.26593017578125,139.72344970703125 144.39080810546875,140.51123046875 C 144.39085388183594,140.51123046875 144.39088439941406,140.51124572753906 144.39093017578125,140.51124572753906 C 144.2659912109375,139.72337341308594 144.16038513183594,138.81517028808594 144.10400390625,137.60023498535156 Z" style="fill: rgb(230, 230, 230); stroke-width: 1px; stroke: rgb(38, 38, 38);"/>
<path clip-path="url(#contour)" comment="clipped 'rose' FieldBackground" d="M 140.83547973632812,142.4154815673828 C 140.9736785888672,142.438232421875 141.10791015625,142.4589080810547 141.23895263671875,142.47792053222656 C 141.23895263671875,142.47792053222656 141.23895263671875,142.4779052734375 141.23895263671875,142.4779052734375 C 141.10791015625,142.45889282226562 140.9736785888672,142.438232421875 140.83547973632812,142.4154815673828 Z" style="fill: rgb(230, 230, 230); stroke-width: 1px; stroke: rgb(38, 38, 38);"/>
<path clip-path="url(#contour)" comment="clipped 'rose' FieldBackground" d="M 149.71383666992188,141.7228546142578 C 149.4202423095703,141.80978393554688 149.1445770263672,141.88673400878906 148.88401794433594,141.95530700683594 C 148.20547485351562,142.26136779785156 147.6549072265625,142.54510498046875 147.1657257080078,142.81814575195312 C 147.174560546875,142.85008239746094 147.18292236328125,142.88221740722656 147.19078063964844,142.91453552246094 C 147.86062622070312,142.54612731933594 148.64527893066406,142.15838623046875 149.71383666992188,141.7228546142578 Z" style="fill: rgb(230, 230, 230); stroke-width: 1px; stroke: rgb(38, 38, 38);"/>
<path clip-path="url(#contour)" comment="clipped 'rose' FieldBackground" d="M 142.14599609375,146.1253204345703 C 142.00367736816406,146.44786071777344 141.84527587890625,146.7880859375 141.65992736816406,147.15792846679688 C 141.84527587890625,146.7880859375 142.00369262695312,146.44786071777344 142.14601135253906,146.12533569335938 C 142.14601135253906,146.12533569335938 142.14599609375,146.1253204345703 142.14599609375,146.1253204345703 Z" style="fill: rgb(230, 230, 230); stroke-width: 1px; stroke: rgb(38, 38, 38);"/>
<path clip-path="url(#contour)" comment="clipped 'rose' FieldBackground" d="M 156.4021453857422,147.43154907226562 C 156.4022674560547,147.43161010742188 156.40237426757812,147.43167114257812 156.40249633789062,147.43173217773438 L 156.40272521972656,147.43165588378906 C 156.40252685546875,147.43162536621094 156.40234375,147.43157958984375 156.4021453857422,147.43154907226562 Z" style="fill: rgb(230, 230, 230); stroke-width: 1px; stroke: rgb(38, 38, 38);"/>
<path clip-path="url(#contour)" comment="clipped 'rose' FieldBackground" d="M 145.77684020996094,146.39007568359375 C 146.12313842773438,146.72740173339844 146.4907989501953,147.10626220703125 146.89976501464844,147.56549072265625 C 146.49082946777344,147.1062774658203 146.1231689453125,146.72740173339844 145.77685546875,146.39007568359375 L 145.77684020996094,146.39007568359375 Z" style="fill: rgb(230, 230, 230); stroke-width: 1px; stroke: rgb(38, 38, 38);"/>
<path clip-path="url(#contour)" comment="clipped 'rose' FieldBackground" d="M 146.901123046875,147.5670166015625 C 147.03453063964844,147.71685791015625 147.17234802246094,147.875244140625 147.3152618408203,148.04354858398438 C 147.17236328125,147.875244140625 147.0345458984375,147.7168426513672 146.901123046875,147.5670166015625 Z" style="fill: rgb(230, 230, 230); stroke-width: 1px; stroke: rgb(38, 38, 38);"/>
<path clip-path="url(#contour)" comment="clipped 'rose' FieldBackground" d="M 147.31582641601562,148.04421997070312 C 147.43707275390625,148.18701171875 147.5619659423828,148.33692932128906 147.69094848632812,148.49478149414062 C 147.5619659423828,148.3369140625 147.43707275390625,148.18701171875 147.31582641601562,148.04421997070312 L 146.901123046875,147.5670166015625 Z" style="fill: rgb(230, 230, 230); stroke-width: 1px; stroke: rgb(38, 38, 38);"/>
<path clip-path="url(#contour)" comment="clipped 'rose' FieldBackground" d="M 142.61651611328125,146.45152282714844 C 142.0941619873047,147.0292510986328 141.52345275878906,147.71743774414062 140.83145141601562,148.6827850341797 C 140.83140563964844,148.68287658691406 140.8313446044922,148.68296813964844 140.831298828125,148.6830596923828 C 141.52337646484375,147.71759033203125 142.09414672851562,147.02932739257812 142.61654663085938,146.45155334472656 C 142.6165313720703,146.4515380859375 142.61651611328125,146.4515380859375 142.61651611328125,146.45152282714844 Z" style="fill: rgb(230, 230, 230); stroke-width: 1px; stroke: rgb(38, 38, 38);"/>
<path clip-path="url(#contour)" comment="clipped 'rose' FieldBackground" d="M 152.00820922851562,133.48207092285156 C 151.16226196289062,134.0868682861328 149.66015625,134.89268493652344 148.1975860595703,135.2332763671875 C 147.79998779296875,134.29196166992188 147.17218017578125,133.9479522705078 146.41197204589844,133.9479522705078 C 146.21620178222656,133.9479522705078 146.0116424560547,133.97076416015625 145.7999725341797,134.01206970214844 C 145.22850036621094,134.17185974121094 144.8092498779297,134.4209747314453 144.1869659423828,134.4209747314453 C 144.16452026367188,134.4209747314453 144.14181518554688,134.42063903808594 144.1188201904297,134.41998291015625 L 144.11749267578125,134.42005920410156 L 144.0901641845703,134.42005920410156 L 144.08998107910156,134.41995239257812 C 144.0669708251953,134.42062377929688 144.0442352294922,134.4209442138672 144.02175903320312,134.4209442138672 C 143.3994598388672,134.4209442138672 142.9795379638672,134.1718292236328 142.40809631347656,134.0120391845703 C 142.205078125,133.97244262695312 142.00863647460938,133.94976806640625 141.82015991210938,133.947998046875 L 141.82000732421875,133.94798278808594 C 141.81199645996094,133.94790649414062 141.8040008544922,133.94786071777344 141.79600524902344,133.94786071777344 C 140.99026489257812,133.94786071777344 140.33309936523438,134.33444213867188 139.94134521484375,135.40921020507812 C 139.9412078857422,135.40992736816406 139.9410858154297,135.41064453125 139.94094848632812,135.41134643554688 C 138.49351501464844,134.77418518066406 137.49859619140625,134.35389709472656 136.78907775878906,133.60133361816406 L 136.78892517089844,133.60133361816406 C 137.1956787109375,134.4291229248047 137.6826934814453,135.78988647460938 137.88973999023438,137.15200805664062 C 137.84091186523438,137.14573669433594 137.7918243408203,137.13973999023438 137.74252319335938,137.1339874267578 C 136.36976623535156,137.22279357910156 135.85421752929688,138.03211975097656 135.7289581298828,139.16897583007812 C 135.7064666748047,139.80528259277344 135.82044982910156,140.3077850341797 135.60792541503906,140.9573974609375 L 135.6075897216797,140.9587860107422 L 135.59951782226562,140.98590087890625 L 135.59938049316406,140.98609924316406 C 135.42196655273438,141.6470184326172 135.05467224121094,141.99591064453125 134.72760009765625,142.5345001220703 C 134.6312255859375,142.7242889404297 134.55238342285156,142.9125213623047 134.4951171875,143.09898376464844 L 134.4950714111328,143.09893798828125 C 134.26116943359375,143.8604278564453 134.38636779785156,144.59202575683594 135.13958740234375,145.27052307128906 C 133.994384765625,146.45225524902344 133.23480224609375,147.26991271972656 132.28045654296875,147.67434692382812 L 132.28053283691406,147.67434692382812 C 132.52369689941406,147.6529541015625 132.8044891357422,147.64077758789062 133.1105194091797,147.64077758789062 C 134.02980041503906,147.64077758789062 135.1768341064453,147.75067138671875 136.2158966064453,148.05068969726562 C 136.21044921875,148.0638427734375 136.2050018310547,148.07699584960938 136.19956970214844,148.09019470214844 C 135.88616943359375,149.4810333251953 136.4840545654297,150.22679138183594 137.49632263183594,150.67874145507812 C 138.07664489746094,150.88430786132812 138.5728302001953,150.9156494140625 139.1107177734375,151.31405639648438 L 139.11183166503906,151.31475830078125 L 139.134521484375,151.33059692382812 L 139.1347198486328,151.33079528808594 C 139.6930694580078,151.697509765625 139.9090576171875,152.1632843017578 140.31153869628906,152.64364624023438 C 140.4587860107422,152.794189453125 140.60963439941406,152.92678833007812 140.76512145996094,153.03746032714844 L 140.76507568359375,153.03738403320312 C 141.0935516357422,153.27120971679688 141.44236755371094,153.40711975097656 141.81922912597656,153.40711975097656 C 142.21522521972656,153.40711975097656 142.6422119140625,153.25706481933594 143.10919189453125,152.91293334960938 C 143.1232147216797,152.898193359375 143.13719177246094,152.88345336914062 143.15110778808594,152.8686981201172 C 143.80718994140625,154.09019470214844 144.2597198486328,154.9738311767578 144.36465454101562,155.92385864257812 C 144.52125549316406,155.07301330566406 144.89625549316406,153.81201171875 145.46583557128906,152.66685485839844 C 145.53482055664062,152.73377990722656 145.6054229736328,152.8003692626953 145.67718505859375,152.86672973632812 C 146.12167358398438,153.15194702148438 146.52301025390625,153.27809143066406 146.89007568359375,153.27809143066406 C 147.4893035888672,153.27809143066406 147.99725341796875,152.9419403076172 148.45269775390625,152.4129638671875 C 148.82489013671875,151.90696716308594 149.01126098632812,151.42831420898438 149.5459747314453,151.02542114257812 L 149.54698181152344,151.02447509765625 L 149.56866455078125,151.00717163085938 L 149.5689239501953,151.00709533691406 C 150.08123779296875,150.57391357421875 150.57513427734375,150.5093231201172 151.1416778564453,150.2657470703125 C 151.3258819580078,150.16864013671875 151.49490356445312,150.062255859375 151.64540100097656,149.94435119628906 L 151.64527893066406,149.94436645507812 C 152.23037719726562,149.48585510253906 152.53451538085938,148.8542938232422 152.3569793701172,147.92662048339844 C 153.75607299804688,147.62393188476562 154.7657470703125,147.3633270263672 155.6605224609375,147.3633270263672 C 155.9149169921875,147.3633270263672 156.16001892089844,147.3843994140625 156.4021453857422,147.43154907226562 C 155.53732299804688,146.95408630371094 154.2410125732422,146.01089477539062 153.2854461669922,144.8917236328125 C 154.0982208251953,144.0503387451172 154.025146484375,143.15843200683594 153.53009033203125,142.24276733398438 C 153.18951416015625,141.71324157714844 152.81382751464844,141.3751983642578 152.6198272705078,140.71932983398438 L 152.61932373046875,140.71803283691406 L 152.61058044433594,140.69117736816406 L 152.61058044433594,140.69091796875 C 152.38180541992188,140.04733276367188 152.48281860351562,139.5411376953125 152.44432067871094,138.90565490722656 C 152.41546630859375,138.6931915283203 152.37322998046875,138.49266052246094 152.31454467773438,138.30665588378906 L 152.31451416015625,138.3066864013672 C 152.08534240722656,137.5805206298828 151.60545349121094,137.07608032226562 150.69578552246094,136.95272827148438 C 151.11289978027344,135.38514709472656 151.38418579101562,134.30906677246094 152.00820922851562,133.48207092285156 Z" style="fill: rgb(230, 230, 230); stroke-width: 1px; stroke: rgb(38, 38, 38);"/>
<path clip-path="url(#contour)" comment="clipped 'rose' mobile debug reticle" d="M 130.89134216308594,131.07568359375 L 130.89134216308594,152.1045379638672 L 136.8624725341797,158.07568359375 L 157.89134216308594,158.07568359375 L 157.89134216308594,136.67813110351562 L 152.28887939453125,131.07568359375 L 130.89134216308594,131.07568359375 Z" style="fill: none; stroke-width: 1px; stroke: rgb(0, 255, 255);"/>
<path clip-path="url(#contour)" comment="debug repeat reticle" d="M 129.3913479742384,129.57567645543762 L 159.3913479742384,129.57567645543762 L 159.3913479742384,159.57567645543762 L 129.3913479742384,159.57567645543762 L 129.3913479742384,129.57567645543762 Z" style="fill: none; stroke-width: 1px; stroke: rgb(255, 0, 255);"/>
<path clip-path="url(#contour)" comment="clipped 'rose' FieldBackground" d="M 32.62359619140625,25.935245513916016 C 32.62358474731445,25.93543815612793 32.62357711791992,25.93562889099121 32.623565673828125,25.935821533203125 C 32.67993927001953,27.150388717651367 32.78551483154297,28.05845832824707 32.910396575927734,28.846242904663086 L 32.910400390625,28.846242904663086 C 32.910438537597656,28.84624671936035 32.91047668457031,28.846250534057617 32.910518646240234,28.84625244140625 C 32.785587310791016,28.05837631225586 32.679969787597656,27.15018081665039 32.62359619140625,25.935245513916016 Z" style="fill: rgb(230, 230, 230); stroke-width: 1px; stroke: rgb(38, 38, 38);"/>
<path clip-path="url(#contour)" comment="clipped 'rose' FieldBackground" d="M 29.3491268157959,30.749523162841797 C 29.489429473876953,30.77265739440918 29.625619888305664,30.793642044067383 29.75853729248047,30.812929153442383 C 29.7585391998291,30.812925338745117 29.758541107177734,30.81292152404785 29.758543014526367,30.812915802001953 C 29.625625610351562,30.79363441467285 29.48943328857422,30.772653579711914 29.3491268157959,30.749523162841797 Z" style="fill: rgb(230, 230, 230); stroke-width: 1px; stroke: rgb(38, 38, 38);"/>
<path clip-path="url(#contour)" comment="clipped 'rose' FieldBackground" d="M 38.233428955078125,30.057872772216797 C 37.9398307800293,30.144790649414062 37.6641731262207,30.221744537353516 37.40361404418945,30.290311813354492 C 36.725059509277344,30.596378326416016 36.174503326416016,30.880117416381836 35.68531036376953,31.153154373168945 C 35.694149017333984,31.18508529663086 35.702510833740234,31.217220306396484 35.71038055419922,31.24955177307129 C 36.380218505859375,30.88113784790039 37.16486358642578,30.49340057373047 38.233428955078125,30.057872772216797 Z" style="fill: rgb(230, 230, 230); stroke-width: 1px; stroke: rgb(38, 38, 38);"/>
<path clip-path="url(#contour)" comment="clipped 'rose' FieldBackground" d="M 34.75160217285156,34.38333511352539 C 34.92555236816406,34.71854019165039 35.119422912597656,35.07301712036133 35.34739303588867,35.46049499511719 C 35.11942672729492,35.07301712036133 34.92555618286133,34.718536376953125 34.75160598754883,34.38333511352539 L 34.75160217285156,34.38333511352539 Z" style="fill: rgb(230, 230, 230); stroke-width: 1px; stroke: rgb(38, 38, 38);"/>
<path clip-path="url(#contour)" comment="clipped 'rose' FieldBackground" d="M 30.665586471557617,34.460330963134766 C 30.523271560668945,34.78286361694336 30.364866256713867,35.12308883666992 30.17951202392578,35.492942810058594 C 30.364866256713867,35.12310028076172 30.523279190063477,34.782875061035156 30.66560173034668,34.46034240722656 C 30.66559600830078,34.4603385925293 30.665590286254883,34.46033477783203 30.665586471557617,34.460330963134766 Z" style="fill: rgb(230, 230, 230); stroke-width: 1px; stroke: rgb(38, 38, 38);"/>
<path clip-path="url(#contour)" comment="clipped 'rose' FieldBackground" d="M 44.9217414855957,35.76655960083008 C 44.92185592651367,35.76662063598633 44.92197036743164,35.766685485839844 44.922080993652344,35.766746520996094 L 44.92231369018555,35.76667022705078 C 44.922122955322266,35.766632080078125 44.921932220458984,35.76659393310547 44.9217414855957,35.76655960083008 Z" style="fill: rgb(230, 230, 230); stroke-width: 1px; stroke: rgb(38, 38, 38);"/>
<path clip-path="url(#contour)" comment="clipped 'rose' FieldBackground" d="M 34.296451568603516,34.72507858276367 C 34.29644775390625,34.72508239746094 34.29644012451172,34.7250862121582 34.29643249511719,34.72509002685547 C 34.85205078125,35.26629638671875 35.4626350402832,35.91443634033203 36.210567474365234,36.82981872558594 C 36.2105598449707,36.82980728149414 36.21055221557617,36.829795837402344 36.21054458618164,36.82978439331055 C 35.46266174316406,35.91447067260742 34.852073669433594,35.26630783081055 34.296451568603516,34.72507858276367 Z" style="fill: rgb(230, 230, 230); stroke-width: 1px; stroke: rgb(38, 38, 38);"/>
<path clip-path="url(#contour)" comment="clipped 'rose' FieldBackground" d="M 29.403263092041016,36.927734375 C 29.388492584228516,36.95329666137695 29.37359619140625,36.97899627685547 29.358577728271484,37.00483703613281 C 29.373598098754883,36.979000091552734 29.388492584228516,36.95330047607422 29.403263092041016,36.927734375 Z" style="fill: rgb(230, 230, 230); stroke-width: 1px; stroke: rgb(38, 38, 38);"/>
<path clip-path="url(#contour)" comment="clipped 'rose' FieldBackground" d="M 29.358531951904297,37.00491714477539 C 29.356393814086914,37.00859451293945 29.354251861572266,37.01227569580078 29.352109909057617,37.015960693359375 C 29.3542537689209,37.01227569580078 29.356393814086914,37.00859451293945 29.358531951904297,37.00491714477539 Z" style="fill: rgb(230, 230, 230); stroke-width: 1px; stroke: rgb(38, 38, 38);"/>
<path clip-path="url(#contour)" comment="clipped 'rose' FieldBackground" d="M 31.13610076904297,34.78653335571289 C 30.613744735717773,35.3642578125 30.04303741455078,36.05245590209961 29.351043701171875,37.017791748046875 C 29.351398468017578,37.017181396484375 29.35175132751465,37.01657485961914 29.35210609436035,37.01596450805664 C 29.35175132751465,37.01657485961914 29.351394653320312,37.01718521118164 29.351037979125977,37.017799377441406 C 29.35103988647461,37.01779556274414 29.351041793823242,37.01779556274414 29.351043701171875,37.017791748046875 C 29.350990295410156,37.01788330078125 29.350936889648438,37.017974853515625 29.35088348388672,37.01806640625 C 30.04296875,36.05259704589844 30.613737106323242,35.36433410644531 31.13614273071289,34.78656005859375 C 31.13612937927246,34.78655242919922 31.1361141204834,34.78654479980469 31.13610076904297,34.78653335571289 L 29.358531951904297,37.00491714477539 Z" style="fill: rgb(230, 230, 230); stroke-width: 1px; stroke: rgb(38, 38, 38);"/>
<path clip-path="url(#contour)" comment="clipped 'rose' FieldBackground" d="M 40.527793884277344,21.817081451416016 C 39.68185806274414,22.421871185302734 38.17974090576172,23.227691650390625 36.71718215942383,23.568288803100586 C 36.319583892822266,22.626972198486328 35.69176483154297,22.282955169677734 34.93156433105469,22.282955169677734 C 34.73578643798828,22.282955169677734 34.531227111816406,22.30577278137207 34.319557189941406,22.34708023071289 C 33.748085021972656,22.50687026977539 33.32884979248047,22.755979537963867 32.70655059814453,22.755979537963867 C 32.684104919433594,22.755979537963867 32.661399841308594,22.75565528869629 32.63841247558594,22.75499153137207 L 32.637088775634766,22.755069732666016 L 32.6097526550293,22.755069732666016 L 32.60957717895508,22.75496482849121 C 32.58656311035156,22.755630493164062 32.56382751464844,22.755956649780273 32.54135513305664,22.755956649780273 C 31.91905403137207,22.755956649780273 31.499128341674805,22.5068359375 30.92768096923828,22.347055435180664 C 30.72466468811035,22.307456970214844 30.528221130371094,22.284778594970703 30.339746475219727,22.28301429748535 L 30.339595794677734,22.282987594604492 C 30.33158302307129,22.28291130065918 30.323585510253906,22.282873153686523 30.315601348876953,22.282873153686523 C 29.50986099243164,22.282873153686523 28.852685928344727,22.669448852539062 28.4609317779541,23.74422836303711 C 28.460800170898438,23.744937896728516 28.460670471191406,23.745649337768555 28.460540771484375,23.746360778808594 C 27.013103485107422,23.109193801879883 26.018190383911133,22.68891143798828 25.308664321899414,21.936344146728516 L 25.308509826660156,21.936344146728516 C 25.71527099609375,22.76412582397461 26.202289581298828,24.124895095825195 26.409334182739258,25.48701286315918 C 26.36050796508789,25.48073959350586 26.311420440673828,25.47475242614746 26.262113571166992,25.46900177001953 C 24.88935089111328,25.557796478271484 24.373804092407227,26.36713218688965 24.248546600341797,27.503990173339844 C 24.226058959960938,28.14029884338379 24.340045928955078,28.642793655395508 24.12751007080078,29.292415618896484 L 24.127185821533203,29.293790817260742 L 24.119115829467773,29.320907592773438 L 24.11896514892578,29.32111358642578 C 23.941560745239258,29.982023239135742 23.57425880432129,30.3309268951416 23.24718475341797,30.869516372680664 C 23.15081024169922,31.059303283691406 23.071977615356445,31.247533798217773 23.01470947265625,31.43400001525879 L 23.014657974243164,31.433948516845703 C 22.780763626098633,32.195438385009766 22.905960083007812,32.92703628540039 23.659175872802734,33.60552978515625 C 22.513975143432617,34.787261962890625 21.754398345947266,35.60492706298828 20.800048828125,36.009361267089844 L 20.800127029418945,36.009361267089844 C 21.04329490661621,35.98796081542969 21.32408332824707,35.97578048706055 21.630111694335938,35.97578048706055 C 22.54939842224121,35.97578048706055 23.696422576904297,36.08568572998047 24.735488891601562,36.38570785522461 C 24.73003578186035,36.39884948730469 24.72459602355957,36.41201400756836 24.719167709350586,36.425201416015625 C 24.40576171875,37.8160400390625 25.003639221191406,38.561805725097656 26.015920639038086,39.01374816894531 C 26.596233367919922,39.21931457519531 27.092416763305664,39.25065994262695 27.63030242919922,39.64907455444336 L 27.631427764892578,39.64977264404297 L 27.654115676879883,39.66560363769531 L 27.654315948486328,39.665809631347656 C 28.212665557861328,40.03251647949219 28.428647994995117,40.498291015625 28.831132888793945,40.9786491394043 C 28.978378295898438,41.12920379638672 29.129222869873047,41.26179885864258 29.284713745117188,41.37247085571289 L 29.284664154052734,41.37239456176758 C 29.613147735595703,41.606224060058594 29.961950302124023,41.74212646484375 30.338823318481445,41.74212646484375 C 30.734821319580078,41.74212646484375 31.16180992126465,41.59208297729492 31.6287784576416,41.24794387817383 C 31.642805099487305,41.23320770263672 31.656782150268555,41.21846389770508 31.67070198059082,41.203712463378906 C 32.32677459716797,42.425209045410156 32.77931213378906,43.30884552001953 32.884246826171875,44.25886154174805 C 33.04084396362305,43.408016204833984 33.41585159301758,42.14702224731445 33.98542785644531,41.001869201660156 C 34.05440902709961,41.06878662109375 34.1250114440918,41.1353759765625 34.196773529052734,41.20173263549805 C 34.641273498535156,41.48695755004883 35.042598724365234,41.61309814453125 35.40966796875,41.61309814453125 C 36.0088996887207,41.61309814453125 36.516841888427734,41.27694320678711 36.97228240966797,40.74797058105469 C 37.344482421875,40.241973876953125 37.53085708618164,39.763328552246094 38.06557083129883,39.36042404174805 L 38.06657028198242,39.35948944091797 L 38.0882568359375,39.34218215942383 L 38.08850860595703,39.342105865478516 C 38.600833892822266,38.90892028808594 39.09471893310547,38.84433364868164 39.66126251220703,38.60075378417969 C 39.84546661376953,38.50365447998047 40.01449966430664,38.39726638793945 40.16499328613281,38.27935791015625 L 40.16486740112305,38.279380798339844 C 40.74996566772461,37.82086181640625 41.054100036621094,37.189308166503906 40.8765754699707,36.261627197265625 C 42.275657653808594,35.95895004272461 43.28533172607422,35.698341369628906 44.18011474609375,35.698341369628906 C 44.43450927734375,35.698341369628906 44.67961502075195,35.71940612792969 44.9217414855957,35.76655960083008 C 44.05691146850586,35.28909683227539 42.76060485839844,34.34591293334961 41.80503845214844,33.22673034667969 C 42.61780548095703,32.38534927368164 42.544742584228516,31.493440628051758 42.04967498779297,30.577775955200195 C 41.709110260009766,30.04824447631836 41.333412170410156,29.71021270751953 41.1394157409668,29.054338455200195 L 41.138916015625,29.053041458129883 L 41.13016891479492,29.02618408203125 L 41.13016891479492,29.025924682617188 C 40.90139389038086,28.382349014282227 41.00241470336914,27.876144409179688 40.96390914916992,27.240663528442383 C 40.93505096435547,27.0281982421875 40.892826080322266,26.827667236328125 40.834129333496094,26.64166831970215 L 40.8341064453125,26.641693115234375 C 40.60492706298828,25.91552734375 40.125038146972656,25.411087036132812 39.21537399291992,25.287744522094727 C 39.63249588012695,23.720151901245117 39.90377426147461,22.644071578979492 40.527793884277344,21.817081451416016 Z" style="fill: rgb(230, 230, 230); stroke-width: 1px; stroke: rgb(38, 38, 38);"/>
<path clip-path="url(#contour)" comment="clipped 'rose' mobile debug reticle" d="M 19.410938262939453,19.410686492919922 L 19.410938262939453,40.624141693115234 L 25.197484970092773,46.41068649291992 L 46.41093826293945,46.41068649291992 L 46.41093826293945,25.197734832763672 L 40.6238899230957,19.410686492919922 L 19.410938262939453,19.410686492919922 Z" style="fill: none; stroke-width: 1px; stroke: rgb(0, 255, 255);"/>
<path clip-path="url(#contour)" comment="debug repeat reticle" d="M 17.910938714324956,17.910686502510018 L 47.910938714324956,17.910686502510018 L 47.910938714324956,47.91068650251002 L 17.910938714324956,47.91068650251002 L 17.910938714324956,17.910686502510018 Z" style="fill: none; stroke-width: 1px; stroke: rgb(255, 0, 255);"/>
<path clip-path="url(#contour)" comment="clipped 'rose' FieldBackground" d="M 88.46082305908203,81.77234649658203 C 88.46080780029297,81.77253723144531 88.46080017089844,81.7727279663086 88.4607925415039,81.7729263305664 C 88.51716613769531,82.98748779296875 88.62274169921875,83.89556121826172 88.74761962890625,84.68334197998047 L 88.74762725830078,84.68334197998047 C 88.74766540527344,84.683349609375 88.7477035522461,84.683349609375 88.74774169921875,84.68335723876953 C 88.62281036376953,83.89547729492188 88.51719665527344,82.9872817993164 88.46082305908203,81.77234649658203 Z" style="fill: rgb(230, 230, 230); stroke-width: 1px; stroke: rgb(38, 38, 38);"/>
<path clip-path="url(#contour)" comment="clipped 'rose' FieldBackground" d="M 85.18636322021484,86.58663940429688 C 85.32666778564453,86.60975646972656 85.46285247802734,86.63074493408203 85.59576416015625,86.65003204345703 C 85.59576416015625,86.6500244140625 85.59576416015625,86.6500244140625 85.59577178955078,86.65001678466797 C 85.46285247802734,86.6307373046875 85.32666778564453,86.60974884033203 85.18636322021484,86.58663940429688 Z" style="fill: rgb(230, 230, 230); stroke-width: 1px; stroke: rgb(38, 38, 38);"/>
<path clip-path="url(#contour)" comment="clipped 'rose' FieldBackground" d="M 94.0706558227539,85.89497375488281 C 93.77705383300781,85.98188781738281 93.50139617919922,86.05884552001953 93.24083709716797,86.12741088867188 C 92.56228637695312,86.43347930908203 92.01172637939453,86.71721649169922 91.52253723144531,86.9902572631836 C 91.5313720703125,87.02218627929688 91.53973388671875,87.0543212890625 91.547607421875,87.08665466308594 C 92.21744537353516,86.7182388305664 93.00209045410156,86.33050537109375 94.0706558227539,85.89497375488281 Z" style="fill: rgb(230, 230, 230); stroke-width: 1px; stroke: rgb(38, 38, 38);"/>
<path clip-path="url(#contour)" comment="clipped 'rose' FieldBackground" d="M 86.5028076171875,90.29743194580078 C 86.3604965209961,90.61996459960938 86.20209503173828,90.96018981933594 86.01673889160156,91.33003997802734 C 86.20208740234375,90.960205078125 86.36050415039062,90.61997985839844 86.50282287597656,90.29744720458984 C 86.50282287597656,90.29743957519531 86.50281524658203,90.29743194580078 86.5028076171875,90.29743194580078 Z" style="fill: rgb(230, 230, 230); stroke-width: 1px; stroke: rgb(38, 38, 38);"/>
<path clip-path="url(#contour)" comment="clipped 'rose' FieldBackground" d="M 100.75896453857422,91.6036605834961 C 100.75907897949219,91.60372161865234 100.75919342041016,91.6037826538086 100.75930786132812,91.60384368896484 L 100.75953674316406,91.60376739501953 C 100.75934600830078,91.6037368774414 100.7591552734375,91.60369873046875 100.75896453857422,91.6036605834961 Z" style="fill: rgb(230, 230, 230); stroke-width: 1px; stroke: rgb(38, 38, 38);"/>
<path clip-path="url(#contour)" comment="clipped 'rose' FieldBackground" d="M 90.13367462158203,90.56217956542969 C 90.13367462158203,90.56218719482422 90.1336669921875,90.56218719482422 90.13365936279297,90.56219482421875 C 90.68927764892578,91.1033935546875 91.29985809326172,91.75154113769531 92.04779052734375,92.66692352294922 C 92.04778289794922,92.66690826416016 92.04777526855469,92.66690063476562 92.04776763916016,92.66688537597656 C 91.29988861083984,91.75157165527344 90.68930053710938,91.10340881347656 90.13367462158203,90.56217956542969 Z" style="fill: rgb(230, 230, 230); stroke-width: 1px; stroke: rgb(38, 38, 38);"/>
<path clip-path="url(#contour)" comment="clipped 'rose' FieldBackground" d="M 86.97332763671875,90.6236343383789 C 86.45097351074219,91.20135498046875 85.88026428222656,91.88955688476562 85.18827056884766,92.85488891601562 C 85.20589447021484,92.82459259033203 85.22335052490234,92.79449462890625 85.24063110351562,92.76457214355469 C 85.22334289550781,92.79449462890625 85.20589447021484,92.82459259033203 85.18826293945312,92.85489654541016 L 85.18827056884766,92.85489654541016 C 85.18821716308594,92.85498809814453 85.18816375732422,92.8550796508789 85.1881103515625,92.85517120361328 C 85.88019561767578,91.88970184326172 86.45095825195312,91.2014389038086 86.9733657836914,90.6236572265625 C 86.97335052490234,90.62364959716797 86.97334289550781,90.62364196777344 86.97332763671875,90.6236343383789 Z" style="fill: rgb(230, 230, 230); stroke-width: 1px; stroke: rgb(38, 38, 38);"/>
<path clip-path="url(#contour)" comment="clipped 'rose' FieldBackground" d="M 96.36502075195312,77.65418243408203 C 95.51908111572266,78.25897216796875 94.0169677734375,79.06478881835938 92.55440521240234,79.40538787841797 C 92.15680694580078,78.46407318115234 91.52899169921875,78.12005615234375 90.76879119873047,78.12005615234375 C 90.57301330566406,78.12005615234375 90.36845397949219,78.14287567138672 90.15678405761719,78.1841812133789 C 89.58531188964844,78.3439712524414 89.16607666015625,78.59307861328125 88.54377746582031,78.59307861328125 C 88.52133178710938,78.59307861328125 88.49862670898438,78.59275817871094 88.47563934326172,78.59209442138672 L 88.47431182861328,78.59217071533203 L 88.44697570800781,78.59217071533203 L 88.4468002319336,78.5920639038086 C 88.42378997802734,78.59273529052734 88.40105438232422,78.59305572509766 88.37857818603516,78.59305572509766 C 87.75627899169922,78.59305572509766 87.33635711669922,78.34394073486328 86.76490783691406,78.18415832519531 C 86.5618896484375,78.14456176757812 86.36544799804688,78.12187957763672 86.17697143554688,78.1201171875 L 86.17681884765625,78.12008666992188 C 86.16880798339844,78.12001037597656 86.16081237792969,78.1199722290039 86.15282440185547,78.1199722290039 C 85.34708404541016,78.1199722290039 84.68991088867188,78.50655364990234 84.29815673828125,79.58132934570312 C 84.29802703857422,79.58203887939453 84.29789733886719,79.58274841308594 84.29776763916016,79.58346557617188 C 82.85032653808594,78.94629669189453 81.85541534423828,78.52601623535156 81.14588928222656,77.77344512939453 L 81.14573669433594,77.77344512939453 C 81.55249786376953,78.60122680664062 82.03951263427734,79.96199798583984 82.2465591430664,81.32411193847656 C 82.1977310180664,81.31784057617188 82.14864349365234,81.31185150146484 82.0993423461914,81.30609893798828 C 80.72657775878906,81.3948974609375 80.21102905273438,82.20423126220703 80.08576965332031,83.3410873413086 C 80.06328582763672,83.97740173339844 80.1772689819336,84.47989654541016 79.96473693847656,85.1295166015625 L 79.96440887451172,85.13088989257812 L 79.95633697509766,85.15800476074219 L 79.95619201660156,85.15821838378906 C 79.7787857055664,85.81912231445312 79.41148376464844,86.16802978515625 79.08441162109375,86.70661926269531 C 78.988037109375,86.89640808105469 78.9092025756836,87.08463287353516 78.85193634033203,87.27110290527344 L 78.85188293457031,87.27104949951172 C 78.61798858642578,88.03253936767578 78.7431869506836,88.7641372680664 79.49639892578125,89.442626953125 C 78.35120391845703,90.62435913085938 77.59162139892578,91.44202423095703 76.63727569580078,91.8464584350586 L 76.6373519897461,91.8464584350586 C 76.8805160522461,91.82505798339844 77.16130828857422,91.81288146972656 77.46733856201172,91.81288146972656 C 78.3866195678711,91.81288146972656 79.53364562988281,91.92279052734375 80.57271575927734,92.22280883789062 C 80.5672607421875,92.23594665527344 80.56182098388672,92.24911499023438 80.55638885498047,92.26229858398438 C 80.24298858642578,93.65314483642578 80.84086608886719,94.3989028930664 81.85314178466797,94.8508529663086 C 82.43345642089844,95.05641174316406 82.92964172363281,95.08776092529297 83.467529296875,95.48617553710938 L 83.4686508178711,95.48687744140625 L 83.49134063720703,95.50270080566406 L 83.49153900146484,95.50291442871094 C 84.04988861083984,95.86961364746094 84.26587677001953,96.33538818359375 84.6683578491211,96.81575012207031 C 84.81560516357422,96.96630859375 84.96644592285156,97.0988998413086 85.12194061279297,97.2095718383789 L 85.12188720703125,97.2094955444336 C 85.45037078857422,97.44332885742188 85.79917907714844,97.57923126220703 86.1760482788086,97.57923126220703 C 86.5720443725586,97.57923126220703 86.99903106689453,97.42918395996094 87.46600341796875,97.08504486083984 C 87.48003387451172,97.0703125 87.49400329589844,97.0555648803711 87.50792694091797,97.04080963134766 C 88.16400146484375,98.26231384277344 88.61653900146484,99.14595031738281 88.72147369384766,100.09596252441406 C 88.87806701660156,99.2451171875 89.2530746459961,97.98412322998047 89.8226547241211,96.8389663696289 C 89.89163208007812,96.9058837890625 89.96223449707031,96.97248077392578 90.03399658203125,97.03883361816406 C 90.47850036621094,97.32405853271484 90.87982177734375,97.45020294189453 91.24689483642578,97.45020294189453 C 91.84612274169922,97.45020294189453 92.35406494140625,97.11404418945312 92.80950927734375,96.58507537841797 C 93.18170928955078,96.0790786743164 93.36808013916016,95.60043334960938 93.90279388427734,95.19752502441406 L 93.90379333496094,95.19659423828125 L 93.92548370361328,95.17928314208984 L 93.92573547363281,95.17920684814453 C 94.43805694580078,94.74601745605469 94.93194580078125,94.68143463134766 95.49848937988281,94.43785858154297 C 95.68269348144531,94.34075927734375 95.85172271728516,94.23436737060547 96.0022201538086,94.116455078125 L 96.00209045410156,94.11648559570312 C 96.58718872070312,93.65796661376953 96.89132690429688,93.02640533447266 96.71379852294922,92.09872436523438 C 98.11288452148438,91.79605102539062 99.12255859375,91.53544616699219 100.01734161376953,91.53544616699219 C 100.27173614501953,91.53544616699219 100.51683807373047,91.55651092529297 100.75896453857422,91.6036605834961 C 99.89413452148438,91.1261978149414 98.59783172607422,90.18301391601562 97.64226531982422,89.06382751464844 C 98.45503234863281,88.22245025634766 98.38196563720703,87.3305435180664 97.88690185546875,86.41487884521484 C 97.54633331298828,85.88534545898438 97.17063903808594,85.54731750488281 96.97663879394531,84.89144134521484 L 96.97614288330078,84.89014434814453 L 96.96739196777344,84.86328887939453 L 96.96739196777344,84.86302185058594 C 96.73861694335938,84.21945190429688 96.83963775634766,83.71324920654297 96.80113220214844,83.07776641845703 C 96.77227783203125,82.86529541015625 96.73004913330078,82.6647720336914 96.67135620117188,82.47876739501953 L 96.67133331298828,82.47879791259766 C 96.44215393066406,81.75262451171875 95.96226501464844,81.2481918334961 95.05259704589844,81.12484741210938 C 95.46971893310547,79.5572509765625 95.74099731445312,78.48117065429688 96.36502075195312,77.65418243408203 Z" style="fill: rgb(230, 230, 230); stroke-width: 1px; stroke: rgb(38, 38, 38);"/>
<path clip-path="url(#contour)" comment="clipped 'rose' mobile debug reticle" d="M 75.24816131591797,75.24778747558594 L 75.24816131591797,96.46136474609375 L 81.03459167480469,102.24778747558594 L 102.24816131591797,102.24778747558594 L 102.24816131591797,81.03495788574219 L 96.46099853515625,75.24778747558594 L 75.24816131591797,75.24778747558594 Z" style="fill: none; stroke-width: 1px; stroke: rgb(0, 255, 255);"/>
<path clip-path="url(#contour)" comment="debug repeat reticle" d="M 73.74816376177645,73.7477878711464 L 103.74816376177645,73.7477878711464 L 103.74816376177645,103.7477878711464 L 73.74816376177645,103.7477878711464 L 73.74816376177645,73.7477878711464 Z" style="fill: none; stroke-width: 1px; stroke: rgb(255, 0, 255);"/>
<path clip-path="url(#contour)" comment="outer shield shape border" d="M 0.0,0.0 L 200.0,0.0 L 200.0,100.0 C 200.0,150.0 160.0,200.0 100.0,230.0 C 40.0,200.0 0.0,150.0 0.0,100.0 L 0.0,0.0 Z" style="fill: none; stroke-width: 1px; stroke: rgb(0, 0, 0);"/>
</g>
</svg>
