<?xml version="1.0" encoding="UTF-8" standalone="no"?>
<svg xmlns="http://www.w3.org/2000/svg" height="246.0" width="216.0">
<defs>
<clipPath id="contour">
<path d="M 8.0,8.0 L 208.0,8.0 L 208.0,108.0 C 208.0,158.0 168.0,208.0 108.0,238.0 C 48.0,208.0 8.0,158.0 8.0,108.0 L 8.0,8.0 Z"/>
</clipPath>
<radialGradient id="lighting">
<stop offset="25%" stop-color="white" stop-opacity="35%"/>
<stop offset="100%" stop-color="white" stop-opacity="0%"/>
</radialGradient>
</defs>
<g transform="translate(8.0,8.0)">
<path d="M 0.0,0.0 L 0.0,28.75 L 200.0,28.75 L 200.0,0.0 L 0.0,0.0 Z" style="fill: rgb(217, 217, 38); stroke-width: 1px; stroke: none;"/>
<path d="M 0.0,28.75 L 0.0,57.5 L 200.0,57.5 L 200.0,28.75 L 0.0,28.75 Z" style="fill: rgb(13, 38, 217); stroke-width: 1px; stroke: none;"/>
<path d="M 0.0,57.5 L 0.0,86.25 L 200.0,86.25 L 200.0,57.5 L 0.0,57.5 Z" style="fill: rgb(217, 217, 38); stroke-width: 1px; stroke: none;"/>
<path d="M 0.0,86.25 L 0.0,100.0 C 0.0,105.0066909790039 0.4010716676712036,110.01338958740234 1.1831345558166504,115.0 L 198.81686401367188,115.0 C 199.5989227294922,110.01338958740234 200.0,105.0066909790039 200.0,100.0 L 200.0,86.25 L 0.0,86.25 Z" style="fill: rgb(13, 38, 217); stroke-width: 1px; stroke: none;"/>
<path d="M 1.1831345558166504,115.0 L 1.1831345558166504,115.0 C 2.705798387527466,124.70885467529297 5.672703266143799,134.34158325195312 9.935644149780273,143.75 L 190.06436157226562,143.75 C 194.32730102539062,134.34158325195312 197.29420471191406,124.70885467529297 198.81686401367188,115.0 L 1.1831345558166504,115.0 Z" style="fill: rgb(217, 217, 38); stroke-width: 1px; stroke: none;"/>
<path d="M 9.935644149780273,143.75 C 14.416110038757324,153.63848876953125 20.328250885009766,163.2791748046875 27.5,172.5 L 172.5,172.5 C 179.6717529296875,163.2791748046875 185.58389282226562,153.63848876953125 190.06436157226562,143.75 L 9.935644149780273,143.75 Z" style="fill: rgb(13, 38, 217); stroke-width: 1px; stroke: none;"/>
<path d="M 27.5,172.5 C 35.41093063354492,182.6711883544922 44.85449981689453,192.33151245117188 55.599761962890625,201.25 L 144.40023803710938,201.25 C 155.1455078125,192.33151245117188 164.5890655517578,182.6711883544922 172.5,172.5 L 27.5,172.5 Z" style="fill: rgb(217, 217, 38); stroke-width: 1px; stroke: none;"/>
<path d="M 55.599761962890625,201.25 L 55.599761962890625,201.25 C 68.6244125366211,212.06036376953125 83.56159210205078,221.78079223632812 100.0,230.0 C 116.43840789794922,221.78079223632812 131.37557983398438,212.06036376953125 144.40023803710938,201.25 L 55.599761962890625,201.25 Z" style="fill: rgb(13, 38, 217); stroke-width: 1px; stroke: none;"/>
<path d="M 0.0,0.0 L 0.0,57.5 L 200.0,57.5 L 200.0,0.0 L 0.0,0.0 Z" style="fill: rgb(217, 217, 38); stroke-width: 1px; stroke: none;"/>
<path d="M 0.0,0.0 L 0.0,57.5 L 57.5,57.5 L 0.0,0.0 L 0.0,0.0 Z" style="fill: rgb(13, 38, 217); stroke-width: 1px; stroke: none;"/>
<path d="M 63.75,0.0 L 63.75,57.5 L 93.75,57.5 L 93.75,0.0 L 63.75,0.0 Z" style="fill: rgb(13, 38, 217); stroke-width: 1px; stroke: none;"/>
<path d="M 106.25,0.0 L 106.25,57.5 L 136.25,57.5 L 136.25,0.0 L 106.25,0.0 Z" style="fill: rgb(13, 38, 217); stroke-width: 1px; stroke: none;"/>
<path d="M 200.0,0.0 L 142.5,57.5 L 200.0,57.5 L 200.0,0.0 L 200.0,0.0 Z" style="fill: rgb(13, 38, 217); stroke-width: 1px; stroke: none;"/>
<path d="M 63.0,57.45000076293945 L 137.0,57.45000076293945 L 137.0,94.44999694824219 C 137.0,112.94999694824219 122.19999694824219,131.4499969482422 100.0,142.5500030517578 C 77.80000305175781,131.4499969482422 63.0,112.94999694824219 63.0,94.44999694824219 L 63.0,57.45000076293945 Z" style="fill: rgb(230, 230, 230); stroke-width: 1px; stroke: none;"/>
<path d="M 63.0,57.45000076293945 L 137.0,57.45000076293945 L 137.0,94.44999694824219 C 137.0,112.94999694824219 122.19999694824219,131.4499969482422 100.0,142.5500030517578 C 77.80000305175781,131.4499969482422 63.0,112.94999694824219 63.0,94.44999694824219 L 63.0,57.45000076293945 Z" style="fill: none; stroke-width: 1px; stroke: rgb(0, 0, 0);"/>
<path d="M 0.0,0.0 L 200.0,0.0 L 200.0,100.0 C 200.0,150.0 160.0,200.0 100.0,230.0 C 40.0,200.0 0.0,150.0 0.0,100.0 L 0.0,0.0 Z" style="fill: none; stroke-width: 1px; stroke: rgb(0, 0, 0);"/>
</g>
<rect clip-path="url(#contour)" fill="url(#lighting)" height="246.0" width="216.0" x="0.0" y="0.0"/>
</svg>
