<?xml version="1.0" encoding="UTF-8" standalone="no"?>
<svg xmlns="http://www.w3.org/2000/svg" height="216.0" width="416.0">
<defs>
<clipPath id="contour">
<path d="M 8.0,8.0 L 408.0,8.0 L 328.0,108.0 L 408.0,208.0 L 8.0,208.0 L 8.0,8.0 Z"/>
</clipPath>
<radialGradient id="lighting">
<stop offset="25%" stop-color="white" stop-opacity="35%"/>
<stop offset="100%" stop-color="white" stop-opacity="0%"/>
</radialGradient>
</defs>
<g transform="translate(8.0,8.0)">
<path d="M 0.0,0.0 L 400.0,0.0 L 320.0,100.0 L 400.0,200.0 L 0.0,200.0 L 0.0,0.0 Z" style="fill: rgb(230, 230, 230); stroke-width: 1px; stroke: none;"/>
<path d="M 90.0,0.0 L 155.6666717529297,65.66666412353516 L 165.6666717529297,55.66666793823242 L 110.0,0.0 L 90.0,0.0 Z" style="fill: rgb(38, 38, 38); stroke-width: 1px; stroke: none;"/>
<path d="M 177.6666717529297,67.66666412353516 L 167.6666717529297,77.66666412353516 L 222.3333282470703,132.3333282470703 L 232.3333282470703,122.33333587646484 L 177.6666717529297,67.66666412353516 L 177.6666717529297,67.66666412353516 Z" style="fill: rgb(38, 38, 38); stroke-width: 1px; stroke: none;"/>
<path d="M 244.3333282470703,134.3333282470703 L 234.3333282470703,144.3333282470703 L 290.0,200.0 L 310.0,200.0 L 244.3333282470703,134.3333282470703 L 244.3333282470703,134.3333282470703 Z" style="fill: rgb(38, 38, 38); stroke-width: 1px; stroke: none;"/>
<path d="M 290.0,0.0 L 201.0,89.0 L 211.0,99.0 L 310.0,0.0 L 290.0,0.0 Z" style="fill: rgb(38, 38, 38); stroke-width: 1px; stroke: none;"/>
<path d="M 189.0,101.0 L 90.0,200.0 L 110.0,200.0 L 199.0,111.0 L 189.0,101.0 L 189.0,101.0 Z" style="fill: rgb(38, 38, 38); stroke-width: 1px; stroke: none;"/>
<path d="M 200.0,23.33333396911621 L 123.33333587646484,100.0 L 155.6666717529297,132.3333282470703 L 165.6666717529297,122.33333587646484 L 143.3333282470703,100.0 L 200.0,43.33333206176758 L 222.3333282470703,65.66666412353516 L 232.3333282470703,55.66666793823242 L 200.0,23.33333396911621 L 200.0,23.33333396911621 Z" style="fill: rgb(38, 38, 38); stroke-width: 1px; stroke: none;"/>
<path d="M 244.3333282470703,67.66666412353516 L 234.3333282470703,77.66666412353516 L 256.6666564941406,100.0 L 200.0,156.6666717529297 L 177.6666717529297,134.3333282470703 L 167.6666717529297,144.3333282470703 L 200.0,176.6666717529297 L 276.6666564941406,100.0 L 244.3333282470703,67.66666412353516 L 244.3333282470703,67.66666412353516 Z" style="fill: rgb(38, 38, 38); stroke-width: 1px; stroke: none;"/>
<path d="M 0.0,0.0 L 400.0,0.0 L 320.0,100.0 L 400.0,200.0 L 0.0,200.0 L 0.0,0.0 Z" style="fill: none; stroke-width: 1px; stroke: rgb(0, 0, 0);"/>
</g>
<rect clip-path="url(#contour)" fill="url(#lighting)" height="216.0" width="416.0" x="0.0" y="0.0"/>
</svg>
