<?xml version="1.0" encoding="UTF-8" standalone="no"?>
<svg xmlns="http://www.w3.org/2000/svg" height="246.0" width="216.0">
<defs>
<clipPath id="contour">
<path d="M 0.0,0.0 L 200.0,0.0 L 200.0,100.0 C 200.0,150.0 160.0,200.0 100.0,230.0 C 40.0,200.0 0.0,150.0 0.0,100.0 L 0.0,0.0 Z"/>
</clipPath>
<radialGradient id="lighting">
<stop offset="25%" stop-color="white" stop-opacity="35%"/>
<stop offset="100%" stop-color="white" stop-opacity="0%"/>
</radialGradient>
</defs>
<g transform="translate(8.0,8.0)">
<path clip-path="url(#contour)" comment="BarryVariationRenderer background" d="M 0.0,0.0 L 0.0,100.0 L 100.0,100.0 L 100.0,0.0 L 0.0,0.0 Z" style="fill-rule: evenodd; fill: rgb(38, 64, 204); stroke-width: 1px; stroke: none;"/>
<path clip-path="url(#contour)" comment="clipped barry 28.75" d="M 0.0,28.75 L 0.0,57.5 L 100.0,57.5 L 100.0,28.75 L 0.0,28.75 Z" style="fill-rule: evenodd; fill: rgb(51, 153, 51); stroke-width: 1px; stroke: none;"/>
<path clip-path="url(#contour)" comment="clipped barry 86.25" d="M 0.0,86.25 L 0.0,100.0 L 100.0,100.0 L 100.0,86.25 L 0.0,86.25 Z" style="fill-rule: evenodd; fill: rgb(51, 153, 51); stroke-width: 1px; stroke: none;"/>
<path clip-path="url(#contour)" comment="PalyVariationRenderer background" d="M 100.0,0.0 L 100.0,100.0 L 200.0,100.0 L 200.0,0.0 L 100.0,0.0 Z" style="fill-rule: evenodd; fill: rgb(230, 230, 230); stroke-width: 1px; stroke: none;"/>
<path clip-path="url(#contour)" comment="clipped paly 128.75" d="M 128.75,0.0 L 128.75,100.0 L 157.5,100.0 L 157.5,0.0 L 128.75,0.0 Z" style="fill-rule: evenodd; fill: rgb(128, 64, 128); stroke-width: 1px; stroke: none;"/>
<path clip-path="url(#contour)" comment="clipped paly 186.25" d="M 186.25,0.0 L 186.25,100.0 L 200.0,100.0 L 200.0,0.0 L 186.25,0.0 Z" style="fill-rule: evenodd; fill: rgb(128, 64, 128); stroke-width: 1px; stroke: none;"/>
<path clip-path="url(#contour)" comment="ChevronnyVariationRenderer background" d="M 100.0,100.0 L 100.0,230.0 C 160.0,200.0 200.0,150.0 200.0,100.0 L 100.0,100.0 Z" style="fill-rule: evenodd; fill: rgb(217, 217, 38); stroke-width: 1px; stroke: none;"/>
<path clip-path="url(#contour)" comment="clipped ChevronnyVariationRenderer element 163.1370849898476" d="M 134.85281372070312,100.0 L 100.0,134.85281372070312 L 100.0,191.42135620117188 L 150.0,141.42135620117188 L 176.17005920410156,167.59141540527344 C 184.76593017578125,155.61944580078125 191.25302124023438,143.0105743408203 195.2716827392578,130.12449645996094 L 165.14718627929688,100.0 L 134.85281372070312,100.0 Z" style="fill-rule: evenodd; fill: rgb(51, 153, 51); stroke-width: 1px; stroke: none;"/>
<path clip-path="url(#contour)" comment="ChevronnyVariationRenderer background" d="M 0.0,100.0 C 0.0,150.0 40.0,200.0 100.0,230.0 L 100.0,100.0 L 0.0,100.0 Z" style="fill-rule: evenodd; fill: rgb(38, 38, 38); stroke-width: 1px; stroke: none;"/>
<path clip-path="url(#contour)" comment="clipped ChevronnyVariationRenderer element 50.0" d="M 21.715728759765625,100.0 L 50.0,128.28427124023438 L 78.28427124023438,100.0 L 21.715728759765625,100.0 Z" style="fill-rule: evenodd; fill: rgb(179, 38, 26); stroke-width: 1px; stroke: none;"/>
<path clip-path="url(#contour)" comment="clipped ChevronnyVariationRenderer element 163.1370849898476" d="M 100.0,134.85281372070312 L 50.0,184.85281372070312 L 10.8320951461792,145.68490600585938 L 10.832094192504883,145.68490600585938 C 23.317461013793945,172.05157470703125 45.96964645385742,196.5641326904297 75.49371337890625,215.92764282226562 L 100.0,191.42135620117188 L 100.0,134.85281372070312 Z" style="fill-rule: evenodd; fill: rgb(179, 38, 26); stroke-width: 1px; stroke: none;"/>
<path clip-path="url(#contour)" comment="outer shield shape border" d="M 0.0,0.0 L 0.0,100.0 C 0.0,150.0 40.0,200.0 100.0,230.0 C 160.0,200.0 200.0,150.0 200.0,100.0 L 200.0,0.0 L 0.0,0.0 Z" style="fill-rule: evenodd; fill: none; stroke-width: 1px; stroke: rgb(0, 0, 0);"/>
</g>
</svg>
