<?xml version="1.0" encoding="UTF-8" standalone="no"?>
<svg xmlns="http://www.w3.org/2000/svg" height="216.0" width="416.0">
<defs>
<clipPath id="contour">
<path d="M 8.0,8.0 L 408.0,8.0 L 328.0,108.0 L 408.0,208.0 L 8.0,208.0 L 8.0,8.0 Z"/>
</clipPath>
<radialGradient id="lighting">
<stop offset="25%" stop-color="white" stop-opacity="35%"/>
<stop offset="100%" stop-color="white" stop-opacity="0%"/>
</radialGradient>
</defs>
<g>
<path d="M 8.0,8.0 L 8.0,33.0 L 33.0,33.0 L 33.0,8.0 L 8.0,8.0 Z" style="fill: rgb(230, 230, 230); stroke-width: 1px; stroke: none;"/>
<path d="M 33.0,8.0 L 33.0,33.0 L 58.0,33.0 L 58.0,8.0 L 33.0,8.0 Z" style="fill: rgb(38, 38, 38); stroke-width: 1px; stroke: none;"/>
<path d="M 58.0,8.0 L 58.0,33.0 L 83.0,33.0 L 83.0,8.0 L 58.0,8.0 Z" style="fill: rgb(230, 230, 230); stroke-width: 1px; stroke: none;"/>
<path d="M 83.0,8.0 L 83.0,33.0 L 108.0,33.0 L 108.0,8.0 L 83.0,8.0 Z" style="fill: rgb(38, 38, 38); stroke-width: 1px; stroke: none;"/>
<path d="M 108.0,8.0 L 108.0,33.0 L 133.0,33.0 L 133.0,8.0 L 108.0,8.0 Z" style="fill: rgb(230, 230, 230); stroke-width: 1px; stroke: none;"/>
<path d="M 133.0,8.0 L 133.0,33.0 L 158.0,33.0 L 158.0,8.0 L 133.0,8.0 Z" style="fill: rgb(38, 38, 38); stroke-width: 1px; stroke: none;"/>
<path d="M 158.0,8.0 L 158.0,33.0 L 183.0,33.0 L 183.0,8.0 L 158.0,8.0 Z" style="fill: rgb(230, 230, 230); stroke-width: 1px; stroke: none;"/>
<path d="M 183.0,8.0 L 183.0,33.0 L 208.0,33.0 L 208.0,8.0 L 183.0,8.0 Z" style="fill: rgb(38, 38, 38); stroke-width: 1px; stroke: none;"/>
<path d="M 8.0,33.0 L 8.0,58.0 L 33.0,58.0 L 33.0,33.0 L 8.0,33.0 Z" style="fill: rgb(38, 38, 38); stroke-width: 1px; stroke: none;"/>
<path d="M 33.0,33.0 L 33.0,58.0 L 58.0,58.0 L 58.0,33.0 L 33.0,33.0 Z" style="fill: rgb(230, 230, 230); stroke-width: 1px; stroke: none;"/>
<path d="M 58.0,33.0 L 58.0,58.0 L 83.0,58.0 L 83.0,33.0 L 58.0,33.0 Z" style="fill: rgb(38, 38, 38); stroke-width: 1px; stroke: none;"/>
<path d="M 83.0,33.0 L 83.0,58.0 L 108.0,58.0 L 108.0,33.0 L 83.0,33.0 Z" style="fill: rgb(230, 230, 230); stroke-width: 1px; stroke: none;"/>
<path d="M 108.0,33.0 L 108.0,58.0 L 133.0,58.0 L 133.0,33.0 L 108.0,33.0 Z" style="fill: rgb(38, 38, 38); stroke-width: 1px; stroke: none;"/>
<path d="M 133.0,33.0 L 133.0,58.0 L 158.0,58.0 L 158.0,33.0 L 133.0,33.0 Z" style="fill: rgb(230, 230, 230); stroke-width: 1px; stroke: none;"/>
<path d="M 158.0,33.0 L 158.0,58.0 L 183.0,58.0 L 183.0,33.0 L 158.0,33.0 Z" style="fill: rgb(38, 38, 38); stroke-width: 1px; stroke: none;"/>
<path d="M 183.0,33.0 L 183.0,58.0 L 208.0,58.0 L 208.0,33.0 L 183.0,33.0 Z" style="fill: rgb(230, 230, 230); stroke-width: 1px; stroke: none;"/>
<path d="M 8.0,58.0 L 8.0,83.0 L 33.0,83.0 L 33.0,58.0 L 8.0,58.0 Z" style="fill: rgb(230, 230, 230); stroke-width: 1px; stroke: none;"/>
<path d="M 33.0,58.0 L 33.0,83.0 L 58.0,83.0 L 58.0,58.0 L 33.0,58.0 Z" style="fill: rgb(38, 38, 38); stroke-width: 1px; stroke: none;"/>
<path d="M 58.0,58.0 L 58.0,83.0 L 83.0,83.0 L 83.0,58.0 L 58.0,58.0 Z" style="fill: rgb(230, 230, 230); stroke-width: 1px; stroke: none;"/>
<path d="M 83.0,58.0 L 83.0,83.0 L 108.0,83.0 L 108.0,58.0 L 83.0,58.0 Z" style="fill: rgb(38, 38, 38); stroke-width: 1px; stroke: none;"/>
<path d="M 108.0,58.0 L 108.0,83.0 L 133.0,83.0 L 133.0,58.0 L 108.0,58.0 Z" style="fill: rgb(230, 230, 230); stroke-width: 1px; stroke: none;"/>
<path d="M 133.0,58.0 L 133.0,83.0 L 158.0,83.0 L 158.0,58.0 L 133.0,58.0 Z" style="fill: rgb(38, 38, 38); stroke-width: 1px; stroke: none;"/>
<path d="M 158.0,58.0 L 158.0,83.0 L 183.0,83.0 L 183.0,58.0 L 158.0,58.0 Z" style="fill: rgb(230, 230, 230); stroke-width: 1px; stroke: none;"/>
<path d="M 183.0,58.0 L 183.0,83.0 L 208.0,83.0 L 208.0,58.0 L 183.0,58.0 Z" style="fill: rgb(38, 38, 38); stroke-width: 1px; stroke: none;"/>
<path d="M 8.0,83.0 L 8.0,108.0 L 33.0,108.0 L 33.0,83.0 L 8.0,83.0 Z" style="fill: rgb(38, 38, 38); stroke-width: 1px; stroke: none;"/>
<path d="M 33.0,83.0 L 33.0,108.0 L 58.0,108.0 L 58.0,83.0 L 33.0,83.0 Z" style="fill: rgb(230, 230, 230); stroke-width: 1px; stroke: none;"/>
<path d="M 58.0,83.0 L 58.0,108.0 L 83.0,108.0 L 83.0,83.0 L 58.0,83.0 Z" style="fill: rgb(38, 38, 38); stroke-width: 1px; stroke: none;"/>
<path d="M 83.0,83.0 L 83.0,108.0 L 108.0,108.0 L 108.0,83.0 L 83.0,83.0 Z" style="fill: rgb(230, 230, 230); stroke-width: 1px; stroke: none;"/>
<path d="M 108.0,83.0 L 108.0,108.0 L 133.0,108.0 L 133.0,83.0 L 108.0,83.0 Z" style="fill: rgb(38, 38, 38); stroke-width: 1px; stroke: none;"/>
<path d="M 133.0,83.0 L 133.0,108.0 L 158.0,108.0 L 158.0,83.0 L 133.0,83.0 Z" style="fill: rgb(230, 230, 230); stroke-width: 1px; stroke: none;"/>
<path d="M 158.0,83.0 L 158.0,108.0 L 183.0,108.0 L 183.0,83.0 L 158.0,83.0 Z" style="fill: rgb(38, 38, 38); stroke-width: 1px; stroke: none;"/>
<path d="M 183.0,83.0 L 183.0,108.0 L 208.0,108.0 L 208.0,83.0 L 183.0,83.0 Z" style="fill: rgb(230, 230, 230); stroke-width: 1px; stroke: none;"/>
<path d="M 208.0,8.0 L 208.0,108.0 L 328.0,108.0 L 408.0,8.0 L 208.0,8.0 Z" style="fill: rgb(217, 38, 38); stroke-width: 1px; stroke: none;"/>
<path d="M 208.0,108.0 L 208.0,133.0 L 233.0,133.0 L 233.0,108.0 L 208.0,108.0 Z" style="fill: rgb(230, 230, 230); stroke-width: 1px; stroke: none;"/>
<path d="M 233.0,108.0 L 233.0,133.0 L 258.0,133.0 L 258.0,108.0 L 233.0,108.0 Z" style="fill: rgb(38, 38, 38); stroke-width: 1px; stroke: none;"/>
<path d="M 258.0,108.0 L 258.0,133.0 L 283.0,133.0 L 283.0,108.0 L 258.0,108.0 Z" style="fill: rgb(230, 230, 230); stroke-width: 1px; stroke: none;"/>
<path d="M 283.0,108.0 L 283.0,133.0 L 308.0,133.0 L 308.0,108.0 L 283.0,108.0 Z" style="fill: rgb(38, 38, 38); stroke-width: 1px; stroke: none;"/>
<path d="M 308.0,108.0 L 308.0,133.0 L 333.0,133.0 L 333.0,114.25 L 328.0,108.0 L 308.0,108.0 Z" style="fill: rgb(230, 230, 230); stroke-width: 1px; stroke: none;"/>
<path d="M 333.0,114.25 L 333.0,133.0 L 348.0,133.0 L 333.0,114.25 L 333.0,114.25 Z" style="fill: rgb(38, 38, 38); stroke-width: 1px; stroke: none;"/>
<path d="M 208.0,133.0 L 208.0,158.0 L 233.0,158.0 L 233.0,133.0 L 208.0,133.0 Z" style="fill: rgb(38, 38, 38); stroke-width: 1px; stroke: none;"/>
<path d="M 233.0,133.0 L 233.0,158.0 L 258.0,158.0 L 258.0,133.0 L 233.0,133.0 Z" style="fill: rgb(230, 230, 230); stroke-width: 1px; stroke: none;"/>
<path d="M 258.0,133.0 L 258.0,158.0 L 283.0,158.0 L 283.0,133.0 L 258.0,133.0 Z" style="fill: rgb(38, 38, 38); stroke-width: 1px; stroke: none;"/>
<path d="M 283.0,133.0 L 283.0,158.0 L 308.0,158.0 L 308.0,133.0 L 283.0,133.0 Z" style="fill: rgb(230, 230, 230); stroke-width: 1px; stroke: none;"/>
<path d="M 308.0,133.0 L 308.0,158.0 L 333.0,158.0 L 333.0,133.0 L 308.0,133.0 Z" style="fill: rgb(38, 38, 38); stroke-width: 1px; stroke: none;"/>
<path d="M 333.0,133.0 L 333.0,158.0 L 358.0,158.0 L 358.0,145.5 L 348.0,133.0 L 333.0,133.0 Z" style="fill: rgb(230, 230, 230); stroke-width: 1px; stroke: none;"/>
<path d="M 358.0,145.5 L 358.0,158.0 L 368.0,158.0 L 358.0,145.5 L 358.0,145.5 Z" style="fill: rgb(38, 38, 38); stroke-width: 1px; stroke: none;"/>
<path d="M 208.0,158.0 L 208.0,183.0 L 233.0,183.0 L 233.0,158.0 L 208.0,158.0 Z" style="fill: rgb(230, 230, 230); stroke-width: 1px; stroke: none;"/>
<path d="M 233.0,158.0 L 233.0,183.0 L 258.0,183.0 L 258.0,158.0 L 233.0,158.0 Z" style="fill: rgb(38, 38, 38); stroke-width: 1px; stroke: none;"/>
<path d="M 258.0,158.0 L 258.0,183.0 L 283.0,183.0 L 283.0,158.0 L 258.0,158.0 Z" style="fill: rgb(230, 230, 230); stroke-width: 1px; stroke: none;"/>
<path d="M 283.0,158.0 L 283.0,183.0 L 308.0,183.0 L 308.0,158.0 L 283.0,158.0 Z" style="fill: rgb(38, 38, 38); stroke-width: 1px; stroke: none;"/>
<path d="M 308.0,158.0 L 308.0,183.0 L 333.0,183.0 L 333.0,158.0 L 308.0,158.0 Z" style="fill: rgb(230, 230, 230); stroke-width: 1px; stroke: none;"/>
<path d="M 333.0,158.0 L 333.0,183.0 L 358.0,183.0 L 358.0,158.0 L 333.0,158.0 Z" style="fill: rgb(38, 38, 38); stroke-width: 1px; stroke: none;"/>
<path d="M 358.0,158.0 L 358.0,183.0 L 383.0,183.0 L 383.0,176.75 L 368.0,158.0 L 358.0,158.0 Z" style="fill: rgb(230, 230, 230); stroke-width: 1px; stroke: none;"/>
<path d="M 383.0,176.75 L 383.0,183.0 L 388.0,183.0 L 383.0,176.75 L 383.0,176.75 Z" style="fill: rgb(38, 38, 38); stroke-width: 1px; stroke: none;"/>
<path d="M 208.0,183.0 L 208.0,208.0 L 233.0,208.0 L 233.0,183.0 L 208.0,183.0 Z" style="fill: rgb(38, 38, 38); stroke-width: 1px; stroke: none;"/>
<path d="M 233.0,183.0 L 233.0,208.0 L 258.0,208.0 L 258.0,183.0 L 233.0,183.0 Z" style="fill: rgb(230, 230, 230); stroke-width: 1px; stroke: none;"/>
<path d="M 258.0,183.0 L 258.0,208.0 L 283.0,208.0 L 283.0,183.0 L 258.0,183.0 Z" style="fill: rgb(38, 38, 38); stroke-width: 1px; stroke: none;"/>
<path d="M 283.0,183.0 L 283.0,208.0 L 308.0,208.0 L 308.0,183.0 L 283.0,183.0 Z" style="fill: rgb(230, 230, 230); stroke-width: 1px; stroke: none;"/>
<path d="M 308.0,183.0 L 308.0,208.0 L 333.0,208.0 L 333.0,183.0 L 308.0,183.0 Z" style="fill: rgb(38, 38, 38); stroke-width: 1px; stroke: none;"/>
<path d="M 333.0,183.0 L 333.0,208.0 L 358.0,208.0 L 358.0,183.0 L 333.0,183.0 Z" style="fill: rgb(230, 230, 230); stroke-width: 1px; stroke: none;"/>
<path d="M 358.0,183.0 L 358.0,208.0 L 383.0,208.0 L 383.0,183.0 L 358.0,183.0 Z" style="fill: rgb(38, 38, 38); stroke-width: 1px; stroke: none;"/>
<path d="M 383.0,183.0 L 383.0,208.0 L 408.0,208.0 L 388.0,183.0 L 383.0,183.0 Z" style="fill: rgb(230, 230, 230); stroke-width: 1px; stroke: none;"/>
<path d="M 8.0,108.0 L 8.0,208.0 L 208.0,208.0 L 208.0,108.0 L 8.0,108.0 Z" style="fill: rgb(217, 38, 38); stroke-width: 1px; stroke: none;"/>
<path d="M 8.0,8.0 L 408.0,8.0 L 328.0,108.0 L 408.0,208.0 L 8.0,208.0 L 8.0,8.0 Z" style="fill: none; stroke-width: 1px; stroke: rgb(0, 0, 0);"/>
</g>
<rect clip-path="url(#contour)" fill="url(#lighting)" height="216.0" width="416.0" x="0.0" y="0.0"/>
</svg>
