<?xml version="1.0" encoding="UTF-8" standalone="no"?>
<svg xmlns="http://www.w3.org/2000/svg" height="246.0" width="216.0">
<defs>
<clipPath id="contour">
<path d="M 0.0,0.0 L 200.0,0.0 L 200.0,100.0 C 200.0,150.0 160.0,200.0 100.0,230.0 C 40.0,200.0 0.0,150.0 0.0,100.0 L 0.0,0.0 Z"/>
</clipPath>
<radialGradient id="lighting">
<stop offset="25%" stop-color="white" stop-opacity="35%"/>
<stop offset="100%" stop-color="white" stop-opacity="0%"/>
</radialGradient>
</defs>
<g transform="translate(8.0,8.0)">
<path clip-path="url(#contour)" comment="FieldBackground" d="M 200.0,0.0 L 27.5,172.5 C 45.0,195.0 70.0,215.0 100.0,230.0 C 160.0,200.0 200.0,150.0 200.0,100.0 L 200.0,0.0 Z" style="fill-rule: evenodd; fill: rgb(217, 217, 38); stroke-width: 1px; stroke: none;"/>
<path clip-path="url(#contour)" comment="FieldBackground" d="M 0.0,0.0 L 0.0,100.0 C 0.0,125.0 10.0,150.0 27.5,172.5 L 200.0,0.0 L 0.0,0.0 Z" style="fill-rule: evenodd; fill: rgb(51, 153, 51); stroke-width: 1px; stroke: none;"/>
<path clip-path="url(#contour)" comment="counterchanged intersection of clipped 'fleur-de-lis' CounterchangedBackground color 0 Color(red=0.2, green=0.6, blue=0.2) counter Color(red=0.85, green=0.85, blue=0.15)" d="M 58.85395050048828,63.686771392822266 C 58.85395050048828,63.68677520751953 58.85395431518555,63.6867790222168 58.85395431518555,63.68678283691406 L 58.85395812988281,63.68678283691406 C 58.85395431518555,63.6867790222168 58.85395431518555,63.68677520751953 58.85395050048828,63.686771392822266 Z" style="fill-rule: evenodd; fill: rgb(217, 217, 38); stroke-width: 1px; stroke: none;"/>
<path clip-path="url(#contour)" comment="counterchanged intersection of clipped 'fleur-de-lis' CounterchangedBackground color 1 Color(red=0.85, green=0.85, blue=0.15) counter Color(red=0.2, green=0.6, blue=0.2)" d="M 58.85395050048828,63.686771392822266 C 58.85395050048828,63.68677520751953 58.85395431518555,63.6867790222168 58.85395431518555,63.68678283691406 L 58.85395812988281,63.68678283691406 C 58.85395431518555,63.6867790222168 58.85395431518555,63.68677520751953 58.85395050048828,63.686771392822266 Z" style="fill-rule: evenodd; fill: rgb(51, 153, 51); stroke-width: 1px; stroke: none;"/>
<path clip-path="url(#contour)" comment="counterchanged intersection of clipped 'fleur-de-lis' CounterchangedBackground color 0 Color(red=0.2, green=0.6, blue=0.2) counter Color(red=0.85, green=0.85, blue=0.15)" d="M 64.30242156982422,29.490848541259766 C 64.28130340576172,29.490848541259766 64.26119232177734,29.507049560546875 64.23115539550781,29.5430908203125 C 61.7978630065918,31.64903450012207 59.637359619140625,33.60221481323242 57.9460563659668,35.77363204956055 C 53.199501037597656,41.86231994628906 51.60639953613281,48.47476577758789 54.26884078979492,53.82146072387695 C 56.225502014160156,58.02646255493164 57.73246765136719,61.065860748291016 58.85395050048828,63.686771392822266 C 56.46638107299805,60.24641036987305 53.0790901184082,57.89851760864258 49.29313659667969,56.84398651123047 C 48.35283279418945,56.564170837402344 47.32909393310547,56.40951156616211 46.255767822265625,56.40951156616211 C 43.72951889038086,56.40951156616211 40.92856216430664,57.26628494262695 38.29421615600586,59.36457443237305 C 33.656776428222656,63.06361389160156 32.303733825683594,73.26598358154297 45.93235778808594,75.2300796508789 C 44.49202346801758,73.56060028076172 44.6120491027832,69.9270248413086 47.49271774291992,68.63945770263672 C 48.41324996948242,68.28400421142578 49.385169982910156,68.13409423828125 50.28924560546875,68.13409423828125 C 51.54991912841797,68.13409423828125 52.67868423461914,68.42558288574219 53.352264404296875,68.8576889038086 C 54.43976974487305,69.3635025024414 55.772743225097656,71.00139617919922 56.54447555541992,73.0368423461914 L 53.177677154541016,73.0368423461914 L 53.177677154541016,78.92257690429688 L 56.729427337646484,78.92257690429688 C 55.6744384765625,82.01441955566406 53.048946380615234,83.7113037109375 46.88166809082031,88.28038787841797 C 52.14107131958008,88.28038787841797 58.55710983276367,84.8868637084961 59.910152435302734,83.65385437011719 C 60.01479721069336,83.56073760986328 60.119083404541016,83.4281234741211 60.222373962402344,83.26304626464844 C 59.8079719543457,85.8452377319336 57.8279914855957,87.89635467529297 54.33430862426758,89.08784484863281 C 54.7991828918457,90.26058959960938 56.931549072265625,92.62002563476562 59.89936065673828,92.62002563476562 C 59.99663543701172,92.62002563476562 60.094810485839844,92.61749267578125 60.193851470947266,92.61229705810547 C 60.80490493774414,95.23108673095703 61.41595458984375,96.69325256347656 64.23115539550781,99.07198333740234 C 64.2638931274414,99.09925842285156 64.28025817871094,99.11289978027344 64.29662322998047,99.11289978027344 C 64.31299591064453,99.11289978027344 64.32936096191406,99.09925842285156 64.36209869384766,99.07198333740234 C 67.17729187011719,96.69325256347656 67.78834533691406,95.23108673095703 68.39939880371094,92.61229705810547 C 68.49844360351562,92.61749267578125 68.59661102294922,92.62002563476562 68.69389343261719,92.62002563476562 C 71.66170501708984,92.62002563476562 73.7940673828125,90.26058959960938 74.25894165039062,89.08784484863281 C 70.89300537109375,87.93992614746094 68.93209838867188,85.99408721923828 68.42261505126953,83.54415893554688 C 68.45846557617188,83.58519744873047 68.49437713623047,83.62185668945312 68.53033447265625,83.65385437011719 C 69.88337707519531,84.8868637084961 76.2994155883789,88.28038787841797 81.55882263183594,88.28038787841797 C 75.39154052734375,83.7113037109375 72.76605224609375,82.01441955566406 71.7110595703125,78.92257690429688 L 75.42648315429688,78.92257690429688 L 75.42648315429688,73.0368423461914 L 71.89601135253906,73.0368423461914 C 72.6677474975586,71.00139617919922 74.00071716308594,69.3635025024414 75.08822631835938,68.8576889038086 C 75.76180267333984,68.42558288574219 76.89056396484375,68.13409423828125 78.15123748779297,68.13409423828125 C 79.0553207397461,68.13409423828125 80.02723693847656,68.28400421142578 80.94776916503906,68.63945770263672 C 83.82843780517578,69.9270248413086 83.9484634399414,73.56060028076172 82.50813293457031,75.2300796508789 C 96.13675689697266,73.26598358154297 94.7837142944336,63.06361389160156 90.14627075195312,59.36457443237305 C 87.51192474365234,57.26628494262695 84.71096801757812,56.40951156616211 82.18472290039062,56.40951156616211 C 81.11139678955078,56.40951156616211 80.08765411376953,56.564170837402344 79.14734649658203,56.84398651123047 C 75.55921936035156,57.84341812133789 72.32917785644531,60.004581451416016 69.96890258789062,63.15645217895508 C 71.0638427734375,60.65517044067383 72.49827575683594,57.74595260620117 74.32440948486328,53.82146072387695 C 76.97593688964844,48.47476577758789 75.39375305175781,41.86231994628906 70.6471939086914,35.77363204956055 C 68.95588684082031,33.591304779052734 66.8062973022461,31.627212524414062 64.36209106445312,29.52126693725586 L 64.36209869384766,29.52126693725586 C 64.33757019042969,29.501649856567383 64.31966400146484,29.490848541259766 64.30242156982422,29.490848541259766 Z M 58.85395050048828,63.686771392822266 C 58.85395431518555,63.68677520751953 58.85395431518555,63.6867790222168 58.85395812988281,63.68678283691406 L 58.85395431518555,63.68678283691406 C 58.85395431518555,63.6867790222168 58.85395050048828,63.68677520751953 58.85395050048828,63.686771392822266 Z" style="fill-rule: evenodd; fill: rgb(217, 217, 38); stroke-width: 1px; stroke: none;"/>
<path clip-path="url(#contour)" comment="counterchanged intersection of clipped 'fleur-de-lis' CounterchangedBackground color 1 Color(red=0.85, green=0.85, blue=0.15) counter Color(red=0.2, green=0.6, blue=0.2)" d="M 130.2825164794922,135.11534118652344 C 130.2825164794922,135.11534118652344 130.28253173828125,135.1153564453125 130.28253173828125,135.1153564453125 C 130.28253173828125,135.1153564453125 130.28253173828125,135.11534118652344 130.2825164794922,135.11534118652344 Z" style="fill-rule: evenodd; fill: rgb(51, 153, 51); stroke-width: 1px; stroke: none;"/>
<path clip-path="url(#contour)" comment="counterchanged intersection of clipped 'fleur-de-lis' CounterchangedBackground color 1 Color(red=0.85, green=0.85, blue=0.15) counter Color(red=0.2, green=0.6, blue=0.2)" d="M 135.73098754882812,100.91941833496094 C 135.70986938476562,100.91941833496094 135.68975830078125,100.93562316894531 135.65972900390625,100.97166442871094 C 133.2264404296875,103.07760620117188 131.06593322753906,105.0307846069336 129.3746337890625,107.20220184326172 C 124.6280746459961,113.2908935546875 123.03497314453125,119.90333557128906 125.6974105834961,125.25003051757812 C 127.6540756225586,129.4550323486328 129.16104125976562,132.4944305419922 130.2825164794922,135.11534118652344 C 127.89495086669922,131.67498779296875 124.50765991210938,129.32708740234375 120.72171020507812,128.27255249023438 C 119.78140258789062,127.99274444580078 118.7576675415039,127.83808135986328 117.68434143066406,127.83808135986328 C 115.15808868408203,127.83808135986328 112.35713195800781,128.69485473632812 109.72278594970703,130.7931365966797 C 105.0853500366211,134.4921875 103.73230743408203,144.69456481933594 117.36093139648438,146.6586456298828 C 115.92059326171875,144.98916625976562 116.04061889648438,141.35560607910156 118.9212875366211,140.06802368164062 C 119.8418197631836,139.7125701904297 120.8137435913086,139.5626678466797 121.71781921386719,139.5626678466797 C 122.9784927368164,139.5626678466797 124.10725402832031,139.85415649414062 124.78083801269531,140.2862548828125 C 125.86833953857422,140.79208374023438 127.2013168334961,142.42996215820312 127.9730453491211,144.4654083251953 L 124.60624694824219,144.4654083251953 L 124.60624694824219,150.3511505126953 L 128.1580047607422,150.3511505126953 C 127.10301208496094,153.4429931640625 124.4775161743164,155.13987731933594 118.31024169921875,159.70895385742188 C 123.56964111328125,159.70895385742188 129.98568725585938,156.31544494628906 131.33872985839844,155.08242797851562 C 131.44337463378906,154.9893035888672 131.5476531982422,154.856689453125 131.65093994140625,154.69161987304688 C 131.23654174804688,157.2738037109375 129.25656127929688,159.32493591308594 125.76287841796875,160.51641845703125 C 126.22775268554688,161.6891632080078 128.36012268066406,164.04859924316406 131.3279266357422,164.04859924316406 C 131.42520141601562,164.04859924316406 131.52337646484375,164.0460662841797 131.62242126464844,164.04086303710938 C 132.2334747314453,166.65965270996094 132.8445281982422,168.121826171875 135.65972900390625,170.50054931640625 C 135.6924591064453,170.52783203125 135.70883178710938,170.54147338867188 135.72520446777344,170.54147338867188 C 135.74156188964844,170.54147338867188 135.7579345703125,170.52783203125 135.79066467285156,170.50054931640625 C 138.60586547851562,168.121826171875 139.2169189453125,166.65965270996094 139.82797241210938,164.04086303710938 C 139.92701721191406,164.0460662841797 140.0251922607422,164.04859924316406 140.12246704101562,164.04859924316406 C 143.09027099609375,164.04859924316406 145.22264099121094,161.6891632080078 145.68751525878906,160.51641845703125 C 142.3215789794922,159.36849975585938 140.3606719970703,157.4226531982422 139.85118103027344,154.9727325439453 C 139.8870391845703,155.01376342773438 139.92294311523438,155.05043029785156 139.9589080810547,155.08242797851562 C 141.31195068359375,156.31544494628906 147.7279815673828,159.70895385742188 152.98739624023438,159.70895385742188 C 146.8201141357422,155.13987731933594 144.1946258544922,153.4429931640625 143.13963317871094,150.3511505126953 L 146.8550567626953,150.3511505126953 L 146.8550567626953,144.4654083251953 L 143.3245849609375,144.4654083251953 C 144.0963134765625,142.42996215820312 145.42929077148438,140.79208374023438 146.5167999267578,140.2862548828125 C 147.1903839111328,139.85415649414062 148.3191375732422,139.5626678466797 149.57981872558594,139.5626678466797 C 150.48388671875,139.5626678466797 151.455810546875,139.7125701904297 152.3763427734375,140.06802368164062 C 155.2570037841797,141.35560607910156 155.37704467773438,144.98916625976562 153.93670654296875,146.6586456298828 C 167.56532287597656,144.69456481933594 166.2122802734375,134.4921875 161.57484436035156,130.7931365966797 C 158.94049072265625,128.69485473632812 156.13954162597656,127.83808135986328 153.61329650878906,127.83808135986328 C 152.5399627685547,127.83808135986328 151.51622009277344,127.99274444580078 150.575927734375,128.27255249023438 C 146.98779296875,129.27198791503906 143.75775146484375,131.4331512451172 141.39747619628906,134.58502197265625 C 142.49241638183594,132.083740234375 143.92684936523438,129.17453002929688 145.75299072265625,125.25003051757812 C 148.40451049804688,119.90333557128906 146.82232666015625,113.29088592529297 142.0757598876953,107.20220184326172 C 140.38446044921875,105.0198745727539 138.23486328125,103.0557861328125 135.79066467285156,100.94983673095703 C 135.76614379882812,100.93022155761719 135.74822998046875,100.91941833496094 135.73098754882812,100.91941833496094 Z" style="fill-rule: evenodd; fill: rgb(51, 153, 51); stroke-width: 1px; stroke: none;"/>
<path clip-path="url(#contour)" comment="counterchanged intersection of clipped 'fleur-de-lis' CounterchangedBackground color 0 Color(red=0.2, green=0.6, blue=0.2) counter Color(red=0.85, green=0.85, blue=0.15)" d="M 130.2825164794922,135.11534118652344 C 130.2825164794922,135.11534118652344 130.28253173828125,135.1153564453125 130.28253173828125,135.1153564453125 C 130.28253173828125,135.1153564453125 130.28253173828125,135.11534118652344 130.2825164794922,135.11534118652344 Z" style="fill-rule: evenodd; fill: rgb(217, 217, 38); stroke-width: 1px; stroke: none;"/>
<path clip-path="url(#contour)" comment="counterchanged intersection of CounterchangedBackground color 1 Color(red=0.85, green=0.85, blue=0.15) counter Color(red=0.2, green=0.6, blue=0.2)" d="M 200.0,0.0 L 180.0,20.0 L 180.0,100.0 C 180.0,140.0 148.0,180.0 100.0,204.0 C 76.0,192.0 56.0,176.0 42.0,158.0 L 27.5,172.5 C 45.0,195.0 70.0,215.0 100.0,230.0 C 160.0,200.0 200.0,150.0 200.0,100.0 L 200.0,0.0 Z" style="fill-rule: evenodd; fill: rgb(51, 153, 51); stroke-width: 1px; stroke: none;"/>
<path clip-path="url(#contour)" comment="counterchanged intersection of CounterchangedBackground color 0 Color(red=0.2, green=0.6, blue=0.2) counter Color(red=0.85, green=0.85, blue=0.15)" d="M 0.0,0.0 L 0.0,100.0 C 0.0,125.0 10.0,150.0 27.5,172.5 L 42.0,158.0 C 28.0,140.0 20.0,120.0 20.0,100.0 L 20.0,20.0 L 180.0,20.0 L 200.0,0.0 L 0.0,0.0 Z" style="fill-rule: evenodd; fill: rgb(217, 217, 38); stroke-width: 1px; stroke: none;"/>
<path clip-path="url(#contour)" comment="outer shield shape border" d="M 0.0,0.0 L 0.0,100.0 C 0.0,150.0 40.0,200.0 100.0,230.0 C 160.0,200.0 200.0,150.0 200.0,100.0 L 200.0,0.0 L 0.0,0.0 Z" style="fill-rule: evenodd; fill: none; stroke-width: 1px; stroke: rgb(0, 0, 0);"/>
</g>
</svg>
