<?xml version="1.0" encoding="UTF-8" standalone="no"?>
<svg xmlns="http://www.w3.org/2000/svg" height="246.0" width="216.0">
<defs>
<clipPath id="contour">
<path d="M 8.0,8.0 L 208.0,8.0 L 208.0,108.0 C 208.0,158.0 168.0,208.0 108.0,238.0 C 48.0,208.0 8.0,158.0 8.0,108.0 L 8.0,8.0 Z"/>
</clipPath>
<radialGradient id="lighting">
<stop offset="25%" stop-color="white" stop-opacity="35%"/>
<stop offset="100%" stop-color="white" stop-opacity="0%"/>
</radialGradient>
</defs>
<g>
<path d="M 8.0,8.0 L 208.0,8.0 L 208.0,108.0 C 208.0,158.0 168.0,208.0 108.0,238.0 C 48.0,208.0 8.0,158.0 8.0,108.0 L 8.0,8.0 Z" style="fill: rgb(217, 217, 38); stroke-width: 1px; stroke: none;"/>
<path d="M 8.0,8.0 L 8.0,11.520895719528198 L 8.000000000000064,11.520895719528198 L 8.000000000000057,29.21320343017578 L 8.000000000000048,46.90550994873047 L 25.69230842590332,46.90550994873047 L 43.38461685180664,46.90550994873047 L 43.38461685180664,64.59782028198242 L 43.38461685180664,82.29012298583984 L 61.07692337036133,82.29012298583984 L 78.76923370361328,82.29012298583984 L 78.76923370361328,99.98243713378906 L 78.76923370361328,117.67474365234375 L 114.15384674072266,117.67474365234375 L 114.15384674072266,135.36705017089844 L 114.15384674072266,153.05935668945312 L 131.84615325927734,153.05935668945312 L 149.53846740722656,153.05935668945312 L 149.53846740722656,170.7516632080078 L 149.53846740722656,188.4439697265625 L 173.9188232421875,188.4439697265625 C 180.8900604248047,180.52655029296875 186.91726684570312,172.24229431152344 191.8817596435547,163.70986938476562 L 167.23077392578125,163.70986938476562 L 167.23077392578125,146.01756286621094 L 167.23077392578125,128.32525634765625 L 149.53846740722656,128.32525634765625 L 131.84615325927734,128.32525634765625 L 131.84615325927734,110.63294982910156 L 131.84615325927734,92.94064331054688 L 96.46154022216797,92.94064331054688 L 96.46154022216797,75.24833679199219 L 96.46154022216797,57.556026458740234 L 78.76923370361328,57.556026458740234 L 61.07692337036133,57.556026458740234 L 61.07692337036133,39.86371994018555 L 61.07692337036133,22.171411514282227 L 43.38461685180664,22.171411514282227 L 25.69230842590332,22.171411514282227 L 25.69230842590332,8.0 L 8.0,8.0 Z" style="fill: rgb(38, 38, 217); stroke-width: 1px; stroke: none;"/>
<path d="M 8.0,8.0 L 208.0,8.0 L 208.0,108.0 C 208.0,158.0 168.0,208.0 108.0,238.0 C 48.0,208.0 8.0,158.0 8.0,108.0 L 8.0,8.0 Z" style="fill: none; stroke-width: 1px; stroke: rgb(0, 0, 0);"/>
</g>
<rect clip-path="url(#contour)" fill="url(#lighting)" height="246.0" width="216.0" x="0.0" y="0.0"/>
</svg>
