<?xml version="1.0" encoding="UTF-8" standalone="no"?>
<svg xmlns="http://www.w3.org/2000/svg" height="246.0" width="216.0">
<defs>
<clipPath id="contour">
<path d="M 8.0,8.0 L 208.0,8.0 L 208.0,108.0 C 208.0,158.0 168.0,208.0 108.0,238.0 C 48.0,208.0 8.0,158.0 8.0,108.0 L 8.0,8.0 Z"/>
</clipPath>
<radialGradient id="lighting">
<stop offset="25%" stop-color="white" stop-opacity="35%"/>
<stop offset="100%" stop-color="white" stop-opacity="0%"/>
</radialGradient>
</defs>
<g transform="translate(8.0,8.0)">
<path d="M 0.0,0.0 L 200.0,0.0 L 200.0,100.0 C 200.0,150.0 160.0,200.0 100.0,230.0 C 40.0,200.0 0.0,150.0 0.0,100.0 L 0.0,0.0 Z" style="fill: rgb(217, 217, 38); stroke-width: 1px; stroke: none;"/>
<path d="M 0.0,0.0 L 0.0,3.5208957195281982 L 6.394884621840902E-14,3.5208957195281982 L 5.6843418860808015E-14,21.21320343017578 L 4.796163466380676E-14,38.90550994873047 L 17.69230842590332,38.90550994873047 L 35.38461685180664,38.90550994873047 L 35.38461685180664,56.59782028198242 L 35.38461685180664,74.29012298583984 L 53.07692337036133,74.29012298583984 L 70.76923370361328,74.29012298583984 L 70.76923370361328,91.98243713378906 L 70.76923370361328,109.67474365234375 L 106.15384674072266,109.67474365234375 L 106.15384674072266,127.36705017089844 L 106.15384674072266,145.05935668945312 L 123.84615325927734,145.05935668945312 L 141.53846740722656,145.05935668945312 L 141.53846740722656,162.7516632080078 L 141.53846740722656,180.4439697265625 L 165.9188232421875,180.4439697265625 C 172.8900604248047,172.52655029296875 178.91726684570312,164.24229431152344 183.8817596435547,155.70986938476562 L 159.23077392578125,155.70986938476562 L 159.23077392578125,138.01756286621094 L 159.23077392578125,120.32525634765625 L 141.53846740722656,120.32525634765625 L 123.84615325927734,120.32525634765625 L 123.84615325927734,102.63294982910156 L 123.84615325927734,84.94064331054688 L 88.46154022216797,84.94064331054688 L 88.46154022216797,67.24833679199219 L 88.46154022216797,49.556026458740234 L 70.76923370361328,49.556026458740234 L 53.07692337036133,49.556026458740234 L 53.07692337036133,31.863719940185547 L 53.07692337036133,14.171411514282227 L 35.38461685180664,14.171411514282227 L 17.69230842590332,14.171411514282227 L 17.69230842590332,0.0 L 0.0,0.0 Z" style="fill: rgb(13, 38, 217); stroke-width: 1px; stroke: none;"/>
<path d="M 0.0,0.0 L 200.0,0.0 L 200.0,100.0 C 200.0,150.0 160.0,200.0 100.0,230.0 C 40.0,200.0 0.0,150.0 0.0,100.0 L 0.0,0.0 Z" style="fill: none; stroke-width: 1px; stroke: rgb(0, 0, 0);"/>
</g>
<rect clip-path="url(#contour)" fill="url(#lighting)" height="246.0" width="216.0" x="0.0" y="0.0"/>
</svg>
