<?xml version="1.0" encoding="UTF-8" standalone="no"?>
<svg xmlns="http://www.w3.org/2000/svg" height="246.0" width="216.0">
<defs>
<clipPath id="contour">
<path d="M 0.0,0.0 L 200.0,0.0 L 200.0,100.0 C 200.0,150.0 160.0,200.0 100.0,230.0 C 40.0,200.0 0.0,150.0 0.0,100.0 L 0.0,0.0 Z"/>
</clipPath>
<radialGradient id="lighting">
<stop offset="25%" stop-color="white" stop-opacity="35%"/>
<stop offset="100%" stop-color="white" stop-opacity="0%"/>
</radialGradient>
</defs>
<g transform="translate(8.0,8.0)">
<path clip-path="url(#contour)" comment="FieldBackground" d="M 0.0,0.0 L 0.0,100.0 L 100.0,100.0 L 100.0,0.0 L 0.0,0.0 Z" style="fill-rule: evenodd; fill: rgb(217, 217, 38); stroke-width: 1px; stroke: none;"/>
<path clip-path="url(#contour)" comment="FieldBackground" d="M 100.0,0.0 L 100.0,100.0 L 200.0,100.0 L 200.0,0.0 L 100.0,0.0 Z" style="fill-rule: evenodd; fill: rgb(230, 230, 230); stroke-width: 1px; stroke: none;"/>
<path clip-path="url(#contour)" comment="FieldBackground" d="M 100.0,100.0 L 100.0,230.0 C 160.0,200.0 200.0,150.0 200.0,100.0 L 100.0,100.0 Z" style="fill-rule: evenodd; fill: rgb(217, 217, 38); stroke-width: 1px; stroke: none;"/>
<path clip-path="url(#contour)" comment="FieldBackground" d="M 0.0,100.0 C 0.0,150.0 40.0,200.0 100.0,230.0 L 100.0,100.0 L 0.0,100.0 Z" style="fill-rule: evenodd; fill: rgb(230, 230, 230); stroke-width: 1px; stroke: none;"/>
<path clip-path="url(#contour)" comment="FieldBackground" d="M 0.0,0.0 L 0.0,9.42809009552002 L 60.95262145996094,70.3807144165039 L 70.3807144165039,60.95262145996094 L 9.42809009552002,0.0 L 0.0,0.0 Z M 190.57191467285156,0.0 L 101.0,89.57190704345703 L 110.42809295654297,99.0 L 200.0,9.42809009552002 L 200.0,0.0 L 190.57191467285156,0.0 Z M 100.0,33.33333206176758 L 33.33333206176758,100.0 L 60.95262145996094,127.6192855834961 L 70.3807144165039,118.19120025634766 L 52.18951416015625,100.0 L 100.0,52.18951416015625 L 118.19120025634766,70.3807144165039 L 127.6192855834961,60.95262145996094 L 100.0,33.33333206176758 Z M 81.80879974365234,72.3807144165039 L 72.3807144165039,81.80879974365234 L 118.19120025634766,127.6192855834961 L 127.6192855834961,118.19120025634766 L 81.80879974365234,72.3807144165039 Z M 139.04737854003906,72.3807144165039 L 129.61929321289062,81.80879974365234 L 147.81048583984375,100.0 L 100.0,147.81048583984375 L 81.80879974365234,129.61929321289062 L 72.3807144165039,139.04737854003906 L 100.0,166.6666717529297 L 166.6666717529297,100.0 L 139.04737854003906,72.3807144165039 Z M 89.57190704345703,101.0 L 23.475780487060547,167.09613037109375 C 26.037229537963867,170.69317626953125 28.7889347076416,174.23333740234375 31.72118377685547,177.7069091796875 L 99.0,110.42809295654297 L 89.57190704345703,101.0 Z M 139.04737854003906,129.61929321289062 L 129.61929321289062,139.04737854003906 L 168.27882385253906,177.7069091796875 C 171.2110595703125,174.23333740234375 173.9627685546875,170.69317626953125 176.5242156982422,167.09613037109375 L 139.04737854003906,129.61929321289062 Z" style="fill-rule: evenodd; fill: rgb(179, 38, 26); stroke-width: 1px; stroke: none;"/>
<path clip-path="url(#contour)" comment="FieldBackground" d="M 0.0,0.0 L 0.0,9.42809009552002 L 60.95262145996094,70.3807144165039 L 70.3807144165039,60.95262145996094 L 9.42809009552002,0.0 L 0.0,0.0 Z M 190.57191467285156,0.0 L 101.0,89.57190704345703 L 110.42809295654297,99.0 L 200.0,9.42809009552002 L 200.0,0.0 L 190.57191467285156,0.0 Z M 100.0,33.33333206176758 L 33.33333206176758,100.0 L 60.95262145996094,127.6192855834961 L 70.3807144165039,118.19120025634766 L 52.18951416015625,100.0 L 100.0,52.18951416015625 L 118.19120025634766,70.3807144165039 L 127.6192855834961,60.95262145996094 L 100.0,33.33333206176758 Z M 81.80879974365234,72.3807144165039 L 72.3807144165039,81.80879974365234 L 118.19120025634766,127.6192855834961 L 127.6192855834961,118.19120025634766 L 81.80879974365234,72.3807144165039 Z M 139.04737854003906,72.3807144165039 L 129.61929321289062,81.80879974365234 L 147.81048583984375,100.0 L 100.0,147.81048583984375 L 81.80879974365234,129.61929321289062 L 72.3807144165039,139.04737854003906 L 100.0,166.6666717529297 L 166.6666717529297,100.0 L 139.04737854003906,72.3807144165039 Z M 89.57190704345703,101.0 L 23.475780487060547,167.09613037109375 C 26.037229537963867,170.69317626953125 28.7889347076416,174.23333740234375 31.72118377685547,177.7069091796875 L 99.0,110.42809295654297 L 89.57190704345703,101.0 Z M 139.04737854003906,129.61929321289062 L 129.61929321289062,139.04737854003906 L 168.27882385253906,177.7069091796875 C 171.2110595703125,174.23333740234375 173.9627685546875,170.69317626953125 176.5242156982422,167.09613037109375 L 139.04737854003906,129.61929321289062 Z" style="fill-rule: evenodd; fill: rgb(179, 38, 26); stroke-width: 1px; stroke: none;"/>
<path clip-path="url(#contour)" comment="FieldBackground" d="M 0.0,0.0 L 0.0,9.42809009552002 L 60.95262145996094,70.3807144165039 L 70.3807144165039,60.95262145996094 L 9.42809009552002,0.0 L 0.0,0.0 Z M 190.57191467285156,0.0 L 101.0,89.57190704345703 L 110.42809295654297,99.0 L 200.0,9.42809009552002 L 200.0,0.0 L 190.57191467285156,0.0 Z M 100.0,33.33333206176758 L 33.33333206176758,100.0 L 60.95262145996094,127.6192855834961 L 70.3807144165039,118.19120025634766 L 52.18951416015625,100.0 L 100.0,52.18951416015625 L 118.19120025634766,70.3807144165039 L 127.6192855834961,60.95262145996094 L 100.0,33.33333206176758 Z M 81.80879974365234,72.3807144165039 L 72.3807144165039,81.80879974365234 L 118.19120025634766,127.6192855834961 L 127.6192855834961,118.19120025634766 L 81.80879974365234,72.3807144165039 Z M 139.04737854003906,72.3807144165039 L 129.61929321289062,81.80879974365234 L 147.81048583984375,100.0 L 100.0,147.81048583984375 L 81.80879974365234,129.61929321289062 L 72.3807144165039,139.04737854003906 L 100.0,166.6666717529297 L 166.6666717529297,100.0 L 139.04737854003906,72.3807144165039 Z M 89.57190704345703,101.0 L 23.475780487060547,167.09613037109375 C 26.037229537963867,170.69317626953125 28.7889347076416,174.23333740234375 31.72118377685547,177.7069091796875 L 99.0,110.42809295654297 L 89.57190704345703,101.0 Z M 139.04737854003906,129.61929321289062 L 129.61929321289062,139.04737854003906 L 168.27882385253906,177.7069091796875 C 171.2110595703125,174.23333740234375 173.9627685546875,170.69317626953125 176.5242156982422,167.09613037109375 L 139.04737854003906,129.61929321289062 Z" style="fill-rule: evenodd; fill: rgb(179, 38, 26); stroke-width: 1px; stroke: none;"/>
<path clip-path="url(#contour)" comment="FieldBackground" d="M 0.0,0.0 L 0.0,9.42809009552002 L 60.95262145996094,70.3807144165039 L 70.3807144165039,60.95262145996094 L 9.42809009552002,0.0 L 0.0,0.0 Z M 190.57191467285156,0.0 L 101.0,89.57190704345703 L 110.42809295654297,99.0 L 200.0,9.42809009552002 L 200.0,0.0 L 190.57191467285156,0.0 Z M 100.0,33.33333206176758 L 33.33333206176758,100.0 L 60.95262145996094,127.6192855834961 L 70.3807144165039,118.19120025634766 L 52.18951416015625,100.0 L 100.0,52.18951416015625 L 118.19120025634766,70.3807144165039 L 127.6192855834961,60.95262145996094 L 100.0,33.33333206176758 Z M 81.80879974365234,72.3807144165039 L 72.3807144165039,81.80879974365234 L 118.19120025634766,127.6192855834961 L 127.6192855834961,118.19120025634766 L 81.80879974365234,72.3807144165039 Z M 139.04737854003906,72.3807144165039 L 129.61929321289062,81.80879974365234 L 147.81048583984375,100.0 L 100.0,147.81048583984375 L 81.80879974365234,129.61929321289062 L 72.3807144165039,139.04737854003906 L 100.0,166.6666717529297 L 166.6666717529297,100.0 L 139.04737854003906,72.3807144165039 Z M 89.57190704345703,101.0 L 23.475780487060547,167.09613037109375 C 26.037229537963867,170.69317626953125 28.7889347076416,174.23333740234375 31.72118377685547,177.7069091796875 L 99.0,110.42809295654297 L 89.57190704345703,101.0 Z M 139.04737854003906,129.61929321289062 L 129.61929321289062,139.04737854003906 L 168.27882385253906,177.7069091796875 C 171.2110595703125,174.23333740234375 173.9627685546875,170.69317626953125 176.5242156982422,167.09613037109375 L 139.04737854003906,129.61929321289062 Z" style="fill-rule: evenodd; fill: rgb(179, 38, 26); stroke-width: 1px; stroke: none;"/>
<path clip-path="url(#contour)" comment="FieldBackground" d="M 0.0,0.0 L 0.0,9.42809009552002 L 60.95262145996094,70.3807144165039 L 70.3807144165039,60.95262145996094 L 9.42809009552002,0.0 L 0.0,0.0 Z M 190.57191467285156,0.0 L 101.0,89.57190704345703 L 110.42809295654297,99.0 L 200.0,9.42809009552002 L 200.0,0.0 L 190.57191467285156,0.0 Z M 100.0,33.33333206176758 L 33.33333206176758,100.0 L 60.95262145996094,127.6192855834961 L 70.3807144165039,118.19120025634766 L 52.18951416015625,100.0 L 100.0,52.18951416015625 L 118.19120025634766,70.3807144165039 L 127.6192855834961,60.95262145996094 L 100.0,33.33333206176758 Z M 81.80879974365234,72.3807144165039 L 72.3807144165039,81.80879974365234 L 118.19120025634766,127.6192855834961 L 127.6192855834961,118.19120025634766 L 81.80879974365234,72.3807144165039 Z M 139.04737854003906,72.3807144165039 L 129.61929321289062,81.80879974365234 L 147.81048583984375,100.0 L 100.0,147.81048583984375 L 81.80879974365234,129.61929321289062 L 72.3807144165039,139.04737854003906 L 100.0,166.6666717529297 L 166.6666717529297,100.0 L 139.04737854003906,72.3807144165039 Z M 89.57190704345703,101.0 L 23.475780487060547,167.09613037109375 C 26.037229537963867,170.69317626953125 28.7889347076416,174.23333740234375 31.72118377685547,177.7069091796875 L 99.0,110.42809295654297 L 89.57190704345703,101.0 Z M 139.04737854003906,129.61929321289062 L 129.61929321289062,139.04737854003906 L 168.27882385253906,177.7069091796875 C 171.2110595703125,174.23333740234375 173.9627685546875,170.69317626953125 176.5242156982422,167.09613037109375 L 139.04737854003906,129.61929321289062 Z" style="fill-rule: evenodd; fill: rgb(179, 38, 26); stroke-width: 1px; stroke: none;"/>
<path clip-path="url(#contour)" comment="FieldBackground" d="M 0.0,0.0 L 0.0,9.42809009552002 L 60.95262145996094,70.3807144165039 L 70.3807144165039,60.95262145996094 L 9.42809009552002,0.0 L 0.0,0.0 Z M 190.57191467285156,0.0 L 101.0,89.57190704345703 L 110.42809295654297,99.0 L 200.0,9.42809009552002 L 200.0,0.0 L 190.57191467285156,0.0 Z M 100.0,33.33333206176758 L 33.33333206176758,100.0 L 60.95262145996094,127.6192855834961 L 70.3807144165039,118.19120025634766 L 52.18951416015625,100.0 L 100.0,52.18951416015625 L 118.19120025634766,70.3807144165039 L 127.6192855834961,60.95262145996094 L 100.0,33.33333206176758 Z M 81.80879974365234,72.3807144165039 L 72.3807144165039,81.80879974365234 L 118.19120025634766,127.6192855834961 L 127.6192855834961,118.19120025634766 L 81.80879974365234,72.3807144165039 Z M 139.04737854003906,72.3807144165039 L 129.61929321289062,81.80879974365234 L 147.81048583984375,100.0 L 100.0,147.81048583984375 L 81.80879974365234,129.61929321289062 L 72.3807144165039,139.04737854003906 L 100.0,166.6666717529297 L 166.6666717529297,100.0 L 139.04737854003906,72.3807144165039 Z M 89.57190704345703,101.0 L 23.475780487060547,167.09613037109375 C 26.037229537963867,170.69317626953125 28.7889347076416,174.23333740234375 31.72118377685547,177.7069091796875 L 99.0,110.42809295654297 L 89.57190704345703,101.0 Z M 139.04737854003906,129.61929321289062 L 129.61929321289062,139.04737854003906 L 168.27882385253906,177.7069091796875 C 171.2110595703125,174.23333740234375 173.9627685546875,170.69317626953125 176.5242156982422,167.09613037109375 L 139.04737854003906,129.61929321289062 Z" style="fill-rule: evenodd; fill: rgb(179, 38, 26); stroke-width: 1px; stroke: none;"/>
<path clip-path="url(#contour)" comment="FieldBackground" d="M 0.0,0.0 L 0.0,9.42809009552002 L 60.95262145996094,70.3807144165039 L 70.3807144165039,60.95262145996094 L 9.42809009552002,0.0 L 0.0,0.0 Z M 190.57191467285156,0.0 L 101.0,89.57190704345703 L 110.42809295654297,99.0 L 200.0,9.42809009552002 L 200.0,0.0 L 190.57191467285156,0.0 Z M 100.0,33.33333206176758 L 33.33333206176758,100.0 L 60.95262145996094,127.6192855834961 L 70.3807144165039,118.19120025634766 L 52.18951416015625,100.0 L 100.0,52.18951416015625 L 118.19120025634766,70.3807144165039 L 127.6192855834961,60.95262145996094 L 100.0,33.33333206176758 Z M 81.80879974365234,72.3807144165039 L 72.3807144165039,81.80879974365234 L 118.19120025634766,127.6192855834961 L 127.6192855834961,118.19120025634766 L 81.80879974365234,72.3807144165039 Z M 139.04737854003906,72.3807144165039 L 129.61929321289062,81.80879974365234 L 147.81048583984375,100.0 L 100.0,147.81048583984375 L 81.80879974365234,129.61929321289062 L 72.3807144165039,139.04737854003906 L 100.0,166.6666717529297 L 166.6666717529297,100.0 L 139.04737854003906,72.3807144165039 Z M 89.57190704345703,101.0 L 23.475780487060547,167.09613037109375 C 26.037229537963867,170.69317626953125 28.7889347076416,174.23333740234375 31.72118377685547,177.7069091796875 L 99.0,110.42809295654297 L 89.57190704345703,101.0 Z M 139.04737854003906,129.61929321289062 L 129.61929321289062,139.04737854003906 L 168.27882385253906,177.7069091796875 C 171.2110595703125,174.23333740234375 173.9627685546875,170.69317626953125 176.5242156982422,167.09613037109375 L 139.04737854003906,129.61929321289062 Z" style="fill-rule: evenodd; fill: rgb(179, 38, 26); stroke-width: 1px; stroke: none;"/>
<path clip-path="url(#contour)" comment="outer shield shape border" d="M 0.0,0.0 L 0.0,100.0 C 0.0,150.0 40.0,200.0 100.0,230.0 C 160.0,200.0 200.0,150.0 200.0,100.0 L 200.0,0.0 L 0.0,0.0 Z" style="fill-rule: evenodd; fill: none; stroke-width: 1px; stroke: rgb(0, 0, 0);"/>
</g>
</svg>
