<?xml version="1.0" encoding="UTF-8" standalone="no"?>
<svg xmlns="http://www.w3.org/2000/svg" height="216.0" width="116.0">
<defs>
<clipPath id="contour">
<path d="M 8.0,8.0 L 108.0,8.0 L 108.0,208.0 L 58.0,168.0 L 8.0,208.0 L 8.0,8.0 Z"/>
</clipPath>
<radialGradient id="lighting">
<stop offset="25%" stop-color="white" stop-opacity="35%"/>
<stop offset="100%" stop-color="white" stop-opacity="0%"/>
</radialGradient>
</defs>
<g transform="translate(8.0,8.0)">
<path d="M 0.0,0.0 L 100.0,0.0 L 100.0,200.0 L 50.0,160.0 L 0.0,200.0 L 0.0,0.0 Z" style="fill: rgb(38, 38, 38); stroke-width: 1px; stroke: rgb(0, 255, 255);"/>
<path d="M 0.0,0.0 L 0.0,5.0 L 27.83333396911621,32.83333206176758 L 32.83333206176758,27.83333396911621 L 5.0,0.0 L 0.0,0.0 Z" style="fill: rgb(166, 64, 166); stroke-width: 1px; stroke: rgb(0, 255, 255);"/>
<path d="M 38.83333206176758,33.83333206176758 L 33.83333206176758,38.83333206176758 L 61.16666793823242,66.16666412353516 L 66.16666412353516,61.16666793823242 L 38.83333206176758,33.83333206176758 L 38.83333206176758,33.83333206176758 Z" style="fill: rgb(166, 64, 166); stroke-width: 1px; stroke: rgb(0, 255, 255);"/>
<path d="M 72.16666412353516,67.16666412353516 L 67.16666412353516,72.16666412353516 L 100.0,105.0 L 100.0,95.0 L 72.16666412353516,67.16666412353516 L 72.16666412353516,67.16666412353516 Z" style="fill: rgb(166, 64, 166); stroke-width: 1px; stroke: rgb(0, 255, 255);"/>
<path d="M 95.0,0.0 L 50.5,44.5 L 55.5,49.5 L 100.0,5.0 L 100.0,0.0 L 95.0,0.0 Z" style="fill: rgb(166, 64, 166); stroke-width: 1px; stroke: rgb(0, 255, 255);"/>
<path d="M 44.5,50.5 L 0.0,95.0 L 0.0,105.0 L 49.5,55.5 L 44.5,50.5 L 44.5,50.5 Z" style="fill: rgb(166, 64, 166); stroke-width: 1px; stroke: rgb(0, 255, 255);"/>
<path d="M 50.0,11.666666984558105 L 11.666666984558105,50.0 L 27.83333396911621,66.16666412353516 L 32.83333206176758,61.16666793823242 L 21.66666603088379,50.0 L 50.0,21.66666603088379 L 61.16666793823242,32.83333206176758 L 66.16666412353516,27.83333396911621 L 50.0,11.666666984558105 L 50.0,11.666666984558105 Z" style="fill: rgb(166, 64, 166); stroke-width: 1px; stroke: rgb(0, 255, 255);"/>
<path d="M 72.16666412353516,33.83333206176758 L 67.16666412353516,38.83333206176758 L 78.33333587646484,50.0 L 50.0,78.33333587646484 L 38.83333206176758,67.16666412353516 L 33.83333206176758,72.16666412353516 L 50.0,88.33333587646484 L 88.33333587646484,50.0 L 72.16666412353516,33.83333206176758 L 72.16666412353516,33.83333206176758 Z" style="fill: rgb(166, 64, 166); stroke-width: 1px; stroke: rgb(0, 255, 255);"/>
<path d="M 0.0,0.0 L 100.0,0.0 L 100.0,200.0 L 50.0,160.0 L 0.0,200.0 L 0.0,0.0 Z" style="fill: none; stroke-width: 1px; stroke: rgb(0, 0, 0);"/>
</g>
<rect clip-path="url(#contour)" fill="url(#lighting)" height="216.0" width="116.0" x="0.0" y="0.0"/>
</svg>
