<?xml version="1.0" encoding="UTF-8" standalone="no"?>
<svg xmlns="http://www.w3.org/2000/svg" height="246.0" width="216.0">
<defs>
<clipPath id="contour">
<path d="M 8.0,8.0 L 208.0,8.0 L 208.0,108.0 C 208.0,158.0 168.0,208.0 108.0,238.0 C 48.0,208.0 8.0,158.0 8.0,108.0 L 8.0,8.0 Z"/>
</clipPath>
<radialGradient id="lighting">
<stop offset="25%" stop-color="white" stop-opacity="35%"/>
<stop offset="100%" stop-color="white" stop-opacity="0%"/>
</radialGradient>
</defs>
<g>
<path d="M 8.0,8.0 L 208.0,8.0 L 208.0,108.0 C 208.0,158.0 168.0,208.0 108.0,238.0 C 48.0,208.0 8.0,158.0 8.0,108.0 L 8.0,8.0 Z" style="fill: rgb(38, 38, 217); stroke-width: 1px; stroke: none;"/>
<path d="M 170.49392700195312,24.292858123779297 L 158.0367889404297,36.75 L 170.49392700195312,36.75 L 170.49392700195312,24.292858123779297 L 170.49392700195312,24.292858123779297 Z" style="fill: rgb(230, 230, 230); stroke-width: 1px; stroke: none;"/>
<path d="M 186.7867889404297,8.0 L 170.49392700195312,24.292858123779297 L 170.49392700195312,36.75 L 199.24392700195312,36.75 L 199.24392700195312,8.0 L 186.7867889404297,8.0 Z" style="fill: rgb(38, 38, 38); stroke-width: 1px; stroke: none;"/>
<path d="M 199.24392700195312,8.0 L 199.24392700195312,36.75 L 200.46319580078125,36.75 L 208.0,29.21320343017578 L 208.0,8.0 L 199.24392700195312,8.0 Z" style="fill: rgb(230, 230, 230); stroke-width: 1px; stroke: none;"/>
<path d="M 141.74392700195312,53.0428581237793 L 129.2867889404297,65.5 L 141.74392700195312,65.5 L 141.74392700195312,53.0428581237793 L 141.74392700195312,53.0428581237793 Z" style="fill: rgb(230, 230, 230); stroke-width: 1px; stroke: none;"/>
<path d="M 158.0367889404297,36.75 L 141.74392700195312,53.0428581237793 L 141.74392700195312,65.5 L 170.49392700195312,65.5 L 170.49392700195312,36.75 L 158.0367889404297,36.75 Z" style="fill: rgb(38, 38, 38); stroke-width: 1px; stroke: none;"/>
<path d="M 170.49392700195312,36.75 L 170.49392700195312,65.5 L 171.71319580078125,65.5 L 199.24392700195312,37.96927261352539 L 199.24392700195312,36.75 L 170.49392700195312,36.75 Z" style="fill: rgb(230, 230, 230); stroke-width: 1px; stroke: none;"/>
<path d="M 199.24392700195312,36.75 L 199.24392700195312,37.96927261352539 L 200.46319580078125,36.75 L 199.24392700195312,36.75 Z" style="fill: rgb(38, 38, 38); stroke-width: 1px; stroke: none;"/>
<path d="M 112.99392700195312,81.79286193847656 L 100.53678894042969,94.25 L 112.99392700195312,94.25 L 112.99392700195312,81.79286193847656 L 112.99392700195312,81.79286193847656 Z" style="fill: rgb(230, 230, 230); stroke-width: 1px; stroke: none;"/>
<path d="M 129.2867889404297,65.5 L 112.99392700195312,81.79286193847656 L 112.99392700195312,94.25 L 141.74392700195312,94.25 L 141.74392700195312,65.5 L 129.2867889404297,65.5 Z" style="fill: rgb(38, 38, 38); stroke-width: 1px; stroke: none;"/>
<path d="M 141.74392700195312,65.5 L 141.74392700195312,94.25 L 142.96319580078125,94.25 L 170.49392700195312,66.71927261352539 L 170.49392700195312,65.5 L 141.74392700195312,65.5 Z" style="fill: rgb(230, 230, 230); stroke-width: 1px; stroke: none;"/>
<path d="M 170.49392700195312,65.5 L 170.49392700195312,66.71927261352539 L 171.71319580078125,65.5 L 170.49392700195312,65.5 Z" style="fill: rgb(38, 38, 38); stroke-width: 1px; stroke: none;"/>
<path d="M 84.24392700195312,110.54286193847656 L 71.78679275512695,123.0 L 84.24392700195312,123.0 L 84.24392700195312,110.54286193847656 L 84.24392700195312,110.54286193847656 Z" style="fill: rgb(230, 230, 230); stroke-width: 1px; stroke: none;"/>
<path d="M 100.53678894042969,94.25 L 84.24392700195312,110.54286193847656 L 84.24392700195312,123.0 L 112.99392700195312,123.0 L 112.99392700195312,94.25 L 100.53678894042969,94.25 Z" style="fill: rgb(38, 38, 38); stroke-width: 1px; stroke: none;"/>
<path d="M 112.99392700195312,94.25 L 112.99392700195312,123.0 L 114.21320343017578,123.0 L 141.74392700195312,95.46926879882812 L 141.74392700195312,94.25 L 112.99392700195312,94.25 Z" style="fill: rgb(230, 230, 230); stroke-width: 1px; stroke: none;"/>
<path d="M 141.74392700195312,94.25 L 141.74392700195312,95.46926879882812 L 142.96319580078125,94.25 L 141.74392700195312,94.25 Z" style="fill: rgb(38, 38, 38); stroke-width: 1px; stroke: none;"/>
<path d="M 55.49393081665039,139.29286193847656 L 43.03679275512695,151.75 L 55.49393081665039,151.75 L 55.49393081665039,139.29286193847656 L 55.49393081665039,139.29286193847656 Z" style="fill: rgb(230, 230, 230); stroke-width: 1px; stroke: none;"/>
<path d="M 71.78679275512695,123.0 L 55.49393081665039,139.29286193847656 L 55.49393081665039,151.75 L 84.24392700195312,151.75 L 84.24392700195312,123.0 L 71.78679275512695,123.0 Z" style="fill: rgb(38, 38, 38); stroke-width: 1px; stroke: none;"/>
<path d="M 84.24392700195312,123.0 L 84.24392700195312,151.75 L 85.46320343017578,151.75 L 112.99393463134766,124.21926879882812 L 112.99392700195312,124.21926879882812 L 112.99392700195312,123.0 L 84.24392700195312,123.0 Z" style="fill: rgb(230, 230, 230); stroke-width: 1px; stroke: none;"/>
<path d="M 112.99392700195312,123.0 L 112.99392700195312,124.21926879882812 L 112.99393463134766,124.21926879882812 L 114.21320343017578,123.0 L 112.99392700195312,123.0 Z" style="fill: rgb(38, 38, 38); stroke-width: 1px; stroke: none;"/>
<path d="M 43.03679275512695,151.75 L 26.74393081665039,168.04286193847656 C 29.40666961669922,172.26736450195312 32.330312728881836,176.4246826171875 35.50000190734863,180.5 L 55.49393081665039,180.5 L 55.49393081665039,151.75 L 43.03679275512695,151.75 Z" style="fill: rgb(38, 38, 38); stroke-width: 1px; stroke: none;"/>
<path d="M 55.49393081665039,151.75 L 55.49393081665039,180.5 L 56.713199615478516,180.5 L 84.24392700195312,152.96926879882812 L 84.24392700195312,151.75 L 55.49393081665039,151.75 Z" style="fill: rgb(230, 230, 230); stroke-width: 1px; stroke: none;"/>
<path d="M 84.24392700195312,151.75 L 84.24392700195312,152.96926879882812 L 85.46320343017578,151.75 L 84.24392700195312,151.75 Z" style="fill: rgb(38, 38, 38); stroke-width: 1px; stroke: none;"/>
<path d="M 35.50000190734863,180.5 C 38.5317325592041,184.39793395996094 41.78855895996094,188.22084045410156 45.25748062133789,191.95571899414062 L 55.49393081665039,181.71926879882812 L 55.49393081665039,180.5 L 35.50000190734863,180.5 Z" style="fill: rgb(230, 230, 230); stroke-width: 1px; stroke: none;"/>
<path d="M 55.49393081665039,180.5 L 55.49393081665039,181.71926879882812 L 56.713199615478516,180.5 L 55.49393081665039,180.5 Z" style="fill: rgb(38, 38, 38); stroke-width: 1px; stroke: none;"/>
<path d="M 8.0,8.0 L 208.0,8.0 L 208.0,108.0 C 208.0,158.0 168.0,208.0 108.0,238.0 C 48.0,208.0 8.0,158.0 8.0,108.0 L 8.0,8.0 Z" style="fill: none; stroke-width: 1px; stroke: rgb(0, 0, 0);"/>
</g>
<rect clip-path="url(#contour)" fill="url(#lighting)" height="246.0" width="216.0" x="0.0" y="0.0"/>
</svg>
