<?xml version="1.0" encoding="UTF-8" standalone="no"?>
<svg xmlns="http://www.w3.org/2000/svg" height="246.0" width="216.0">
<defs>
<clipPath id="contour">
<path d="M 0.0,0.0 L 200.0,0.0 L 200.0,100.0 C 200.0,150.0 160.0,200.0 100.0,230.0 C 40.0,200.0 0.0,150.0 0.0,100.0 L 0.0,0.0 Z"/>
</clipPath>
<radialGradient id="lighting">
<stop offset="25%" stop-color="white" stop-opacity="35%"/>
<stop offset="100%" stop-color="white" stop-opacity="0%"/>
</radialGradient>
</defs>
<g transform="translate(8.0,8.0)">
<path clip-path="url(#contour)" comment="FieldBackground" d="M 0.0,0.0 L 0.0,100.0 C 0.0,150.0 40.0,200.0 100.0,230.0 C 160.0,200.0 200.0,150.0 200.0,100.0 L 200.0,0.0 L 0.0,0.0 Z" style="fill-rule: evenodd; fill: rgb(179, 38, 26); stroke-width: 1px; stroke: none;"/>
<path clip-path="url(#contour)" comment="pattern background" d="M 0.0,0.0 L 0.0,28.284271240234375 L 71.71572875976562,100.0 L 16.076921463012695,155.63880920410156 C 22.559659957885742,166.79566955566406 30.859355926513672,177.52891540527344 40.71086883544922,187.5734100341797 L 100.0,128.28427124023438 L 159.2891387939453,187.5734100341797 C 169.14064025878906,177.52891540527344 177.44033813476562,166.79566955566406 183.92308044433594,155.63880920410156 L 128.28427124023438,100.0 L 200.0,28.284271240234375 L 200.0,0.0 L 171.71572875976562,0.0 L 100.0,71.71572875976562 L 28.284271240234375,0.0 L 0.0,0.0 Z" style="fill-rule: evenodd; fill: rgb(230, 230, 230); stroke-width: 1px; stroke: none;"/>
<path clip-path="url(#contour)" comment="clipped pattern element 0.0, 0.0 clipped and transformed" d="M 0.0,0.0 L 0.0,8.253437995910645 L 2.8118327577431046E-7,8.253437995910645 C 0.029275251552462578,8.305756568908691 0.04511144384741783,8.33445930480957 0.04511144384741783,8.33445930480957 C 0.04511144384741783,8.33445930480957 1.6225111484527588,6.296236515045166 2.5086886882781982,5.268280506134033 L 5.716666221618652,8.334457397460938 C 5.716666221618652,8.334457397460938 3.8737990856170654,4.507951736450195 2.394993305206299,0.0 L 0.0,0.0 Z" style="fill-rule: evenodd; fill: rgb(38, 38, 38); stroke-width: 1px; stroke: none;"/>
<path clip-path="url(#contour)" comment="clipped pattern element 22.22222222222222, 0.0 clipped and transformed" d="M 19.950925827026367,0.0 C 18.484703063964844,4.509309768676758 16.66666603088379,8.299013137817383 16.66666603088379,8.299013137817383 L 20.317733764648438,5.250547885894775 C 21.13302230834961,6.278524875640869 22.267333984375,8.33445930480957 22.267333984375,8.33445930480957 C 22.267333984375,8.33445930480957 23.84473419189453,6.296236515045166 24.730911254882812,5.268280506134033 L 27.938888549804688,8.334457397460938 C 27.938888549804688,8.334457397460938 26.09602165222168,4.507951736450195 24.617216110229492,0.0 L 19.950925827026367,0.0 Z" style="fill-rule: evenodd; fill: rgb(38, 38, 38); stroke-width: 1px; stroke: none;"/>
<path clip-path="url(#contour)" comment="clipped pattern element 177.7777777777778, 0.0 clipped and transformed" d="M 175.50648498535156,0.0 C 174.04025268554688,4.509309768676758 172.22222900390625,8.299013137817383 172.22222900390625,8.299013137817383 L 175.873291015625,5.250547885894775 C 176.68858337402344,6.278524875640869 177.82289123535156,8.33445930480957 177.82289123535156,8.33445930480957 C 177.82289123535156,8.33445930480957 179.40028381347656,6.296236515045166 180.28646850585938,5.268280506134033 L 183.49444580078125,8.334457397460938 C 183.49444580078125,8.334457397460938 181.65158081054688,4.507951736450195 180.1727752685547,0.0 L 175.50648498535156,0.0 Z" style="fill-rule: evenodd; fill: rgb(38, 38, 38); stroke-width: 1px; stroke: none;"/>
<path clip-path="url(#contour)" comment="clipped pattern element 200.00000000000003, 0.0 clipped and transformed" d="M 197.72869873046875,0.0 C 196.26248168945312,4.509309768676758 194.44444274902344,8.299013137817383 194.44444274902344,8.299013137817383 L 198.0955047607422,5.250547885894775 C 198.81446838378906,6.15706205368042 199.78150939941406,7.862965106964111 200.0,8.253437995910645 L 200.0,0.0 L 197.72869873046875,0.0 Z" style="fill-rule: evenodd; fill: rgb(38, 38, 38); stroke-width: 1px; stroke: none;"/>
<path clip-path="url(#contour)" comment="clipped pattern element 0.0, 27.77777777777778 clipped and transformed" d="M 11.29675579071045,13.890010833740234 C 10.095377922058105,13.890010833740234 9.120333671569824,14.8650484085083 9.120333671569824,16.066438674926758 C 9.120333671569824,17.2678279876709 10.095377922058105,18.242870330810547 11.29675579071045,18.242870330810547 C 12.49815559387207,18.242870330810547 13.473199844360352,17.2678279876709 13.473199844360352,16.066438674926758 C 13.473199844360352,14.8650484085083 12.49815559387207,13.890010833740234 11.29675579071045,13.890010833740234 Z" style="fill-rule: evenodd; fill: rgb(38, 38, 38); stroke-width: 1px; stroke: none;"/>
<path clip-path="url(#contour)" comment="clipped pattern element 0.0, 27.77777777777778 clipped and transformed" d="M 8.162711143493652,17.72052764892578 C 6.961311340332031,17.72052764892578 5.98626708984375,18.695568084716797 5.98626708984375,19.89695930480957 C 5.98626708984375,21.09834861755371 6.961311340332031,22.07339096069336 8.162711143493652,22.07339096069336 C 9.364089012145996,22.07339096069336 10.339133262634277,21.09834861755371 10.339133262634277,19.89695930480957 C 10.339133262634277,18.695568084716797 9.364089012145996,17.72052764892578 8.162711143493652,17.72052764892578 Z" style="fill-rule: evenodd; fill: rgb(38, 38, 38); stroke-width: 1px; stroke: none;"/>
<path clip-path="url(#contour)" comment="clipped pattern element 0.0, 27.77777777777778 clipped and transformed" d="M 14.430822372436523,17.72052764892578 C 13.22944450378418,17.72052764892578 12.254400253295898,18.695568084716797 12.254400253295898,19.89695930480957 C 12.254400253295898,21.09834861755371 13.22944450378418,22.07339096069336 14.430822372436523,22.07339096069336 C 15.632222175598145,22.07339096069336 16.607267379760742,21.09834861755371 16.607267379760742,19.89695930480957 C 16.607267379760742,18.695568084716797 15.632222175598145,17.72052764892578 14.430822372436523,17.72052764892578 Z" style="fill-rule: evenodd; fill: rgb(38, 38, 38); stroke-width: 1px; stroke: none;"/>
<path clip-path="url(#contour)" comment="clipped pattern element 0.0, 27.77777777777778 clipped and transformed" d="M 10.659955978393555,18.743101119995117 C 10.60563850402832,23.985137939453125 7.637704372406006,31.370759963989258 6.2530598640441895,34.537330627441406 L 6.253061294555664,34.537330627441406 L 6.551106929779053,34.83537673950195 L 6.774642467498779,35.05891418457031 L 9.206622123718262,33.028324127197266 C 10.02191162109375,34.05630111694336 11.156222343444824,36.11223602294922 11.156222343444824,36.11223602294922 C 11.156222343444824,36.11223602294922 12.733622550964355,34.074012756347656 13.619799613952637,33.046058654785156 L 16.827777862548828,36.11223602294922 C 16.827777862548828,36.11223602294922 11.723377227783203,25.51352310180664 11.687933921813965,18.813997268676758 L 10.659955978393555,18.743101119995117 Z" style="fill-rule: evenodd; fill: rgb(38, 38, 38); stroke-width: 1px; stroke: none;"/>
<path clip-path="url(#contour)" comment="clipped pattern element 22.22222222222222, 27.77777777777778 clipped and transformed" d="M 33.518978118896484,13.890010833740234 C 32.31760025024414,13.890010833740234 31.34255599975586,14.8650484085083 31.34255599975586,16.066438674926758 C 31.34255599975586,17.2678279876709 32.31760025024414,18.242870330810547 33.518978118896484,18.242870330810547 C 34.72037887573242,18.242870330810547 35.6954231262207,17.2678279876709 35.6954231262207,16.066438674926758 C 35.6954231262207,14.8650484085083 34.72037887573242,13.890010833740234 33.518978118896484,13.890010833740234 Z" style="fill-rule: evenodd; fill: rgb(38, 38, 38); stroke-width: 1px; stroke: none;"/>
<path clip-path="url(#contour)" comment="clipped pattern element 22.22222222222222, 27.77777777777778 clipped and transformed" d="M 30.384933471679688,17.72052764892578 C 29.18353271484375,17.72052764892578 28.20848846435547,18.695568084716797 28.20848846435547,19.89695930480957 C 28.20848846435547,21.09834861755371 29.18353271484375,22.07339096069336 30.384933471679688,22.07339096069336 C 31.58631134033203,22.07339096069336 32.56135559082031,21.09834861755371 32.56135559082031,19.89695930480957 C 32.56135559082031,18.695568084716797 31.58631134033203,17.72052764892578 30.384933471679688,17.72052764892578 Z" style="fill-rule: evenodd; fill: rgb(38, 38, 38); stroke-width: 1px; stroke: none;"/>
<path clip-path="url(#contour)" comment="clipped pattern element 22.22222222222222, 27.77777777777778 clipped and transformed" d="M 36.653045654296875,17.72052764892578 C 35.45166778564453,17.72052764892578 34.47662353515625,18.695568084716797 34.47662353515625,19.89695930480957 C 34.47662353515625,21.09834861755371 35.45166778564453,22.07339096069336 36.653045654296875,22.07339096069336 C 37.85444641113281,22.07339096069336 38.829490661621094,21.09834861755371 38.829490661621094,19.89695930480957 C 38.829490661621094,18.695568084716797 37.85444641113281,17.72052764892578 36.653045654296875,17.72052764892578 Z" style="fill-rule: evenodd; fill: rgb(38, 38, 38); stroke-width: 1px; stroke: none;"/>
<path clip-path="url(#contour)" comment="clipped pattern element 22.22222222222222, 27.77777777777778 clipped and transformed" d="M 32.882179260253906,18.743101119995117 C 32.8112907409668,25.584413528442383 27.77777862548828,36.07678985595703 27.77777862548828,36.07678985595703 L 31.428844451904297,33.028324127197266 C 32.24413299560547,34.05630111694336 33.37844467163086,36.11223602294922 33.37844467163086,36.11223602294922 C 33.37844467163086,36.11223602294922 34.95584487915039,34.074012756347656 35.84202194213867,33.046058654785156 L 39.04999923706055,36.11223602294922 C 39.04999923706055,36.11223602294922 33.94559860229492,25.51352310180664 33.91015625,18.813997268676758 L 32.882179260253906,18.743101119995117 Z" style="fill-rule: evenodd; fill: rgb(38, 38, 38); stroke-width: 1px; stroke: none;"/>
<path clip-path="url(#contour)" comment="clipped pattern element 44.44444444444444, 27.77777777777778 clipped and transformed" d="M 53.930904388427734,25.64663314819336 C 52.423465728759766,31.025062561035156 50.0,36.07678985595703 50.0,36.07678985595703 L 53.651065826416016,33.028324127197266 C 54.46635437011719,34.05630111694336 55.60066604614258,36.11223602294922 55.60066604614258,36.11223602294922 C 55.60066604614258,36.11223602294922 57.17806625366211,34.074012756347656 58.06424331665039,33.046058654785156 L 61.272220611572266,36.11223602294922 C 61.272220611572266,36.11223602294922 60.17039108276367,33.82440948486328 58.98701095581055,30.702739715576172 L 53.930904388427734,25.64663314819336 Z" style="fill-rule: evenodd; fill: rgb(38, 38, 38); stroke-width: 1px; stroke: none;"/>
<path clip-path="url(#contour)" comment="clipped pattern element 133.33333333333334, 27.77777777777778 clipped and transformed" d="M 146.16104125976562,25.5546875 L 143.6926727294922,28.023048400878906 L 141.2243194580078,30.491411209106445 C 140.0243682861328,33.70987319946289 138.88888549804688,36.07678985595703 138.88888549804688,36.07678985595703 L 142.5399627685547,33.028324127197266 C 143.35523986816406,34.05630111694336 144.48956298828125,36.11223602294922 144.48956298828125,36.11223602294922 C 144.48956298828125,36.11223602294922 146.06695556640625,34.074012756347656 146.95314025878906,33.046058654785156 L 150.16111755371094,36.11223602294922 C 150.16111755371094,36.11223602294922 147.67526245117188,30.95065689086914 146.16104125976562,25.5546875 Z" style="fill-rule: evenodd; fill: rgb(38, 38, 38); stroke-width: 1px; stroke: none;"/>
<path clip-path="url(#contour)" comment="clipped pattern element 155.55555555555557, 27.77777777777778 clipped and transformed" d="M 166.85231018066406,13.890010833740234 C 165.65093994140625,13.890010833740234 164.67588806152344,14.8650484085083 164.67588806152344,16.066438674926758 C 164.67588806152344,17.2678279876709 165.65093994140625,18.242870330810547 166.85231018066406,18.242870330810547 C 168.0537109375,18.242870330810547 169.02874755859375,17.2678279876709 169.02874755859375,16.066438674926758 C 169.02874755859375,14.8650484085083 168.0537109375,13.890010833740234 166.85231018066406,13.890010833740234 Z" style="fill-rule: evenodd; fill: rgb(38, 38, 38); stroke-width: 1px; stroke: none;"/>
<path clip-path="url(#contour)" comment="clipped pattern element 155.55555555555557, 27.77777777777778 clipped and transformed" d="M 163.71826171875,17.72052764892578 C 162.51686096191406,17.72052764892578 161.5418243408203,18.695568084716797 161.5418243408203,19.89695930480957 C 161.5418243408203,21.09834861755371 162.51686096191406,22.07339096069336 163.71826171875,22.07339096069336 C 164.91964721679688,22.07339096069336 165.89468383789062,21.09834861755371 165.89468383789062,19.89695930480957 C 165.89468383789062,18.695568084716797 164.91964721679688,17.72052764892578 163.71826171875,17.72052764892578 Z" style="fill-rule: evenodd; fill: rgb(38, 38, 38); stroke-width: 1px; stroke: none;"/>
<path clip-path="url(#contour)" comment="clipped pattern element 155.55555555555557, 27.77777777777778 clipped and transformed" d="M 169.9863739013672,17.72052764892578 C 168.78500366210938,17.72052764892578 167.80995178222656,18.695568084716797 167.80995178222656,19.89695930480957 C 167.80995178222656,21.09834861755371 168.78500366210938,22.07339096069336 169.9863739013672,22.07339096069336 C 171.18777465820312,22.07339096069336 172.16282653808594,21.09834861755371 172.16282653808594,19.89695930480957 C 172.16282653808594,18.695568084716797 171.18777465820312,17.72052764892578 169.9863739013672,17.72052764892578 Z" style="fill-rule: evenodd; fill: rgb(38, 38, 38); stroke-width: 1px; stroke: none;"/>
<path clip-path="url(#contour)" comment="clipped pattern element 155.55555555555557, 27.77777777777778 clipped and transformed" d="M 166.21551513671875,18.743101119995117 C 166.14462280273438,25.584413528442383 161.11111450195312,36.07678985595703 161.11111450195312,36.07678985595703 L 164.76217651367188,33.028324127197266 C 165.5774688720703,34.05630111694336 166.71177673339844,36.11223602294922 166.71177673339844,36.11223602294922 C 166.71177673339844,36.11223602294922 168.2891845703125,34.074012756347656 169.17535400390625,33.046058654785156 L 172.38333129882812,36.11223602294922 C 172.38333129882812,36.11223602294922 167.2789306640625,25.51352310180664 167.2434844970703,18.813997268676758 L 166.21551513671875,18.743101119995117 Z" style="fill-rule: evenodd; fill: rgb(38, 38, 38); stroke-width: 1px; stroke: none;"/>
<path clip-path="url(#contour)" comment="clipped pattern element 177.7777777777778, 27.77777777777778 clipped and transformed" d="M 189.0745391845703,13.890010833740234 C 187.87315368652344,13.890010833740234 186.8981170654297,14.8650484085083 186.8981170654297,16.066438674926758 C 186.8981170654297,17.2678279876709 187.87315368652344,18.242870330810547 189.0745391845703,18.242870330810547 C 190.27593994140625,18.242870330810547 191.2509765625,17.2678279876709 191.2509765625,16.066438674926758 C 191.2509765625,14.8650484085083 190.27593994140625,13.890010833740234 189.0745391845703,13.890010833740234 Z" style="fill-rule: evenodd; fill: rgb(38, 38, 38); stroke-width: 1px; stroke: none;"/>
<path clip-path="url(#contour)" comment="clipped pattern element 177.7777777777778, 27.77777777777778 clipped and transformed" d="M 185.94049072265625,17.72052764892578 C 184.7390899658203,17.72052764892578 183.7640380859375,18.695568084716797 183.7640380859375,19.89695930480957 C 183.7640380859375,21.09834861755371 184.7390899658203,22.07339096069336 185.94049072265625,22.07339096069336 C 187.14186096191406,22.07339096069336 188.11691284179688,21.09834861755371 188.11691284179688,19.89695930480957 C 188.11691284179688,18.695568084716797 187.14186096191406,17.72052764892578 185.94049072265625,17.72052764892578 Z" style="fill-rule: evenodd; fill: rgb(38, 38, 38); stroke-width: 1px; stroke: none;"/>
<path clip-path="url(#contour)" comment="clipped pattern element 177.7777777777778, 27.77777777777778 clipped and transformed" d="M 192.20860290527344,17.72052764892578 C 191.00721740722656,17.72052764892578 190.0321807861328,18.695568084716797 190.0321807861328,19.89695930480957 C 190.0321807861328,21.09834861755371 191.00721740722656,22.07339096069336 192.20860290527344,22.07339096069336 C 193.41000366210938,22.07339096069336 194.38504028320312,21.09834861755371 194.38504028320312,19.89695930480957 C 194.38504028320312,18.695568084716797 193.41000366210938,17.72052764892578 192.20860290527344,17.72052764892578 Z" style="fill-rule: evenodd; fill: rgb(38, 38, 38); stroke-width: 1px; stroke: none;"/>
<path clip-path="url(#contour)" comment="clipped pattern element 177.7777777777778, 27.77777777777778 clipped and transformed" d="M 188.43772888183594,18.743101119995117 C 188.36685180664062,25.584413528442383 183.3333282470703,36.07678985595703 183.3333282470703,36.07678985595703 L 186.98440551757812,33.028324127197266 C 187.7996826171875,34.05630111694336 188.9340057373047,36.11223602294922 188.9340057373047,36.11223602294922 C 188.9340057373047,36.11223602294922 190.5113983154297,34.074012756347656 191.3975830078125,33.046058654785156 L 193.36129760742188,34.9229736328125 L 193.84555053710938,34.438720703125 C 192.42172241210938,31.185497283935547 189.49253845214844,23.883453369140625 189.46571350097656,18.813997268676758 L 188.43772888183594,18.743101119995117 Z" style="fill-rule: evenodd; fill: rgb(38, 38, 38); stroke-width: 1px; stroke: none;"/>
<path clip-path="url(#contour)" comment="clipped pattern element 22.22222222222222, 55.55555555555556 clipped and transformed" d="M 22.407867431640625,41.667789459228516 C 21.20648956298828,41.667789459228516 20.2314453125,42.642826080322266 20.2314453125,43.844215393066406 C 20.2314453125,45.04560470581055 21.20648956298828,46.02064895629883 22.407867431640625,46.02064895629883 C 23.60926628112793,46.02064895629883 24.58431053161621,45.04560470581055 24.58431053161621,43.844215393066406 C 24.58431053161621,42.642826080322266 23.60926628112793,41.667789459228516 22.407867431640625,41.667789459228516 Z" style="fill-rule: evenodd; fill: rgb(38, 38, 38); stroke-width: 1px; stroke: none;"/>
<path clip-path="url(#contour)" comment="clipped pattern element 22.22222222222222, 55.55555555555556 clipped and transformed" d="M 19.273822784423828,45.49830627441406 C 18.702775955200195,45.49830627441406 18.1828670501709,45.71859359741211 17.79450035095215,46.07876968383789 L 20.86977767944336,49.154048919677734 C 21.229955673217773,48.765682220458984 21.450244903564453,48.24578094482422 21.450244903564453,47.67473602294922 C 21.450244903564453,46.47334671020508 20.475200653076172,45.49830627441406 19.273822784423828,45.49830627441406 Z" style="fill-rule: evenodd; fill: rgb(38, 38, 38); stroke-width: 1px; stroke: none;"/>
<path clip-path="url(#contour)" comment="clipped pattern element 22.22222222222222, 55.55555555555556 clipped and transformed" d="M 25.541933059692383,45.49830627441406 C 24.34055519104004,45.49830627441406 23.365510940551758,46.47334671020508 23.365510940551758,47.67473602294922 C 23.365510940551758,48.87612533569336 24.34055519104004,49.85116958618164 25.541933059692383,49.85116958618164 C 26.74333381652832,49.85116958618164 27.7183780670166,48.87612533569336 27.7183780670166,47.67473602294922 C 27.7183780670166,46.47334671020508 26.74333381652832,45.49830627441406 25.541933059692383,45.49830627441406 Z" style="fill-rule: evenodd; fill: rgb(38, 38, 38); stroke-width: 1px; stroke: none;"/>
<path clip-path="url(#contour)" comment="clipped pattern element 22.22222222222222, 55.55555555555556 clipped and transformed" d="M 21.771066665649414,46.520877838134766 C 21.76063346862793,47.52769088745117 21.64272117614746,48.61357879638672 21.449188232421875,49.73345947265625 L 23.5455379486084,51.82980728149414 C 23.10169792175293,49.993350982666016 22.80746078491211,48.18263244628906 22.79904556274414,46.591773986816406 L 21.771066665649414,46.520877838134766 Z" style="fill-rule: evenodd; fill: rgb(38, 38, 38); stroke-width: 1px; stroke: none;"/>
<path clip-path="url(#contour)" comment="clipped pattern element 44.44444444444444, 55.55555555555556 clipped and transformed" d="M 44.630088806152344,41.667789459228516 C 43.4287109375,41.667789459228516 42.45366668701172,42.642826080322266 42.45366668701172,43.844215393066406 C 42.45366668701172,45.04560470581055 43.4287109375,46.02064895629883 44.630088806152344,46.02064895629883 C 45.83148956298828,46.02064895629883 46.80653381347656,45.04560470581055 46.80653381347656,43.844215393066406 C 46.80653381347656,42.642826080322266 45.83148956298828,41.667789459228516 44.630088806152344,41.667789459228516 Z" style="fill-rule: evenodd; fill: rgb(38, 38, 38); stroke-width: 1px; stroke: none;"/>
<path clip-path="url(#contour)" comment="clipped pattern element 44.44444444444444, 55.55555555555556 clipped and transformed" d="M 41.49604415893555,45.49830627441406 C 40.29464340209961,45.49830627441406 39.31959915161133,46.47334671020508 39.31959915161133,47.67473602294922 C 39.31959915161133,48.87612533569336 40.29464340209961,49.85116958618164 41.49604415893555,49.85116958618164 C 42.69742202758789,49.85116958618164 43.67246627807617,48.87612533569336 43.67246627807617,47.67473602294922 C 43.67246627807617,46.47334671020508 42.69742202758789,45.49830627441406 41.49604415893555,45.49830627441406 Z" style="fill-rule: evenodd; fill: rgb(38, 38, 38); stroke-width: 1px; stroke: none;"/>
<path clip-path="url(#contour)" comment="clipped pattern element 44.44444444444444, 55.55555555555556 clipped and transformed" d="M 47.764156341552734,45.49830627441406 C 46.56277847290039,45.49830627441406 45.58773422241211,46.47334671020508 45.58773422241211,47.67473602294922 C 45.58773422241211,48.87612533569336 46.56277847290039,49.85116958618164 47.764156341552734,49.85116958618164 C 48.96555709838867,49.85116958618164 49.94060134887695,48.87612533569336 49.94060134887695,47.67473602294922 C 49.94060134887695,46.47334671020508 48.96555709838867,45.49830627441406 47.764156341552734,45.49830627441406 Z" style="fill-rule: evenodd; fill: rgb(38, 38, 38); stroke-width: 1px; stroke: none;"/>
<path clip-path="url(#contour)" comment="clipped pattern element 44.44444444444444, 55.55555555555556 clipped and transformed" d="M 43.993289947509766,46.520877838134766 C 43.922401428222656,53.36219024658203 38.88888931274414,63.85456848144531 38.88888931274414,63.85456848144531 L 42.539955139160156,60.80610275268555 C 43.35524368286133,61.83407974243164 44.48955535888672,63.8900146484375 44.48955535888672,63.8900146484375 C 44.48955535888672,63.8900146484375 46.06695556640625,61.85179138183594 46.95313262939453,60.82383728027344 L 50.161109924316406,63.8900146484375 C 50.161109924316406,63.8900146484375 45.05670928955078,53.29130172729492 45.02126693725586,46.591773986816406 L 43.993289947509766,46.520877838134766 Z" style="fill-rule: evenodd; fill: rgb(38, 38, 38); stroke-width: 1px; stroke: none;"/>
<path clip-path="url(#contour)" comment="clipped pattern element 66.66666666666666, 55.55555555555556 clipped and transformed" d="M 66.85231018066406,41.667789459228516 C 65.65093231201172,41.667789459228516 64.67588806152344,42.642826080322266 64.67588806152344,43.844215393066406 C 64.67588806152344,45.04560470581055 65.65093231201172,46.02064895629883 66.85231018066406,46.02064895629883 C 68.0537109375,46.02064895629883 69.02875518798828,45.04560470581055 69.02875518798828,43.844215393066406 C 69.02875518798828,42.642826080322266 68.0537109375,41.667789459228516 66.85231018066406,41.667789459228516 Z" style="fill-rule: evenodd; fill: rgb(38, 38, 38); stroke-width: 1px; stroke: none;"/>
<path clip-path="url(#contour)" comment="clipped pattern element 66.66666666666666, 55.55555555555556 clipped and transformed" d="M 63.718265533447266,45.49830627441406 C 62.516868591308594,45.49830627441406 61.54182434082031,46.47334671020508 61.54182434082031,47.67473602294922 C 61.54182434082031,48.87612533569336 62.516868591308594,49.85116958618164 63.718265533447266,49.85116958618164 C 64.91964721679688,49.85116958618164 65.89469146728516,48.87612533569336 65.89469146728516,47.67473602294922 C 65.89469146728516,46.47334671020508 64.91964721679688,45.49830627441406 63.718265533447266,45.49830627441406 Z" style="fill-rule: evenodd; fill: rgb(38, 38, 38); stroke-width: 1px; stroke: none;"/>
<path clip-path="url(#contour)" comment="clipped pattern element 66.66666666666666, 55.55555555555556 clipped and transformed" d="M 69.98638153076172,45.49830627441406 C 68.78500366210938,45.49830627441406 67.8099594116211,46.47334671020508 67.8099594116211,47.67473602294922 C 67.8099594116211,48.87612533569336 68.78500366210938,49.85116958618164 69.98638153076172,49.85116958618164 C 71.18777465820312,49.85116958618164 72.1628189086914,48.87612533569336 72.1628189086914,47.67473602294922 C 72.1628189086914,46.47334671020508 71.18777465820312,45.49830627441406 69.98638153076172,45.49830627441406 Z" style="fill-rule: evenodd; fill: rgb(38, 38, 38); stroke-width: 1px; stroke: none;"/>
<path clip-path="url(#contour)" comment="clipped pattern element 66.66666666666666, 55.55555555555556 clipped and transformed" d="M 66.21550750732422,46.520877838134766 C 66.14462280273438,53.36219024658203 61.11111068725586,63.85456848144531 61.11111068725586,63.85456848144531 L 64.76217651367188,60.80610275268555 C 65.57746887207031,61.83407974243164 66.71177673339844,63.8900146484375 66.71177673339844,63.8900146484375 C 66.71177673339844,63.8900146484375 68.28917694091797,61.85179138183594 69.17535400390625,60.82383728027344 L 72.38333129882812,63.8900146484375 C 72.38333129882812,63.8900146484375 67.2789306640625,53.29130172729492 67.24349212646484,46.591773986816406 L 66.21550750732422,46.520877838134766 Z" style="fill-rule: evenodd; fill: rgb(38, 38, 38); stroke-width: 1px; stroke: none;"/>
<path clip-path="url(#contour)" comment="clipped pattern element 88.88888888888889, 55.55555555555556 clipped and transformed" d="M 85.90652465820312,57.62225341796875 C 84.62339782714844,61.16542053222656 83.33333587646484,63.85456848144531 83.33333587646484,63.85456848144531 L 86.9843978881836,60.80610275268555 C 87.79969024658203,61.83407974243164 88.93399810791016,63.8900146484375 88.93399810791016,63.8900146484375 C 88.93399810791016,63.8900146484375 89.63361358642578,62.986019134521484 90.36273956298828,62.07847213745117 L 88.13463592529297,59.85036087036133 L 85.90652465820312,57.62225341796875 Z" style="fill-rule: evenodd; fill: rgb(38, 38, 38); stroke-width: 1px; stroke: none;"/>
<path clip-path="url(#contour)" comment="clipped pattern element 111.11111111111111, 55.55555555555556 clipped and transformed" d="M 114.18856048583984,57.52716827392578 L 109.9100112915039,61.80571746826172 C 110.55290222167969,62.7964973449707 111.15621948242188,63.8900146484375 111.15621948242188,63.8900146484375 C 111.15621948242188,63.8900146484375 112.7336196899414,61.85179138183594 113.61979675292969,60.82383728027344 L 116.82777404785156,63.8900146484375 C 116.82777404785156,63.8900146484375 115.4962158203125,61.125179290771484 114.18856048583984,57.52716827392578 Z" style="fill-rule: evenodd; fill: rgb(38, 38, 38); stroke-width: 1px; stroke: none;"/>
<path clip-path="url(#contour)" comment="clipped pattern element 133.33333333333334, 55.55555555555556 clipped and transformed" d="M 133.51898193359375,41.667789459228516 C 132.31759643554688,41.667789459228516 131.34255981445312,42.642826080322266 131.34255981445312,43.844215393066406 C 131.34255981445312,45.04560470581055 132.31759643554688,46.02064895629883 133.51898193359375,46.02064895629883 C 134.7203826904297,46.02064895629883 135.69541931152344,45.04560470581055 135.69541931152344,43.844215393066406 C 135.69541931152344,42.642826080322266 134.7203826904297,41.667789459228516 133.51898193359375,41.667789459228516 Z" style="fill-rule: evenodd; fill: rgb(38, 38, 38); stroke-width: 1px; stroke: none;"/>
<path clip-path="url(#contour)" comment="clipped pattern element 133.33333333333334, 55.55555555555556 clipped and transformed" d="M 130.3849334716797,45.49830627441406 C 129.18353271484375,45.49830627441406 128.20849609375,46.47334671020508 128.20849609375,47.67473602294922 C 128.20849609375,48.87612533569336 129.18353271484375,49.85116958618164 130.3849334716797,49.85116958618164 C 131.58631896972656,49.85116958618164 132.5613555908203,48.87612533569336 132.5613555908203,47.67473602294922 C 132.5613555908203,46.47334671020508 131.58631896972656,45.49830627441406 130.3849334716797,45.49830627441406 Z" style="fill-rule: evenodd; fill: rgb(38, 38, 38); stroke-width: 1px; stroke: none;"/>
<path clip-path="url(#contour)" comment="clipped pattern element 133.33333333333334, 55.55555555555556 clipped and transformed" d="M 136.65304565429688,45.49830627441406 C 135.45166015625,45.49830627441406 134.47662353515625,46.47334671020508 134.47662353515625,47.67473602294922 C 134.47662353515625,48.87612533569336 135.45166015625,49.85116958618164 136.65304565429688,49.85116958618164 C 137.8544464111328,49.85116958618164 138.82948303222656,48.87612533569336 138.82948303222656,47.67473602294922 C 138.82948303222656,46.47334671020508 137.8544464111328,45.49830627441406 136.65304565429688,45.49830627441406 Z" style="fill-rule: evenodd; fill: rgb(38, 38, 38); stroke-width: 1px; stroke: none;"/>
<path clip-path="url(#contour)" comment="clipped pattern element 133.33333333333334, 55.55555555555556 clipped and transformed" d="M 132.88217163085938,46.520877838134766 C 132.81129455566406,53.36219024658203 127.77777862548828,63.85456848144531 127.77777862548828,63.85456848144531 L 131.42884826660156,60.80610275268555 C 132.244140625,61.83407974243164 133.37844848632812,63.8900146484375 133.37844848632812,63.8900146484375 C 133.37844848632812,63.8900146484375 134.95584106445312,61.85179138183594 135.84202575683594,60.82383728027344 L 139.0500030517578,63.8900146484375 C 139.0500030517578,63.8900146484375 133.9456024169922,53.29130172729492 133.91015625,46.591773986816406 L 132.88217163085938,46.520877838134766 Z" style="fill-rule: evenodd; fill: rgb(38, 38, 38); stroke-width: 1px; stroke: none;"/>
<path clip-path="url(#contour)" comment="clipped pattern element 155.55555555555557, 55.55555555555556 clipped and transformed" d="M 155.74119567871094,41.667789459228516 C 154.53982543945312,41.667789459228516 153.5647735595703,42.642826080322266 153.5647735595703,43.844215393066406 C 153.5647735595703,45.04560470581055 154.53982543945312,46.02064895629883 155.74119567871094,46.02064895629883 C 156.94259643554688,46.02064895629883 157.9176483154297,45.04560470581055 157.9176483154297,43.844215393066406 C 157.9176483154297,42.642826080322266 156.94259643554688,41.667789459228516 155.74119567871094,41.667789459228516 Z" style="fill-rule: evenodd; fill: rgb(38, 38, 38); stroke-width: 1px; stroke: none;"/>
<path clip-path="url(#contour)" comment="clipped pattern element 155.55555555555557, 55.55555555555556 clipped and transformed" d="M 152.60716247558594,45.49830627441406 C 151.40576171875,45.49830627441406 150.4307098388672,46.47334671020508 150.4307098388672,47.67473602294922 C 150.4307098388672,48.87612533569336 151.40576171875,49.85116958618164 152.60716247558594,49.85116958618164 C 153.80853271484375,49.85116958618164 154.78358459472656,48.87612533569336 154.78358459472656,47.67473602294922 C 154.78358459472656,46.47334671020508 153.80853271484375,45.49830627441406 152.60716247558594,45.49830627441406 Z" style="fill-rule: evenodd; fill: rgb(38, 38, 38); stroke-width: 1px; stroke: none;"/>
<path clip-path="url(#contour)" comment="clipped pattern element 155.55555555555557, 55.55555555555556 clipped and transformed" d="M 158.87527465820312,45.49830627441406 C 157.67388916015625,45.49830627441406 156.6988525390625,46.47334671020508 156.6988525390625,47.67473602294922 C 156.6988525390625,48.87612533569336 157.67388916015625,49.85116958618164 158.87527465820312,49.85116958618164 C 160.07666015625,49.85116958618164 161.0517120361328,48.87612533569336 161.0517120361328,47.67473602294922 C 161.0517120361328,46.47334671020508 160.07666015625,45.49830627441406 158.87527465820312,45.49830627441406 Z" style="fill-rule: evenodd; fill: rgb(38, 38, 38); stroke-width: 1px; stroke: none;"/>
<path clip-path="url(#contour)" comment="clipped pattern element 155.55555555555557, 55.55555555555556 clipped and transformed" d="M 155.10440063476562,46.520877838134766 C 155.03350830078125,53.36219024658203 150.0,63.85456848144531 150.0,63.85456848144531 L 153.65106201171875,60.80610275268555 C 154.4663543701172,61.83407974243164 155.6006622314453,63.8900146484375 155.6006622314453,63.8900146484375 C 155.6006622314453,63.8900146484375 157.17807006835938,61.85179138183594 158.06423950195312,60.82383728027344 L 161.272216796875,63.8900146484375 C 161.272216796875,63.8900146484375 156.16781616210938,53.29130172729492 156.13238525390625,46.591773986816406 L 155.10440063476562,46.520877838134766 Z" style="fill-rule: evenodd; fill: rgb(38, 38, 38); stroke-width: 1px; stroke: none;"/>
<path clip-path="url(#contour)" comment="clipped pattern element 177.7777777777778, 55.55555555555556 clipped and transformed" d="M 177.9634246826172,41.667789459228516 C 176.7620391845703,41.667789459228516 175.78700256347656,42.642826080322266 175.78700256347656,43.844215393066406 C 175.78700256347656,45.04560470581055 176.7620391845703,46.02064895629883 177.9634246826172,46.02064895629883 C 179.16482543945312,46.02064895629883 180.13986206054688,45.04560470581055 180.13986206054688,43.844215393066406 C 180.13986206054688,42.642826080322266 179.16482543945312,41.667789459228516 177.9634246826172,41.667789459228516 Z" style="fill-rule: evenodd; fill: rgb(38, 38, 38); stroke-width: 1px; stroke: none;"/>
<path clip-path="url(#contour)" comment="clipped pattern element 177.7777777777778, 55.55555555555556 clipped and transformed" d="M 174.82937622070312,45.49830627441406 C 173.6279754638672,45.49830627441406 172.65293884277344,46.47334671020508 172.65293884277344,47.67473602294922 C 172.65293884277344,48.87612533569336 173.6279754638672,49.85116958618164 174.82937622070312,49.85116958618164 C 176.03076171875,49.85116958618164 177.00579833984375,48.87612533569336 177.00579833984375,47.67473602294922 C 177.00579833984375,46.47334671020508 176.03076171875,45.49830627441406 174.82937622070312,45.49830627441406 Z" style="fill-rule: evenodd; fill: rgb(38, 38, 38); stroke-width: 1px; stroke: none;"/>
<path clip-path="url(#contour)" comment="clipped pattern element 177.7777777777778, 55.55555555555556 clipped and transformed" d="M 181.0974884033203,45.49830627441406 C 179.8961181640625,45.49830627441406 178.9210662841797,46.47334671020508 178.9210662841797,47.67473602294922 C 178.9210662841797,48.150997161865234 179.0742950439453,48.59168243408203 179.3341064453125,48.950157165527344 L 181.3599853515625,46.924285888671875 L 182.3729248046875,45.91135025024414 C 182.0144500732422,45.65153503417969 181.57374572753906,45.49830627441406 181.0974884033203,45.49830627441406 Z" style="fill-rule: evenodd; fill: rgb(38, 38, 38); stroke-width: 1px; stroke: none;"/>
<path clip-path="url(#contour)" comment="clipped pattern element 177.7777777777778, 55.55555555555556 clipped and transformed" d="M 177.32662963867188,46.520877838134766 C 177.3102264404297,48.1035041809082 177.0282440185547,49.88151550292969 176.6044464111328,51.6798210144043 L 178.64675903320312,49.63751220703125 C 178.46670532226562,48.57137680053711 178.35963439941406,47.542327880859375 178.35459899902344,46.591773986816406 L 177.32662963867188,46.520877838134766 Z" style="fill-rule: evenodd; fill: rgb(38, 38, 38); stroke-width: 1px; stroke: none;"/>
<path clip-path="url(#contour)" comment="clipped pattern element 44.44444444444444, 83.33333333333334 clipped and transformed" d="M 55.7411994934082,69.44556427001953 C 54.53982162475586,69.44556427001953 53.56477737426758,70.42060089111328 53.56477737426758,71.62199401855469 C 53.56477737426758,72.8233871459961 54.53982162475586,73.79842376708984 55.7411994934082,73.79842376708984 C 56.94260025024414,73.79842376708984 57.91764450073242,72.8233871459961 57.91764450073242,71.62199401855469 C 57.91764450073242,70.42060089111328 56.94260025024414,69.44556427001953 55.7411994934082,69.44556427001953 Z" style="fill-rule: evenodd; fill: rgb(38, 38, 38); stroke-width: 1px; stroke: none;"/>
<path clip-path="url(#contour)" comment="clipped pattern element 44.44444444444444, 83.33333333333334 clipped and transformed" d="M 52.607154846191406,73.27608489990234 C 51.40575408935547,73.27608489990234 50.43070983886719,74.2511215209961 50.43070983886719,75.4525146484375 C 50.43070983886719,76.65390014648438 51.40575408935547,77.62894439697266 52.607154846191406,77.62894439697266 C 53.80853271484375,77.62894439697266 54.78357696533203,76.65390014648438 54.78357696533203,75.4525146484375 C 54.78357696533203,74.2511215209961 53.80853271484375,73.27608489990234 52.607154846191406,73.27608489990234 Z" style="fill-rule: evenodd; fill: rgb(38, 38, 38); stroke-width: 1px; stroke: none;"/>
<path clip-path="url(#contour)" comment="clipped pattern element 44.44444444444444, 83.33333333333334 clipped and transformed" d="M 58.875267028808594,73.27608489990234 C 57.67388916015625,73.27608489990234 56.69884490966797,74.2511215209961 56.69884490966797,75.4525146484375 C 56.69884490966797,76.65390014648438 57.67388916015625,77.62894439697266 58.875267028808594,77.62894439697266 C 60.07666778564453,77.62894439697266 61.05171203613281,76.65390014648438 61.05171203613281,75.4525146484375 C 61.05171203613281,74.2511215209961 60.07666778564453,73.27608489990234 58.875267028808594,73.27608489990234 Z" style="fill-rule: evenodd; fill: rgb(38, 38, 38); stroke-width: 1px; stroke: none;"/>
<path clip-path="url(#contour)" comment="clipped pattern element 44.44444444444444, 83.33333333333334 clipped and transformed" d="M 55.104400634765625,74.29866027832031 C 55.08029556274414,76.62496185302734 54.482383728027344,79.37342071533203 53.70368576049805,81.98796081542969 L 56.67218017578125,84.95645141601562 L 59.64066696166992,87.92493438720703 C 58.14375686645508,84.22999572753906 56.154457092285156,78.54315948486328 56.13237762451172,74.36955261230469 L 55.104400634765625,74.29866027832031 Z M 59.64066696166992,87.92493438720703 L 59.64067077636719,87.92493438720703 C 59.64067077636719,87.92493438720703 59.64066696166992,87.92493438720703 59.64066696166992,87.92493438720703 Z M 59.64067077636719,87.92493438720703 C 59.64067077636719,87.92494201660156 59.64067077636719,87.92494201660156 59.64067077636719,87.92494201660156 L 59.64067459106445,87.92494201660156 L 59.64067077636719,87.92493438720703 Z" style="fill-rule: evenodd; fill: rgb(38, 38, 38); stroke-width: 1px; stroke: none;"/>
<path clip-path="url(#contour)" comment="clipped pattern element 44.44444444444444, 83.33333333333334 clipped and transformed" d="M 55.104400634765625,74.29866027832031 C 55.08029556274414,76.62496185302734 54.482383728027344,79.37342071533203 53.70368576049805,81.98796081542969 L 56.67218017578125,84.95645141601562 L 59.64066696166992,87.92493438720703 C 58.14375686645508,84.22999572753906 56.154457092285156,78.54315948486328 56.13237762451172,74.36955261230469 L 55.104400634765625,74.29866027832031 Z M 59.64066696166992,87.92493438720703 L 59.64067077636719,87.92493438720703 C 59.64067077636719,87.92493438720703 59.64066696166992,87.92493438720703 59.64066696166992,87.92493438720703 Z M 59.64067077636719,87.92493438720703 C 59.64067077636719,87.92494201660156 59.64067077636719,87.92494201660156 59.64067077636719,87.92494201660156 L 59.64067459106445,87.92494201660156 L 59.64067077636719,87.92493438720703 Z" style="fill-rule: evenodd; fill: rgb(38, 38, 38); stroke-width: 1px; stroke: none;"/>
<path clip-path="url(#contour)" comment="clipped pattern element 44.44444444444444, 83.33333333333334 clipped and transformed" d="M 55.104400634765625,74.29866027832031 C 55.08029556274414,76.62496185302734 54.482383728027344,79.37342071533203 53.70368576049805,81.98796081542969 L 56.67218017578125,84.95645141601562 L 59.64066696166992,87.92493438720703 C 58.14375686645508,84.22999572753906 56.154457092285156,78.54315948486328 56.13237762451172,74.36955261230469 L 55.104400634765625,74.29866027832031 Z M 59.64066696166992,87.92493438720703 L 59.64067077636719,87.92493438720703 C 59.64067077636719,87.92493438720703 59.64066696166992,87.92493438720703 59.64066696166992,87.92493438720703 Z M 59.64067077636719,87.92493438720703 C 59.64067077636719,87.92494201660156 59.64067077636719,87.92494201660156 59.64067077636719,87.92494201660156 L 59.64067459106445,87.92494201660156 L 59.64067077636719,87.92493438720703 Z" style="fill-rule: evenodd; fill: rgb(38, 38, 38); stroke-width: 1px; stroke: none;"/>
<path clip-path="url(#contour)" comment="clipped pattern element 66.66666666666666, 83.33333333333334 clipped and transformed" d="M 77.96342468261719,69.44556427001953 C 76.76204681396484,69.44556427001953 75.78700256347656,70.42060089111328 75.78700256347656,71.62199401855469 C 75.78700256347656,72.8233871459961 76.76204681396484,73.79842376708984 77.96342468261719,73.79842376708984 C 79.16482543945312,73.79842376708984 80.1398696899414,72.8233871459961 80.1398696899414,71.62199401855469 C 80.1398696899414,70.42060089111328 79.16482543945312,69.44556427001953 77.96342468261719,69.44556427001953 Z" style="fill-rule: evenodd; fill: rgb(38, 38, 38); stroke-width: 1px; stroke: none;"/>
<path clip-path="url(#contour)" comment="clipped pattern element 66.66666666666666, 83.33333333333334 clipped and transformed" d="M 74.82937622070312,73.27608489990234 C 73.62797546386719,73.27608489990234 72.6529312133789,74.2511215209961 72.6529312133789,75.4525146484375 C 72.6529312133789,76.65390014648438 73.62797546386719,77.62894439697266 74.82937622070312,77.62894439697266 C 76.03075408935547,77.62894439697266 77.00579833984375,76.65390014648438 77.00579833984375,75.4525146484375 C 77.00579833984375,74.2511215209961 76.03075408935547,73.27608489990234 74.82937622070312,73.27608489990234 Z" style="fill-rule: evenodd; fill: rgb(38, 38, 38); stroke-width: 1px; stroke: none;"/>
<path clip-path="url(#contour)" comment="clipped pattern element 66.66666666666666, 83.33333333333334 clipped and transformed" d="M 81.09748840332031,73.27608489990234 C 79.89611053466797,73.27608489990234 78.92106628417969,74.2511215209961 78.92106628417969,75.4525146484375 C 78.92106628417969,76.65390014648438 79.89611053466797,77.62894439697266 81.09748840332031,77.62894439697266 C 82.29888916015625,77.62894439697266 83.27393341064453,76.65390014648438 83.27393341064453,75.4525146484375 C 83.27393341064453,74.2511215209961 82.29888916015625,73.27608489990234 81.09748840332031,73.27608489990234 Z" style="fill-rule: evenodd; fill: rgb(38, 38, 38); stroke-width: 1px; stroke: none;"/>
<path clip-path="url(#contour)" comment="clipped pattern element 66.66666666666666, 83.33333333333334 clipped and transformed" d="M 77.32662200927734,74.29866027832031 C 77.25572967529297,81.13996887207031 72.22222137451172,91.6323471069336 72.22222137451172,91.6323471069336 L 75.873291015625,88.58387756347656 C 76.6885757446289,89.61185455322266 77.82289123535156,91.66779327392578 77.82289123535156,91.66779327392578 C 77.82289123535156,91.66779327392578 79.4002914428711,89.62957000732422 80.28646850585938,88.60161590576172 L 83.49444580078125,91.66779327392578 C 83.49444580078125,91.66779327392578 78.39004516601562,81.06907653808594 78.35459899902344,74.36955261230469 L 77.32662200927734,74.29866027832031 Z" style="fill-rule: evenodd; fill: rgb(38, 38, 38); stroke-width: 1px; stroke: none;"/>
<path clip-path="url(#contour)" comment="clipped pattern element 88.88888888888889, 83.33333333333334 clipped and transformed" d="M 101.67774963378906,70.03797912597656 L 100.0,71.71572875976562 L 98.51353454589844,70.22926330566406 C 98.1987075805664,70.60675811767578 98.00922393798828,71.0923843383789 98.00922393798828,71.62199401855469 C 98.00922393798828,72.8233871459961 98.98426818847656,73.79842376708984 100.1856460571289,73.79842376708984 C 101.38704681396484,73.79842376708984 102.36209106445312,72.8233871459961 102.36209106445312,71.62199401855469 C 102.36209106445312,70.99793243408203 102.0989990234375,70.43495178222656 101.67774963378906,70.03797912597656 Z" style="fill-rule: evenodd; fill: rgb(38, 38, 38); stroke-width: 1px; stroke: none;"/>
<path clip-path="url(#contour)" comment="clipped pattern element 88.88888888888889, 83.33333333333334 clipped and transformed" d="M 97.05159759521484,73.27608489990234 C 95.8501968383789,73.27608489990234 94.87515258789062,74.2511215209961 94.87515258789062,75.4525146484375 C 94.87515258789062,76.65390014648438 95.8501968383789,77.62894439697266 97.05159759521484,77.62894439697266 C 98.25297546386719,77.62894439697266 99.22801971435547,76.65390014648438 99.22801971435547,75.4525146484375 C 99.22801971435547,74.2511215209961 98.25297546386719,73.27608489990234 97.05159759521484,73.27608489990234 Z" style="fill-rule: evenodd; fill: rgb(38, 38, 38); stroke-width: 1px; stroke: none;"/>
<path clip-path="url(#contour)" comment="clipped pattern element 88.88888888888889, 83.33333333333334 clipped and transformed" d="M 103.31970977783203,73.27608489990234 C 102.11833190917969,73.27608489990234 101.1432876586914,74.2511215209961 101.1432876586914,75.4525146484375 C 101.1432876586914,76.65390014648438 102.11833190917969,77.62894439697266 103.31970977783203,77.62894439697266 C 104.52111053466797,77.62894439697266 105.49615478515625,76.65390014648438 105.49615478515625,75.4525146484375 C 105.49615478515625,74.2511215209961 104.52111053466797,73.27608489990234 103.31970977783203,73.27608489990234 Z" style="fill-rule: evenodd; fill: rgb(38, 38, 38); stroke-width: 1px; stroke: none;"/>
<path clip-path="url(#contour)" comment="clipped pattern element 88.88888888888889, 83.33333333333334 clipped and transformed" d="M 99.54884338378906,74.29866027832031 C 99.47795867919922,81.13996887207031 94.44444274902344,91.6323471069336 94.44444274902344,91.6323471069336 L 98.09551239013672,88.58387756347656 C 98.91079711914062,89.61185455322266 100.04511260986328,91.66779327392578 100.04511260986328,91.66779327392578 C 100.04511260986328,91.66779327392578 101.62251281738281,89.62957000732422 102.5086898803711,88.60161590576172 L 105.71666717529297,91.66779327392578 C 105.71666717529297,91.66779327392578 100.61226654052734,81.06907653808594 100.57682037353516,74.36955261230469 L 99.54884338378906,74.29866027832031 Z" style="fill-rule: evenodd; fill: rgb(38, 38, 38); stroke-width: 1px; stroke: none;"/>
<path clip-path="url(#contour)" comment="clipped pattern element 111.11111111111111, 83.33333333333334 clipped and transformed" d="M 122.40786743164062,69.44556427001953 C 121.20648956298828,69.44556427001953 120.2314453125,70.42060089111328 120.2314453125,71.62199401855469 C 120.2314453125,72.8233871459961 121.20648956298828,73.79842376708984 122.40786743164062,73.79842376708984 C 123.60926818847656,73.79842376708984 124.58431243896484,72.8233871459961 124.58431243896484,71.62199401855469 C 124.58431243896484,70.42060089111328 123.60926818847656,69.44556427001953 122.40786743164062,69.44556427001953 Z" style="fill-rule: evenodd; fill: rgb(38, 38, 38); stroke-width: 1px; stroke: none;"/>
<path clip-path="url(#contour)" comment="clipped pattern element 111.11111111111111, 83.33333333333334 clipped and transformed" d="M 119.27381896972656,73.27608489990234 C 118.07242584228516,73.27608489990234 117.09738159179688,74.2511215209961 117.09738159179688,75.4525146484375 C 117.09738159179688,76.65390014648438 118.07242584228516,77.62894439697266 119.27381896972656,77.62894439697266 C 120.4751968383789,77.62894439697266 121.45024108886719,76.65390014648438 121.45024108886719,75.4525146484375 C 121.45024108886719,74.2511215209961 120.4751968383789,73.27608489990234 119.27381896972656,73.27608489990234 Z" style="fill-rule: evenodd; fill: rgb(38, 38, 38); stroke-width: 1px; stroke: none;"/>
<path clip-path="url(#contour)" comment="clipped pattern element 111.11111111111111, 83.33333333333334 clipped and transformed" d="M 125.54193115234375,73.27608489990234 C 124.3405532836914,73.27608489990234 123.36550903320312,74.2511215209961 123.36550903320312,75.4525146484375 C 123.36550903320312,76.65390014648438 124.3405532836914,77.62894439697266 125.54193115234375,77.62894439697266 C 126.74333190917969,77.62894439697266 127.71837615966797,76.65390014648438 127.71837615966797,75.4525146484375 C 127.71837615966797,74.2511215209961 126.74333190917969,73.27608489990234 125.54193115234375,73.27608489990234 Z" style="fill-rule: evenodd; fill: rgb(38, 38, 38); stroke-width: 1px; stroke: none;"/>
<path clip-path="url(#contour)" comment="clipped pattern element 111.11111111111111, 83.33333333333334 clipped and transformed" d="M 121.77106475830078,74.29866027832031 C 121.70018005371094,81.13996887207031 116.66666412353516,91.6323471069336 116.66666412353516,91.6323471069336 L 120.31773376464844,88.58387756347656 C 121.13302612304688,89.61185455322266 122.267333984375,91.66779327392578 122.267333984375,91.66779327392578 C 122.267333984375,91.66779327392578 123.84473419189453,89.62957000732422 124.73091125488281,88.60161590576172 L 127.93888854980469,91.66779327392578 C 127.93888854980469,91.66779327392578 122.83448791503906,81.06907653808594 122.79904174804688,74.36955261230469 L 121.77106475830078,74.29866027832031 Z" style="fill-rule: evenodd; fill: rgb(38, 38, 38); stroke-width: 1px; stroke: none;"/>
<path clip-path="url(#contour)" comment="clipped pattern element 133.33333333333334, 83.33333333333334 clipped and transformed" d="M 144.63009643554688,69.44556427001953 C 143.4287109375,69.44556427001953 142.45367431640625,70.42060089111328 142.45367431640625,71.62199401855469 C 142.45367431640625,72.8233871459961 143.4287109375,73.79842376708984 144.63009643554688,73.79842376708984 C 145.83148193359375,73.79842376708984 146.80653381347656,72.8233871459961 146.80653381347656,71.62199401855469 C 146.80653381347656,70.42060089111328 145.83148193359375,69.44556427001953 144.63009643554688,69.44556427001953 Z" style="fill-rule: evenodd; fill: rgb(38, 38, 38); stroke-width: 1px; stroke: none;"/>
<path clip-path="url(#contour)" comment="clipped pattern element 133.33333333333334, 83.33333333333334 clipped and transformed" d="M 141.4960479736328,73.27608489990234 C 140.29464721679688,73.27608489990234 139.31959533691406,74.2511215209961 139.31959533691406,75.4525146484375 C 139.31959533691406,76.65390014648438 140.29464721679688,77.62894439697266 141.4960479736328,77.62894439697266 C 142.69741821289062,77.62894439697266 143.67247009277344,76.65390014648438 143.67247009277344,75.4525146484375 C 143.67247009277344,74.2511215209961 142.69741821289062,73.27608489990234 141.4960479736328,73.27608489990234 Z" style="fill-rule: evenodd; fill: rgb(38, 38, 38); stroke-width: 1px; stroke: none;"/>
<path clip-path="url(#contour)" comment="clipped pattern element 133.33333333333334, 83.33333333333334 clipped and transformed" d="M 147.76416015625,73.27608489990234 C 146.56277465820312,73.27608489990234 145.58773803710938,74.2511215209961 145.58773803710938,75.4525146484375 C 145.58773803710938,76.65390014648438 146.56277465820312,77.62894439697266 147.76416015625,77.62894439697266 C 148.96556091308594,77.62894439697266 149.9405975341797,76.65390014648438 149.9405975341797,75.4525146484375 C 149.9405975341797,74.2511215209961 148.96556091308594,73.27608489990234 147.76416015625,73.27608489990234 Z" style="fill-rule: evenodd; fill: rgb(38, 38, 38); stroke-width: 1px; stroke: none;"/>
<path clip-path="url(#contour)" comment="clipped pattern element 133.33333333333334, 83.33333333333334 clipped and transformed" d="M 143.9932861328125,74.29866027832031 C 143.9499969482422,78.4768295288086 142.0557098388672,84.01679992675781 140.5874786376953,87.69679260253906 L 146.38858032226562,81.89568328857422 C 145.61770629882812,79.31346893310547 145.03317260742188,76.62127685546875 145.02127075195312,74.36955261230469 L 143.9932861328125,74.29866027832031 Z" style="fill-rule: evenodd; fill: rgb(38, 38, 38); stroke-width: 1px; stroke: none;"/>
<path clip-path="url(#contour)" comment="clipped pattern element 66.66666666666666, 111.11111111111111 clipped and transformed" d="M 70.5798568725586,101.13587188720703 L 67.89196014404297,103.82376861572266 C 68.15050506591797,104.73700714111328 68.99071502685547,105.40672302246094 69.98638153076172,105.40672302246094 C 71.18777465820312,105.40672302246094 72.1628189086914,104.43167877197266 72.1628189086914,103.23029327392578 C 72.1628189086914,102.234619140625 71.49310302734375,101.39441680908203 70.57986450195312,101.13587188720703 L 70.5798568725586,101.13587188720703 Z" style="fill-rule: evenodd; fill: rgb(38, 38, 38); stroke-width: 1px; stroke: none;"/>
<path clip-path="url(#contour)" comment="clipped pattern element 66.66666666666666, 111.11111111111111 clipped and transformed" d="M 67.40294647216797,104.31278228759766 L 65.77299499511719,105.94273376464844 L 65.77300262451172,105.94273376464844 C 64.53165435791016,112.27998352050781 61.11111068725586,119.41012573242188 61.11111068725586,119.41012573242188 L 64.76217651367188,116.36165618896484 C 65.57746887207031,117.38963317871094 66.71177673339844,119.44557189941406 66.71177673339844,119.44557189941406 C 66.71177673339844,119.44557189941406 68.28917694091797,117.4073486328125 69.17535400390625,116.37939453125 L 72.38333129882812,119.44557189941406 C 72.38333129882812,119.44557189941406 68.27090454101562,110.90657043457031 67.40294647216797,104.31278228759766 Z" style="fill-rule: evenodd; fill: rgb(38, 38, 38); stroke-width: 1px; stroke: none;"/>
<path clip-path="url(#contour)" comment="clipped pattern element 88.88888888888889, 111.11111111111111 clipped and transformed" d="M 89.07453155517578,97.22334289550781 C 87.87315368652344,97.22334289550781 86.89810943603516,98.19837951660156 86.89810943603516,99.39977264404297 C 86.89810943603516,100.60115814208984 87.87315368652344,101.57620239257812 89.07453155517578,101.57620239257812 C 90.27593231201172,101.57620239257812 91.2509765625,100.60115814208984 91.2509765625,99.39977264404297 C 91.2509765625,98.19837951660156 90.27593231201172,97.22334289550781 89.07453155517578,97.22334289550781 Z" style="fill-rule: evenodd; fill: rgb(38, 38, 38); stroke-width: 1px; stroke: none;"/>
<path clip-path="url(#contour)" comment="clipped pattern element 88.88888888888889, 111.11111111111111 clipped and transformed" d="M 85.94049072265625,101.05386352539062 C 84.73908996582031,101.05386352539062 83.76404571533203,102.02890014648438 83.76404571533203,103.23029327392578 C 83.76404571533203,104.43167877197266 84.73908996582031,105.40672302246094 85.94049072265625,105.40672302246094 C 87.1418685913086,105.40672302246094 88.11691284179688,104.43167877197266 88.11691284179688,103.23029327392578 C 88.11691284179688,102.02890014648438 87.1418685913086,101.05386352539062 85.94049072265625,101.05386352539062 Z" style="fill-rule: evenodd; fill: rgb(38, 38, 38); stroke-width: 1px; stroke: none;"/>
<path clip-path="url(#contour)" comment="clipped pattern element 88.88888888888889, 111.11111111111111 clipped and transformed" d="M 92.20860290527344,101.05386352539062 C 91.0072250366211,101.05386352539062 90.03218078613281,102.02890014648438 90.03218078613281,103.23029327392578 C 90.03218078613281,104.43167877197266 91.0072250366211,105.40672302246094 92.20860290527344,105.40672302246094 C 93.41000366210938,105.40672302246094 94.38504791259766,104.43167877197266 94.38504791259766,103.23029327392578 C 94.38504791259766,102.02890014648438 93.41000366210938,101.05386352539062 92.20860290527344,101.05386352539062 Z" style="fill-rule: evenodd; fill: rgb(38, 38, 38); stroke-width: 1px; stroke: none;"/>
<path clip-path="url(#contour)" comment="clipped pattern element 88.88888888888889, 111.11111111111111 clipped and transformed" d="M 88.43773651123047,102.07643127441406 C 88.3668441772461,108.9177474975586 83.33333587646484,119.41012573242188 83.33333587646484,119.41012573242188 L 86.9843978881836,116.36165618896484 C 87.79969024658203,117.38963317871094 88.93399810791016,119.44557189941406 88.93399810791016,119.44557189941406 C 88.93399810791016,119.44557189941406 90.51139831542969,117.4073486328125 91.39757537841797,116.37939453125 L 94.60555267333984,119.44557189941406 C 94.60555267333984,119.44557189941406 89.50115203857422,108.84685516357422 89.46571350097656,102.14733123779297 L 88.43773651123047,102.07643127441406 Z" style="fill-rule: evenodd; fill: rgb(38, 38, 38); stroke-width: 1px; stroke: none;"/>
<path clip-path="url(#contour)" comment="clipped pattern element 111.11111111111111, 111.11111111111111 clipped and transformed" d="M 111.2967529296875,97.22334289550781 C 110.09537506103516,97.22334289550781 109.12033081054688,98.19837951660156 109.12033081054688,99.39977264404297 C 109.12033081054688,100.60115814208984 110.09537506103516,101.57620239257812 111.2967529296875,101.57620239257812 C 112.49815368652344,101.57620239257812 113.47319793701172,100.60115814208984 113.47319793701172,99.39977264404297 C 113.47319793701172,98.19837951660156 112.49815368652344,97.22334289550781 111.2967529296875,97.22334289550781 Z" style="fill-rule: evenodd; fill: rgb(38, 38, 38); stroke-width: 1px; stroke: none;"/>
<path clip-path="url(#contour)" comment="clipped pattern element 111.11111111111111, 111.11111111111111 clipped and transformed" d="M 108.16271209716797,101.05386352539062 C 106.96131134033203,101.05386352539062 105.98626708984375,102.02890014648438 105.98626708984375,103.23029327392578 C 105.98626708984375,104.43167877197266 106.96131134033203,105.40672302246094 108.16271209716797,105.40672302246094 C 109.36408996582031,105.40672302246094 110.3391342163086,104.43167877197266 110.3391342163086,103.23029327392578 C 110.3391342163086,102.02890014648438 109.36408996582031,101.05386352539062 108.16271209716797,101.05386352539062 Z" style="fill-rule: evenodd; fill: rgb(38, 38, 38); stroke-width: 1px; stroke: none;"/>
<path clip-path="url(#contour)" comment="clipped pattern element 111.11111111111111, 111.11111111111111 clipped and transformed" d="M 114.43082427978516,101.05386352539062 C 113.22944641113281,101.05386352539062 112.25440216064453,102.02890014648438 112.25440216064453,103.23029327392578 C 112.25440216064453,104.43167877197266 113.22944641113281,105.40672302246094 114.43082427978516,105.40672302246094 C 115.6322250366211,105.40672302246094 116.60726928710938,104.43167877197266 116.60726928710938,103.23029327392578 C 116.60726928710938,102.02890014648438 115.6322250366211,101.05386352539062 114.43082427978516,101.05386352539062 Z" style="fill-rule: evenodd; fill: rgb(38, 38, 38); stroke-width: 1px; stroke: none;"/>
<path clip-path="url(#contour)" comment="clipped pattern element 111.11111111111111, 111.11111111111111 clipped and transformed" d="M 110.65995788574219,102.07643127441406 C 110.58906555175781,108.9177474975586 105.55555725097656,119.41012573242188 105.55555725097656,119.41012573242188 L 109.20661926269531,116.36165618896484 C 110.02191162109375,117.38963317871094 111.15621948242188,119.44557189941406 111.15621948242188,119.44557189941406 C 111.15621948242188,119.44557189941406 112.7336196899414,117.4073486328125 113.61979675292969,116.37939453125 L 116.82777404785156,119.44557189941406 C 116.82777404785156,119.44557189941406 111.72338104248047,108.84685516357422 111.68793487548828,102.14733123779297 L 110.65995788574219,102.07643127441406 Z" style="fill-rule: evenodd; fill: rgb(38, 38, 38); stroke-width: 1px; stroke: none;"/>
<path clip-path="url(#contour)" comment="clipped pattern element 133.33333333333334, 111.11111111111111 clipped and transformed" d="M 129.5178985595703,101.2336196899414 C 128.74754333496094,101.56886291503906 128.20849609375,102.3370132446289 128.20849609375,103.23029327392578 C 128.20849609375,104.43167877197266 129.18353271484375,105.40672302246094 130.3849334716797,105.40672302246094 C 131.27821350097656,105.40672302246094 132.04635620117188,104.86766815185547 132.381591796875,104.09732055664062 L 129.5178985595703,101.2336196899414 Z" style="fill-rule: evenodd; fill: rgb(38, 38, 38); stroke-width: 1px; stroke: none;"/>
<path clip-path="url(#contour)" comment="clipped pattern element 133.33333333333334, 111.11111111111111 clipped and transformed" d="M 132.6968231201172,104.41255950927734 C 131.77891540527344,111.06973266601562 127.77777862548828,119.41012573242188 127.77777862548828,119.41012573242188 L 131.42884826660156,116.36165618896484 C 132.244140625,117.38963317871094 133.37844848632812,119.44557189941406 133.37844848632812,119.44557189941406 C 133.37844848632812,119.44557189941406 134.95584106445312,117.4073486328125 135.84202575683594,116.37939453125 L 139.0500030517578,119.44557189941406 C 139.0500030517578,119.44557189941406 135.62643432617188,112.3369140625 134.36741638183594,106.08314514160156 L 133.53211975097656,105.24784851074219 L 132.6968231201172,104.41255950927734 Z" style="fill-rule: evenodd; fill: rgb(38, 38, 38); stroke-width: 1px; stroke: none;"/>
<path clip-path="url(#contour)" comment="clipped pattern element 22.22222222222222, 138.88888888888889 clipped and transformed" d="M 35.049930572509766,136.66580200195312 L 30.11320686340332,141.60252380371094 C 28.913259506225586,144.82098388671875 27.77777862548828,147.18789672851562 27.77777862548828,147.18789672851562 L 31.428844451904297,144.13943481445312 C 32.24413299560547,145.16741943359375 33.37844467163086,147.2233428955078 33.37844467163086,147.2233428955078 C 33.37844467163086,147.2233428955078 34.95584487915039,145.18511962890625 35.84202194213867,144.15716552734375 L 39.04999923706055,147.2233428955078 C 39.04999923706055,147.2233428955078 36.564151763916016,142.061767578125 35.049930572509766,136.66580200195312 Z" style="fill-rule: evenodd; fill: rgb(38, 38, 38); stroke-width: 1px; stroke: none;"/>
<path clip-path="url(#contour)" comment="clipped pattern element 44.44444444444444, 138.88888888888889 clipped and transformed" d="M 55.7411994934082,125.0011215209961 C 54.53982162475586,125.0011215209961 53.56477737426758,125.97615814208984 53.56477737426758,127.17755126953125 C 53.56477737426758,128.37893676757812 54.53982162475586,129.35398864746094 55.7411994934082,129.35398864746094 C 56.94260025024414,129.35398864746094 57.91764450073242,128.37893676757812 57.91764450073242,127.17755126953125 C 57.91764450073242,125.97615814208984 56.94260025024414,125.0011215209961 55.7411994934082,125.0011215209961 Z" style="fill-rule: evenodd; fill: rgb(38, 38, 38); stroke-width: 1px; stroke: none;"/>
<path clip-path="url(#contour)" comment="clipped pattern element 44.44444444444444, 138.88888888888889 clipped and transformed" d="M 52.607154846191406,128.83163452148438 C 51.40575408935547,128.83163452148438 50.43070983886719,129.8066864013672 50.43070983886719,131.00807189941406 C 50.43070983886719,132.20945739746094 51.40575408935547,133.18450927734375 52.607154846191406,133.18450927734375 C 53.80853271484375,133.18450927734375 54.78357696533203,132.20945739746094 54.78357696533203,131.00807189941406 C 54.78357696533203,129.8066864013672 53.80853271484375,128.83163452148438 52.607154846191406,128.83163452148438 Z" style="fill-rule: evenodd; fill: rgb(38, 38, 38); stroke-width: 1px; stroke: none;"/>
<path clip-path="url(#contour)" comment="clipped pattern element 44.44444444444444, 138.88888888888889 clipped and transformed" d="M 58.875267028808594,128.83163452148438 C 57.67388916015625,128.83163452148438 56.69884490966797,129.8066864013672 56.69884490966797,131.00807189941406 C 56.69884490966797,132.20945739746094 57.67388916015625,133.18450927734375 58.875267028808594,133.18450927734375 C 60.07666778564453,133.18450927734375 61.05171203613281,132.20945739746094 61.05171203613281,131.00807189941406 C 61.05171203613281,129.8066864013672 60.07666778564453,128.83163452148438 58.875267028808594,128.83163452148438 Z" style="fill-rule: evenodd; fill: rgb(38, 38, 38); stroke-width: 1px; stroke: none;"/>
<path clip-path="url(#contour)" comment="clipped pattern element 44.44444444444444, 138.88888888888889 clipped and transformed" d="M 55.104400634765625,129.85421752929688 C 55.033512115478516,136.69552612304688 50.0,147.18789672851562 50.0,147.18789672851562 L 53.651065826416016,144.13943481445312 C 54.46635437011719,145.16741943359375 55.60066604614258,147.2233428955078 55.60066604614258,147.2233428955078 C 55.60066604614258,147.2233428955078 57.17806625366211,145.18511962890625 58.06424331665039,144.15716552734375 L 61.272220611572266,147.2233428955078 C 61.272220611572266,147.2233428955078 56.167823791503906,136.6246337890625 56.13237762451172,129.92510986328125 L 55.104400634765625,129.85421752929688 Z" style="fill-rule: evenodd; fill: rgb(38, 38, 38); stroke-width: 1px; stroke: none;"/>
<path clip-path="url(#contour)" comment="clipped pattern element 66.66666666666666, 138.88888888888889 clipped and transformed" d="M 77.96342468261719,125.0011215209961 C 76.76204681396484,125.0011215209961 75.78700256347656,125.97615814208984 75.78700256347656,127.17755126953125 C 75.78700256347656,128.37893676757812 76.76204681396484,129.35398864746094 77.96342468261719,129.35398864746094 C 79.16482543945312,129.35398864746094 80.1398696899414,128.37893676757812 80.1398696899414,127.17755126953125 C 80.1398696899414,125.97615814208984 79.16482543945312,125.0011215209961 77.96342468261719,125.0011215209961 Z" style="fill-rule: evenodd; fill: rgb(38, 38, 38); stroke-width: 1px; stroke: none;"/>
<path clip-path="url(#contour)" comment="clipped pattern element 66.66666666666666, 138.88888888888889 clipped and transformed" d="M 74.82937622070312,128.83163452148438 C 73.62797546386719,128.83163452148438 72.6529312133789,129.8066864013672 72.6529312133789,131.00807189941406 C 72.6529312133789,132.20945739746094 73.62797546386719,133.18450927734375 74.82937622070312,133.18450927734375 C 76.03075408935547,133.18450927734375 77.00579833984375,132.20945739746094 77.00579833984375,131.00807189941406 C 77.00579833984375,129.8066864013672 76.03075408935547,128.83163452148438 74.82937622070312,128.83163452148438 Z" style="fill-rule: evenodd; fill: rgb(38, 38, 38); stroke-width: 1px; stroke: none;"/>
<path clip-path="url(#contour)" comment="clipped pattern element 66.66666666666666, 138.88888888888889 clipped and transformed" d="M 81.09748840332031,128.83163452148438 C 79.89611053466797,128.83163452148438 78.92106628417969,129.8066864013672 78.92106628417969,131.00807189941406 C 78.92106628417969,132.20945739746094 79.89611053466797,133.18450927734375 81.09748840332031,133.18450927734375 C 82.29888916015625,133.18450927734375 83.27393341064453,132.20945739746094 83.27393341064453,131.00807189941406 C 83.27393341064453,129.8066864013672 82.29888916015625,128.83163452148438 81.09748840332031,128.83163452148438 Z" style="fill-rule: evenodd; fill: rgb(38, 38, 38); stroke-width: 1px; stroke: none;"/>
<path clip-path="url(#contour)" comment="clipped pattern element 66.66666666666666, 138.88888888888889 clipped and transformed" d="M 77.32662200927734,129.85421752929688 C 77.25572967529297,136.69552612304688 72.22222137451172,147.18789672851562 72.22222137451172,147.18789672851562 L 75.873291015625,144.13943481445312 C 76.6885757446289,145.16741943359375 77.82289123535156,147.2233428955078 77.82289123535156,147.2233428955078 C 77.82289123535156,147.2233428955078 79.4002914428711,145.18511962890625 80.28646850585938,144.15716552734375 L 82.25018310546875,146.03408813476562 L 82.73443603515625,145.54983520507812 C 81.31061553955078,142.29661560058594 78.38142395019531,134.99456787109375 78.35459899902344,129.92510986328125 L 77.32662200927734,129.85421752929688 Z" style="fill-rule: evenodd; fill: rgb(38, 38, 38); stroke-width: 1px; stroke: none;"/>
<path clip-path="url(#contour)" comment="clipped pattern element 88.88888888888889, 138.88888888888889 clipped and transformed" d="M 100.1856460571289,125.0011215209961 C 98.98426818847656,125.0011215209961 98.00922393798828,125.97615814208984 98.00922393798828,127.17755126953125 C 98.00922393798828,128.01524353027344 98.48328399658203,128.74290466308594 99.17758178710938,129.106689453125 L 100.0,128.28427124023438 L 100.9365463256836,129.22080993652344 C 101.768310546875,128.91476440429688 102.36209106445312,128.11508178710938 102.36209106445312,127.17755126953125 C 102.36209106445312,125.97615814208984 101.38704681396484,125.0011215209961 100.1856460571289,125.0011215209961 Z" style="fill-rule: evenodd; fill: rgb(38, 38, 38); stroke-width: 1px; stroke: none;"/>
<path clip-path="url(#contour)" comment="clipped pattern element 88.88888888888889, 138.88888888888889 clipped and transformed" d="M 97.05159759521484,128.83163452148438 C 95.8501968383789,128.83163452148438 94.87515258789062,129.8066864013672 94.87515258789062,131.00807189941406 C 94.87515258789062,131.6658935546875 95.16748046875,132.25584411621094 95.62923431396484,132.65504455566406 L 97.08853149414062,131.19573974609375 L 98.69855499267578,129.58570861816406 L 98.69856262207031,129.58570861816406 C 98.29936981201172,129.12396240234375 97.70941162109375,128.83163452148438 97.05159759521484,128.83163452148438 Z" style="fill-rule: evenodd; fill: rgb(38, 38, 38); stroke-width: 1px; stroke: none;"/>
<path clip-path="url(#contour)" comment="clipped pattern element 88.88888888888889, 138.88888888888889 clipped and transformed" d="M 103.31970977783203,128.83163452148438 C 102.56680297851562,128.83163452148438 101.90278625488281,129.214599609375 101.51195526123047,129.7962188720703 L 103.02175903320312,131.3060302734375 L 104.53157043457031,132.8158416748047 C 105.11319732666016,132.4250030517578 105.49615478515625,131.760986328125 105.49615478515625,131.00807189941406 C 105.49615478515625,129.8066864013672 104.52111053466797,128.83163452148438 103.31970977783203,128.83163452148438 Z" style="fill-rule: evenodd; fill: rgb(38, 38, 38); stroke-width: 1px; stroke: none;"/>
<path clip-path="url(#contour)" comment="clipped pattern element 111.11111111111111, 138.88888888888889 clipped and transformed" d="M 122.40786743164062,125.0011215209961 C 121.20648956298828,125.0011215209961 120.2314453125,125.97615814208984 120.2314453125,127.17755126953125 C 120.2314453125,128.37893676757812 121.20648956298828,129.35398864746094 122.40786743164062,129.35398864746094 C 123.60926818847656,129.35398864746094 124.58431243896484,128.37893676757812 124.58431243896484,127.17755126953125 C 124.58431243896484,125.97615814208984 123.60926818847656,125.0011215209961 122.40786743164062,125.0011215209961 Z" style="fill-rule: evenodd; fill: rgb(38, 38, 38); stroke-width: 1px; stroke: none;"/>
<path clip-path="url(#contour)" comment="clipped pattern element 111.11111111111111, 138.88888888888889 clipped and transformed" d="M 119.27381896972656,128.83163452148438 C 118.07242584228516,128.83163452148438 117.09738159179688,129.8066864013672 117.09738159179688,131.00807189941406 C 117.09738159179688,132.20945739746094 118.07242584228516,133.18450927734375 119.27381896972656,133.18450927734375 C 120.4751968383789,133.18450927734375 121.45024108886719,132.20945739746094 121.45024108886719,131.00807189941406 C 121.45024108886719,129.8066864013672 120.4751968383789,128.83163452148438 119.27381896972656,128.83163452148438 Z" style="fill-rule: evenodd; fill: rgb(38, 38, 38); stroke-width: 1px; stroke: none;"/>
<path clip-path="url(#contour)" comment="clipped pattern element 111.11111111111111, 138.88888888888889 clipped and transformed" d="M 125.54193115234375,128.83163452148438 C 124.3405532836914,128.83163452148438 123.36550903320312,129.8066864013672 123.36550903320312,131.00807189941406 C 123.36550903320312,132.20945739746094 124.3405532836914,133.18450927734375 125.54193115234375,133.18450927734375 C 126.74333190917969,133.18450927734375 127.71837615966797,132.20945739746094 127.71837615966797,131.00807189941406 C 127.71837615966797,129.8066864013672 126.74333190917969,128.83163452148438 125.54193115234375,128.83163452148438 Z" style="fill-rule: evenodd; fill: rgb(38, 38, 38); stroke-width: 1px; stroke: none;"/>
<path clip-path="url(#contour)" comment="clipped pattern element 111.11111111111111, 138.88888888888889 clipped and transformed" d="M 121.77106475830078,129.85421752929688 C 121.71675109863281,135.09625244140625 118.74881744384766,142.48187255859375 117.36417388916016,145.6484375 L 117.62496185302734,145.90924072265625 L 117.88575744628906,146.17002868652344 L 120.31773376464844,144.13943481445312 C 121.13302612304688,145.16741943359375 122.267333984375,147.2233428955078 122.267333984375,147.2233428955078 C 122.267333984375,147.2233428955078 123.84473419189453,145.18511962890625 124.73091125488281,144.15716552734375 L 127.93888854980469,147.2233428955078 C 127.93888854980469,147.2233428955078 122.83448791503906,136.6246337890625 122.79904174804688,129.92510986328125 L 121.77106475830078,129.85421752929688 Z" style="fill-rule: evenodd; fill: rgb(38, 38, 38); stroke-width: 1px; stroke: none;"/>
<path clip-path="url(#contour)" comment="clipped pattern element 133.33333333333334, 138.88888888888889 clipped and transformed" d="M 144.63009643554688,125.0011215209961 C 143.4287109375,125.0011215209961 142.45367431640625,125.97615814208984 142.45367431640625,127.17755126953125 C 142.45367431640625,128.37893676757812 143.4287109375,129.35398864746094 144.63009643554688,129.35398864746094 C 145.83148193359375,129.35398864746094 146.80653381347656,128.37893676757812 146.80653381347656,127.17755126953125 C 146.80653381347656,125.97615814208984 145.83148193359375,125.0011215209961 144.63009643554688,125.0011215209961 Z" style="fill-rule: evenodd; fill: rgb(38, 38, 38); stroke-width: 1px; stroke: none;"/>
<path clip-path="url(#contour)" comment="clipped pattern element 133.33333333333334, 138.88888888888889 clipped and transformed" d="M 141.4960479736328,128.83163452148438 C 140.29464721679688,128.83163452148438 139.31959533691406,129.8066864013672 139.31959533691406,131.00807189941406 C 139.31959533691406,132.20945739746094 140.29464721679688,133.18450927734375 141.4960479736328,133.18450927734375 C 142.69741821289062,133.18450927734375 143.67247009277344,132.20945739746094 143.67247009277344,131.00807189941406 C 143.67247009277344,129.8066864013672 142.69741821289062,128.83163452148438 141.4960479736328,128.83163452148438 Z" style="fill-rule: evenodd; fill: rgb(38, 38, 38); stroke-width: 1px; stroke: none;"/>
<path clip-path="url(#contour)" comment="clipped pattern element 133.33333333333334, 138.88888888888889 clipped and transformed" d="M 147.76416015625,128.83163452148438 C 146.56277465820312,128.83163452148438 145.58773803710938,129.8066864013672 145.58773803710938,131.00807189941406 C 145.58773803710938,132.20945739746094 146.56277465820312,133.18450927734375 147.76416015625,133.18450927734375 C 148.96556091308594,133.18450927734375 149.9405975341797,132.20945739746094 149.9405975341797,131.00807189941406 C 149.9405975341797,129.8066864013672 148.96556091308594,128.83163452148438 147.76416015625,128.83163452148438 Z" style="fill-rule: evenodd; fill: rgb(38, 38, 38); stroke-width: 1px; stroke: none;"/>
<path clip-path="url(#contour)" comment="clipped pattern element 133.33333333333334, 138.88888888888889 clipped and transformed" d="M 143.9932861328125,129.85421752929688 C 143.92239379882812,136.69552612304688 138.88888549804688,147.18789672851562 138.88888549804688,147.18789672851562 L 142.5399627685547,144.13943481445312 C 143.35523986816406,145.16741943359375 144.48956298828125,147.2233428955078 144.48956298828125,147.2233428955078 C 144.48956298828125,147.2233428955078 146.06695556640625,145.18511962890625 146.95314025878906,144.15716552734375 L 150.16111755371094,147.2233428955078 C 150.16111755371094,147.2233428955078 145.0567169189453,136.6246337890625 145.02127075195312,129.92510986328125 L 143.9932861328125,129.85421752929688 Z" style="fill-rule: evenodd; fill: rgb(38, 38, 38); stroke-width: 1px; stroke: none;"/>
<path clip-path="url(#contour)" comment="clipped pattern element 155.55555555555557, 138.88888888888889 clipped and transformed" d="M 165.04200744628906,136.7577362060547 C 163.53457641601562,142.13616943359375 161.11111450195312,147.18789672851562 161.11111450195312,147.18789672851562 L 164.76217651367188,144.13943481445312 C 165.5774688720703,145.16741943359375 166.71177673339844,147.2233428955078 166.71177673339844,147.2233428955078 C 166.71177673339844,147.2233428955078 168.2891845703125,145.18511962890625 169.17535400390625,144.15716552734375 L 172.38333129882812,147.2233428955078 C 172.38333129882812,147.2233428955078 171.28150939941406,144.93551635742188 170.09811401367188,141.81385803222656 L 170.09812927246094,141.81385803222656 L 165.04200744628906,136.7577362060547 Z" style="fill-rule: evenodd; fill: rgb(38, 38, 38); stroke-width: 1px; stroke: none;"/>
<path clip-path="url(#contour)" comment="clipped pattern element 22.22222222222222, 166.66666666666666 clipped and transformed" d="M 22.407867431640625,152.77890014648438 C 21.20648956298828,152.77890014648438 20.2314453125,153.75393676757812 20.2314453125,154.955322265625 C 20.2314453125,156.15672302246094 21.20648956298828,157.1317596435547 22.407867431640625,157.1317596435547 C 23.60926628112793,157.1317596435547 24.58431053161621,156.15672302246094 24.58431053161621,154.955322265625 C 24.58431053161621,153.75393676757812 23.60926628112793,152.77890014648438 22.407867431640625,152.77890014648438 Z" style="fill-rule: evenodd; fill: rgb(38, 38, 38); stroke-width: 1px; stroke: none;"/>
<path clip-path="url(#contour)" comment="clipped pattern element 22.22222222222222, 166.66666666666666 clipped and transformed" d="M 19.273822784423828,156.6094207763672 C 18.43628692626953,156.6094207763672 17.708759307861328,157.08328247070312 17.34489631652832,157.77735900878906 C 17.98936653137207,158.84291076660156 18.650421142578125,159.9044189453125 19.327823638916016,160.9616241455078 C 20.504283905029297,160.93292236328125 21.450244903564453,159.9691925048828 21.450244903564453,158.7858428955078 C 21.450244903564453,157.58445739746094 20.475200653076172,156.6094207763672 19.273822784423828,156.6094207763672 Z" style="fill-rule: evenodd; fill: rgb(38, 38, 38); stroke-width: 1px; stroke: none;"/>
<path clip-path="url(#contour)" comment="clipped pattern element 22.22222222222222, 166.66666666666666 clipped and transformed" d="M 25.541933059692383,156.6094207763672 C 24.34055519104004,156.6094207763672 23.365510940551758,157.58445739746094 23.365510940551758,158.7858428955078 C 23.365510940551758,159.98724365234375 24.34055519104004,160.9622802734375 25.541933059692383,160.9622802734375 C 26.74333381652832,160.9622802734375 27.7183780670166,159.98724365234375 27.7183780670166,158.7858428955078 C 27.7183780670166,157.58445739746094 26.74333381652832,156.6094207763672 25.541933059692383,156.6094207763672 Z" style="fill-rule: evenodd; fill: rgb(38, 38, 38); stroke-width: 1px; stroke: none;"/>
<path clip-path="url(#contour)" comment="clipped pattern element 22.22222222222222, 166.66666666666666 clipped and transformed" d="M 21.771066665649414,157.63198852539062 C 21.752897262573242,159.385498046875 21.408706665039062,161.3788604736328 20.906814575195312,163.37391662597656 C 22.533233642578125,165.80706787109375 24.24639320373535,168.21620178222656 26.043378829956055,170.59844970703125 C 24.587087631225586,166.91114807128906 22.819849014282227,161.63531494140625 22.79904556274414,157.702880859375 L 21.771066665649414,157.63198852539062 Z" style="fill-rule: evenodd; fill: rgb(38, 38, 38); stroke-width: 1px; stroke: none;"/>
<path clip-path="url(#contour)" comment="clipped pattern element 44.44444444444444, 166.66666666666666 clipped and transformed" d="M 44.630088806152344,152.77890014648438 C 43.4287109375,152.77890014648438 42.45366668701172,153.75393676757812 42.45366668701172,154.955322265625 C 42.45366668701172,156.15672302246094 43.4287109375,157.1317596435547 44.630088806152344,157.1317596435547 C 45.83148956298828,157.1317596435547 46.80653381347656,156.15672302246094 46.80653381347656,154.955322265625 C 46.80653381347656,153.75393676757812 45.83148956298828,152.77890014648438 44.630088806152344,152.77890014648438 Z" style="fill-rule: evenodd; fill: rgb(38, 38, 38); stroke-width: 1px; stroke: none;"/>
<path clip-path="url(#contour)" comment="clipped pattern element 44.44444444444444, 166.66666666666666 clipped and transformed" d="M 41.49604415893555,156.6094207763672 C 40.29464340209961,156.6094207763672 39.31959915161133,157.58445739746094 39.31959915161133,158.7858428955078 C 39.31959915161133,159.98724365234375 40.29464340209961,160.9622802734375 41.49604415893555,160.9622802734375 C 42.69742202758789,160.9622802734375 43.67246627807617,159.98724365234375 43.67246627807617,158.7858428955078 C 43.67246627807617,157.58445739746094 42.69742202758789,156.6094207763672 41.49604415893555,156.6094207763672 Z" style="fill-rule: evenodd; fill: rgb(38, 38, 38); stroke-width: 1px; stroke: none;"/>
<path clip-path="url(#contour)" comment="clipped pattern element 44.44444444444444, 166.66666666666666 clipped and transformed" d="M 47.764156341552734,156.6094207763672 C 46.56277847290039,156.6094207763672 45.58773422241211,157.58445739746094 45.58773422241211,158.7858428955078 C 45.58773422241211,159.98724365234375 46.56277847290039,160.9622802734375 47.764156341552734,160.9622802734375 C 48.96555709838867,160.9622802734375 49.94060134887695,159.98724365234375 49.94060134887695,158.7858428955078 C 49.94060134887695,157.58445739746094 48.96555709838867,156.6094207763672 47.764156341552734,156.6094207763672 Z" style="fill-rule: evenodd; fill: rgb(38, 38, 38); stroke-width: 1px; stroke: none;"/>
<path clip-path="url(#contour)" comment="clipped pattern element 44.44444444444444, 166.66666666666666 clipped and transformed" d="M 43.993289947509766,157.63198852539062 C 43.922401428222656,164.47329711914062 38.88888931274414,174.96568298339844 38.88888931274414,174.96568298339844 L 42.539955139160156,171.91722106933594 C 43.35524368286133,172.9451904296875 44.48955535888672,175.00112915039062 44.48955535888672,175.00112915039062 C 44.48955535888672,175.00112915039062 46.06695556640625,172.96290588378906 46.95313262939453,171.93495178222656 L 50.161109924316406,175.00112915039062 C 50.161109924316406,175.00112915039062 45.05670928955078,164.4024200439453 45.02126693725586,157.702880859375 L 43.993289947509766,157.63198852539062 Z" style="fill-rule: evenodd; fill: rgb(38, 38, 38); stroke-width: 1px; stroke: none;"/>
<path clip-path="url(#contour)" comment="clipped pattern element 66.66666666666666, 166.66666666666666 clipped and transformed" d="M 66.85231018066406,152.77890014648438 C 65.65093231201172,152.77890014648438 64.67588806152344,153.75393676757812 64.67588806152344,154.955322265625 C 64.67588806152344,156.15672302246094 65.65093231201172,157.1317596435547 66.85231018066406,157.1317596435547 C 68.0537109375,157.1317596435547 69.02875518798828,156.15672302246094 69.02875518798828,154.955322265625 C 69.02875518798828,153.75393676757812 68.0537109375,152.77890014648438 66.85231018066406,152.77890014648438 Z" style="fill-rule: evenodd; fill: rgb(38, 38, 38); stroke-width: 1px; stroke: none;"/>
<path clip-path="url(#contour)" comment="clipped pattern element 66.66666666666666, 166.66666666666666 clipped and transformed" d="M 63.718265533447266,156.6094207763672 C 62.516868591308594,156.6094207763672 61.54182434082031,157.58445739746094 61.54182434082031,158.7858428955078 C 61.54182434082031,159.98724365234375 62.516868591308594,160.9622802734375 63.718265533447266,160.9622802734375 C 64.91964721679688,160.9622802734375 65.89469146728516,159.98724365234375 65.89469146728516,158.7858428955078 C 65.89469146728516,157.58445739746094 64.91964721679688,156.6094207763672 63.718265533447266,156.6094207763672 Z" style="fill-rule: evenodd; fill: rgb(38, 38, 38); stroke-width: 1px; stroke: none;"/>
<path clip-path="url(#contour)" comment="clipped pattern element 66.66666666666666, 166.66666666666666 clipped and transformed" d="M 69.98638153076172,156.6094207763672 C 68.78500366210938,156.6094207763672 67.8099594116211,157.58445739746094 67.8099594116211,158.7858428955078 C 67.8099594116211,159.26211547851562 67.96318817138672,159.7028045654297 68.2229995727539,160.061279296875 L 69.70928955078125,158.57498168945312 L 71.26181030273438,157.0224609375 C 70.90333557128906,156.7626495361328 70.46263885498047,156.6094207763672 69.98638153076172,156.6094207763672 Z" style="fill-rule: evenodd; fill: rgb(38, 38, 38); stroke-width: 1px; stroke: none;"/>
<path clip-path="url(#contour)" comment="clipped pattern element 66.66666666666666, 166.66666666666666 clipped and transformed" d="M 66.21550750732422,157.63198852539062 C 66.19911193847656,159.21461486816406 65.9171371459961,160.9926300048828 65.49333953857422,162.7909393310547 L 67.53565216064453,160.74862670898438 C 67.3555908203125,159.6824951171875 67.24851989746094,158.6534423828125 67.24349212646484,157.702880859375 L 66.21550750732422,157.63198852539062 Z" style="fill-rule: evenodd; fill: rgb(38, 38, 38); stroke-width: 1px; stroke: none;"/>
<path clip-path="url(#contour)" comment="clipped pattern element 133.33333333333334, 166.66666666666666 clipped and transformed" d="M 133.51898193359375,152.77890014648438 C 132.31759643554688,152.77890014648438 131.34255981445312,153.75393676757812 131.34255981445312,154.955322265625 C 131.34255981445312,156.15672302246094 132.31759643554688,157.1317596435547 133.51898193359375,157.1317596435547 C 134.7203826904297,157.1317596435547 135.69541931152344,156.15672302246094 135.69541931152344,154.955322265625 C 135.69541931152344,153.75393676757812 134.7203826904297,152.77890014648438 133.51898193359375,152.77890014648438 Z" style="fill-rule: evenodd; fill: rgb(38, 38, 38); stroke-width: 1px; stroke: none;"/>
<path clip-path="url(#contour)" comment="clipped pattern element 133.33333333333334, 166.66666666666666 clipped and transformed" d="M 130.3849334716797,156.6094207763672 C 129.8138885498047,156.6094207763672 129.29397583007812,156.8297119140625 128.90560913085938,157.18988037109375 L 131.98089599609375,160.26516723632812 C 132.341064453125,159.87680053710938 132.5613555908203,159.3568878173828 132.5613555908203,158.7858428955078 C 132.5613555908203,157.58445739746094 131.58631896972656,156.6094207763672 130.3849334716797,156.6094207763672 Z" style="fill-rule: evenodd; fill: rgb(38, 38, 38); stroke-width: 1px; stroke: none;"/>
<path clip-path="url(#contour)" comment="clipped pattern element 133.33333333333334, 166.66666666666666 clipped and transformed" d="M 136.65304565429688,156.6094207763672 C 135.45166015625,156.6094207763672 134.47662353515625,157.58445739746094 134.47662353515625,158.7858428955078 C 134.47662353515625,159.98724365234375 135.45166015625,160.9622802734375 136.65304565429688,160.9622802734375 C 137.8544464111328,160.9622802734375 138.82948303222656,159.98724365234375 138.82948303222656,158.7858428955078 C 138.82948303222656,157.58445739746094 137.8544464111328,156.6094207763672 136.65304565429688,156.6094207763672 Z" style="fill-rule: evenodd; fill: rgb(38, 38, 38); stroke-width: 1px; stroke: none;"/>
<path clip-path="url(#contour)" comment="clipped pattern element 133.33333333333334, 166.66666666666666 clipped and transformed" d="M 132.88217163085938,157.63198852539062 C 132.8717498779297,158.63880920410156 132.7538299560547,159.7246856689453 132.560302734375,160.84457397460938 L 134.65664672851562,162.94091796875 C 134.2128143310547,161.10446166992188 133.9185791015625,159.2937469482422 133.91015625,157.702880859375 L 132.88217163085938,157.63198852539062 Z" style="fill-rule: evenodd; fill: rgb(38, 38, 38); stroke-width: 1px; stroke: none;"/>
<path clip-path="url(#contour)" comment="clipped pattern element 155.55555555555557, 166.66666666666666 clipped and transformed" d="M 155.74119567871094,152.77890014648438 C 154.53982543945312,152.77890014648438 153.5647735595703,153.75393676757812 153.5647735595703,154.955322265625 C 153.5647735595703,156.15672302246094 154.53982543945312,157.1317596435547 155.74119567871094,157.1317596435547 C 156.94259643554688,157.1317596435547 157.9176483154297,156.15672302246094 157.9176483154297,154.955322265625 C 157.9176483154297,153.75393676757812 156.94259643554688,152.77890014648438 155.74119567871094,152.77890014648438 Z" style="fill-rule: evenodd; fill: rgb(38, 38, 38); stroke-width: 1px; stroke: none;"/>
<path clip-path="url(#contour)" comment="clipped pattern element 155.55555555555557, 166.66666666666666 clipped and transformed" d="M 152.60716247558594,156.6094207763672 C 151.40576171875,156.6094207763672 150.4307098388672,157.58445739746094 150.4307098388672,158.7858428955078 C 150.4307098388672,159.98724365234375 151.40576171875,160.9622802734375 152.60716247558594,160.9622802734375 C 153.80853271484375,160.9622802734375 154.78358459472656,159.98724365234375 154.78358459472656,158.7858428955078 C 154.78358459472656,157.58445739746094 153.80853271484375,156.6094207763672 152.60716247558594,156.6094207763672 Z" style="fill-rule: evenodd; fill: rgb(38, 38, 38); stroke-width: 1px; stroke: none;"/>
<path clip-path="url(#contour)" comment="clipped pattern element 155.55555555555557, 166.66666666666666 clipped and transformed" d="M 158.87527465820312,156.6094207763672 C 157.67388916015625,156.6094207763672 156.6988525390625,157.58445739746094 156.6988525390625,158.7858428955078 C 156.6988525390625,159.98724365234375 157.67388916015625,160.9622802734375 158.87527465820312,160.9622802734375 C 160.07666015625,160.9622802734375 161.0517120361328,159.98724365234375 161.0517120361328,158.7858428955078 C 161.0517120361328,157.58445739746094 160.07666015625,156.6094207763672 158.87527465820312,156.6094207763672 Z" style="fill-rule: evenodd; fill: rgb(38, 38, 38); stroke-width: 1px; stroke: none;"/>
<path clip-path="url(#contour)" comment="clipped pattern element 155.55555555555557, 166.66666666666666 clipped and transformed" d="M 155.10440063476562,157.63198852539062 C 155.03350830078125,164.47329711914062 150.0,174.96568298339844 150.0,174.96568298339844 L 153.65106201171875,171.91722106933594 C 154.4663543701172,172.9451904296875 155.6006622314453,175.00112915039062 155.6006622314453,175.00112915039062 C 155.6006622314453,175.00112915039062 157.17807006835938,172.96290588378906 158.06423950195312,171.93495178222656 L 161.272216796875,175.00112915039062 C 161.272216796875,175.00112915039062 156.16781616210938,164.4024200439453 156.13238525390625,157.702880859375 L 155.10440063476562,157.63198852539062 Z" style="fill-rule: evenodd; fill: rgb(38, 38, 38); stroke-width: 1px; stroke: none;"/>
<path clip-path="url(#contour)" comment="clipped pattern element 177.7777777777778, 166.66666666666666 clipped and transformed" d="M 177.9634246826172,152.77890014648438 C 176.7620391845703,152.77890014648438 175.78700256347656,153.75393676757812 175.78700256347656,154.955322265625 C 175.78700256347656,156.15672302246094 176.7620391845703,157.1317596435547 177.9634246826172,157.1317596435547 C 179.16482543945312,157.1317596435547 180.13986206054688,156.15672302246094 180.13986206054688,154.955322265625 C 180.13986206054688,153.75393676757812 179.16482543945312,152.77890014648438 177.9634246826172,152.77890014648438 Z" style="fill-rule: evenodd; fill: rgb(38, 38, 38); stroke-width: 1px; stroke: none;"/>
<path clip-path="url(#contour)" comment="clipped pattern element 177.7777777777778, 166.66666666666666 clipped and transformed" d="M 174.82937622070312,156.6094207763672 C 173.6279754638672,156.6094207763672 172.65293884277344,157.58445739746094 172.65293884277344,158.7858428955078 C 172.65293884277344,159.98724365234375 173.6279754638672,160.9622802734375 174.82937622070312,160.9622802734375 C 176.03076171875,160.9622802734375 177.00579833984375,159.98724365234375 177.00579833984375,158.7858428955078 C 177.00579833984375,157.58445739746094 176.03076171875,156.6094207763672 174.82937622070312,156.6094207763672 Z" style="fill-rule: evenodd; fill: rgb(38, 38, 38); stroke-width: 1px; stroke: none;"/>
<path clip-path="url(#contour)" comment="clipped pattern element 177.7777777777778, 166.66666666666666 clipped and transformed" d="M 181.0974884033203,156.6094207763672 C 179.8961181640625,156.6094207763672 178.9210662841797,157.58445739746094 178.9210662841797,158.7858428955078 C 178.9210662841797,159.84991455078125 179.6859588623047,160.73641967773438 180.6955108642578,160.92518615722656 C 181.4283447265625,159.78074645996094 182.1420135498047,158.6312713623047 182.8362274169922,157.47706604003906 C 182.4388885498047,156.9501953125 181.8077392578125,156.6094207763672 181.0974884033203,156.6094207763672 Z" style="fill-rule: evenodd; fill: rgb(38, 38, 38); stroke-width: 1px; stroke: none;"/>
<path clip-path="url(#contour)" comment="clipped pattern element 177.7777777777778, 166.66666666666666 clipped and transformed" d="M 177.32662963867188,157.63198852539062 C 177.286376953125,161.51602172851562 175.64659118652344,166.57684326171875 174.2364501953125,170.2263641357422 C 175.66758728027344,168.31761169433594 177.04493713378906,166.39173889160156 178.3670196533203,164.45022583007812 C 178.63929748535156,164.0503692626953 178.9092254638672,163.6498565673828 179.1768035888672,163.24868774414062 C 178.6909942626953,161.30731201171875 178.3634796142578,159.38255310058594 178.35459899902344,157.702880859375 L 177.32662963867188,157.63198852539062 Z" style="fill-rule: evenodd; fill: rgb(38, 38, 38); stroke-width: 1px; stroke: none;"/>
<path clip-path="url(#contour)" comment="clipped pattern element 22.22222222222222, 194.44444444444443 clipped and transformed" d="M 34.312339782714844,180.7059783935547 C 34.320316314697266,180.71499633789062 34.32829666137695,180.72402954101562 34.33627700805664,180.73304748535156 C 34.52210998535156,180.94317626953125 34.70861053466797,181.15304565429688 34.895774841308594,181.36264038085938 C 35.13676452636719,181.63253784179688 35.37885665893555,181.9019775390625 35.622039794921875,182.17098999023438 C 35.442962646484375,181.50003051757812 34.9510612487793,180.95635986328125 34.312339782714844,180.7059783935547 Z" style="fill-rule: evenodd; fill: rgb(38, 38, 38); stroke-width: 1px; stroke: none;"/>
<path clip-path="url(#contour)" comment="outer shield shape border" d="M 0.0,0.0 L 0.0,100.0 C 0.0,150.0 40.0,200.0 100.0,230.0 C 160.0,200.0 200.0,150.0 200.0,100.0 L 200.0,0.0 L 0.0,0.0 Z" style="fill-rule: evenodd; fill: none; stroke-width: 1px; stroke: rgb(0, 0, 0);"/>
</g>
</svg>
