<?xml version="1.0" encoding="UTF-8" standalone="no"?>
<svg xmlns="http://www.w3.org/2000/svg" height="246.0" width="216.0">
<defs>
<clipPath id="contour">
<path d="M 0.0,0.0 L 200.0,0.0 L 200.0,100.0 C 200.0,150.0 160.0,200.0 100.0,230.0 C 40.0,200.0 0.0,150.0 0.0,100.0 L 0.0,0.0 Z"/>
</clipPath>
<radialGradient id="lighting">
<stop offset="25%" stop-color="white" stop-opacity="35%"/>
<stop offset="100%" stop-color="white" stop-opacity="0%"/>
</radialGradient>
</defs>
<g transform="translate(8.0,8.0)">
<path clip-path="url(#contour)" comment="FieldBackground" d="M 0.0,0.0 L 0.0,100.0 L 100.0,100.0 L 100.0,0.0 L 0.0,0.0 Z" style="fill-rule: evenodd; fill: rgb(230, 230, 230); stroke-width: 1px; stroke: none;"/>
<path clip-path="url(#contour)" comment="FieldBackground" d="M 0.0,0.0 L 0.0,21.21320343017578 L 1.4432899320127035E-15,21.21320343017578 C 0.7345499992370605,20.478652954101562 1.6093865633010864,20.164962768554688 2.5173404216766357,20.164962768554688 C 6.363494396209717,20.164962768554688 10.803911209106445,25.793907165527344 7.692307472229004,28.9055118560791 C 5.0,31.59781837463379 3.846153736114502,29.674741744995117 1.1538461446762085,32.36705017089844 C -2.6755294799804688,36.19642639160156 4.085846900939941,44.26210021972656 9.135998725891113,44.26210021972656 C 10.17258071899414,44.26210021972656 11.137067794799805,43.92229080200195 11.923076629638672,43.13628005981445 C 14.615385055541992,40.443973541259766 12.692307472229004,39.29012680053711 15.384614944458008,36.59782028198242 C 16.119165420532227,35.8632698059082 16.994001388549805,35.54957962036133 17.90195655822754,35.54957962036133 C 21.748109817504883,35.54957962036133 26.188526153564453,41.178524017333984 23.076923370361328,44.29012680053711 C 20.384614944458008,46.9824333190918 19.230770111083984,45.059356689453125 16.538461685180664,47.75166320800781 C 12.709085464477539,51.58103942871094 19.470462799072266,59.6467170715332 24.520614624023438,59.6467170715332 C 25.55719566345215,59.6467170715332 26.521682739257812,59.30690383911133 27.30769157409668,58.520896911621094 C 30.0,55.82858657836914 28.076923370361328,54.67474365234375 30.769229888916016,51.9824333190918 C 31.503780364990234,51.24788284301758 32.37861633300781,50.9341926574707 33.28657150268555,50.9341926574707 C 37.13272476196289,50.9341926574707 41.573143005371094,56.56313705444336 38.46154022216797,59.67474365234375 C 35.769229888916016,62.36705017089844 34.61538314819336,60.443973541259766 31.923076629638672,63.13628005981445 C 28.093700408935547,66.96565246582031 34.855079650878906,75.03133392333984 39.90522766113281,75.03133392333984 C 40.941810607910156,75.03133392333984 41.90629959106445,74.69152069091797 42.69230651855469,73.90550994873047 C 45.38461685180664,71.21320343017578 43.46154022216797,70.05935668945312 46.153846740722656,67.36705017089844 C 46.888397216796875,66.63249969482422 47.76323318481445,66.31880950927734 48.67118835449219,66.31880950927734 C 52.51734161376953,66.31880950927734 56.95775604248047,71.94775390625 53.846153259277344,75.05935668945312 C 51.153846740722656,77.75166320800781 50.0,75.8285903930664 47.30769348144531,78.5208969116211 C 43.47831726074219,82.35027313232422 50.23969268798828,90.41594696044922 55.28984451293945,90.41594696044922 C 56.3264274597168,90.41594696044922 57.29091262817383,90.07613372802734 58.07692337036133,89.29012298583984 C 60.769229888916016,86.59781646728516 58.846153259277344,85.4439697265625 61.53845977783203,82.75166320800781 C 62.27301025390625,82.0171127319336 63.147850036621094,81.70342254638672 64.05580139160156,81.70342254638672 C 67.9019546508789,81.70342254638672 72.34237670898438,87.33236694335938 69.23076629638672,90.4439697265625 C 66.53845977783203,93.13628387451172 65.38461303710938,91.21320343017578 62.69230651855469,93.90550994873047 C 61.09886932373047,95.49894714355469 61.33918762207031,97.82588958740234 62.52692413330078,100.0 L 75.58746337890625,100.0 C 75.82486724853516,99.44802856445312 76.21382141113281,98.84553527832031 76.92308044433594,98.13628387451172 C 77.65762329101562,97.4017333984375 78.53246307373047,97.08804321289062 79.44041442871094,97.08804321289062 C 81.25817108154297,97.08804321289062 83.20865631103516,98.34535217285156 84.43191528320312,100.0 L 100.0,100.0 L 100.0,78.78679656982422 C 99.26544952392578,79.52134704589844 98.39060974121094,79.83503723144531 97.48265838623047,79.83503723144531 C 93.63650512695312,79.83503723144531 89.19609069824219,74.20609283447266 92.30769348144531,71.09449005126953 C 95.0,68.40218353271484 96.15384674072266,70.32525634765625 98.84615325927734,67.63294982910156 C 102.67552947998047,63.80357360839844 95.91415405273438,55.73789978027344 90.86399841308594,55.73789978027344 C 89.8274154663086,55.73789978027344 88.86293029785156,56.07770919799805 88.07691955566406,56.86371994018555 C 85.38461303710938,59.556026458740234 87.30769348144531,60.70987319946289 84.61538696289062,63.40217971801758 C 83.8808364868164,64.13673400878906 83.00599670410156,64.45042419433594 82.0980453491211,64.45042419433594 C 78.25189208984375,64.45042419433594 73.81147003173828,58.821475982666016 76.92308044433594,55.70987319946289 C 79.61538696289062,53.0175666809082 80.76923370361328,54.940643310546875 83.46154022216797,52.24833679199219 C 87.2909164428711,48.41896057128906 80.529541015625,40.3532829284668 75.47938537597656,40.3532829284668 C 74.44280242919922,40.3532829284668 73.47831726074219,40.69309616088867 72.69230651855469,41.479103088378906 C 70.0,44.17141342163086 71.92308044433594,45.32525634765625 69.23076629638672,48.0175666809082 C 68.4962158203125,48.75211715698242 67.62138366699219,49.0658073425293 66.71343231201172,49.0658073425293 C 62.86727523803711,49.0658073425293 58.426856994628906,43.43686294555664 61.53845977783203,40.32525634765625 C 64.23076629638672,37.63294982910156 65.38461303710938,39.556026458740234 68.07691955566406,36.86371994018555 C 71.90629577636719,33.03434371948242 65.1449203491211,24.96866798400879 60.09477233886719,24.96866798400879 C 59.058189392089844,24.96866798400879 58.09370040893555,25.30847930908203 57.30769348144531,26.0944881439209 C 54.61538314819336,28.78679656982422 56.53845977783203,29.940643310546875 53.846153259277344,32.63294982910156 C 53.111602783203125,33.36750030517578 52.23676681518555,33.681190490722656 51.32881164550781,33.681190490722656 C 47.48265838623047,33.681190490722656 43.04224395751953,28.05224609375 46.153846740722656,24.940643310546875 C 48.846153259277344,22.248334884643555 50.0,24.171411514282227 52.69230651855469,21.47910499572754 C 56.52168273925781,17.649728775024414 49.76030731201172,9.584052085876465 44.71015548706055,9.584052085876465 C 43.6735725402832,9.584052085876465 42.70908737182617,9.923864364624023 41.92307662963867,10.70987319946289 C 39.230770111083984,13.402181625366211 41.153846740722656,14.55602741241455 38.46154022216797,17.248334884643555 C 37.72698974609375,17.982885360717773 36.852149963378906,18.29657554626465 35.94419860839844,18.29657554626465 C 32.098045349121094,18.29657554626465 27.65762710571289,12.667631149291992 30.769229888916016,9.55602741241455 C 33.46154022216797,6.863719463348389 34.61538314819336,8.786796569824219 37.30769348144531,6.094489097595215 C 38.90113067626953,4.5010504722595215 38.66081237792969,2.174109935760498 37.47307586669922,0.0 L 24.41253662109375,0.0 C 24.17513084411621,0.5519736409187317 23.78618049621582,1.1544620990753174 23.076923370361328,1.8637195825576782 C 22.34237289428711,2.5982697010040283 21.46753692626953,2.9119598865509033 20.559581756591797,2.9119598865509033 C 18.741832733154297,2.9119598865509033 16.791343688964844,1.6546505689620972 15.568086624145508,0.0 L 0.0,0.0 Z" style="fill-rule: evenodd; fill: rgb(38, 64, 204); stroke-width: 1px; stroke: none;"/>
<path clip-path="url(#contour)" comment="FieldBackground" d="M 100.0,0.0 L 100.0,100.0 L 200.0,100.0 L 200.0,0.0 L 100.0,0.0 Z" style="fill-rule: evenodd; fill: rgb(38, 38, 38); stroke-width: 1px; stroke: none;"/>
<path clip-path="url(#contour)" comment="FieldBackground" d="M 100.0,0.0 L 100.0,25.456398010253906 Q 100.00027465820312,33.14815139770508 107.69230651855469,33.14815139770508 Q 107.69230651855469,40.840457916259766 115.38461303710938,40.840457916259766 Q 115.38461303710938,48.53276824951172 123.07691955566406,48.53276824951172 Q 123.07691955566406,56.225074768066406 130.76922607421875,56.225074768066406 Q 130.76922607421875,63.917381286621094 138.46153259277344,63.917381286621094 Q 138.46153259277344,71.60968780517578 146.15383911132812,71.60968780517578 Q 146.15383911132812,79.30199432373047 153.84616088867188,79.30199432373047 Q 153.84616088867188,86.99430847167969 161.53846740722656,86.99430847167969 Q 161.53846740722656,94.68661499023438 169.23077392578125,94.68661499023438 Q 169.23077392578125,98.10114288330078 170.74644470214844,100.0 L 200.0,100.0 L 200.0,74.54415893554688 Q 200.0,66.85184478759766 192.3076934814453,66.85184478759766 Q 192.3076934814453,59.159542083740234 184.61538696289062,59.159542083740234 Q 184.61538696289062,51.46723175048828 176.92308044433594,51.46723175048828 Q 176.92308044433594,43.774925231933594 169.23077392578125,43.774925231933594 Q 169.23077392578125,36.082618713378906 161.53846740722656,36.082618713378906 Q 161.53846740722656,28.390310287475586 153.84616088867188,28.390310287475586 Q 153.84616088867188,20.698001861572266 146.15383911132812,20.698001861572266 Q 146.15383911132812,13.005694389343262 138.46153259277344,13.005694389343262 Q 138.46153259277344,5.3133864402771 130.76922607421875,5.3133864402771 Q 130.76922607421875,1.8988579511642456 129.25355529785156,0.0 L 100.0,0.0 Z" style="fill-rule: evenodd; fill: rgb(217, 217, 38); stroke-width: 1px; stroke: none;"/>
<path clip-path="url(#contour)" comment="FieldBackground" d="M 100.0,100.0 L 100.0,230.0 C 160.0,200.0 200.0,150.0 200.0,100.0 L 100.0,100.0 Z" style="fill-rule: evenodd; fill: rgb(230, 230, 230); stroke-width: 1px; stroke: none;"/>
<path clip-path="url(#contour)" comment="FieldBackground" d="M 100.0,100.0 L 100.0,128.28427124023438 Q 100.0,135.93133544921875 107.64705657958984,135.93133544921875 Q 115.29412078857422,135.93133544921875 115.29412078857422,143.57838439941406 Q 115.29412078857422,151.22544860839844 122.94117736816406,151.22544860839844 Q 130.58824157714844,151.22544860839844 130.58824157714844,158.8725128173828 Q 130.58824157714844,166.51956176757812 138.23529052734375,166.51956176757812 Q 145.88235473632812,166.51956176757812 145.88235473632812,174.1666259765625 Q 145.88235473632812,181.81369018554688 153.5294189453125,181.81369018554688 Q 159.26744079589844,181.81369018554688 160.69989013671875,186.11924743652344 C 170.02769470214844,176.39866638183594 177.9091796875,166.0531768798828 184.10867309570312,155.31842041015625 Q 183.85568237304688,148.18630981445312 176.4705810546875,148.18630981445312 Q 168.8235321044922,148.18630981445312 168.8235321044922,140.5392608642578 Q 168.8235321044922,132.89219665527344 161.1764678955078,132.89219665527344 Q 153.5294189453125,132.89219665527344 153.5294189453125,125.2451400756836 Q 153.5294189453125,117.59808349609375 145.88235473632812,117.59808349609375 Q 138.23529052734375,117.59808349609375 138.23529052734375,109.95101928710938 Q 138.23529052734375,102.30396270751953 130.58824157714844,102.30396270751953 Q 126.39079284667969,102.30396270751953 124.49730682373047,100.0 L 100.0,100.0 Z" style="fill-rule: evenodd; fill: rgb(51, 153, 51); stroke-width: 1px; stroke: none;"/>
<path clip-path="url(#contour)" comment="FieldBackground" d="M 0.0,100.0 C 0.0,150.0 40.0,200.0 100.0,230.0 L 100.0,100.0 L 0.0,100.0 Z" style="fill-rule: evenodd; fill: rgb(38, 38, 38); stroke-width: 1px; stroke: none;"/>
<path clip-path="url(#contour)" comment="FieldBackground" d="M 0.0,100.0 C 0.0,112.07091522216797 2.3313112258911133,124.14183044433594 6.712522983551025,135.93133544921875 L 15.29411792755127,135.93133544921875 L 15.29411792755127,143.57838439941406 L 15.29411792755127,151.22544860839844 L 30.58823585510254,151.22544860839844 L 30.58823585510254,158.8725128173828 L 30.58823585510254,166.51956176757812 L 45.882354736328125,166.51956176757812 L 45.882354736328125,174.1666259765625 L 45.882354736328125,181.81369018554688 L 61.17647171020508,181.81369018554688 L 61.17647171020508,189.4607391357422 L 61.17647171020508,197.10780334472656 L 76.47058868408203,197.10780334472656 L 76.47058868408203,204.75485229492188 L 76.47058868408203,212.40191650390625 L 91.76470947265625,212.40191650390625 L 91.76470947265625,220.04898071289062 L 91.76470947265625,225.68890380859375 C 93.00233459472656,226.36666870117188 94.24945831298828,227.0357666015625 95.5058822631836,227.69602966308594 L 100.0,227.69602966308594 L 100.0,178.77455139160156 L 99.4117660522461,178.77455139160156 L 99.4117660522461,171.1274871826172 L 99.4117660522461,163.48043823242188 L 84.11764526367188,163.48043823242188 L 84.11764526367188,155.8333740234375 L 84.11764526367188,148.18630981445312 L 68.82353210449219,148.18630981445312 L 68.82353210449219,140.5392608642578 L 68.82353210449219,132.89219665527344 L 53.52941131591797,132.89219665527344 L 53.52941131591797,125.2451400756836 L 53.52941131591797,117.59808349609375 L 38.235294342041016,117.59808349609375 L 38.235294342041016,109.95101928710938 L 38.235294342041016,102.30396270751953 L 22.941177368164062,102.30396270751953 L 22.941177368164062,100.0 L 0.0,100.0 Z" style="fill-rule: evenodd; fill: rgb(179, 38, 26); stroke-width: 1px; stroke: none;"/>
<path clip-path="url(#contour)" comment="outer shield shape border" d="M 0.0,0.0 L 0.0,100.0 C 0.0,150.0 40.0,200.0 100.0,230.0 C 160.0,200.0 200.0,150.0 200.0,100.0 L 200.0,0.0 L 0.0,0.0 Z" style="fill-rule: evenodd; fill: none; stroke-width: 1px; stroke: rgb(0, 0, 0);"/>
</g>
</svg>
