<?xml version="1.0" encoding="UTF-8" standalone="no"?>
<svg xmlns="http://www.w3.org/2000/svg" height="116.0" width="216.0">
<defs>
<clipPath id="contour">
<path d="M 8.0,8.0 L 208.0,8.0 L 168.0,58.0 L 208.0,108.0 L 8.0,108.0 L 8.0,8.0 Z"/>
</clipPath>
<radialGradient id="lighting">
<stop offset="25%" stop-color="white" stop-opacity="35%"/>
<stop offset="100%" stop-color="white" stop-opacity="0%"/>
</radialGradient>
</defs>
<g transform="translate(8.0,8.0)">
<path d="M 0.0,0.0 L 200.0,0.0 L 160.0,50.0 L 200.0,100.0 L 0.0,100.0 L 0.0,0.0 Z" style="fill: rgb(230, 230, 230); stroke-width: 1px; stroke: none;"/>
<path d="M 45.0,0.0 L 77.83333587646484,32.83333206176758 L 82.83333587646484,27.83333396911621 L 55.0,0.0 L 45.0,0.0 Z" style="fill: rgb(38, 38, 38); stroke-width: 1px; stroke: none;"/>
<path d="M 88.83333587646484,33.83333206176758 L 83.83333587646484,38.83333206176758 L 111.16666412353516,66.16666412353516 L 116.16666412353516,61.16666793823242 L 88.83333587646484,33.83333206176758 L 88.83333587646484,33.83333206176758 Z" style="fill: rgb(38, 38, 38); stroke-width: 1px; stroke: none;"/>
<path d="M 122.16666412353516,67.16666412353516 L 117.16666412353516,72.16666412353516 L 145.0,100.0 L 155.0,100.0 L 122.16666412353516,67.16666412353516 L 122.16666412353516,67.16666412353516 Z" style="fill: rgb(38, 38, 38); stroke-width: 1px; stroke: none;"/>
<path d="M 145.0,0.0 L 100.5,44.5 L 105.5,49.5 L 155.0,0.0 L 145.0,0.0 Z" style="fill: rgb(38, 38, 38); stroke-width: 1px; stroke: none;"/>
<path d="M 94.5,50.5 L 45.0,100.0 L 55.0,100.0 L 99.5,55.5 L 94.5,50.5 L 94.5,50.5 Z" style="fill: rgb(38, 38, 38); stroke-width: 1px; stroke: none;"/>
<path d="M 100.0,11.666666984558105 L 61.66666793823242,50.0 L 77.83333587646484,66.16666412353516 L 82.83333587646484,61.16666793823242 L 71.66666412353516,50.0 L 100.0,21.66666603088379 L 111.16666412353516,32.83333206176758 L 116.16666412353516,27.83333396911621 L 100.0,11.666666984558105 L 100.0,11.666666984558105 Z" style="fill: rgb(38, 38, 38); stroke-width: 1px; stroke: none;"/>
<path d="M 122.16666412353516,33.83333206176758 L 117.16666412353516,38.83333206176758 L 128.3333282470703,50.0 L 100.0,78.33333587646484 L 88.83333587646484,67.16666412353516 L 83.83333587646484,72.16666412353516 L 100.0,88.33333587646484 L 138.3333282470703,50.0 L 122.16666412353516,33.83333206176758 L 122.16666412353516,33.83333206176758 Z" style="fill: rgb(38, 38, 38); stroke-width: 1px; stroke: none;"/>
<path d="M 0.0,0.0 L 200.0,0.0 L 160.0,50.0 L 200.0,100.0 L 0.0,100.0 L 0.0,0.0 Z" style="fill: none; stroke-width: 1px; stroke: rgb(0, 0, 0);"/>
</g>
<rect clip-path="url(#contour)" fill="url(#lighting)" height="116.0" width="216.0" x="0.0" y="0.0"/>
</svg>
