<?xml version="1.0" encoding="UTF-8" standalone="no"?>
<svg xmlns="http://www.w3.org/2000/svg" height="246.0" width="216.0">
<defs>
<clipPath id="contour">
<path d="M 0.0,0.0 L 200.0,0.0 L 200.0,100.0 C 200.0,150.0 160.0,200.0 100.0,230.0 C 40.0,200.0 0.0,150.0 0.0,100.0 L 0.0,0.0 Z"/>
</clipPath>
<radialGradient id="lighting">
<stop offset="25%" stop-color="white" stop-opacity="35%"/>
<stop offset="100%" stop-color="white" stop-opacity="0%"/>
</radialGradient>
</defs>
<g transform="translate(8.0,8.0)">
<path clip-path="url(#contour)" d="M 0.0,0.0 L 200.0,0.0 L 200.0,100.0 C 200.0,150.0 160.0,200.0 100.0,230.0 C 40.0,200.0 0.0,150.0 0.0,100.0 L 0.0,0.0 Z" style="fill: rgb(230, 230, 230); stroke-width: 1px; stroke: none;"/>
<path clip-path="url(#contour)" d="M 0.0,0.0 L 0.0,21.21320343017578 L 162.74252319335938,183.95571899414062 C 169.8382110595703,176.31600952148438 176.04647827148438,168.3079833984375 181.25607299804688,160.04286193847656 L 21.21320343017578,0.0 L 0.0,0.0 Z" style="fill: rgb(38, 38, 38); stroke-width: 1px; stroke: none;"/>
<path clip-path="url(#contour)" d="M 89.82380676269531,82.6544418334961 C 89.82379913330078,82.65469360351562 89.82378387451172,82.65493774414062 89.82377624511719,82.65518951416016 C 89.8968505859375,84.22962951660156 90.03370666503906,85.4067611694336 90.19559478759766,86.42796325683594 C 90.19564819335938,86.42796325683594 90.19569396972656,86.42797088623047 90.19574737548828,86.42797088623047 C 90.03379821777344,85.40665435791016 89.89688873291016,84.22936248779297 89.82380676269531,82.6544418334961 Z" style="fill: rgb(230, 230, 230); stroke-width: 1px; stroke: rgb(38, 38, 38);"/>
<path clip-path="url(#contour)" d="M 85.57929229736328,88.89520263671875 C 85.7611083984375,88.92517852783203 85.93759155273438,88.9523696899414 86.10984802246094,88.97737121582031 C 86.10984802246094,88.97736358642578 86.10985565185547,88.97735595703125 86.10985565185547,88.97734832763672 C 85.9375991821289,88.95236206054688 85.76111602783203,88.92517852783203 85.57929229736328,88.89520263671875 Z" style="fill: rgb(230, 230, 230); stroke-width: 1px; stroke: rgb(38, 38, 38);"/>
<path clip-path="url(#contour)" d="M 97.09581756591797,87.99858856201172 C 96.71522521972656,88.11125946044922 96.35789489746094,88.21101379394531 96.02013397216797,88.2999038696289 C 95.1405258178711,88.6966552734375 94.42684173583984,89.06446075439453 93.7927017211914,89.41839599609375 C 93.80416107177734,89.45979309082031 93.81499481201172,89.50144958496094 93.8251953125,89.5433578491211 C 94.6935043334961,89.06578826904297 95.71063995361328,88.56316375732422 97.09581756591797,87.99858856201172 Z" style="fill: rgb(230, 230, 230); stroke-width: 1px; stroke: rgb(38, 38, 38);"/>
<path clip-path="url(#contour)" d="M 92.58234405517578,93.60566711425781 C 92.58234405517578,93.60566711425781 92.58234405517578,93.60566711425781 92.58233642578125,93.60567474365234 C 92.80783081054688,94.04019165039062 93.05914306640625,94.49970245361328 93.35466003417969,95.00199127197266 C 93.05914306640625,94.49970245361328 92.8078384399414,94.04019165039062 92.58234405517578,93.60566711425781 Z" style="fill: rgb(230, 230, 230); stroke-width: 1px; stroke: rgb(38, 38, 38);"/>
<path clip-path="url(#contour)" d="M 87.28565216064453,93.70548248291016 C 87.1011734008789,94.12358093261719 86.89582824707031,94.56461334228516 86.65555572509766,95.04405212402344 C 86.89582824707031,94.56462860107422 87.10118103027344,94.12359619140625 87.2856674194336,93.70549774169922 C 87.2856674194336,93.70549011230469 87.28565979003906,93.70548248291016 87.28565216064453,93.70548248291016 Z" style="fill: rgb(230, 230, 230); stroke-width: 1px; stroke: rgb(38, 38, 38);"/>
<path clip-path="url(#contour)" d="M 105.76585388183594,95.39873504638672 C 105.76599884033203,95.39881896972656 105.76615142822266,95.3989028930664 105.76629638671875,95.39897918701172 L 105.76659393310547,95.39888000488281 C 105.76634979248047,95.39883422851562 105.76609802246094,95.39878845214844 105.76585388183594,95.39873504638672 Z" style="fill: rgb(230, 230, 230); stroke-width: 1px; stroke: rgb(38, 38, 38);"/>
<path clip-path="url(#contour)" d="M 91.9923324584961,94.04867553710938 C 91.99232482910156,94.04867553710938 91.9923095703125,94.0486831665039 91.99230194091797,94.04869079589844 C 92.7125473022461,94.750244140625 93.5040512084961,95.5904312133789 94.47358703613281,96.77703857421875 C 94.47357940673828,96.77702331542969 94.47357177734375,96.77700805664062 94.47356414794922,96.77699279785156 C 93.50408172607422,95.5904769897461 92.71257781982422,94.7502670288086 91.9923324584961,94.04867553710938 Z" style="fill: rgb(230, 230, 230); stroke-width: 1px; stroke: rgb(38, 38, 38);"/>
<path clip-path="url(#contour)" d="M 85.64950561523438,96.90362548828125 C 85.63815307617188,96.92327117919922 85.62674713134766,96.94298553466797 85.61527252197266,96.96276092529297 C 85.62674713134766,96.94298553466797 85.63815307617188,96.92327117919922 85.64950561523438,96.90362548828125 Z" style="fill: rgb(230, 230, 230); stroke-width: 1px; stroke: rgb(38, 38, 38);"/>
<path clip-path="url(#contour)" d="M 87.89557647705078,94.12833404541016 C 87.21845245361328,94.87723541259766 86.47864532470703,95.76934051513672 85.58161163330078,97.02070617675781 C 85.59286499023438,97.00137329101562 85.60406494140625,96.98209381103516 85.61520385742188,96.96288299560547 C 85.60405731201172,96.98210144042969 85.59285736083984,97.00138092041016 85.58160400390625,97.02071380615234 C 85.58160400390625,97.02071380615234 85.58160400390625,97.02071380615234 85.58160400390625,97.02071380615234 C 85.58154296875,97.02083587646484 85.58147430419922,97.02094268798828 85.58140563964844,97.02106475830078 C 86.47855377197266,95.76953125 87.21843719482422,94.87733459472656 87.8956298828125,94.12837219238281 C 87.89561462402344,94.12835693359375 87.89559173583984,94.12834930419922 87.89557647705078,94.12833404541016 L 85.64950561523438,96.90362548828125 Z" style="fill: rgb(230, 230, 230); stroke-width: 1px; stroke: rgb(38, 38, 38);"/>
<path clip-path="url(#contour)" d="M 100.06999206542969,77.31608581542969 C 98.9734115600586,78.10006713867188 97.0262222290039,79.1446533203125 95.13031005859375,79.58616638183594 C 94.61490631103516,78.3659439086914 93.80106353759766,77.91999053955078 92.81562042236328,77.91999053955078 C 92.56183624267578,77.91999053955078 92.29666900634766,77.94956970214844 92.02227783203125,78.00312042236328 C 91.28148651123047,78.21025085449219 90.73802947998047,78.53317260742188 89.93134307861328,78.53317260742188 C 89.90225219726562,78.53317260742188 89.87281799316406,78.53275299072266 89.843017578125,78.53189086914062 L 89.84130096435547,78.53199005126953 L 89.80586242675781,78.53199005126953 L 89.8056411743164,78.5318603515625 C 89.77580261230469,78.53272247314453 89.74633026123047,78.53314208984375 89.71720123291016,78.53314208984375 C 88.91051483154297,78.53314208984375 88.36616516113281,78.21021270751953 87.62540435791016,78.00308227539062 C 87.36223602294922,77.95175170898438 87.10758209228516,77.92235565185547 86.86326599121094,77.9200668334961 L 86.86306762695312,77.92003631591797 C 86.8526840209961,77.91993713378906 86.84231567382812,77.91989135742188 86.83197021484375,77.91989135742188 C 85.78749084472656,77.91989135742188 84.93559265136719,78.42100524902344 84.42776489257812,79.8142318725586 C 84.42759704589844,79.81515502929688 84.42742919921875,79.81607818603516 84.42726135253906,79.81700134277344 C 82.55094909667969,78.99104309082031 81.26124572753906,78.44623565673828 80.34149169921875,77.4706802368164 L 80.34129333496094,77.4706802368164 C 80.86857604980469,78.54373168945312 81.49989318847656,80.30769348144531 81.7682876586914,82.07340240478516 C 81.70499420166016,82.06526947021484 81.64136505126953,82.05751037597656 81.57744598388672,82.050048828125 C 79.79794311523438,82.1651611328125 79.129638671875,83.21429443359375 78.9672622680664,84.68800354003906 C 78.93811798095703,85.51284790039062 79.08587646484375,86.16423034667969 78.81037139892578,87.00633239746094 L 78.80994415283203,87.00811004638672 L 78.79948425292969,87.04326629638672 L 78.7992935180664,87.04353332519531 C 78.56932067871094,87.9002685546875 78.09319305419922,88.35254669189453 77.66920471191406,89.05072021484375 C 77.54427337646484,89.29673767089844 77.44208526611328,89.54074096679688 77.36785125732422,89.78245544433594 L 77.36778259277344,89.78239440917969 C 77.06458282470703,90.7695083618164 77.22687530517578,91.7178726196289 78.2032699584961,92.59740447998047 C 76.71875,94.12928009033203 75.7341079711914,95.18921661376953 74.49699401855469,95.71348571777344 L 74.4970932006836,95.71348571777344 C 74.81230926513672,95.68573760986328 75.1762924194336,95.66995239257812 75.572998046875,95.66995239257812 C 76.76466369628906,95.66995239257812 78.25154876708984,95.81242370605469 79.5984878540039,96.20133972167969 C 79.59141540527344,96.21837615966797 79.58436584472656,96.23543548583984 79.57733154296875,96.25253295898438 C 79.17106628417969,98.05547332763672 79.94609069824219,99.02220153808594 81.25830841064453,99.60806274414062 C 82.01056671142578,99.8745346069336 82.65376281738281,99.91516876220703 83.35102844238281,100.43162536621094 L 83.35248565673828,100.43253326416016 L 83.38188934326172,100.45305633544922 L 83.38214874267578,100.45332336425781 C 84.10594177246094,100.92868041992188 84.38591766357422,101.53246307373047 84.90765380859375,102.1551513671875 C 85.0985336303711,102.35031127929688 85.2940673828125,102.52220153808594 85.4956283569336,102.66566467285156 L 85.49556732177734,102.66556549072266 C 85.92137908935547,102.96868133544922 86.37352752685547,103.14484405517578 86.86206817626953,103.14484405517578 C 87.37539672851562,103.14484405517578 87.92890167236328,102.9503402709961 88.53423309326172,102.50424194335938 C 88.55241394042969,102.48513793945312 88.5705337524414,102.46602630615234 88.58857727050781,102.4468994140625 C 89.43904113769531,104.03031921386719 90.02566528320312,105.17577362060547 90.16168975830078,106.40727996826172 L 90.16169738769531,106.40727996826172 C 90.36469268798828,105.30433654785156 90.8508071899414,103.66970825195312 91.58914947509766,102.18524932861328 C 91.6785659790039,102.2719955444336 91.77008819580078,102.35831451416016 91.86312103271484,102.4443359375 C 92.43931579589844,102.81407165527344 92.95955657958984,102.97758483886719 93.43538665771484,102.97758483886719 C 94.21216583251953,102.97758483886719 94.87061309814453,102.54183197021484 95.46099853515625,101.85612487792969 C 95.9434814453125,101.20020294189453 96.1850814819336,100.5797348022461 96.87822723388672,100.05745697021484 L 96.8795166015625,100.05624389648438 L 96.90763092041016,100.03380584716797 L 96.907958984375,100.03370666503906 C 97.57208251953125,99.47216796875 98.2123031616211,99.3884506225586 98.94671630859375,99.07270050048828 C 99.18549346923828,98.94683074951172 99.40460968017578,98.80891418457031 99.59969329833984,98.65606689453125 L 99.59953308105469,98.6561050415039 C 100.35799407958984,98.06172943115234 100.75224304199219,97.2430419921875 100.5221176147461,96.04048919677734 C 102.33573913574219,95.64813232421875 103.64457702636719,95.31031036376953 104.80448913574219,95.31031036376953 C 105.1342544555664,95.31031036376953 105.45198059082031,95.33761596679688 105.76585388183594,95.39873504638672 C 104.644775390625,94.7798080444336 102.9643783569336,93.55715942382812 101.7256851196289,92.10636901855469 C 102.77926635742188,91.01568603515625 102.68455505371094,89.85951232910156 102.04280853271484,88.67253875732422 C 101.60132598876953,87.9861068725586 101.11431121826172,87.54792022705078 100.86283874511719,86.69770812988281 L 100.86219024658203,86.69602966308594 L 100.8508529663086,86.66121673583984 L 100.8508529663086,86.66088104248047 C 100.55429077148438,85.82661437988281 100.68524169921875,85.17042541503906 100.63533020019531,84.3466567993164 C 100.59791564941406,84.07123565673828 100.54318237304688,83.81128692626953 100.46709442138672,83.57017517089844 L 100.4670639038086,83.5702133178711 C 100.16998291015625,82.6288833618164 99.54790496826172,81.97498321533203 98.36871337890625,81.81509399414062 C 98.909423828125,79.78302764892578 99.26107788085938,78.38810729980469 100.06999206542969,77.31608581542969 Z" style="fill: rgb(230, 230, 230); stroke-width: 1px; stroke: rgb(38, 38, 38);"/>
<path clip-path="url(#contour)" d="M 33.11836242675781,24.679670333862305 C 33.118350982666016,24.679920196533203 33.11833953857422,24.68016815185547 33.11832809448242,24.680418014526367 C 33.191402435302734,26.25485610961914 33.3282585144043,27.43198585510254 33.49014663696289,28.453187942504883 C 33.490196228027344,28.45319175720215 33.49024963378906,28.453195571899414 33.490299224853516,28.45319938659668 C 33.32835388183594,27.4318790435791 33.191444396972656,26.254587173461914 33.11836242675781,24.679670333862305 Z" style="fill: rgb(230, 230, 230); stroke-width: 1px; stroke: rgb(38, 38, 38);"/>
<path clip-path="url(#contour)" d="M 28.8736629486084,30.920400619506836 C 29.055545806884766,30.95038604736328 29.23208999633789,30.977596282958984 29.404399871826172,31.002595901489258 C 29.404403686523438,31.00259017944336 29.40440559387207,31.00258445739746 29.404407501220703,31.002578735351562 C 29.23209571838379,30.977584838867188 29.0555477142334,30.950382232666016 28.8736629486084,30.920400619506836 Z" style="fill: rgb(230, 230, 230); stroke-width: 1px; stroke: rgb(38, 38, 38);"/>
<path clip-path="url(#contour)" d="M 40.3903694152832,30.02381706237793 C 40.00978088378906,30.13648796081543 39.65244674682617,30.236242294311523 39.3146858215332,30.32512855529785 C 38.43507766723633,30.721881866455078 37.72139358520508,31.089691162109375 37.08725357055664,31.443626403808594 C 37.09871292114258,31.48501968383789 37.10954666137695,31.526676177978516 37.1197509765625,31.568586349487305 C 37.988059997558594,31.091014862060547 39.005191802978516,30.58839225769043 40.3903694152832,30.02381706237793 Z" style="fill: rgb(230, 230, 230); stroke-width: 1px; stroke: rgb(38, 38, 38);"/>
<path clip-path="url(#contour)" d="M 35.87689208984375,35.630897521972656 C 36.10238265991211,36.06542205810547 36.353694915771484,36.524932861328125 36.64921188354492,37.027217864990234 C 36.35369873046875,36.52492904663086 36.10239028930664,36.0654182434082 35.876895904541016,35.630897521972656 L 35.87689208984375,35.630897521972656 Z" style="fill: rgb(230, 230, 230); stroke-width: 1px; stroke: rgb(38, 38, 38);"/>
<path clip-path="url(#contour)" d="M 30.580202102661133,35.73070526123047 C 30.395723342895508,36.148807525634766 30.19038200378418,36.589839935302734 29.95010757446289,37.069278717041016 C 30.19038200378418,36.5898551940918 30.395732879638672,36.14881896972656 30.580223083496094,35.7307243347168 C 30.580215454101562,35.730716705322266 30.580209732055664,35.730712890625 30.580202102661133,35.73070526123047 Z" style="fill: rgb(230, 230, 230); stroke-width: 1px; stroke: rgb(38, 38, 38);"/>
<path clip-path="url(#contour)" d="M 49.06040573120117,37.42396545410156 C 49.06055450439453,37.42404556274414 49.060699462890625,37.424129486083984 49.060848236083984,37.42420959472656 L 49.0611457824707,37.424110412597656 C 49.06089782714844,37.4240608215332 49.06065368652344,37.424015045166016 49.06040573120117,37.42396545410156 Z" style="fill: rgb(230, 230, 230); stroke-width: 1px; stroke: rgb(38, 38, 38);"/>
<path clip-path="url(#contour)" d="M 35.28688430786133,36.07389831542969 C 35.28687286376953,36.07390594482422 35.286865234375,36.073909759521484 35.28685760498047,36.073917388916016 C 36.00709915161133,36.77547073364258 36.7985954284668,37.61565399169922 37.768131256103516,38.802249908447266 C 37.768123626708984,38.802242279052734 37.76811981201172,38.8022346496582 37.76811218261719,38.802223205566406 C 36.79863739013672,37.61570358276367 36.00713348388672,36.77549362182617 35.28688430786133,36.07389831542969 Z" style="fill: rgb(230, 230, 230); stroke-width: 1px; stroke: rgb(38, 38, 38);"/>
<path clip-path="url(#contour)" d="M 37.768131256103516,38.802249908447266 C 37.76813507080078,38.8022575378418 37.76813888549805,38.80226135253906 37.76814270019531,38.80226516723633 C 37.76813888549805,38.80226135253906 37.76813507080078,38.8022575378418 37.768131256103516,38.802249908447266 L 35.28688430786133,36.07389831542969 Z" style="fill: rgb(230, 230, 230); stroke-width: 1px; stroke: rgb(38, 38, 38);"/>
<path clip-path="url(#contour)" d="M 31.190128326416016,36.153564453125 C 30.513004302978516,36.902462005615234 29.773197174072266,37.7945671081543 28.876171112060547,39.04592514038086 C 28.89896583557129,39.00675582885742 28.92153549194336,38.96783447265625 28.94388198852539,38.92915344238281 C 28.921533584594727,38.967838287353516 28.898962020874023,39.00676345825195 28.87616539001465,39.04593276977539 C 28.87616729736328,39.045928955078125 28.876169204711914,39.045928955078125 28.876171112060547,39.04592514038086 C 28.87616729736328,39.04593276977539 28.876163482666016,39.045936584472656 28.87615966796875,39.04594421386719 C 28.876161575317383,39.04594039916992 28.876163482666016,39.045936584472656 28.87616539001465,39.04593276977539 C 28.876096725463867,39.04605484008789 28.876028060913086,39.046173095703125 28.875959396362305,39.04629135131836 C 29.77310562133789,37.79475784301758 30.512990951538086,36.902565002441406 31.190183639526367,36.153594970703125 C 31.190166473388672,36.153587341308594 31.190147399902344,36.1535758972168 31.190128326416016,36.153564453125 Z" style="fill: rgb(230, 230, 230); stroke-width: 1px; stroke: rgb(38, 38, 38);"/>
<path clip-path="url(#contour)" d="M 43.36454391479492,19.341310501098633 C 42.26796340942383,20.12529754638672 40.32077407836914,21.169878005981445 38.42486572265625,21.611392974853516 C 37.909461975097656,20.39116859436035 37.095619201660156,19.945220947265625 36.11017608642578,19.945220947265625 C 35.856388092041016,19.945220947265625 35.591217041015625,19.97480010986328 35.31683349609375,20.02834701538086 C 34.5760383605957,20.2354793548584 34.0325813293457,20.558401107788086 33.225894927978516,20.558401107788086 C 33.19680404663086,20.558401107788086 33.1673698425293,20.557981491088867 33.137569427490234,20.557119369506836 L 33.1358528137207,20.557220458984375 L 33.10041809082031,20.557220458984375 L 33.10019302368164,20.557086944580078 C 33.07035827636719,20.55794906616211 33.04088592529297,20.55837059020996 33.011756896972656,20.55837059020996 C 32.20507049560547,20.55837059020996 31.660720825195312,20.235437393188477 30.91995620727539,20.02831268310547 C 30.656787872314453,19.97698211669922 30.402137756347656,19.94758415222168 30.157819747924805,19.945297241210938 L 30.157623291015625,19.945262908935547 C 30.14723777770996,19.94516372680664 30.136869430541992,19.94511604309082 30.12652015686035,19.94511604309082 C 29.082040786743164,19.94511604309082 28.230148315429688,20.446231842041016 27.72231674194336,21.839462280273438 C 27.722148895263672,21.84038543701172 27.721981048583984,21.841306686401367 27.721811294555664,21.842227935791016 C 25.845504760742188,21.01626968383789 24.555801391601562,20.471460342407227 23.636045455932617,19.49591064453125 L 23.635845184326172,19.49591064453125 C 24.163127899169922,20.56896209716797 24.794448852539062,22.33292007446289 25.06283950805664,24.098628997802734 C 24.999547958374023,24.090497970581055 24.935914993286133,24.082735061645508 24.871997833251953,24.075279235839844 C 23.092491149902344,24.190385818481445 22.4241886138916,25.23952293395996 22.261817932128906,26.713228225708008 C 22.232667922973633,27.538074493408203 22.380430221557617,28.189455032348633 22.104921340942383,29.031557083129883 L 22.10449981689453,29.033340454101562 L 22.094038009643555,29.068490982055664 L 22.093843460083008,29.06875991821289 C 21.863874435424805,29.925495147705078 21.387741088867188,30.377777099609375 20.963756561279297,31.075946807861328 C 20.838829040527344,31.32196807861328 20.736637115478516,31.56597137451172 20.662399291992188,31.80768585205078 L 20.662334442138672,31.807619094848633 C 20.35913848876953,32.794734954833984 20.52142906188965,33.74310302734375 21.497819900512695,34.62263107299805 C 20.013301849365234,36.15450668334961 19.028663635253906,37.21444320678711 17.791545867919922,37.73870849609375 L 17.791645050048828,37.73870849609375 C 18.106863021850586,37.710968017578125 18.470848083496094,37.6951789855957 18.867551803588867,37.6951789855957 C 20.059219360351562,37.6951789855957 21.546104431152344,37.837650299072266 22.89303970336914,38.226566314697266 C 22.885971069335938,38.24359893798828 22.87891960144043,38.26066589355469 22.871883392333984,38.27775955200195 C 22.46561622619629,40.08070373535156 23.240642547607422,41.04743194580078 24.552858352661133,41.6332893371582 C 25.305116653442383,41.89976119995117 25.948318481445312,41.940391540527344 26.645578384399414,42.45685577392578 L 26.647035598754883,42.457763671875 L 26.67644500732422,42.4782829284668 L 26.67670440673828,42.47854995727539 C 27.40049171447754,42.95391082763672 27.680469512939453,43.55769348144531 28.202207565307617,44.180381774902344 C 28.393083572387695,44.37554168701172 28.588621139526367,44.547428131103516 28.790184020996094,44.69089126586914 L 28.790119171142578,44.690792083740234 C 29.215930938720703,44.99390411376953 29.66808319091797,45.17007064819336 30.1566219329834,45.17007064819336 C 30.669952392578125,45.17007064819336 31.22345542907715,44.97557067871094 31.828786849975586,44.52946853637695 C 31.846969604492188,44.5103645324707 31.865087509155273,44.491249084472656 31.883132934570312,44.47212600708008 C 32.73359680175781,46.05554962158203 33.320220947265625,47.20100402832031 33.45624542236328,48.4325065612793 C 33.65924072265625,47.32956314086914 34.14535903930664,45.69493865966797 34.883705139160156,44.21047592163086 C 34.973121643066406,44.29722213745117 35.06464385986328,44.383544921875 35.15767288208008,44.46956253051758 C 35.73387145996094,44.83930206298828 36.25410842895508,45.00281524658203 36.729942321777344,45.00281524658203 C 37.50672149658203,45.00281524658203 38.165164947509766,44.56705856323242 38.75555419921875,43.88135528564453 C 39.238033294677734,43.225433349609375 39.47962951660156,42.60496520996094 40.17277908325195,42.082679748535156 L 40.174072265625,42.08147048950195 L 40.202186584472656,42.05903625488281 L 40.202510833740234,42.05893325805664 C 40.866634368896484,41.497398376464844 41.50685501098633,41.41367721557617 42.241268157958984,41.097923278808594 C 42.480045318603516,40.97205352783203 42.69916534423828,40.834144592285156 42.894248962402344,40.681297302246094 L 42.89408493041992,40.681331634521484 C 43.65254592895508,40.086952209472656 44.04679489135742,39.26826858520508 43.816673278808594,38.06571960449219 C 45.63029479980469,37.67335891723633 46.93913269042969,37.33553695678711 48.09904098510742,37.33553695678711 C 48.42880630493164,37.33553695678711 48.74653625488281,37.36284255981445 49.06040573120117,37.42396545410156 C 47.9393310546875,36.80503463745117 46.258934020996094,35.5823860168457 45.02023696899414,34.131595611572266 C 46.073822021484375,33.040916442871094 45.97911071777344,31.88473892211914 45.33735656738281,30.69776725769043 C 44.89588165283203,30.011337280273438 44.40886688232422,29.573148727416992 44.15739059448242,28.722938537597656 L 44.156742095947266,28.72125816345215 L 44.14540481567383,28.686443328857422 L 44.14540481567383,28.686105728149414 C 43.84884262084961,27.85184097290039 43.97979736328125,27.19565200805664 43.92988204956055,26.37188148498535 C 43.89247131347656,26.096460342407227 43.83773422241211,25.83651351928711 43.76165008544922,25.59540367126465 L 43.761619567871094,25.59543800354004 C 43.464534759521484,24.654109954833984 42.84245681762695,24.000207901000977 41.66326141357422,23.84031867980957 C 42.203975677490234,21.80825424194336 42.55562973022461,20.4133358001709 43.36454391479492,19.341310501098633 Z" style="fill: rgb(230, 230, 230); stroke-width: 1px; stroke: rgb(38, 38, 38);"/>
<path clip-path="url(#contour)" d="M 144.64036560058594,136.44485473632812 C 144.64035034179688,136.44509887695312 144.6403350830078,136.4453582763672 144.64031982421875,136.4456024169922 C 144.71339416503906,138.02003479003906 144.85025024414062,139.19717407226562 145.01214599609375,140.21836853027344 C 145.01219177246094,140.21836853027344 145.0122528076172,140.2183837890625 145.01229858398438,140.2183837890625 C 144.85035705566406,139.1970672607422 144.71343994140625,138.019775390625 144.64036560058594,136.44485473632812 Z" style="fill: rgb(230, 230, 230); stroke-width: 1px; stroke: rgb(38, 38, 38);"/>
<path clip-path="url(#contour)" d="M 140.3956756591797,142.68557739257812 C 140.57754516601562,142.715576171875 140.7541046142578,142.74278259277344 140.9263916015625,142.7677764892578 C 140.92640686035156,142.7677764892578 140.92640686035156,142.76776123046875 140.92640686035156,142.76776123046875 C 140.7541046142578,142.74276733398438 140.57754516601562,142.71556091308594 140.3956756591797,142.68557739257812 Z" style="fill: rgb(230, 230, 230); stroke-width: 1px; stroke: rgb(38, 38, 38);"/>
<path clip-path="url(#contour)" d="M 151.91236877441406,141.78900146484375 C 151.5317840576172,141.90167236328125 151.1744384765625,142.00143432617188 150.83668518066406,142.09031677246094 C 149.9570770263672,142.487060546875 149.24339294433594,142.85487365722656 148.6092529296875,143.2088165283203 C 148.62071228027344,143.2501983642578 148.6315460205078,143.29185485839844 148.64175415039062,143.33377075195312 C 149.5100555419922,142.856201171875 150.52719116210938,142.35357666015625 151.91236877441406,141.78900146484375 Z" style="fill: rgb(230, 230, 230); stroke-width: 1px; stroke: rgb(38, 38, 38);"/>
<path clip-path="url(#contour)" d="M 147.39903259277344,147.3963623046875 C 147.62448120117188,147.830810546875 147.87574768066406,148.29022216796875 148.17120361328125,148.7924041748047 C 147.87576293945312,148.29022216796875 147.62449645996094,147.83079528808594 147.39903259277344,147.3963623046875 Z" style="fill: rgb(230, 230, 230); stroke-width: 1px; stroke: rgb(38, 38, 38);"/>
<path clip-path="url(#contour)" d="M 142.10220336914062,147.4958953857422 C 141.917724609375,147.9139862060547 141.71237182617188,148.3550262451172 141.47210693359375,148.83445739746094 C 141.71237182617188,148.35504150390625 141.917724609375,147.91400146484375 142.1022186279297,147.49591064453125 C 142.1022186279297,147.4958953857422 142.10220336914062,147.4958953857422 142.10220336914062,147.4958953857422 Z" style="fill: rgb(230, 230, 230); stroke-width: 1px; stroke: rgb(38, 38, 38);"/>
<path clip-path="url(#contour)" d="M 160.5823974609375,149.18914794921875 C 160.58255004882812,149.18922424316406 160.58270263671875,149.18931579589844 160.5828399658203,149.18939208984375 L 160.58314514160156,149.18930053710938 C 160.58290100097656,149.18923950195312 160.58265686035156,149.18919372558594 160.5823974609375,149.18914794921875 Z" style="fill: rgb(230, 230, 230); stroke-width: 1px; stroke: rgb(38, 38, 38);"/>
<path clip-path="url(#contour)" d="M 146.8088836669922,147.83908081054688 C 146.80886840820312,147.83909606933594 146.80886840820312,147.83909606933594 146.80885314941406,147.83909606933594 C 147.28851318359375,148.3063201904297 147.7997589111328,148.8350067138672 148.37416076660156,149.48654174804688 C 147.79978942871094,148.83502197265625 147.2885284423828,148.3063201904297 146.8088836669922,147.83908081054688 Z" style="fill: rgb(230, 230, 230); stroke-width: 1px; stroke: rgb(38, 38, 38);"/>
<path clip-path="url(#contour)" d="M 148.3755645751953,149.48814392089844 C 148.66326904296875,149.81451416015625 148.966796875,150.1717071533203 149.2901153564453,150.56741333007812 C 149.2901153564453,150.5674285888672 149.29013061523438,150.56744384765625 149.29014587402344,150.56744384765625 C 148.96681213378906,150.17172241210938 148.66326904296875,149.81451416015625 148.3755645751953,149.48814392089844 L 146.8088836669922,147.83908081054688 Z" style="fill: rgb(230, 230, 230); stroke-width: 1px; stroke: rgb(38, 38, 38);"/>
<path clip-path="url(#contour)" d="M 142.71212768554688,147.9187469482422 C 142.03501892089844,148.66763305664062 141.29522705078125,149.55972290039062 140.39820861816406,150.81105041503906 C 140.41839599609375,150.77635192871094 140.4384002685547,150.7418670654297 140.45823669433594,150.7075653076172 C 140.43838500976562,150.7418975830078 140.41836547851562,150.7764129638672 140.39816284179688,150.8111114501953 C 140.39817810058594,150.81109619140625 140.398193359375,150.81106567382812 140.39820861816406,150.81105041503906 C 140.398193359375,150.81106567382812 140.39817810058594,150.81109619140625 140.39816284179688,150.81112670898438 C 140.39816284179688,150.81112670898438 140.39816284179688,150.81112670898438 140.39816284179688,150.8111114501953 C 140.39810180664062,150.8112335205078 140.3980255126953,150.8113555908203 140.39794921875,150.8114776611328 C 141.29510498046875,149.5599365234375 142.0349884033203,148.66775512695312 142.71218872070312,147.9187774658203 C 142.712158203125,147.91876220703125 142.71214294433594,147.91876220703125 142.71212768554688,147.9187469482422 Z" style="fill: rgb(230, 230, 230); stroke-width: 1px; stroke: rgb(38, 38, 38);"/>
<path clip-path="url(#contour)" d="M 154.88653564453125,131.1064910888672 C 153.7899627685547,131.89048767089844 151.8427734375,132.93505859375 149.94686889648438,133.37657165527344 C 149.43145751953125,132.15635681152344 148.61761474609375,131.7104034423828 147.63217163085938,131.7104034423828 C 147.37838745117188,131.7104034423828 147.11322021484375,131.739990234375 146.83883666992188,131.7935333251953 C 146.09803771972656,132.00067138671875 145.55458068847656,132.32357788085938 144.74789428710938,132.32357788085938 C 144.7187957763672,132.32357788085938 144.68936157226562,132.3231658935547 144.65956115722656,132.3223114013672 L 144.65785217285156,132.32240295410156 L 144.62242126464844,132.32240295410156 L 144.6221923828125,132.322265625 C 144.5923614501953,132.32313537597656 144.56288146972656,132.32354736328125 144.53375244140625,132.32354736328125 C 143.72706604003906,132.32354736328125 143.18272399902344,132.00062561035156 142.44195556640625,131.7935028076172 C 142.1787872314453,131.74217224121094 141.92413330078125,131.7127685546875 141.6798095703125,131.71047973632812 L 141.67962646484375,131.71044921875 C 141.6692352294922,131.71034240722656 141.6588592529297,131.71029663085938 141.6485137939453,131.71029663085938 C 140.60403442382812,131.71029663085938 139.7521514892578,132.21141052246094 139.2443084716797,133.60464477539062 C 139.244140625,133.60557556152344 139.2439727783203,133.6064910888672 139.24380493164062,133.60740661621094 C 137.3675079345703,132.7814483642578 136.0778045654297,132.2366485595703 135.15805053710938,131.26109313964844 L 135.1578369140625,131.26109313964844 C 135.68511962890625,132.3341522216797 136.3164520263672,134.0980987548828 136.5848388671875,135.8638153076172 C 136.52154541015625,135.85568237304688 136.45791625976562,135.84791564941406 136.3939971923828,135.84046936035156 C 134.61448669433594,135.95556640625 133.94618225097656,137.0047149658203 133.7838134765625,138.47840881347656 C 133.75466918945312,139.30325317382812 133.90243530273438,139.9546356201172 133.62692260742188,140.79673767089844 L 133.62649536132812,140.79852294921875 L 133.61602783203125,140.83367919921875 L 133.6158447265625,140.8339385986328 C 133.38587951660156,141.690673828125 132.9097442626953,142.14295959472656 132.48574829101562,142.84112548828125 C 132.36082458496094,143.087158203125 132.25863647460938,143.33116149902344 132.1844024658203,143.5728759765625 L 132.184326171875,143.5727996826172 C 131.88113403320312,144.55992126464844 132.04342651367188,145.50828552246094 133.0198211669922,146.3878173828125 C 131.53529357910156,147.91969299316406 130.5506591796875,148.97962951660156 129.31353759765625,149.50389099121094 L 129.3136444091797,149.50389099121094 C 129.6288604736328,149.4761505126953 129.9928436279297,149.46035766601562 130.38954162597656,149.46035766601562 C 131.5812225341797,149.46035766601562 133.06809997558594,149.6028289794922 134.4150390625,149.9917449951172 C 134.40797424316406,150.0087890625 134.40090942382812,150.02584838867188 134.3938751220703,150.04293823242188 C 133.98760986328125,151.84588623046875 134.76263427734375,152.8126220703125 136.07485961914062,153.39846801757812 C 136.82711791992188,153.66494750976562 137.47032165527344,153.70558166503906 138.16757202148438,154.2220458984375 L 138.16903686523438,154.2229461669922 L 138.1984405517578,154.24346923828125 L 138.19869995117188,154.2437286376953 C 138.9224853515625,154.71908569335938 139.2024688720703,155.3228759765625 139.72421264648438,155.94557189941406 C 139.9150848388672,156.14073181152344 140.11061096191406,156.31260681152344 140.3121795654297,156.45606994628906 L 140.31211853027344,156.4559783935547 C 140.73793029785156,156.75909423828125 141.19007873535156,156.9352569580078 141.67861938476562,156.9352569580078 C 142.19195556640625,156.9352569580078 142.74545288085938,156.74075317382812 143.3507843017578,156.29464721679688 C 143.3689727783203,156.27554321289062 143.3870849609375,156.25643920898438 143.40513610839844,156.2373046875 C 144.25559997558594,157.82073974609375 144.84222412109375,158.9661865234375 144.97824096679688,160.19769287109375 C 145.18124389648438,159.09474182128906 145.6673583984375,157.46011352539062 146.40570068359375,155.9756622314453 C 146.4951171875,156.06240844726562 146.58663940429688,156.1487274169922 146.67967224121094,156.2347412109375 C 147.25587463378906,156.60447692871094 147.77610778808594,156.76800537109375 148.25193786621094,156.76800537109375 C 149.02871704101562,156.76800537109375 149.68716430664062,156.33224487304688 150.27755737304688,155.6465301513672 C 150.76002502441406,154.99061584472656 151.0016326904297,154.37014770507812 151.6947784423828,153.84786987304688 L 151.69607543945312,153.84664916992188 L 151.72418212890625,153.82421875 L 151.72450256347656,153.82411193847656 C 152.3886260986328,153.2625732421875 153.0288543701172,153.17886352539062 153.7632598876953,152.8631134033203 C 154.00204467773438,152.73724365234375 154.22116088867188,152.59933471679688 154.41624450683594,152.4464874267578 L 154.41607666015625,152.44651794433594 C 155.17454528808594,151.85214233398438 155.56878662109375,151.033447265625 155.3386688232422,149.83090209960938 C 157.1522979736328,149.43853759765625 158.4611358642578,149.10072326660156 159.62103271484375,149.10072326660156 C 159.9508056640625,149.10072326660156 160.26853942871094,149.12802124023438 160.5823974609375,149.18914794921875 C 159.46133422851562,148.57022094726562 157.7809295654297,147.34756469726562 156.542236328125,145.8967742919922 C 157.5958251953125,144.8061065673828 157.50111389160156,143.64991760253906 156.85935974121094,142.46295166015625 C 156.41787719726562,141.77651977539062 155.9308624267578,141.3383331298828 155.67938232421875,140.48812866210938 L 155.67874145507812,140.48643493652344 L 155.6674041748047,140.45162963867188 L 155.6674041748047,140.4512939453125 C 155.37083435058594,139.6170196533203 155.50180053710938,138.96083068847656 155.45187377929688,138.13706970214844 C 155.4144744873047,137.8616485595703 155.35972595214844,137.60169982910156 155.2836456298828,137.360595703125 L 155.2836151123047,137.36062622070312 C 154.9865264892578,136.41929626464844 154.3644561767578,135.76539611816406 153.1852569580078,135.60549926757812 C 153.72596740722656,133.5734405517578 154.07762145996094,132.1785125732422 154.88653564453125,131.1064910888672 Z" style="fill: rgb(230, 230, 230); stroke-width: 1px; stroke: rgb(38, 38, 38);"/>
<path clip-path="url(#contour)" d="M 0.0,0.0 L 200.0,0.0 L 200.0,100.0 C 200.0,150.0 160.0,200.0 100.0,230.0 C 40.0,200.0 0.0,150.0 0.0,100.0 L 0.0,0.0 Z" style="fill: none; stroke-width: 1px; stroke: rgb(0, 0, 0);"/>
</g>
</svg>
