<?xml version="1.0" encoding="UTF-8" standalone="no"?>
<svg xmlns="http://www.w3.org/2000/svg" height="246.0" width="216.0">
<defs>
<clipPath id="contour">
<path d="M 0.0,0.0 L 200.0,0.0 L 200.0,100.0 C 200.0,150.0 160.0,200.0 100.0,230.0 C 40.0,200.0 0.0,150.0 0.0,100.0 L 0.0,0.0 Z"/>
</clipPath>
<radialGradient id="lighting">
<stop offset="25%" stop-color="white" stop-opacity="35%"/>
<stop offset="100%" stop-color="white" stop-opacity="0%"/>
</radialGradient>
</defs>
<g transform="translate(8.0,8.0)">
<path clip-path="url(#contour)" comment="FieldBackground" d="M 0.0,0.0 L 0.0,100.0 C 0.0,150.0 40.0,200.0 100.0,230.0 C 160.0,200.0 200.0,150.0 200.0,100.0 L 200.0,0.0 L 0.0,0.0 Z" style="fill-rule: evenodd; fill: rgb(217, 217, 38); stroke-width: 1px; stroke: none;"/>
<path clip-path="url(#contour)" comment="FieldBackground" d="M 0.0,0.0 L 0.0,43.61760330200195 L 30.66666603088379,43.61760330200195 L 30.66666603088379,58.9509391784668 L 30.66666603088379,74.28427124023438 L 61.33333206176758,74.28427124023438 L 61.33333206176758,89.61760711669922 L 61.33333206176758,104.95093536376953 L 92.0,104.95093536376953 L 92.0,120.28427124023438 L 92.0,135.6175994873047 L 122.66666412353516,135.6175994873047 L 122.66666412353516,150.95094299316406 L 122.66666412353516,166.28427124023438 L 153.3333282470703,166.28427124023438 L 153.3333282470703,181.6175994873047 L 153.3333282470703,193.38534545898438 C 165.80093383789062,181.73318481445312 176.1327667236328,169.0264892578125 183.87835693359375,155.71572875976562 L 168.6666717529297,155.71572875976562 L 168.6666717529297,140.3824005126953 L 168.6666717529297,125.04906463623047 L 138.0,125.04906463623047 L 138.0,109.71572875976562 L 138.0,94.38239288330078 L 107.33333587646484,94.38239288330078 L 107.33333587646484,79.04906463623047 L 107.33333587646484,63.715728759765625 L 76.66666412353516,63.715728759765625 L 76.66666412353516,48.38239669799805 L 76.66666412353516,33.0490608215332 L 46.0,33.0490608215332 L 46.0,17.715728759765625 L 46.0,2.3823955059051514 L 15.333333015441895,2.3823955059051514 L 15.333333015441895,0.0 L 0.0,0.0 Z" style="fill-rule: evenodd; fill: rgb(38, 64, 204); stroke-width: 1px; stroke: none;"/>
<path clip-path="url(#contour)" comment="outer shield shape border" d="M 0.0,0.0 L 0.0,100.0 C 0.0,150.0 40.0,200.0 100.0,230.0 C 160.0,200.0 200.0,150.0 200.0,100.0 L 200.0,0.0 L 0.0,0.0 Z" style="fill-rule: evenodd; fill: none; stroke-width: 1px; stroke: rgb(0, 0, 0);"/>
</g>
</svg>
