<?xml version="1.0" encoding="UTF-8" standalone="no"?>
<svg xmlns="http://www.w3.org/2000/svg" height="246.0" width="216.0">
<defs>
<clipPath id="contour">
<path d="M 0.0,0.0 L 200.0,0.0 L 200.0,100.0 C 200.0,150.0 160.0,200.0 100.0,230.0 C 40.0,200.0 0.0,150.0 0.0,100.0 L 0.0,0.0 Z"/>
</clipPath>
<radialGradient id="lighting">
<stop offset="25%" stop-color="white" stop-opacity="35%"/>
<stop offset="100%" stop-color="white" stop-opacity="0%"/>
</radialGradient>
</defs>
<g transform="translate(8.0,8.0)">
<path clip-path="url(#contour)" comment="FieldBackground" d="M 0.0,0.0 L 200.0,0.0 L 200.0,100.0 C 200.0,150.0 160.0,200.0 100.0,230.0 C 40.0,200.0 0.0,150.0 0.0,100.0 L 0.0,0.0 Z" style="fill: rgb(179, 38, 26); stroke-width: 1px; stroke: none;"/>
<path clip-path="url(#contour)" comment="pattern background" d="M 0.0,0.0 L 0.0,21.21320343017578 L 78.78679656982422,100.0 L 18.74393081665039,160.04286193847656 C 23.953516006469727,168.3079833984375 30.161781311035156,176.31600952148438 37.25748062133789,183.95571899414062 L 100.0,121.21320343017578 L 162.74252319335938,183.95571899414062 C 169.8382110595703,176.31600952148438 176.04647827148438,168.3079833984375 181.25607299804688,160.04286193847656 L 121.21320343017578,100.0 L 200.0,21.21320343017578 L 200.0,0.0 L 178.7867889404297,0.0 L 100.0,78.78679656982422 L 21.21320343017578,0.0 L 0.0,0.0 Z" style="fill: rgb(230, 230, 230); stroke-width: 1px; stroke: none;"/>
<path clip-path="url(#contour)" comment="clipped pattern element 0.0, 0.0 clipped and transformed" d="M 0.0,0.0 L 0.0,8.253437995910645 L 2.8118327577431046E-7,8.253437995910645 C 0.029275251552462578,8.305756568908691 0.04511144384741783,8.33445930480957 0.04511144384741783,8.33445930480957 C 0.04511144384741783,8.33445930480957 1.6225111484527588,6.296236515045166 2.5086886882781982,5.268280506134033 L 5.716666221618652,8.334457397460938 C 5.716666221618652,8.334457397460938 3.8737990856170654,4.507951736450195 2.394993305206299,0.0 L 0.0,0.0 Z" style="fill: rgb(38, 38, 38); stroke-width: 1px; stroke: none;"/>
<path clip-path="url(#contour)" comment="clipped pattern element 22.22222222222222, 0.0 clipped and transformed" d="M 19.950925827026367,0.0 C 18.484703063964844,4.509309768676758 16.66666603088379,8.299013137817383 16.66666603088379,8.299013137817383 L 20.317733764648438,5.250547885894775 C 21.13302230834961,6.278524875640869 22.267333984375,8.33445930480957 22.267333984375,8.33445930480957 C 22.267333984375,8.33445930480957 23.84473419189453,6.296236515045166 24.730911254882812,5.268280506134033 L 27.938888549804688,8.334457397460938 C 27.938888549804688,8.334457397460938 27.39397621154785,7.20300817489624 26.658994674682617,5.445791721343994 L 21.21320343017578,0.0 L 19.950925827026367,0.0 Z" style="fill: rgb(38, 38, 38); stroke-width: 1px; stroke: none;"/>
<path clip-path="url(#contour)" comment="clipped pattern element 177.7777777777778, 0.0 clipped and transformed" d="M 178.7867889404297,0.0 L 173.57798767089844,5.20880651473999 C 172.8056182861328,7.082918167114258 172.22222900390625,8.299013137817383 172.22222900390625,8.299013137817383 L 175.873291015625,5.250547885894775 C 176.68858337402344,6.278524875640869 177.82289123535156,8.33445930480957 177.82289123535156,8.33445930480957 C 177.82289123535156,8.33445930480957 179.40028381347656,6.296236515045166 180.28646850585938,5.268280506134033 L 183.49444580078125,8.334457397460938 C 183.49444580078125,8.334457397460938 181.65158081054688,4.507951736450195 180.1727752685547,0.0 L 178.7867889404297,0.0 Z" style="fill: rgb(38, 38, 38); stroke-width: 1px; stroke: none;"/>
<path clip-path="url(#contour)" comment="clipped pattern element 200.00000000000003, 0.0 clipped and transformed" d="M 197.72869873046875,0.0 C 196.26248168945312,4.509309768676758 194.44444274902344,8.299013137817383 194.44444274902344,8.299013137817383 L 198.0955047607422,5.250547885894775 C 198.81446838378906,6.15706205368042 199.78150939941406,7.862965106964111 200.0,8.253437995910645 L 200.0,0.0 L 197.72869873046875,0.0 Z" style="fill: rgb(38, 38, 38); stroke-width: 1px; stroke: none;"/>
<path clip-path="url(#contour)" comment="clipped pattern element 0.0, 27.77777777777778 clipped and transformed" d="M 11.29675579071045,13.890010833740234 C 10.095377922058105,13.890010833740234 9.120333671569824,14.8650484085083 9.120333671569824,16.066438674926758 C 9.120333671569824,17.2678279876709 10.095377922058105,18.242870330810547 11.29675579071045,18.242870330810547 C 12.49815559387207,18.242870330810547 13.473199844360352,17.2678279876709 13.473199844360352,16.066438674926758 C 13.473199844360352,14.8650484085083 12.49815559387207,13.890010833740234 11.29675579071045,13.890010833740234 Z" style="fill: rgb(38, 38, 38); stroke-width: 1px; stroke: none;"/>
<path clip-path="url(#contour)" comment="clipped pattern element 0.0, 27.77777777777778 clipped and transformed" d="M 8.162711143493652,17.72052764892578 C 6.961311340332031,17.72052764892578 5.98626708984375,18.695568084716797 5.98626708984375,19.89695930480957 C 5.98626708984375,21.09834861755371 6.961311340332031,22.07339096069336 8.162711143493652,22.07339096069336 C 9.364089012145996,22.07339096069336 10.339133262634277,21.09834861755371 10.339133262634277,19.89695930480957 C 10.339133262634277,18.695568084716797 9.364089012145996,17.72052764892578 8.162711143493652,17.72052764892578 Z" style="fill: rgb(38, 38, 38); stroke-width: 1px; stroke: none;"/>
<path clip-path="url(#contour)" comment="clipped pattern element 0.0, 27.77777777777778 clipped and transformed" d="M 14.430822372436523,17.72052764892578 C 13.22944450378418,17.72052764892578 12.254400253295898,18.695568084716797 12.254400253295898,19.89695930480957 C 12.254400253295898,21.09834861755371 13.22944450378418,22.07339096069336 14.430822372436523,22.07339096069336 C 15.632222175598145,22.07339096069336 16.607267379760742,21.09834861755371 16.607267379760742,19.89695930480957 C 16.607267379760742,18.695568084716797 15.632222175598145,17.72052764892578 14.430822372436523,17.72052764892578 Z" style="fill: rgb(38, 38, 38); stroke-width: 1px; stroke: none;"/>
<path clip-path="url(#contour)" comment="clipped pattern element 0.0, 27.77777777777778 clipped and transformed" d="M 10.659955978393555,18.743101119995117 C 10.626193046569824,22.001440048217773 9.466724395751953,26.087976455688477 8.261497497558594,29.474700927734375 L 12.809333801269531,34.02253723144531 C 13.099921226501465,33.66383743286133 13.384273529052734,33.31926727294922 13.619799613952637,33.046058654785156 L 16.827777862548828,36.11223602294922 C 16.827777862548828,36.11223602294922 11.723377227783203,25.51352310180664 11.687933921813965,18.813997268676758 L 10.659955978393555,18.743101119995117 Z" style="fill: rgb(38, 38, 38); stroke-width: 1px; stroke: none;"/>
<path clip-path="url(#contour)" comment="clipped pattern element 22.22222222222222, 27.77777777777778 clipped and transformed" d="M 33.518978118896484,13.890010833740234 C 32.31760025024414,13.890010833740234 31.34255599975586,14.8650484085083 31.34255599975586,16.066438674926758 C 31.34255599975586,17.2678279876709 32.31760025024414,18.242870330810547 33.518978118896484,18.242870330810547 C 34.72037887573242,18.242870330810547 35.6954231262207,17.2678279876709 35.6954231262207,16.066438674926758 C 35.6954231262207,14.8650484085083 34.72037887573242,13.890010833740234 33.518978118896484,13.890010833740234 Z" style="fill: rgb(38, 38, 38); stroke-width: 1px; stroke: none;"/>
<path clip-path="url(#contour)" comment="clipped pattern element 22.22222222222222, 27.77777777777778 clipped and transformed" d="M 30.384933471679688,17.72052764892578 C 29.18353271484375,17.72052764892578 28.20848846435547,18.695568084716797 28.20848846435547,19.89695930480957 C 28.20848846435547,21.09834861755371 29.18353271484375,22.07339096069336 30.384933471679688,22.07339096069336 C 31.58631134033203,22.07339096069336 32.56135559082031,21.09834861755371 32.56135559082031,19.89695930480957 C 32.56135559082031,18.695568084716797 31.58631134033203,17.72052764892578 30.384933471679688,17.72052764892578 Z" style="fill: rgb(38, 38, 38); stroke-width: 1px; stroke: none;"/>
<path clip-path="url(#contour)" comment="clipped pattern element 22.22222222222222, 27.77777777777778 clipped and transformed" d="M 36.653045654296875,17.72052764892578 C 35.45166778564453,17.72052764892578 34.47662353515625,18.695568084716797 34.47662353515625,19.89695930480957 C 34.47662353515625,21.09834861755371 35.45166778564453,22.07339096069336 36.653045654296875,22.07339096069336 C 37.85444641113281,22.07339096069336 38.829490661621094,21.09834861755371 38.829490661621094,19.89695930480957 C 38.829490661621094,18.695568084716797 37.85444641113281,17.72052764892578 36.653045654296875,17.72052764892578 Z" style="fill: rgb(38, 38, 38); stroke-width: 1px; stroke: none;"/>
<path clip-path="url(#contour)" comment="clipped pattern element 22.22222222222222, 27.77777777777778 clipped and transformed" d="M 32.882179260253906,18.743101119995117 C 32.8112907409668,25.584413528442383 27.77777862548828,36.07678985595703 27.77777862548828,36.07678985595703 L 31.428844451904297,33.028324127197266 C 32.24413299560547,34.05630111694336 33.37844467163086,36.11223602294922 33.37844467163086,36.11223602294922 C 33.37844467163086,36.11223602294922 34.95584487915039,34.074012756347656 35.84202194213867,33.046058654785156 L 39.04999923706055,36.11223602294922 C 39.04999923706055,36.11223602294922 33.94559860229492,25.51352310180664 33.91015625,18.813997268676758 L 32.882179260253906,18.743101119995117 Z" style="fill: rgb(38, 38, 38); stroke-width: 1px; stroke: none;"/>
<path clip-path="url(#contour)" comment="clipped pattern element 44.44444444444444, 27.77777777777778 clipped and transformed" d="M 52.16287612915039,30.94967269897461 C 51.02889633178711,33.93205642700195 50.0,36.07678985595703 50.0,36.07678985595703 L 53.651065826416016,33.028324127197266 C 54.46635437011719,34.05630111694336 55.60066604614258,36.11223602294922 55.60066604614258,36.11223602294922 C 55.60066604614258,36.11223602294922 55.922874450683594,35.69589614868164 56.35785675048828,35.1446533203125 L 52.16287612915039,30.94967269897461 Z" style="fill: rgb(38, 38, 38); stroke-width: 1px; stroke: none;"/>
<path clip-path="url(#contour)" comment="clipped pattern element 133.33333333333334, 27.77777777777778 clipped and transformed" d="M 147.93324279785156,30.853548049926758 L 143.82443237304688,34.96236038208008 C 144.20791625976562,35.60176086425781 144.48956298828125,36.11223602294922 144.48956298828125,36.11223602294922 C 144.48956298828125,36.11223602294922 146.06695556640625,34.074012756347656 146.95314025878906,33.046058654785156 L 150.16111755371094,36.11223602294922 C 150.16111755371094,36.11223602294922 149.09463500976562,33.8978157043457 147.93324279785156,30.853548049926758 Z" style="fill: rgb(38, 38, 38); stroke-width: 1px; stroke: none;"/>
<path clip-path="url(#contour)" comment="clipped pattern element 155.55555555555557, 27.77777777777778 clipped and transformed" d="M 166.85231018066406,13.890010833740234 C 165.65093994140625,13.890010833740234 164.67588806152344,14.8650484085083 164.67588806152344,16.066438674926758 C 164.67588806152344,17.2678279876709 165.65093994140625,18.242870330810547 166.85231018066406,18.242870330810547 C 168.0537109375,18.242870330810547 169.02874755859375,17.2678279876709 169.02874755859375,16.066438674926758 C 169.02874755859375,14.8650484085083 168.0537109375,13.890010833740234 166.85231018066406,13.890010833740234 Z" style="fill: rgb(38, 38, 38); stroke-width: 1px; stroke: none;"/>
<path clip-path="url(#contour)" comment="clipped pattern element 155.55555555555557, 27.77777777777778 clipped and transformed" d="M 163.71826171875,17.72052764892578 C 162.51686096191406,17.72052764892578 161.5418243408203,18.695568084716797 161.5418243408203,19.89695930480957 C 161.5418243408203,21.09834861755371 162.51686096191406,22.07339096069336 163.71826171875,22.07339096069336 C 164.91964721679688,22.07339096069336 165.89468383789062,21.09834861755371 165.89468383789062,19.89695930480957 C 165.89468383789062,18.695568084716797 164.91964721679688,17.72052764892578 163.71826171875,17.72052764892578 Z" style="fill: rgb(38, 38, 38); stroke-width: 1px; stroke: none;"/>
<path clip-path="url(#contour)" comment="clipped pattern element 155.55555555555557, 27.77777777777778 clipped and transformed" d="M 169.9863739013672,17.72052764892578 C 168.78500366210938,17.72052764892578 167.80995178222656,18.695568084716797 167.80995178222656,19.89695930480957 C 167.80995178222656,21.09834861755371 168.78500366210938,22.07339096069336 169.9863739013672,22.07339096069336 C 171.18777465820312,22.07339096069336 172.16282653808594,21.09834861755371 172.16282653808594,19.89695930480957 C 172.16282653808594,18.695568084716797 171.18777465820312,17.72052764892578 169.9863739013672,17.72052764892578 Z" style="fill: rgb(38, 38, 38); stroke-width: 1px; stroke: none;"/>
<path clip-path="url(#contour)" comment="clipped pattern element 155.55555555555557, 27.77777777777778 clipped and transformed" d="M 166.21551513671875,18.743101119995117 C 166.14462280273438,25.584413528442383 161.11111450195312,36.07678985595703 161.11111450195312,36.07678985595703 L 164.76217651367188,33.028324127197266 C 165.5774688720703,34.05630111694336 166.71177673339844,36.11223602294922 166.71177673339844,36.11223602294922 C 166.71177673339844,36.11223602294922 168.2891845703125,34.074012756347656 169.17535400390625,33.046058654785156 L 172.38333129882812,36.11223602294922 C 172.38333129882812,36.11223602294922 167.2789306640625,25.51352310180664 167.2434844970703,18.813997268676758 L 166.21551513671875,18.743101119995117 Z" style="fill: rgb(38, 38, 38); stroke-width: 1px; stroke: none;"/>
<path clip-path="url(#contour)" comment="clipped pattern element 177.7777777777778, 27.77777777777778 clipped and transformed" d="M 189.0745391845703,13.890010833740234 C 187.87315368652344,13.890010833740234 186.8981170654297,14.8650484085083 186.8981170654297,16.066438674926758 C 186.8981170654297,17.2678279876709 187.87315368652344,18.242870330810547 189.0745391845703,18.242870330810547 C 190.27593994140625,18.242870330810547 191.2509765625,17.2678279876709 191.2509765625,16.066438674926758 C 191.2509765625,14.8650484085083 190.27593994140625,13.890010833740234 189.0745391845703,13.890010833740234 Z" style="fill: rgb(38, 38, 38); stroke-width: 1px; stroke: none;"/>
<path clip-path="url(#contour)" comment="clipped pattern element 177.7777777777778, 27.77777777777778 clipped and transformed" d="M 185.94049072265625,17.72052764892578 C 184.7390899658203,17.72052764892578 183.7640380859375,18.695568084716797 183.7640380859375,19.89695930480957 C 183.7640380859375,21.09834861755371 184.7390899658203,22.07339096069336 185.94049072265625,22.07339096069336 C 187.14186096191406,22.07339096069336 188.11691284179688,21.09834861755371 188.11691284179688,19.89695930480957 C 188.11691284179688,18.695568084716797 187.14186096191406,17.72052764892578 185.94049072265625,17.72052764892578 Z" style="fill: rgb(38, 38, 38); stroke-width: 1px; stroke: none;"/>
<path clip-path="url(#contour)" comment="clipped pattern element 177.7777777777778, 27.77777777777778 clipped and transformed" d="M 192.20860290527344,17.72052764892578 C 191.00721740722656,17.72052764892578 190.0321807861328,18.695568084716797 190.0321807861328,19.89695930480957 C 190.0321807861328,21.09834861755371 191.00721740722656,22.07339096069336 192.20860290527344,22.07339096069336 C 193.41000366210938,22.07339096069336 194.38504028320312,21.09834861755371 194.38504028320312,19.89695930480957 C 194.38504028320312,18.695568084716797 193.41000366210938,17.72052764892578 192.20860290527344,17.72052764892578 Z" style="fill: rgb(38, 38, 38); stroke-width: 1px; stroke: none;"/>
<path clip-path="url(#contour)" comment="clipped pattern element 177.7777777777778, 27.77777777777778 clipped and transformed" d="M 188.43772888183594,18.743101119995117 C 188.36685180664062,25.584413528442383 183.3333282470703,36.07678985595703 183.3333282470703,36.07678985595703 L 186.98440551757812,33.028324127197266 C 187.14364624023438,33.22911834716797 187.3150634765625,33.4691276550293 187.48782348632812,33.72537612915039 L 191.83323669433594,29.379966735839844 C 190.6279754638672,26.005374908447266 189.48243713378906,21.97552490234375 189.46571350097656,18.813997268676758 L 188.43772888183594,18.743101119995117 Z" style="fill: rgb(38, 38, 38); stroke-width: 1px; stroke: none;"/>
<path clip-path="url(#contour)" comment="clipped pattern element 22.22222222222222, 55.55555555555556 clipped and transformed" d="M 22.407867431640625,41.667789459228516 C 21.86392593383789,41.667789459228516 21.366384506225586,41.8676643371582 20.984729766845703,42.197933197021484 L 24.054161071777344,45.267364501953125 C 24.384431838989258,44.88570785522461 24.58431053161621,44.38816452026367 24.58431053161621,43.844215393066406 C 24.58431053161621,42.642826080322266 23.60926628112793,41.667789459228516 22.407867431640625,41.667789459228516 Z" style="fill: rgb(38, 38, 38); stroke-width: 1px; stroke: none;"/>
<path clip-path="url(#contour)" comment="clipped pattern element 22.22222222222222, 55.55555555555556 clipped and transformed" d="M 25.541933059692383,45.49830627441406 C 25.177858352661133,45.49830627441406 24.83456802368164,45.587852478027344 24.53290367126465,45.7461051940918 L 27.47057342529297,48.68377685546875 C 27.628829956054688,48.382110595703125 27.7183780670166,48.038818359375 27.7183780670166,47.67473602294922 C 27.7183780670166,46.47334671020508 26.74333381652832,45.49830627441406 25.541933059692383,45.49830627441406 Z" style="fill: rgb(38, 38, 38); stroke-width: 1px; stroke: none;"/>
<path clip-path="url(#contour)" comment="clipped pattern element 44.44444444444444, 55.55555555555556 clipped and transformed" d="M 44.630088806152344,41.667789459228516 C 43.4287109375,41.667789459228516 42.45366668701172,42.642826080322266 42.45366668701172,43.844215393066406 C 42.45366668701172,45.04560470581055 43.4287109375,46.02064895629883 44.630088806152344,46.02064895629883 C 45.83148956298828,46.02064895629883 46.80653381347656,45.04560470581055 46.80653381347656,43.844215393066406 C 46.80653381347656,42.642826080322266 45.83148956298828,41.667789459228516 44.630088806152344,41.667789459228516 Z" style="fill: rgb(38, 38, 38); stroke-width: 1px; stroke: none;"/>
<path clip-path="url(#contour)" comment="clipped pattern element 44.44444444444444, 55.55555555555556 clipped and transformed" d="M 41.49604415893555,45.49830627441406 C 40.29464340209961,45.49830627441406 39.31959915161133,46.47334671020508 39.31959915161133,47.67473602294922 C 39.31959915161133,48.87612533569336 40.29464340209961,49.85116958618164 41.49604415893555,49.85116958618164 C 42.69742202758789,49.85116958618164 43.67246627807617,48.87612533569336 43.67246627807617,47.67473602294922 C 43.67246627807617,46.47334671020508 42.69742202758789,45.49830627441406 41.49604415893555,45.49830627441406 Z" style="fill: rgb(38, 38, 38); stroke-width: 1px; stroke: none;"/>
<path clip-path="url(#contour)" comment="clipped pattern element 44.44444444444444, 55.55555555555556 clipped and transformed" d="M 47.764156341552734,45.49830627441406 C 46.56277847290039,45.49830627441406 45.58773422241211,46.47334671020508 45.58773422241211,47.67473602294922 C 45.58773422241211,48.87612533569336 46.56277847290039,49.85116958618164 47.764156341552734,49.85116958618164 C 48.96555709838867,49.85116958618164 49.94060134887695,48.87612533569336 49.94060134887695,47.67473602294922 C 49.94060134887695,46.47334671020508 48.96555709838867,45.49830627441406 47.764156341552734,45.49830627441406 Z" style="fill: rgb(38, 38, 38); stroke-width: 1px; stroke: none;"/>
<path clip-path="url(#contour)" comment="clipped pattern element 44.44444444444444, 55.55555555555556 clipped and transformed" d="M 43.993289947509766,46.520877838134766 C 43.94436264038086,51.2427864074707 41.53132247924805,57.704002380371094 40.04092788696289,61.25413131713867 L 40.93388748168945,62.147090911865234 L 42.539955139160156,60.80610275268555 C 43.35524368286133,61.83407974243164 44.48955535888672,63.8900146484375 44.48955535888672,63.8900146484375 C 44.48955535888672,63.8900146484375 46.06695556640625,61.85179138183594 46.95313262939453,60.82383728027344 L 50.161109924316406,63.8900146484375 C 50.161109924316406,63.8900146484375 45.05670928955078,53.29130172729492 45.02126693725586,46.591773986816406 L 43.993289947509766,46.520877838134766 Z" style="fill: rgb(38, 38, 38); stroke-width: 1px; stroke: none;"/>
<path clip-path="url(#contour)" comment="clipped pattern element 66.66666666666666, 55.55555555555556 clipped and transformed" d="M 64.70441436767578,43.4912109375 C 64.6856460571289,43.60611343383789 64.67588806152344,43.72403335571289 64.67588806152344,43.844215393066406 C 64.67588806152344,45.04560470581055 65.65093231201172,46.02064895629883 66.85231018066406,46.02064895629883 C 66.97249603271484,46.02064895629883 67.09042358398438,46.01089096069336 67.20532989501953,45.992122650146484 L 64.70441436767578,43.4912109375 Z" style="fill: rgb(38, 38, 38); stroke-width: 1px; stroke: none;"/>
<path clip-path="url(#contour)" comment="clipped pattern element 66.66666666666666, 55.55555555555556 clipped and transformed" d="M 63.718265533447266,45.49830627441406 C 62.516868591308594,45.49830627441406 61.54182434082031,46.47334671020508 61.54182434082031,47.67473602294922 C 61.54182434082031,48.87612533569336 62.516868591308594,49.85116958618164 63.718265533447266,49.85116958618164 C 64.91964721679688,49.85116958618164 65.89469146728516,48.87612533569336 65.89469146728516,47.67473602294922 C 65.89469146728516,46.47334671020508 64.91964721679688,45.49830627441406 63.718265533447266,45.49830627441406 Z" style="fill: rgb(38, 38, 38); stroke-width: 1px; stroke: none;"/>
<path clip-path="url(#contour)" comment="clipped pattern element 66.66666666666666, 55.55555555555556 clipped and transformed" d="M 67.99927520751953,46.78607177734375 C 67.87762451171875,47.057456970214844 67.8099594116211,47.35824203491211 67.8099594116211,47.67473602294922 C 67.8099594116211,48.87612533569336 68.78500366210938,49.85116958618164 69.98638153076172,49.85116958618164 C 70.30287170410156,49.85116958618164 70.6036605834961,49.78350067138672 70.87505340576172,49.66184997558594 L 67.99927520751953,46.78607177734375 Z" style="fill: rgb(38, 38, 38); stroke-width: 1px; stroke: none;"/>
<path clip-path="url(#contour)" comment="clipped pattern element 66.66666666666666, 55.55555555555556 clipped and transformed" d="M 66.21550750732422,46.520877838134766 C 66.14462280273438,53.36219024658203 61.11111068725586,63.85456848144531 61.11111068725586,63.85456848144531 L 64.76217651367188,60.80610275268555 C 65.57746887207031,61.83407974243164 66.71177673339844,63.8900146484375 66.71177673339844,63.8900146484375 C 66.71177673339844,63.8900146484375 68.28917694091797,61.85179138183594 69.17535400390625,60.82383728027344 L 72.38333129882812,63.8900146484375 C 72.38333129882812,63.8900146484375 67.2789306640625,53.29130172729492 67.24349212646484,46.591773986816406 L 66.21550750732422,46.520877838134766 L 66.71177673339844,63.8900146484375 Z" style="fill: rgb(38, 38, 38); stroke-width: 1px; stroke: none;"/>
<path clip-path="url(#contour)" comment="clipped pattern element 88.88888888888889, 55.55555555555556 clipped and transformed" d="M 83.877197265625,62.663997650146484 C 83.54293823242188,63.41765213012695 83.33333587646484,63.85456848144531 83.33333587646484,63.85456848144531 L 84.27855682373047,63.06535339355469 L 83.877197265625,62.663997650146484 Z" style="fill: rgb(38, 38, 38); stroke-width: 1px; stroke: none;"/>
<path clip-path="url(#contour)" comment="clipped pattern element 111.11111111111111, 55.55555555555556 clipped and transformed" d="M 116.22147369384766,62.56532287597656 L 115.84046173095703,62.94633483886719 L 116.82777404785156,63.8900146484375 C 116.82777404785156,63.8900146484375 116.59201049804688,63.40047836303711 116.22147369384766,62.56532287597656 Z" style="fill: rgb(38, 38, 38); stroke-width: 1px; stroke: none;"/>
<path clip-path="url(#contour)" comment="clipped pattern element 133.33333333333334, 55.55555555555556 clipped and transformed" d="M 135.5956268310547,43.1911735534668 L 132.86595153808594,45.92084884643555 C 133.07211303710938,45.985687255859375 133.29148864746094,46.02064895629883 133.51898193359375,46.02064895629883 C 134.7203826904297,46.02064895629883 135.69541931152344,45.04560470581055 135.69541931152344,43.844215393066406 C 135.69541931152344,43.61672592163086 135.66046142578125,43.3973503112793 135.5956268310547,43.1911735534668 Z" style="fill: rgb(38, 38, 38); stroke-width: 1px; stroke: none;"/>
<path clip-path="url(#contour)" comment="clipped pattern element 133.33333333333334, 55.55555555555556 clipped and transformed" d="M 132.24392700195312,46.54286575317383 L 130.40736389160156,48.37942886352539 L 129.2530517578125,49.53374481201172 C 129.58290100097656,49.735111236572266 129.97044372558594,49.85116958618164 130.3849334716797,49.85116958618164 C 131.58631896972656,49.85116958618164 132.5613555908203,48.87612533569336 132.5613555908203,47.67473602294922 C 132.5613555908203,47.26025390625 132.44529724121094,46.872718811035156 132.24392700195312,46.54286575317383 Z" style="fill: rgb(38, 38, 38); stroke-width: 1px; stroke: none;"/>
<path clip-path="url(#contour)" comment="clipped pattern element 133.33333333333334, 55.55555555555556 clipped and transformed" d="M 136.65304565429688,45.49830627441406 C 135.45166015625,45.49830627441406 134.47662353515625,46.47334671020508 134.47662353515625,47.67473602294922 C 134.47662353515625,48.87612533569336 135.45166015625,49.85116958618164 136.65304565429688,49.85116958618164 C 137.8544464111328,49.85116958618164 138.82948303222656,48.87612533569336 138.82948303222656,47.67473602294922 C 138.82948303222656,46.47334671020508 137.8544464111328,45.49830627441406 136.65304565429688,45.49830627441406 Z" style="fill: rgb(38, 38, 38); stroke-width: 1px; stroke: none;"/>
<path clip-path="url(#contour)" comment="clipped pattern element 133.33333333333334, 55.55555555555556 clipped and transformed" d="M 132.88217163085938,46.520877838134766 C 132.81129455566406,53.36219024658203 127.77777862548828,63.85456848144531 127.77777862548828,63.85456848144531 L 131.42884826660156,60.80610275268555 C 132.244140625,61.83407974243164 133.37844848632812,63.8900146484375 133.37844848632812,63.8900146484375 C 133.37844848632812,63.8900146484375 134.95584106445312,61.85179138183594 135.84202575683594,60.82383728027344 L 139.0500030517578,63.8900146484375 C 139.0500030517578,63.8900146484375 133.9456024169922,53.29130172729492 133.91015625,46.591773986816406 L 132.88217163085938,46.520877838134766 L 133.37844848632812,63.8900146484375 Z" style="fill: rgb(38, 38, 38); stroke-width: 1px; stroke: none;"/>
<path clip-path="url(#contour)" comment="clipped pattern element 155.55555555555557, 55.55555555555556 clipped and transformed" d="M 155.74119567871094,41.667789459228516 C 154.53982543945312,41.667789459228516 153.5647735595703,42.642826080322266 153.5647735595703,43.844215393066406 C 153.5647735595703,45.04560470581055 154.53982543945312,46.02064895629883 155.74119567871094,46.02064895629883 C 156.94259643554688,46.02064895629883 157.9176483154297,45.04560470581055 157.9176483154297,43.844215393066406 C 157.9176483154297,42.642826080322266 156.94259643554688,41.667789459228516 155.74119567871094,41.667789459228516 Z" style="fill: rgb(38, 38, 38); stroke-width: 1px; stroke: none;"/>
<path clip-path="url(#contour)" comment="clipped pattern element 155.55555555555557, 55.55555555555556 clipped and transformed" d="M 152.60716247558594,45.49830627441406 C 151.40576171875,45.49830627441406 150.4307098388672,46.47334671020508 150.4307098388672,47.67473602294922 C 150.4307098388672,48.87612533569336 151.40576171875,49.85116958618164 152.60716247558594,49.85116958618164 C 153.80853271484375,49.85116958618164 154.78358459472656,48.87612533569336 154.78358459472656,47.67473602294922 C 154.78358459472656,46.47334671020508 153.80853271484375,45.49830627441406 152.60716247558594,45.49830627441406 Z" style="fill: rgb(38, 38, 38); stroke-width: 1px; stroke: none;"/>
<path clip-path="url(#contour)" comment="clipped pattern element 155.55555555555557, 55.55555555555556 clipped and transformed" d="M 158.87527465820312,45.49830627441406 C 157.67388916015625,45.49830627441406 156.6988525390625,46.47334671020508 156.6988525390625,47.67473602294922 C 156.6988525390625,48.87612533569336 157.67388916015625,49.85116958618164 158.87527465820312,49.85116958618164 C 160.07666015625,49.85116958618164 161.0517120361328,48.87612533569336 161.0517120361328,47.67473602294922 C 161.0517120361328,46.47334671020508 160.07666015625,45.49830627441406 158.87527465820312,45.49830627441406 Z" style="fill: rgb(38, 38, 38); stroke-width: 1px; stroke: none;"/>
<path clip-path="url(#contour)" comment="clipped pattern element 155.55555555555557, 55.55555555555556 clipped and transformed" d="M 155.10440063476562,46.520877838134766 C 155.03350830078125,53.36219024658203 150.0,63.85456848144531 150.0,63.85456848144531 L 153.65106201171875,60.80610275268555 C 154.4663543701172,61.83407974243164 155.6006622314453,63.8900146484375 155.6006622314453,63.8900146484375 C 155.6006622314453,63.8900146484375 157.17807006835938,61.85179138183594 158.06423950195312,60.82383728027344 L 159.25308227539062,61.960121154785156 L 160.0572052001953,61.15599822998047 C 158.54510498046875,57.56144714355469 156.15658569335938,51.16726303100586 156.13238525390625,46.591773986816406 L 155.10440063476562,46.520877838134766 Z" style="fill: rgb(38, 38, 38); stroke-width: 1px; stroke: none;"/>
<path clip-path="url(#contour)" comment="clipped pattern element 177.7777777777778, 55.55555555555556 clipped and transformed" d="M 177.9634246826172,41.667789459228516 C 176.7620391845703,41.667789459228516 175.78700256347656,42.642826080322266 175.78700256347656,43.844215393066406 C 175.78700256347656,44.29306411743164 175.923095703125,44.710323333740234 176.15626525878906,45.056941986083984 L 179.17616271972656,42.037044525146484 C 178.8295440673828,41.803890228271484 178.4122772216797,41.667789459228516 177.9634246826172,41.667789459228516 Z" style="fill: rgb(38, 38, 38); stroke-width: 1px; stroke: none;"/>
<path clip-path="url(#contour)" comment="clipped pattern element 177.7777777777778, 55.55555555555556 clipped and transformed" d="M 174.82937622070312,45.49830627441406 C 173.6279754638672,45.49830627441406 172.65293884277344,46.47334671020508 172.65293884277344,47.67473602294922 C 172.65293884277344,47.939002990722656 172.70010375976562,48.19231414794922 172.7864990234375,48.42670440673828 L 175.58132934570312,45.631866455078125 C 175.34695434570312,45.54548263549805 175.09364318847656,45.49830627441406 174.82937622070312,45.49830627441406 Z" style="fill: rgb(38, 38, 38); stroke-width: 1px; stroke: none;"/>
<path clip-path="url(#contour)" comment="clipped pattern element 44.44444444444444, 83.33333333333334 clipped and transformed" d="M 55.7411994934082,69.44556427001953 C 54.53982162475586,69.44556427001953 53.56477737426758,70.42060089111328 53.56477737426758,71.62199401855469 C 53.56477737426758,72.8233871459961 54.53982162475586,73.79842376708984 55.7411994934082,73.79842376708984 C 56.94260025024414,73.79842376708984 57.91764450073242,72.8233871459961 57.91764450073242,71.62199401855469 C 57.91764450073242,70.42060089111328 56.94260025024414,69.44556427001953 55.7411994934082,69.44556427001953 Z" style="fill: rgb(38, 38, 38); stroke-width: 1px; stroke: none;"/>
<path clip-path="url(#contour)" comment="clipped pattern element 44.44444444444444, 83.33333333333334 clipped and transformed" d="M 52.607154846191406,73.27608489990234 C 52.43902587890625,73.27608489990234 52.27532958984375,73.29518127441406 52.11811828613281,73.3313217163086 L 53.4232292175293,74.63643646240234 L 54.72834396362305,75.94154357910156 C 54.76448059082031,75.78433990478516 54.78357696533203,75.62064361572266 54.78357696533203,75.4525146484375 C 54.78357696533203,74.2511215209961 53.80853271484375,73.27608489990234 52.607154846191406,73.27608489990234 Z" style="fill: rgb(38, 38, 38); stroke-width: 1px; stroke: none;"/>
<path clip-path="url(#contour)" comment="clipped pattern element 44.44444444444444, 83.33333333333334 clipped and transformed" d="M 58.875267028808594,73.27608489990234 C 57.67388916015625,73.27608489990234 56.69884490966797,74.2511215209961 56.69884490966797,75.4525146484375 C 56.69884490966797,76.65390014648438 57.67388916015625,77.62894439697266 58.875267028808594,77.62894439697266 C 60.07666778564453,77.62894439697266 61.05171203613281,76.65390014648438 61.05171203613281,75.4525146484375 C 61.05171203613281,74.2511215209961 60.07666778564453,73.27608489990234 58.875267028808594,73.27608489990234 Z" style="fill: rgb(38, 38, 38); stroke-width: 1px; stroke: none;"/>
<path clip-path="url(#contour)" comment="clipped pattern element 44.44444444444444, 83.33333333333334 clipped and transformed" d="M 55.104400634765625,74.29866027832031 C 55.0981330871582,74.9035873413086 55.053062438964844,75.53706359863281 54.976104736328125,76.1893081665039 L 56.4714241027832,77.68462371826172 C 56.263179779052734,76.52252960205078 56.1378288269043,75.3999252319336 56.13237762451172,74.36955261230469 L 55.104400634765625,74.29866027832031 Z" style="fill: rgb(38, 38, 38); stroke-width: 1px; stroke: none;"/>
<path clip-path="url(#contour)" comment="clipped pattern element 66.66666666666666, 83.33333333333334 clipped and transformed" d="M 77.96342468261719,69.44556427001953 C 76.76204681396484,69.44556427001953 75.78700256347656,70.42060089111328 75.78700256347656,71.62199401855469 C 75.78700256347656,72.8233871459961 76.76204681396484,73.79842376708984 77.96342468261719,73.79842376708984 C 79.16482543945312,73.79842376708984 80.1398696899414,72.8233871459961 80.1398696899414,71.62199401855469 C 80.1398696899414,70.42060089111328 79.16482543945312,69.44556427001953 77.96342468261719,69.44556427001953 Z" style="fill: rgb(38, 38, 38); stroke-width: 1px; stroke: none;"/>
<path clip-path="url(#contour)" comment="clipped pattern element 66.66666666666666, 83.33333333333334 clipped and transformed" d="M 74.82937622070312,73.27608489990234 C 73.62797546386719,73.27608489990234 72.6529312133789,74.2511215209961 72.6529312133789,75.4525146484375 C 72.6529312133789,76.65390014648438 73.62797546386719,77.62894439697266 74.82937622070312,77.62894439697266 C 76.03075408935547,77.62894439697266 77.00579833984375,76.65390014648438 77.00579833984375,75.4525146484375 C 77.00579833984375,74.2511215209961 76.03075408935547,73.27608489990234 74.82937622070312,73.27608489990234 Z" style="fill: rgb(38, 38, 38); stroke-width: 1px; stroke: none;"/>
<path clip-path="url(#contour)" comment="clipped pattern element 66.66666666666666, 83.33333333333334 clipped and transformed" d="M 81.09748840332031,73.27608489990234 C 79.89611053466797,73.27608489990234 78.92106628417969,74.2511215209961 78.92106628417969,75.4525146484375 C 78.92106628417969,76.65390014648438 79.89611053466797,77.62894439697266 81.09748840332031,77.62894439697266 C 82.29888916015625,77.62894439697266 83.27393341064453,76.65390014648438 83.27393341064453,75.4525146484375 C 83.27393341064453,74.2511215209961 82.29888916015625,73.27608489990234 81.09748840332031,73.27608489990234 Z" style="fill: rgb(38, 38, 38); stroke-width: 1px; stroke: none;"/>
<path clip-path="url(#contour)" comment="clipped pattern element 66.66666666666666, 83.33333333333334 clipped and transformed" d="M 77.32662200927734,74.29866027832031 C 77.25572967529297,81.13996887207031 72.22222137451172,91.6323471069336 72.22222137451172,91.6323471069336 L 75.873291015625,88.58387756347656 C 76.6885757446289,89.61185455322266 77.82289123535156,91.66779327392578 77.82289123535156,91.66779327392578 C 77.82289123535156,91.66779327392578 79.4002914428711,89.62957000732422 80.28646850585938,88.60161590576172 L 83.49444580078125,91.66779327392578 C 83.49444580078125,91.66779327392578 78.39004516601562,81.06907653808594 78.35459899902344,74.36955261230469 L 77.32662200927734,74.29866027832031 Z" style="fill: rgb(38, 38, 38); stroke-width: 1px; stroke: none;"/>
<path clip-path="url(#contour)" comment="clipped pattern element 88.88888888888889, 83.33333333333334 clipped and transformed" d="M 95.33197784423828,74.1187744140625 C 95.04568481445312,74.48725891113281 94.87515258789062,74.9500961303711 94.87515258789062,75.4525146484375 C 94.87515258789062,76.65390014648438 95.8501968383789,77.62894439697266 97.05159759521484,77.62894439697266 C 97.55401611328125,77.62894439697266 98.016845703125,77.45841979980469 98.38533020019531,77.17212677001953 L 95.33197784423828,74.1187744140625 Z" style="fill: rgb(38, 38, 38); stroke-width: 1px; stroke: none;"/>
<path clip-path="url(#contour)" comment="clipped pattern element 88.88888888888889, 83.33333333333334 clipped and transformed" d="M 104.86572265625,73.92107391357422 L 101.78828430175781,76.9985122680664 C 102.18162536621094,77.38817596435547 102.72272491455078,77.62894439697266 103.31970977783203,77.62894439697266 C 104.52111053466797,77.62894439697266 105.49615478515625,76.65390014648438 105.49615478515625,75.4525146484375 C 105.49615478515625,74.85552215576172 105.25538635253906,74.31441497802734 104.86572265625,73.92107391357422 Z" style="fill: rgb(38, 38, 38); stroke-width: 1px; stroke: none;"/>
<path clip-path="url(#contour)" comment="clipped pattern element 88.88888888888889, 83.33333333333334 clipped and transformed" d="M 100.94457244873047,77.84222412109375 L 100.0,78.78679656982422 L 99.15011596679688,77.9369125366211 C 97.94766998291016,84.3298568725586 94.44444274902344,91.6323471069336 94.44444274902344,91.6323471069336 L 98.09551239013672,88.58387756347656 C 98.91079711914062,89.61185455322266 100.04511260986328,91.66779327392578 100.04511260986328,91.66779327392578 C 100.04511260986328,91.66779327392578 101.62251281738281,89.62957000732422 102.5086898803711,88.60161590576172 L 105.71666717529297,91.66779327392578 C 105.71666717529297,91.66779327392578 102.12134552001953,84.2025146484375 100.94457244873047,77.84222412109375 Z" style="fill: rgb(38, 38, 38); stroke-width: 1px; stroke: none;"/>
<path clip-path="url(#contour)" comment="clipped pattern element 111.11111111111111, 83.33333333333334 clipped and transformed" d="M 122.40786743164062,69.44556427001953 C 121.20648956298828,69.44556427001953 120.2314453125,70.42060089111328 120.2314453125,71.62199401855469 C 120.2314453125,72.8233871459961 121.20648956298828,73.79842376708984 122.40786743164062,73.79842376708984 C 123.60926818847656,73.79842376708984 124.58431243896484,72.8233871459961 124.58431243896484,71.62199401855469 C 124.58431243896484,70.42060089111328 123.60926818847656,69.44556427001953 122.40786743164062,69.44556427001953 Z" style="fill: rgb(38, 38, 38); stroke-width: 1px; stroke: none;"/>
<path clip-path="url(#contour)" comment="clipped pattern element 111.11111111111111, 83.33333333333334 clipped and transformed" d="M 119.27381896972656,73.27608489990234 C 118.07242584228516,73.27608489990234 117.09738159179688,74.2511215209961 117.09738159179688,75.4525146484375 C 117.09738159179688,76.65390014648438 118.07242584228516,77.62894439697266 119.27381896972656,77.62894439697266 C 120.4751968383789,77.62894439697266 121.45024108886719,76.65390014648438 121.45024108886719,75.4525146484375 C 121.45024108886719,74.2511215209961 120.4751968383789,73.27608489990234 119.27381896972656,73.27608489990234 Z" style="fill: rgb(38, 38, 38); stroke-width: 1px; stroke: none;"/>
<path clip-path="url(#contour)" comment="clipped pattern element 111.11111111111111, 83.33333333333334 clipped and transformed" d="M 125.54193115234375,73.27608489990234 C 124.3405532836914,73.27608489990234 123.36550903320312,74.2511215209961 123.36550903320312,75.4525146484375 C 123.36550903320312,76.65390014648438 124.3405532836914,77.62894439697266 125.54193115234375,77.62894439697266 C 126.74333190917969,77.62894439697266 127.71837615966797,76.65390014648438 127.71837615966797,75.4525146484375 C 127.71837615966797,74.2511215209961 126.74333190917969,73.27608489990234 125.54193115234375,73.27608489990234 Z" style="fill: rgb(38, 38, 38); stroke-width: 1px; stroke: none;"/>
<path clip-path="url(#contour)" comment="clipped pattern element 111.11111111111111, 83.33333333333334 clipped and transformed" d="M 121.77106475830078,74.29866027832031 C 121.70018005371094,81.13996887207031 116.66666412353516,91.6323471069336 116.66666412353516,91.6323471069336 L 120.31773376464844,88.58387756347656 C 121.13302612304688,89.61185455322266 122.267333984375,91.66779327392578 122.267333984375,91.66779327392578 C 122.267333984375,91.66779327392578 123.84473419189453,89.62957000732422 124.73091125488281,88.60161590576172 L 127.93888854980469,91.66779327392578 C 127.93888854980469,91.66779327392578 122.83448791503906,81.06907653808594 122.79904174804688,74.36955261230469 L 121.77106475830078,74.29866027832031 Z" style="fill: rgb(38, 38, 38); stroke-width: 1px; stroke: none;"/>
<path clip-path="url(#contour)" comment="clipped pattern element 133.33333333333334, 83.33333333333334 clipped and transformed" d="M 144.63009643554688,69.44556427001953 C 143.4287109375,69.44556427001953 142.45367431640625,70.42060089111328 142.45367431640625,71.62199401855469 C 142.45367431640625,72.8233871459961 143.4287109375,73.79842376708984 144.63009643554688,73.79842376708984 C 145.83148193359375,73.79842376708984 146.80653381347656,72.8233871459961 146.80653381347656,71.62199401855469 C 146.80653381347656,70.42060089111328 145.83148193359375,69.44556427001953 144.63009643554688,69.44556427001953 Z" style="fill: rgb(38, 38, 38); stroke-width: 1px; stroke: none;"/>
<path clip-path="url(#contour)" comment="clipped pattern element 133.33333333333334, 83.33333333333334 clipped and transformed" d="M 141.4960479736328,73.27608489990234 C 140.29464721679688,73.27608489990234 139.31959533691406,74.2511215209961 139.31959533691406,75.4525146484375 C 139.31959533691406,76.65390014648438 140.29464721679688,77.62894439697266 141.4960479736328,77.62894439697266 C 142.69741821289062,77.62894439697266 143.67247009277344,76.65390014648438 143.67247009277344,75.4525146484375 C 143.67247009277344,74.2511215209961 142.69741821289062,73.27608489990234 141.4960479736328,73.27608489990234 Z" style="fill: rgb(38, 38, 38); stroke-width: 1px; stroke: none;"/>
<path clip-path="url(#contour)" comment="clipped pattern element 133.33333333333334, 83.33333333333334 clipped and transformed" d="M 147.76416015625,73.27608489990234 C 146.56277465820312,73.27608489990234 145.58773803710938,74.2511215209961 145.58773803710938,75.4525146484375 C 145.58773803710938,75.50858306884766 145.58985900878906,75.56416320800781 145.59402465820312,75.61917114257812 L 147.93081665039062,73.28237915039062 L 147.9308319091797,73.28237915039062 C 147.8758087158203,73.27820587158203 147.8202362060547,73.27608489990234 147.76416015625,73.27608489990234 Z" style="fill: rgb(38, 38, 38); stroke-width: 1px; stroke: none;"/>
<path clip-path="url(#contour)" comment="clipped pattern element 133.33333333333334, 83.33333333333334 clipped and transformed" d="M 143.9932861328125,74.29866027832031 C 143.9827423095703,75.31654357910156 143.86233520507812,76.41525268554688 143.6649932861328,77.54821014404297 L 145.12644958496094,76.08674621582031 C 145.06109619140625,75.49349212646484 145.024169921875,74.9184341430664 145.02127075195312,74.36955261230469 L 143.9932861328125,74.29866027832031 Z" style="fill: rgb(38, 38, 38); stroke-width: 1px; stroke: none;"/>
<path clip-path="url(#contour)" comment="clipped pattern element 66.66666666666666, 111.11111111111111 clipped and transformed" d="M 68.72757720947266,110.05921936035156 L 62.46686553955078,116.31993103027344 C 61.69450759887695,118.19403076171875 61.11111068725586,119.41012573242188 61.11111068725586,119.41012573242188 L 64.76217651367188,116.36165618896484 C 65.57746887207031,117.38963317871094 66.71177673339844,119.44557189941406 66.71177673339844,119.44557189941406 C 66.71177673339844,119.44557189941406 68.28917694091797,117.4073486328125 69.17535400390625,116.37939453125 L 72.38333129882812,119.44557189941406 C 72.38333129882812,119.44557189941406 70.24577331542969,115.00717163085938 68.72757720947266,110.05921936035156 Z" style="fill: rgb(38, 38, 38); stroke-width: 1px; stroke: none;"/>
<path clip-path="url(#contour)" comment="clipped pattern element 88.88888888888889, 111.11111111111111 clipped and transformed" d="M 89.07453155517578,97.22334289550781 C 87.87315368652344,97.22334289550781 86.89810943603516,98.19837951660156 86.89810943603516,99.39977264404297 C 86.89810943603516,100.60115814208984 87.87315368652344,101.57620239257812 89.07453155517578,101.57620239257812 C 90.27593231201172,101.57620239257812 91.2509765625,100.60115814208984 91.2509765625,99.39977264404297 C 91.2509765625,98.19837951660156 90.27593231201172,97.22334289550781 89.07453155517578,97.22334289550781 Z" style="fill: rgb(38, 38, 38); stroke-width: 1px; stroke: none;"/>
<path clip-path="url(#contour)" comment="clipped pattern element 88.88888888888889, 111.11111111111111 clipped and transformed" d="M 85.94049072265625,101.05386352539062 C 84.73908996582031,101.05386352539062 83.76404571533203,102.02890014648438 83.76404571533203,103.23029327392578 C 83.76404571533203,104.43167877197266 84.73908996582031,105.40672302246094 85.94049072265625,105.40672302246094 C 87.1418685913086,105.40672302246094 88.11691284179688,104.43167877197266 88.11691284179688,103.23029327392578 C 88.11691284179688,102.02890014648438 87.1418685913086,101.05386352539062 85.94049072265625,101.05386352539062 Z" style="fill: rgb(38, 38, 38); stroke-width: 1px; stroke: none;"/>
<path clip-path="url(#contour)" comment="clipped pattern element 88.88888888888889, 111.11111111111111 clipped and transformed" d="M 92.20860290527344,101.05386352539062 C 91.0072250366211,101.05386352539062 90.03218078613281,102.02890014648438 90.03218078613281,103.23029327392578 C 90.03218078613281,104.43167877197266 91.0072250366211,105.40672302246094 92.20860290527344,105.40672302246094 C 93.41000366210938,105.40672302246094 94.38504791259766,104.43167877197266 94.38504791259766,103.23029327392578 C 94.38504791259766,102.02890014648438 93.41000366210938,101.05386352539062 92.20860290527344,101.05386352539062 Z" style="fill: rgb(38, 38, 38); stroke-width: 1px; stroke: none;"/>
<path clip-path="url(#contour)" comment="clipped pattern element 88.88888888888889, 111.11111111111111 clipped and transformed" d="M 88.43773651123047,102.07643127441406 C 88.3668441772461,108.9177474975586 83.33333587646484,119.41012573242188 83.33333587646484,119.41012573242188 L 86.9843978881836,116.36165618896484 C 87.79969024658203,117.38963317871094 88.93399810791016,119.44557189941406 88.93399810791016,119.44557189941406 C 88.93399810791016,119.44557189941406 90.51139831542969,117.4073486328125 91.39757537841797,116.37939453125 L 94.60555267333984,119.44557189941406 C 94.60555267333984,119.44557189941406 89.50115203857422,108.84685516357422 89.46571350097656,102.14733123779297 L 88.43773651123047,102.07643127441406 Z" style="fill: rgb(38, 38, 38); stroke-width: 1px; stroke: none;"/>
<path clip-path="url(#contour)" comment="clipped pattern element 111.11111111111111, 111.11111111111111 clipped and transformed" d="M 111.2967529296875,97.22334289550781 C 110.09537506103516,97.22334289550781 109.12033081054688,98.19837951660156 109.12033081054688,99.39977264404297 C 109.12033081054688,100.60115814208984 110.09537506103516,101.57620239257812 111.2967529296875,101.57620239257812 C 112.49815368652344,101.57620239257812 113.47319793701172,100.60115814208984 113.47319793701172,99.39977264404297 C 113.47319793701172,98.19837951660156 112.49815368652344,97.22334289550781 111.2967529296875,97.22334289550781 Z" style="fill: rgb(38, 38, 38); stroke-width: 1px; stroke: none;"/>
<path clip-path="url(#contour)" comment="clipped pattern element 111.11111111111111, 111.11111111111111 clipped and transformed" d="M 108.16271209716797,101.05386352539062 C 106.96131134033203,101.05386352539062 105.98626708984375,102.02890014648438 105.98626708984375,103.23029327392578 C 105.98626708984375,104.43167877197266 106.96131134033203,105.40672302246094 108.16271209716797,105.40672302246094 C 109.36408996582031,105.40672302246094 110.3391342163086,104.43167877197266 110.3391342163086,103.23029327392578 C 110.3391342163086,102.02890014648438 109.36408996582031,101.05386352539062 108.16271209716797,101.05386352539062 Z" style="fill: rgb(38, 38, 38); stroke-width: 1px; stroke: none;"/>
<path clip-path="url(#contour)" comment="clipped pattern element 111.11111111111111, 111.11111111111111 clipped and transformed" d="M 114.43082427978516,101.05386352539062 C 113.22944641113281,101.05386352539062 112.25440216064453,102.02890014648438 112.25440216064453,103.23029327392578 C 112.25440216064453,104.43167877197266 113.22944641113281,105.40672302246094 114.43082427978516,105.40672302246094 C 115.6322250366211,105.40672302246094 116.60726928710938,104.43167877197266 116.60726928710938,103.23029327392578 C 116.60726928710938,102.02890014648438 115.6322250366211,101.05386352539062 114.43082427978516,101.05386352539062 Z" style="fill: rgb(38, 38, 38); stroke-width: 1px; stroke: none;"/>
<path clip-path="url(#contour)" comment="clipped pattern element 111.11111111111111, 111.11111111111111 clipped and transformed" d="M 110.65995788574219,102.07643127441406 C 110.58906555175781,108.9177474975586 105.55555725097656,119.41012573242188 105.55555725097656,119.41012573242188 L 109.20661926269531,116.36165618896484 C 110.02191162109375,117.38963317871094 111.15621948242188,119.44557189941406 111.15621948242188,119.44557189941406 C 111.15621948242188,119.44557189941406 112.7336196899414,117.4073486328125 113.61979675292969,116.37939453125 L 116.82777404785156,119.44557189941406 C 116.82777404785156,119.44557189941406 111.72338104248047,108.84685516357422 111.68793487548828,102.14733123779297 L 110.65995788574219,102.07643127441406 Z" style="fill: rgb(38, 38, 38); stroke-width: 1px; stroke: none;"/>
<path clip-path="url(#contour)" comment="clipped pattern element 133.33333333333334, 111.11111111111111 clipped and transformed" d="M 131.3649139404297,110.15171813964844 C 129.8600616455078,115.069580078125 127.77777862548828,119.41012573242188 127.77777862548828,119.41012573242188 L 131.42884826660156,116.36165618896484 C 132.244140625,117.38963317871094 133.37844848632812,119.44557189941406 133.37844848632812,119.44557189941406 C 133.37844848632812,119.44557189941406 134.95584106445312,117.4073486328125 135.84202575683594,116.37939453125 L 139.0500030517578,119.44557189941406 C 139.0500030517578,119.44557189941406 138.5050811767578,118.31412506103516 137.77011108398438,116.5569076538086 L 135.3199462890625,114.10674285888672 L 131.3649139404297,110.15171813964844 Z" style="fill: rgb(38, 38, 38); stroke-width: 1px; stroke: none;"/>
<path clip-path="url(#contour)" comment="clipped pattern element 22.22222222222222, 138.88888888888889 clipped and transformed" d="M 36.82213592529297,141.96466064453125 L 32.71332550048828,146.07347106933594 C 33.0968017578125,146.71287536621094 33.37844467163086,147.2233428955078 33.37844467163086,147.2233428955078 C 33.37844467163086,147.2233428955078 34.95584487915039,145.18511962890625 35.84202194213867,144.15716552734375 L 39.04999923706055,147.2233428955078 C 39.04999923706055,147.2233428955078 37.9835205078125,145.00892639160156 36.822139739990234,141.96466064453125 L 36.82213592529297,141.96466064453125 Z" style="fill: rgb(38, 38, 38); stroke-width: 1px; stroke: none;"/>
<path clip-path="url(#contour)" comment="clipped pattern element 44.44444444444444, 138.88888888888889 clipped and transformed" d="M 55.7411994934082,125.0011215209961 C 54.53982162475586,125.0011215209961 53.56477737426758,125.97615814208984 53.56477737426758,127.17755126953125 C 53.56477737426758,128.37893676757812 54.53982162475586,129.35398864746094 55.7411994934082,129.35398864746094 C 56.94260025024414,129.35398864746094 57.91764450073242,128.37893676757812 57.91764450073242,127.17755126953125 C 57.91764450073242,125.97615814208984 56.94260025024414,125.0011215209961 55.7411994934082,125.0011215209961 Z" style="fill: rgb(38, 38, 38); stroke-width: 1px; stroke: none;"/>
<path clip-path="url(#contour)" comment="clipped pattern element 44.44444444444444, 138.88888888888889 clipped and transformed" d="M 52.607154846191406,128.83163452148438 C 51.40575408935547,128.83163452148438 50.43070983886719,129.8066864013672 50.43070983886719,131.00807189941406 C 50.43070983886719,132.20945739746094 51.40575408935547,133.18450927734375 52.607154846191406,133.18450927734375 C 53.80853271484375,133.18450927734375 54.78357696533203,132.20945739746094 54.78357696533203,131.00807189941406 C 54.78357696533203,129.8066864013672 53.80853271484375,128.83163452148438 52.607154846191406,128.83163452148438 Z" style="fill: rgb(38, 38, 38); stroke-width: 1px; stroke: none;"/>
<path clip-path="url(#contour)" comment="clipped pattern element 44.44444444444444, 138.88888888888889 clipped and transformed" d="M 58.875267028808594,128.83163452148438 C 57.67388916015625,128.83163452148438 56.69884490966797,129.8066864013672 56.69884490966797,131.00807189941406 C 56.69884490966797,132.20945739746094 57.67388916015625,133.18450927734375 58.875267028808594,133.18450927734375 C 60.07666778564453,133.18450927734375 61.05171203613281,132.20945739746094 61.05171203613281,131.00807189941406 C 61.05171203613281,129.8066864013672 60.07666778564453,128.83163452148438 58.875267028808594,128.83163452148438 Z" style="fill: rgb(38, 38, 38); stroke-width: 1px; stroke: none;"/>
<path clip-path="url(#contour)" comment="clipped pattern element 44.44444444444444, 138.88888888888889 clipped and transformed" d="M 55.104400634765625,129.85421752929688 C 55.033512115478516,136.69552612304688 50.0,147.18789672851562 50.0,147.18789672851562 L 53.651065826416016,144.13943481445312 C 54.46635437011719,145.16741943359375 55.60066604614258,147.2233428955078 55.60066604614258,147.2233428955078 C 55.60066604614258,147.2233428955078 57.17806625366211,145.18511962890625 58.06424331665039,144.15716552734375 L 61.272220611572266,147.2233428955078 C 61.272220611572266,147.2233428955078 56.167823791503906,136.6246337890625 56.13237762451172,129.92510986328125 L 55.104400634765625,129.85421752929688 Z" style="fill: rgb(38, 38, 38); stroke-width: 1px; stroke: none;"/>
<path clip-path="url(#contour)" comment="clipped pattern element 66.66666666666666, 138.88888888888889 clipped and transformed" d="M 77.96342468261719,125.0011215209961 C 76.76204681396484,125.0011215209961 75.78700256347656,125.97615814208984 75.78700256347656,127.17755126953125 C 75.78700256347656,128.37893676757812 76.76204681396484,129.35398864746094 77.96342468261719,129.35398864746094 C 79.16482543945312,129.35398864746094 80.1398696899414,128.37893676757812 80.1398696899414,127.17755126953125 C 80.1398696899414,125.97615814208984 79.16482543945312,125.0011215209961 77.96342468261719,125.0011215209961 Z" style="fill: rgb(38, 38, 38); stroke-width: 1px; stroke: none;"/>
<path clip-path="url(#contour)" comment="clipped pattern element 66.66666666666666, 138.88888888888889 clipped and transformed" d="M 74.82937622070312,128.83163452148438 C 73.62797546386719,128.83163452148438 72.6529312133789,129.8066864013672 72.6529312133789,131.00807189941406 C 72.6529312133789,132.20945739746094 73.62797546386719,133.18450927734375 74.82937622070312,133.18450927734375 C 76.03075408935547,133.18450927734375 77.00579833984375,132.20945739746094 77.00579833984375,131.00807189941406 C 77.00579833984375,129.8066864013672 76.03075408935547,128.83163452148438 74.82937622070312,128.83163452148438 Z" style="fill: rgb(38, 38, 38); stroke-width: 1px; stroke: none;"/>
<path clip-path="url(#contour)" comment="clipped pattern element 66.66666666666666, 138.88888888888889 clipped and transformed" d="M 81.09748840332031,128.83163452148438 C 79.89611053466797,128.83163452148438 78.92106628417969,129.8066864013672 78.92106628417969,131.00807189941406 C 78.92106628417969,132.20945739746094 79.89611053466797,133.18450927734375 81.09748840332031,133.18450927734375 C 82.29888916015625,133.18450927734375 83.27393341064453,132.20945739746094 83.27393341064453,131.00807189941406 C 83.27393341064453,129.8066864013672 82.29888916015625,128.83163452148438 81.09748840332031,128.83163452148438 Z" style="fill: rgb(38, 38, 38); stroke-width: 1px; stroke: none;"/>
<path clip-path="url(#contour)" comment="clipped pattern element 66.66666666666666, 138.88888888888889 clipped and transformed" d="M 77.32662200927734,129.85421752929688 C 77.25572967529297,136.69552612304688 72.22222137451172,147.18789672851562 72.22222137451172,147.18789672851562 L 75.873291015625,144.13943481445312 C 76.03253936767578,144.34022521972656 76.2039566040039,144.58023071289062 76.37671661376953,144.83648681640625 L 77.1673812866211,144.0458221435547 L 80.72212219238281,140.49107360839844 C 79.5168685913086,137.11648559570312 78.37132263183594,133.08663940429688 78.35459899902344,129.92510986328125 L 77.32662200927734,129.85421752929688 Z" style="fill: rgb(38, 38, 38); stroke-width: 1px; stroke: none;"/>
<path clip-path="url(#contour)" comment="clipped pattern element 111.11111111111111, 138.88888888888889 clipped and transformed" d="M 122.40786743164062,125.0011215209961 C 121.20648956298828,125.0011215209961 120.2314453125,125.97615814208984 120.2314453125,127.17755126953125 C 120.2314453125,128.37893676757812 121.20648956298828,129.35398864746094 122.40786743164062,129.35398864746094 C 123.60926818847656,129.35398864746094 124.58431243896484,128.37893676757812 124.58431243896484,127.17755126953125 C 124.58431243896484,125.97615814208984 123.60926818847656,125.0011215209961 122.40786743164062,125.0011215209961 Z" style="fill: rgb(38, 38, 38); stroke-width: 1px; stroke: none;"/>
<path clip-path="url(#contour)" comment="clipped pattern element 111.11111111111111, 138.88888888888889 clipped and transformed" d="M 119.27381896972656,128.83163452148438 C 118.07242584228516,128.83163452148438 117.09738159179688,129.8066864013672 117.09738159179688,131.00807189941406 C 117.09738159179688,132.20945739746094 118.07242584228516,133.18450927734375 119.27381896972656,133.18450927734375 C 120.4751968383789,133.18450927734375 121.45024108886719,132.20945739746094 121.45024108886719,131.00807189941406 C 121.45024108886719,129.8066864013672 120.4751968383789,128.83163452148438 119.27381896972656,128.83163452148438 Z" style="fill: rgb(38, 38, 38); stroke-width: 1px; stroke: none;"/>
<path clip-path="url(#contour)" comment="clipped pattern element 111.11111111111111, 138.88888888888889 clipped and transformed" d="M 125.54193115234375,128.83163452148438 C 124.3405532836914,128.83163452148438 123.36550903320312,129.8066864013672 123.36550903320312,131.00807189941406 C 123.36550903320312,132.20945739746094 124.3405532836914,133.18450927734375 125.54193115234375,133.18450927734375 C 126.74333190917969,133.18450927734375 127.71837615966797,132.20945739746094 127.71837615966797,131.00807189941406 C 127.71837615966797,129.8066864013672 126.74333190917969,128.83163452148438 125.54193115234375,128.83163452148438 Z" style="fill: rgb(38, 38, 38); stroke-width: 1px; stroke: none;"/>
<path clip-path="url(#contour)" comment="clipped pattern element 111.11111111111111, 138.88888888888889 clipped and transformed" d="M 121.77106475830078,129.85421752929688 C 121.7373046875,133.112548828125 120.57783508300781,137.19908142089844 119.37261199951172,140.5858154296875 L 123.92044830322266,145.13365173339844 C 124.2110366821289,144.7749481201172 124.4953842163086,144.4303741455078 124.73091125488281,144.15716552734375 L 127.93888854980469,147.2233428955078 C 127.93888854980469,147.2233428955078 122.83448791503906,136.6246337890625 122.79904174804688,129.92510986328125 L 121.77106475830078,129.85421752929688 Z" style="fill: rgb(38, 38, 38); stroke-width: 1px; stroke: none;"/>
<path clip-path="url(#contour)" comment="clipped pattern element 133.33333333333334, 138.88888888888889 clipped and transformed" d="M 144.63009643554688,125.0011215209961 C 143.4287109375,125.0011215209961 142.45367431640625,125.97615814208984 142.45367431640625,127.17755126953125 C 142.45367431640625,128.37893676757812 143.4287109375,129.35398864746094 144.63009643554688,129.35398864746094 C 145.83148193359375,129.35398864746094 146.80653381347656,128.37893676757812 146.80653381347656,127.17755126953125 C 146.80653381347656,125.97615814208984 145.83148193359375,125.0011215209961 144.63009643554688,125.0011215209961 Z" style="fill: rgb(38, 38, 38); stroke-width: 1px; stroke: none;"/>
<path clip-path="url(#contour)" comment="clipped pattern element 133.33333333333334, 138.88888888888889 clipped and transformed" d="M 141.4960479736328,128.83163452148438 C 140.29464721679688,128.83163452148438 139.31959533691406,129.8066864013672 139.31959533691406,131.00807189941406 C 139.31959533691406,132.20945739746094 140.29464721679688,133.18450927734375 141.4960479736328,133.18450927734375 C 142.69741821289062,133.18450927734375 143.67247009277344,132.20945739746094 143.67247009277344,131.00807189941406 C 143.67247009277344,129.8066864013672 142.69741821289062,128.83163452148438 141.4960479736328,128.83163452148438 Z" style="fill: rgb(38, 38, 38); stroke-width: 1px; stroke: none;"/>
<path clip-path="url(#contour)" comment="clipped pattern element 133.33333333333334, 138.88888888888889 clipped and transformed" d="M 147.76416015625,128.83163452148438 C 146.56277465820312,128.83163452148438 145.58773803710938,129.8066864013672 145.58773803710938,131.00807189941406 C 145.58773803710938,132.20945739746094 146.56277465820312,133.18450927734375 147.76416015625,133.18450927734375 C 148.96556091308594,133.18450927734375 149.9405975341797,132.20945739746094 149.9405975341797,131.00807189941406 C 149.9405975341797,129.8066864013672 148.96556091308594,128.83163452148438 147.76416015625,128.83163452148438 Z" style="fill: rgb(38, 38, 38); stroke-width: 1px; stroke: none;"/>
<path clip-path="url(#contour)" comment="clipped pattern element 133.33333333333334, 138.88888888888889 clipped and transformed" d="M 143.9932861328125,129.85421752929688 C 143.92239379882812,136.69552612304688 138.88888549804688,147.18789672851562 138.88888549804688,147.18789672851562 L 142.5399627685547,144.13943481445312 C 143.35523986816406,145.16741943359375 144.48956298828125,147.2233428955078 144.48956298828125,147.2233428955078 C 144.48956298828125,147.2233428955078 146.06695556640625,145.18511962890625 146.95314025878906,144.15716552734375 L 150.16111755371094,147.2233428955078 C 150.16111755371094,147.2233428955078 145.0567169189453,136.6246337890625 145.02127075195312,129.92510986328125 L 143.9932861328125,129.85421752929688 Z" style="fill: rgb(38, 38, 38); stroke-width: 1px; stroke: none;"/>
<path clip-path="url(#contour)" comment="clipped pattern element 155.55555555555557, 138.88888888888889 clipped and transformed" d="M 163.27398681640625,142.06077575683594 C 162.13999938964844,145.0431671142578 161.11111450195312,147.18789672851562 161.11111450195312,147.18789672851562 L 164.76217651367188,144.13943481445312 C 165.5774688720703,145.16741943359375 166.71177673339844,147.2233428955078 166.71177673339844,147.2233428955078 C 166.71177673339844,147.2233428955078 167.0339813232422,146.8070068359375 167.46896362304688,146.25576782226562 L 163.88095092773438,142.66773986816406 L 163.27398681640625,142.06077575683594 Z" style="fill: rgb(38, 38, 38); stroke-width: 1px; stroke: none;"/>
<path clip-path="url(#contour)" comment="clipped pattern element 22.22222222222222, 166.66666666666666 clipped and transformed" d="M 24.484512329101562,154.30227661132812 L 23.256040573120117,155.53074645996094 L 21.754833221435547,157.03196716308594 C 21.96100616455078,157.0968017578125 22.180377960205078,157.1317596435547 22.407867431640625,157.1317596435547 C 23.60926628112793,157.1317596435547 24.58431053161621,156.15672302246094 24.58431053161621,154.955322265625 C 24.58431053161621,154.7278289794922 24.549348831176758,154.50845336914062 24.484512329101562,154.30227661132812 Z" style="fill: rgb(38, 38, 38); stroke-width: 1px; stroke: none;"/>
<path clip-path="url(#contour)" comment="clipped pattern element 22.22222222222222, 166.66666666666666 clipped and transformed" d="M 21.132822036743164,157.6539764404297 L 18.74393081665039,160.04286193847656 C 18.93718910217285,160.34947204589844 19.13182258605957,160.65573120117188 19.32782554626465,160.9616241455078 C 20.504283905029297,160.93292236328125 21.450244903564453,159.96917724609375 21.450244903564453,158.7858428955078 C 21.450244903564453,158.37136840820312 21.33418846130371,157.98382568359375 21.132822036743164,157.6539764404297 Z" style="fill: rgb(38, 38, 38); stroke-width: 1px; stroke: none;"/>
<path clip-path="url(#contour)" comment="clipped pattern element 22.22222222222222, 166.66666666666666 clipped and transformed" d="M 25.541933059692383,156.6094207763672 C 24.34055519104004,156.6094207763672 23.365510940551758,157.58445739746094 23.365510940551758,158.7858428955078 C 23.365510940551758,159.98724365234375 24.34055519104004,160.9622802734375 25.541933059692383,160.9622802734375 C 26.74333381652832,160.9622802734375 27.7183780670166,159.98724365234375 27.7183780670166,158.7858428955078 C 27.7183780670166,157.58445739746094 26.74333381652832,156.6094207763672 25.541933059692383,156.6094207763672 Z" style="fill: rgb(38, 38, 38); stroke-width: 1px; stroke: none;"/>
<path clip-path="url(#contour)" comment="clipped pattern element 22.22222222222222, 166.66666666666666 clipped and transformed" d="M 21.771066665649414,157.63198852539062 C 21.752897262573242,159.385498046875 21.408706665039062,161.3788604736328 20.906814575195312,163.37391662597656 C 21.169902801513672,163.7675018310547 21.435260772705078,164.16046142578125 21.7028751373291,164.5527801513672 C 22.91627311706543,166.33157348632812 24.176076889038086,168.0972137451172 25.481138229370117,169.84854125976562 C 25.66762924194336,170.0988006591797 25.855043411254883,170.34877014160156 26.043378829956055,170.59844970703125 C 24.587087631225586,166.91114807128906 22.819849014282227,161.63531494140625 22.79904556274414,157.702880859375 L 21.771066665649414,157.63198852539062 Z" style="fill: rgb(38, 38, 38); stroke-width: 1px; stroke: none;"/>
<path clip-path="url(#contour)" comment="clipped pattern element 44.44444444444444, 166.66666666666666 clipped and transformed" d="M 44.630088806152344,152.77890014648438 C 43.4287109375,152.77890014648438 42.45366668701172,153.75393676757812 42.45366668701172,154.955322265625 C 42.45366668701172,156.15672302246094 43.4287109375,157.1317596435547 44.630088806152344,157.1317596435547 C 45.83148956298828,157.1317596435547 46.80653381347656,156.15672302246094 46.80653381347656,154.955322265625 C 46.80653381347656,153.75393676757812 45.83148956298828,152.77890014648438 44.630088806152344,152.77890014648438 Z" style="fill: rgb(38, 38, 38); stroke-width: 1px; stroke: none;"/>
<path clip-path="url(#contour)" comment="clipped pattern element 44.44444444444444, 166.66666666666666 clipped and transformed" d="M 41.49604415893555,156.6094207763672 C 40.29464340209961,156.6094207763672 39.31959915161133,157.58445739746094 39.31959915161133,158.7858428955078 C 39.31959915161133,159.98724365234375 40.29464340209961,160.9622802734375 41.49604415893555,160.9622802734375 C 42.69742202758789,160.9622802734375 43.67246627807617,159.98724365234375 43.67246627807617,158.7858428955078 C 43.67246627807617,157.58445739746094 42.69742202758789,156.6094207763672 41.49604415893555,156.6094207763672 Z" style="fill: rgb(38, 38, 38); stroke-width: 1px; stroke: none;"/>
<path clip-path="url(#contour)" comment="clipped pattern element 44.44444444444444, 166.66666666666666 clipped and transformed" d="M 47.764156341552734,156.6094207763672 C 46.56277847290039,156.6094207763672 45.58773422241211,157.58445739746094 45.58773422241211,158.7858428955078 C 45.58773422241211,159.98724365234375 46.56277847290039,160.9622802734375 47.764156341552734,160.9622802734375 C 48.96555709838867,160.9622802734375 49.94060134887695,159.98724365234375 49.94060134887695,158.7858428955078 C 49.94060134887695,157.58445739746094 48.96555709838867,156.6094207763672 47.764156341552734,156.6094207763672 Z" style="fill: rgb(38, 38, 38); stroke-width: 1px; stroke: none;"/>
<path clip-path="url(#contour)" comment="clipped pattern element 44.44444444444444, 166.66666666666666 clipped and transformed" d="M 43.993289947509766,157.63198852539062 C 43.922401428222656,164.47329711914062 38.88888931274414,174.96568298339844 38.88888931274414,174.96568298339844 L 42.539955139160156,171.91722106933594 C 43.35524368286133,172.9451904296875 44.48955535888672,175.00112915039062 44.48955535888672,175.00112915039062 C 44.48955535888672,175.00112915039062 46.06695556640625,172.96290588378906 46.95313262939453,171.93495178222656 L 48.1419677734375,173.07122802734375 L 48.457855224609375,172.75534057617188 L 48.946083068847656,172.26712036132812 C 47.433990478515625,168.6725616455078 45.045475006103516,162.27838134765625 45.02126693725586,157.702880859375 L 43.993289947509766,157.63198852539062 Z" style="fill: rgb(38, 38, 38); stroke-width: 1px; stroke: none;"/>
<path clip-path="url(#contour)" comment="clipped pattern element 66.66666666666666, 166.66666666666666 clipped and transformed" d="M 66.85231018066406,152.77890014648438 C 65.65093231201172,152.77890014648438 64.67588806152344,153.75393676757812 64.67588806152344,154.955322265625 C 64.67588806152344,155.4041748046875 64.8119888305664,155.82144165039062 65.0451431274414,156.16806030273438 L 68.0650405883789,153.14816284179688 C 67.71842193603516,152.9149932861328 67.30116271972656,152.77890014648438 66.85231018066406,152.77890014648438 Z" style="fill: rgb(38, 38, 38); stroke-width: 1px; stroke: none;"/>
<path clip-path="url(#contour)" comment="clipped pattern element 66.66666666666666, 166.66666666666666 clipped and transformed" d="M 63.718265533447266,156.6094207763672 C 62.516868591308594,156.6094207763672 61.54182434082031,157.58445739746094 61.54182434082031,158.7858428955078 C 61.54182434082031,159.05010986328125 61.5890007019043,159.3034210205078 61.675384521484375,159.53781127929688 L 63.660865783691406,157.55233764648438 L 64.47022247314453,156.74298095703125 C 64.23583221435547,156.65660095214844 63.98252487182617,156.6094207763672 63.718265533447266,156.6094207763672 Z" style="fill: rgb(38, 38, 38); stroke-width: 1px; stroke: none;"/>
<path clip-path="url(#contour)" comment="clipped pattern element 133.33333333333334, 166.66666666666666 clipped and transformed" d="M 133.51898193359375,152.77890014648438 C 132.97503662109375,152.77890014648438 132.4774932861328,152.97877502441406 132.09584045410156,153.3090362548828 L 132.82757568359375,154.040771484375 L 135.16526794433594,156.37847900390625 C 135.49554443359375,155.99681091308594 135.69541931152344,155.499267578125 135.69541931152344,154.955322265625 C 135.69541931152344,153.75393676757812 134.7203826904297,152.77890014648438 133.51898193359375,152.77890014648438 Z" style="fill: rgb(38, 38, 38); stroke-width: 1px; stroke: none;"/>
<path clip-path="url(#contour)" comment="clipped pattern element 133.33333333333334, 166.66666666666666 clipped and transformed" d="M 136.65304565429688,156.6094207763672 C 136.28897094726562,156.6094207763672 135.9456787109375,156.69895935058594 135.64402770996094,156.8572235107422 L 138.58168029785156,159.7948760986328 C 138.7399444580078,159.49322509765625 138.82948303222656,159.14993286132812 138.82948303222656,158.7858428955078 C 138.82948303222656,157.58445739746094 137.8544464111328,156.6094207763672 136.65304565429688,156.6094207763672 Z" style="fill: rgb(38, 38, 38); stroke-width: 1px; stroke: none;"/>
<path clip-path="url(#contour)" comment="clipped pattern element 155.55555555555557, 166.66666666666666 clipped and transformed" d="M 155.74119567871094,152.77890014648438 C 154.53982543945312,152.77890014648438 153.5647735595703,153.75393676757812 153.5647735595703,154.955322265625 C 153.5647735595703,156.15672302246094 154.53982543945312,157.1317596435547 155.74119567871094,157.1317596435547 C 156.94259643554688,157.1317596435547 157.9176483154297,156.15672302246094 157.9176483154297,154.955322265625 C 157.9176483154297,153.75393676757812 156.94259643554688,152.77890014648438 155.74119567871094,152.77890014648438 Z" style="fill: rgb(38, 38, 38); stroke-width: 1px; stroke: none;"/>
<path clip-path="url(#contour)" comment="clipped pattern element 155.55555555555557, 166.66666666666666 clipped and transformed" d="M 152.60716247558594,156.6094207763672 C 151.40576171875,156.6094207763672 150.4307098388672,157.58445739746094 150.4307098388672,158.7858428955078 C 150.4307098388672,159.98724365234375 151.40576171875,160.9622802734375 152.60716247558594,160.9622802734375 C 153.80853271484375,160.9622802734375 154.78358459472656,159.98724365234375 154.78358459472656,158.7858428955078 C 154.78358459472656,157.58445739746094 153.80853271484375,156.6094207763672 152.60716247558594,156.6094207763672 Z" style="fill: rgb(38, 38, 38); stroke-width: 1px; stroke: none;"/>
<path clip-path="url(#contour)" comment="clipped pattern element 155.55555555555557, 166.66666666666666 clipped and transformed" d="M 158.87527465820312,156.6094207763672 C 157.67388916015625,156.6094207763672 156.6988525390625,157.58445739746094 156.6988525390625,158.7858428955078 C 156.6988525390625,159.98724365234375 157.67388916015625,160.9622802734375 158.87527465820312,160.9622802734375 C 160.07666015625,160.9622802734375 161.0517120361328,159.98724365234375 161.0517120361328,158.7858428955078 C 161.0517120361328,157.58445739746094 160.07666015625,156.6094207763672 158.87527465820312,156.6094207763672 Z" style="fill: rgb(38, 38, 38); stroke-width: 1px; stroke: none;"/>
<path clip-path="url(#contour)" comment="clipped pattern element 155.55555555555557, 166.66666666666666 clipped and transformed" d="M 155.10440063476562,157.63198852539062 C 155.0554656982422,162.35389709472656 152.64244079589844,168.8151092529297 151.15203857421875,172.365234375 L 152.0449981689453,173.25819396972656 L 153.65106201171875,171.91722106933594 C 154.4663543701172,172.9451904296875 155.6006622314453,175.00112915039062 155.6006622314453,175.00112915039062 C 155.6006622314453,175.00112915039062 157.17807006835938,172.96290588378906 158.06423950195312,171.93495178222656 L 161.272216796875,175.00112915039062 C 161.272216796875,175.00112915039062 156.16781616210938,164.4024200439453 156.13238525390625,157.702880859375 L 155.10440063476562,157.63198852539062 Z" style="fill: rgb(38, 38, 38); stroke-width: 1px; stroke: none;"/>
<path clip-path="url(#contour)" comment="clipped pattern element 177.7777777777778, 166.66666666666666 clipped and transformed" d="M 175.81552124023438,154.60231018066406 C 175.7967529296875,154.71722412109375 175.78700256347656,154.83514404296875 175.78700256347656,154.955322265625 C 175.78700256347656,156.15672302246094 176.7620391845703,157.1317596435547 177.9634246826172,157.1317596435547 C 178.0836181640625,157.1317596435547 178.2015380859375,157.1219940185547 178.31643676757812,157.10324096679688 L 175.926513671875,154.7133026123047 L 175.81552124023438,154.60231018066406 Z" style="fill: rgb(38, 38, 38); stroke-width: 1px; stroke: none;"/>
<path clip-path="url(#contour)" comment="clipped pattern element 177.7777777777778, 166.66666666666666 clipped and transformed" d="M 174.82937622070312,156.6094207763672 C 173.6279754638672,156.6094207763672 172.65293884277344,157.58445739746094 172.65293884277344,158.7858428955078 C 172.65293884277344,159.98724365234375 173.6279754638672,160.9622802734375 174.82937622070312,160.9622802734375 C 176.03076171875,160.9622802734375 177.00579833984375,159.98724365234375 177.00579833984375,158.7858428955078 C 177.00579833984375,157.58445739746094 176.03076171875,156.6094207763672 174.82937622070312,156.6094207763672 Z" style="fill: rgb(38, 38, 38); stroke-width: 1px; stroke: none;"/>
<path clip-path="url(#contour)" comment="clipped pattern element 177.7777777777778, 166.66666666666666 clipped and transformed" d="M 179.11038208007812,157.8971710205078 C 178.98873901367188,158.16856384277344 178.9210662841797,158.46934509277344 178.9210662841797,158.7858428955078 C 178.9210662841797,159.84991455078125 179.6859588623047,160.73641967773438 180.6955108642578,160.92518615722656 C 180.78390502929688,160.7871551513672 180.87200927734375,160.6490478515625 180.9598388671875,160.5108642578125 C 181.0587921142578,160.3551788330078 181.1573944091797,160.19940185546875 181.25564575195312,160.0435333251953 C 181.25579833984375,160.04330444335938 181.2559356689453,160.0430908203125 181.25607299804688,160.04286193847656 L 179.11038208007812,157.8971710205078 Z" style="fill: rgb(38, 38, 38); stroke-width: 1px; stroke: none;"/>
<path clip-path="url(#contour)" comment="clipped pattern element 177.7777777777778, 166.66666666666666 clipped and transformed" d="M 177.32662963867188,157.63198852539062 C 177.286376953125,161.51600646972656 175.64659118652344,166.5768280029297 174.2364501953125,170.22634887695312 C 175.6669464111328,168.31846618652344 177.043701171875,166.39346313476562 178.365234375,164.4528350830078 C 178.63812255859375,164.05210876464844 178.9086456298828,163.65072631835938 179.1768035888672,163.24868774414062 C 178.6909942626953,161.30731201171875 178.3634796142578,159.38255310058594 178.35459899902344,157.702880859375 L 177.32662963867188,157.63198852539062 Z" style="fill: rgb(38, 38, 38); stroke-width: 1px; stroke: none;"/>
<path clip-path="url(#contour)" comment="clipped pattern element 22.22222222222222, 194.44444444444443 clipped and transformed" d="M 34.312347412109375,180.7059783935547 C 34.35054397583008,180.7491912841797 34.388771057128906,180.79238891601562 34.427024841308594,180.8355712890625 C 34.72351837158203,181.17030334472656 35.021697998046875,181.50436401367188 35.321556091308594,181.83775329589844 C 35.421531677246094,181.9488983154297 35.521690368652344,182.05996704101562 35.62203598022461,182.1709747314453 C 35.442955017089844,181.50003051757812 34.9510612487793,180.95635986328125 34.312347412109375,180.7059783935547 Z" style="fill: rgb(38, 38, 38); stroke-width: 1px; stroke: none;"/>
<path clip-path="url(#contour)" comment="outer shield shape border" d="M 0.0,0.0 L 200.0,0.0 L 200.0,100.0 C 200.0,150.0 160.0,200.0 100.0,230.0 C 40.0,200.0 0.0,150.0 0.0,100.0 L 0.0,0.0 Z" style="fill: none; stroke-width: 1px; stroke: rgb(0, 0, 0);"/>
</g>
</svg>
