<?xml version="1.0" encoding="UTF-8" standalone="no"?>
<svg xmlns="http://www.w3.org/2000/svg" height="246.0" width="216.0">
<defs>
<clipPath id="contour">
<path d="M 8.0,8.0 L 208.0,8.0 L 208.0,108.0 C 208.0,158.0 168.0,208.0 108.0,238.0 C 48.0,208.0 8.0,158.0 8.0,108.0 L 8.0,8.0 Z"/>
</clipPath>
<radialGradient id="lighting">
<stop offset="25%" stop-color="white" stop-opacity="35%"/>
<stop offset="100%" stop-color="white" stop-opacity="0%"/>
</radialGradient>
</defs>
<g>
<path d="M 8.0,8.0 L 8.0,108.0 L 108.0,108.0 L 108.0,8.0 L 8.0,8.0 Z" style="fill: rgb(230, 230, 230); stroke-width: 1px; stroke: none;"/>
<path d="M 84.9704360961914,8.0 C 86.47895812988281,8.435133278369904 87.77296447753906,8.226694568991661 89.81818389892578,10.271915674209595 C 93.49552917480469,13.949265480041504 88.24776458740234,20.601654052734375 83.70230865478516,20.601654052734375 C 82.6292724609375,20.601654052734375 81.59537506103516,20.230929374694824 80.7272720336914,19.36282444000244 C 77.54545593261719,16.18100643157959 79.81818389892578,14.817369937896729 76.63636016845703,11.635551929473877 C 75.70744323730469,10.706632375717163 74.56759643554688,10.30503535270691 73.34254455566406,10.30503535270691 C 67.37418365478516,10.30503535270691 59.38346481323242,19.837199211120605 63.90909194946289,24.362825393676758 C 67.09090805053711,27.54464340209961 68.45454406738281,25.271915435791016 71.6363639831543,28.453733444213867 C 75.31371307373047,32.13108444213867 70.06594848632812,38.78347206115723 65.52049255371094,38.78347206115723 C 64.44745635986328,38.78347206115723 63.41355895996094,38.41274833679199 62.54545593261719,37.54464340209961 C 59.3636360168457,34.36282539367676 61.6363639831543,32.99918746948242 58.45454406738281,29.81736946105957 C 57.52562713623047,28.888450622558594 56.38577651977539,28.486854553222656 55.16072463989258,28.486854553222656 C 49.19236373901367,28.486854553222656 41.2016487121582,38.01901626586914 45.727272033691406,42.54464340209961 C 48.90909194946289,45.72645950317383 50.272727966308594,43.4537353515625 53.45454406738281,46.63555145263672 C 57.13189697265625,50.31290054321289 51.88412857055664,56.96529006958008 47.33867645263672,56.96529006958008 C 46.26564025878906,56.96529006958008 45.23173904418945,56.594566345214844 44.3636360168457,55.72645950317383 C 41.181819915771484,52.54464340209961 43.45454406738281,51.181007385253906 40.272727966308594,47.99918746948242 C 39.343807220458984,47.07027053833008 38.20395851135254,46.668670654296875 36.97890663146973,46.668670654296875 C 31.01054573059082,46.668670654296875 23.01982879638672,56.200836181640625 27.545454025268555,60.72645950317383 C 30.727272033691406,63.90827941894531 32.09090995788574,61.63555145263672 35.272727966308594,64.8173713684082 C 38.950077056884766,68.49472045898438 33.70231056213379,75.14710998535156 29.156856536865234,75.14710998535156 C 28.083820343017578,75.14710998535156 27.049922943115234,74.77638244628906 26.18181800842285,73.90827941894531 C 23.0,70.72645950317383 25.272727966308594,69.36282348632812 22.090909004211426,66.1810073852539 C 21.161989212036133,65.2520866394043 20.022140502929688,64.85049057006836 18.797088623046875,64.85049057006836 C 12.828728199005127,64.85049057006836 4.838010549545288,74.38265228271484 9.363636374473572,78.90827941894531 C 12.545454502105713,82.09009552001953 13.909090995788574,79.81736755371094 17.090909004211426,82.99919128417969 C 20.768259048461914,86.6765365600586 15.520493030548096,93.32892608642578 10.975038528442383,93.32892608642578 C 9.902002334594727,93.32892608642578 8.868104577064514,92.95819854736328 8.000000000000028,92.09009552001953 C 8.000000000000018,92.09009552001953 8.000000000000007,92.09009552001953 7.999999999999998,92.09009552001953 L 8.0,92.09009552001953 L 8.0,108.0 L 31.029565811157227,108.0 C 29.521039962768555,107.56486511230469 28.227039337158203,107.77330780029297 26.18181800842285,105.72808074951172 C 22.504467964172363,102.05073547363281 27.752233505249023,95.39834594726562 32.29768943786621,95.39834594726562 C 33.37072563171387,95.39834594726562 34.40462303161621,95.76907348632812 35.272727966308594,96.63717651367188 C 38.454545974731445,99.8189926147461 36.18181800842285,101.18263244628906 39.3636360168457,104.36444854736328 C 40.29255676269531,105.29336547851562 41.432403564453125,105.69496154785156 42.65745544433594,105.69496154785156 C 48.625816345214844,105.69496154785156 56.61653518676758,96.16280364990234 52.09090805053711,91.63717651367188 C 48.90909194946289,88.45536041259766 47.54545593261719,90.72808074951172 44.3636360168457,87.5462646484375 C 40.68628692626953,83.8689193725586 45.934051513671875,77.2165298461914 50.47950744628906,77.2165298461914 C 51.55254364013672,77.2165298461914 52.58644104003906,77.58724975585938 53.45454406738281,78.45536041259766 C 56.6363639831543,81.63717651367188 54.3636360168457,83.00080871582031 57.54545593261719,86.18263244628906 C 58.47437286376953,87.1115493774414 59.61422348022461,87.51314544677734 60.83927536010742,87.51314544677734 C 66.80763626098633,87.51314544677734 74.79835510253906,77.9809799194336 70.2727279663086,73.45536041259766 C 67.09090805053711,70.27354049682617 65.7272720336914,72.5462646484375 62.54545593261719,69.36444854736328 C 58.86810302734375,65.68709945678711 64.11587142944336,59.03470993041992 68.66132354736328,59.03470993041992 C 69.73435974121094,59.03470993041992 70.76826095581055,59.405433654785156 71.6363639831543,60.27354049682617 C 74.81818389892578,63.45535659790039 72.54545593261719,64.8189926147461 75.7272720336914,68.00081253051758 C 76.65618896484375,68.92972946166992 77.7960433959961,69.33132934570312 79.0210952758789,69.33132934570312 C 84.98945617675781,69.33132934570312 92.98017120361328,59.799163818359375 88.45454406738281,55.27354049682617 C 85.2727279663086,52.09172058105469 83.90908813476562,54.36444854736328 80.7272720336914,51.1826286315918 C 77.04991912841797,47.505279541015625 82.29769134521484,40.85289001464844 86.8431396484375,40.85289001464844 C 87.91617584228516,40.85289001464844 88.95008087158203,41.22361755371094 89.81818389892578,42.09172058105469 C 93.0,45.27354049682617 90.7272720336914,46.637176513671875 93.90908813476562,49.818992614746094 C 94.8380126953125,50.7479133605957 95.97785949707031,51.14950942993164 97.20291137695312,51.14950942993164 C 103.17127227783203,51.14950942993164 111.1619873046875,41.617347717285156 106.63636016845703,37.09172058105469 C 103.45454406738281,33.909902572631836 102.09091186523438,36.18263053894043 98.90908813476562,33.00081253051758 C 95.23174285888672,29.323461532592773 100.47950744628906,22.671072959899902 105.02496337890625,22.671072959899902 C 106.0979995727539,22.671072959899902 107.13189697265625,23.041797637939453 108.0,23.909902572631836 L 108.0,23.909902572631836 L 108.0,8.0 L 84.9704360961914,8.0 Z" style="fill: rgb(13, 38, 217); stroke-width: 1px; stroke: none;"/>
<path d="M 108.0,8.0 L 108.0,108.0 L 208.0,108.0 L 208.0,8.0 L 108.0,8.0 Z" style="fill: rgb(38, 38, 38); stroke-width: 1px; stroke: none;"/>
<path d="M 184.97557067871094,8.0 Q 180.72727966308594,9.966272592544556 180.72727966308594,16.1808443069458 Q 171.63636779785156,16.1808443069458 171.63636779785156,25.271753311157227 Q 162.5454559326172,25.271753311157227 162.5454559326172,34.36266326904297 Q 153.4545440673828,34.36266326904297 153.4545440673828,43.45357131958008 Q 144.36363220214844,43.45357131958008 144.36363220214844,52.54447937011719 Q 135.2727279663086,52.54447937011719 135.2727279663086,61.63539123535156 Q 126.18181610107422,61.63539123535156 126.18181610107422,70.72629928588867 L 126.18181610107422,70.72629928588867 Q 117.09091186523438,70.72629928588867 117.09091186523438,79.81720733642578 Q 108.0,79.81720733642578 108.0,88.90811920166016 L 108.0,88.90811920166016 L 108.0,108.0 L 131.02442932128906,108.0 Q 135.2727279663086,106.03372955322266 135.2727279663086,99.81915283203125 Q 144.36363220214844,99.81915283203125 144.36363220214844,90.7282485961914 Q 153.4545440673828,90.7282485961914 153.4545440673828,81.63733673095703 Q 162.5454559326172,81.63733673095703 162.5454559326172,72.54642486572266 Q 171.63636779785156,72.54642486572266 171.63636779785156,63.45552062988281 Q 180.72727966308594,63.45552062988281 180.72727966308594,54.36460876464844 Q 189.81817626953125,54.36460876464844 189.81817626953125,45.27370071411133 Q 198.90908813476562,45.27370071411133 198.90908813476562,36.18279266357422 Q 208.0,36.18279266357422 208.0,27.091882705688477 L 208.0,8.0 L 184.97557067871094,8.0 Z" style="fill: rgb(217, 217, 38); stroke-width: 1px; stroke: none;"/>
<path d="M 108.0,108.0 L 108.0,238.0 C 168.0,208.0 208.0,158.0 208.0,108.0 L 108.0,108.0 Z" style="fill: rgb(230, 230, 230); stroke-width: 1px; stroke: none;"/>
<path d="M 182.94903564453125,108.0 L 182.94903564453125,108.0 Q 182.0,109.91888427734375 182.0,112.78679656982422 Q 182.0,121.45346069335938 173.3333282470703,121.45346069335938 Q 164.6666717529297,121.45346069335938 164.6666717529297,130.12013244628906 Q 164.6666717529297,138.7867889404297 156.0,138.7867889404297 L 156.0,138.7867889404297 Q 147.3333282470703,138.7867889404297 147.3333282470703,147.45346069335938 Q 147.3333282470703,156.12013244628906 138.6666717529297,156.12013244628906 L 138.6666717529297,156.12013244628906 Q 130.0,156.12013244628906 130.0,164.7867889404297 Q 130.0,173.45346069335938 121.33333587646484,173.45346069335938 Q 112.66666412353516,173.45346069335938 112.66666412353516,182.12013244628906 Q 112.66666412353516,188.47972106933594 108.0,190.1726531982422 L 108.0,190.1726531982422 L 108.0,225.43753051757812 L 108.0,225.43753051757812 Q 109.8878402709961,224.54653930664062 112.66666412353516,224.54653930664062 Q 121.33333587646484,224.54653930664062 121.33333587646484,215.87986755371094 Q 121.33333587646484,207.2132110595703 130.0,207.2132110595703 L 130.0,207.2132110595703 Q 138.6666717529297,207.2132110595703 138.6666717529297,198.54653930664062 Q 138.6666717529297,189.87986755371094 147.3333282470703,189.87986755371094 L 147.3333282470703,189.87986755371094 Q 156.0,189.87986755371094 156.0,181.2132110595703 Q 156.0,172.54653930664062 164.6666717529297,172.54653930664062 L 164.6666717529297,172.54653930664062 Q 173.3333282470703,172.54653930664062 173.3333282470703,163.87986755371094 Q 173.3333282470703,155.2132110595703 182.0,155.2132110595703 Q 190.6666717529297,155.2132110595703 190.6666717529297,146.54653930664062 Q 190.6666717529297,137.87986755371094 199.3333282470703,137.87986755371094 Q 201.7981719970703,137.87986755371094 203.56201171875,137.17886352539062 L 203.56201171875,137.17886352539062 C 206.47084045410156,127.55223083496094 208.0,117.77611541748047 208.0,108.0 L 182.94903564453125,108.0 Z" style="fill: rgb(38, 217, 38); stroke-width: 1px; stroke: none;"/>
<path d="M 8.0,108.0 C 8.0,158.0 48.0,208.0 108.0,238.0 L 108.0,108.0 L 8.0,108.0 Z" style="fill: rgb(38, 38, 38); stroke-width: 1px; stroke: none;"/>
<path d="M 82.0,108.0 L 82.0,112.78679656982422 L 82.0,121.45346069335938 L 64.66666793823242,121.45346069335938 L 64.66666793823242,130.12013244628906 L 64.66666793823242,138.7867889404297 L 56.0,138.7867889404297 L 47.33333206176758,138.7867889404297 L 47.33333206176758,147.45346069335938 L 47.33333206176758,156.12013244628906 L 38.66666603088379,156.12013244628906 L 30.0,156.12013244628906 L 30.0,164.7867889404297 L 30.0,172.9867401123047 L 30.0,172.9867401123047 C 33.975385665893555,178.77151489257812 38.44175910949707,184.41578674316406 43.35944747924805,189.87986755371094 L 38.66666603088379,189.87986755371094 L 47.33333206176758,189.87986755371094 L 56.0,189.87986755371094 L 56.0,181.2132110595703 L 56.0,172.54653930664062 L 64.66666793823242,172.54653930664062 L 73.33333587646484,172.54653930664062 L 73.33333587646484,163.87986755371094 L 73.33333587646484,155.2132110595703 L 90.66666412353516,155.2132110595703 L 90.66666412353516,146.54653930664062 L 90.66666412353516,137.87986755371094 L 108.0,137.87986755371094 L 108.0,129.21320343017578 L 108.0,120.54653930664062 L 108.0,120.54653930664062 L 108.0,108.0 L 82.0,108.0 Z" style="fill: rgb(217, 38, 38); stroke-width: 1px; stroke: none;"/>
<path d="M 8.0,8.0 L 208.0,8.0 L 208.0,108.0 C 208.0,158.0 168.0,208.0 108.0,238.0 C 48.0,208.0 8.0,158.0 8.0,108.0 L 8.0,8.0 Z" style="fill: none; stroke-width: 1px; stroke: rgb(0, 0, 0);"/>
</g>
<rect clip-path="url(#contour)" fill="url(#lighting)" height="246.0" width="216.0" x="0.0" y="0.0"/>
</svg>
