<?xml version="1.0" encoding="UTF-8" standalone="no"?>
<svg xmlns="http://www.w3.org/2000/svg" height="246.0" width="216.0">
<defs>
<clipPath id="contour">
<path d="M 8.0,8.0 L 208.0,8.0 L 208.0,108.0 C 208.0,158.0 168.0,208.0 108.0,238.0 C 48.0,208.0 8.0,158.0 8.0,108.0 L 8.0,8.0 Z"/>
</clipPath>
<radialGradient id="lighting">
<stop offset="25%" stop-color="white" stop-opacity="35%"/>
<stop offset="100%" stop-color="white" stop-opacity="0%"/>
</radialGradient>
</defs>
<g transform="translate(8.0,8.0)">
<path clip-path="url(#contour)" d="M 0.0,0.0 L 200.0,0.0 L 200.0,100.0 C 200.0,150.0 160.0,200.0 100.0,230.0 C 40.0,200.0 0.0,150.0 0.0,100.0 L 0.0,0.0 Z" style="fill: rgb(217, 38, 38); stroke-width: 1px; stroke: none;"/>
<path clip-path="url(#contour)" d="M 87.57439422607422,98.62986755371094 C 87.57440185546875,98.62987518310547 87.57440185546875,98.6298828125 87.57440948486328,98.62989044189453 L 87.57441711425781,98.62989044189453 C 87.57440948486328,98.6298828125 87.57440185546875,98.62987518310547 87.57439422607422,98.62986755371094 L 87.57439422607422,98.62986755371094 Z" style="fill: rgb(217, 217, 38); stroke-width: 1px; stroke: none;"/>
<path clip-path="url(#contour)" d="M 100.03822326660156,20.403902053833008 C 99.98991394042969,20.403902053833008 99.94390106201172,20.440961837768555 99.87519073486328,20.52341079711914 C 94.308837890625,25.340930938720703 89.36650848388672,29.808992385864258 85.49752044677734,34.77627944946289 C 74.6393814086914,48.70465087890625 70.99503326416016,63.8311653137207 77.08557891845703,76.06217193603516 C 81.56160736083984,85.68144989013672 85.0089111328125,92.63432312011719 87.57439422607422,98.62986755371094 C 82.11263275146484,90.759765625 74.36392974853516,85.3887710571289 65.70325469970703,82.9764404296875 C 63.5522346496582,82.33634185791016 61.21034622192383,81.9825439453125 58.75502014160156,81.9825439453125 C 52.97602081298828,81.9825439453125 46.568607330322266,83.94248962402344 40.542327880859375,88.74248504638672 C 29.93380355834961,97.204345703125 26.838603973388672,120.54310607910156 58.015193939208984,125.03612518310547 C 54.72031021118164,121.2170639038086 54.99488830566406,112.90496063232422 61.584651947021484,109.95954132080078 C 63.69044494628906,109.14641571044922 65.91378784179688,108.8034896850586 67.98194122314453,108.8034896850586 C 70.86582946777344,108.8034896850586 73.44796752929688,109.47028350830078 74.98883819580078,110.4587631225586 C 77.47659301757812,111.61585998535156 80.52587890625,115.36267852783203 82.2912826538086,120.0189208984375 L 74.5894546508789,120.0189208984375 L 74.5894546508789,133.48301696777344 L 82.7143783569336,133.48301696777344 C 80.3010025024414,140.5558624267578 74.29497528076172,144.4376220703125 60.18682098388672,154.8897705078125 C 72.2181396484375,154.8897705078125 86.89534759521484,147.12681579589844 89.99053955078125,144.3061981201172 L 89.99054718017578,144.3061981201172 C 90.22992706298828,144.0931854248047 90.46849060058594,143.78982543945312 90.70477294921875,143.41220092773438 L 90.70478057861328,143.41220092773438 C 89.75680541992188,149.3191680908203 85.22743225097656,154.0112762451172 77.23534393310547,156.7368927001953 C 78.29878234863281,159.41966247558594 83.17675018310547,164.8170623779297 89.96585845947266,164.8170623779297 C 90.18838500976562,164.8170623779297 90.4129638671875,164.81126403808594 90.63953399658203,164.79937744140625 C 92.03736114501953,170.79006958007812 93.43518829345703,174.1348876953125 99.87519073486328,179.57643127441406 C 99.95008087158203,179.6388397216797 99.98751831054688,179.67002868652344 100.02496337890625,179.67002868652344 C 100.06240844726562,179.67002868652344 100.09984588623047,179.6388397216797 100.17472839355469,179.57643127441406 C 106.61473083496094,174.1348876953125 108.01255798339844,170.79006958007812 109.41039276123047,164.79937744140625 C 109.63695526123047,164.81126403808594 109.86153411865234,164.8170623779297 110.08406066894531,164.8170623779297 C 116.87317657470703,164.8170623779297 121.75113677978516,159.41966247558594 122.81458282470703,156.7368927001953 C 115.1147232055664,154.11093139648438 110.62899017333984,149.65968322753906 109.46349334716797,144.05526733398438 L 109.4635009765625,144.05526733398438 C 109.54550170898438,144.14913940429688 109.6276626586914,144.23300170898438 109.70991516113281,144.3061981201172 L 109.70992279052734,144.3061981201172 C 112.80511474609375,147.12681579589844 127.4823226928711,154.8897705078125 139.51364135742188,154.8897705078125 C 125.40548706054688,144.4376220703125 119.39945983886719,140.5558624267578 116.986083984375,133.48301696777344 L 125.48542785644531,133.48301696777344 L 125.48542785644531,120.0189208984375 L 117.4091796875,120.0189208984375 C 119.1745834350586,115.36267852783203 122.22386169433594,111.61585998535156 124.71162414550781,110.4587631225586 C 126.25249481201172,109.47028350830078 128.83462524414062,108.8034896850586 131.71852111816406,108.8034896850586 C 133.78668212890625,108.8034896850586 136.01002502441406,109.14641571044922 138.11581420898438,109.95954132080078 C 144.70558166503906,112.90496063232422 144.9801483154297,121.2170639038086 141.68527221679688,125.03612518310547 C 172.8618621826172,120.54310607910156 169.76666259765625,97.204345703125 159.15814208984375,88.74248504638672 C 153.13185119628906,83.94248962402344 146.7244415283203,81.9825439453125 140.9454345703125,81.9825439453125 C 138.4901123046875,81.9825439453125 136.14822387695312,82.33634185791016 133.99720764160156,82.9764404296875 C 125.78907012939453,85.2627182006836 118.40008544921875,90.20655822753906 113.00076293945312,97.4167251586914 C 115.5055160522461,91.69483184814453 118.78690338134766,85.03976440429688 122.96434020996094,76.06217193603516 C 129.02992248535156,63.83116149902344 125.41053771972656,48.70465087890625 114.55239868164062,34.77627944946289 C 110.68341064453125,29.78403091430664 105.76603698730469,25.291006088256836 100.17472076416016,20.473487854003906 L 100.17472839355469,20.473487854003906 C 100.1186294555664,20.42860984802246 100.0776596069336,20.403902053833008 100.03822326660156,20.403902053833008 L 100.03822326660156,20.403902053833008 Z" style="fill: rgb(217, 217, 38); stroke-width: 1px; stroke: none;"/>
<path clip-path="url(#contour)" d="M 0.0,0.0 L 15.0,15.0 L 185.0,15.0 L 185.0,100.0 L 200.0,100.0 L 200.0,0.0 L 0.0,0.0 Z" style="fill: rgb(230, 230, 230); stroke-width: 1px; stroke: none;"/>
<path clip-path="url(#contour)" d="M 10.0,10.0 L 15.0,15.0 L 185.0,15.0 L 185.0,20.0 L 200.0,20.0 L 200.0,10.0 L 10.0,10.0 Z" style="fill: rgb(38, 38, 38); stroke-width: 1px; stroke: none;"/>
<path clip-path="url(#contour)" d="M 185.0,30.0 L 185.0,40.0 L 200.0,40.0 L 200.0,30.0 L 185.0,30.0 Z" style="fill: rgb(38, 38, 38); stroke-width: 1px; stroke: none;"/>
<path clip-path="url(#contour)" d="M 185.0,50.0 L 185.0,60.0 L 200.0,60.0 L 200.0,50.0 L 185.0,50.0 Z" style="fill: rgb(38, 38, 38); stroke-width: 1px; stroke: none;"/>
<path clip-path="url(#contour)" d="M 185.0,70.0 L 185.0,80.0 L 200.0,80.0 L 200.0,70.0 L 185.0,70.0 Z" style="fill: rgb(38, 38, 38); stroke-width: 1px; stroke: none;"/>
<path clip-path="url(#contour)" d="M 185.0,90.0 L 185.0,100.0 L 200.0,100.0 L 200.0,90.0 L 185.0,90.0 Z" style="fill: rgb(38, 38, 38); stroke-width: 1px; stroke: none;"/>
<path clip-path="url(#contour)" d="M 0.0,0.0 L 0.0,100.0 C 0.0,150.0 40.0,200.0 100.0,230.0 C 160.0,200.0 200.0,150.0 200.0,100.0 L 185.0,100.0 C 185.0,142.5 151.0,185.0 100.0,210.5 C 49.0,185.0 15.0,142.5 15.0,100.0 L 15.0,15.0 L 0.0,0.0 L 0.0,0.0 Z" style="fill: rgb(230, 230, 230); stroke-width: 1px; stroke: none;"/>
<path clip-path="url(#contour)" d="M 0.0,23.0 L 0.0,46.0 L 15.0,46.0 L 15.0,23.0 L 0.0,23.0 Z" style="fill: rgb(38, 38, 38); stroke-width: 1px; stroke: none;"/>
<path clip-path="url(#contour)" d="M 0.0,69.0 L 0.0,92.0 L 15.0,92.0 L 15.0,69.0 L 0.0,69.0 Z" style="fill: rgb(38, 38, 38); stroke-width: 1px; stroke: none;"/>
<path clip-path="url(#contour)" d="M 1.1831345558166504,115.0 L 1.1831345558166504,115.0 C 2.3970298767089844,122.74007415771484 4.528822422027588,130.43177795410156 7.503420829772949,138.0 L 23.817533493041992,138.0 C 20.330495834350586,130.47146606445312 17.819169998168945,122.76959228515625 16.38917350769043,115.0 L 1.1831345558166504,115.0 Z" style="fill: rgb(38, 38, 38); stroke-width: 1px; stroke: none;"/>
<path clip-path="url(#contour)" d="M 183.61082458496094,115.0 C 182.1808319091797,122.76959228515625 179.6695098876953,130.47146606445312 176.18246459960938,138.0 L 192.49658203125,138.0 C 195.47117614746094,130.43177795410156 197.60296630859375,122.74007415771484 198.81686401367188,115.0 L 1.1831345558166504,115.0 Z" style="fill: rgb(38, 38, 38); stroke-width: 1px; stroke: none;"/>
<path clip-path="url(#contour)" d="M 19.352420806884766,161.0 L 19.352420806884766,161.0 C 24.444931030273438,168.94235229492188 30.460142135620117,176.6421661376953 37.298614501953125,184.0 L 59.8201789855957,184.0 C 51.476654052734375,176.81471252441406 44.113853454589844,169.0947265625 37.89173889160156,161.0 L 19.352420806884766,161.0 Z" style="fill: rgb(38, 38, 38); stroke-width: 1px; stroke: none;"/>
<path clip-path="url(#contour)" d="M 162.10826110839844,161.0 C 155.8861541748047,169.0947265625 148.52334594726562,176.81471252441406 140.17982482910156,184.0 L 162.70138549804688,184.0 C 169.53985595703125,176.6421661376953 175.55506896972656,168.94235229492188 180.6475830078125,161.0 L 19.352420806884766,161.0 Z" style="fill: rgb(38, 38, 38); stroke-width: 1px; stroke: none;"/>
<path clip-path="url(#contour)" d="M 62.84389114379883,207.0 C 74.0706558227539,215.5236358642578 86.53143310546875,223.26571655273438 100.0,230.0 C 113.46856689453125,223.26571655273438 125.9293441772461,215.5236358642578 137.15611267089844,207.0 L 106.69914245605469,207.0 C 104.50068664550781,208.1992645263672 102.26714324951172,209.36642456054688 100.0,210.5 C 97.73285675048828,209.36642456054688 95.49931335449219,208.1992645263672 93.30085754394531,207.0 L 62.84389114379883,207.0 Z" style="fill: rgb(38, 38, 38); stroke-width: 1px; stroke: none;"/>
<path clip-path="url(#contour)" d="M 0.0,0.0 L 200.0,0.0 L 200.0,100.0 C 200.0,150.0 160.0,200.0 100.0,230.0 C 40.0,200.0 0.0,150.0 0.0,100.0 L 0.0,0.0 Z" style="fill: none; stroke-width: 1px; stroke: rgb(0, 0, 0);"/>
</g>
</svg>
