<?xml version="1.0" encoding="UTF-8" standalone="no"?>
<svg xmlns="http://www.w3.org/2000/svg" height="246.0" width="216.0">
<defs>
<clipPath id="contour">
<path d="M 0.0,0.0 L 200.0,0.0 L 200.0,100.0 C 200.0,150.0 160.0,200.0 100.0,230.0 C 40.0,200.0 0.0,150.0 0.0,100.0 L 0.0,0.0 Z"/>
</clipPath>
<radialGradient id="lighting">
<stop offset="25%" stop-color="white" stop-opacity="35%"/>
<stop offset="100%" stop-color="white" stop-opacity="0%"/>
</radialGradient>
</defs>
<g transform="translate(8.0,8.0)">
<path clip-path="url(#contour)" comment="clipped LozengyVariationRenderer background" d="M 0.0,0.0 L 0.0,100.0 C 0.0,150.0 40.0,200.0 100.0,230.0 C 160.0,200.0 200.0,150.0 200.0,100.0 L 200.0,0.0 L 0.0,0.0 Z" style="fill-rule: evenodd; fill: rgb(38, 64, 204); stroke-width: 1px; stroke: none;"/>
<path clip-path="url(#contour)" comment="clipped lozengy 0.0,40.658639918226484" d="M 20.329320907592773,0.0 L 0.0,20.329320907592773 L 20.329320907592773,40.65864181518555 L 40.65864181518555,20.329320907592773 L 20.329320907592773,0.0 Z" style="fill-rule: evenodd; fill: rgb(230, 230, 230); stroke-width: 1px; stroke: none;"/>
<path clip-path="url(#contour)" comment="clipped lozengy 40.658639918226484,81.31727983645297" d="M 60.98796081542969,0.0 L 40.65864181518555,20.329320907592773 L 60.98796081542969,40.65864181518555 L 81.3172836303711,20.329320907592773 L 60.98796081542969,0.0 Z" style="fill-rule: evenodd; fill: rgb(230, 230, 230); stroke-width: 1px; stroke: none;"/>
<path clip-path="url(#contour)" comment="clipped lozengy 81.31727983645297,121.97591975467945" d="M 101.64659881591797,0.0 L 81.3172836303711,20.329320907592773 L 101.64659881591797,40.65864181518555 L 121.97592163085938,20.329320907592773 L 101.64659881591797,0.0 Z" style="fill-rule: evenodd; fill: rgb(230, 230, 230); stroke-width: 1px; stroke: none;"/>
<path clip-path="url(#contour)" comment="clipped lozengy 121.97591975467945,162.63455967290594" d="M 142.30523681640625,0.0 L 121.97592163085938,20.329320907592773 L 142.30523681640625,40.65864181518555 L 162.6345672607422,20.329320907592773 L 142.30523681640625,0.0 Z" style="fill-rule: evenodd; fill: rgb(230, 230, 230); stroke-width: 1px; stroke: none;"/>
<path clip-path="url(#contour)" comment="clipped lozengy 162.63455967290594,203.2931995911324" d="M 182.96388244628906,0.0 L 162.6345672607422,20.329320907592773 L 182.96388244628906,40.65864181518555 L 200.0,23.622520446777344 L 200.0,17.03611946105957 L 182.96388244628906,0.0 Z" style="fill-rule: evenodd; fill: rgb(230, 230, 230); stroke-width: 1px; stroke: none;"/>
<path clip-path="url(#contour)" comment="clipped lozengy 0.0,40.658639918226484" d="M 20.329320907592773,40.65864181518555 L 0.0,60.98796081542969 L 20.329320907592773,81.3172836303711 L 40.65864181518555,60.98796081542969 L 20.329320907592773,40.65864181518555 Z" style="fill-rule: evenodd; fill: rgb(230, 230, 230); stroke-width: 1px; stroke: none;"/>
<path clip-path="url(#contour)" comment="clipped lozengy 40.658639918226484,81.31727983645297" d="M 60.98796081542969,40.65864181518555 L 40.65864181518555,60.98796081542969 L 60.98796081542969,81.3172836303711 L 81.3172836303711,60.98796081542969 L 60.98796081542969,40.65864181518555 Z" style="fill-rule: evenodd; fill: rgb(230, 230, 230); stroke-width: 1px; stroke: none;"/>
<path clip-path="url(#contour)" comment="clipped lozengy 81.31727983645297,121.97591975467945" d="M 101.64659881591797,40.65864181518555 L 81.3172836303711,60.98796081542969 L 101.64659881591797,81.3172836303711 L 121.97592163085938,60.98796081542969 L 101.64659881591797,40.65864181518555 Z" style="fill-rule: evenodd; fill: rgb(230, 230, 230); stroke-width: 1px; stroke: none;"/>
<path clip-path="url(#contour)" comment="clipped lozengy 121.97591975467945,162.63455967290594" d="M 142.30523681640625,40.65864181518555 L 121.97592163085938,60.98796081542969 L 142.30523681640625,81.3172836303711 L 162.6345672607422,60.98796081542969 L 142.30523681640625,40.65864181518555 Z" style="fill-rule: evenodd; fill: rgb(230, 230, 230); stroke-width: 1px; stroke: none;"/>
<path clip-path="url(#contour)" comment="clipped lozengy 162.63455967290594,203.2931995911324" d="M 182.96388244628906,40.65864181518555 L 162.6345672607422,60.98796081542969 L 182.96388244628906,81.3172836303711 L 200.0,64.28115844726562 L 200.0,57.694759368896484 L 182.96388244628906,40.65864181518555 Z" style="fill-rule: evenodd; fill: rgb(230, 230, 230); stroke-width: 1px; stroke: none;"/>
<path clip-path="url(#contour)" comment="clipped lozengy 0.0,40.658639918226484" d="M 20.329320907592773,81.3172836303711 L 0.014186788350343704,101.63241577148438 C 0.014353993348777294,101.64204406738281 0.01452267449349165,101.65167236328125 0.014692829921841621,101.66130065917969 L 0.014697908423841,101.66130065917969 L 20.329320907592773,121.97592163085938 L 40.65864181518555,101.64659881591797 L 20.329320907592773,81.3172836303711 Z" style="fill-rule: evenodd; fill: rgb(230, 230, 230); stroke-width: 1px; stroke: none;"/>
<path clip-path="url(#contour)" comment="clipped lozengy 40.658639918226484,81.31727983645297" d="M 60.98796081542969,81.3172836303711 L 40.65864181518555,101.64659881591797 L 60.98796081542969,121.97592163085938 L 81.3172836303711,101.64659881591797 L 60.98796081542969,81.3172836303711 Z" style="fill-rule: evenodd; fill: rgb(230, 230, 230); stroke-width: 1px; stroke: none;"/>
<path clip-path="url(#contour)" comment="clipped lozengy 81.31727983645297,121.97591975467945" d="M 101.64659881591797,81.3172836303711 L 81.3172836303711,101.64659881591797 L 101.64659881591797,121.97592163085938 L 121.97592163085938,101.64659881591797 L 101.64659881591797,81.3172836303711 Z" style="fill-rule: evenodd; fill: rgb(230, 230, 230); stroke-width: 1px; stroke: none;"/>
<path clip-path="url(#contour)" comment="clipped lozengy 121.97591975467945,162.63455967290594" d="M 142.30523681640625,81.3172836303711 L 121.97592163085938,101.64659881591797 L 142.30523681640625,121.97592163085938 L 162.6345672607422,101.64659881591797 L 142.30523681640625,81.3172836303711 Z" style="fill-rule: evenodd; fill: rgb(230, 230, 230); stroke-width: 1px; stroke: none;"/>
<path clip-path="url(#contour)" comment="clipped lozengy 162.63455967290594,203.2931995911324" d="M 182.96388244628906,81.3172836303711 L 162.6345672607422,101.64659881591797 L 182.96388244628906,121.97592163085938 L 199.86328125,105.0765151977539 C 199.9541778564453,103.38485717773438 200.0,101.69242858886719 200.0,100.0 L 200.0,98.35340118408203 L 182.96388244628906,81.3172836303711 Z" style="fill-rule: evenodd; fill: rgb(230, 230, 230); stroke-width: 1px; stroke: none;"/>
<path clip-path="url(#contour)" comment="clipped lozengy 0.0,40.658639918226484" d="M 20.329320907592773,121.97592163085938 L 6.621010780334473,135.68423461914062 C 10.008905410766602,144.8638458251953 14.639936447143555,153.87417602539062 20.381399154663086,162.5824737548828 L 40.65864181518555,142.30523681640625 L 20.329320907592773,121.97592163085938 Z" style="fill-rule: evenodd; fill: rgb(230, 230, 230); stroke-width: 1px; stroke: none;"/>
<path clip-path="url(#contour)" comment="clipped lozengy 40.658639918226484,81.31727983645297" d="M 60.98796081542969,121.97592163085938 L 40.65864181518555,142.30523681640625 L 60.98796081542969,162.6345672607422 L 81.3172836303711,142.30523681640625 L 60.98796081542969,121.97592163085938 Z" style="fill-rule: evenodd; fill: rgb(230, 230, 230); stroke-width: 1px; stroke: none;"/>
<path clip-path="url(#contour)" comment="clipped lozengy 81.31727983645297,121.97591975467945" d="M 101.64659881591797,121.97592163085938 L 81.3172836303711,142.30523681640625 L 101.64659881591797,162.6345672607422 L 121.97592163085938,142.30523681640625 L 101.64659881591797,121.97592163085938 Z" style="fill-rule: evenodd; fill: rgb(230, 230, 230); stroke-width: 1px; stroke: none;"/>
<path clip-path="url(#contour)" comment="clipped lozengy 121.97591975467945,162.63455967290594" d="M 142.30523681640625,121.97592163085938 L 121.97592163085938,142.30523681640625 L 142.30523681640625,162.6345672607422 L 162.6345672607422,142.30523681640625 L 142.30523681640625,121.97592163085938 Z" style="fill-rule: evenodd; fill: rgb(230, 230, 230); stroke-width: 1px; stroke: none;"/>
<path clip-path="url(#contour)" comment="clipped lozengy 162.63455967290594,203.2931995911324" d="M 182.96388244628906,121.97592163085938 L 162.6345672607422,142.30523681640625 L 180.913330078125,160.58399963378906 C 186.54983520507812,151.7278289794922 191.03939819335938,142.5728759765625 194.2445526123047,133.256591796875 L 182.96388244628906,121.97592163085938 Z" style="fill-rule: evenodd; fill: rgb(230, 230, 230); stroke-width: 1px; stroke: none;"/>
<path clip-path="url(#contour)" comment="clipped lozengy 0.0,40.658639918226484" d="M 20.584569931030273,162.8898162841797 C 25.691987991333008,170.5950469970703 31.668956756591797,178.06222534179688 38.42332077026367,185.19920349121094 L 40.65864181518555,182.96388244628906 L 20.58457374572754,162.8898162841797 L 20.584569931030273,162.8898162841797 Z" style="fill-rule: evenodd; fill: rgb(230, 230, 230); stroke-width: 1px; stroke: none;"/>
<path clip-path="url(#contour)" comment="clipped lozengy 40.658639918226484,81.31727983645297" d="M 60.98796081542969,162.6345672607422 L 40.65864181518555,182.96388244628906 L 60.98796081542969,203.29319763183594 L 81.3172836303711,182.96388244628906 L 60.98796081542969,162.6345672607422 Z" style="fill-rule: evenodd; fill: rgb(230, 230, 230); stroke-width: 1px; stroke: none;"/>
<path clip-path="url(#contour)" comment="clipped lozengy 81.31727983645297,121.97591975467945" d="M 101.64659881591797,162.6345672607422 L 81.3172836303711,182.96388244628906 L 101.64659881591797,203.29319763183594 L 121.97592163085938,182.96388244628906 L 101.64659881591797,162.6345672607422 Z" style="fill-rule: evenodd; fill: rgb(230, 230, 230); stroke-width: 1px; stroke: none;"/>
<path clip-path="url(#contour)" comment="clipped lozengy 121.97591975467945,162.63455967290594" d="M 142.30523681640625,162.6345672607422 L 121.97592163085938,182.96388244628906 L 142.124267578125,203.1122283935547 C 142.78704833984375,202.57760620117188 143.44509887695312,202.0402069091797 144.09837341308594,201.50006103515625 L 162.6345672607422,182.96388244628906 L 142.30523681640625,162.6345672607422 Z" style="fill-rule: evenodd; fill: rgb(230, 230, 230); stroke-width: 1px; stroke: none;"/>
<path clip-path="url(#contour)" comment="clipped lozengy 162.63455967290594,203.2931995911324" d="M 170.16195678710938,175.43649291992188 L 162.6345672607422,182.96388244628906 L 163.16737365722656,183.4967041015625 C 165.60662841796875,180.8521270751953 167.93968200683594,178.1638641357422 170.16195678710938,175.43649291992188 Z" style="fill-rule: evenodd; fill: rgb(230, 230, 230); stroke-width: 1px; stroke: none;"/>
<path clip-path="url(#contour)" comment="clipped lozengy 40.658639918226484,81.31727983645297" d="M 60.98796081542969,203.29319763183594 L 59.7077751159668,204.57337951660156 C 62.92715072631836,207.1121826171875 66.25419616699219,209.5857696533203 69.68323516845703,211.9884796142578 L 60.98796081542969,203.29319763183594 Z" style="fill-rule: evenodd; fill: rgb(230, 230, 230); stroke-width: 1px; stroke: none;"/>
<path clip-path="url(#contour)" comment="clipped lozengy 81.31727983645297,121.97591975467945" d="M 101.64659881591797,203.29319763183594 L 83.80606079101562,221.1337432861328 C 89.02059936523438,224.25119018554688 94.42393493652344,227.2119598388672 100.0,230.0 C 106.31110382080078,226.84445190429688 112.40092468261719,223.46762084960938 118.2461929321289,219.89279174804688 L 101.64659881591797,203.29319763183594 Z" style="fill-rule: evenodd; fill: rgb(230, 230, 230); stroke-width: 1px; stroke: none;"/>
<path clip-path="url(#contour)" comment="FieldBackground" d="M 0.0,0.0 L 0.0,28.284271240234375 L 71.71572875976562,100.0 L 16.076921463012695,155.63880920410156 C 22.559659957885742,166.79566955566406 30.859355926513672,177.52891540527344 40.71086883544922,187.5734100341797 L 100.0,128.28427124023438 L 159.2891387939453,187.5734100341797 C 169.14064025878906,177.52891540527344 177.44033813476562,166.79566955566406 183.92308044433594,155.63880920410156 L 128.28427124023438,100.0 L 200.0,28.284271240234375 L 200.0,0.0 L 171.71572875976562,0.0 L 100.0,71.71572875976562 L 28.284271240234375,0.0 L 0.0,0.0 Z" style="fill-rule: evenodd; fill: rgb(179, 38, 26); stroke-width: 1px; stroke: none;"/>
<path clip-path="url(#contour)" comment="outer shield shape border" d="M 0.0,0.0 L 0.0,100.0 C 0.0,150.0 40.0,200.0 100.0,230.0 C 160.0,200.0 200.0,150.0 200.0,100.0 L 200.0,0.0 L 0.0,0.0 Z" style="fill-rule: evenodd; fill: none; stroke-width: 1px; stroke: rgb(0, 0, 0);"/>
</g>
</svg>
