<?xml version="1.0" encoding="UTF-8" standalone="no"?>
<svg xmlns="http://www.w3.org/2000/svg" height="246.0" width="216.0">
<defs>
<clipPath id="contour">
<path d="M 0.0,0.0 L 200.0,0.0 L 200.0,100.0 C 200.0,150.0 160.0,200.0 100.0,230.0 C 40.0,200.0 0.0,150.0 0.0,100.0 L 0.0,0.0 Z"/>
</clipPath>
<radialGradient id="lighting">
<stop offset="25%" stop-color="white" stop-opacity="35%"/>
<stop offset="100%" stop-color="white" stop-opacity="0%"/>
</radialGradient>
</defs>
<g transform="translate(8.0,8.0)">
<path clip-path="url(#contour)" comment="FieldBackground" d="M 0.0,0.0 L 0.0,100.0 C 0.0,150.0 40.0,200.0 100.0,230.0 C 160.0,200.0 200.0,150.0 200.0,100.0 L 200.0,0.0 L 0.0,0.0 Z" style="fill-rule: evenodd; fill: rgb(179, 38, 26); stroke-width: 1px; stroke: none;"/>
<path clip-path="url(#contour)" comment="FieldBackground" d="M 0.0,0.0 L 0.0,14.142135620117188 Q 4.292893409729004,27.020814895629883 17.171573638916016,31.313709259033203 Q 30.05025291442871,35.60660171508789 34.34314727783203,48.48528289794922 Q 38.63603973388672,61.36396026611328 51.51471710205078,65.65685272216797 Q 64.39339447021484,69.94974517822266 68.68629455566406,82.82843017578125 Q 72.97918701171875,95.70710754394531 85.85786437988281,100.0 Q 72.97918701171875,104.29289245605469 68.68629455566406,117.17156982421875 Q 64.39339447021484,130.0502471923828 51.51471710205078,134.3431396484375 Q 38.63603973388672,138.6360321044922 34.34314727783203,151.5147247314453 Q 31.071462631225586,161.32977294921875 22.812971115112305,166.15802001953125 C 26.104398727416992,170.85345458984375 29.719684600830078,175.4539337158203 33.63740158081055,179.93800354003906 Q 37.940574645996094,168.1619415283203 50.0,164.1421356201172 Q 62.5,159.9754638671875 66.66666412353516,147.4754638671875 Q 70.83333587646484,134.9754638671875 83.33333587646484,130.80880737304688 Q 95.83333587646484,126.64213562011719 100.0,114.14213562011719 Q 112.5,118.30879974365234 116.66666412353516,130.80880737304688 Q 120.83333587646484,143.30880737304688 133.3333282470703,147.4754638671875 Q 145.8333282470703,151.6421356201172 150.0,164.1421356201172 Q 154.0287628173828,176.2284393310547 165.84841918945312,180.5238800048828 C 169.9644317626953,175.85491943359375 173.75209045410156,171.0581817626953 177.18702697753906,166.15802001953125 Q 168.9285430908203,161.32977294921875 165.6568603515625,151.5147247314453 Q 161.3639678955078,138.6360321044922 148.4852752685547,134.3431396484375 Q 135.60659790039062,130.0502471923828 131.31370544433594,117.17156982421875 Q 127.02081298828125,104.29289245605469 114.14213562011719,100.0 Q 127.02081298828125,95.70710754394531 131.31370544433594,82.82843017578125 Q 135.60659790039062,69.94974517822266 148.4852752685547,65.65685272216797 Q 161.3639678955078,61.36396026611328 165.6568603515625,48.48528289794922 Q 169.9497528076172,35.60660171508789 182.82843017578125,31.313709259033203 Q 195.7071075439453,27.020814895629883 200.0,14.142135620117188 L 200.0,0.0 L 185.8578643798828,0.0 Q 172.97918701171875,4.292893409729004 168.68629455566406,17.171573638916016 Q 164.39340209960938,30.05025291442871 151.5147247314453,34.34314727783203 Q 138.6360321044922,38.63603973388672 134.3431396484375,51.51471710205078 Q 130.0502471923828,64.39339447021484 117.17156982421875,68.68629455566406 Q 104.29289245605469,72.97918701171875 100.0,85.85786437988281 Q 95.70710754394531,72.97918701171875 82.82843017578125,68.68629455566406 Q 69.94974517822266,64.39339447021484 65.65685272216797,51.51471710205078 Q 61.36396026611328,38.63603973388672 48.48528289794922,34.34314727783203 Q 35.60660171508789,30.05025291442871 31.313709259033203,17.171573638916016 Q 27.020814895629883,4.292893409729004 14.142135620117188,0.0 L 0.0,0.0 Z" style="fill-rule: evenodd; fill: rgb(38, 64, 204); stroke-width: 1px; stroke: none;"/>
<path clip-path="url(#contour)" comment="outer shield shape border" d="M 0.0,0.0 L 0.0,100.0 C 0.0,150.0 40.0,200.0 100.0,230.0 C 160.0,200.0 200.0,150.0 200.0,100.0 L 200.0,0.0 L 0.0,0.0 Z" style="fill-rule: evenodd; fill: none; stroke-width: 1px; stroke: rgb(0, 0, 0);"/>
</g>
</svg>
