<?xml version="1.0" encoding="UTF-8" standalone="no"?>
<svg xmlns="http://www.w3.org/2000/svg" height="246.0" width="216.0">
<defs>
<clipPath id="contour">
<path d="M 8.0,8.0 L 208.0,8.0 L 208.0,108.0 C 208.0,158.0 168.0,208.0 108.0,238.0 C 48.0,208.0 8.0,158.0 8.0,108.0 L 8.0,8.0 Z"/>
</clipPath>
<radialGradient id="lighting">
<stop offset="25%" stop-color="white" stop-opacity="35%"/>
<stop offset="100%" stop-color="white" stop-opacity="0%"/>
</radialGradient>
</defs>
<g transform="translate(8.0,8.0)">
<path d="M 0.0,0.0 L 200.0,0.0 L 200.0,100.0 C 200.0,150.0 160.0,200.0 100.0,230.0 C 40.0,200.0 0.0,150.0 0.0,100.0 L 0.0,0.0 Z" style="fill: rgb(217, 38, 38); stroke-width: 1px; stroke: none;"/>
<path d="M 84.96974182128906,113.62986755371094 L 84.96974182128906,113.62986755371094 C 84.9697494506836,113.62987518310547 84.9697494506836,113.6298828125 84.96975708007812,113.62989044189453 L 84.96976470947266,113.62989044189453 C 84.96975708007812,113.6298828125 84.9697494506836,113.62987518310547 84.96974182128906,113.62986755371094 L 84.96974182128906,113.62986755371094 Z" style="fill: rgb(166, 64, 166); stroke-width: 1px; stroke: none;"/>
<path d="M 88.02227783203125,44.00067138671875 C 86.15989685058594,45.882205963134766 84.44051361083984,47.789302825927734 82.89286804199219,49.77627944946289 C 79.2223892211914,54.484619140625 76.37623596191406,59.32986831665039 74.45178985595703,64.15390014648438 L 88.02227783203125,64.15390014648438 L 88.02227783203125,44.00067138671875 L 88.02227783203125,44.00067138671875 Z" style="fill: rgb(230, 230, 230); stroke-width: 1px; stroke: none;"/>
<path d="M 97.4335708618164,35.40390396118164 C 97.38526153564453,35.40390396118164 97.33924865722656,35.44096374511719 97.27054595947266,35.52341079711914 C 93.93080139160156,38.41386413574219 90.8156967163086,41.17851257324219 88.02227783203125,44.00067138671875 L 88.02227783203125,44.00067138671875 L 88.02227783203125,64.15390014648438 L 116.77227783203125,64.15390014648438 L 116.77227783203125,56.83835983276367 L 116.77227783203125,56.83835983276367 C 115.37374114990234,54.46361541748047 113.76176452636719,52.10322952270508 111.94774627685547,49.77627944946289 C 108.0787582397461,44.78403091430664 103.16139221191406,40.29100799560547 97.57007598876953,35.473487854003906 L 97.57008361816406,35.473487854003906 C 97.51398468017578,35.42860794067383 97.47301483154297,35.40390396118164 97.4335708618164,35.40390396118164 L 97.4335708618164,35.40390396118164 Z" style="fill: rgb(166, 64, 166); stroke-width: 1px; stroke: none;"/>
<path d="M 116.77227783203125,56.83835983276367 L 116.77227783203125,64.15390014648438 L 120.38316345214844,64.15390014648438 C 119.4112319946289,61.71399688720703 118.20352935791016,59.26866149902344 116.77227783203125,56.83835983276367 L 116.77227783203125,56.83835983276367 Z" style="fill: rgb(230, 230, 230); stroke-width: 1px; stroke: none;"/>
<path d="M 74.45178985595703,64.15390014648438 C 70.68327331542969,73.60049438476562 70.44922637939453,82.96572875976562 74.48092651367188,91.06217193603516 C 74.77175903320312,91.68717956542969 75.05824279785156,92.30093383789062 75.34042358398438,92.90390014648438 L 88.02227783203125,92.90390014648438 L 88.02227783203125,64.15390014648438 L 74.45178985595703,64.15390014648438 Z" style="fill: rgb(166, 64, 166); stroke-width: 1px; stroke: none;"/>
<path d="M 88.02227783203125,64.15390014648438 L 88.02227783203125,92.90390014648438 L 116.77227783203125,92.90390014648438 L 116.77227783203125,64.15390014648438 L 88.02227783203125,64.15390014648438 Z" style="fill: rgb(230, 230, 230); stroke-width: 1px; stroke: none;"/>
<path d="M 116.77227783203125,64.15390014648438 L 116.77227783203125,92.90390014648438 L 119.50019073486328,92.90390014648438 C 119.7823715209961,92.30093383789062 120.06886291503906,91.68717956542969 120.35968780517578,91.06217193603516 C 124.37486267089844,82.96572875976562 124.14616394042969,73.60049438476562 120.38316345214844,64.15390014648438 L 116.77227783203125,64.15390014648438 Z" style="fill: rgb(166, 64, 166); stroke-width: 1px; stroke: none;"/>
<path d="M 56.15037155151367,96.9825439453125 C 50.371368408203125,96.9825439453125 43.96395492553711,98.94248962402344 37.93767547607422,103.74248504638672 C 33.0406494140625,107.6485824584961 29.744606018066406,114.72474670410156 30.681596755981445,121.65390014648438 L 59.27227783203125,121.65390014648438 L 59.27227783203125,97.17638397216797 L 59.27227783203125,97.17638397216797 C 58.25714874267578,97.04898834228516 57.214412689208984,96.9825439453125 56.15037155151367,96.9825439453125 L 56.15037155151367,96.9825439453125 Z" style="fill: rgb(166, 64, 166); stroke-width: 1px; stroke: none;"/>
<path d="M 75.34042358398438,92.90390014648438 C 79.40120697021484,101.5809326171875 82.57095336914062,108.02388000488281 84.96974182128906,113.62986755371094 C 79.50798797607422,105.759765625 71.75927734375,100.3887710571289 63.09860610961914,97.9764404296875 C 61.8797492980957,97.61373138427734 60.599613189697266,97.34295654296875 59.27227783203125,97.17638397216797 L 59.27227783203125,97.17638397216797 L 59.27227783203125,121.65390014648438 L 88.02227783203125,121.65390014648438 L 88.02227783203125,92.90390014648438 L 75.34042358398438,92.90390014648438 Z" style="fill: rgb(230, 230, 230); stroke-width: 1px; stroke: none;"/>
<path d="M 88.02227783203125,92.90390014648438 L 88.02227783203125,121.65390014648438 L 116.77227783203125,121.65390014648438 L 116.77227783203125,105.67402648925781 L 116.77227783203125,105.67402648925781 C 114.43517303466797,107.63059997558594 112.2928695678711,109.88381958007812 110.39611053466797,112.4167251586914 C 112.13422393798828,108.44615936279297 114.2463150024414,104.02623748779297 116.77227783203125,98.69271087646484 L 116.77227783203125,98.69271087646484 L 116.77227783203125,92.90390014648438 L 88.02227783203125,92.90390014648438 Z" style="fill: rgb(166, 64, 166); stroke-width: 1px; stroke: none;"/>
<path d="M 116.77227783203125,92.90390014648438 L 116.77227783203125,98.69271087646484 L 116.77227783203125,98.69271087646484 C 117.63300323486328,96.87531280517578 118.54177856445312,94.95182800292969 119.50019073486328,92.90390014648438 L 116.77227783203125,92.90390014648438 Z" style="fill: rgb(230, 230, 230); stroke-width: 1px; stroke: none;"/>
<path d="M 138.34078979492188,96.9825439453125 C 135.88546752929688,96.9825439453125 133.5435791015625,97.33634185791016 131.39254760742188,97.9764404296875 C 126.06790161132812,99.45955657958984 121.08796691894531,102.06101989746094 116.77227783203125,105.67402648925781 L 116.77227783203125,105.67402648925781 L 116.77227783203125,121.65390014648438 L 145.52227783203125,121.65390014648438 L 145.52227783203125,97.98234558105469 L 145.52227783203125,97.98234558105469 C 143.0708770751953,97.29695892333984 140.65542602539062,96.9825439453125 138.34078979492188,96.9825439453125 L 116.77227783203125,92.90390014648438 Z" style="fill: rgb(230, 230, 230); stroke-width: 1px; stroke: none;"/>
<path d="M 145.52227783203125,97.98234558105469 L 145.52227783203125,121.65390014648438 L 163.80955505371094,121.65390014648438 C 164.74655151367188,114.72474670410156 161.4505157470703,107.6485824584961 156.55348205566406,103.74248504638672 C 152.94088745117188,100.8650131225586 149.19131469726562,99.00816345214844 145.52227783203125,97.98234558105469 L 145.52227783203125,97.98234558105469 Z" style="fill: rgb(166, 64, 166); stroke-width: 1px; stroke: none;"/>
<path d="M 30.681596755981445,121.65390014648438 C 31.774429321289062,129.73550415039062 38.625457763671875,137.6171417236328 55.41054153442383,140.0361328125 C 52.11566162109375,136.21705627441406 52.390235900878906,127.90496063232422 58.980003356933594,124.95954132080078 C 59.077186584472656,124.92201232910156 59.174617767333984,124.88549041748047 59.27227783203125,124.8499526977539 L 59.27227783203125,124.8499526977539 L 59.27227783203125,121.65390014648438 L 30.681596755981445,121.65390014648438 Z" style="fill: rgb(230, 230, 230); stroke-width: 1px; stroke: none;"/>
<path d="M 59.27227783203125,121.65390014648438 L 59.27227783203125,124.8499526977539 L 59.27227783203125,124.8499526977539 C 61.290679931640625,124.11549377441406 63.40458297729492,123.8034896850586 65.37728881835938,123.8034896850586 C 68.26117706298828,123.8034896850586 70.84331512451172,124.47028350830078 72.38418579101562,125.4587631225586 C 74.8719482421875,126.61585998535156 77.92122650146484,130.3626708984375 79.68663787841797,135.0189208984375 L 71.98480224609375,135.0189208984375 L 71.98480224609375,148.48301696777344 L 80.10972595214844,148.48301696777344 C 79.88252258300781,149.1488800048828 79.62347412109375,149.78646850585938 79.32882690429688,150.40390014648438 L 88.02227783203125,150.40390014648438 L 88.02227783203125,121.65390014648438 L 59.27227783203125,121.65390014648438 Z" style="fill: rgb(166, 64, 166); stroke-width: 1px; stroke: none;"/>
<path d="M 88.02227783203125,121.65390014648438 L 88.02227783203125,150.40390014648438 L 115.1623306274414,150.40390014648438 C 114.86768341064453,149.78646850585938 114.60863494873047,149.1488800048828 114.38143157958984,148.48301696777344 L 116.77227783203125,148.48301696777344 L 116.77227783203125,135.0189208984375 L 114.80452728271484,135.0189208984375 C 115.35445404052734,133.5684814453125 116.02896881103516,132.206298828125 116.77227783203125,130.98313903808594 L 116.77227783203125,130.98313903808594 L 116.77227783203125,121.65390014648438 L 88.02227783203125,121.65390014648438 Z" style="fill: rgb(230, 230, 230); stroke-width: 1px; stroke: none;"/>
<path d="M 116.77227783203125,121.65390014648438 L 116.77227783203125,130.98313903808594 L 116.77227783203125,130.98313903808594 C 118.41516876220703,128.27967834472656 120.39415740966797,126.25541687011719 122.10697174072266,125.4587631225586 C 123.64784240722656,124.47028350830078 126.22998046875,123.8034896850586 129.11387634277344,123.8034896850586 C 131.18202209472656,123.8034896850586 133.40536499023438,124.14641571044922 135.5111541748047,124.95954132080078 C 142.10092163085938,127.90496063232422 142.37550354003906,136.21705627441406 139.0806121826172,140.0361328125 C 141.41647338867188,139.69949340820312 143.5599365234375,139.257080078125 145.52227783203125,138.72305297851562 L 145.52227783203125,138.72305297851562 L 145.52227783203125,121.65390014648438 L 116.77227783203125,121.65390014648438 Z" style="fill: rgb(166, 64, 166); stroke-width: 1px; stroke: none;"/>
<path d="M 116.77227783203125,135.0189208984375 L 116.77227783203125,148.48301696777344 L 122.88077545166016,148.48301696777344 L 122.88077545166016,135.0189208984375 L 116.77227783203125,121.65390014648438 Z" style="fill: rgb(166, 64, 166); stroke-width: 1px; stroke: none;"/>
<path d="M 145.52227783203125,121.65390014648438 L 145.52227783203125,138.72305297851562 L 145.52227783203125,138.72305297851562 C 157.66099548339844,135.41961669921875 162.86880493164062,128.61085510253906 163.80955505371094,121.65390014648438 L 145.52227783203125,121.65390014648438 Z" style="fill: rgb(230, 230, 230); stroke-width: 1px; stroke: none;"/>
<path d="M 59.27227783203125,168.64004516601562 L 59.27227783203125,168.64004516601562 C 58.72224807739258,169.04608154296875 58.15898132324219,169.46243286132812 57.58217239379883,169.8897705078125 C 58.14031982421875,169.8897705078125 58.70416259765625,169.87306213378906 59.27227783203125,169.84091186523438 L 59.27227783203125,169.84091186523438 L 59.27227783203125,168.64004516601562 L 59.27227783203125,168.64004516601562 Z" style="fill: rgb(166, 64, 166); stroke-width: 1px; stroke: none;"/>
<path d="M 79.32882690429688,150.40390014648438 C 76.62164306640625,156.07684326171875 70.90889739990234,160.04983520507812 59.27227783203125,168.64004516601562 L 59.27227783203125,168.64004516601562 L 59.27227783203125,169.84091186523438 L 59.27227783203125,169.84091186523438 C 70.95034790039062,169.18014526367188 84.43428802490234,161.99595642089844 87.3858871459961,159.3061981201172 L 87.38589477539062,159.3061981201172 C 87.59901428222656,159.11654663085938 87.81148529052734,158.8553009033203 88.02227783203125,158.53378295898438 L 88.02227783203125,158.53378295898438 L 88.02227783203125,150.40390014648438 L 79.32882690429688,150.40390014648438 Z" style="fill: rgb(230, 230, 230); stroke-width: 1px; stroke: none;"/>
<path d="M 88.02227783203125,158.85313415527344 C 86.92340850830078,164.5526580810547 82.42288208007812,169.07945251464844 74.63069152832031,171.7368927001953 C 75.46634674072266,173.84503173828125 78.65745544433594,177.6294403076172 83.2804183959961,179.15390014648438 L 88.02227783203125,179.15390014648438 L 88.02227783203125,158.85313415527344 L 79.32882690429688,150.40390014648438 Z" style="fill: rgb(230, 230, 230); stroke-width: 1px; stroke: none;"/>
<path d="M 88.02227783203125,150.40390014648438 L 88.02227783203125,158.53378295898438 L 88.02227783203125,158.53378295898438 C 88.04824829101562,158.49415588378906 88.0741958618164,158.45362854003906 88.1001205444336,158.41220092773438 L 88.10012817382812,158.41220092773438 C 88.076416015625,158.55995178222656 88.05046844482422,158.70692443847656 88.02227783203125,158.85313415527344 L 88.02227783203125,158.85313415527344 L 88.02227783203125,179.15390014648438 L 111.56019592285156,179.15390014648438 C 113.6040267944336,178.4799346923828 115.36798858642578,177.36424255371094 116.77227783203125,176.14697265625 L 116.77227783203125,176.14697265625 L 116.77227783203125,170.34426879882812 L 116.77227783203125,170.34426879882812 C 111.16398620605469,167.662109375 107.8385009765625,163.76605224609375 106.85884857177734,159.05526733398438 L 106.85884857177734,159.05526733398438 C 106.94084930419922,159.14913940429688 107.02301025390625,159.23300170898438 107.10526275634766,159.3061981201172 L 107.10527038574219,159.3061981201172 C 108.47366333007812,160.55320739746094 112.1058120727539,162.76620483398438 116.77227783203125,164.8473358154297 L 116.77227783203125,164.8473358154297 L 116.77227783203125,153.11732482910156 L 116.77227783203125,153.11732482910156 C 116.14391326904297,152.2404327392578 115.61170959472656,151.3455810546875 115.1623306274414,150.40390014648438 L 88.02227783203125,150.40390014648438 Z" style="fill: rgb(166, 64, 166); stroke-width: 1px; stroke: none;"/>
<path d="M 116.77227783203125,153.11732482910156 L 116.77227783203125,164.8473358154297 L 116.77227783203125,164.8473358154297 C 122.66097259521484,167.4735565185547 130.19674682617188,169.8897705078125 136.90899658203125,169.8897705078125 C 126.15470123291016,161.92236328125 120.10826110839844,157.77276611328125 116.77227783203125,153.11732482910156 L 116.77227783203125,153.11732482910156 Z" style="fill: rgb(230, 230, 230); stroke-width: 1px; stroke: none;"/>
<path d="M 116.77227783203125,170.34426879882812 L 116.77227783203125,176.14697265625 L 116.77227783203125,176.14697265625 C 118.54437255859375,174.6108856201172 119.74371337890625,172.91302490234375 120.20993041992188,171.7368927001953 C 118.98218536376953,171.31817626953125 117.8361587524414,170.85305786132812 116.77227783203125,170.34426879882812 L 116.77227783203125,153.11732482910156 Z" style="fill: rgb(230, 230, 230); stroke-width: 1px; stroke: none;"/>
<path d="M 83.2804183959961,179.15390014648438 C 84.54053497314453,179.56944274902344 85.90702819824219,179.8170623779297 87.3612060546875,179.8170623779297 C 87.57960510253906,179.8170623779297 87.79998016357422,179.8114776611328 88.02227783203125,179.80003356933594 L 88.02227783203125,179.80003356933594 L 88.02227783203125,179.15390014648438 L 83.2804183959961,179.15390014648438 Z" style="fill: rgb(166, 64, 166); stroke-width: 1px; stroke: none;"/>
<path d="M 88.02227783203125,179.15390014648438 L 88.02227783203125,179.80003356933594 L 88.02227783203125,179.80003356933594 C 88.02647399902344,179.79981994628906 88.03067779541016,179.79959106445312 88.03488159179688,179.79937744140625 C 89.43270874023438,185.79006958007812 90.83053588867188,189.1348876953125 97.27054595947266,194.57643127441406 C 97.34542846679688,194.6388397216797 97.38286590576172,194.67002868652344 97.4203109741211,194.67002868652344 C 97.45775604248047,194.67002868652344 97.49519348144531,194.6388397216797 97.57008361816406,194.57643127441406 C 104.01007843017578,189.1348876953125 105.40790557861328,185.79006958007812 106.80574035644531,179.79937744140625 C 107.03230285644531,179.81126403808594 107.25688171386719,179.8170623779297 107.47940826416016,179.8170623779297 C 108.93358612060547,179.8170623779297 110.30008697509766,179.56944274902344 111.56019592285156,179.15390014648438 L 88.02227783203125,179.15390014648438 Z" style="fill: rgb(230, 230, 230); stroke-width: 1px; stroke: none;"/>
<path d="M 0.0,0.0 L 200.0,0.0 L 200.0,100.0 C 200.0,150.0 160.0,200.0 100.0,230.0 C 40.0,200.0 0.0,150.0 0.0,100.0 L 0.0,0.0 Z" style="fill: none; stroke-width: 1px; stroke: rgb(0, 0, 0);"/>
</g>
<rect clip-path="url(#contour)" fill="url(#lighting)" height="246.0" width="216.0" x="0.0" y="0.0"/>
</svg>
