<?xml version="1.0" encoding="UTF-8" standalone="no"?>
<svg xmlns="http://www.w3.org/2000/svg" height="216.0" width="416.0">
<defs>
<clipPath id="contour">
<path d="M 8.0,8.0 L 408.0,8.0 L 328.0,108.0 L 408.0,208.0 L 8.0,208.0 L 8.0,8.0 Z"/>
</clipPath>
<radialGradient id="lighting">
<stop offset="25%" stop-color="white" stop-opacity="35%"/>
<stop offset="100%" stop-color="white" stop-opacity="0%"/>
</radialGradient>
</defs>
<g>
<path d="M 8.0,8.0 L 8.0,48.0 L 48.0,48.0 L 48.0,8.0 L 8.0,8.0 Z" style="fill: rgb(230, 230, 230); stroke-width: 1px; stroke: none;"/>
<path d="M 48.0,8.0 L 48.0,48.0 L 88.0,48.0 L 88.0,8.0 L 48.0,8.0 Z" style="fill: rgb(38, 38, 38); stroke-width: 1px; stroke: none;"/>
<path d="M 88.0,8.0 L 88.0,48.0 L 128.0,48.0 L 128.0,8.0 L 88.0,8.0 Z" style="fill: rgb(230, 230, 230); stroke-width: 1px; stroke: none;"/>
<path d="M 128.0,8.0 L 128.0,48.0 L 168.0,48.0 L 168.0,8.0 L 128.0,8.0 Z" style="fill: rgb(38, 38, 38); stroke-width: 1px; stroke: none;"/>
<path d="M 168.0,8.0 L 168.0,48.0 L 208.0,48.0 L 208.0,8.0 L 168.0,8.0 Z" style="fill: rgb(230, 230, 230); stroke-width: 1px; stroke: none;"/>
<path d="M 8.0,48.0 L 8.0,88.0 L 48.0,88.0 L 48.0,48.0 L 8.0,48.0 Z" style="fill: rgb(38, 38, 38); stroke-width: 1px; stroke: none;"/>
<path d="M 48.0,48.0 L 48.0,88.0 L 88.0,88.0 L 88.0,48.0 L 48.0,48.0 Z" style="fill: rgb(230, 230, 230); stroke-width: 1px; stroke: none;"/>
<path d="M 88.0,48.0 L 88.0,88.0 L 128.0,88.0 L 128.0,48.0 L 88.0,48.0 Z" style="fill: rgb(38, 38, 38); stroke-width: 1px; stroke: none;"/>
<path d="M 128.0,48.0 L 128.0,88.0 L 168.0,88.0 L 168.0,48.0 L 128.0,48.0 Z" style="fill: rgb(230, 230, 230); stroke-width: 1px; stroke: none;"/>
<path d="M 168.0,48.0 L 168.0,88.0 L 208.0,88.0 L 208.0,48.0 L 168.0,48.0 Z" style="fill: rgb(38, 38, 38); stroke-width: 1px; stroke: none;"/>
<path d="M 8.0,88.0 L 8.0,108.0 L 48.0,108.0 L 48.0,88.0 L 8.0,88.0 Z" style="fill: rgb(230, 230, 230); stroke-width: 1px; stroke: none;"/>
<path d="M 48.0,88.0 L 48.0,108.0 L 88.0,108.0 L 88.0,88.0 L 48.0,88.0 Z" style="fill: rgb(38, 38, 38); stroke-width: 1px; stroke: none;"/>
<path d="M 88.0,88.0 L 88.0,108.0 L 128.0,108.0 L 128.0,88.0 L 88.0,88.0 Z" style="fill: rgb(230, 230, 230); stroke-width: 1px; stroke: none;"/>
<path d="M 128.0,88.0 L 128.0,108.0 L 168.0,108.0 L 168.0,88.0 L 128.0,88.0 Z" style="fill: rgb(38, 38, 38); stroke-width: 1px; stroke: none;"/>
<path d="M 168.0,88.0 L 168.0,108.0 L 208.0,108.0 L 208.0,88.0 L 168.0,88.0 Z" style="fill: rgb(230, 230, 230); stroke-width: 1px; stroke: none;"/>
<path d="M 208.0,8.0 L 208.0,108.0 L 328.0,108.0 L 408.0,8.0 L 208.0,8.0 Z" style="fill: rgb(217, 38, 38); stroke-width: 1px; stroke: none;"/>
<path d="M 208.0,108.0 L 208.0,148.0 L 248.0,148.0 L 248.0,108.0 L 208.0,108.0 Z" style="fill: rgb(230, 230, 230); stroke-width: 1px; stroke: none;"/>
<path d="M 248.0,108.0 L 248.0,148.0 L 288.0,148.0 L 288.0,108.0 L 248.0,108.0 Z" style="fill: rgb(38, 38, 38); stroke-width: 1px; stroke: none;"/>
<path d="M 288.0,108.0 L 288.0,148.0 L 328.0,148.0 L 328.0,108.0 L 288.0,108.0 Z" style="fill: rgb(230, 230, 230); stroke-width: 1px; stroke: none;"/>
<path d="M 328.0,108.0 L 328.0,148.0 L 360.0,148.0 L 328.0,108.0 L 328.0,108.0 Z" style="fill: rgb(38, 38, 38); stroke-width: 1px; stroke: none;"/>
<path d="M 208.0,148.0 L 208.0,188.0 L 248.0,188.0 L 248.0,148.0 L 208.0,148.0 Z" style="fill: rgb(38, 38, 38); stroke-width: 1px; stroke: none;"/>
<path d="M 248.0,148.0 L 248.0,188.0 L 288.0,188.0 L 288.0,148.0 L 248.0,148.0 Z" style="fill: rgb(230, 230, 230); stroke-width: 1px; stroke: none;"/>
<path d="M 288.0,148.0 L 288.0,188.0 L 328.0,188.0 L 328.0,148.0 L 288.0,148.0 Z" style="fill: rgb(38, 38, 38); stroke-width: 1px; stroke: none;"/>
<path d="M 328.0,148.0 L 328.0,188.0 L 368.0,188.0 L 368.0,158.0 L 360.0,148.0 L 328.0,148.0 Z" style="fill: rgb(230, 230, 230); stroke-width: 1px; stroke: none;"/>
<path d="M 368.0,158.0 L 368.0,188.0 L 392.0,188.0 L 368.0,158.0 L 368.0,158.0 Z" style="fill: rgb(38, 38, 38); stroke-width: 1px; stroke: none;"/>
<path d="M 208.0,188.0 L 208.0,208.0 L 248.0,208.0 L 248.0,188.0 L 208.0,188.0 Z" style="fill: rgb(230, 230, 230); stroke-width: 1px; stroke: none;"/>
<path d="M 248.0,188.0 L 248.0,208.0 L 288.0,208.0 L 288.0,188.0 L 248.0,188.0 Z" style="fill: rgb(38, 38, 38); stroke-width: 1px; stroke: none;"/>
<path d="M 288.0,188.0 L 288.0,208.0 L 328.0,208.0 L 328.0,188.0 L 288.0,188.0 Z" style="fill: rgb(230, 230, 230); stroke-width: 1px; stroke: none;"/>
<path d="M 328.0,188.0 L 328.0,208.0 L 368.0,208.0 L 368.0,188.0 L 328.0,188.0 Z" style="fill: rgb(38, 38, 38); stroke-width: 1px; stroke: none;"/>
<path d="M 368.0,188.0 L 368.0,208.0 L 408.0,208.0 L 392.0,188.0 L 368.0,188.0 Z" style="fill: rgb(230, 230, 230); stroke-width: 1px; stroke: none;"/>
<path d="M 8.0,108.0 L 8.0,208.0 L 208.0,208.0 L 208.0,108.0 L 8.0,108.0 Z" style="fill: rgb(217, 38, 38); stroke-width: 1px; stroke: none;"/>
<path d="M 8.0,8.0 L 408.0,8.0 L 328.0,108.0 L 408.0,208.0 L 8.0,208.0 L 8.0,8.0 Z" style="fill: none; stroke-width: 1px; stroke: rgb(0, 0, 0);"/>
</g>
<rect clip-path="url(#contour)" fill="url(#lighting)" height="216.0" width="416.0" x="0.0" y="0.0"/>
</svg>
