<?xml version="1.0" encoding="UTF-8" standalone="no"?>
<svg xmlns="http://www.w3.org/2000/svg" height="246.0" width="216.0">
<defs>
<clipPath id="contour">
<path d="M 8.0,8.0 L 208.0,8.0 L 208.0,108.0 C 208.0,158.0 168.0,208.0 108.0,238.0 C 48.0,208.0 8.0,158.0 8.0,108.0 L 8.0,8.0 Z"/>
</clipPath>
<radialGradient id="lighting">
<stop offset="25%" stop-color="white" stop-opacity="35%"/>
<stop offset="100%" stop-color="white" stop-opacity="0%"/>
</radialGradient>
</defs>
<g transform="translate(8.0,8.0)">
<path clip-path="url(#contour)" d="M 0.0,0.0 L 0.0,100.0 L 100.0,100.0 L 100.0,0.0 L 0.0,0.0 Z" style="fill: rgb(230, 230, 230); stroke-width: 1px; stroke: none;"/>
<path clip-path="url(#contour)" d="M 100.0,0.0 L 100.0,100.0 L 200.0,100.0 L 200.0,0.0 L 100.0,0.0 Z" style="fill: rgb(217, 38, 38); stroke-width: 1px; stroke: none;"/>
<path clip-path="url(#contour)" d="M 111.0,1.0 L 101.0,11.0 L 139.0,49.0 L 149.0,39.0 L 111.0,1.0 L 111.0,1.0 Z" style="fill: rgb(217, 217, 38); stroke-width: 1px; stroke: none;"/>
<path clip-path="url(#contour)" d="M 100.0,0.0 L 100.0,10.0 L 110.0,0.0 L 100.0,0.0 Z" style="fill: rgb(217, 217, 38); stroke-width: 1px; stroke: none;"/>
<path clip-path="url(#contour)" d="M 111.0,51.0 L 101.0,61.0 L 139.0,99.0 L 149.0,89.0 L 111.0,51.0 L 111.0,51.0 Z" style="fill: rgb(217, 217, 38); stroke-width: 1px; stroke: none;"/>
<path clip-path="url(#contour)" d="M 114.0,26.0 L 100.0,40.0 L 100.0,60.0 L 124.0,36.0 L 114.0,26.0 L 114.0,26.0 Z" style="fill: rgb(217, 217, 38); stroke-width: 1px; stroke: none;"/>
<path clip-path="url(#contour)" d="M 114.0,76.0 L 100.0,90.0 L 100.0,100.0 L 110.0,100.0 L 124.0,86.0 L 114.0,76.0 L 114.0,76.0 Z" style="fill: rgb(217, 217, 38); stroke-width: 1px; stroke: none;"/>
<path clip-path="url(#contour)" d="M 161.0,1.0 L 151.0,11.0 L 189.0,49.0 L 199.0,39.0 L 161.0,1.0 L 161.0,1.0 Z" style="fill: rgb(217, 217, 38); stroke-width: 1px; stroke: none;"/>
<path clip-path="url(#contour)" d="M 140.0,0.0 L 126.0,14.0 L 136.0,24.0 L 160.0,0.0 L 140.0,0.0 Z" style="fill: rgb(217, 217, 38); stroke-width: 1px; stroke: none;"/>
<path clip-path="url(#contour)" d="M 161.0,51.0 L 151.0,61.0 L 189.0,99.0 L 199.0,89.0 L 161.0,51.0 L 161.0,51.0 Z" style="fill: rgb(217, 217, 38); stroke-width: 1px; stroke: none;"/>
<path clip-path="url(#contour)" d="M 164.0,26.0 L 126.0,64.0 L 136.0,74.0 L 174.0,36.0 L 164.0,26.0 L 164.0,26.0 Z" style="fill: rgb(217, 217, 38); stroke-width: 1px; stroke: none;"/>
<path clip-path="url(#contour)" d="M 164.0,76.0 L 140.0,100.0 L 160.0,100.0 L 174.0,86.0 L 164.0,76.0 L 164.0,76.0 Z" style="fill: rgb(217, 217, 38); stroke-width: 1px; stroke: none;"/>
<path clip-path="url(#contour)" d="M 190.0,0.0 L 176.0,14.0 L 186.0,24.0 L 200.0,10.0 L 200.0,0.0 L 190.0,0.0 Z" style="fill: rgb(217, 217, 38); stroke-width: 1px; stroke: none;"/>
<path clip-path="url(#contour)" d="M 200.0,40.0 L 176.0,64.0 L 186.0,74.0 L 200.0,60.0 L 200.0,40.0 L 200.0,40.0 Z" style="fill: rgb(217, 217, 38); stroke-width: 1px; stroke: none;"/>
<path clip-path="url(#contour)" d="M 200.0,90.0 L 190.0,100.0 L 200.0,100.0 L 200.0,90.0 L 200.0,90.0 Z" style="fill: rgb(217, 217, 38); stroke-width: 1px; stroke: none;"/>
<path clip-path="url(#contour)" d="M 100.0,100.0 L 100.0,230.0 C 160.0,200.0 200.0,150.0 200.0,100.0 L 100.0,100.0 Z" style="fill: rgb(230, 230, 230); stroke-width: 1px; stroke: none;"/>
<path clip-path="url(#contour)" d="M 0.0,100.0 C 0.0,150.0 40.0,200.0 100.0,230.0 L 100.0,100.0 L 0.0,100.0 Z" style="fill: rgb(217, 38, 38); stroke-width: 1px; stroke: none;"/>
<path clip-path="url(#contour)" d="M 11.0,101.0 L 1.0,111.0 L 39.0,149.0 L 49.0,139.0 L 11.0,101.0 L 11.0,101.0 Z" style="fill: rgb(217, 217, 38); stroke-width: 1px; stroke: none;"/>
<path clip-path="url(#contour)" d="M 0.0,100.0 C 0.0,103.1754150390625 0.16133230924606323,106.350830078125 0.47887393832206726,109.52112579345703 L 0.47887393832206726,109.52112579345703 L 10.0,100.0 L 0.0,100.0 Z" style="fill: rgb(217, 217, 38); stroke-width: 1px; stroke: none;"/>
<path clip-path="url(#contour)" d="M 16.699432373046875,156.69944763183594 C 24.154590606689453,169.27548217773438 33.91888427734375,181.2999267578125 45.60978698730469,192.3902130126953 L 45.60978698730469,192.3902130126953 L 49.0,189.0 L 16.69944190979004,156.69944763183594 L 16.699432373046875,156.69944763183594 Z" style="fill: rgb(217, 217, 38); stroke-width: 1px; stroke: none;"/>
<path clip-path="url(#contour)" d="M 14.0,126.0 L 6.0103983879089355,133.98960876464844 L 6.0103983879089355,133.98960876464844 C 7.672806739807129,138.71791076660156 9.665738105773926,143.40365600585938 11.971177101135254,148.02882385253906 L 11.971177101135254,148.02882385253906 L 24.0,136.0 L 14.0,126.0 L 14.0,126.0 Z" style="fill: rgb(217, 217, 38); stroke-width: 1px; stroke: none;"/>
<path clip-path="url(#contour)" d="M 61.0,101.0 L 51.0,111.0 L 89.0,149.0 L 99.0,139.0 L 61.0,101.0 L 61.0,101.0 Z" style="fill: rgb(217, 217, 38); stroke-width: 1px; stroke: none;"/>
<path clip-path="url(#contour)" d="M 40.0,100.0 L 26.0,114.0 L 36.0,124.0 L 60.0,100.0 L 40.0,100.0 Z" style="fill: rgb(217, 217, 38); stroke-width: 1px; stroke: none;"/>
<path clip-path="url(#contour)" d="M 61.0,151.0 L 51.0,161.0 L 89.0,199.0 L 99.0,189.0 L 61.0,151.0 L 61.0,151.0 Z" style="fill: rgb(217, 217, 38); stroke-width: 1px; stroke: none;"/>
<path clip-path="url(#contour)" d="M 64.0,126.0 L 26.0,164.0 L 36.0,174.0 L 74.0,136.0 L 64.0,126.0 L 64.0,126.0 Z" style="fill: rgb(217, 217, 38); stroke-width: 1px; stroke: none;"/>
<path clip-path="url(#contour)" d="M 61.0,201.0 L 58.43678665161133,203.56321716308594 L 58.43678665161133,203.56321716308594 C 64.19522857666016,208.1759033203125 70.30679321289062,212.5786590576172 76.73808288574219,216.7380828857422 L 76.73808288574219,216.7380828857422 L 61.0,201.0 L 61.0,201.0 Z" style="fill: rgb(217, 217, 38); stroke-width: 1px; stroke: none;"/>
<path clip-path="url(#contour)" d="M 64.0,176.0 L 46.6397819519043,193.36021423339844 L 46.6397819519043,193.36021423339844 C 50.04658508300781,196.54539489746094 53.61295700073242,199.65182495117188 57.329708099365234,202.6702880859375 L 57.329708099365234,202.6702880859375 L 74.0,186.0 L 64.0,176.0 L 64.0,176.0 Z" style="fill: rgb(217, 217, 38); stroke-width: 1px; stroke: none;"/>
<path clip-path="url(#contour)" d="M 90.0,100.0 L 76.0,114.0 L 86.0,124.0 L 100.0,110.0 L 100.0,100.0 L 90.0,100.0 Z" style="fill: rgb(217, 217, 38); stroke-width: 1px; stroke: none;"/>
<path clip-path="url(#contour)" d="M 100.0,140.0 L 76.0,164.0 L 86.0,174.0 L 100.0,160.0 L 100.0,140.0 L 100.0,140.0 Z" style="fill: rgb(217, 217, 38); stroke-width: 1px; stroke: none;"/>
<path clip-path="url(#contour)" d="M 100.0,190.0 L 76.0,214.0 L 82.11051177978516,220.1105194091797 L 82.11051177978516,220.1105194091797 C 83.71996307373047,221.09092712402344 85.34785461425781,222.0563507080078 86.99370574951172,223.0063018798828 L 86.99370574951172,223.0063018798828 L 100.0,210.0 L 100.0,190.0 L 100.0,190.0 Z" style="fill: rgb(217, 217, 38); stroke-width: 1px; stroke: none;"/>
<path clip-path="url(#contour)" d="M 0.0,0.0 L 0.0,10.60660171508789 L 167.7379150390625,178.34451293945312 L 167.7379150390625,178.34451293945312 C 171.0619354248047,174.44549560546875 174.1581573486328,170.46142578125 177.0127410888672,166.4061279296875 L 177.0127410888672,166.4061279296875 L 10.60660171508789,0.0 L 0.0,0.0 Z" style="fill: rgb(38, 38, 38); stroke-width: 1px; stroke: none;"/>
<path clip-path="url(#contour)" d="M 0.0,0.0 L 200.0,0.0 L 200.0,100.0 C 200.0,150.0 160.0,200.0 100.0,230.0 C 40.0,200.0 0.0,150.0 0.0,100.0 L 0.0,0.0 Z" style="fill: none; stroke-width: 1px; stroke: rgb(0, 0, 0);"/>
</g>
</svg>
