<?xml version="1.0" encoding="UTF-8" standalone="no"?>
<svg xmlns="http://www.w3.org/2000/svg" height="246.0" width="216.0">
<defs>
<clipPath id="contour">
<path d="M 8.0,8.0 L 208.0,8.0 L 208.0,108.0 C 208.0,158.0 168.0,208.0 108.0,238.0 C 48.0,208.0 8.0,158.0 8.0,108.0 L 8.0,8.0 Z"/>
</clipPath>
<radialGradient id="lighting">
<stop offset="25%" stop-color="white" stop-opacity="35%"/>
<stop offset="100%" stop-color="white" stop-opacity="0%"/>
</radialGradient>
</defs>
<g transform="translate(8.0,8.0)">
<path d="M 0.0,0.0 L 0.0,100.0 L 100.0,100.0 L 100.0,0.0 L 0.0,0.0 Z" style="fill: rgb(230, 230, 230); stroke-width: 1px; stroke: none;"/>
<path d="M 0.0,0.0 L 0.0,15.909902572631836 L 5.24832678486638E-16,15.909902572631836 C 9.823791560499388E-15,15.909902572631836 1.9122751342484645E-14,15.909902572631836 2.8421709430404007E-14,15.909902572631836 C 0.8681045770645142,15.041797637939453 1.9020023345947266,14.671072959899902 2.975038528442383,14.671072959899902 C 7.520493030548096,14.671072959899902 12.768259048461914,21.323461532592773 9.090909004211426,25.000812530517578 C 5.909090995788574,28.18263053894043 4.545454502105713,25.909902572631836 1.3636363744735718,29.091720581054688 C -3.161989450454712,33.617347717285156 4.828728199005127,43.14950942993164 10.797088623046875,43.14950942993164 C 12.022140502929688,43.14950942993164 13.161989212036133,42.7479133605957 14.090909004211426,41.818992614746094 C 17.272727966308594,38.637176513671875 15.0,37.27354049682617 18.18181800842285,34.09172058105469 C 19.049922943115234,33.22361755371094 20.083820343017578,32.85289001464844 21.156856536865234,32.85289001464844 C 25.70231056213379,32.85289001464844 30.950077056884766,39.505279541015625 27.272727966308594,43.1826286315918 C 24.090909957885742,46.36444854736328 22.727272033691406,44.09172058105469 19.545454025268555,47.27354049682617 C 15.019828796386719,51.799163818359375 23.01054573059082,61.331329345703125 28.978906631469727,61.331329345703125 C 30.20395851135254,61.331329345703125 31.343807220458984,60.92972946166992 32.272727966308594,60.00081253051758 C 35.45454406738281,56.818992614746094 33.181819915771484,55.45535659790039 36.3636360168457,52.27354049682617 C 37.23173904418945,51.405433654785156 38.26564025878906,51.03470993041992 39.33867645263672,51.03470993041992 C 43.88412857055664,51.03470993041992 49.13189697265625,57.68709945678711 45.45454406738281,61.36444854736328 C 42.272727966308594,64.5462646484375 40.90909194946289,62.27354049682617 37.727272033691406,65.45536041259766 C 33.2016487121582,69.9809799194336 41.19236373901367,79.51314544677734 47.16072463989258,79.51314544677734 C 48.38577651977539,79.51314544677734 49.52562713623047,79.1115493774414 50.45454406738281,78.18263244628906 C 53.6363639831543,75.00080871582031 51.3636360168457,73.63717651367188 54.54545593261719,70.45536041259766 C 55.41355895996094,69.58724975585938 56.44745635986328,69.2165298461914 57.52049255371094,69.2165298461914 C 62.065948486328125,69.2165298461914 67.31371307373047,75.8689193725586 63.6363639831543,79.5462646484375 C 60.45454406738281,82.72808074951172 59.09090805053711,80.45536041259766 55.90909194946289,83.63717651367188 C 51.38346481323242,88.16280364990234 59.374183654785156,97.69496154785156 65.34254455566406,97.69496154785156 C 66.56759643554688,97.69496154785156 67.70744323730469,97.29336547851562 68.63636016845703,96.36444854736328 C 71.81818389892578,93.18263244628906 69.54545593261719,91.8189926147461 72.7272720336914,88.63717651367188 C 73.59537506103516,87.76907348632812 74.6292724609375,87.39834594726562 75.70230865478516,87.39834594726562 C 80.24776458740234,87.39834594726562 85.49552917480469,94.05073547363281 81.81818389892578,97.72808074951172 C 79.77296447753906,99.77330780029297 78.47895812988281,99.56486511230469 76.9704360961914,100.0 L 100.0,100.0 L 100.0,84.09009552001953 L 100.0,84.09009552001953 C 99.13189697265625,84.95819854736328 98.0979995727539,85.32892608642578 97.02496337890625,85.32892608642578 C 92.47950744628906,85.32892608642578 87.23174285888672,78.6765365600586 90.90908813476562,74.99919128417969 C 94.09091186523438,71.81736755371094 95.45454406738281,74.09009552001953 98.63636016845703,70.90827941894531 C 103.1619873046875,66.38265228271484 95.17127227783203,56.85049057006836 89.20291137695312,56.85049057006836 C 87.97785949707031,56.85049057006836 86.8380126953125,57.2520866394043 85.90908813476562,58.181007385253906 C 82.7272720336914,61.362823486328125 85.0,62.72645950317383 81.81818389892578,65.90827941894531 C 80.95008087158203,66.77638244628906 79.91617584228516,67.14710998535156 78.8431396484375,67.14710998535156 C 74.29769134521484,67.14710998535156 69.04991912841797,60.494720458984375 72.7272720336914,56.8173713684082 C 75.90908813476562,53.63555145263672 77.2727279663086,55.90827941894531 80.45454406738281,52.72645950317383 C 84.98017120361328,48.200836181640625 76.98945617675781,38.668670654296875 71.0210952758789,38.668670654296875 C 69.7960433959961,38.668670654296875 68.65618896484375,39.07027053833008 67.7272720336914,39.99918746948242 C 64.54545593261719,43.181007385253906 66.81818389892578,44.54464340209961 63.6363639831543,47.72645950317383 C 62.76826095581055,48.594566345214844 61.73435974121094,48.96529006958008 60.66132354736328,48.96529006958008 C 56.11587142944336,48.96529006958008 50.86810302734375,42.31290054321289 54.54545593261719,38.63555145263672 C 57.727272033691406,35.4537353515625 59.09090805053711,37.72645950317383 62.272727966308594,34.54464340209961 C 66.79835510253906,30.01901626586914 58.80763626098633,20.486854553222656 52.83927536010742,20.486854553222656 C 51.61422348022461,20.486854553222656 50.47437286376953,20.888450622558594 49.54545593261719,21.81736946105957 C 46.3636360168457,24.999187469482422 48.6363639831543,26.362825393676758 45.45454406738281,29.54464340209961 C 44.58644104003906,30.412748336791992 43.55254364013672,30.783472061157227 42.47950744628906,30.783472061157227 C 37.934051513671875,30.783472061157227 32.68628692626953,24.131084442138672 36.3636360168457,20.453733444213867 C 39.54545593261719,17.271915435791016 40.90909194946289,19.54464340209961 44.09090805053711,16.362825393676758 C 48.61653518676758,11.837199211120605 40.625816345214844,2.305035352706909 34.65745544433594,2.305035352706909 C 33.432403564453125,2.305035352706909 32.29255676269531,2.706632375717163 31.363636016845703,3.635551929473877 C 28.18181800842285,6.8173699378967285 30.454545974731445,8.18100643157959 27.272727966308594,11.362824440002441 C 26.40462303161621,12.230929374694824 25.370725631713867,12.601654052734375 24.29768943786621,12.601654052734375 C 19.752233505249023,12.601654052734375 14.504467964172363,5.949265480041504 18.18181800842285,2.2719156742095947 C 20.227039337158203,0.22669456899166107 21.521039962768555,0.43513327836990356 23.029565811157227,0.0 L 0.0,0.0 Z" style="fill: rgb(13, 38, 217); stroke-width: 1px; stroke: none;"/>
<path d="M 100.0,0.0 L 100.0,100.0 L 200.0,100.0 L 200.0,0.0 L 100.0,0.0 Z" style="fill: rgb(38, 38, 38); stroke-width: 1px; stroke: none;"/>
<path d="M 100.0,0.0 L 100.0,19.091882705688477 L 100.0,19.091882705688477 Q 100.0,28.18279266357422 109.09091186523438,28.18279266357422 L 109.09091186523438,28.18279266357422 Q 109.09091186523438,37.27370071411133 118.18181610107422,37.27370071411133 Q 118.18181610107422,46.36460876464844 127.2727279663086,46.36460876464844 Q 127.2727279663086,55.45552062988281 136.36363220214844,55.45552062988281 Q 136.36363220214844,64.54642486572266 145.4545440673828,64.54642486572266 Q 145.4545440673828,73.63733673095703 154.5454559326172,73.63733673095703 Q 154.5454559326172,82.7282485961914 163.63636779785156,82.7282485961914 Q 163.63636779785156,91.81915283203125 172.72727966308594,91.81915283203125 Q 172.72727966308594,98.03372955322266 176.97557067871094,100.0 L 200.0,100.0 L 200.0,80.90811920166016 Q 200.0,71.81720733642578 190.90908813476562,71.81720733642578 Q 190.90908813476562,62.72629928588867 181.81817626953125,62.72629928588867 Q 181.81817626953125,53.63539123535156 172.72727966308594,53.63539123535156 Q 172.72727966308594,44.54447937011719 163.63636779785156,44.54447937011719 Q 163.63636779785156,35.45357131958008 154.5454559326172,35.45357131958008 Q 154.5454559326172,26.36266326904297 145.4545440673828,26.36266326904297 Q 145.4545440673828,17.271753311157227 136.36363220214844,17.271753311157227 Q 136.36363220214844,8.1808443069458 127.2727279663086,8.1808443069458 Q 127.2727279663086,1.9662725925445557 123.02442932128906,0.0 L 100.0,0.0 Z" style="fill: rgb(217, 217, 38); stroke-width: 1px; stroke: none;"/>
<path d="M 100.0,100.0 L 100.0,230.0 C 160.0,200.0 200.0,150.0 200.0,100.0 L 100.0,100.0 Z" style="fill: rgb(230, 230, 230); stroke-width: 1px; stroke: none;"/>
<path d="M 100.0,100.0 L 100.0,121.21320343017578 L 100.0,121.21320343017578 Q 100.0,129.87986755371094 108.66666412353516,129.87986755371094 Q 117.33333587646484,129.87986755371094 117.33333587646484,138.54653930664062 Q 117.33333587646484,147.2132110595703 126.0,147.2132110595703 L 126.0,147.2132110595703 Q 134.6666717529297,147.2132110595703 134.6666717529297,155.87986755371094 Q 134.6666717529297,164.54653930664062 143.3333282470703,164.54653930664062 Q 152.0,164.54653930664062 152.0,173.2132110595703 Q 152.0,181.87986755371094 160.6666717529297,181.87986755371094 L 160.6666717529297,181.87986755371094 Q 162.67616271972656,181.87986755371094 164.2197265625,182.34579467773438 L 164.2197265625,182.34579467773438 C 169.9747314453125,175.9965057373047 175.1195831298828,169.40147399902344 179.5916748046875,162.62330627441406 L 179.5916748046875,162.62330627441406 Q 178.0,160.50088500976562 178.0,156.7867889404297 Q 178.0,148.12013244628906 169.3333282470703,148.12013244628906 L 169.3333282470703,148.12013244628906 Q 160.6666717529297,148.12013244628906 160.6666717529297,139.45346069335938 Q 160.6666717529297,130.7867889404297 152.0,130.7867889404297 L 152.0,130.7867889404297 Q 143.3333282470703,130.7867889404297 143.3333282470703,122.12013244628906 Q 143.3333282470703,113.45346069335938 134.6666717529297,113.45346069335938 Q 126.0,113.45346069335938 126.0,104.78679656982422 Q 126.0,101.91888427734375 125.05097198486328,100.0 L 100.0,100.0 Z" style="fill: rgb(38, 217, 38); stroke-width: 1px; stroke: none;"/>
<path d="M 0.0,100.0 C 0.0,150.0 40.0,200.0 100.0,230.0 L 100.0,100.0 L 0.0,100.0 Z" style="fill: rgb(38, 38, 38); stroke-width: 1px; stroke: none;"/>
<path d="M 0.0,100.0 C 0.0,110.01350402832031 1.6043249368667603,120.02701568603516 4.652325630187988,129.87986755371094 L 17.33333396911621,129.87986755371094 L 17.33333396911621,138.54653930664062 L 17.33333396911621,147.2132110595703 L 26.0,147.2132110595703 L 34.66666793823242,147.2132110595703 L 34.66666793823242,155.87986755371094 L 34.66666793823242,164.54653930664062 L 52.0,164.54653930664062 L 52.0,173.2132110595703 L 52.0,181.87986755371094 L 60.66666793823242,181.87986755371094 L 69.33333587646484,181.87986755371094 L 69.33333587646484,190.54653930664062 L 69.33333587646484,199.2132110595703 L 78.0,199.2132110595703 L 86.66666412353516,199.2132110595703 L 86.66666412353516,207.87986755371094 L 86.66666412353516,216.54653930664062 L 95.33333587646484,216.54653930664062 L 100.0,216.54653930664062 L 100.0,182.7867889404297 L 95.33333587646484,182.7867889404297 L 95.33333587646484,174.12013244628906 L 95.33333587646484,165.45346069335938 L 86.66666412353516,165.45346069335938 L 78.0,165.45346069335938 L 78.0,156.7867889404297 L 78.0,148.12013244628906 L 69.33333587646484,148.12013244628906 L 60.66666793823242,148.12013244628906 L 60.66666793823242,139.45346069335938 L 60.66666793823242,130.7867889404297 L 52.0,130.7867889404297 L 43.33333206176758,130.7867889404297 L 43.33333206176758,122.12013244628906 L 43.33333206176758,113.45346069335938 L 34.66666793823242,113.45346069335938 L 26.0,113.45346069335938 L 26.0,104.78679656982422 L 26.0,100.0 L 0.0,100.0 Z" style="fill: rgb(217, 38, 38); stroke-width: 1px; stroke: none;"/>
<path d="M 0.0,0.0 L 200.0,0.0 L 200.0,100.0 C 200.0,150.0 160.0,200.0 100.0,230.0 C 40.0,200.0 0.0,150.0 0.0,100.0 L 0.0,0.0 Z" style="fill: none; stroke-width: 1px; stroke: rgb(0, 0, 0);"/>
</g>
<rect clip-path="url(#contour)" fill="url(#lighting)" height="246.0" width="216.0" x="0.0" y="0.0"/>
</svg>
