<?xml version="1.0" encoding="UTF-8" standalone="no"?>
<svg xmlns="http://www.w3.org/2000/svg" height="246.0" width="216.0">
<defs>
<clipPath id="contour">
<path d="M 0.0,0.0 L 200.0,0.0 L 200.0,100.0 C 200.0,150.0 160.0,200.0 100.0,230.0 C 40.0,200.0 0.0,150.0 0.0,100.0 L 0.0,0.0 Z"/>
</clipPath>
<radialGradient id="lighting">
<stop offset="25%" stop-color="white" stop-opacity="35%"/>
<stop offset="100%" stop-color="white" stop-opacity="0%"/>
</radialGradient>
</defs>
<g transform="translate(8.0,8.0)">
<path clip-path="url(#contour)" comment="FieldBackground" d="M 0.0,0.0 L 0.0,100.0 C 0.0,150.0 40.0,200.0 100.0,230.0 C 160.0,200.0 200.0,150.0 200.0,100.0 L 200.0,0.0 L 0.0,0.0 Z" style="fill-rule: evenodd; fill: rgb(38, 64, 204); stroke-width: 1px; stroke: none;"/>
<path clip-path="url(#contour)" comment="clipped chequy element 131.0769214630127, 0.0" d="M 159.82691955566406,11.88880729675293 L 142.96572875976562,28.75 L 159.82691955566406,28.75 L 159.82691955566406,11.88880729675293 Z" style="fill-rule: evenodd; fill: rgb(230, 230, 230); stroke-width: 1px; stroke: none;"/>
<path clip-path="url(#contour)" comment="clipped chequy element 159.8269214630127, 0.0" d="M 171.71572875976562,0.0 L 159.82691955566406,11.88880729675293 L 159.82691955566406,28.75 L 188.57691955566406,28.75 L 188.57691955566406,0.0 L 171.71572875976562,0.0 Z" style="fill-rule: evenodd; fill: rgb(38, 38, 38); stroke-width: 1px; stroke: none;"/>
<path clip-path="url(#contour)" comment="clipped chequy element 188.5769214630127, 0.0" d="M 188.57691955566406,0.0 L 188.57691955566406,28.75 L 199.53427124023438,28.75 L 200.0,28.284271240234375 L 200.0,0.0 L 188.57691955566406,0.0 Z" style="fill-rule: evenodd; fill: rgb(230, 230, 230); stroke-width: 1px; stroke: none;"/>
<path clip-path="url(#contour)" comment="clipped chequy element 102.3269214630127, 28.75" d="M 131.07691955566406,40.63880920410156 L 114.21572875976562,57.5 L 131.07691955566406,57.5 L 131.07691955566406,40.63880920410156 Z" style="fill-rule: evenodd; fill: rgb(230, 230, 230); stroke-width: 1px; stroke: none;"/>
<path clip-path="url(#contour)" comment="clipped chequy element 131.0769214630127, 28.75" d="M 142.96572875976562,28.75 L 131.07691955566406,40.63880920410156 L 131.07691955566406,57.5 L 159.82691955566406,57.5 L 159.82691955566406,28.75 L 142.96572875976562,28.75 Z" style="fill-rule: evenodd; fill: rgb(38, 38, 38); stroke-width: 1px; stroke: none;"/>
<path clip-path="url(#contour)" comment="clipped chequy element 159.8269214630127, 28.75" d="M 159.82691955566406,28.75 L 159.82691955566406,57.5 L 170.78427124023438,57.5 L 188.57691955566406,39.70735168457031 L 188.57691955566406,28.75 L 159.82691955566406,28.75 Z" style="fill-rule: evenodd; fill: rgb(230, 230, 230); stroke-width: 1px; stroke: none;"/>
<path clip-path="url(#contour)" comment="clipped chequy element 188.5769214630127, 28.75" d="M 188.57691955566406,28.75 L 188.57691955566406,39.70735168457031 L 199.53427124023438,28.75 L 188.57691955566406,28.75 Z" style="fill-rule: evenodd; fill: rgb(38, 38, 38); stroke-width: 1px; stroke: none;"/>
<path clip-path="url(#contour)" comment="clipped chequy element 73.5769214630127, 57.5" d="M 102.32691955566406,69.38880920410156 L 85.46572875976562,86.25 L 102.32691955566406,86.25 L 102.32691955566406,69.38880920410156 Z" style="fill-rule: evenodd; fill: rgb(230, 230, 230); stroke-width: 1px; stroke: none;"/>
<path clip-path="url(#contour)" comment="clipped chequy element 102.3269214630127, 57.5" d="M 114.21572875976562,57.5 L 102.32691955566406,69.38880920410156 L 102.32691955566406,86.25 L 131.07691955566406,86.25 L 131.07691955566406,57.5 L 114.21572875976562,57.5 Z" style="fill-rule: evenodd; fill: rgb(38, 38, 38); stroke-width: 1px; stroke: none;"/>
<path clip-path="url(#contour)" comment="clipped chequy element 131.0769214630127, 57.5" d="M 131.07691955566406,57.5 L 131.07691955566406,86.25 L 142.03427124023438,86.25 L 159.82691955566406,68.45735168457031 L 159.82691955566406,57.5 L 131.07691955566406,57.5 Z" style="fill-rule: evenodd; fill: rgb(230, 230, 230); stroke-width: 1px; stroke: none;"/>
<path clip-path="url(#contour)" comment="clipped chequy element 159.8269214630127, 57.5" d="M 159.82691955566406,57.5 L 159.82691955566406,68.45735168457031 L 170.78427124023438,57.5 L 159.82691955566406,57.5 Z" style="fill-rule: evenodd; fill: rgb(38, 38, 38); stroke-width: 1px; stroke: none;"/>
<path clip-path="url(#contour)" comment="clipped chequy element 44.826921463012695, 86.25" d="M 73.57691955566406,98.13880920410156 L 56.715728759765625,115.0 L 73.57691955566406,115.0 L 73.57691955566406,98.13880920410156 Z" style="fill-rule: evenodd; fill: rgb(230, 230, 230); stroke-width: 1px; stroke: none;"/>
<path clip-path="url(#contour)" comment="clipped chequy element 73.5769214630127, 86.25" d="M 85.46572875976562,86.25 L 73.57691955566406,98.13880920410156 L 73.57691955566406,115.0 L 102.32691955566406,115.0 L 102.32691955566406,86.25 L 85.46572875976562,86.25 Z" style="fill-rule: evenodd; fill: rgb(38, 38, 38); stroke-width: 1px; stroke: none;"/>
<path clip-path="url(#contour)" comment="clipped chequy element 102.3269214630127, 86.25" d="M 102.32691955566406,86.25 L 102.32691955566406,115.0 L 113.2842788696289,115.0 L 131.07691955566406,97.20735168457031 L 131.07691955566406,86.25 L 102.32691955566406,86.25 Z" style="fill-rule: evenodd; fill: rgb(230, 230, 230); stroke-width: 1px; stroke: none;"/>
<path clip-path="url(#contour)" comment="clipped chequy element 131.0769214630127, 86.25" d="M 131.07691955566406,86.25 L 131.07691955566406,97.20735168457031 L 142.03427124023438,86.25 L 131.07691955566406,86.25 Z" style="fill-rule: evenodd; fill: rgb(38, 38, 38); stroke-width: 1px; stroke: none;"/>
<path clip-path="url(#contour)" comment="clipped chequy element 16.076921463012695, 115.0" d="M 44.82691955566406,126.88880920410156 L 27.965730667114258,143.75 L 44.82691955566406,143.75 L 44.82691955566406,126.88880920410156 Z" style="fill-rule: evenodd; fill: rgb(230, 230, 230); stroke-width: 1px; stroke: none;"/>
<path clip-path="url(#contour)" comment="clipped chequy element 44.826921463012695, 115.0" d="M 56.715728759765625,115.0 L 44.82691955566406,126.88880920410156 L 44.82691955566406,143.75 L 73.57691955566406,143.75 L 73.57691955566406,115.0 L 56.715728759765625,115.0 Z" style="fill-rule: evenodd; fill: rgb(38, 38, 38); stroke-width: 1px; stroke: none;"/>
<path clip-path="url(#contour)" comment="clipped chequy element 73.5769214630127, 115.0" d="M 73.57691955566406,115.0 L 73.57691955566406,143.75 L 84.5342788696289,143.75 L 102.32691955566406,125.95735168457031 L 102.32691955566406,115.0 L 73.57691955566406,115.0 Z" style="fill-rule: evenodd; fill: rgb(230, 230, 230); stroke-width: 1px; stroke: none;"/>
<path clip-path="url(#contour)" comment="clipped chequy element 102.3269214630127, 115.0" d="M 102.32691955566406,115.0 L 102.32691955566406,125.95735168457031 L 113.2842788696289,115.0 L 102.32691955566406,115.0 Z" style="fill-rule: evenodd; fill: rgb(38, 38, 38); stroke-width: 1px; stroke: none;"/>
<path clip-path="url(#contour)" comment="clipped chequy element 16.076921463012695, 143.75" d="M 27.965730667114258,143.75 L 16.076921463012695,155.63880920410156 C 19.414947509765625,161.3835906982422 23.234704971313477,167.01605224609375 27.500001907348633,172.5 L 44.82691955566406,172.5 L 44.82691955566406,143.75 L 27.965730667114258,143.75 Z" style="fill-rule: evenodd; fill: rgb(38, 38, 38); stroke-width: 1px; stroke: none;"/>
<path clip-path="url(#contour)" comment="clipped chequy element 44.826921463012695, 143.75" d="M 44.82691955566406,143.75 L 44.82691955566406,172.5 L 55.784278869628906,172.5 L 73.57691955566406,154.7073516845703 L 73.57691955566406,143.75 L 44.82691955566406,143.75 Z" style="fill-rule: evenodd; fill: rgb(230, 230, 230); stroke-width: 1px; stroke: none;"/>
<path clip-path="url(#contour)" comment="clipped chequy element 73.5769214630127, 143.75" d="M 73.57691955566406,143.75 L 73.57691955566406,154.7073516845703 L 84.5342788696289,143.75 L 73.57691955566406,143.75 Z" style="fill-rule: evenodd; fill: rgb(38, 38, 38); stroke-width: 1px; stroke: none;"/>
<path clip-path="url(#contour)" comment="clipped chequy element 16.076921463012695, 172.5" d="M 27.500001907348633,172.5 C 31.518285751342773,177.66636657714844 35.9319953918457,182.700927734375 40.71086883544922,187.5734100341797 L 44.82691955566406,183.4573516845703 L 44.82691955566406,172.5 L 27.500001907348633,172.5 Z" style="fill-rule: evenodd; fill: rgb(230, 230, 230); stroke-width: 1px; stroke: none;"/>
<path clip-path="url(#contour)" comment="clipped chequy element 44.826921463012695, 172.5" d="M 44.82691955566406,172.5 L 44.82691955566406,183.4573516845703 L 55.784278869628906,172.5 L 44.82691955566406,172.5 Z" style="fill-rule: evenodd; fill: rgb(38, 38, 38); stroke-width: 1px; stroke: none;"/>
<path clip-path="url(#contour)" comment="outer shield shape border" d="M 0.0,0.0 L 0.0,100.0 C 0.0,150.0 40.0,200.0 100.0,230.0 C 160.0,200.0 200.0,150.0 200.0,100.0 L 200.0,0.0 L 0.0,0.0 Z" style="fill-rule: evenodd; fill: none; stroke-width: 1px; stroke: rgb(0, 0, 0);"/>
</g>
</svg>
