<?xml version="1.0" encoding="UTF-8" standalone="no"?>
<svg xmlns="http://www.w3.org/2000/svg" height="246.0" width="216.0">
<defs>
<clipPath id="contour">
<path d="M 8.0,8.0 L 208.0,8.0 L 208.0,108.0 C 208.0,158.0 168.0,208.0 108.0,238.0 C 48.0,208.0 8.0,158.0 8.0,108.0 L 8.0,8.0 Z"/>
</clipPath>
<radialGradient id="lighting">
<stop offset="25%" stop-color="white" stop-opacity="35%"/>
<stop offset="100%" stop-color="white" stop-opacity="0%"/>
</radialGradient>
</defs>
<g>
<path d="M 8.0,8.0 L 8.0,108.0 L 108.0,108.0 L 108.0,8.0 L 8.0,8.0 Z" style="fill: rgb(230, 230, 230); stroke-width: 1px; stroke: none;"/>
<path d="M 8.0,8.0 L 8.0,23.909902572631836 L 8.0,23.909902572631836 C 8.00000000000001,23.909902572631836 8.00000000000002,23.909902572631836 8.000000000000028,23.909902572631836 C 8.868104577064514,23.041797637939453 9.902002334594727,22.671072959899902 10.975038528442383,22.671072959899902 C 15.520493030548096,22.671072959899902 20.768259048461914,29.323461532592773 17.090909004211426,33.00081253051758 C 13.909090995788574,36.18263053894043 12.545454502105713,33.909902572631836 9.363636374473572,37.09172058105469 C 4.838010549545288,41.617347717285156 12.828728199005127,51.14950942993164 18.797088623046875,51.14950942993164 C 20.022140502929688,51.14950942993164 21.161989212036133,50.7479133605957 22.090909004211426,49.818992614746094 C 25.272727966308594,46.637176513671875 23.0,45.27354049682617 26.18181800842285,42.09172058105469 C 27.049922943115234,41.22361755371094 28.083820343017578,40.85289001464844 29.156856536865234,40.85289001464844 C 33.70231056213379,40.85289001464844 38.950077056884766,47.505279541015625 35.272727966308594,51.1826286315918 C 32.09090995788574,54.36444854736328 30.727272033691406,52.09172058105469 27.545454025268555,55.27354049682617 C 23.01982879638672,59.799163818359375 31.01054573059082,69.33132934570312 36.97890663146973,69.33132934570312 C 38.20395851135254,69.33132934570312 39.343807220458984,68.92972946166992 40.272727966308594,68.00081253051758 C 43.45454406738281,64.8189926147461 41.181819915771484,63.45535659790039 44.3636360168457,60.27354049682617 C 45.23173904418945,59.405433654785156 46.26564025878906,59.03470993041992 47.33867645263672,59.03470993041992 C 51.88412857055664,59.03470993041992 57.13189697265625,65.68709945678711 53.45454406738281,69.36444854736328 C 50.272727966308594,72.5462646484375 48.90909194946289,70.27354049682617 45.727272033691406,73.45536041259766 C 41.2016487121582,77.9809799194336 49.19236373901367,87.51314544677734 55.16072463989258,87.51314544677734 C 56.38577651977539,87.51314544677734 57.52562713623047,87.1115493774414 58.45454406738281,86.18263244628906 C 61.6363639831543,83.00080871582031 59.3636360168457,81.63717651367188 62.54545593261719,78.45536041259766 C 63.41355895996094,77.58724975585938 64.44745635986328,77.2165298461914 65.52049255371094,77.2165298461914 C 70.06594848632812,77.2165298461914 75.31371307373047,83.8689193725586 71.6363639831543,87.5462646484375 C 68.45454406738281,90.72808074951172 67.09090805053711,88.45536041259766 63.90909194946289,91.63717651367188 C 59.38346481323242,96.16280364990234 67.37418365478516,105.69496154785156 73.34254455566406,105.69496154785156 C 74.56759643554688,105.69496154785156 75.70744323730469,105.29336547851562 76.63636016845703,104.36444854736328 C 79.81818389892578,101.18263244628906 77.54545593261719,99.8189926147461 80.7272720336914,96.63717651367188 C 81.59537506103516,95.76907348632812 82.6292724609375,95.39834594726562 83.70230865478516,95.39834594726562 C 88.24776458740234,95.39834594726562 93.49552917480469,102.05073547363281 89.81818389892578,105.72808074951172 C 87.77296447753906,107.77330780029297 86.47895812988281,107.56486511230469 84.9704360961914,108.0 L 108.0,108.0 L 108.0,92.09009552001953 L 108.0,92.09009552001953 C 107.13189697265625,92.95819854736328 106.0979995727539,93.32892608642578 105.02496337890625,93.32892608642578 C 100.47950744628906,93.32892608642578 95.23174285888672,86.6765365600586 98.90908813476562,82.99919128417969 C 102.09091186523438,79.81736755371094 103.45454406738281,82.09009552001953 106.63636016845703,78.90827941894531 C 111.1619873046875,74.38265228271484 103.17127227783203,64.85049057006836 97.20291137695312,64.85049057006836 C 95.97785949707031,64.85049057006836 94.8380126953125,65.2520866394043 93.90908813476562,66.1810073852539 C 90.7272720336914,69.36282348632812 93.0,70.72645950317383 89.81818389892578,73.90827941894531 C 88.95008087158203,74.77638244628906 87.91617584228516,75.14710998535156 86.8431396484375,75.14710998535156 C 82.29769134521484,75.14710998535156 77.04991912841797,68.49472045898438 80.7272720336914,64.8173713684082 C 83.90908813476562,61.63555145263672 85.2727279663086,63.90827941894531 88.45454406738281,60.72645950317383 C 92.98017120361328,56.200836181640625 84.98945617675781,46.668670654296875 79.0210952758789,46.668670654296875 C 77.7960433959961,46.668670654296875 76.65618896484375,47.07027053833008 75.7272720336914,47.99918746948242 C 72.54545593261719,51.181007385253906 74.81818389892578,52.54464340209961 71.6363639831543,55.72645950317383 C 70.76826095581055,56.594566345214844 69.73435974121094,56.96529006958008 68.66132354736328,56.96529006958008 C 64.11587142944336,56.96529006958008 58.86810302734375,50.31290054321289 62.54545593261719,46.63555145263672 C 65.7272720336914,43.4537353515625 67.09090805053711,45.72645950317383 70.2727279663086,42.54464340209961 C 74.79835510253906,38.01901626586914 66.80763626098633,28.486854553222656 60.83927536010742,28.486854553222656 C 59.61422348022461,28.486854553222656 58.47437286376953,28.888450622558594 57.54545593261719,29.81736946105957 C 54.3636360168457,32.99918746948242 56.6363639831543,34.36282539367676 53.45454406738281,37.54464340209961 C 52.58644104003906,38.41274833679199 51.55254364013672,38.78347206115723 50.47950744628906,38.78347206115723 C 45.934051513671875,38.78347206115723 40.68628692626953,32.13108444213867 44.3636360168457,28.453733444213867 C 47.54545593261719,25.271915435791016 48.90909194946289,27.54464340209961 52.09090805053711,24.362825393676758 C 56.61653518676758,19.837199211120605 48.625816345214844,10.30503535270691 42.65745544433594,10.30503535270691 C 41.432403564453125,10.30503535270691 40.29255676269531,10.706632375717163 39.3636360168457,11.635551929473877 C 36.18181800842285,14.817369937896729 38.454545974731445,16.18100643157959 35.272727966308594,19.36282444000244 C 34.40462303161621,20.230929374694824 33.37072563171387,20.601654052734375 32.29768943786621,20.601654052734375 C 27.752233505249023,20.601654052734375 22.504467964172363,13.949265480041504 26.18181800842285,10.271915674209595 C 28.227039337158203,8.226694568991661 29.521039962768555,8.435133278369904 31.029565811157227,8.0 L 8.0,8.0 Z" style="fill: rgb(13, 38, 217); stroke-width: 1px; stroke: none;"/>
<path d="M 108.0,8.0 L 108.0,108.0 L 208.0,108.0 L 208.0,8.0 L 108.0,8.0 Z" style="fill: rgb(38, 38, 38); stroke-width: 1px; stroke: none;"/>
<path d="M 108.0,8.0 L 108.0,27.091882705688477 L 108.0,27.091882705688477 Q 108.0,36.18279266357422 117.09091186523438,36.18279266357422 L 117.09091186523438,36.18279266357422 Q 117.09091186523438,45.27370071411133 126.18181610107422,45.27370071411133 Q 126.18181610107422,54.36460876464844 135.2727279663086,54.36460876464844 Q 135.2727279663086,63.45552062988281 144.36363220214844,63.45552062988281 Q 144.36363220214844,72.54642486572266 153.4545440673828,72.54642486572266 Q 153.4545440673828,81.63733673095703 162.5454559326172,81.63733673095703 Q 162.5454559326172,90.7282485961914 171.63636779785156,90.7282485961914 Q 171.63636779785156,99.81915283203125 180.72727966308594,99.81915283203125 Q 180.72727966308594,106.03372955322266 184.97557067871094,108.0 L 208.0,108.0 L 208.0,88.90811920166016 Q 208.0,79.81720733642578 198.90908813476562,79.81720733642578 Q 198.90908813476562,70.72629928588867 189.81817626953125,70.72629928588867 Q 189.81817626953125,61.63539123535156 180.72727966308594,61.63539123535156 Q 180.72727966308594,52.54447937011719 171.63636779785156,52.54447937011719 Q 171.63636779785156,43.45357131958008 162.5454559326172,43.45357131958008 Q 162.5454559326172,34.36266326904297 153.4545440673828,34.36266326904297 Q 153.4545440673828,25.271753311157227 144.36363220214844,25.271753311157227 Q 144.36363220214844,16.1808443069458 135.2727279663086,16.1808443069458 Q 135.2727279663086,9.966272592544556 131.02442932128906,8.0 L 108.0,8.0 Z" style="fill: rgb(217, 217, 38); stroke-width: 1px; stroke: none;"/>
<path d="M 108.0,108.0 L 108.0,238.0 C 168.0,208.0 208.0,158.0 208.0,108.0 L 108.0,108.0 Z" style="fill: rgb(230, 230, 230); stroke-width: 1px; stroke: none;"/>
<path d="M 108.0,108.0 L 108.0,129.21320343017578 L 108.0,129.21320343017578 Q 108.0,137.87986755371094 116.66666412353516,137.87986755371094 Q 125.33333587646484,137.87986755371094 125.33333587646484,146.54653930664062 Q 125.33333587646484,155.2132110595703 134.0,155.2132110595703 L 134.0,155.2132110595703 Q 142.6666717529297,155.2132110595703 142.6666717529297,163.87986755371094 Q 142.6666717529297,172.54653930664062 151.3333282470703,172.54653930664062 Q 160.0,172.54653930664062 160.0,181.2132110595703 Q 160.0,189.87986755371094 168.6666717529297,189.87986755371094 L 168.6666717529297,189.87986755371094 Q 170.67616271972656,189.87986755371094 172.2197265625,190.34579467773438 L 172.2197265625,190.34579467773438 C 177.9747314453125,183.9965057373047 183.1195831298828,177.40147399902344 187.5916748046875,170.62330627441406 L 187.5916748046875,170.62330627441406 Q 186.0,168.50088500976562 186.0,164.7867889404297 Q 186.0,156.12013244628906 177.3333282470703,156.12013244628906 L 177.3333282470703,156.12013244628906 Q 168.6666717529297,156.12013244628906 168.6666717529297,147.45346069335938 Q 168.6666717529297,138.7867889404297 160.0,138.7867889404297 L 160.0,138.7867889404297 Q 151.3333282470703,138.7867889404297 151.3333282470703,130.12013244628906 Q 151.3333282470703,121.45346069335938 142.6666717529297,121.45346069335938 Q 134.0,121.45346069335938 134.0,112.78679656982422 Q 134.0,109.91888427734375 133.05097198486328,108.0 L 108.0,108.0 Z" style="fill: rgb(38, 217, 38); stroke-width: 1px; stroke: none;"/>
<path d="M 8.0,108.0 C 8.0,158.0 48.0,208.0 108.0,238.0 L 108.0,108.0 L 8.0,108.0 Z" style="fill: rgb(38, 38, 38); stroke-width: 1px; stroke: none;"/>
<path d="M 8.0,108.0 C 8.0,118.01350402832031 9.60432493686676,128.02701568603516 12.652325630187988,137.87986755371094 L 25.33333396911621,137.87986755371094 L 25.33333396911621,146.54653930664062 L 25.33333396911621,155.2132110595703 L 34.0,155.2132110595703 L 42.66666793823242,155.2132110595703 L 42.66666793823242,163.87986755371094 L 42.66666793823242,172.54653930664062 L 60.0,172.54653930664062 L 60.0,181.2132110595703 L 60.0,189.87986755371094 L 68.66666793823242,189.87986755371094 L 77.33333587646484,189.87986755371094 L 77.33333587646484,198.54653930664062 L 77.33333587646484,207.2132110595703 L 86.0,207.2132110595703 L 94.66666412353516,207.2132110595703 L 94.66666412353516,215.87986755371094 L 94.66666412353516,224.54653930664062 L 103.33333587646484,224.54653930664062 L 108.0,224.54653930664062 L 108.0,190.7867889404297 L 103.33333587646484,190.7867889404297 L 103.33333587646484,182.12013244628906 L 103.33333587646484,173.45346069335938 L 94.66666412353516,173.45346069335938 L 86.0,173.45346069335938 L 86.0,164.7867889404297 L 86.0,156.12013244628906 L 77.33333587646484,156.12013244628906 L 68.66666793823242,156.12013244628906 L 68.66666793823242,147.45346069335938 L 68.66666793823242,138.7867889404297 L 60.0,138.7867889404297 L 51.33333206176758,138.7867889404297 L 51.33333206176758,130.12013244628906 L 51.33333206176758,121.45346069335938 L 42.66666793823242,121.45346069335938 L 34.0,121.45346069335938 L 34.0,112.78679656982422 L 34.0,108.0 L 8.0,108.0 Z" style="fill: rgb(217, 38, 38); stroke-width: 1px; stroke: none;"/>
<path d="M 8.0,8.0 L 208.0,8.0 L 208.0,108.0 C 208.0,158.0 168.0,208.0 108.0,238.0 C 48.0,208.0 8.0,158.0 8.0,108.0 L 8.0,8.0 Z" style="fill: none; stroke-width: 1px; stroke: rgb(0, 0, 0);"/>
</g>
<rect clip-path="url(#contour)" fill="url(#lighting)" height="246.0" width="216.0" x="0.0" y="0.0"/>
</svg>
