<?xml version="1.0" encoding="UTF-8" standalone="no"?>
<svg xmlns="http://www.w3.org/2000/svg" height="246.0" width="216.0">
<defs>
<clipPath id="contour">
<path d="M 8.0,8.0 L 208.0,8.0 L 208.0,108.0 C 208.0,158.0 168.0,208.0 108.0,238.0 C 48.0,208.0 8.0,158.0 8.0,108.0 L 8.0,8.0 Z"/>
</clipPath>
<radialGradient id="lighting">
<stop offset="25%" stop-color="white" stop-opacity="35%"/>
<stop offset="100%" stop-color="white" stop-opacity="0%"/>
</radialGradient>
</defs>
<g transform="translate(8.0,8.0)">
<path d="M 0.0,0.0 L 200.0,0.0 L 200.0,100.0 C 200.0,150.0 160.0,200.0 100.0,230.0 C 40.0,200.0 0.0,150.0 0.0,100.0 L 0.0,0.0 Z" style="fill: rgb(217, 38, 38); stroke-width: 1px; stroke: none;"/>
<path d="M 87.57439422607422,98.62986755371094 C 87.57440185546875,98.62987518310547 87.57440185546875,98.6298828125 87.57440948486328,98.62989044189453 L 87.57441711425781,98.62989044189453 C 87.57440948486328,98.6298828125 87.57440185546875,98.62987518310547 87.57439422607422,98.62986755371094 L 87.57439422607422,98.62986755371094 Z" style="fill: rgb(166, 64, 166); stroke-width: 1px; stroke: none;"/>
<path d="M 90.6269302368164,29.00067138671875 C 88.76455688476562,30.882205963134766 87.045166015625,32.789302825927734 85.49752044677734,34.77627944946289 C 81.82704162597656,39.484619140625 78.98088836669922,44.32986831665039 77.05644226074219,49.153900146484375 L 90.6269302368164,49.153900146484375 L 90.6269302368164,29.00067138671875 L 90.6269302368164,29.00067138671875 Z" style="fill: rgb(230, 230, 230); stroke-width: 1px; stroke: none;"/>
<path d="M 100.03822326660156,20.403902053833008 C 99.98991394042969,20.403902053833008 99.94390106201172,20.440961837768555 99.87519073486328,20.52341079711914 C 96.53544616699219,23.413862228393555 93.42034912109375,26.17851448059082 90.6269302368164,29.00067138671875 L 90.6269302368164,29.00067138671875 L 90.6269302368164,49.153900146484375 L 119.3769302368164,49.153900146484375 L 119.3769302368164,41.83835983276367 L 119.3769302368164,41.83835983276367 C 117.9783935546875,39.46361541748047 116.36641693115234,37.10322952270508 114.55239868164062,34.77627944946289 C 110.68341064453125,29.78403091430664 105.76603698730469,25.291006088256836 100.17472076416016,20.473487854003906 L 100.17472839355469,20.473487854003906 C 100.1186294555664,20.42860984802246 100.0776596069336,20.403902053833008 100.03822326660156,20.403902053833008 L 100.03822326660156,20.403902053833008 Z" style="fill: rgb(166, 64, 166); stroke-width: 1px; stroke: none;"/>
<path d="M 119.3769302368164,41.83835983276367 L 119.3769302368164,49.153900146484375 L 122.98780822753906,49.153900146484375 C 122.01588439941406,46.71399688720703 120.80818176269531,44.26866149902344 119.3769302368164,41.83835983276367 L 119.3769302368164,41.83835983276367 Z" style="fill: rgb(230, 230, 230); stroke-width: 1px; stroke: none;"/>
<path d="M 77.05644226074219,49.153900146484375 C 73.28792572021484,58.600494384765625 73.05387878417969,67.96572875976562 77.08557891845703,76.06217193603516 C 77.37641143798828,76.68717956542969 77.66289520263672,77.30093383789062 77.94507598876953,77.90390014648438 L 90.6269302368164,77.90390014648438 L 90.6269302368164,49.153900146484375 L 77.05644226074219,49.153900146484375 Z" style="fill: rgb(166, 64, 166); stroke-width: 1px; stroke: none;"/>
<path d="M 90.6269302368164,49.153900146484375 L 90.6269302368164,77.90390014648438 L 119.3769302368164,77.90390014648438 L 119.3769302368164,49.153900146484375 L 90.6269302368164,49.153900146484375 Z" style="fill: rgb(230, 230, 230); stroke-width: 1px; stroke: none;"/>
<path d="M 119.3769302368164,49.153900146484375 L 119.3769302368164,77.90390014648438 L 122.10484313964844,77.90390014648438 C 122.38702392578125,77.30093383789062 122.67350769042969,76.68717956542969 122.96434020996094,76.06217193603516 C 126.9795150756836,67.96572875976562 126.75081634521484,58.600494384765625 122.98780822753906,49.153900146484375 L 119.3769302368164,49.153900146484375 Z" style="fill: rgb(166, 64, 166); stroke-width: 1px; stroke: none;"/>
<path d="M 58.75502014160156,81.9825439453125 C 52.97602081298828,81.9825439453125 46.568607330322266,83.94248962402344 40.542327880859375,88.74248504638672 C 35.645301818847656,92.6485824584961 32.34925842285156,99.72474670410156 33.286251068115234,106.65390014648438 L 61.876930236816406,106.65390014648438 L 61.876930236816406,82.17638397216797 L 61.876930236816406,82.17638397216797 C 60.86179733276367,82.04898834228516 59.819061279296875,81.9825439453125 58.75502014160156,81.9825439453125 L 58.75502014160156,81.9825439453125 Z" style="fill: rgb(166, 64, 166); stroke-width: 1px; stroke: none;"/>
<path d="M 77.94507598876953,77.90390014648438 C 82.005859375,86.5809326171875 85.17560577392578,93.02388000488281 87.57439422607422,98.62986755371094 C 82.11263275146484,90.759765625 74.36392974853516,85.3887710571289 65.70325469970703,82.9764404296875 C 64.4843978881836,82.61373138427734 63.20426559448242,82.34295654296875 61.876930236816406,82.17638397216797 L 61.876930236816406,82.17638397216797 L 61.876930236816406,106.65390014648438 L 90.6269302368164,106.65390014648438 L 90.6269302368164,77.90390014648438 L 77.94507598876953,77.90390014648438 Z" style="fill: rgb(230, 230, 230); stroke-width: 1px; stroke: none;"/>
<path d="M 90.6269302368164,77.90390014648438 L 90.6269302368164,106.65390014648438 L 119.3769302368164,106.65390014648438 L 119.3769302368164,90.67402648925781 L 119.3769302368164,90.67402648925781 C 117.03982543945312,92.63059997558594 114.89752197265625,94.88381958007812 113.00076293945312,97.4167251586914 C 114.73887634277344,93.44615936279297 116.85096740722656,89.02622985839844 119.3769302368164,83.69270324707031 L 119.3769302368164,83.69270324707031 L 119.3769302368164,77.90390014648438 L 90.6269302368164,77.90390014648438 Z" style="fill: rgb(166, 64, 166); stroke-width: 1px; stroke: none;"/>
<path d="M 119.3769302368164,77.90390014648438 L 119.3769302368164,83.69270324707031 L 119.3769302368164,83.69270324707031 C 120.23765563964844,81.87530517578125 121.14643096923828,79.95182800292969 122.10484313964844,77.90390014648438 L 119.3769302368164,77.90390014648438 Z" style="fill: rgb(230, 230, 230); stroke-width: 1px; stroke: none;"/>
<path d="M 140.9454345703125,81.9825439453125 C 138.4901123046875,81.9825439453125 136.14822387695312,82.33634185791016 133.99720764160156,82.9764404296875 C 128.6725616455078,84.45955657958984 123.69261932373047,87.06101989746094 119.3769302368164,90.67402648925781 L 119.3769302368164,90.67402648925781 L 119.3769302368164,106.65390014648438 L 148.12692260742188,106.65390014648438 L 148.12692260742188,82.98234558105469 L 148.12693786621094,82.98234558105469 C 145.675537109375,82.29695892333984 143.2600860595703,81.9825439453125 140.9454345703125,81.9825439453125 L 119.3769302368164,77.90390014648438 Z" style="fill: rgb(230, 230, 230); stroke-width: 1px; stroke: none;"/>
<path d="M 148.12692260742188,82.98234558105469 L 148.12692260742188,106.65390014648438 L 166.41421508789062,106.65390014648438 C 167.35121154785156,99.72474670410156 164.05516052246094,92.6485824584961 159.15814208984375,88.74248504638672 C 155.5455322265625,85.8650131225586 151.7959747314453,84.00817108154297 148.12692260742188,82.98234558105469 L 148.12692260742188,82.98234558105469 Z" style="fill: rgb(166, 64, 166); stroke-width: 1px; stroke: none;"/>
<path d="M 33.286251068115234,106.65390014648438 C 34.37908172607422,114.73550415039062 41.230106353759766,122.61714172363281 58.015193939208984,125.03612518310547 C 54.72031021118164,121.2170639038086 54.99488830566406,112.90496063232422 61.584651947021484,109.95954132080078 C 61.68183517456055,109.92201232910156 61.77927017211914,109.88549041748047 61.876930236816406,109.8499526977539 L 61.876930236816406,109.8499526977539 L 61.876930236816406,106.65390014648438 L 33.286251068115234,106.65390014648438 Z" style="fill: rgb(230, 230, 230); stroke-width: 1px; stroke: none;"/>
<path d="M 61.876930236816406,106.65390014648438 L 61.876930236816406,109.8499526977539 L 61.876930236816406,109.8499526977539 C 63.89533233642578,109.11549377441406 66.00923156738281,108.8034896850586 67.98194122314453,108.8034896850586 C 70.86582946777344,108.8034896850586 73.44796752929688,109.47028350830078 74.98883819580078,110.4587631225586 C 77.47659301757812,111.61585998535156 80.52587890625,115.36267852783203 82.2912826538086,120.0189208984375 L 74.5894546508789,120.0189208984375 L 74.5894546508789,133.48301696777344 L 82.7143783569336,133.48301696777344 C 82.48717498779297,134.1488800048828 82.2281265258789,134.7864532470703 81.93347930908203,135.40390014648438 L 90.6269302368164,135.40390014648438 L 90.6269302368164,106.65390014648438 L 61.876930236816406,106.65390014648438 Z" style="fill: rgb(166, 64, 166); stroke-width: 1px; stroke: none;"/>
<path d="M 90.6269302368164,106.65390014648438 L 90.6269302368164,135.40390014648438 L 117.76698303222656,135.40390014648438 C 117.47233581542969,134.7864532470703 117.21328735351562,134.1488800048828 116.986083984375,133.48301696777344 L 119.3769302368164,133.48301696777344 L 119.3769302368164,120.0189208984375 L 117.4091796875,120.0189208984375 C 117.9591064453125,118.5684814453125 118.63362121582031,117.20629119873047 119.3769302368164,115.98313903808594 L 119.3769302368164,115.98313903808594 L 119.3769302368164,106.65390014648438 L 90.6269302368164,106.65390014648438 Z" style="fill: rgb(230, 230, 230); stroke-width: 1px; stroke: none;"/>
<path d="M 119.3769302368164,106.65390014648438 L 119.3769302368164,115.98313903808594 L 119.3769302368164,115.98313903808594 C 121.01982116699219,113.27967834472656 122.99880981445312,111.25541687011719 124.71162414550781,110.4587631225586 C 126.25249481201172,109.47028350830078 128.83462524414062,108.8034896850586 131.71852111816406,108.8034896850586 C 133.78668212890625,108.8034896850586 136.01002502441406,109.14641571044922 138.11581420898438,109.95954132080078 C 144.70558166503906,112.90496063232422 144.9801483154297,121.2170639038086 141.68527221679688,125.03612518310547 C 144.0211181640625,124.69949340820312 146.1645965576172,124.25707244873047 148.12692260742188,123.7230453491211 L 148.12692260742188,123.7230453491211 L 148.12692260742188,106.65390014648438 L 119.3769302368164,106.65390014648438 Z" style="fill: rgb(166, 64, 166); stroke-width: 1px; stroke: none;"/>
<path d="M 119.3769302368164,120.0189208984375 L 119.3769302368164,133.48301696777344 L 125.48542785644531,133.48301696777344 L 125.48542785644531,120.0189208984375 L 119.3769302368164,106.65390014648438 Z" style="fill: rgb(166, 64, 166); stroke-width: 1px; stroke: none;"/>
<path d="M 148.12692260742188,106.65390014648438 L 148.12692260742188,123.7230453491211 L 148.12692260742188,123.7230453491211 C 160.26565551757812,120.41961669921875 165.4734649658203,113.61085510253906 166.41421508789062,106.65390014648438 L 148.12692260742188,106.65390014648438 Z" style="fill: rgb(230, 230, 230); stroke-width: 1px; stroke: none;"/>
<path d="M 61.876930236816406,153.64004516601562 L 61.876930236816406,153.64004516601562 C 61.32689666748047,154.04608154296875 60.76362991333008,154.46243286132812 60.18682098388672,154.8897705078125 C 60.74496841430664,154.8897705078125 61.30881118774414,154.87306213378906 61.876930236816406,154.84091186523438 L 61.876930236816406,154.84091186523438 L 61.876930236816406,153.64004516601562 L 61.876930236816406,153.64004516601562 Z" style="fill: rgb(166, 64, 166); stroke-width: 1px; stroke: none;"/>
<path d="M 81.93347930908203,135.40390014648438 C 79.2262954711914,141.07684326171875 73.5135498046875,145.04983520507812 61.876930236816406,153.64004516601562 L 61.876930236816406,153.64004516601562 L 61.876930236816406,154.84091186523438 L 61.876930236816406,154.84091186523438 C 73.55500030517578,154.18014526367188 87.0389404296875,146.99595642089844 89.99053955078125,144.3061981201172 L 89.99054718017578,144.3061981201172 C 90.20366668701172,144.11654663085938 90.4161376953125,143.8553009033203 90.6269302368164,143.53378295898438 L 90.6269302368164,143.53378295898438 L 90.6269302368164,135.40390014648438 L 81.93347930908203,135.40390014648438 Z" style="fill: rgb(230, 230, 230); stroke-width: 1px; stroke: none;"/>
<path d="M 90.6269302368164,143.85313415527344 C 89.52806091308594,149.5526580810547 85.02753448486328,154.07945251464844 77.23534393310547,156.7368927001953 C 78.07099914550781,158.84503173828125 81.26210021972656,162.6294403076172 85.88506317138672,164.15390014648438 L 90.6269302368164,164.15390014648438 L 90.6269302368164,143.85313415527344 L 81.93347930908203,135.40390014648438 Z" style="fill: rgb(230, 230, 230); stroke-width: 1px; stroke: none;"/>
<path d="M 90.6269302368164,135.40390014648438 L 90.6269302368164,143.53378295898438 L 90.6269302368164,143.53378295898438 C 90.65290069580078,143.49415588378906 90.67884826660156,143.45362854003906 90.70477294921875,143.41220092773438 L 90.70478057861328,143.41220092773438 C 90.68106842041016,143.55995178222656 90.65512084960938,143.70692443847656 90.6269302368164,143.85313415527344 L 90.6269302368164,143.85313415527344 L 90.6269302368164,164.15390014648438 L 114.16485595703125,164.15390014648438 C 116.20867919921875,163.4799346923828 117.97264099121094,162.36424255371094 119.3769302368164,161.14697265625 L 119.3769302368164,161.14697265625 L 119.3769302368164,155.34426879882812 L 119.3769302368164,155.34426879882812 C 113.76863861083984,152.662109375 110.44315338134766,148.76605224609375 109.46349334716797,144.05526733398438 L 109.4635009765625,144.05526733398438 C 109.54550170898438,144.14913940429688 109.6276626586914,144.23300170898438 109.70991516113281,144.3061981201172 L 109.70992279052734,144.3061981201172 C 111.07831573486328,145.55320739746094 114.71046447753906,147.76620483398438 119.3769302368164,149.8473358154297 L 119.3769302368164,149.8473358154297 L 119.3769302368164,138.11732482910156 L 119.3769302368164,138.11732482910156 C 118.74856567382812,137.2404327392578 118.21636199951172,136.3455810546875 117.76698303222656,135.40390014648438 L 90.6269302368164,135.40390014648438 Z" style="fill: rgb(166, 64, 166); stroke-width: 1px; stroke: none;"/>
<path d="M 119.3769302368164,138.11732482910156 L 119.3769302368164,149.8473358154297 L 119.3769302368164,149.8473358154297 C 125.265625,152.4735565185547 132.80140686035156,154.8897705078125 139.51364135742188,154.8897705078125 C 128.7593536376953,146.92236328125 122.7129135131836,142.77276611328125 119.3769302368164,138.11732482910156 L 119.3769302368164,138.11732482910156 Z" style="fill: rgb(230, 230, 230); stroke-width: 1px; stroke: none;"/>
<path d="M 119.3769302368164,155.34426879882812 L 119.3769302368164,161.14697265625 L 119.3769302368164,161.14697265625 C 121.1490249633789,159.6108856201172 122.3483657836914,157.91302490234375 122.81458282470703,156.7368927001953 C 121.58683776855469,156.31817626953125 120.44081115722656,155.85305786132812 119.3769302368164,155.34426879882812 L 119.3769302368164,138.11732482910156 Z" style="fill: rgb(230, 230, 230); stroke-width: 1px; stroke: none;"/>
<path d="M 85.88506317138672,164.15390014648438 C 87.14517974853516,164.56944274902344 88.51168060302734,164.8170623779297 89.96585845947266,164.8170623779297 C 90.18425750732422,164.8170623779297 90.40463256835938,164.8114776611328 90.6269302368164,164.80003356933594 L 90.6269302368164,164.80003356933594 L 90.6269302368164,164.15390014648438 L 85.88506317138672,164.15390014648438 Z" style="fill: rgb(166, 64, 166); stroke-width: 1px; stroke: none;"/>
<path d="M 90.6269302368164,164.15390014648438 L 90.6269302368164,164.80003356933594 L 90.6269302368164,164.80003356933594 C 90.6311264038086,164.79981994628906 90.63533020019531,164.79959106445312 90.63953399658203,164.79937744140625 C 92.03736114501953,170.79006958007812 93.43518829345703,174.1348876953125 99.87519073486328,179.57643127441406 C 99.95008087158203,179.6388397216797 99.98751831054688,179.67002868652344 100.02496337890625,179.67002868652344 C 100.06240844726562,179.67002868652344 100.09984588623047,179.6388397216797 100.17472839355469,179.57643127441406 C 106.61473083496094,174.1348876953125 108.01255798339844,170.79006958007812 109.41039276123047,164.79937744140625 C 109.63695526123047,164.81126403808594 109.86153411865234,164.8170623779297 110.08406066894531,164.8170623779297 C 111.53823852539062,164.8170623779297 112.90473937988281,164.56944274902344 114.16485595703125,164.15390014648438 L 90.6269302368164,164.15390014648438 Z" style="fill: rgb(230, 230, 230); stroke-width: 1px; stroke: none;"/>
<path d="M 0.0,0.0 L 200.0,0.0 L 200.0,100.0 C 200.0,150.0 160.0,200.0 100.0,230.0 C 40.0,200.0 0.0,150.0 0.0,100.0 L 0.0,0.0 Z" style="fill: none; stroke-width: 1px; stroke: rgb(0, 0, 0);"/>
</g>
<rect clip-path="url(#contour)" fill="url(#lighting)" height="246.0" width="216.0" x="0.0" y="0.0"/>
</svg>
