<?xml version="1.0" encoding="UTF-8" standalone="no"?>
<svg xmlns="http://www.w3.org/2000/svg" height="246.0" width="216.0">
<defs>
<clipPath id="contour">
<path d="M 8.0,8.0 L 208.0,8.0 L 208.0,108.0 C 208.0,158.0 168.0,208.0 108.0,238.0 C 48.0,208.0 8.0,158.0 8.0,108.0 L 8.0,8.0 Z"/>
</clipPath>
<radialGradient id="lighting">
<stop offset="25%" stop-color="white" stop-opacity="35%"/>
<stop offset="100%" stop-color="white" stop-opacity="0%"/>
</radialGradient>
</defs>
<g>
<path d="M 8.0,8.0 L 8.0,108.0 L 108.0,108.0 L 108.0,8.0 L 8.0,8.0 Z" style="fill: rgb(230, 230, 230); stroke-width: 1px; stroke: none;"/>
<path d="M 8.0,8.0 L 8.0,32.69693183898926 C 9.271976470947266,30.5762939453125 8.22784811258316,29.227689743041992 10.772817611694336,26.682720184326172 C 11.616851091384888,25.838685989379883 12.62208080291748,25.478240966796875 13.665363788604736,25.478240966796875 C 18.084781646728516,25.478240966796875 23.187036514282227,31.946170806884766 19.611652374267578,35.521554946899414 C 16.518059730529785,38.61514663696289 15.192234992980957,36.40543746948242 12.098642826080322,39.49903106689453 C 7.698504269123077,43.899169921875 15.46765422821045,53.167022705078125 21.270523071289062,53.167022705078125 C 22.4616060256958,53.167022705078125 23.569849014282227,52.77656173706055 24.473011016845703,51.87339782714844 C 27.56660270690918,48.779808044433594 25.356895446777344,47.453983306884766 28.45048713684082,44.360389709472656 C 29.29452133178711,43.516357421875 30.29975128173828,43.15591049194336 31.343032836914062,43.15591049194336 C 35.762451171875,43.15591049194336 40.86470413208008,49.62384033203125 37.28932189941406,53.199222564697266 C 34.195730209350586,56.292816162109375 32.869903564453125,54.083106994628906 29.77631187438965,57.176700592041016 C 25.37617301940918,61.576839447021484 33.14532279968262,70.84469223022461 38.94819259643555,70.84469223022461 C 40.13927459716797,70.84469223022461 41.247520446777344,70.45423126220703 42.15068054199219,69.55106735229492 C 45.2442741394043,66.45747756958008 43.03456497192383,65.13165283203125 46.12815475463867,62.03805923461914 C 46.972190856933594,61.194026947021484 47.977420806884766,60.833580017089844 49.02070236206055,60.833580017089844 C 53.440120697021484,60.833580017089844 58.54237365722656,67.30150985717773 54.96699142456055,70.87689208984375 C 51.87339782714844,73.97048950195312 50.54757308959961,71.76077651977539 47.453983306884766,74.8543701171875 C 43.0538444519043,79.25450897216797 50.822994232177734,88.5223617553711 56.62586212158203,88.5223617553711 C 57.81694412231445,88.5223617553711 58.92518997192383,88.13189697265625 59.82835006713867,87.2287368774414 C 62.92194366455078,84.13514709472656 60.71223449707031,82.80931854248047 63.805824279785156,79.71572875976562 C 64.64986038208008,78.87169647216797 65.65509033203125,78.5112533569336 66.69837188720703,78.5112533569336 C 71.11779022216797,78.5112533569336 76.22004699707031,84.97917938232422 72.64466094970703,88.5545654296875 C 69.55106735229492,91.64815521240234 68.2252426147461,89.43844604492188 65.13165283203125,92.53203582763672 C 60.73151397705078,96.93217468261719 68.50066375732422,106.20003509521484 74.30352783203125,106.20003509521484 C 75.49461364746094,106.20003509521484 76.60285949707031,105.8095703125 77.50601959228516,104.90641021728516 C 80.599609375,101.81281280517578 78.38990020751953,100.48699188232422 81.4834976196289,97.39339447021484 C 82.32752990722656,96.54936218261719 83.33275604248047,96.18891906738281 84.37604522705078,96.18891906738281 C 88.79545593261719,96.18891906738281 93.89771270751953,102.65685272216797 90.32232666015625,106.23223114013672 C 89.2184829711914,107.3360824584961 88.33970642089844,107.76471710205078 87.52538299560547,108.0 L 108.0,108.0 L 108.0,83.30307006835938 L 108.0,83.30307006835938 C 106.72802734375,85.4237060546875 107.77214813232422,86.77230834960938 105.22718048095703,89.3172836303711 C 104.38314819335938,90.16131591796875 103.37792205810547,90.52175903320312 102.33463287353516,90.52175903320312 C 97.91522216796875,90.52175903320312 92.8129653930664,84.05382537841797 96.38835144042969,80.47844696044922 C 99.48194122314453,77.38484954833984 100.8077621459961,79.59455871582031 103.90135955810547,76.50096893310547 C 108.30149841308594,72.100830078125 100.5323486328125,62.832977294921875 94.72947692871094,62.832977294921875 C 93.53839111328125,62.832977294921875 92.4301528930664,63.22343826293945 91.52698516845703,64.12660217285156 C 88.43339538574219,67.2201919555664 90.64310455322266,68.54601669311523 87.54951477050781,71.63961029052734 C 86.70548248291016,72.483642578125 85.70024871826172,72.84408569335938 84.65696716308594,72.84408569335938 C 80.237548828125,72.84408569335938 75.13529205322266,66.37615966796875 78.71067810058594,62.800777435302734 C 81.80426788330078,59.707183837890625 83.13009643554688,61.916893005371094 86.22368621826172,58.823299407958984 C 90.62382507324219,54.423160552978516 82.85467529296875,45.15530776977539 77.05181121826172,45.15530776977539 C 75.86072540283203,45.15530776977539 74.75247955322266,45.54576873779297 73.84931945800781,46.44893264770508 C 70.7557258605957,49.54252243041992 72.96543884277344,50.86834716796875 69.87184524536133,53.96194076538086 C 69.0278091430664,54.805973052978516 68.02257919311523,55.166419982910156 66.97929763793945,55.166419982910156 C 62.559879302978516,55.166419982910156 57.45762634277344,48.698490142822266 61.03300857543945,45.12310791015625 C 64.12660217285156,42.02951431274414 65.45242691040039,44.23922348022461 68.54601669311523,41.1456298828125 C 72.94615936279297,36.74549102783203 65.17700576782227,27.477638244628906 59.37413787841797,27.477638244628906 C 58.18305587768555,27.477638244628906 57.07481002807617,27.868099212646484 56.17164993286133,28.77126121520996 C 53.07805633544922,31.86485481262207 55.28776550292969,33.1906795501709 52.194175720214844,36.284271240234375 C 51.35013961791992,37.128305435180664 50.34490966796875,37.48875045776367 49.30162811279297,37.48875045776367 C 44.88220977783203,37.48875045776367 39.77995491027832,31.02082061767578 43.35533905029297,27.445436477661133 C 46.44893264770508,24.351844787597656 47.774757385253906,26.561553955078125 50.86834716796875,23.467961311340332 C 55.26848602294922,19.067822456359863 47.49933624267578,9.799968481063843 41.696468353271484,9.799968481063843 C 40.50538635253906,9.799968481063843 39.39714241027832,10.190429925918579 38.493980407714844,11.093592166900635 C 35.40038871765137,14.18718433380127 37.6100959777832,15.513009548187256 34.51650428771973,18.60660171508789 C 33.67247009277344,19.450634956359863 32.667240142822266,19.811080932617188 31.623958587646484,19.811080932617188 C 27.204540252685547,19.811080932617188 22.102285385131836,13.343150615692139 25.677669525146484,9.767766952514648 C 26.78151512145996,8.663920879364014 27.66029167175293,8.23528216779232 28.47461700439453,8.0 L 8.0,8.0 Z" style="fill: rgb(38, 38, 217); stroke-width: 1px; stroke: none;"/>
<path d="M 108.0,8.0 L 108.0,108.0 L 208.0,108.0 L 208.0,8.0 L 108.0,8.0 Z" style="fill: rgb(38, 38, 38); stroke-width: 1px; stroke: none;"/>
<path d="M 108.0,8.0 L 108.0,29.604509353637695 L 108.0,29.604509353637695 Q 109.25630950927734,29.864700317382812 110.77281951904297,29.864700317382812 Q 110.77281951904297,38.703535079956055 119.61164855957031,38.703535079956055 Q 119.61164855957031,47.5423698425293 128.4504852294922,47.5423698425293 Q 128.4504852294922,56.38120651245117 137.28932189941406,56.38120651245117 Q 137.28932189941406,65.22003936767578 146.12815856933594,65.22003936767578 Q 146.12815856933594,74.05887603759766 154.9669952392578,74.05887603759766 Q 154.9669952392578,82.89771270751953 163.8058319091797,82.89771270751953 Q 163.8058319091797,91.73654174804688 172.6446533203125,91.73654174804688 Q 172.6446533203125,100.57537841796875 181.48348999023438,100.57537841796875 Q 181.48348999023438,105.87867736816406 184.6654815673828,108.0 L 208.0,108.0 L 208.0,86.39549255371094 L 208.0,86.39549255371094 Q 206.74368286132812,86.13529968261719 205.22718811035156,86.13529968261719 Q 205.22718811035156,77.29646301269531 196.3883514404297,77.29646301269531 Q 196.3883514404297,68.4576301574707 187.5495147705078,68.4576301574707 Q 187.5495147705078,59.61879348754883 178.71067810058594,59.61879348754883 Q 178.71067810058594,50.77996063232422 169.87184143066406,50.77996063232422 Q 169.87184143066406,41.941123962402344 161.0330047607422,41.941123962402344 Q 161.0330047607422,33.102291107177734 152.1941680908203,33.102291107177734 Q 152.1941680908203,24.263456344604492 143.3553466796875,24.263456344604492 Q 143.3553466796875,15.424621105194092 134.5165023803711,15.424621105194092 Q 134.5165023803711,10.121320247650146 131.33452606201172,8.0 L 108.0,8.0 Z" style="fill: rgb(217, 217, 38); stroke-width: 1px; stroke: none;"/>
<path d="M 108.0,108.0 L 108.0,238.0 C 168.0,208.0 208.0,158.0 208.0,108.0 L 108.0,108.0 Z" style="fill: rgb(230, 230, 230); stroke-width: 1px; stroke: none;"/>
<path d="M 108.0,108.0 L 108.0,133.60357666015625 L 108.0,133.60357666015625 Q 110.19518280029297,135.46951293945312 114.25630950927734,135.46951293945312 L 114.25630950927734,135.46951293945312 Q 123.09514617919922,135.46951293945312 123.09514617919922,144.308349609375 Q 123.09514617919922,153.14718627929688 131.9339828491211,153.14718627929688 Q 140.77281188964844,153.14718627929688 140.77281188964844,161.98602294921875 Q 140.77281188964844,170.82485961914062 149.6116485595703,170.82485961914062 L 149.6116485595703,170.82485961914062 Q 158.4504852294922,170.82485961914062 158.4504852294922,179.6636962890625 Q 158.4504852294922,188.5025177001953 167.28932189941406,188.5025177001953 Q 170.64854431152344,188.5025177001953 172.7310791015625,189.77920532226562 L 172.7310791015625,189.77920532226562 C 178.46563720703125,183.39772033691406 183.58477783203125,176.77099609375 188.02537536621094,169.962158203125 L 188.02537536621094,169.962158203125 Q 187.5495147705078,168.3871612548828 187.5495147705078,166.3363037109375 Q 187.5495147705078,157.4974822998047 178.71067810058594,157.4974822998047 Q 169.87184143066406,157.4974822998047 169.87184143066406,148.6586456298828 Q 169.87184143066406,139.81980895996094 161.0330047607422,139.81980895996094 L 161.0330047607422,139.81980895996094 Q 152.1941680908203,139.81980895996094 152.1941680908203,130.98097229003906 Q 152.1941680908203,122.14213562011719 143.3553466796875,122.14213562011719 Q 134.5165023803711,122.14213562011719 134.5165023803711,113.30329895019531 Q 134.5165023803711,110.05463409423828 133.32247924804688,108.0 L 108.0,108.0 Z" style="fill: rgb(38, 217, 38); stroke-width: 1px; stroke: none;"/>
<path d="M 8.0,108.0 C 8.0,158.0 48.0,208.0 108.0,238.0 L 108.0,108.0 L 8.0,108.0 Z" style="fill: rgb(38, 38, 38); stroke-width: 1px; stroke: none;"/>
<path d="M 8.0,108.0 C 8.0,117.19800567626953 9.35365378856659,126.3960189819336 11.936452150344849,135.46951293945312 L 5.417478561401367,135.46951293945312 L 14.25631332397461,135.46951293945312 L 23.09514808654785,135.46951293945312 L 23.09514808654785,144.308349609375 L 23.09514808654785,153.14718627929688 L 40.7728157043457,153.14718627929688 L 40.7728157043457,161.98602294921875 L 40.7728157043457,170.82485961914062 L 49.61165237426758,170.82485961914062 L 58.45048522949219,170.82485961914062 L 58.45048522949219,179.6636962890625 L 58.45048522949219,188.5025177001953 L 76.12815856933594,188.5025177001953 L 76.12815856933594,197.3413543701172 L 76.12815856933594,206.18019104003906 L 84.96698760986328,206.18019104003906 L 93.80582427978516,206.18019104003906 L 93.80582427978516,215.01902770996094 L 93.80582427978516,223.8578643798828 L 108.0,223.8578643798828 L 108.0,192.85281372070312 L 105.22718048095703,192.85281372070312 L 105.22718048095703,184.01397705078125 L 105.22718048095703,175.17514038085938 L 87.54951477050781,175.17514038085938 L 87.54951477050781,166.3363037109375 L 87.54951477050781,157.4974822998047 L 69.87184524536133,157.4974822998047 L 69.87184524536133,148.6586456298828 L 69.87184524536133,139.81980895996094 L 61.03300857543945,139.81980895996094 L 52.194175720214844,139.81980895996094 L 52.194175720214844,130.98097229003906 L 52.194175720214844,122.14213562011719 L 34.51650428771973,122.14213562011719 L 34.51650428771973,113.30329895019531 L 34.51650428771973,108.0 L 8.0,108.0 Z" style="fill: rgb(217, 38, 38); stroke-width: 1px; stroke: none;"/>
<path d="M 8.0,8.0 L 208.0,8.0 L 208.0,108.0 C 208.0,158.0 168.0,208.0 108.0,238.0 C 48.0,208.0 8.0,158.0 8.0,108.0 L 8.0,8.0 Z" style="fill: none; stroke-width: 1px; stroke: rgb(0, 0, 0);"/>
</g>
<rect clip-path="url(#contour)" fill="url(#lighting)" height="246.0" width="216.0" x="0.0" y="0.0"/>
</svg>
