<?xml version="1.0" encoding="UTF-8" standalone="no"?>
<svg xmlns="http://www.w3.org/2000/svg" height="246.0" width="216.0">
<defs>
<clipPath id="contour">
<path d="M 8.0,8.0 L 208.0,8.0 L 208.0,108.0 C 208.0,158.0 168.0,208.0 108.0,238.0 C 48.0,208.0 8.0,158.0 8.0,108.0 L 8.0,8.0 Z"/>
</clipPath>
<radialGradient id="lighting">
<stop offset="25%" stop-color="white" stop-opacity="35%"/>
<stop offset="100%" stop-color="white" stop-opacity="0%"/>
</radialGradient>
</defs>
<g>
<path d="M 8.0,8.0 L 8.0,36.75 L 108.0,36.75 L 108.0,8.0 L 8.0,8.0 Z" style="fill: rgb(13, 38, 217); stroke-width: 1px; stroke: none;"/>
<path d="M 8.0,36.75 L 8.0,65.5 L 108.0,65.5 L 108.0,36.75 L 8.0,36.75 Z" style="fill: rgb(38, 217, 38); stroke-width: 1px; stroke: none;"/>
<path d="M 8.0,65.5 L 8.0,94.25 L 108.0,94.25 L 108.0,65.5 L 8.0,65.5 Z" style="fill: rgb(13, 38, 217); stroke-width: 1px; stroke: none;"/>
<path d="M 8.0,94.25 L 8.0,108.0 L 108.0,108.0 L 108.0,94.25 L 8.0,94.25 Z" style="fill: rgb(38, 217, 38); stroke-width: 1px; stroke: none;"/>
<path d="M 108.0,8.0 L 108.0,108.0 L 136.75,108.0 L 136.75,8.0 L 108.0,8.0 Z" style="fill: rgb(230, 230, 230); stroke-width: 1px; stroke: none;"/>
<path d="M 136.75,8.0 L 136.75,108.0 L 165.5,108.0 L 165.5,8.0 L 136.75,8.0 Z" style="fill: rgb(166, 64, 166); stroke-width: 1px; stroke: none;"/>
<path d="M 165.5,8.0 L 165.5,108.0 L 194.25,108.0 L 194.25,8.0 L 165.5,8.0 Z" style="fill: rgb(230, 230, 230); stroke-width: 1px; stroke: none;"/>
<path d="M 194.25,8.0 L 194.25,108.0 L 208.0,108.0 L 208.0,8.0 L 194.25,8.0 Z" style="fill: rgb(166, 64, 166); stroke-width: 1px; stroke: none;"/>
<path d="M 108.0,108.0 L 108.0,238.0 C 168.0,208.0 208.0,158.0 208.0,108.0 L 108.0,108.0 Z" style="fill: rgb(217, 217, 38); stroke-width: 1px; stroke: none;"/>
<path d="M 197.39340209960938,108.0 L 207.4644775390625,118.07107543945312 L 207.4644775390625,118.07107543945312 C 207.81947326660156,114.71809387207031 208.0,111.35904693603516 208.0,108.0 L 197.39340209960938,108.0 Z" style="fill: rgb(38, 217, 38); stroke-width: 1px; stroke: none;"/>
<path d="M 108.0,108.0 L 108.0,118.60660552978516 L 118.60660552978516,108.0 L 197.39340209960938,108.0 Z" style="fill: rgb(38, 217, 38); stroke-width: 1px; stroke: none;"/>
<path d="M 139.81980895996094,108.0 L 108.0,139.81980895996094 L 108.0,161.0330047607422 L 158.0,111.03301239013672 L 198.26712036132812,151.30014038085938 L 198.26712036132812,151.30014038085938 C 200.55921936035156,146.1880340576172 202.46856689453125,141.010498046875 203.971435546875,135.79124450683594 L 203.971435546875,135.79124450683594 L 176.18019104003906,108.0 L 139.81980895996094,108.0 Z" style="fill: rgb(38, 217, 38); stroke-width: 1px; stroke: none;"/>
<path d="M 158.0,132.2462158203125 L 108.0,182.2462158203125 L 108.0,203.45941162109375 L 158.0,153.45941162109375 L 182.4634552001953,177.92286682128906 L 182.4634552001953,177.92286682128906 C 185.56362915039062,173.76760864257812 188.40899658203125,169.53167724609375 190.98422241210938,165.23043823242188 L 190.98422241210938,165.23043823242188 L 158.0,132.2462158203125 L 158.0,132.2462158203125 Z" style="fill: rgb(38, 217, 38); stroke-width: 1px; stroke: none;"/>
<path d="M 158.0,174.67262268066406 L 108.0,224.67262268066406 L 108.0,238.0 C 114.07820892333984,234.9608917236328 119.95116424560547,231.716552734375 125.59808349609375,228.28773498535156 L 125.59808349609375,228.28773498535156 L 158.0,195.8858184814453 L 162.44879150390625,200.33462524414062 L 162.44879150390625,200.33462524414062 C 166.1307830810547,196.83888244628906 169.62139892578125,193.2504425048828 172.90866088867188,189.58128356933594 L 172.90866088867188,189.58128356933594 L 158.0,174.67262268066406 L 158.0,174.67262268066406 Z" style="fill: rgb(38, 217, 38); stroke-width: 1px; stroke: none;"/>
<path d="M 8.0,108.0 C 8.0,158.0 48.0,208.0 108.0,238.0 L 108.0,108.0 L 8.0,108.0 Z" style="fill: rgb(38, 38, 38); stroke-width: 1px; stroke: none;"/>
<path d="M 39.81980514526367,108.0 L 58.0,126.18019104003906 L 76.18019104003906,108.0 L 39.81980514526367,108.0 Z" style="fill: rgb(217, 38, 38); stroke-width: 1px; stroke: none;"/>
<path d="M 8.0,108.0 C 8.0,111.76197814941406 8.22643931210041,115.5239486694336 8.670799374580383,119.27740478515625 L 8.67080533504486,119.27740478515625 L 58.0,168.60659790039062 L 108.0,118.60660552978516 L 108.0,108.0 L 97.39339447021484,108.0 L 58.0,147.39340209960938 L 18.60660171508789,108.0 L 8.0,108.0 Z" style="fill: rgb(217, 38, 38); stroke-width: 1px; stroke: none;"/>
<path d="M 108.0,139.81980895996094 L 58.0,189.81980895996094 L 16.40256404876709,148.2223663330078 L 16.402555465698242,148.2223663330078 C 25.30097007751465,169.60511779785156 40.91246795654297,189.93658447265625 61.526641845703125,207.50636291503906 L 61.526641845703125,207.50636291503906 L 108.0,161.0330047607422 L 108.0,139.81980895996094 L 108.0,139.81980895996094 Z" style="fill: rgb(217, 38, 38); stroke-width: 1px; stroke: none;"/>
<path d="M 108.0,182.2462158203125 L 73.3624496459961,216.88375854492188 L 73.3624496459961,216.88375854492188 C 77.40719604492188,219.86415100097656 81.60494995117188,222.7441864013672 85.94562530517578,225.5137939453125 L 85.94562530517578,225.5137939453125 L 108.0,203.45941162109375 L 108.0,182.2462158203125 L 108.0,182.2462158203125 Z" style="fill: rgb(217, 38, 38); stroke-width: 1px; stroke: none;"/>
<path d="M 108.0,224.67262268066406 L 99.26057434082031,233.41204833984375 L 99.26057434082031,233.41204833984375 C 102.12334442138672,234.988525390625 105.03729248046875,236.51864624023438 108.0,238.0 L 108.0,224.67262268066406 L 108.0,224.67262268066406 Z" style="fill: rgb(217, 38, 38); stroke-width: 1px; stroke: none;"/>
<path d="M 8.0,8.0 L 208.0,8.0 L 208.0,108.0 C 208.0,158.0 168.0,208.0 108.0,238.0 C 48.0,208.0 8.0,158.0 8.0,108.0 L 8.0,8.0 Z" style="fill: none; stroke-width: 1px; stroke: rgb(0, 0, 0);"/>
</g>
<rect clip-path="url(#contour)" fill="url(#lighting)" height="246.0" width="216.0" x="0.0" y="0.0"/>
</svg>
