<?xml version="1.0" encoding="UTF-8" standalone="no"?>
<svg xmlns="http://www.w3.org/2000/svg" height="416.0" width="216.0">
<defs>
<clipPath id="contour">
<path d="M 8.0,8.0 L 208.0,8.0 L 208.0,408.0 L 108.0,328.0 L 8.0,408.0 L 8.0,8.0 Z"/>
</clipPath>
<radialGradient id="lighting">
<stop offset="25%" stop-color="white" stop-opacity="35%"/>
<stop offset="100%" stop-color="white" stop-opacity="0%"/>
</radialGradient>
</defs>
<g>
<path d="M 8.0,8.0 L 208.0,8.0 L 208.0,408.0 L 108.0,328.0 L 8.0,408.0 L 8.0,8.0 Z" style="fill: rgb(217, 217, 38); stroke-width: 1px; stroke: none;"/>
<path d="M 8.0,8.0 L 8.0,46.60450744628906 L 7.999999999999931,46.60450744628906 L 25.39130401611328,46.60450744628906 L 42.78260803222656,46.60450744628906 L 42.78260803222656,63.995811462402344 L 42.78260803222656,81.38711547851562 L 60.173912048339844,81.38711547851562 L 77.56521606445312,81.38711547851562 L 77.56521606445312,98.7784194946289 L 77.56521606445312,116.16972351074219 L 94.9565200805664,116.16972351074219 L 112.34782409667969,116.16972351074219 L 112.34782409667969,133.56102752685547 L 112.34782409667969,150.95233154296875 L 129.73912811279297,150.95233154296875 L 147.13043212890625,150.95233154296875 L 147.13043212890625,168.34364318847656 L 147.13043212890625,185.7349395751953 L 164.52174377441406,185.7349395751953 L 181.9130401611328,185.7349395751953 L 181.9130401611328,203.12625122070312 L 181.9130401611328,220.51754760742188 L 199.30435180664062,220.51754760742188 L 208.0,220.51754760742188 L 208.0,195.48245239257812 L 199.30435180664062,195.48245239257812 L 199.30435180664062,178.0911407470703 L 199.30435180664062,160.69984436035156 L 164.52174377441406,160.69984436035156 L 164.52174377441406,143.30853271484375 L 164.52174377441406,125.91722869873047 L 147.13043212890625,125.91722869873047 L 129.73912811279297,125.91722869873047 L 129.73912811279297,108.52592468261719 L 129.73912811279297,91.1346206665039 L 94.9565200805664,91.1346206665039 L 94.9565200805664,73.74331665039062 L 94.9565200805664,56.352012634277344 L 77.56521606445312,56.352012634277344 L 60.173912048339844,56.352012634277344 L 60.173912048339844,38.960710525512695 L 60.173912048339844,21.569405555725098 L 42.78260803222656,21.569405555725098 L 25.39130401611328,21.569405555725098 L 25.39130401611328,8.0 L 8.0,8.0 Z" style="fill: rgb(13, 38, 217); stroke-width: 1px; stroke: none;"/>
<path d="M 8.0,8.0 L 208.0,8.0 L 208.0,408.0 L 108.0,328.0 L 8.0,408.0 L 8.0,8.0 Z" style="fill: none; stroke-width: 1px; stroke: rgb(0, 0, 0);"/>
</g>
<rect clip-path="url(#contour)" fill="url(#lighting)" height="416.0" width="216.0" x="0.0" y="0.0"/>
</svg>
