<?xml version="1.0" encoding="UTF-8" standalone="no"?>
<svg xmlns="http://www.w3.org/2000/svg" height="246.0" width="216.0">
<defs>
<clipPath id="contour">
<path d="M 8.0,8.0 L 208.0,8.0 L 208.0,108.0 C 208.0,158.0 168.0,208.0 108.0,238.0 C 48.0,208.0 8.0,158.0 8.0,108.0 L 8.0,8.0 Z"/>
</clipPath>
<radialGradient id="lighting">
<stop offset="25%" stop-color="white" stop-opacity="35%"/>
<stop offset="100%" stop-color="white" stop-opacity="0%"/>
</radialGradient>
</defs>
<g>
<path d="M 8.0,8.0 L 8.0,108.0 C 8.0,158.0 48.0,208.0 108.0,238.0 C 168.0,208.0 208.0,158.0 208.0,108.0 L 208.0,8.0 L 8.0,8.0 Z" style="fill: rgb(38, 38, 217); stroke-width: 1px; stroke: none;"/>
<path d="M 22.142135620117188,8.0 L 8.0,22.142135620117188 L 22.142135620117188,36.284271240234375 L 36.284271240234375,22.142135620117188 L 22.142135620117188,8.0 L 22.142135620117188,8.0 Z" style="fill: rgb(230, 230, 230); stroke-width: 1px; stroke: none;"/>
<path d="M 50.42640686035156,8.0 L 36.284271240234375,22.142135620117188 L 50.42640686035156,36.284271240234375 L 64.56854248046875,22.142135620117188 L 50.42640686035156,8.0 L 50.42640686035156,8.0 Z" style="fill: rgb(230, 230, 230); stroke-width: 1px; stroke: none;"/>
<path d="M 78.71067810058594,8.0 L 64.56854248046875,22.142135620117188 L 78.71067810058594,36.284271240234375 L 92.85281372070312,22.142135620117188 L 78.71067810058594,8.0 L 78.71067810058594,8.0 Z" style="fill: rgb(230, 230, 230); stroke-width: 1px; stroke: none;"/>
<path d="M 106.99494934082031,8.0 L 92.85281372070312,22.142135620117188 L 106.99494934082031,36.284271240234375 L 121.1370849609375,22.142135620117188 L 106.99494934082031,8.0 L 106.99494934082031,8.0 Z" style="fill: rgb(230, 230, 230); stroke-width: 1px; stroke: none;"/>
<path d="M 135.2792205810547,8.0 L 121.1370849609375,22.142135620117188 L 135.2792205810547,36.284271240234375 L 149.42135620117188,22.142135620117188 L 135.2792205810547,8.0 L 135.2792205810547,8.0 Z" style="fill: rgb(230, 230, 230); stroke-width: 1px; stroke: none;"/>
<path d="M 163.56349182128906,8.0 L 149.42135620117188,22.142135620117188 L 163.56349182128906,36.284271240234375 L 177.70562744140625,22.142135620117188 L 163.56349182128906,8.0 L 163.56349182128906,8.0 Z" style="fill: rgb(230, 230, 230); stroke-width: 1px; stroke: none;"/>
<path d="M 191.84776306152344,8.0 L 177.70562744140625,22.142135620117188 L 191.84776306152344,36.284271240234375 L 205.98989868164062,22.142135620117188 L 191.84776306152344,8.0 L 191.84776306152344,8.0 Z" style="fill: rgb(230, 230, 230); stroke-width: 1px; stroke: none;"/>
<path d="M 208.0,20.132034301757812 L 205.98989868164062,22.142135620117188 L 208.0,24.152236938476562 L 208.0,20.132034301757812 L 208.0,20.132034301757812 Z" style="fill: rgb(230, 230, 230); stroke-width: 1px; stroke: none;"/>
<path d="M 22.142135620117188,36.284271240234375 L 8.0,50.42640686035156 L 22.142135620117188,64.56854248046875 L 36.284271240234375,50.42640686035156 L 22.142135620117188,36.284271240234375 L 22.142135620117188,36.284271240234375 Z" style="fill: rgb(230, 230, 230); stroke-width: 1px; stroke: none;"/>
<path d="M 50.42640686035156,36.284271240234375 L 36.284271240234375,50.42640686035156 L 50.42640686035156,64.56854248046875 L 64.56854248046875,50.42640686035156 L 50.42640686035156,36.284271240234375 L 50.42640686035156,36.284271240234375 Z" style="fill: rgb(230, 230, 230); stroke-width: 1px; stroke: none;"/>
<path d="M 78.71067810058594,36.284271240234375 L 64.56854248046875,50.42640686035156 L 78.71067810058594,64.56854248046875 L 92.85281372070312,50.42640686035156 L 78.71067810058594,36.284271240234375 L 78.71067810058594,36.284271240234375 Z" style="fill: rgb(230, 230, 230); stroke-width: 1px; stroke: none;"/>
<path d="M 106.99494934082031,36.284271240234375 L 92.85281372070312,50.42640686035156 L 106.99494934082031,64.56854248046875 L 121.1370849609375,50.42640686035156 L 106.99494934082031,36.284271240234375 L 106.99494934082031,36.284271240234375 Z" style="fill: rgb(230, 230, 230); stroke-width: 1px; stroke: none;"/>
<path d="M 135.2792205810547,36.284271240234375 L 121.1370849609375,50.42640686035156 L 135.2792205810547,64.56854248046875 L 149.42135620117188,50.42640686035156 L 135.2792205810547,36.284271240234375 L 135.2792205810547,36.284271240234375 Z" style="fill: rgb(230, 230, 230); stroke-width: 1px; stroke: none;"/>
<path d="M 163.56349182128906,36.284271240234375 L 149.42135620117188,50.42640686035156 L 163.56349182128906,64.56854248046875 L 177.70562744140625,50.42640686035156 L 163.56349182128906,36.284271240234375 L 163.56349182128906,36.284271240234375 Z" style="fill: rgb(230, 230, 230); stroke-width: 1px; stroke: none;"/>
<path d="M 191.84776306152344,36.284271240234375 L 177.70562744140625,50.42640686035156 L 191.84776306152344,64.56854248046875 L 205.98989868164062,50.42640686035156 L 191.84776306152344,36.284271240234375 L 191.84776306152344,36.284271240234375 Z" style="fill: rgb(230, 230, 230); stroke-width: 1px; stroke: none;"/>
<path d="M 208.0,48.41630554199219 L 205.98989868164062,50.42640686035156 L 208.0,52.43650817871094 L 208.0,48.41630554199219 L 208.0,48.41630554199219 Z" style="fill: rgb(230, 230, 230); stroke-width: 1px; stroke: none;"/>
<path d="M 22.142135620117188,64.56854248046875 L 8.0,78.71067810058594 L 22.142135620117188,92.85281372070312 L 36.284271240234375,78.71067810058594 L 22.142135620117188,64.56854248046875 L 22.142135620117188,64.56854248046875 Z" style="fill: rgb(230, 230, 230); stroke-width: 1px; stroke: none;"/>
<path d="M 50.42640686035156,64.56854248046875 L 36.284271240234375,78.71067810058594 L 50.42640686035156,92.85281372070312 L 64.56854248046875,78.71067810058594 L 50.42640686035156,64.56854248046875 L 50.42640686035156,64.56854248046875 Z" style="fill: rgb(230, 230, 230); stroke-width: 1px; stroke: none;"/>
<path d="M 78.71067810058594,64.56854248046875 L 64.56854248046875,78.71067810058594 L 78.71067810058594,92.85281372070312 L 92.85281372070312,78.71067810058594 L 78.71067810058594,64.56854248046875 L 78.71067810058594,64.56854248046875 Z" style="fill: rgb(230, 230, 230); stroke-width: 1px; stroke: none;"/>
<path d="M 106.99494934082031,64.56854248046875 L 92.85281372070312,78.71067810058594 L 106.99494934082031,92.85281372070312 L 121.1370849609375,78.71067810058594 L 106.99494934082031,64.56854248046875 L 106.99494934082031,64.56854248046875 Z" style="fill: rgb(230, 230, 230); stroke-width: 1px; stroke: none;"/>
<path d="M 135.2792205810547,64.56854248046875 L 121.1370849609375,78.71067810058594 L 135.2792205810547,92.85281372070312 L 149.42135620117188,78.71067810058594 L 135.2792205810547,64.56854248046875 L 135.2792205810547,64.56854248046875 Z" style="fill: rgb(230, 230, 230); stroke-width: 1px; stroke: none;"/>
<path d="M 163.56349182128906,64.56854248046875 L 149.42135620117188,78.71067810058594 L 163.56349182128906,92.85281372070312 L 177.70562744140625,78.71067810058594 L 163.56349182128906,64.56854248046875 L 163.56349182128906,64.56854248046875 Z" style="fill: rgb(230, 230, 230); stroke-width: 1px; stroke: none;"/>
<path d="M 191.84776306152344,64.56854248046875 L 177.70562744140625,78.71067810058594 L 191.84776306152344,92.85281372070312 L 205.98989868164062,78.71067810058594 L 191.84776306152344,64.56854248046875 L 191.84776306152344,64.56854248046875 Z" style="fill: rgb(230, 230, 230); stroke-width: 1px; stroke: none;"/>
<path d="M 208.0,76.70057678222656 L 205.98989868164062,78.71067810058594 L 208.0,80.72077941894531 L 208.0,76.70057678222656 L 208.0,76.70057678222656 Z" style="fill: rgb(230, 230, 230); stroke-width: 1px; stroke: none;"/>
<path d="M 22.142135620117188,92.85281372070312 L 8.0,106.99494934082031 L 22.142135620117188,121.1370849609375 L 36.284271240234375,106.99494934082031 L 22.142135620117188,92.85281372070312 L 22.142135620117188,92.85281372070312 Z" style="fill: rgb(230, 230, 230); stroke-width: 1px; stroke: none;"/>
<path d="M 50.42640686035156,92.85281372070312 L 36.284271240234375,106.99494934082031 L 50.42640686035156,121.1370849609375 L 64.56854248046875,106.99494934082031 L 50.42640686035156,92.85281372070312 L 50.42640686035156,92.85281372070312 Z" style="fill: rgb(230, 230, 230); stroke-width: 1px; stroke: none;"/>
<path d="M 78.71067810058594,92.85281372070312 L 64.56854248046875,106.99494934082031 L 78.71067810058594,121.1370849609375 L 92.85281372070312,106.99494934082031 L 78.71067810058594,92.85281372070312 L 78.71067810058594,92.85281372070312 Z" style="fill: rgb(230, 230, 230); stroke-width: 1px; stroke: none;"/>
<path d="M 106.99494934082031,92.85281372070312 L 92.85281372070312,106.99494934082031 L 106.99494934082031,121.1370849609375 L 121.1370849609375,106.99494934082031 L 106.99494934082031,92.85281372070312 L 106.99494934082031,92.85281372070312 Z" style="fill: rgb(230, 230, 230); stroke-width: 1px; stroke: none;"/>
<path d="M 135.2792205810547,92.85281372070312 L 121.1370849609375,106.99494934082031 L 135.2792205810547,121.1370849609375 L 149.42135620117188,106.99494934082031 L 135.2792205810547,92.85281372070312 L 135.2792205810547,92.85281372070312 Z" style="fill: rgb(230, 230, 230); stroke-width: 1px; stroke: none;"/>
<path d="M 163.56349182128906,92.85281372070312 L 149.42135620117188,106.99494934082031 L 163.56349182128906,121.1370849609375 L 177.70562744140625,106.99494934082031 L 163.56349182128906,92.85281372070312 L 163.56349182128906,92.85281372070312 Z" style="fill: rgb(230, 230, 230); stroke-width: 1px; stroke: none;"/>
<path d="M 191.84776306152344,92.85281372070312 L 177.70562744140625,106.99494934082031 L 191.84776306152344,121.1370849609375 L 205.98989868164062,106.99494934082031 L 191.84776306152344,92.85281372070312 L 191.84776306152344,92.85281372070312 Z" style="fill: rgb(230, 230, 230); stroke-width: 1px; stroke: none;"/>
<path d="M 208.0,104.98484802246094 L 205.98989868164062,106.99494934082031 L 207.9946746826172,108.99972534179688 L 207.9946746826172,108.99972534179688 C 207.99822998046875,108.66648864746094 208.0,108.33324432373047 208.0,108.0 L 208.0,104.98484802246094 L 208.0,104.98484802246094 Z" style="fill: rgb(230, 230, 230); stroke-width: 1px; stroke: none;"/>
<path d="M 22.142135620117188,121.1370849609375 L 11.064249753952026,132.21497344970703 L 11.064249753952026,132.21497344970703 C 11.796658992767334,135.12897491455078 12.65658950805664,138.03173828125 13.639955043792725,140.919189453125 L 13.639966487884521,140.919189453125 L 22.142135620117188,149.42135620117188 L 22.142135620117188,149.42135620117188 L 36.284271240234375,135.2792205810547 L 22.142135620117188,121.1370849609375 L 22.142135620117188,121.1370849609375 Z" style="fill: rgb(230, 230, 230); stroke-width: 1px; stroke: none;"/>
<path d="M 50.42640686035156,121.1370849609375 L 36.284271240234375,135.2792205810547 L 50.42640686035156,149.42135620117188 L 64.56854248046875,135.2792205810547 L 50.42640686035156,121.1370849609375 L 50.42640686035156,121.1370849609375 Z" style="fill: rgb(230, 230, 230); stroke-width: 1px; stroke: none;"/>
<path d="M 78.71067810058594,121.1370849609375 L 64.56854248046875,135.2792205810547 L 78.71067810058594,149.42135620117188 L 92.85281372070312,135.2792205810547 L 78.71067810058594,121.1370849609375 L 78.71067810058594,121.1370849609375 Z" style="fill: rgb(230, 230, 230); stroke-width: 1px; stroke: none;"/>
<path d="M 106.99494934082031,121.1370849609375 L 92.85281372070312,135.2792205810547 L 106.99494934082031,149.42135620117188 L 121.1370849609375,135.2792205810547 L 106.99494934082031,121.1370849609375 L 106.99494934082031,121.1370849609375 Z" style="fill: rgb(230, 230, 230); stroke-width: 1px; stroke: none;"/>
<path d="M 135.2792205810547,121.1370849609375 L 121.1370849609375,135.2792205810547 L 135.2792205810547,149.42135620117188 L 149.42135620117188,135.2792205810547 L 135.2792205810547,121.1370849609375 L 135.2792205810547,121.1370849609375 Z" style="fill: rgb(230, 230, 230); stroke-width: 1px; stroke: none;"/>
<path d="M 163.56349182128906,121.1370849609375 L 149.42135620117188,135.2792205810547 L 163.56349182128906,149.42135620117188 L 177.70562744140625,135.2792205810547 L 163.56349182128906,121.1370849609375 L 163.56349182128906,121.1370849609375 Z" style="fill: rgb(230, 230, 230); stroke-width: 1px; stroke: none;"/>
<path d="M 191.84776306152344,121.1370849609375 L 177.70562744140625,135.2792205810547 L 191.84776306152344,149.42135620117188 L 203.3290252685547,137.94009399414062 L 203.3290252685547,137.94009399414062 C 203.75474548339844,136.5666961669922 204.15240478515625,135.19014739990234 204.52159118652344,133.8109130859375 L 204.52159118652344,133.8109130859375 L 191.84776306152344,121.1370849609375 L 191.84776306152344,121.1370849609375 Z" style="fill: rgb(230, 230, 230); stroke-width: 1px; stroke: none;"/>
<path d="M 22.142135620117188,149.42135620117188 L 18.52718734741211,153.0363006591797 L 18.52718734741211,153.0363006591797 C 21.391855239868164,159.1748809814453 24.80780029296875,165.21466064453125 28.73358154296875,171.1141815185547 L 28.73358154296875,171.1141815185547 L 36.284271240234375,163.56349182128906 L 22.142135620117188,149.42135620117188 L 22.142135620117188,149.42135620117188 Z" style="fill: rgb(230, 230, 230); stroke-width: 1px; stroke: none;"/>
<path d="M 50.42640686035156,149.42135620117188 L 36.284271240234375,163.56349182128906 L 50.42640686035156,177.70562744140625 L 64.56854248046875,163.56349182128906 L 50.42640686035156,149.42135620117188 L 50.42640686035156,149.42135620117188 Z" style="fill: rgb(230, 230, 230); stroke-width: 1px; stroke: none;"/>
<path d="M 78.71067810058594,149.42135620117188 L 64.56854248046875,163.56349182128906 L 78.71067810058594,177.70562744140625 L 92.85281372070312,163.56349182128906 L 78.71067810058594,149.42135620117188 L 78.71067810058594,149.42135620117188 Z" style="fill: rgb(230, 230, 230); stroke-width: 1px; stroke: none;"/>
<path d="M 106.99494934082031,149.42135620117188 L 92.85281372070312,163.56349182128906 L 106.99494934082031,177.70562744140625 L 121.1370849609375,163.56349182128906 L 106.99494934082031,149.42135620117188 L 106.99494934082031,149.42135620117188 Z" style="fill: rgb(230, 230, 230); stroke-width: 1px; stroke: none;"/>
<path d="M 135.2792205810547,149.42135620117188 L 121.1370849609375,163.56349182128906 L 135.2792205810547,177.70562744140625 L 149.42135620117188,163.56349182128906 L 135.2792205810547,149.42135620117188 L 135.2792205810547,149.42135620117188 Z" style="fill: rgb(230, 230, 230); stroke-width: 1px; stroke: none;"/>
<path d="M 163.56349182128906,149.42135620117188 L 149.42135620117188,163.56349182128906 L 163.56349182128906,177.70562744140625 L 177.70562744140625,163.56349182128906 L 163.56349182128906,149.42135620117188 L 163.56349182128906,149.42135620117188 Z" style="fill: rgb(230, 230, 230); stroke-width: 1px; stroke: none;"/>
<path d="M 191.84776306152344,149.42135620117188 L 177.70562744140625,163.56349182128906 L 186.45823669433594,172.31610107421875 L 186.45823669433594,172.31610107421875 C 190.42872619628906,166.47186279296875 193.89837646484375,160.48631286621094 196.82652282714844,154.40011596679688 L 196.82652282714844,154.40011596679688 L 191.84776306152344,149.42135620117188 L 191.84776306152344,149.42135620117188 Z" style="fill: rgb(230, 230, 230); stroke-width: 1px; stroke: none;"/>
<path d="M 50.42640686035156,177.70562744140625 L 40.96649169921875,187.16554260253906 L 40.96649169921875,187.16554260253906 C 45.23805236816406,192.11297607421875 49.87709426879883,196.92105102539062 54.8550910949707,201.56121826171875 L 54.8550910949707,201.56121826171875 L 64.56854248046875,191.84776306152344 L 50.42640686035156,177.70562744140625 L 50.42640686035156,177.70562744140625 Z" style="fill: rgb(230, 230, 230); stroke-width: 1px; stroke: none;"/>
<path d="M 78.71067810058594,177.70562744140625 L 64.56854248046875,191.84776306152344 L 78.71067810058594,205.98989868164062 L 92.85281372070312,191.84776306152344 L 78.71067810058594,177.70562744140625 L 78.71067810058594,177.70562744140625 Z" style="fill: rgb(230, 230, 230); stroke-width: 1px; stroke: none;"/>
<path d="M 106.99494934082031,177.70562744140625 L 92.85281372070312,191.84776306152344 L 106.99494934082031,205.98989868164062 L 121.1370849609375,191.84776306152344 L 106.99494934082031,177.70562744140625 L 106.99494934082031,177.70562744140625 Z" style="fill: rgb(230, 230, 230); stroke-width: 1px; stroke: none;"/>
<path d="M 135.2792205810547,177.70562744140625 L 121.1370849609375,191.84776306152344 L 135.2792205810547,205.98989868164062 L 149.42135620117188,191.84776306152344 L 135.2792205810547,177.70562744140625 L 135.2792205810547,177.70562744140625 Z" style="fill: rgb(230, 230, 230); stroke-width: 1px; stroke: none;"/>
<path d="M 163.56349182128906,177.70562744140625 L 149.42135620117188,191.84776306152344 L 160.10092163085938,202.52732849121094 L 160.10092163085938,202.52732849121094 C 165.1110076904297,197.92437744140625 169.7861328125,193.15255737304688 174.09800720214844,188.24014282226562 L 174.09800720214844,188.24014282226562 L 163.56349182128906,177.70562744140625 L 163.56349182128906,177.70562744140625 Z" style="fill: rgb(230, 230, 230); stroke-width: 1px; stroke: none;"/>
<path d="M 78.71067810058594,205.98989868164062 L 70.19508743286133,214.5054931640625 L 70.19508743286133,214.5054931640625 C 75.48682403564453,218.55450439453125 81.05603790283203,222.4293670654297 86.87875366210938,226.10609436035156 L 86.87875366210938,226.10609436035156 L 92.85281372070312,220.1320343017578 L 78.71067810058594,205.98989868164062 L 78.71067810058594,205.98989868164062 Z" style="fill: rgb(230, 230, 230); stroke-width: 1px; stroke: none;"/>
<path d="M 106.99494934082031,205.98989868164062 L 92.85281372070312,220.1320343017578 L 106.99494934082031,234.274169921875 L 121.1370849609375,220.1320343017578 L 106.99494934082031,205.98989868164062 L 106.99494934082031,205.98989868164062 Z" style="fill: rgb(230, 230, 230); stroke-width: 1px; stroke: none;"/>
<path d="M 135.2792205810547,205.98989868164062 L 121.1370849609375,220.1320343017578 L 127.88587188720703,226.8808135986328 L 127.88587188720703,226.8808135986328 C 133.7373504638672,223.23643493652344 139.33761596679688,219.39266967773438 144.6627655029297,215.37344360351562 L 144.6627655029297,215.37344360351562 L 135.2792205810547,205.98989868164062 L 135.2792205810547,205.98989868164062 Z" style="fill: rgb(230, 230, 230); stroke-width: 1px; stroke: none;"/>
<path d="M 106.99494934082031,234.274169921875 L 104.86446380615234,236.40464782714844 L 104.86446380615234,236.40464782714844 C 105.90343475341797,236.9425048828125 106.94864654541016,237.4743194580078 108.0,238.0 C 108.60462951660156,237.69769287109375 109.20722198486328,237.39334106445312 109.80776977539062,237.0869903564453 L 109.80776977539062,237.0869903564453 L 106.99494934082031,234.274169921875 L 106.99494934082031,234.274169921875 Z" style="fill: rgb(230, 230, 230); stroke-width: 1px; stroke: none;"/>
<path d="M 8.0,8.0 L 8.0,29.21320343017578 L 86.78679656982422,108.0 L 26.74393081665039,168.04286193847656 L 26.74393081665039,168.04286193847656 C 31.953516006469727,176.3079833984375 38.161781311035156,184.31600952148438 45.25748062133789,191.95571899414062 L 45.25748062133789,191.95571899414062 L 108.0,129.21320343017578 L 170.74252319335938,191.95571899414062 L 170.74252319335938,191.95571899414062 C 177.8382110595703,184.31600952148438 184.04647827148438,176.3079833984375 189.25607299804688,168.04286193847656 L 189.25607299804688,168.04286193847656 L 129.21320343017578,108.0 L 208.0,29.21320343017578 L 208.0,8.0 L 186.7867889404297,8.0 L 108.0,86.78679656982422 L 29.21320343017578,8.0 L 8.0,8.0 Z" style="fill: rgb(217, 38, 38); stroke-width: 1px; stroke: none;"/>
<path d="M 8.0,8.0 L 208.0,8.0 L 208.0,108.0 C 208.0,158.0 168.0,208.0 108.0,238.0 C 48.0,208.0 8.0,158.0 8.0,108.0 L 8.0,8.0 Z" style="fill: none; stroke-width: 1px; stroke: rgb(0, 0, 0);"/>
</g>
<rect clip-path="url(#contour)" fill="url(#lighting)" height="246.0" width="216.0" x="0.0" y="0.0"/>
</svg>
