<?xml version="1.0" encoding="UTF-8" standalone="no"?>
<svg xmlns="http://www.w3.org/2000/svg" height="246.0" width="216.0">
<defs>
<clipPath id="contour">
<path d="M 8.0,8.0 L 208.0,8.0 L 208.0,108.0 C 208.0,158.0 168.0,208.0 108.0,238.0 C 48.0,208.0 8.0,158.0 8.0,108.0 L 8.0,8.0 Z"/>
</clipPath>
<radialGradient id="lighting">
<stop offset="25%" stop-color="white" stop-opacity="35%"/>
<stop offset="100%" stop-color="white" stop-opacity="0%"/>
</radialGradient>
</defs>
<g>
<path d="M 8.0,8.0 L 8.0,108.0 L 108.0,108.0 L 108.0,8.0 L 8.0,8.0 Z" style="fill: rgb(230, 230, 230); stroke-width: 1px; stroke: none;"/>
<path d="M 87.52538299560547,8.0 C 88.33970642089844,8.23528216779232 89.2184829711914,8.663920879364014 90.32232666015625,9.767766952514648 C 93.89771270751953,13.343150615692139 88.79545593261719,19.811080932617188 84.37604522705078,19.811080932617188 C 83.33275604248047,19.811080932617188 82.32752990722656,19.450634956359863 81.4834976196289,18.60660171508789 C 78.38990020751953,15.513009548187256 80.599609375,14.18718433380127 77.50601959228516,11.093592166900635 C 76.60285949707031,10.190429925918579 75.49461364746094,9.799968481063843 74.30352783203125,9.799968481063843 C 68.50066375732422,9.799968481063843 60.73151397705078,19.067822456359863 65.13165283203125,23.467961311340332 C 68.2252426147461,26.561553955078125 69.55106735229492,24.351844787597656 72.64466094970703,27.445436477661133 C 76.22004699707031,31.02082061767578 71.11779022216797,37.48875045776367 66.69837188720703,37.48875045776367 C 65.65509033203125,37.48875045776367 64.64986038208008,37.128305435180664 63.805824279785156,36.284271240234375 C 60.71223449707031,33.1906795501709 62.92194366455078,31.86485481262207 59.82835006713867,28.77126121520996 C 58.92518997192383,27.868099212646484 57.81694412231445,27.477638244628906 56.62586212158203,27.477638244628906 C 50.822994232177734,27.477638244628906 43.0538444519043,36.74549102783203 47.453983306884766,41.1456298828125 C 50.54757308959961,44.23922348022461 51.87339782714844,42.02951431274414 54.96699142456055,45.12310791015625 C 58.54237365722656,48.698490142822266 53.440120697021484,55.166419982910156 49.02070236206055,55.166419982910156 C 47.977420806884766,55.166419982910156 46.972190856933594,54.805973052978516 46.12815475463867,53.96194076538086 C 43.03456497192383,50.86834716796875 45.2442741394043,49.54252243041992 42.15068054199219,46.44893264770508 C 41.247520446777344,45.54576873779297 40.13927459716797,45.15530776977539 38.94819259643555,45.15530776977539 C 33.14532279968262,45.15530776977539 25.37617301940918,54.423160552978516 29.77631187438965,58.823299407958984 C 32.869903564453125,61.916893005371094 34.195730209350586,59.707183837890625 37.28932189941406,62.800777435302734 C 40.86470413208008,66.37615966796875 35.762451171875,72.84408569335938 31.343032836914062,72.84408569335938 C 30.29975128173828,72.84408569335938 29.29452133178711,72.483642578125 28.45048713684082,71.63961029052734 C 25.356895446777344,68.54601669311523 27.56660270690918,67.2201919555664 24.473011016845703,64.12660217285156 C 23.569849014282227,63.22343826293945 22.4616060256958,62.832977294921875 21.270523071289062,62.832977294921875 C 15.46765422821045,62.832977294921875 7.698504269123077,72.100830078125 12.098642826080322,76.50096893310547 C 15.192234992980957,79.59455871582031 16.518059730529785,77.38484954833984 19.611652374267578,80.47844696044922 C 23.187036514282227,84.05382537841797 18.084781646728516,90.52175903320312 13.665363788604736,90.52175903320312 C 12.62208080291748,90.52175903320312 11.616851091384888,90.16131591796875 10.772817611694336,89.3172836303711 C 8.227848455309868,86.77230834960938 9.271976232528687,85.4237060546875 8.000000529812326,83.30307006835938 L 8.0,83.30307006835938 L 8.0,108.0 L 28.47461700439453,108.0 C 27.66029167175293,107.76471710205078 26.78151512145996,107.3360824584961 25.677669525146484,106.23223114013672 C 22.102285385131836,102.65685272216797 27.204540252685547,96.18891906738281 31.623958587646484,96.18891906738281 C 32.667240142822266,96.18891906738281 33.67247009277344,96.54936218261719 34.51650428771973,97.39339447021484 C 37.6100959777832,100.48699188232422 35.40038871765137,101.81281280517578 38.493980407714844,104.90641021728516 C 39.39714241027832,105.8095703125 40.50538635253906,106.20003509521484 41.696468353271484,106.20003509521484 C 47.49933624267578,106.20003509521484 55.26848602294922,96.93217468261719 50.86834716796875,92.53203582763672 C 47.774757385253906,89.43844604492188 46.44893264770508,91.64815521240234 43.35533905029297,88.5545654296875 C 39.77995491027832,84.97917938232422 44.88220977783203,78.5112533569336 49.30162811279297,78.5112533569336 C 50.34490966796875,78.5112533569336 51.35013961791992,78.87169647216797 52.194175720214844,79.71572875976562 C 55.28776550292969,82.80931854248047 53.07805633544922,84.13514709472656 56.17164993286133,87.2287368774414 C 57.07481002807617,88.13189697265625 58.18305587768555,88.5223617553711 59.37413787841797,88.5223617553711 C 65.17700576782227,88.5223617553711 72.94615936279297,79.25450897216797 68.54601669311523,74.8543701171875 C 65.45242691040039,71.76077651977539 64.12660217285156,73.97048950195312 61.03300857543945,70.87689208984375 C 57.45762634277344,67.30150985717773 62.559879302978516,60.833580017089844 66.97929763793945,60.833580017089844 C 68.02257919311523,60.833580017089844 69.0278091430664,61.194026947021484 69.87184524536133,62.03805923461914 C 72.96543884277344,65.13165283203125 70.7557258605957,66.45747756958008 73.84931945800781,69.55106735229492 C 74.75247955322266,70.45423126220703 75.86072540283203,70.84469223022461 77.05181121826172,70.84469223022461 C 82.85467529296875,70.84469223022461 90.62382507324219,61.576839447021484 86.22368621826172,57.176700592041016 C 83.13009643554688,54.083106994628906 81.80426788330078,56.292816162109375 78.71067810058594,53.199222564697266 C 75.13529205322266,49.62384033203125 80.237548828125,43.15591049194336 84.65696716308594,43.15591049194336 C 85.70024871826172,43.15591049194336 86.70548248291016,43.516357421875 87.54951477050781,44.360389709472656 C 90.64310455322266,47.453983306884766 88.43339538574219,48.779808044433594 91.52698516845703,51.87339782714844 C 92.4301528930664,52.77656173706055 93.53839111328125,53.167022705078125 94.72947692871094,53.167022705078125 C 100.5323486328125,53.167022705078125 108.30149841308594,43.899169921875 103.90135955810547,39.49903106689453 C 100.8077621459961,36.40543746948242 99.48194122314453,38.61514663696289 96.38835144042969,35.521554946899414 C 92.8129653930664,31.946170806884766 97.91522216796875,25.478240966796875 102.33463287353516,25.478240966796875 C 103.37792205810547,25.478240966796875 104.38314819335938,25.838685989379883 105.22718048095703,26.682720184326172 C 107.77214813232422,29.227689743041992 106.72801971435547,30.5762939453125 108.0,32.69693183898926 L 108.0,32.69693183898926 L 108.0,8.0 L 87.52538299560547,8.0 Z" style="fill: rgb(38, 38, 217); stroke-width: 1px; stroke: none;"/>
<path d="M 108.0,8.0 L 108.0,108.0 L 208.0,108.0 L 208.0,8.0 L 108.0,8.0 Z" style="fill: rgb(38, 38, 38); stroke-width: 1px; stroke: none;"/>
<path d="M 184.6654815673828,8.0 Q 181.48348999023438,10.121320247650146 181.48348999023438,15.424621105194092 Q 172.6446533203125,15.424621105194092 172.6446533203125,24.263456344604492 Q 163.8058319091797,24.263456344604492 163.8058319091797,33.102291107177734 Q 154.9669952392578,33.102291107177734 154.9669952392578,41.941123962402344 Q 146.12815856933594,41.941123962402344 146.12815856933594,50.77996063232422 Q 137.28932189941406,50.77996063232422 137.28932189941406,59.61879348754883 Q 128.4504852294922,59.61879348754883 128.4504852294922,68.4576301574707 Q 119.61164855957031,68.4576301574707 119.61164855957031,77.29646301269531 Q 110.77281951904297,77.29646301269531 110.77281951904297,86.13529968261719 Q 109.25630950927734,86.13529968261719 107.99999237060547,86.39549255371094 L 108.0,86.39549255371094 L 108.0,108.0 L 131.33452606201172,108.0 Q 134.5165023803711,105.87867736816406 134.5165023803711,100.57537841796875 Q 143.3553466796875,100.57537841796875 143.3553466796875,91.73654174804688 Q 152.1941680908203,91.73654174804688 152.1941680908203,82.89771270751953 Q 161.0330047607422,82.89771270751953 161.0330047607422,74.05887603759766 Q 169.87184143066406,74.05887603759766 169.87184143066406,65.22003936767578 Q 178.71067810058594,65.22003936767578 178.71067810058594,56.38120651245117 Q 187.5495147705078,56.38120651245117 187.5495147705078,47.5423698425293 Q 196.3883514404297,47.5423698425293 196.3883514404297,38.703535079956055 Q 205.22718811035156,38.703535079956055 205.22718811035156,29.864700317382812 Q 206.74368286132812,29.864700317382812 208.0,29.604509353637695 L 208.0,29.604509353637695 L 208.0,8.0 L 184.6654815673828,8.0 Z" style="fill: rgb(217, 217, 38); stroke-width: 1px; stroke: none;"/>
<path d="M 108.0,108.0 L 108.0,238.0 C 168.0,208.0 208.0,158.0 208.0,108.0 L 108.0,108.0 Z" style="fill: rgb(230, 230, 230); stroke-width: 1px; stroke: none;"/>
<path d="M 182.67752075195312,108.0 Q 181.48348999023438,110.05463409423828 181.48348999023438,113.30329895019531 Q 181.48348999023438,122.14213562011719 172.6446533203125,122.14213562011719 Q 163.8058319091797,122.14213562011719 163.8058319091797,130.98097229003906 Q 163.8058319091797,139.81980895996094 154.9669952392578,139.81980895996094 L 154.9669952392578,139.81980895996094 Q 146.12815856933594,139.81980895996094 146.12815856933594,148.6586456298828 Q 146.12815856933594,157.4974822998047 137.28932189941406,157.4974822998047 Q 128.4504852294922,157.4974822998047 128.4504852294922,166.3363037109375 Q 128.4504852294922,175.17514038085938 119.61164855957031,175.17514038085938 L 119.61164855957031,175.17514038085938 Q 110.77281951904297,175.17514038085938 110.77281951904297,184.01397705078125 Q 110.77281951904297,188.96458435058594 108.0,191.14236450195312 L 108.0,191.14236450195312 L 108.0,225.0824432373047 L 108.0,225.0824432373047 Q 110.06538391113281,223.8578643798828 113.35533905029297,223.8578643798828 Q 122.19417572021484,223.8578643798828 122.19417572021484,215.01902770996094 Q 122.19417572021484,206.18019104003906 131.03301239013672,206.18019104003906 L 131.03301239013672,206.18019104003906 Q 139.87184143066406,206.18019104003906 139.87184143066406,197.3413543701172 Q 139.87184143066406,188.5025177001953 148.71067810058594,188.5025177001953 Q 157.5495147705078,188.5025177001953 157.5495147705078,179.6636962890625 Q 157.5495147705078,170.82485961914062 166.3883514404297,170.82485961914062 Q 175.22718811035156,170.82485961914062 175.22718811035156,161.98602294921875 Q 175.22718811035156,153.14718627929688 184.06602478027344,153.14718627929688 Q 192.90484619140625,153.14718627929688 192.90484619140625,144.308349609375 Q 192.90484619140625,135.46951293945312 201.74368286132812,135.46951293945312 L 201.74368286132812,135.46951293945312 Q 203.02232360839844,135.46951293945312 204.11599731445312,135.2845458984375 L 204.11602783203125,135.2845458984375 C 206.6646728515625,126.27102661132812 208.0,117.13551330566406 208.0,108.0 L 182.67752075195312,108.0 Z" style="fill: rgb(38, 217, 38); stroke-width: 1px; stroke: none;"/>
<path d="M 8.0,108.0 C 8.0,158.0 48.0,208.0 108.0,238.0 L 108.0,108.0 L 8.0,108.0 Z" style="fill: rgb(38, 38, 38); stroke-width: 1px; stroke: none;"/>
<path d="M 81.4834976196289,108.0 L 81.4834976196289,113.30329895019531 L 81.4834976196289,122.14213562011719 L 72.64466094970703,122.14213562011719 L 63.805824279785156,122.14213562011719 L 63.805824279785156,130.98097229003906 L 63.805824279785156,139.81980895996094 L 54.96699142456055,139.81980895996094 L 46.12815475463867,139.81980895996094 L 46.12815475463867,148.6586456298828 L 46.12815475463867,157.4974822998047 L 28.45048713684082,157.4974822998047 L 28.45048713684082,166.3363037109375 L 28.45048713684082,170.6871795654297 L 28.45048713684082,170.6871795654297 C 32.481163024902344,176.7895050048828 37.05715560913086,182.74319458007812 42.13276290893555,188.5025177001953 L 57.54951477050781,188.5025177001953 L 57.54951477050781,179.6636962890625 L 57.54951477050781,170.82485961914062 L 75.22718048095703,170.82485961914062 L 75.22718048095703,161.98602294921875 L 75.22718048095703,153.14718627929688 L 92.90485382080078,153.14718627929688 L 92.90485382080078,144.308349609375 L 92.90485382080078,135.46951293945312 L 108.0,135.46951293945312 L 108.0,108.0 L 81.4834976196289,108.0 Z" style="fill: rgb(217, 38, 38); stroke-width: 1px; stroke: none;"/>
<path d="M 8.0,8.0 L 208.0,8.0 L 208.0,108.0 C 208.0,158.0 168.0,208.0 108.0,238.0 C 48.0,208.0 8.0,158.0 8.0,108.0 L 8.0,8.0 Z" style="fill: none; stroke-width: 1px; stroke: rgb(0, 0, 0);"/>
</g>
<rect clip-path="url(#contour)" fill="url(#lighting)" height="246.0" width="216.0" x="0.0" y="0.0"/>
</svg>
