<?xml version="1.0" encoding="UTF-8" standalone="no"?>
<svg xmlns="http://www.w3.org/2000/svg" height="246.0" width="216.0">
<defs>
<clipPath id="contour">
<path d="M 0.0,0.0 L 200.0,0.0 L 200.0,100.0 C 200.0,150.0 160.0,200.0 100.0,230.0 C 40.0,200.0 0.0,150.0 0.0,100.0 L 0.0,0.0 Z"/>
</clipPath>
<radialGradient id="lighting">
<stop offset="25%" stop-color="white" stop-opacity="35%"/>
<stop offset="100%" stop-color="white" stop-opacity="0%"/>
</radialGradient>
</defs>
<g transform="translate(8.0,8.0)">
<path clip-path="url(#contour)" comment="FieldBackground" d="M 0.0,0.0 L 200.0,0.0 L 200.0,100.0 C 200.0,150.0 160.0,200.0 100.0,230.0 C 40.0,200.0 0.0,150.0 0.0,100.0 L 0.0,0.0 Z" style="fill: rgb(230, 230, 230); stroke-width: 1px; stroke: none;"/>
<path clip-path="url(#contour)" comment="clipped Chevron FieldBackground" d="M 100.0,2.1201298236846924 L 0.023393599316477776,102.09674072265625 C 0.2873551845550537,113.93922424316406 2.7798919677734375,125.76602172851562 7.2352070808410645,137.3113250732422 L 100.0,44.54653549194336 L 192.76478576660156,137.3113250732422 C 197.22010803222656,125.76602172851562 199.712646484375,113.93922424316406 199.9766082763672,102.09674072265625 L 100.0,2.1201298236846924 Z" style="fill: rgb(179, 38, 26); stroke-width: 1px; stroke: none;"/>
<path clip-path="url(#contour)" comment="clipped Chevron FieldBackground" d="M 100.0,78.78679656982422 L 18.743928909301758,160.04286193847656 C 23.953514099121094,168.3079833984375 30.161781311035156,176.31600952148438 37.25748062133789,183.9557342529297 L 100.0,121.21320343017578 L 162.74252319335938,183.9557342529297 C 169.8382110595703,176.31600952148438 176.04647827148438,168.3079833984375 181.25607299804688,160.04286193847656 L 100.0,78.78679656982422 Z" style="fill: rgb(179, 38, 26); stroke-width: 1px; stroke: none;"/>
<path clip-path="url(#contour)" comment="clipped Chevron FieldBackground" d="M 100.0,155.45346069335938 L 54.83842849731445,200.6150360107422 C 62.4063835144043,206.95750427246094 70.6302719116211,212.93048095703125 79.42800903320312,218.4518585205078 L 100.0,197.87986755371094 L 120.57199096679688,218.4518585205078 C 129.36972045898438,212.93048095703125 137.59361267089844,206.95750427246094 145.1615753173828,200.6150360107422 L 100.0,155.45346069335938 Z" style="fill: rgb(179, 38, 26); stroke-width: 1px; stroke: none;"/>
<path clip-path="url(#contour)" comment="outer shield shape border" d="M 0.0,0.0 L 200.0,0.0 L 200.0,100.0 C 200.0,150.0 160.0,200.0 100.0,230.0 C 40.0,200.0 0.0,150.0 0.0,100.0 L 0.0,0.0 Z" style="fill: none; stroke-width: 1px; stroke: rgb(0, 0, 0);"/>
</g>
</svg>
