<?xml version="1.0" encoding="UTF-8" standalone="no"?>
<svg xmlns="http://www.w3.org/2000/svg" height="246.0" width="216.0">
<defs>
<clipPath id="contour">
<path d="M 8.0,8.0 L 208.0,8.0 L 208.0,108.0 C 208.0,158.0 168.0,208.0 108.0,238.0 C 48.0,208.0 8.0,158.0 8.0,108.0 L 8.0,8.0 Z"/>
</clipPath>
<radialGradient id="lighting">
<stop offset="25%" stop-color="white" stop-opacity="35%"/>
<stop offset="100%" stop-color="white" stop-opacity="0%"/>
</radialGradient>
</defs>
<g transform="translate(8.0,8.0)">
<path d="M 0.0,0.0 L 0.0,28.75 L 100.0,28.75 L 100.0,0.0 L 0.0,0.0 Z" style="fill: rgb(13, 38, 217); stroke-width: 1px; stroke: none;"/>
<path d="M 0.0,28.75 L 0.0,57.5 L 100.0,57.5 L 100.0,28.75 L 0.0,28.75 Z" style="fill: rgb(38, 217, 38); stroke-width: 1px; stroke: none;"/>
<path d="M 0.0,57.5 L 0.0,86.25 L 100.0,86.25 L 100.0,57.5 L 0.0,57.5 Z" style="fill: rgb(13, 38, 217); stroke-width: 1px; stroke: none;"/>
<path d="M 0.0,86.25 L 0.0,100.0 L 100.0,100.0 L 100.0,86.25 L 0.0,86.25 Z" style="fill: rgb(38, 217, 38); stroke-width: 1px; stroke: none;"/>
<path d="M 100.0,0.0 L 100.0,100.0 L 128.75,100.0 L 128.75,0.0 L 100.0,0.0 Z" style="fill: rgb(230, 230, 230); stroke-width: 1px; stroke: none;"/>
<path d="M 128.75,0.0 L 128.75,100.0 L 157.5,100.0 L 157.5,0.0 L 128.75,0.0 Z" style="fill: rgb(166, 64, 166); stroke-width: 1px; stroke: none;"/>
<path d="M 157.5,0.0 L 157.5,100.0 L 186.25,100.0 L 186.25,0.0 L 157.5,0.0 Z" style="fill: rgb(230, 230, 230); stroke-width: 1px; stroke: none;"/>
<path d="M 186.25,0.0 L 186.25,100.0 L 200.0,100.0 L 200.0,0.0 L 186.25,0.0 Z" style="fill: rgb(166, 64, 166); stroke-width: 1px; stroke: none;"/>
<path d="M 100.0,100.0 L 100.0,230.0 C 160.0,200.0 200.0,150.0 200.0,100.0 L 100.0,100.0 Z" style="fill: rgb(217, 217, 38); stroke-width: 1px; stroke: none;"/>
<path d="M 196.9669952392578,100.0 L 199.95260620117188,102.9856185913086 L 199.95260620117188,102.9856185913086 C 199.98414611816406,101.99051666259766 200.0,100.9952621459961 200.0,100.0 L 196.9669952392578,100.0 Z" style="fill: rgb(38, 217, 38); stroke-width: 1px; stroke: none;"/>
<path d="M 100.0,100.0 L 100.0,103.03301239013672 L 103.03301239013672,100.0 L 196.9669952392578,100.0 Z" style="fill: rgb(38, 217, 38); stroke-width: 1px; stroke: none;"/>
<path d="M 154.54058837890625,100.0 L 192.5089874267578,137.96841430664062 L 192.5089874267578,137.96841430664062 C 194.609130859375,132.62059020996094 196.2884521484375,127.21116638183594 197.5204315185547,121.76664733886719 L 197.5204315185547,121.76664733886719 L 175.7537841796875,100.0 L 154.54058837890625,100.0 Z" style="fill: rgb(38, 217, 38); stroke-width: 1px; stroke: none;"/>
<path d="M 124.2462158203125,100.0 L 100.0,124.2462158203125 L 100.0,145.45941162109375 L 145.45941162109375,100.0 L 154.54058837890625,100.0 Z" style="fill: rgb(38, 217, 38); stroke-width: 1px; stroke: none;"/>
<path d="M 150.0,116.67262268066406 L 100.0,166.67262268066406 L 100.0,187.8858184814453 L 150.0,137.8858184814453 L 177.6328125,165.5186309814453 L 177.6328125,165.5186309814453 C 180.61163330078125,161.22300720214844 183.31956481933594,156.8489990234375 185.7403106689453,152.41293334960938 L 185.7403106689453,152.41293334960938 L 150.0,116.67262268066406 L 150.0,116.67262268066406 Z" style="fill: rgb(38, 217, 38); stroke-width: 1px; stroke: none;"/>
<path d="M 150.0,159.09902954101562 L 100.0,209.09902954101562 L 100.0,230.0 C 100.20912170410156,229.8954315185547 100.41800689697266,229.79063415527344 100.62664794921875,229.68557739257812 L 100.62664794921875,229.68557739257812 L 150.0,180.31222534179688 L 158.28109741210938,188.5933380126953 L 158.28109741210938,188.5933380126953 C 161.8682403564453,184.99143981933594 165.25511169433594,181.29898071289062 168.42933654785156,177.52835083007812 L 168.42933654785156,177.52835083007812 L 150.0,159.09902954101562 L 150.0,159.09902954101562 Z" style="fill: rgb(38, 217, 38); stroke-width: 1px; stroke: none;"/>
<path d="M 0.0,100.0 C 0.0,150.0 40.0,200.0 100.0,230.0 L 100.0,100.0 L 0.0,100.0 Z" style="fill: rgb(38, 38, 38); stroke-width: 1px; stroke: none;"/>
<path d="M 39.39339828491211,100.0 L 50.0,110.60660552978516 L 60.60660171508789,100.0 L 39.39339828491211,100.0 Z" style="fill: rgb(217, 38, 38); stroke-width: 1px; stroke: none;"/>
<path d="M 0.0,100.0 C 0.0,101.02791595458984 0.01690572127699852,102.05583190917969 0.05054338648915291,103.08357238769531 L 0.05056019872426987,103.08357238769531 L 50.0,153.0330047607422 L 100.0,103.03301239013672 L 100.0,100.0 L 81.81980895996094,100.0 L 50.0,131.81980895996094 L 18.180194854736328,100.0 L 0.0,100.0 Z" style="fill: rgb(217, 38, 38); stroke-width: 1px; stroke: none;"/>
<path d="M 100.0,124.2462158203125 L 50.0,174.2462158203125 L 4.227461338043213,128.4736785888672 L 4.227451801300049,128.4736785888672 C 8.959724426269531,144.5186309814453 17.529071807861328,160.1590576171875 29.2448787689209,174.7042999267578 L 29.244890213012695,174.7042999267578 L 50.0,195.45941162109375 L 100.0,145.45941162109375 L 100.0,124.2462158203125 L 100.0,124.2462158203125 Z" style="fill: rgb(217, 38, 38); stroke-width: 1px; stroke: none;"/>
<path d="M 100.0,166.67262268066406 L 61.04964828491211,205.6229705810547 L 61.04964828491211,205.6229705810547 C 65.00130462646484,208.688720703125 69.11106872558594,211.65682983398438 73.36872100830078,214.51710510253906 L 73.36872100830078,214.51710510253906 L 100.0,187.8858184814453 L 100.0,166.67262268066406 L 100.0,166.67262268066406 Z" style="fill: rgb(217, 38, 38); stroke-width: 1px; stroke: none;"/>
<path d="M 100.0,209.09902954101562 L 86.42310333251953,222.67591857910156 L 86.42310333251953,222.67591857910156 C 90.82247161865234,225.23114013671875 95.35120391845703,227.67559814453125 100.0,230.0 L 100.0,209.09902954101562 L 100.0,209.09902954101562 Z" style="fill: rgb(217, 38, 38); stroke-width: 1px; stroke: none;"/>
<path d="M 0.0,0.0 L 200.0,0.0 L 200.0,100.0 C 200.0,150.0 160.0,200.0 100.0,230.0 C 40.0,200.0 0.0,150.0 0.0,100.0 L 0.0,0.0 Z" style="fill: none; stroke-width: 1px; stroke: rgb(0, 0, 0);"/>
</g>
<rect clip-path="url(#contour)" fill="url(#lighting)" height="246.0" width="216.0" x="0.0" y="0.0"/>
</svg>
