<?xml version="1.0" encoding="UTF-8" standalone="no"?>
<svg xmlns="http://www.w3.org/2000/svg" height="246.0" width="216.0">
<defs>
<clipPath id="contour">
<path d="M 8.0,8.0 L 208.0,8.0 L 208.0,108.0 C 208.0,158.0 168.0,208.0 108.0,238.0 C 48.0,208.0 8.0,158.0 8.0,108.0 L 8.0,8.0 Z"/>
</clipPath>
<radialGradient id="lighting">
<stop offset="25%" stop-color="white" stop-opacity="35%"/>
<stop offset="100%" stop-color="white" stop-opacity="0%"/>
</radialGradient>
</defs>
<g>
<path d="M 8.0,8.0 L 208.0,8.0 L 208.0,108.0 C 208.0,158.0 168.0,208.0 108.0,238.0 C 48.0,208.0 8.0,158.0 8.0,108.0 L 8.0,8.0 Z" style="fill: rgb(217, 38, 38); stroke-width: 1px; stroke: none;"/>
<path d="M 92.96974182128906,121.62986755371094 L 92.96974182128906,121.62986755371094 C 92.9697494506836,121.62987518310547 92.9697494506836,121.6298828125 92.96975708007812,121.62989044189453 L 92.96976470947266,121.62989044189453 C 92.96975708007812,121.6298828125 92.9697494506836,121.62987518310547 92.96974182128906,121.62986755371094 L 92.96974182128906,121.62986755371094 Z" style="fill: rgb(166, 64, 166); stroke-width: 1px; stroke: none;"/>
<path d="M 96.02227783203125,52.00067138671875 C 94.15989685058594,53.882205963134766 92.44051361083984,55.789302825927734 90.89286804199219,57.77627944946289 C 87.2223892211914,62.484619140625 84.37623596191406,67.32986831665039 82.45178985595703,72.15390014648438 L 96.02227783203125,72.15390014648438 L 96.02227783203125,52.00067138671875 L 96.02227783203125,52.00067138671875 Z" style="fill: rgb(230, 230, 230); stroke-width: 1px; stroke: none;"/>
<path d="M 105.4335708618164,43.40390396118164 C 105.38526153564453,43.40390396118164 105.33924865722656,43.44096374511719 105.27054595947266,43.52341079711914 C 101.93080139160156,46.41386413574219 98.8156967163086,49.17851257324219 96.02227783203125,52.00067138671875 L 96.02227783203125,52.00067138671875 L 96.02227783203125,72.15390014648438 L 124.77227783203125,72.15390014648438 L 124.77227783203125,64.83835983276367 L 124.77227783203125,64.83835983276367 C 123.37374114990234,62.46361541748047 121.76176452636719,60.10322952270508 119.94774627685547,57.77627944946289 C 116.0787582397461,52.78403091430664 111.16139221191406,48.29100799560547 105.57007598876953,43.473487854003906 L 105.57008361816406,43.473487854003906 C 105.51398468017578,43.42860794067383 105.47301483154297,43.40390396118164 105.4335708618164,43.40390396118164 L 105.4335708618164,43.40390396118164 Z" style="fill: rgb(166, 64, 166); stroke-width: 1px; stroke: none;"/>
<path d="M 124.77227783203125,64.83835983276367 L 124.77227783203125,72.15390014648438 L 128.38316345214844,72.15390014648438 C 127.4112319946289,69.71399688720703 126.20352935791016,67.26866149902344 124.77227783203125,64.83835983276367 L 124.77227783203125,64.83835983276367 Z" style="fill: rgb(230, 230, 230); stroke-width: 1px; stroke: none;"/>
<path d="M 82.45178985595703,72.15390014648438 C 78.68327331542969,81.60049438476562 78.44922637939453,90.96572875976562 82.48092651367188,99.06217193603516 C 82.77175903320312,99.68717956542969 83.05824279785156,100.30093383789062 83.34042358398438,100.90390014648438 L 96.02227783203125,100.90390014648438 L 96.02227783203125,72.15390014648438 L 82.45178985595703,72.15390014648438 Z" style="fill: rgb(166, 64, 166); stroke-width: 1px; stroke: none;"/>
<path d="M 96.02227783203125,72.15390014648438 L 96.02227783203125,100.90390014648438 L 124.77227783203125,100.90390014648438 L 124.77227783203125,72.15390014648438 L 96.02227783203125,72.15390014648438 Z" style="fill: rgb(230, 230, 230); stroke-width: 1px; stroke: none;"/>
<path d="M 124.77227783203125,72.15390014648438 L 124.77227783203125,100.90390014648438 L 127.50019073486328,100.90390014648438 C 127.7823715209961,100.30093383789062 128.06886291503906,99.68717956542969 128.35968780517578,99.06217193603516 C 132.37486267089844,90.96572875976562 132.1461639404297,81.60049438476562 128.38316345214844,72.15390014648438 L 124.77227783203125,72.15390014648438 Z" style="fill: rgb(166, 64, 166); stroke-width: 1px; stroke: none;"/>
<path d="M 64.15037155151367,104.9825439453125 C 58.371368408203125,104.9825439453125 51.96395492553711,106.94248962402344 45.93767547607422,111.74248504638672 C 41.0406494140625,115.6485824584961 37.744606018066406,122.72474670410156 38.681596755981445,129.65390014648438 L 67.27227783203125,129.65390014648438 L 67.27227783203125,105.17638397216797 L 67.27227783203125,105.17638397216797 C 66.25714874267578,105.04898834228516 65.21441268920898,104.9825439453125 64.15037155151367,104.9825439453125 L 64.15037155151367,104.9825439453125 Z" style="fill: rgb(166, 64, 166); stroke-width: 1px; stroke: none;"/>
<path d="M 83.34042358398438,100.90390014648438 C 87.40120697021484,109.5809326171875 90.57095336914062,116.02388000488281 92.96974182128906,121.62986755371094 C 87.50798797607422,113.759765625 79.75927734375,108.3887710571289 71.09860610961914,105.9764404296875 C 69.8797492980957,105.61373138427734 68.59961318969727,105.34295654296875 67.27227783203125,105.17638397216797 L 67.27227783203125,105.17638397216797 L 67.27227783203125,129.65390014648438 L 96.02227783203125,129.65390014648438 L 96.02227783203125,100.90390014648438 L 83.34042358398438,100.90390014648438 Z" style="fill: rgb(230, 230, 230); stroke-width: 1px; stroke: none;"/>
<path d="M 96.02227783203125,100.90390014648438 L 96.02227783203125,129.65390014648438 L 124.77227783203125,129.65390014648438 L 124.77227783203125,113.67402648925781 L 124.77227783203125,113.67402648925781 C 122.43517303466797,115.63059997558594 120.2928695678711,117.88381958007812 118.39611053466797,120.4167251586914 C 120.13422393798828,116.44615936279297 122.2463150024414,112.02623748779297 124.77227783203125,106.69271087646484 L 124.77227783203125,106.69271087646484 L 124.77227783203125,100.90390014648438 L 96.02227783203125,100.90390014648438 Z" style="fill: rgb(166, 64, 166); stroke-width: 1px; stroke: none;"/>
<path d="M 124.77227783203125,100.90390014648438 L 124.77227783203125,106.69271087646484 L 124.77227783203125,106.69271087646484 C 125.63300323486328,104.87531280517578 126.54177856445312,102.95182800292969 127.50019073486328,100.90390014648438 L 124.77227783203125,100.90390014648438 Z" style="fill: rgb(230, 230, 230); stroke-width: 1px; stroke: none;"/>
<path d="M 146.34078979492188,104.9825439453125 C 143.88546752929688,104.9825439453125 141.5435791015625,105.33634185791016 139.39254760742188,105.9764404296875 C 134.06790161132812,107.45955657958984 129.0879669189453,110.06101989746094 124.77227783203125,113.67402648925781 L 124.77227783203125,113.67402648925781 L 124.77227783203125,129.65390014648438 L 153.52227783203125,129.65390014648438 L 153.52227783203125,105.98234558105469 L 153.52227783203125,105.98234558105469 C 151.0708770751953,105.29695892333984 148.65542602539062,104.9825439453125 146.34078979492188,104.9825439453125 L 124.77227783203125,100.90390014648438 Z" style="fill: rgb(230, 230, 230); stroke-width: 1px; stroke: none;"/>
<path d="M 153.52227783203125,105.98234558105469 L 153.52227783203125,129.65390014648438 L 171.80955505371094,129.65390014648438 C 172.74655151367188,122.72474670410156 169.4505157470703,115.6485824584961 164.55348205566406,111.74248504638672 C 160.94088745117188,108.8650131225586 157.19131469726562,107.00816345214844 153.52227783203125,105.98234558105469 L 153.52227783203125,105.98234558105469 Z" style="fill: rgb(166, 64, 166); stroke-width: 1px; stroke: none;"/>
<path d="M 38.681596755981445,129.65390014648438 C 39.77442932128906,137.73550415039062 46.625457763671875,145.6171417236328 63.41054153442383,148.0361328125 C 60.11566162109375,144.21705627441406 60.390235900878906,135.90496063232422 66.9800033569336,132.95954132080078 C 67.07718658447266,132.92201232910156 67.17461776733398,132.88549041748047 67.27227783203125,132.8499526977539 L 67.27227783203125,132.8499526977539 L 67.27227783203125,129.65390014648438 L 38.681596755981445,129.65390014648438 Z" style="fill: rgb(230, 230, 230); stroke-width: 1px; stroke: none;"/>
<path d="M 67.27227783203125,129.65390014648438 L 67.27227783203125,132.8499526977539 L 67.27227783203125,132.8499526977539 C 69.29067993164062,132.11549377441406 71.40458297729492,131.8034896850586 73.37728881835938,131.8034896850586 C 76.26117706298828,131.8034896850586 78.84331512451172,132.47028350830078 80.38418579101562,133.4587631225586 C 82.8719482421875,134.61585998535156 85.92122650146484,138.3626708984375 87.68663787841797,143.0189208984375 L 79.98480224609375,143.0189208984375 L 79.98480224609375,156.48301696777344 L 88.10972595214844,156.48301696777344 C 87.88252258300781,157.1488800048828 87.62347412109375,157.78646850585938 87.32882690429688,158.40390014648438 L 96.02227783203125,158.40390014648438 L 96.02227783203125,129.65390014648438 L 67.27227783203125,129.65390014648438 Z" style="fill: rgb(166, 64, 166); stroke-width: 1px; stroke: none;"/>
<path d="M 96.02227783203125,129.65390014648438 L 96.02227783203125,158.40390014648438 L 123.1623306274414,158.40390014648438 C 122.86768341064453,157.78646850585938 122.60863494873047,157.1488800048828 122.38143157958984,156.48301696777344 L 124.77227783203125,156.48301696777344 L 124.77227783203125,143.0189208984375 L 122.80452728271484,143.0189208984375 C 123.35445404052734,141.5684814453125 124.02896881103516,140.206298828125 124.77227783203125,138.98313903808594 L 124.77227783203125,138.98313903808594 L 124.77227783203125,129.65390014648438 L 96.02227783203125,129.65390014648438 Z" style="fill: rgb(230, 230, 230); stroke-width: 1px; stroke: none;"/>
<path d="M 124.77227783203125,129.65390014648438 L 124.77227783203125,138.98313903808594 L 124.77227783203125,138.98313903808594 C 126.41516876220703,136.27967834472656 128.39415740966797,134.2554168701172 130.10697174072266,133.4587631225586 C 131.64784240722656,132.47028350830078 134.22998046875,131.8034896850586 137.11387634277344,131.8034896850586 C 139.18202209472656,131.8034896850586 141.40536499023438,132.14641571044922 143.5111541748047,132.95954132080078 C 150.10092163085938,135.90496063232422 150.37550354003906,144.21705627441406 147.0806121826172,148.0361328125 C 149.41647338867188,147.69949340820312 151.5599365234375,147.257080078125 153.52227783203125,146.72305297851562 L 153.52227783203125,146.72305297851562 L 153.52227783203125,129.65390014648438 L 124.77227783203125,129.65390014648438 Z" style="fill: rgb(166, 64, 166); stroke-width: 1px; stroke: none;"/>
<path d="M 124.77227783203125,143.0189208984375 L 124.77227783203125,156.48301696777344 L 130.88077545166016,156.48301696777344 L 130.88077545166016,143.0189208984375 L 124.77227783203125,129.65390014648438 Z" style="fill: rgb(166, 64, 166); stroke-width: 1px; stroke: none;"/>
<path d="M 153.52227783203125,129.65390014648438 L 153.52227783203125,146.72305297851562 L 153.52227783203125,146.72305297851562 C 165.66099548339844,143.41961669921875 170.86880493164062,136.61085510253906 171.80955505371094,129.65390014648438 L 153.52227783203125,129.65390014648438 Z" style="fill: rgb(230, 230, 230); stroke-width: 1px; stroke: none;"/>
<path d="M 67.27227783203125,176.64004516601562 L 67.27227783203125,176.64004516601562 C 66.72224807739258,177.04608154296875 66.15898132324219,177.46243286132812 65.58217239379883,177.8897705078125 C 66.14031982421875,177.8897705078125 66.70416259765625,177.87306213378906 67.27227783203125,177.84091186523438 L 67.27227783203125,177.84091186523438 L 67.27227783203125,176.64004516601562 L 67.27227783203125,176.64004516601562 Z" style="fill: rgb(166, 64, 166); stroke-width: 1px; stroke: none;"/>
<path d="M 87.32882690429688,158.40390014648438 C 84.62164306640625,164.07684326171875 78.90889739990234,168.04983520507812 67.27227783203125,176.64004516601562 L 67.27227783203125,176.64004516601562 L 67.27227783203125,177.84091186523438 L 67.27227783203125,177.84091186523438 C 78.95034790039062,177.18014526367188 92.43428802490234,169.99595642089844 95.3858871459961,167.3061981201172 L 95.38589477539062,167.3061981201172 C 95.59901428222656,167.11654663085938 95.81148529052734,166.8553009033203 96.02227783203125,166.53378295898438 L 96.02227783203125,166.53378295898438 L 96.02227783203125,158.40390014648438 L 87.32882690429688,158.40390014648438 Z" style="fill: rgb(230, 230, 230); stroke-width: 1px; stroke: none;"/>
<path d="M 96.02227783203125,166.85313415527344 C 94.92340850830078,172.5526580810547 90.42288208007812,177.07945251464844 82.63069152832031,179.7368927001953 C 83.46634674072266,181.84503173828125 86.65745544433594,185.6294403076172 91.2804183959961,187.15390014648438 L 96.02227783203125,187.15390014648438 L 96.02227783203125,166.85313415527344 L 87.32882690429688,158.40390014648438 Z" style="fill: rgb(230, 230, 230); stroke-width: 1px; stroke: none;"/>
<path d="M 96.02227783203125,158.40390014648438 L 96.02227783203125,166.53378295898438 L 96.02227783203125,166.53378295898438 C 96.04824829101562,166.49415588378906 96.0741958618164,166.45362854003906 96.1001205444336,166.41220092773438 L 96.10012817382812,166.41220092773438 C 96.076416015625,166.55995178222656 96.05046844482422,166.70692443847656 96.02227783203125,166.85313415527344 L 96.02227783203125,166.85313415527344 L 96.02227783203125,187.15390014648438 L 119.56019592285156,187.15390014648438 C 121.6040267944336,186.4799346923828 123.36798858642578,185.36424255371094 124.77227783203125,184.14697265625 L 124.77227783203125,184.14697265625 L 124.77227783203125,178.34426879882812 L 124.77227783203125,178.34426879882812 C 119.16398620605469,175.662109375 115.8385009765625,171.76605224609375 114.85884857177734,167.05526733398438 L 114.85884857177734,167.05526733398438 C 114.94084930419922,167.14913940429688 115.02301025390625,167.23300170898438 115.10526275634766,167.3061981201172 L 115.10527038574219,167.3061981201172 C 116.47366333007812,168.55320739746094 120.1058120727539,170.76620483398438 124.77227783203125,172.8473358154297 L 124.77227783203125,172.8473358154297 L 124.77227783203125,161.11732482910156 L 124.77227783203125,161.11732482910156 C 124.14391326904297,160.2404327392578 123.61170959472656,159.3455810546875 123.1623306274414,158.40390014648438 L 96.02227783203125,158.40390014648438 Z" style="fill: rgb(166, 64, 166); stroke-width: 1px; stroke: none;"/>
<path d="M 124.77227783203125,161.11732482910156 L 124.77227783203125,172.8473358154297 L 124.77227783203125,172.8473358154297 C 130.66097259521484,175.4735565185547 138.19674682617188,177.8897705078125 144.90899658203125,177.8897705078125 C 134.15470123291016,169.92236328125 128.10826110839844,165.77276611328125 124.77227783203125,161.11732482910156 L 124.77227783203125,161.11732482910156 Z" style="fill: rgb(230, 230, 230); stroke-width: 1px; stroke: none;"/>
<path d="M 124.77227783203125,178.34426879882812 L 124.77227783203125,184.14697265625 L 124.77227783203125,184.14697265625 C 126.54437255859375,182.6108856201172 127.74371337890625,180.91302490234375 128.20993041992188,179.7368927001953 C 126.98218536376953,179.31817626953125 125.8361587524414,178.85305786132812 124.77227783203125,178.34426879882812 L 124.77227783203125,161.11732482910156 Z" style="fill: rgb(230, 230, 230); stroke-width: 1px; stroke: none;"/>
<path d="M 91.2804183959961,187.15390014648438 C 92.54053497314453,187.56944274902344 93.90702819824219,187.8170623779297 95.3612060546875,187.8170623779297 C 95.57960510253906,187.8170623779297 95.79998016357422,187.8114776611328 96.02227783203125,187.80003356933594 L 96.02227783203125,187.80003356933594 L 96.02227783203125,187.15390014648438 L 91.2804183959961,187.15390014648438 Z" style="fill: rgb(166, 64, 166); stroke-width: 1px; stroke: none;"/>
<path d="M 96.02227783203125,187.15390014648438 L 96.02227783203125,187.80003356933594 L 96.02227783203125,187.80003356933594 C 96.02647399902344,187.79981994628906 96.03067779541016,187.79959106445312 96.03488159179688,187.79937744140625 C 97.43270874023438,193.79006958007812 98.83053588867188,197.1348876953125 105.27054595947266,202.57643127441406 C 105.34542846679688,202.6388397216797 105.38286590576172,202.67002868652344 105.4203109741211,202.67002868652344 C 105.45775604248047,202.67002868652344 105.49519348144531,202.6388397216797 105.57008361816406,202.57643127441406 C 112.01007843017578,197.1348876953125 113.40790557861328,193.79006958007812 114.80574035644531,187.79937744140625 C 115.03230285644531,187.81126403808594 115.25688171386719,187.8170623779297 115.47940826416016,187.8170623779297 C 116.93358612060547,187.8170623779297 118.30008697509766,187.56944274902344 119.56019592285156,187.15390014648438 L 96.02227783203125,187.15390014648438 Z" style="fill: rgb(230, 230, 230); stroke-width: 1px; stroke: none;"/>
<path d="M 8.0,8.0 L 208.0,8.0 L 208.0,108.0 C 208.0,158.0 168.0,208.0 108.0,238.0 C 48.0,208.0 8.0,158.0 8.0,108.0 L 8.0,8.0 Z" style="fill: none; stroke-width: 1px; stroke: rgb(0, 0, 0);"/>
</g>
<rect clip-path="url(#contour)" fill="url(#lighting)" height="246.0" width="216.0" x="0.0" y="0.0"/>
</svg>
