<?xml version="1.0" encoding="UTF-8" standalone="no"?>
<svg xmlns="http://www.w3.org/2000/svg" height="246.0" width="216.0">
<defs>
<clipPath id="contour">
<path d="M 0.0,0.0 L 200.0,0.0 L 200.0,100.0 C 200.0,150.0 160.0,200.0 100.0,230.0 C 40.0,200.0 0.0,150.0 0.0,100.0 L 0.0,0.0 Z"/>
</clipPath>
<radialGradient id="lighting">
<stop offset="25%" stop-color="white" stop-opacity="35%"/>
<stop offset="100%" stop-color="white" stop-opacity="0%"/>
</radialGradient>
</defs>
<g transform="translate(8.0,8.0)">
<path clip-path="url(#contour)" comment="clipped FrettyVariationRenderer background" d="M 0.0,0.0 L 0.0,100.0 C 0.0,150.0 40.0,200.0 100.0,230.0 C 160.0,200.0 200.0,150.0 200.0,100.0 L 200.0,0.0 L 0.0,0.0 Z" style="fill-rule: evenodd; fill: rgb(217, 217, 38); stroke-width: 1px; stroke: none;"/>
<path clip-path="url(#contour)" comment="clipped fretty first 0.0, 0.0" d="M 10.42809009552002,1.0 L 1.0,10.42809009552002 L 39.5719108581543,49.0 L 49.0,39.5719108581543 L 10.42809009552002,1.0 Z" style="fill-rule: evenodd; fill: rgb(179, 38, 26); stroke-width: 1px; stroke: none;"/>
<path clip-path="url(#contour)" comment="clipped fretty second 0.0, 0.0" d="M 0.0,0.0 L 0.0,9.42809009552002 L 9.42809009552002,0.0 L 0.0,0.0 Z" style="fill-rule: evenodd; fill: rgb(179, 38, 26); stroke-width: 1px; stroke: none;"/>
<path clip-path="url(#contour)" comment="clipped fretty first 0.0, 50.0" d="M 10.42809009552002,51.0 L 1.0,60.4280891418457 L 39.5719108581543,99.0 L 49.0,89.57190704345703 L 10.42809009552002,51.0 Z" style="fill-rule: evenodd; fill: rgb(179, 38, 26); stroke-width: 1px; stroke: none;"/>
<path clip-path="url(#contour)" comment="clipped fretty second 0.0, 50.0" d="M 14.57190990447998,26.0 L 0.0,40.5719108581543 L 0.0,59.4280891418457 L 24.0,35.4280891418457 L 14.57190990447998,26.0 Z" style="fill-rule: evenodd; fill: rgb(179, 38, 26); stroke-width: 1px; stroke: none;"/>
<path clip-path="url(#contour)" comment="clipped fretty first 0.0, 100.0" d="M 10.42809009552002,101.0 L 1.0,110.42809295654297 L 39.5719108581543,149.0 L 49.0,139.57191467285156 L 10.42809009552002,101.0 Z" style="fill-rule: evenodd; fill: rgb(179, 38, 26); stroke-width: 1px; stroke: none;"/>
<path clip-path="url(#contour)" comment="clipped fretty second 0.0, 100.0" d="M 14.57190990447998,76.0 L 0.0,90.57190704345703 L 0.0,100.0 C 0.0,103.0014419555664 0.14413851499557495,106.00288391113281 0.42808929085731506,109.0 L 24.0,85.42809295654297 L 14.57190990447998,76.0 Z" style="fill-rule: evenodd; fill: rgb(179, 38, 26); stroke-width: 1px; stroke: none;"/>
<path clip-path="url(#contour)" comment="clipped fretty first 0.0, 150.0" d="M 17.56011199951172,158.1320343017578 C 24.9639835357666,170.29368591308594 34.528297424316406,181.9222869873047 45.90357971191406,192.6683349609375 L 49.0,189.57191467285156 L 17.56011962890625,158.1320343017578 L 17.56011199951172,158.1320343017578 Z" style="fill-rule: evenodd; fill: rgb(179, 38, 26); stroke-width: 1px; stroke: none;"/>
<path clip-path="url(#contour)" comment="clipped fretty second 0.0, 150.0" d="M 14.57190990447998,126.0 L 6.159848690032959,134.4120635986328 C 7.745509147644043,138.86691284179688 9.624408721923828,143.28347778320312 11.781454086303711,147.64663696289062 L 24.0,135.42808532714844 L 14.57190990447998,126.0 Z" style="fill-rule: evenodd; fill: rgb(179, 38, 26); stroke-width: 1px; stroke: none;"/>
<path clip-path="url(#contour)" comment="clipped fretty first 50.0, 0.0" d="M 60.4280891418457,1.0 L 51.0,10.42809009552002 L 89.57190704345703,49.0 L 99.0,39.5719108581543 L 60.4280891418457,1.0 Z" style="fill-rule: evenodd; fill: rgb(179, 38, 26); stroke-width: 1px; stroke: none;"/>
<path clip-path="url(#contour)" comment="clipped fretty second 50.0, 0.0" d="M 40.5719108581543,0.0 L 26.0,14.57190990447998 L 35.4280891418457,24.0 L 59.4280891418457,0.0 L 40.5719108581543,0.0 Z" style="fill-rule: evenodd; fill: rgb(179, 38, 26); stroke-width: 1px; stroke: none;"/>
<path clip-path="url(#contour)" comment="clipped fretty first 50.0, 50.0" d="M 60.4280891418457,51.0 L 51.0,60.4280891418457 L 89.57190704345703,99.0 L 99.0,89.57190704345703 L 60.4280891418457,51.0 Z" style="fill-rule: evenodd; fill: rgb(179, 38, 26); stroke-width: 1px; stroke: none;"/>
<path clip-path="url(#contour)" comment="clipped fretty second 50.0, 50.0" d="M 64.57190704345703,26.0 L 26.0,64.57190704345703 L 35.4280891418457,74.0 L 74.0,35.4280891418457 L 64.57190704345703,26.0 Z" style="fill-rule: evenodd; fill: rgb(179, 38, 26); stroke-width: 1px; stroke: none;"/>
<path clip-path="url(#contour)" comment="clipped fretty first 50.0, 100.0" d="M 60.4280891418457,101.0 L 51.0,110.42809295654297 L 89.57190704345703,149.0 L 99.0,139.57191467285156 L 60.4280891418457,101.0 Z" style="fill-rule: evenodd; fill: rgb(179, 38, 26); stroke-width: 1px; stroke: none;"/>
<path clip-path="url(#contour)" comment="clipped fretty second 50.0, 100.0" d="M 64.57190704345703,76.0 L 26.0,114.57190704345703 L 35.4280891418457,124.0 L 74.0,85.42809295654297 L 64.57190704345703,76.0 Z" style="fill-rule: evenodd; fill: rgb(179, 38, 26); stroke-width: 1px; stroke: none;"/>
<path clip-path="url(#contour)" comment="clipped fretty first 50.0, 150.0" d="M 60.4280891418457,151.0 L 51.0,160.42808532714844 L 89.57190704345703,199.0 L 99.0,189.57191467285156 L 60.4280891418457,151.0 Z" style="fill-rule: evenodd; fill: rgb(179, 38, 26); stroke-width: 1px; stroke: none;"/>
<path clip-path="url(#contour)" comment="clipped fretty second 50.0, 150.0" d="M 64.57190704345703,126.0 L 26.0,164.57191467285156 L 35.4280891418457,174.0 L 74.0,135.42808532714844 L 64.57190704345703,126.0 Z" style="fill-rule: evenodd; fill: rgb(179, 38, 26); stroke-width: 1px; stroke: none;"/>
<path clip-path="url(#contour)" comment="clipped fretty first 50.0, 200.0" d="M 60.4280891418457,201.0 L 58.1195182800293,203.30857849121094 C 63.47802734375,207.61781311035156 69.14422607421875,211.74496459960938 75.09102630615234,215.66293334960938 L 60.4280891418457,201.0 Z" style="fill-rule: evenodd; fill: rgb(179, 38, 26); stroke-width: 1px; stroke: none;"/>
<path clip-path="url(#contour)" comment="clipped fretty second 50.0, 200.0" d="M 64.57190704345703,176.0 L 46.935646057128906,193.63626098632812 C 50.15619659423828,196.6348876953125 53.518348693847656,199.56326293945312 57.01438522338867,202.41371154785156 L 74.0,185.42808532714844 L 64.57190704345703,176.0 Z" style="fill-rule: evenodd; fill: rgb(179, 38, 26); stroke-width: 1px; stroke: none;"/>
<path clip-path="url(#contour)" comment="clipped fretty first 100.0, 0.0" d="M 110.42809295654297,1.0 L 101.0,10.42809009552002 L 139.57191467285156,49.0 L 149.0,39.5719108581543 L 110.42809295654297,1.0 Z" style="fill-rule: evenodd; fill: rgb(179, 38, 26); stroke-width: 1px; stroke: none;"/>
<path clip-path="url(#contour)" comment="clipped fretty second 100.0, 0.0" d="M 90.57190704345703,0.0 L 76.0,14.57190990447998 L 85.42809295654297,24.0 L 109.42809295654297,0.0 L 90.57190704345703,0.0 Z" style="fill-rule: evenodd; fill: rgb(179, 38, 26); stroke-width: 1px; stroke: none;"/>
<path clip-path="url(#contour)" comment="clipped fretty first 100.0, 50.0" d="M 110.42809295654297,51.0 L 101.0,60.4280891418457 L 139.57191467285156,99.0 L 149.0,89.57190704345703 L 110.42809295654297,51.0 Z" style="fill-rule: evenodd; fill: rgb(179, 38, 26); stroke-width: 1px; stroke: none;"/>
<path clip-path="url(#contour)" comment="clipped fretty second 100.0, 50.0" d="M 114.57190704345703,26.0 L 76.0,64.57190704345703 L 85.42809295654297,74.0 L 124.0,35.4280891418457 L 114.57190704345703,26.0 Z" style="fill-rule: evenodd; fill: rgb(179, 38, 26); stroke-width: 1px; stroke: none;"/>
<path clip-path="url(#contour)" comment="clipped fretty first 100.0, 100.0" d="M 110.42809295654297,101.0 L 101.0,110.42809295654297 L 139.57191467285156,149.0 L 149.0,139.57191467285156 L 110.42809295654297,101.0 Z" style="fill-rule: evenodd; fill: rgb(179, 38, 26); stroke-width: 1px; stroke: none;"/>
<path clip-path="url(#contour)" comment="clipped fretty second 100.0, 100.0" d="M 114.57190704345703,76.0 L 76.0,114.57190704345703 L 85.42809295654297,124.0 L 124.0,85.42809295654297 L 114.57190704345703,76.0 Z" style="fill-rule: evenodd; fill: rgb(179, 38, 26); stroke-width: 1px; stroke: none;"/>
<path clip-path="url(#contour)" comment="clipped fretty first 100.0, 150.0" d="M 110.42809295654297,151.0 L 101.0,160.42808532714844 L 139.57191467285156,199.0 L 149.0,189.57191467285156 L 110.42809295654297,151.0 Z" style="fill-rule: evenodd; fill: rgb(179, 38, 26); stroke-width: 1px; stroke: none;"/>
<path clip-path="url(#contour)" comment="clipped fretty second 100.0, 150.0" d="M 114.57190704345703,126.0 L 76.0,164.57191467285156 L 85.42809295654297,174.0 L 124.0,135.42808532714844 L 114.57190704345703,126.0 Z" style="fill-rule: evenodd; fill: rgb(179, 38, 26); stroke-width: 1px; stroke: none;"/>
<path clip-path="url(#contour)" comment="clipped fretty first 100.0, 200.0" d="M 110.42809295654297,201.0 L 101.0,210.42808532714844 L 113.36864471435547,222.79673767089844 C 117.3604965209961,220.4835205078125 121.24615478515625,218.07916259765625 125.01869201660156,215.59060668945312 L 110.42809295654297,201.0 Z" style="fill-rule: evenodd; fill: rgb(179, 38, 26); stroke-width: 1px; stroke: none;"/>
<path clip-path="url(#contour)" comment="clipped fretty second 100.0, 200.0" d="M 114.57190704345703,176.0 L 76.0,214.57191467285156 L 80.62812042236328,219.2000274658203 C 82.60116577148438,220.421875 84.60254669189453,221.62107849121094 86.63135528564453,222.79673767089844 L 124.0,185.42808532714844 L 114.57190704345703,176.0 Z" style="fill-rule: evenodd; fill: rgb(179, 38, 26); stroke-width: 1px; stroke: none;"/>
<path clip-path="url(#contour)" comment="clipped fretty first 150.0, 0.0" d="M 160.42808532714844,1.0 L 151.0,10.42809009552002 L 189.57191467285156,49.0 L 199.0,39.5719108581543 L 160.42808532714844,1.0 Z" style="fill-rule: evenodd; fill: rgb(179, 38, 26); stroke-width: 1px; stroke: none;"/>
<path clip-path="url(#contour)" comment="clipped fretty second 150.0, 0.0" d="M 140.57191467285156,0.0 L 126.0,14.57190990447998 L 135.42808532714844,24.0 L 159.42808532714844,0.0 L 140.57191467285156,0.0 Z" style="fill-rule: evenodd; fill: rgb(179, 38, 26); stroke-width: 1px; stroke: none;"/>
<path clip-path="url(#contour)" comment="clipped fretty first 150.0, 50.0" d="M 160.42808532714844,51.0 L 151.0,60.4280891418457 L 189.57191467285156,99.0 L 199.0,89.57190704345703 L 160.42808532714844,51.0 Z" style="fill-rule: evenodd; fill: rgb(179, 38, 26); stroke-width: 1px; stroke: none;"/>
<path clip-path="url(#contour)" comment="clipped fretty second 150.0, 50.0" d="M 164.57191467285156,26.0 L 126.0,64.57190704345703 L 135.42808532714844,74.0 L 174.0,35.4280891418457 L 164.57191467285156,26.0 Z" style="fill-rule: evenodd; fill: rgb(179, 38, 26); stroke-width: 1px; stroke: none;"/>
<path clip-path="url(#contour)" comment="clipped fretty first 150.0, 100.0" d="M 160.42808532714844,101.0 L 151.0,110.42809295654297 L 188.2185516357422,147.64663696289062 C 190.37559509277344,143.28347778320312 192.25448608398438,138.86691284179688 193.84014892578125,134.4120635986328 L 160.42808532714844,101.0 Z" style="fill-rule: evenodd; fill: rgb(179, 38, 26); stroke-width: 1px; stroke: none;"/>
<path clip-path="url(#contour)" comment="clipped fretty second 150.0, 100.0" d="M 164.57191467285156,76.0 L 126.0,114.57190704345703 L 135.42808532714844,124.0 L 174.0,85.42809295654297 L 164.57191467285156,76.0 Z" style="fill-rule: evenodd; fill: rgb(179, 38, 26); stroke-width: 1px; stroke: none;"/>
<path clip-path="url(#contour)" comment="clipped fretty first 150.0, 150.0" d="M 160.42808532714844,151.0 L 151.0,160.42808532714844 L 168.27882385253906,177.7069091796875 C 171.2110595703125,174.23333740234375 173.9627685546875,170.69317626953125 176.5242156982422,167.09613037109375 L 160.42808532714844,151.0 Z" style="fill-rule: evenodd; fill: rgb(179, 38, 26); stroke-width: 1px; stroke: none;"/>
<path clip-path="url(#contour)" comment="clipped fretty second 150.0, 150.0" d="M 164.57191467285156,126.0 L 126.0,164.57191467285156 L 135.42808532714844,174.0 L 174.0,135.42808532714844 L 164.57191467285156,126.0 Z" style="fill-rule: evenodd; fill: rgb(179, 38, 26); stroke-width: 1px; stroke: none;"/>
<path clip-path="url(#contour)" comment="clipped fretty second 150.0, 200.0" d="M 164.57191467285156,176.0 L 126.0,214.57191467285156 L 126.22050476074219,214.79241943359375 C 142.1740264892578,204.1247100830078 156.0650177001953,191.94488525390625 167.35916137695312,178.78726196289062 L 164.57191467285156,176.0 Z" style="fill-rule: evenodd; fill: rgb(179, 38, 26); stroke-width: 1px; stroke: none;"/>
<path clip-path="url(#contour)" comment="clipped fretty second 200.0, 0.0" d="M 190.57191467285156,0.0 L 176.0,14.57190990447998 L 185.42808532714844,24.0 L 200.0,9.42809009552002 L 200.0,0.0 L 190.57191467285156,0.0 Z" style="fill-rule: evenodd; fill: rgb(179, 38, 26); stroke-width: 1px; stroke: none;"/>
<path clip-path="url(#contour)" comment="clipped fretty second 200.0, 50.0" d="M 200.0,40.5719108581543 L 176.0,64.57190704345703 L 185.42808532714844,74.0 L 200.0,59.4280891418457 L 200.0,40.5719108581543 Z" style="fill-rule: evenodd; fill: rgb(179, 38, 26); stroke-width: 1px; stroke: none;"/>
<path clip-path="url(#contour)" comment="clipped fretty second 200.0, 100.0" d="M 200.0,90.57190704345703 L 176.0,114.57190704345703 L 185.42808532714844,124.0 L 199.4770965576172,109.95099639892578 L 199.47711181640625,109.95099639892578 C 199.82374572753906,106.63789367675781 200.0,103.3189468383789 200.0,100.0 L 200.0,90.57190704345703 Z" style="fill-rule: evenodd; fill: rgb(179, 38, 26); stroke-width: 1px; stroke: none;"/>
<path clip-path="url(#contour)" comment="clipped fretty second 200.0, 150.0" d="M 182.4398956298828,158.13201904296875 L 176.0,164.57191467285156 L 177.35130310058594,165.92320251464844 C 179.14566040039062,163.35328674316406 180.84303283691406,160.7550506591797 182.4398956298828,158.13201904296875 Z" style="fill-rule: evenodd; fill: rgb(179, 38, 26); stroke-width: 1px; stroke: none;"/>
<path clip-path="url(#contour)" comment="outer shield shape border" d="M 0.0,0.0 L 0.0,100.0 C 0.0,150.0 40.0,200.0 100.0,230.0 C 160.0,200.0 200.0,150.0 200.0,100.0 L 200.0,0.0 L 0.0,0.0 Z" style="fill-rule: evenodd; fill: none; stroke-width: 1px; stroke: rgb(0, 0, 0);"/>
</g>
</svg>
