<?xml version="1.0" encoding="UTF-8" standalone="no"?>
<svg xmlns="http://www.w3.org/2000/svg" height="246.0" width="216.0">
<defs>
<clipPath id="contour">
<path d="M 8.0,8.0 L 208.0,8.0 L 208.0,108.0 C 208.0,158.0 168.0,208.0 108.0,238.0 C 48.0,208.0 8.0,158.0 8.0,108.0 L 8.0,8.0 Z"/>
</clipPath>
<radialGradient id="lighting">
<stop offset="25%" stop-color="white" stop-opacity="35%"/>
<stop offset="100%" stop-color="white" stop-opacity="0%"/>
</radialGradient>
</defs>
<g>
<path d="M 8.0,8.0 L 8.0,108.0 C 8.0,158.0 48.0,208.0 108.0,238.0 C 168.0,208.0 208.0,158.0 208.0,108.0 L 208.0,8.0 L 8.0,8.0 Z" style="fill: rgb(38, 38, 217); stroke-width: 1px; stroke: none;"/>
<path d="M 28.329320907592773,8.0 L 8.0,28.329320907592773 L 28.329320907592773,48.65864181518555 L 48.65864181518555,28.329320907592773 L 28.329320907592773,8.0 L 28.329320907592773,8.0 Z" style="fill: rgb(230, 230, 230); stroke-width: 1px; stroke: none;"/>
<path d="M 68.98796081542969,8.0 L 48.65864181518555,28.329320907592773 L 68.98796081542969,48.65864181518555 L 89.3172836303711,28.329320907592773 L 68.98796081542969,8.0 L 68.98796081542969,8.0 Z" style="fill: rgb(230, 230, 230); stroke-width: 1px; stroke: none;"/>
<path d="M 109.64659881591797,8.0 L 89.3172836303711,28.329320907592773 L 109.64659881591797,48.65864181518555 L 129.97592163085938,28.329320907592773 L 109.64659881591797,8.0 L 109.64659881591797,8.0 Z" style="fill: rgb(230, 230, 230); stroke-width: 1px; stroke: none;"/>
<path d="M 150.30523681640625,8.0 L 129.97592163085938,28.329320907592773 L 150.30523681640625,48.65864181518555 L 170.6345672607422,28.329320907592773 L 150.30523681640625,8.0 L 150.30523681640625,8.0 Z" style="fill: rgb(230, 230, 230); stroke-width: 1px; stroke: none;"/>
<path d="M 190.96388244628906,8.0 L 170.6345672607422,28.329320907592773 L 190.96388244628906,48.65864181518555 L 208.0,31.622520446777344 L 208.0,25.03611946105957 L 190.96388244628906,8.0 L 190.96388244628906,8.0 Z" style="fill: rgb(230, 230, 230); stroke-width: 1px; stroke: none;"/>
<path d="M 28.329320907592773,48.65864181518555 L 8.0,68.98796081542969 L 28.329320907592773,89.3172836303711 L 48.65864181518555,68.98796081542969 L 28.329320907592773,48.65864181518555 L 28.329320907592773,48.65864181518555 Z" style="fill: rgb(230, 230, 230); stroke-width: 1px; stroke: none;"/>
<path d="M 68.98796081542969,48.65864181518555 L 48.65864181518555,68.98796081542969 L 68.98796081542969,89.3172836303711 L 89.3172836303711,68.98796081542969 L 68.98796081542969,48.65864181518555 L 68.98796081542969,48.65864181518555 Z" style="fill: rgb(230, 230, 230); stroke-width: 1px; stroke: none;"/>
<path d="M 109.64659881591797,48.65864181518555 L 89.3172836303711,68.98796081542969 L 109.64659881591797,89.3172836303711 L 129.97592163085938,68.98796081542969 L 109.64659881591797,48.65864181518555 L 109.64659881591797,48.65864181518555 Z" style="fill: rgb(230, 230, 230); stroke-width: 1px; stroke: none;"/>
<path d="M 150.30523681640625,48.65864181518555 L 129.97592163085938,68.98796081542969 L 150.30523681640625,89.3172836303711 L 170.6345672607422,68.98796081542969 L 150.30523681640625,48.65864181518555 L 150.30523681640625,48.65864181518555 Z" style="fill: rgb(230, 230, 230); stroke-width: 1px; stroke: none;"/>
<path d="M 190.96388244628906,48.65864181518555 L 170.6345672607422,68.98796081542969 L 190.96388244628906,89.3172836303711 L 208.0,72.28115844726562 L 208.0,65.69475936889648 L 190.96388244628906,48.65864181518555 L 190.96388244628906,48.65864181518555 Z" style="fill: rgb(230, 230, 230); stroke-width: 1px; stroke: none;"/>
<path d="M 28.329320907592773,89.3172836303711 L 8.014186788350344,109.63241577148438 L 8.014186788350344,109.63241577148438 C 8.014353993348777,109.64204406738281 8.014522674493492,109.65167236328125 8.014692829921842,109.66130065917969 L 8.014697908423841,109.66130065917969 L 28.329320907592773,129.97592163085938 L 48.65864181518555,109.64659881591797 L 28.329320907592773,89.3172836303711 L 28.329320907592773,89.3172836303711 Z" style="fill: rgb(230, 230, 230); stroke-width: 1px; stroke: none;"/>
<path d="M 68.98796081542969,89.3172836303711 L 48.65864181518555,109.64659881591797 L 68.98796081542969,129.97592163085938 L 89.3172836303711,109.64659881591797 L 68.98796081542969,89.3172836303711 L 68.98796081542969,89.3172836303711 Z" style="fill: rgb(230, 230, 230); stroke-width: 1px; stroke: none;"/>
<path d="M 109.64659881591797,89.3172836303711 L 89.3172836303711,109.64659881591797 L 109.64659881591797,129.97592163085938 L 129.97592163085938,109.64659881591797 L 109.64659881591797,89.3172836303711 L 109.64659881591797,89.3172836303711 Z" style="fill: rgb(230, 230, 230); stroke-width: 1px; stroke: none;"/>
<path d="M 150.30523681640625,89.3172836303711 L 129.97592163085938,109.64659881591797 L 150.30523681640625,129.97592163085938 L 170.6345672607422,109.64659881591797 L 150.30523681640625,89.3172836303711 L 150.30523681640625,89.3172836303711 Z" style="fill: rgb(230, 230, 230); stroke-width: 1px; stroke: none;"/>
<path d="M 190.96388244628906,89.3172836303711 L 170.6345672607422,109.64659881591797 L 190.96388244628906,129.97592163085938 L 207.86328125,113.0765151977539 L 207.86328125,113.0765151977539 C 207.9541778564453,111.38485717773438 208.0,109.69242858886719 208.0,108.0 L 208.0,106.35340118408203 L 190.96388244628906,89.3172836303711 L 190.96388244628906,89.3172836303711 Z" style="fill: rgb(230, 230, 230); stroke-width: 1px; stroke: none;"/>
<path d="M 28.329320907592773,129.97592163085938 L 14.621010780334473,143.68423461914062 L 14.621010780334473,143.68423461914062 C 18.0089054107666,152.8638458251953 22.639936447143555,161.87417602539062 28.381399154663086,170.5824737548828 L 28.381399154663086,170.5824737548828 L 48.65864181518555,150.30523681640625 L 28.329320907592773,129.97592163085938 L 28.329320907592773,129.97592163085938 Z" style="fill: rgb(230, 230, 230); stroke-width: 1px; stroke: none;"/>
<path d="M 68.98796081542969,129.97592163085938 L 48.65864181518555,150.30523681640625 L 68.98796081542969,170.6345672607422 L 89.3172836303711,150.30523681640625 L 68.98796081542969,129.97592163085938 L 68.98796081542969,129.97592163085938 Z" style="fill: rgb(230, 230, 230); stroke-width: 1px; stroke: none;"/>
<path d="M 109.64659881591797,129.97592163085938 L 89.3172836303711,150.30523681640625 L 109.64659881591797,170.6345672607422 L 129.97592163085938,150.30523681640625 L 109.64659881591797,129.97592163085938 L 109.64659881591797,129.97592163085938 Z" style="fill: rgb(230, 230, 230); stroke-width: 1px; stroke: none;"/>
<path d="M 150.30523681640625,129.97592163085938 L 129.97592163085938,150.30523681640625 L 150.30523681640625,170.6345672607422 L 170.6345672607422,150.30523681640625 L 150.30523681640625,129.97592163085938 L 150.30523681640625,129.97592163085938 Z" style="fill: rgb(230, 230, 230); stroke-width: 1px; stroke: none;"/>
<path d="M 190.96388244628906,129.97592163085938 L 170.6345672607422,150.30523681640625 L 188.913330078125,168.58399963378906 L 188.913330078125,168.58399963378906 C 194.54983520507812,159.7278289794922 199.03939819335938,150.5728759765625 202.2445526123047,141.256591796875 L 202.2445526123047,141.256591796875 L 190.96388244628906,129.97592163085938 L 190.96388244628906,129.97592163085938 Z" style="fill: rgb(230, 230, 230); stroke-width: 1px; stroke: none;"/>
<path d="M 28.584569931030273,170.8898162841797 L 28.584569931030273,170.8898162841797 C 33.69198799133301,178.5950469970703 39.6689567565918,186.06222534179688 46.42332077026367,193.19920349121094 L 46.42332077026367,193.19920349121094 L 48.65864181518555,190.96388244628906 L 28.58457374572754,170.8898162841797 L 28.584569931030273,170.8898162841797 Z" style="fill: rgb(230, 230, 230); stroke-width: 1px; stroke: none;"/>
<path d="M 68.98796081542969,170.6345672607422 L 48.65864181518555,190.96388244628906 L 68.98796081542969,211.29319763183594 L 89.3172836303711,190.96388244628906 L 68.98796081542969,170.6345672607422 L 68.98796081542969,170.6345672607422 Z" style="fill: rgb(230, 230, 230); stroke-width: 1px; stroke: none;"/>
<path d="M 109.64659881591797,170.6345672607422 L 89.3172836303711,190.96388244628906 L 109.64659881591797,211.29319763183594 L 129.97592163085938,190.96388244628906 L 109.64659881591797,170.6345672607422 L 109.64659881591797,170.6345672607422 Z" style="fill: rgb(230, 230, 230); stroke-width: 1px; stroke: none;"/>
<path d="M 150.30523681640625,170.6345672607422 L 129.97592163085938,190.96388244628906 L 150.124267578125,211.1122283935547 L 150.124267578125,211.1122283935547 C 150.78704833984375,210.57760620117188 151.44509887695312,210.0402069091797 152.09837341308594,209.50006103515625 L 152.09837341308594,209.50006103515625 L 170.6345672607422,190.96388244628906 L 150.30523681640625,170.6345672607422 L 150.30523681640625,170.6345672607422 Z" style="fill: rgb(230, 230, 230); stroke-width: 1px; stroke: none;"/>
<path d="M 178.16195678710938,183.43649291992188 L 170.6345672607422,190.96388244628906 L 171.16737365722656,191.4967041015625 L 171.16737365722656,191.4967041015625 C 173.60662841796875,188.8521270751953 175.93968200683594,186.1638641357422 178.16195678710938,183.43649291992188 L 178.16195678710938,183.43649291992188 Z" style="fill: rgb(230, 230, 230); stroke-width: 1px; stroke: none;"/>
<path d="M 68.98796081542969,211.29319763183594 L 67.7077751159668,212.57337951660156 L 67.7077751159668,212.57337951660156 C 70.92715072631836,215.1121826171875 74.25419616699219,217.5857696533203 77.68323516845703,219.9884796142578 L 77.68323516845703,219.9884796142578 L 68.98796081542969,211.29319763183594 L 68.98796081542969,211.29319763183594 Z" style="fill: rgb(230, 230, 230); stroke-width: 1px; stroke: none;"/>
<path d="M 109.64659881591797,211.29319763183594 L 91.80606079101562,229.1337432861328 L 91.80606079101562,229.1337432861328 C 97.02059936523438,232.25119018554688 102.42393493652344,235.2119598388672 108.0,238.0 C 114.31110382080078,234.84445190429688 120.40092468261719,231.46762084960938 126.2461929321289,227.89279174804688 L 126.2461929321289,227.89279174804688 L 109.64659881591797,211.29319763183594 L 109.64659881591797,211.29319763183594 Z" style="fill: rgb(230, 230, 230); stroke-width: 1px; stroke: none;"/>
<path d="M 8.0,8.0 L 8.0,29.21320343017578 L 86.78679656982422,108.0 L 26.74393081665039,168.04286193847656 L 26.74393081665039,168.04286193847656 C 31.953516006469727,176.3079833984375 38.161781311035156,184.31600952148438 45.25748062133789,191.95571899414062 L 45.25748062133789,191.95571899414062 L 108.0,129.21320343017578 L 170.74252319335938,191.95571899414062 L 170.74252319335938,191.95571899414062 C 177.8382110595703,184.31600952148438 184.04647827148438,176.3079833984375 189.25607299804688,168.04286193847656 L 189.25607299804688,168.04286193847656 L 129.21320343017578,108.0 L 208.0,29.21320343017578 L 208.0,8.0 L 186.7867889404297,8.0 L 108.0,86.78679656982422 L 29.21320343017578,8.0 L 8.0,8.0 Z" style="fill: rgb(217, 38, 38); stroke-width: 1px; stroke: none;"/>
<path d="M 8.0,8.0 L 208.0,8.0 L 208.0,108.0 C 208.0,158.0 168.0,208.0 108.0,238.0 C 48.0,208.0 8.0,158.0 8.0,108.0 L 8.0,8.0 Z" style="fill: none; stroke-width: 1px; stroke: rgb(0, 0, 0);"/>
</g>
<rect clip-path="url(#contour)" fill="url(#lighting)" height="246.0" width="216.0" x="0.0" y="0.0"/>
</svg>
