<?xml version="1.0" encoding="UTF-8" standalone="no"?>
<svg xmlns="http://www.w3.org/2000/svg" height="216.0" width="116.0">
<defs>
<clipPath id="contour">
<path d="M 8.0,8.0 L 108.0,8.0 L 108.0,208.0 L 58.0,168.0 L 8.0,208.0 L 8.0,8.0 Z"/>
</clipPath>
<radialGradient id="lighting">
<stop offset="25%" stop-color="white" stop-opacity="35%"/>
<stop offset="100%" stop-color="white" stop-opacity="0%"/>
</radialGradient>
</defs>
<g transform="translate(8.0,8.0)">
<path d="M 0.0,0.0 L 100.0,0.0 L 100.0,200.0 L 50.0,160.0 L 0.0,200.0 L 0.0,0.0 Z" style="fill: rgb(38, 38, 38); stroke-width: 1px; stroke: none;"/>
<path d="M 0.0,0.0 L 0.0,5.0 L 30.33333396911621,35.33333206176758 L 35.33333206176758,30.33333396911621 L 5.0,0.0 L 0.0,0.0 Z" style="fill: rgb(166, 64, 166); stroke-width: 1px; stroke: none;"/>
<path d="M 41.33333206176758,36.33333206176758 L 36.33333206176758,41.33333206176758 L 58.66666793823242,63.66666793823242 L 63.66666793823242,58.66666793823242 L 41.33333206176758,36.33333206176758 L 41.33333206176758,36.33333206176758 Z" style="fill: rgb(166, 64, 166); stroke-width: 1px; stroke: none;"/>
<path d="M 69.66666412353516,64.66666412353516 L 64.66666412353516,69.66666412353516 L 100.0,105.0 L 100.0,95.0 L 69.66666412353516,64.66666412353516 L 69.66666412353516,64.66666412353516 Z" style="fill: rgb(166, 64, 166); stroke-width: 1px; stroke: none;"/>
<path d="M 95.0,0.0 L 50.5,44.5 L 55.5,49.5 L 100.0,5.0 L 100.0,0.0 L 95.0,0.0 Z" style="fill: rgb(166, 64, 166); stroke-width: 1px; stroke: none;"/>
<path d="M 44.5,50.5 L 0.0,95.0 L 0.0,105.0 L 49.5,55.5 L 44.5,50.5 L 44.5,50.5 Z" style="fill: rgb(166, 64, 166); stroke-width: 1px; stroke: none;"/>
<path d="M 50.0,16.66666603088379 L 16.66666603088379,50.0 L 30.33333396911621,63.66666793823242 L 35.33333206176758,58.66666793823242 L 26.66666603088379,50.0 L 50.0,26.66666603088379 L 58.66666793823242,35.33333206176758 L 63.66666793823242,30.33333396911621 L 50.0,16.66666603088379 L 50.0,16.66666603088379 Z" style="fill: rgb(166, 64, 166); stroke-width: 1px; stroke: none;"/>
<path d="M 69.66666412353516,36.33333206176758 L 64.66666412353516,41.33333206176758 L 73.33333587646484,50.0 L 50.0,73.33333587646484 L 41.33333206176758,64.66666412353516 L 36.33333206176758,69.66666412353516 L 50.0,83.33333587646484 L 83.33333587646484,50.0 L 69.66666412353516,36.33333206176758 L 69.66666412353516,36.33333206176758 Z" style="fill: rgb(166, 64, 166); stroke-width: 1px; stroke: none;"/>
<path d="M 0.0,0.0 L 100.0,0.0 L 100.0,200.0 L 50.0,160.0 L 0.0,200.0 L 0.0,0.0 Z" style="fill: none; stroke-width: 1px; stroke: rgb(0, 0, 0);"/>
</g>
<rect clip-path="url(#contour)" fill="url(#lighting)" height="216.0" width="116.0" x="0.0" y="0.0"/>
</svg>
