<?xml version="1.0" encoding="UTF-8" standalone="no"?>
<svg xmlns="http://www.w3.org/2000/svg" height="416.0" width="216.0">
<defs>
<clipPath id="contour">
<path d="M 8.0,8.0 L 208.0,8.0 L 208.0,408.0 L 108.0,328.0 L 8.0,408.0 L 8.0,8.0 Z"/>
</clipPath>
<radialGradient id="lighting">
<stop offset="25%" stop-color="white" stop-opacity="35%"/>
<stop offset="100%" stop-color="white" stop-opacity="0%"/>
</radialGradient>
</defs>
<g>
<path d="M 8.0,8.0 L 208.0,8.0 L 208.0,408.0 L 108.0,328.0 L 8.0,408.0 L 8.0,8.0 Z" style="fill: rgb(38, 38, 38); stroke-width: 1px; stroke: none;"/>
<path d="M 8.0,8.0 L 8.0,18.0 L 63.66666793823242,73.66666412353516 L 73.66666412353516,63.66666793823242 L 18.0,8.0 L 8.0,8.0 Z" style="fill: rgb(166, 64, 166); stroke-width: 1px; stroke: none;"/>
<path d="M 85.66666412353516,75.66666412353516 L 75.66666412353516,85.66666412353516 L 130.33333587646484,140.3333282470703 L 140.3333282470703,130.33333587646484 L 85.66666412353516,75.66666412353516 L 85.66666412353516,75.66666412353516 Z" style="fill: rgb(166, 64, 166); stroke-width: 1px; stroke: none;"/>
<path d="M 152.3333282470703,142.3333282470703 L 142.3333282470703,152.3333282470703 L 208.0,218.0 L 208.0,198.0 L 152.3333282470703,142.3333282470703 L 152.3333282470703,142.3333282470703 Z" style="fill: rgb(166, 64, 166); stroke-width: 1px; stroke: none;"/>
<path d="M 198.0,8.0 L 109.0,97.0 L 119.0,107.0 L 208.0,18.0 L 208.0,8.0 L 198.0,8.0 Z" style="fill: rgb(166, 64, 166); stroke-width: 1px; stroke: none;"/>
<path d="M 97.0,109.0 L 8.0,198.0 L 8.0,218.0 L 107.0,119.0 L 97.0,109.0 L 97.0,109.0 Z" style="fill: rgb(166, 64, 166); stroke-width: 1px; stroke: none;"/>
<path d="M 108.0,31.33333396911621 L 31.33333396911621,108.0 L 63.66666793823242,140.3333282470703 L 73.66666412353516,130.33333587646484 L 51.33333206176758,108.0 L 108.0,51.33333206176758 L 130.33333587646484,73.66666412353516 L 140.3333282470703,63.66666793823242 L 108.0,31.33333396911621 L 108.0,31.33333396911621 Z" style="fill: rgb(166, 64, 166); stroke-width: 1px; stroke: none;"/>
<path d="M 152.3333282470703,75.66666412353516 L 142.3333282470703,85.66666412353516 L 164.6666717529297,108.0 L 108.0,164.6666717529297 L 85.66666412353516,142.3333282470703 L 75.66666412353516,152.3333282470703 L 108.0,184.6666717529297 L 184.6666717529297,108.0 L 152.3333282470703,75.66666412353516 L 152.3333282470703,75.66666412353516 Z" style="fill: rgb(166, 64, 166); stroke-width: 1px; stroke: none;"/>
<path d="M 8.0,8.0 L 208.0,8.0 L 208.0,408.0 L 108.0,328.0 L 8.0,408.0 L 8.0,8.0 Z" style="fill: none; stroke-width: 1px; stroke: rgb(0, 0, 0);"/>
</g>
<rect clip-path="url(#contour)" fill="url(#lighting)" height="416.0" width="216.0" x="0.0" y="0.0"/>
</svg>
