<?xml version="1.0" encoding="UTF-8" standalone="no"?>
<svg xmlns="http://www.w3.org/2000/svg" height="246.0" width="216.0">
<defs>
<clipPath id="contour">
<path d="M 8.0,8.0 L 208.0,8.0 L 208.0,108.0 C 208.0,158.0 168.0,208.0 108.0,238.0 C 48.0,208.0 8.0,158.0 8.0,108.0 L 8.0,8.0 Z"/>
</clipPath>
<radialGradient id="lighting">
<stop offset="25%" stop-color="white" stop-opacity="35%"/>
<stop offset="100%" stop-color="white" stop-opacity="0%"/>
</radialGradient>
</defs>
<g>
<path d="M 8.0,8.0 L 208.0,8.0 L 208.0,108.0 C 208.0,158.0 168.0,208.0 108.0,238.0 C 48.0,208.0 8.0,158.0 8.0,108.0 L 8.0,8.0 Z" style="fill: rgb(217, 38, 38); stroke-width: 1px; stroke: none;"/>
<path d="M 92.96974182128906,121.62986755371094 L 92.96974182128906,121.62986755371094 C 92.9697494506836,121.62987518310547 92.9697494506836,121.6298828125 92.96975708007812,121.62989044189453 L 92.96976470947266,121.62989044189453 C 92.96975708007812,121.6298828125 92.9697494506836,121.62987518310547 92.96974182128906,121.62986755371094 L 92.96974182128906,121.62986755371094 Z" style="fill: rgb(217, 217, 38); stroke-width: 1px; stroke: none;"/>
<path d="M 105.4335708618164,43.40390396118164 C 105.38526153564453,43.40390396118164 105.33924865722656,43.44096374511719 105.27054595947266,43.52341079711914 C 99.70418548583984,48.3409309387207 94.76185607910156,52.808990478515625 90.89286804199219,57.77627944946289 C 80.03472900390625,71.70465087890625 76.390380859375,86.83116149902344 82.48092651367188,99.06217193603516 C 86.95695495605469,108.68144989013672 90.40425872802734,115.63432312011719 92.96974182128906,121.62986755371094 C 87.50798797607422,113.759765625 79.75927734375,108.3887710571289 71.09860610961914,105.9764404296875 C 68.94758224487305,105.33634185791016 66.60569763183594,104.9825439453125 64.15037155151367,104.9825439453125 C 58.371368408203125,104.9825439453125 51.96395492553711,106.94248962402344 45.93767547607422,111.74248504638672 C 35.32915115356445,120.204345703125 32.233951568603516,143.54310607910156 63.41054153442383,148.0361328125 C 60.11566162109375,144.21705627441406 60.390235900878906,135.90496063232422 66.9800033569336,132.95954132080078 C 69.0857925415039,132.14641571044922 71.30913543701172,131.8034896850586 73.37728881835938,131.8034896850586 C 76.26117706298828,131.8034896850586 78.84331512451172,132.47028350830078 80.38418579101562,133.4587631225586 C 82.8719482421875,134.61585998535156 85.92122650146484,138.3626708984375 87.68663787841797,143.0189208984375 L 79.98480224609375,143.0189208984375 L 79.98480224609375,156.48301696777344 L 88.10972595214844,156.48301696777344 C 85.69635009765625,163.5558624267578 79.69032287597656,167.4376220703125 65.58217239379883,177.8897705078125 C 77.61348724365234,177.8897705078125 92.29069519042969,170.12681579589844 95.3858871459961,167.3061981201172 L 95.38589477539062,167.3061981201172 C 95.62527465820312,167.0931854248047 95.86383819580078,166.78982543945312 96.1001205444336,166.41220092773438 L 96.10012817382812,166.41220092773438 C 95.15215301513672,172.3191680908203 90.6227798461914,177.0112762451172 82.63069152832031,179.7368927001953 C 83.69412994384766,182.41966247558594 88.57209777832031,187.8170623779297 95.3612060546875,187.8170623779297 C 95.58373260498047,187.8170623779297 95.80831146240234,187.81126403808594 96.03488159179688,187.79937744140625 C 97.43270874023438,193.79006958007812 98.83053588867188,197.1348876953125 105.27054595947266,202.57643127441406 C 105.34542846679688,202.6388397216797 105.38286590576172,202.67002868652344 105.4203109741211,202.67002868652344 C 105.45775604248047,202.67002868652344 105.49519348144531,202.6388397216797 105.57008361816406,202.57643127441406 C 112.01007843017578,197.1348876953125 113.40790557861328,193.79006958007812 114.80574035644531,187.79937744140625 C 115.03230285644531,187.81126403808594 115.25688171386719,187.8170623779297 115.47940826416016,187.8170623779297 C 122.26852416992188,187.8170623779297 127.146484375,182.41966247558594 128.20993041992188,179.7368927001953 C 120.51007080078125,177.11093139648438 116.02433776855469,172.65968322753906 114.85884857177734,167.05526733398438 L 114.85884857177734,167.05526733398438 C 114.94084930419922,167.14913940429688 115.02301025390625,167.23300170898438 115.10526275634766,167.3061981201172 L 115.10527038574219,167.3061981201172 C 118.2004623413086,170.12681579589844 132.87767028808594,177.8897705078125 144.90899658203125,177.8897705078125 C 130.80083465576172,167.4376220703125 124.79480743408203,163.5558624267578 122.38143157958984,156.48301696777344 L 130.88077545166016,156.48301696777344 L 130.88077545166016,143.0189208984375 L 122.80452728271484,143.0189208984375 C 124.56993103027344,138.3626708984375 127.61921691894531,134.61585998535156 130.10697174072266,133.4587631225586 C 131.64784240722656,132.47028350830078 134.22998046875,131.8034896850586 137.11387634277344,131.8034896850586 C 139.18202209472656,131.8034896850586 141.40536499023438,132.14641571044922 143.5111541748047,132.95954132080078 C 150.10092163085938,135.90496063232422 150.37550354003906,144.21705627441406 147.0806121826172,148.0361328125 C 178.2572021484375,143.54310607910156 175.16200256347656,120.204345703125 164.55348205566406,111.74248504638672 C 158.52720642089844,106.94248962402344 152.1197967529297,104.9825439453125 146.34078979492188,104.9825439453125 C 143.88546752929688,104.9825439453125 141.5435791015625,105.33634185791016 139.39254760742188,105.9764404296875 C 131.18441772460938,108.2627182006836 123.7954330444336,113.20655822753906 118.39611053466797,120.4167251586914 C 120.90086364746094,114.69483184814453 124.18225860595703,108.03976440429688 128.35968780517578,99.06217193603516 C 134.4252700805664,86.83116149902344 130.8058853149414,71.70465087890625 119.94774627685547,57.77627944946289 C 116.0787582397461,52.78403091430664 111.16139221191406,48.29100799560547 105.57007598876953,43.473487854003906 L 105.57008361816406,43.473487854003906 C 105.51398468017578,43.42860794067383 105.47301483154297,43.40390396118164 105.4335708618164,43.40390396118164 L 105.4335708618164,43.40390396118164 Z" style="fill: rgb(217, 217, 38); stroke-width: 1px; stroke: none;"/>
<path d="M 8.0,8.0 L 208.0,8.0 L 208.0,108.0 C 208.0,158.0 168.0,208.0 108.0,238.0 C 48.0,208.0 8.0,158.0 8.0,108.0 L 8.0,8.0 Z" style="fill: none; stroke-width: 1px; stroke: rgb(0, 0, 0);"/>
</g>
<rect clip-path="url(#contour)" fill="url(#lighting)" height="246.0" width="216.0" x="0.0" y="0.0"/>
</svg>
