<?xml version="1.0" encoding="UTF-8" standalone="no"?>
<svg xmlns="http://www.w3.org/2000/svg" height="216.0" width="116.0">
<defs>
<clipPath id="contour">
<path d="M 0.0,0.0 L 100.0,0.0 L 100.0,200.0 L 50.0,160.0 L 0.0,200.0 L 0.0,0.0 Z"/>
</clipPath>
<radialGradient id="lighting">
<stop offset="25%" stop-color="white" stop-opacity="35%"/>
<stop offset="100%" stop-color="white" stop-opacity="0%"/>
</radialGradient>
</defs>
<g transform="translate(8.0,8.0)">
<path clip-path="url(#contour)" comment="FieldBackground" d="M 0.0,0.0 L 100.0,0.0 L 100.0,200.0 L 50.0,160.0 L 0.0,200.0 L 0.0,0.0 Z" style="fill: rgb(217, 217, 38); stroke-width: 1px; stroke: none;"/>
<path clip-path="url(#contour)" comment="Bend FieldBackground" d="M 0.0,0.0 L 0.0,18.60660171508789 L -4.3520742565306136E-14,18.60660171508789 L 8.0,18.60660171508789 L 16.0,18.60660171508789 L 16.0,26.60660171508789 L 16.0,34.60660171508789 L 32.0,34.60660171508789 L 32.0,42.60660171508789 L 32.0,50.60660171508789 L 48.0,50.60660171508789 L 48.0,58.60660171508789 L 48.0,66.60660552978516 L 56.0,66.60660552978516 L 64.0,66.60660552978516 L 64.0,74.60660552978516 L 64.0,82.60660552978516 L 80.0,82.60660552978516 L 80.0,90.60660552978516 L 80.0,98.60660552978516 L 88.0,98.60660552978516 L 96.0,98.60660552978516 L 96.0,106.60660552978516 L 96.0,114.60660552978516 L 100.0,114.60660552978516 L 100.0,85.39339447021484 L 88.0,85.39339447021484 L 88.0,77.39339447021484 L 88.0,69.39339447021484 L 72.0,69.39339447021484 L 72.0,61.39339828491211 L 72.0,53.39339828491211 L 56.0,53.39339828491211 L 56.0,45.39339828491211 L 56.0,37.39339828491211 L 40.0,37.39339828491211 L 40.0,29.39339828491211 L 40.0,21.39339828491211 L 24.0,21.39339828491211 L 24.0,13.39339828491211 L 24.0,5.393398284912109 L 16.0,5.393398284912109 L 8.0,5.393398284912109 L 8.0,0.0 L 0.0,0.0 Z" style="fill: rgb(38, 64, 204); stroke-width: 1px; stroke: none;"/>
<path clip-path="url(#contour)" comment="outer shield shape border" d="M 0.0,0.0 L 100.0,0.0 L 100.0,200.0 L 50.0,160.0 L 0.0,200.0 L 0.0,0.0 Z" style="fill: none; stroke-width: 1px; stroke: rgb(0, 0, 0);"/>
</g>
</svg>
