<?xml version="1.0" encoding="UTF-8" standalone="no"?>
<svg xmlns="http://www.w3.org/2000/svg" height="246.0" width="216.0">
<defs>
<clipPath id="contour">
<path d="M 0.0,0.0 L 200.0,0.0 L 200.0,100.0 C 200.0,150.0 160.0,200.0 100.0,230.0 C 40.0,200.0 0.0,150.0 0.0,100.0 L 0.0,0.0 Z"/>
</clipPath>
<radialGradient id="lighting">
<stop offset="25%" stop-color="white" stop-opacity="35%"/>
<stop offset="100%" stop-color="white" stop-opacity="0%"/>
</radialGradient>
</defs>
<g transform="translate(8.0,8.0)">
<path clip-path="url(#contour)" comment="FieldBackground" d="M 0.0,0.0 L 0.0,100.0 C 0.0,150.0 40.0,200.0 100.0,230.0 C 160.0,200.0 200.0,150.0 200.0,100.0 L 200.0,0.0 L 0.0,0.0 Z" style="fill-rule: evenodd; fill: rgb(230, 230, 230); stroke-width: 1px; stroke: none;"/>
<path clip-path="url(#contour)" comment="FieldBackground" d="M 0.0,0.0 L 0.0,28.284271240234375 L 159.2891387939453,187.5734100341797 C 169.14064025878906,177.52891540527344 177.44033813476562,166.79566955566406 183.92308044433594,155.63880920410156 L 28.284271240234375,0.0 L 0.0,0.0 Z" style="fill-rule: evenodd; fill: rgb(38, 38, 38); stroke-width: 1px; stroke: none;"/>
<path clip-path="url(#contour)" comment="clipped 'rose' FieldBackground" d="M 32.99782943725586,27.224576950073242 C 32.99782180786133,27.224740982055664 32.9978141784668,27.22490692138672 32.997806549072266,27.22507095336914 C 33.04619216918945,28.26754379272461 33.13680648803711,29.046947479248047 33.243995666503906,29.723108291625977 C 33.2440299987793,29.72311019897461 33.24406051635742,29.723114013671875 33.24409484863281,29.723115921020508 C 33.13686752319336,29.046876907348633 33.04621505737305,28.267364501953125 32.99782943725586,27.224576950073242 Z" style="fill-rule: evenodd; fill: rgb(230, 230, 230); stroke-width: 1px; stroke: rgb(38, 38, 38);"/>
<path clip-path="url(#contour)" comment="clipped 'rose' FieldBackground" d="M 30.187347412109375,31.35671043395996 C 30.307762145996094,31.37656593322754 30.424646377563477,31.394577026367188 30.538728713989258,31.411130905151367 C 30.53873062133789,31.4111270904541 30.53873062133789,31.411123275756836 30.538732528686523,31.41111946105957 C 30.424650192260742,31.394569396972656 30.307764053344727,31.376562118530273 30.187347412109375,31.35671043395996 Z" style="fill-rule: evenodd; fill: rgb(230, 230, 230); stroke-width: 1px; stroke: rgb(38, 38, 38);"/>
<path clip-path="url(#contour)" comment="clipped 'rose' FieldBackground" d="M 37.81279373168945,30.763057708740234 C 37.560794830322266,30.83765983581543 37.324195861816406,30.903711318969727 37.100555419921875,30.96256446838379 C 36.518150329589844,31.225263595581055 36.04560089111328,31.468799591064453 35.6257209777832,31.703147888183594 C 35.63330841064453,31.730554580688477 35.64048385620117,31.758136749267578 35.647239685058594,31.785884857177734 C 36.22216796875,31.469675064086914 36.895633697509766,31.136877059936523 37.81279373168945,30.763057708740234 Z" style="fill-rule: evenodd; fill: rgb(230, 230, 230); stroke-width: 1px; stroke: rgb(38, 38, 38);"/>
<path clip-path="url(#contour)" comment="clipped 'rose' FieldBackground" d="M 34.82431411743164,34.47563552856445 C 34.97361755371094,34.763343811035156 35.1400146484375,35.067596435546875 35.33568572998047,35.40017318725586 C 35.140018463134766,35.067596435546875 34.9736213684082,34.763343811035156 34.824317932128906,34.47563552856445 L 34.82431411743164,34.47563552856445 Z" style="fill-rule: evenodd; fill: rgb(230, 230, 230); stroke-width: 1px; stroke: rgb(38, 38, 38);"/>
<path clip-path="url(#contour)" comment="clipped 'rose' FieldBackground" d="M 31.3172550201416,34.54172134399414 C 31.195106506347656,34.81855392456055 31.059144973754883,35.110572814941406 30.900053024291992,35.42802047729492 C 31.059144973754883,35.1105842590332 31.195112228393555,34.818565368652344 31.31726837158203,34.54173278808594 C 31.317262649536133,34.54172897338867 31.317258834838867,34.541725158691406 31.3172550201416,34.54172134399414 Z" style="fill-rule: evenodd; fill: rgb(230, 230, 230); stroke-width: 1px; stroke: rgb(38, 38, 38);"/>
<path clip-path="url(#contour)" comment="clipped 'rose' FieldBackground" d="M 43.55342483520508,35.66286849975586 C 43.55352020263672,35.66292190551758 43.553619384765625,35.6629753112793 43.553714752197266,35.663028717041016 L 43.55391311645508,35.6629638671875 C 43.553749084472656,35.662933349609375 43.5535888671875,35.662899017333984 43.55342483520508,35.66286849975586 Z" style="fill-rule: evenodd; fill: rgb(230, 230, 230); stroke-width: 1px; stroke: rgb(38, 38, 38);"/>
<path clip-path="url(#contour)" comment="clipped 'rose' FieldBackground" d="M 34.43365478515625,34.768959045410156 C 34.433650970458984,34.76896286010742 34.43364334106445,34.76896667480469 34.43363952636719,34.76897048950195 C 34.91053009033203,35.23348617553711 35.434600830078125,35.789794921875 36.07655334472656,36.57547378540039 C 36.0765495300293,36.575462341308594 36.076541900634766,36.57545471191406 36.076534271240234,36.575443267822266 C 35.43462371826172,35.78982162475586 34.91054916381836,35.23350143432617 34.43365478515625,34.768959045410156 Z" style="fill-rule: evenodd; fill: rgb(230, 230, 230); stroke-width: 1px; stroke: rgb(38, 38, 38);"/>
<path clip-path="url(#contour)" comment="clipped 'rose' FieldBackground" d="M 30.233884811401367,36.65936279296875 C 30.21906089782715,36.68501281738281 30.20408821105957,36.71083068847656 30.1889705657959,36.736812591552734 L 30.18897247314453,36.736812591552734 C 30.204092025756836,36.71083450317383 30.21906280517578,36.68501281738281 30.233884811401367,36.65936279296875 Z M 31.721099853515625,34.82170486450195 C 31.27275848388672,35.317569732666016 30.782915115356445,35.90825271606445 30.18897247314453,36.736812591552734 C 30.188926696777344,36.73688888549805 30.188880920410156,36.736968994140625 30.18883514404297,36.73704528808594 C 30.782855987548828,35.90837860107422 31.272750854492188,35.31763458251953 31.72113609313965,34.82172775268555 C 31.72112464904785,34.821720123291016 31.721113204956055,34.821712493896484 31.721099853515625,34.82170486450195 Z" style="fill-rule: evenodd; fill: rgb(230, 230, 230); stroke-width: 1px; stroke: rgb(38, 38, 38);"/>
<path clip-path="url(#contour)" comment="clipped 'rose' FieldBackground" d="M 30.233884811401367,36.65936279296875 C 30.21906089782715,36.68501281738281 30.20408821105957,36.71083068847656 30.1889705657959,36.736812591552734 L 30.18897247314453,36.736812591552734 C 30.204092025756836,36.71083450317383 30.21906280517578,36.68501281738281 30.233884811401367,36.65936279296875 Z M 31.721099853515625,34.82170486450195 C 31.27275848388672,35.317569732666016 30.782915115356445,35.90825271606445 30.18897247314453,36.736812591552734 C 30.188926696777344,36.73688888549805 30.188880920410156,36.736968994140625 30.18883514404297,36.73704528808594 C 30.782855987548828,35.90837860107422 31.272750854492188,35.31763458251953 31.72113609313965,34.82172775268555 C 31.72112464904785,34.821720123291016 31.721113204956055,34.821712493896484 31.721099853515625,34.82170486450195 Z" style="fill-rule: evenodd; fill: rgb(230, 230, 230); stroke-width: 1px; stroke: rgb(38, 38, 38);"/>
<path clip-path="url(#contour)" comment="clipped 'rose' FieldBackground" d="M 39.78206253051758,23.689924240112305 C 39.055992126464844,24.209020614624023 37.7667121887207,24.90066146850586 36.51138687133789,25.1929988861084 C 36.17012405395508,24.385059356689453 35.63125991821289,24.08978843688965 34.97877502441406,24.08978843688965 C 34.81073760986328,24.08978843688965 34.635162353515625,24.109371185302734 34.453487396240234,24.144826889038086 C 33.962989807128906,24.28197479248047 33.603153228759766,24.49578857421875 33.06903076171875,24.49578857421875 C 33.049766540527344,24.49578857421875 33.030277252197266,24.49551010131836 33.01054763793945,24.49493980407715 L 33.0094108581543,24.495006561279297 L 32.98594665527344,24.495006561279297 L 32.98579788208008,24.494916915893555 C 32.966041564941406,24.4954891204834 32.946529388427734,24.49576759338379 32.927242279052734,24.49576759338379 C 32.39311599731445,24.49576759338379 32.032691955566406,24.281946182250977 31.542213439941406,24.144804000854492 C 31.367961883544922,24.110816955566406 31.199352264404297,24.091352462768555 31.03758430480957,24.0898380279541 L 31.03745460510254,24.089815139770508 C 31.030576705932617,24.089750289916992 31.023712158203125,24.089717864990234 31.016860961914062,24.089717864990234 C 30.325286865234375,24.089717864990234 29.761228561401367,24.421518325805664 29.42498207092285,25.344009399414062 C 29.42487144470215,25.344619750976562 29.424758911132812,25.345230102539062 29.42464828491211,25.345840454101562 C 28.182300567626953,24.798954010009766 27.328359603881836,24.438222885131836 26.71936798095703,23.792287826538086 L 26.719234466552734,23.792287826538086 C 27.068361282348633,24.50278091430664 27.486371994018555,25.670738220214844 27.664079666137695,26.839855194091797 C 27.622173309326172,26.834470748901367 27.580039978027344,26.82933235168457 27.5377197265625,26.82439422607422 C 26.359468460083008,26.900609970092773 25.916969299316406,27.59526824951172 25.809459686279297,28.571041107177734 C 25.790157318115234,29.117191314697266 25.88799476623535,29.548484802246094 25.70557403564453,30.106060028076172 L 25.70529556274414,30.107240676879883 L 25.698368072509766,30.130516052246094 L 25.698240280151367,30.130693435668945 C 25.54597282409668,30.69795799255371 25.230712890625,30.99742317199707 24.949983596801758,31.459697723388672 C 24.867265701293945,31.622594833374023 24.799602508544922,31.784154891967773 24.75044822692871,31.94420051574707 L 24.750404357910156,31.944154739379883 C 24.549652099609375,32.597747802734375 24.657106399536133,33.225685119628906 25.303598403930664,33.808040618896484 C 24.32066535949707,34.822330474853516 23.668712615966797,35.52413558959961 22.84958839416504,35.87126541137695 L 22.849655151367188,35.87126541137695 C 23.058366775512695,35.85289764404297 23.29937171936035,35.842445373535156 23.562036514282227,35.842445373535156 C 24.3510684967041,35.842445373535156 25.335569381713867,35.9367790222168 26.227405548095703,36.19428634643555 C 26.22272491455078,36.20556640625 26.218055725097656,36.21686553955078 26.213397979736328,36.22818374633789 C 25.944398880004883,37.42195510864258 26.457561492919922,38.062049865722656 27.3264102935791,38.44995880126953 C 27.82449722290039,38.62639617919922 28.250375747680664,38.653297424316406 28.712047576904297,38.995262145996094 L 28.7130126953125,38.9958610534668 L 28.732486724853516,39.00944900512695 L 28.73265838623047,39.00962448120117 C 29.21189308166504,39.324371337890625 29.397274017333984,39.72414779663086 29.74272918701172,40.13644790649414 C 29.869112014770508,40.26566696166992 29.998580932617188,40.37947463989258 30.13204002380371,40.474464416503906 L 30.13199806213379,40.47439956665039 C 30.413938522338867,40.67509841918945 30.713319778442383,40.791744232177734 31.03679084777832,40.791744232177734 C 31.376680374145508,40.791744232177734 31.743167877197266,40.662960052490234 32.14397048950195,40.367584228515625 C 32.156009674072266,40.35493469238281 32.168006896972656,40.342281341552734 32.179954528808594,40.329620361328125 C 32.743064880371094,41.3780403137207 33.1314811706543,42.136470794677734 33.2215461730957,42.95187759399414 L 33.22154998779297,42.95187759399414 C 33.35595703125,42.22159194946289 33.677825927734375,41.1392707824707 34.16670227050781,40.156375885009766 C 34.22590637207031,40.213809967041016 34.28650665283203,40.270965576171875 34.34810256958008,40.32792282104492 C 34.729618072509766,40.572731018066406 35.07407760620117,40.680999755859375 35.389137268066406,40.680999755859375 C 35.90346145629883,40.680999755859375 36.33943176269531,40.39247512817383 36.730342864990234,39.938453674316406 C 37.0498046875,39.504154205322266 37.20977020263672,39.093326568603516 37.66872024536133,38.74751281738281 L 37.66957473754883,38.746707916259766 L 37.68819046020508,38.73185348510742 L 37.68840789794922,38.731788635253906 C 38.12813949584961,38.359981536865234 38.55204391479492,38.30454635620117 39.03831481933594,38.095481872558594 C 39.196414947509766,38.01213836669922 39.34149932861328,37.92082595825195 39.47066879272461,37.81962203979492 L 39.470558166503906,37.819644927978516 C 39.972755432128906,37.42609405517578 40.233795166015625,36.88402557373047 40.081424713134766,36.08778762817383 C 41.28226852416992,35.827999114990234 42.14888000488281,35.60431671142578 42.9168815612793,35.60431671142578 C 43.13522720336914,35.60431671142578 43.345603942871094,35.622398376464844 43.55342483520508,35.66286849975586 C 42.811134338378906,35.25305938720703 41.69850540161133,34.44351577758789 40.878334045410156,33.482913970947266 C 41.5759391784668,32.76074981689453 41.51322555541992,31.99521827697754 41.08830642700195,31.20929718017578 C 40.79599380493164,30.75479507446289 40.47352981567383,30.46466064453125 40.30702209472656,29.901718139648438 L 40.30659484863281,29.900604248046875 L 40.29908752441406,29.877552032470703 L 40.29908752441406,29.877328872680664 C 40.102725982666016,29.32494354248047 40.18943405151367,28.890464782714844 40.15638732910156,28.345027923583984 C 40.131614685058594,28.16266632080078 40.09537124633789,27.990549087524414 40.04499435424805,27.830904006958008 L 40.04497528076172,27.8309268951416 C 39.8482666015625,27.207651138305664 39.43637466430664,26.774686813354492 38.65560531616211,26.668821334838867 C 39.01362228393555,25.323345184326172 39.2464599609375,24.399736404418945 39.78206253051758,23.689924240112305 Z" style="fill-rule: evenodd; fill: rgb(230, 230, 230); stroke-width: 1px; stroke: rgb(38, 38, 38);"/>
<path clip-path="url(#contour)" comment="clipped 'rose' FieldBackground" d="M 88.55709838867188,82.94347381591797 C 88.55709075927734,82.94363403320312 88.55708312988281,82.94380187988281 88.55707550048828,82.9439697265625 C 88.60546112060547,83.98644256591797 88.69607543945312,84.7658462524414 88.80326080322266,85.44200134277344 L 88.80326843261719,85.44200134277344 C 88.80329895019531,85.44200897216797 88.80332946777344,85.44200897216797 88.8033676147461,85.44200897216797 C 88.69613647460938,84.7657699584961 88.60548400878906,83.98625946044922 88.55709838867188,82.94347381591797 Z" style="fill-rule: evenodd; fill: rgb(230, 230, 230); stroke-width: 1px; stroke: rgb(38, 38, 38);"/>
<path clip-path="url(#contour)" comment="clipped 'rose' FieldBackground" d="M 85.74664306640625,87.07559967041016 C 85.86705017089844,87.095458984375 85.98392486572266,87.11347198486328 86.0979995727539,87.1300277709961 C 86.0979995727539,87.13002014160156 86.0979995727539,87.13002014160156 86.0979995727539,87.13001251220703 C 85.98393249511719,87.11346435546875 85.86705017089844,87.09545135498047 85.74664306640625,87.07559967041016 Z" style="fill-rule: evenodd; fill: rgb(230, 230, 230); stroke-width: 1px; stroke: rgb(38, 38, 38);"/>
<path clip-path="url(#contour)" comment="clipped 'rose' FieldBackground" d="M 93.37206268310547,86.4819564819336 C 93.12006378173828,86.55655670166016 92.88346862792969,86.62260437011719 92.65982818603516,86.68145751953125 C 92.0774154663086,86.94416046142578 91.60487365722656,87.18769836425781 91.18498992919922,87.42204284667969 C 91.19258117675781,87.44944763183594 91.19975280761719,87.47703552246094 91.20651245117188,87.5047836303711 C 91.78143310546875,87.18856811523438 92.45490264892578,86.85577392578125 93.37206268310547,86.4819564819336 Z" style="fill-rule: evenodd; fill: rgb(230, 230, 230); stroke-width: 1px; stroke: rgb(38, 38, 38);"/>
<path clip-path="url(#contour)" comment="clipped 'rose' FieldBackground" d="M 90.38358306884766,90.19453430175781 C 90.53274536132812,90.4819564819336 90.69895935058594,90.78589630126953 90.8943862915039,91.11808776855469 C 90.69895935058594,90.78589630126953 90.53274536132812,90.4819564819336 90.38359069824219,90.19453430175781 L 90.38358306884766,90.19453430175781 Z" style="fill-rule: evenodd; fill: rgb(230, 230, 230); stroke-width: 1px; stroke: rgb(38, 38, 38);"/>
<path clip-path="url(#contour)" comment="clipped 'rose' FieldBackground" d="M 86.87652587890625,90.2606201171875 C 86.75437927246094,90.5374526977539 86.61841583251953,90.8294677734375 86.45932006835938,91.14691925048828 C 86.61841583251953,90.82948303222656 86.75437927246094,90.53746032714844 86.87654113769531,90.26062774658203 C 86.87653350830078,90.26062774658203 86.87652587890625,90.2606201171875 86.87652587890625,90.2606201171875 Z" style="fill-rule: evenodd; fill: rgb(230, 230, 230); stroke-width: 1px; stroke: rgb(38, 38, 38);"/>
<path clip-path="url(#contour)" comment="clipped 'rose' FieldBackground" d="M 99.1126937866211,91.38176727294922 C 99.11279296875,91.38182067871094 99.1128921508789,91.38187408447266 99.11298370361328,91.38192749023438 L 99.1131820678711,91.3818588256836 C 99.11302185058594,91.38182830810547 99.11285400390625,91.38179779052734 99.1126937866211,91.38176727294922 Z" style="fill-rule: evenodd; fill: rgb(230, 230, 230); stroke-width: 1px; stroke: rgb(38, 38, 38);"/>
<path clip-path="url(#contour)" comment="clipped 'rose' FieldBackground" d="M 89.99292755126953,90.48785400390625 C 89.992919921875,90.48786163330078 89.99291229248047,90.48786163330078 89.99291229248047,90.48786163330078 C 90.46980285644531,90.95238494873047 90.9938735961914,91.5086898803711 91.63582611083984,92.29437255859375 C 91.63581848144531,92.29435729980469 91.63581085205078,92.29434967041016 91.63580322265625,92.29434204101562 C 90.993896484375,91.50872039794922 90.46981811523438,90.952392578125 89.99292755126953,90.48785400390625 Z" style="fill-rule: evenodd; fill: rgb(230, 230, 230); stroke-width: 1px; stroke: rgb(38, 38, 38);"/>
<path clip-path="url(#contour)" comment="clipped 'rose' FieldBackground" d="M 87.2803726196289,90.54060363769531 C 86.83203125,91.03646850585938 86.3421859741211,91.62715148925781 85.74824523925781,92.45570373535156 C 85.76335906982422,92.4297103881836 85.77835845947266,92.40390014648438 85.79317474365234,92.37822723388672 C 85.77835083007812,92.40390014648438 85.76335906982422,92.4297103881836 85.74823760986328,92.4557113647461 C 85.74823760986328,92.4557113647461 85.74823760986328,92.4557113647461 85.74824523925781,92.45570373535156 C 85.74819946289062,92.4557876586914 85.74815368652344,92.45586395263672 85.74810791015625,92.45594024658203 C 86.34212493896484,91.62727355957031 86.83202362060547,91.03652954101562 87.28041076660156,90.5406265258789 C 87.2803955078125,90.54061889648438 87.28038024902344,90.54061126708984 87.2803726196289,90.54060363769531 Z" style="fill-rule: evenodd; fill: rgb(230, 230, 230); stroke-width: 1px; stroke: rgb(38, 38, 38);"/>
<path clip-path="url(#contour)" comment="clipped 'rose' FieldBackground" d="M 95.3413314819336,79.40882110595703 C 94.61526489257812,79.92791748046875 93.32598114013672,80.61956024169922 92.0706558227539,80.91189575195312 C 91.7293930053711,80.10395812988281 91.1905288696289,79.80868530273438 90.53804779052734,79.80868530273438 C 90.37001037597656,79.80868530273438 90.1944351196289,79.8282699584961 90.01275634765625,79.86372375488281 C 89.52225494384766,80.00086975097656 89.16242218017578,80.21468353271484 88.6282958984375,80.21468353271484 C 88.60903930664062,80.21468353271484 88.58954620361328,80.21440887451172 88.56981658935547,80.21383666992188 L 88.56867980957031,80.21390533447266 L 88.54521942138672,80.21390533447266 L 88.5450668334961,80.21381378173828 C 88.52531433105469,80.21438598632812 88.50579833984375,80.21466064453125 88.48651123046875,80.21466064453125 C 87.95238494873047,80.21466064453125 87.59196472167969,80.00083923339844 87.10148620605469,79.86370086669922 C 86.92723083496094,79.8297119140625 86.75862121582031,79.81024932861328 86.59685516357422,79.80873107910156 L 86.59672546386719,79.80870819091797 C 86.58985137939453,79.80864715576172 86.5829849243164,79.8086166381836 86.57613372802734,79.8086166381836 C 85.88455963134766,79.8086166381836 85.32050323486328,80.14041137695312 84.9842529296875,81.06290435791016 C 84.98413848876953,81.06351470947266 84.9840316772461,81.06412506103516 84.98391723632812,81.06473541259766 C 83.74156951904297,80.51785278320312 82.88762664794922,80.15711975097656 82.27864074707031,79.51118469238281 L 82.27850341796875,79.51118469238281 C 82.62763214111328,80.2216796875 83.04564666748047,81.38963317871094 83.22335052490234,82.55875396728516 C 83.18144226074219,82.5533676147461 83.13931274414062,82.54822540283203 83.09699249267578,82.54328918457031 C 81.91873931884766,82.6195068359375 81.47624206542969,83.31416320800781 81.36872863769531,84.2899398803711 C 81.34942626953125,84.83609008789062 81.447265625,85.26737976074219 81.26484680175781,85.82495880126953 L 81.26456451416016,85.82613372802734 L 81.25763702392578,85.84941101074219 L 81.25750732421875,85.8495864868164 C 81.10523986816406,86.41685485839844 80.78998565673828,86.71632385253906 80.5092544555664,87.17859649658203 C 80.4265365600586,87.34149169921875 80.35887145996094,87.5030517578125 80.3097152709961,87.66309356689453 L 80.30967712402344,87.66305541992188 C 80.10892486572266,88.31664276123047 80.21637725830078,88.944580078125 80.86286926269531,89.52693939208984 C 79.87993621826172,90.54122161865234 79.22798156738281,91.24303436279297 78.40885925292969,91.59016418457031 L 78.40892791748047,91.59016418457031 C 78.61763763427734,91.57179260253906 78.858642578125,91.56134033203125 79.12130737304688,91.56134033203125 C 79.91033935546875,91.56134033203125 80.89483642578125,91.65567016601562 81.78667449951172,91.9131851196289 C 81.78199768066406,91.9244613647461 81.77732849121094,91.93576049804688 81.77266693115234,91.94708251953125 C 81.50366973876953,93.14085388183594 82.01683044433594,93.78094482421875 82.88568115234375,94.16885375976562 C 83.3837661743164,94.34529113769531 83.80964660644531,94.3721923828125 84.27131652832031,94.71415710449219 L 84.27228546142578,94.71475982666016 L 84.29175567626953,94.72834014892578 L 84.29193115234375,94.72852325439453 C 84.77116394042969,95.04326629638672 84.95654296875,95.44304656982422 85.302001953125,95.85533905029297 C 85.42838287353516,95.98456573486328 85.55785369873047,96.09837341308594 85.69131469726562,96.193359375 L 85.69126892089844,96.19329833984375 C 85.97320556640625,96.39399719238281 86.27259063720703,96.5106430053711 86.59606170654297,96.5106430053711 C 86.93595123291016,96.5106430053711 87.30243682861328,96.3818588256836 87.70323944091797,96.08647918701172 C 87.71527862548828,96.0738296508789 87.72727966308594,96.0611801147461 87.73922729492188,96.04851531982422 C 88.30233764648438,97.09693908691406 88.69075012207031,97.8553695678711 88.78081512451172,98.6707763671875 L 88.78082275390625,98.6707763671875 C 88.91522979736328,97.94049072265625 89.23709869384766,96.85816192626953 89.7259750366211,95.8752670288086 C 89.7851791381836,95.93270874023438 89.84577941894531,95.98986053466797 89.9073715209961,96.04681396484375 C 90.28888702392578,96.2916259765625 90.63334655761719,96.39989471435547 90.94841003417969,96.39989471435547 C 91.46273040771484,96.39989471435547 91.8987045288086,96.11137390136719 92.28961181640625,95.6573486328125 C 92.60907745361328,95.2230453491211 92.76904296875,94.81222534179688 93.22798919677734,94.4664077758789 L 93.22884368896484,94.46560668945312 L 93.2474594116211,94.45075225830078 L 93.24767303466797,94.45068359375 C 93.68740844726562,94.0788803100586 94.11131286621094,94.02344512939453 94.59758758544922,93.81437683105469 C 94.75568389892578,93.73103332519531 94.90077209472656,93.63972473144531 95.02993774414062,93.53852081298828 L 95.02983093261719,93.53854370117188 C 95.53202819824219,93.14498901367188 95.7930679321289,92.60292053222656 95.64069366455078,91.80668640136719 C 96.84153747558594,91.54689025878906 97.7081527709961,91.32321166992188 98.47615051269531,91.32321166992188 C 98.69449615478516,91.32321166992188 98.90487670898438,91.34129333496094 99.1126937866211,91.38176727294922 C 98.37039947509766,90.97195434570312 97.25777435302734,90.16241455078125 96.43760681152344,89.20181274414062 C 97.13520812988281,88.47964477539062 97.07249450683594,87.714111328125 96.64757537841797,86.92819213867188 C 96.35526275634766,86.47369384765625 96.03279876708984,86.18355560302734 95.86629486083984,85.62061309814453 L 95.8658676147461,85.61949920654297 L 95.85836029052734,85.59645080566406 L 95.85836029052734,85.59622955322266 C 95.66199493408203,85.04383850097656 95.74870300292969,84.60935974121094 95.71565246582031,84.06392669677734 C 95.69088745117188,83.88156127929688 95.6546401977539,83.70944213867188 95.60426330566406,83.54979705810547 L 95.604248046875,83.54981994628906 C 95.40753936767578,82.92654418945312 94.99564361572266,82.49358367919922 94.21487426757812,82.3877182006836 C 94.57289123535156,81.04224395751953 94.80573272705078,80.1186294555664 95.3413314819336,79.40882110595703 Z" style="fill-rule: evenodd; fill: rgb(230, 230, 230); stroke-width: 1px; stroke: rgb(38, 38, 38);"/>
<path clip-path="url(#contour)" comment="clipped 'rose' FieldBackground" d="M 144.06051635742188,138.58810424804688 C 144.06051635742188,138.5882568359375 144.0605010986328,138.5884246826172 144.0605010986328,138.58859252929688 C 144.10888671875,139.6310577392578 144.19949340820312,140.41046142578125 144.3066864013672,141.0866241455078 C 144.3067169189453,141.08663940429688 144.3067626953125,141.08663940429688 144.30679321289062,141.08663940429688 C 144.19955444335938,140.410400390625 144.10891723632812,139.63088989257812 144.06051635742188,138.58810424804688 Z" style="fill-rule: evenodd; fill: rgb(230, 230, 230); stroke-width: 1px; stroke: rgb(38, 38, 38);"/>
<path clip-path="url(#contour)" comment="clipped 'rose' FieldBackground" d="M 141.25479125976562,142.7210235595703 C 141.37351989746094,142.74057006835938 141.48883056640625,142.75831604003906 141.60142517089844,142.774658203125 C 141.60142517089844,142.77464294433594 141.60142517089844,142.77464294433594 141.60142517089844,142.77464294433594 C 141.4888458251953,142.75830078125 141.37351989746094,142.7405548095703 141.25479125976562,142.7210235595703 Z" style="fill-rule: evenodd; fill: rgb(230, 230, 230); stroke-width: 1px; stroke: rgb(38, 38, 38);"/>
<path clip-path="url(#contour)" comment="clipped 'rose' FieldBackground" d="M 148.87548828125,142.1265869140625 C 148.6234893798828,142.20118713378906 148.3868865966797,142.26722717285156 148.1632537841797,142.32608032226562 C 147.58084106445312,142.5887908935547 147.10829162597656,142.8323211669922 146.68841552734375,143.06666564941406 C 146.6959991455078,143.0940704345703 146.7031707763672,143.1216583251953 146.70993041992188,143.1494140625 C 147.2848663330078,142.83319091796875 147.9583282470703,142.50039672851562 148.87548828125,142.1265869140625 Z" style="fill-rule: evenodd; fill: rgb(230, 230, 230); stroke-width: 1px; stroke: rgb(38, 38, 38);"/>
<path clip-path="url(#contour)" comment="clipped 'rose' FieldBackground" d="M 142.37994384765625,145.90524291992188 C 142.25779724121094,146.1820831298828 142.12184143066406,146.47409057617188 141.96275329589844,146.7915496826172 C 142.12184143066406,146.47410583496094 142.2578125,146.1820831298828 142.3799591064453,145.90525817871094 C 142.3799591064453,145.90524291992188 142.3799591064453,145.90524291992188 142.37994384765625,145.90524291992188 Z" style="fill-rule: evenodd; fill: rgb(230, 230, 230); stroke-width: 1px; stroke: rgb(38, 38, 38);"/>
<path clip-path="url(#contour)" comment="clipped 'rose' FieldBackground" d="M 154.61611938476562,147.02638244628906 C 154.6162109375,147.0264434814453 154.61631774902344,147.0264892578125 154.6164093017578,147.02655029296875 L 154.61660766601562,147.0264892578125 C 154.61643981933594,147.02645874023438 154.6162872314453,147.02642822265625 154.61611938476562,147.02638244628906 Z" style="fill-rule: evenodd; fill: rgb(230, 230, 230); stroke-width: 1px; stroke: rgb(38, 38, 38);"/>
<path clip-path="url(#contour)" comment="clipped 'rose' FieldBackground" d="M 145.49635314941406,146.13247680664062 C 145.496337890625,146.13247680664062 145.496337890625,146.1324920654297 145.496337890625,146.1324920654297 C 145.7871856689453,146.41580200195312 146.0955810546875,146.73324584960938 146.43756103515625,147.11602783203125 C 146.09559631347656,146.73324584960938 145.78720092773438,146.41578674316406 145.49635314941406,146.13247680664062 Z" style="fill-rule: evenodd; fill: rgb(230, 230, 230); stroke-width: 1px; stroke: rgb(38, 38, 38);"/>
<path clip-path="url(#contour)" comment="clipped 'rose' FieldBackground" d="M 146.5072021484375,147.19436645507812 C 146.70553588867188,147.4185333251953 146.9152069091797,147.66477966308594 147.13922119140625,147.93896484375 C 147.1392364501953,147.93898010253906 147.1392364501953,147.93898010253906 147.13925170898438,147.93899536132812 C 146.91522216796875,147.664794921875 146.70553588867188,147.41854858398438 146.5072021484375,147.19436645507812 Z" style="fill-rule: evenodd; fill: rgb(230, 230, 230); stroke-width: 1px; stroke: rgb(38, 38, 38);"/>
<path clip-path="url(#contour)" comment="clipped 'rose' FieldBackground" d="M 141.2965850830078,148.0228271484375 C 141.2906951904297,148.03306579589844 141.28475952148438,148.04331970214844 141.27879333496094,148.05361938476562 C 141.28475952148438,148.04331970214844 141.2906951904297,148.0330810546875 141.2965850830078,148.0228271484375 Z" style="fill-rule: evenodd; fill: rgb(230, 230, 230); stroke-width: 1px; stroke: rgb(38, 38, 38);"/>
<path clip-path="url(#contour)" comment="clipped 'rose' FieldBackground" d="M 142.78379821777344,146.1852264404297 C 142.33546447753906,146.6810760498047 141.84564208984375,147.27174377441406 141.251708984375,148.1002655029297 C 141.2535858154297,148.09703063964844 141.25546264648438,148.09381103515625 141.25732421875,148.09059143066406 C 141.2554473876953,148.0938262939453 141.25355529785156,148.09707641601562 141.2516632080078,148.10032653808594 C 141.25167846679688,148.10031127929688 141.25169372558594,148.10028076171875 141.251708984375,148.1002655029297 C 141.25169372558594,148.10028076171875 141.25167846679688,148.10031127929688 141.2516632080078,148.100341796875 C 141.2516632080078,148.100341796875 141.2516632080078,148.10032653808594 141.2516632080078,148.10032653808594 C 141.25161743164062,148.1004180908203 141.25157165527344,148.10049438476562 141.25152587890625,148.10057067871094 C 141.84555053710938,147.2718963623047 142.33544921875,146.68115234375 142.78382873535156,146.18524169921875 C 142.7838134765625,146.18524169921875 142.78379821777344,146.18524169921875 142.78379821777344,146.1852264404297 Z" style="fill-rule: evenodd; fill: rgb(230, 230, 230); stroke-width: 1px; stroke: rgb(38, 38, 38);"/>
<path clip-path="url(#contour)" comment="clipped 'rose' FieldBackground" d="M 150.84475708007812,135.05345153808594 C 150.11868286132812,135.57254028320312 148.82940673828125,136.26417541503906 147.57408142089844,136.5565185546875 C 147.23281860351562,135.7485809326172 146.69395446777344,135.45330810546875 146.04147338867188,135.45330810546875 C 145.87342834472656,135.45330810546875 145.69786071777344,135.472900390625 145.51617431640625,135.5083465576172 C 145.0256805419922,135.64549255371094 144.6658477783203,135.85931396484375 144.13172912597656,135.85931396484375 C 144.11245727539062,135.85931396484375 144.0929718017578,135.85902404785156 144.0732421875,135.85845947265625 L 144.0720977783203,135.8585205078125 L 144.04864501953125,135.8585205078125 L 144.04849243164062,135.8584442138672 C 144.0287322998047,135.8590087890625 144.00921630859375,135.85928344726562 143.98992919921875,135.85928344726562 C 143.455810546875,135.85928344726562 143.0953826904297,135.6454620361328 142.6049041748047,135.50833129882812 C 142.43064880371094,135.47433471679688 142.2620391845703,135.4548797607422 142.10028076171875,135.45335388183594 L 142.1001434326172,135.45333862304688 C 142.09327697753906,135.45327758789062 142.08641052246094,135.45323181152344 142.07955932617188,135.45323181152344 C 141.3879852294922,135.45323181152344 140.8239288330078,135.7850341796875 140.4876708984375,136.70753479003906 C 140.48756408691406,136.70814514160156 140.48745727539062,136.70875549316406 140.48733520507812,136.70936584472656 C 139.2449951171875,136.1624755859375 138.39105224609375,135.80174255371094 137.7820587158203,135.1558074951172 L 137.78192138671875,135.1558074951172 C 138.1310577392578,135.86630249023438 138.549072265625,137.0342559814453 138.72677612304688,138.203369140625 C 138.6848602294922,138.197998046875 138.64273071289062,138.19285583496094 138.6004180908203,138.1879119873047 C 137.4221649169922,138.26412963867188 136.9796600341797,138.9587860107422 136.8721466064453,139.93455505371094 C 136.85284423828125,140.480712890625 136.95068359375,140.91200256347656 136.7682647705078,141.46958923339844 L 136.7679901123047,141.47076416015625 L 136.7610626220703,141.49403381347656 L 136.7609405517578,141.4942169189453 C 136.60865783691406,142.0614776611328 136.2934112548828,142.36094665527344 136.01268005371094,142.82322692871094 C 135.92996215820312,142.98611450195312 135.86228942871094,143.14767456054688 135.81314086914062,143.30772399902344 L 135.81309509277344,143.30767822265625 C 135.6123504638672,143.96127319335938 135.7198028564453,144.58920288085938 136.3662872314453,145.1715545654297 C 135.38336181640625,146.18585205078125 134.7313995361328,146.88766479492188 133.9122772216797,147.2347869873047 L 133.912353515625,147.2347869873047 C 134.12106323242188,147.21641540527344 134.362060546875,147.20596313476562 134.62472534179688,147.20596313476562 C 135.41375732421875,147.20596313476562 136.39825439453125,147.30029296875 137.29010009765625,147.5578155517578 C 137.28541564941406,147.569091796875 137.28074645996094,147.58038330078125 137.27609252929688,147.59170532226562 C 137.00709533691406,148.7854766845703 137.52024841308594,149.42556762695312 138.38909912109375,149.8134765625 C 138.88719177246094,149.9899139404297 139.3130645751953,150.01681518554688 139.7747344970703,150.35877990722656 L 139.7757110595703,150.35939025878906 L 139.79518127441406,150.3729705810547 L 139.79534912109375,150.37315368652344 C 140.2745819091797,150.68789672851562 140.4599609375,151.08767700195312 140.805419921875,151.49996948242188 C 140.9318084716797,151.6291961669922 141.061279296875,151.7429962158203 141.19473266601562,151.83798217773438 L 141.19468688964844,151.83792114257812 C 141.4766387939453,152.0386199951172 141.77601623535156,152.15525817871094 142.0994873046875,152.15525817871094 C 142.4393768310547,152.15525817871094 142.8058624267578,152.02647399902344 143.2066650390625,151.73110961914062 C 143.2187042236328,151.7184600830078 143.23069763183594,151.70579528808594 143.24264526367188,151.69314575195312 C 143.80575561523438,152.74156188964844 144.19418334960938,153.5 144.28424072265625,154.31539916992188 C 144.4186553955078,153.58511352539062 144.7405242919922,152.50279235839844 145.22940063476562,151.5198974609375 C 145.28860473632812,151.57733154296875 145.3491973876953,151.63449096679688 145.41079711914062,151.69143676757812 C 145.7923126220703,151.93624877929688 146.1367645263672,152.04452514648438 146.4518280029297,152.04452514648438 C 146.96615600585938,152.04452514648438 147.40213012695312,151.75599670410156 147.79302978515625,151.30197143554688 C 148.1125030517578,150.86767578125 148.2724609375,150.45684814453125 148.73141479492188,150.1110382080078 L 148.73226928710938,150.1102294921875 L 148.75088500976562,150.0953826904297 L 148.7510986328125,150.09530639648438 C 149.19082641601562,149.72349548339844 149.61473083496094,149.66807556152344 150.10101318359375,149.45899963378906 C 150.2591094970703,149.3756561279297 150.40419006347656,149.2843475341797 150.53335571289062,149.18313598632812 L 150.5332489013672,149.18316650390625 C 151.0354461669922,148.78961181640625 151.29649353027344,148.24754333496094 151.1441192626953,147.45130920410156 C 152.34495544433594,147.19151306152344 153.21157836914062,146.96783447265625 153.9795684814453,146.96783447265625 C 154.1979217529297,146.96783447265625 154.40829467773438,146.9859161376953 154.61611938476562,147.02638244628906 C 153.8738250732422,146.6165771484375 152.76119995117188,145.80703735351562 151.94102478027344,144.846435546875 C 152.6386260986328,144.124267578125 152.57591247558594,143.35873413085938 152.1510009765625,142.57281494140625 C 151.8586883544922,142.11831665039062 151.53622436523438,141.82818603515625 151.36972045898438,141.26524353027344 L 151.36929321289062,141.26412963867188 L 151.36178588867188,141.24107360839844 L 151.36178588867188,141.2408447265625 C 151.16542053222656,140.68846130371094 151.2521209716797,140.2539825439453 151.21908569335938,139.7085418701172 C 151.19430541992188,139.52618408203125 151.15806579589844,139.35406494140625 151.10768127441406,139.19442749023438 L 151.107666015625,139.19444274902344 C 150.9109649658203,138.5711669921875 150.4990692138672,138.13821411132812 149.71829223632812,138.0323486328125 C 150.07630920410156,136.68685913085938 150.3091583251953,135.7632598876953 150.84475708007812,135.05345153808594 Z" style="fill-rule: evenodd; fill: rgb(230, 230, 230); stroke-width: 1px; stroke: rgb(38, 38, 38);"/>
<path clip-path="url(#contour)" comment="outer shield shape border" d="M 0.0,0.0 L 0.0,100.0 C 0.0,150.0 40.0,200.0 100.0,230.0 C 160.0,200.0 200.0,150.0 200.0,100.0 L 200.0,0.0 L 0.0,0.0 Z" style="fill-rule: evenodd; fill: none; stroke-width: 1px; stroke: rgb(0, 0, 0);"/>
</g>
</svg>
