<?xml version="1.0" encoding="UTF-8" standalone="no"?>
<svg xmlns="http://www.w3.org/2000/svg" height="246.0" width="216.0">
<defs>
<clipPath id="contour">
<path d="M 8.0,8.0 L 208.0,8.0 L 208.0,108.0 C 208.0,158.0 168.0,208.0 108.0,238.0 C 48.0,208.0 8.0,158.0 8.0,108.0 L 8.0,8.0 Z"/>
</clipPath>
<radialGradient id="lighting">
<stop offset="25%" stop-color="white" stop-opacity="35%"/>
<stop offset="100%" stop-color="white" stop-opacity="0%"/>
</radialGradient>
</defs>
<g>
<path d="M 8.0,8.0 L 8.0,108.0 C 8.0,158.0 48.0,208.0 108.0,238.0 C 168.0,208.0 208.0,158.0 208.0,108.0 L 208.0,8.0 L 8.0,8.0 Z" style="fill: rgb(217, 38, 38); stroke-width: 1px; stroke: none;"/>
<path d="M 8.0,8.0 C 8.0,23.0 18.0,33.0 33.0,33.0 C 48.0,33.0 58.0,23.0 58.0,8.0 L 53.0,8.0 C 53.0,20.5 45.5,28.0 33.0,28.0 C 20.5,28.0 13.0,20.5 13.0,8.0 L 8.0,8.0 Z" style="fill: rgb(217, 217, 38); stroke-width: 1px; stroke: none;"/>
<path d="M 58.0,8.0 C 58.0,23.0 68.0,33.0 83.0,33.0 C 98.0,33.0 108.0,23.0 108.0,8.0 L 103.0,8.0 C 103.0,20.5 95.5,28.0 83.0,28.0 C 70.5,28.0 63.0,20.5 63.0,8.0 L 58.0,8.0 Z" style="fill: rgb(217, 217, 38); stroke-width: 1px; stroke: none;"/>
<path d="M 108.0,8.0 C 108.0,23.0 118.0,33.0 133.0,33.0 C 148.0,33.0 158.0,23.0 158.0,8.0 L 153.0,8.0 C 153.0,20.5 145.5,28.0 133.0,28.0 C 120.5,28.0 113.0,20.5 113.0,8.0 L 108.0,8.0 Z" style="fill: rgb(217, 217, 38); stroke-width: 1px; stroke: none;"/>
<path d="M 158.0,8.0 C 158.0,23.0 168.0,33.0 183.0,33.0 C 198.0,33.0 208.0,23.0 208.0,8.0 L 203.0,8.0 C 203.0,20.5 195.5,28.0 183.0,28.0 C 170.5,28.0 163.0,20.5 163.0,8.0 L 158.0,8.0 Z" style="fill: rgb(217, 217, 38); stroke-width: 1px; stroke: none;"/>
<path d="M 28.0,33.0 C 28.0,45.5 20.5,53.0 8.0,53.0 L 8.0,58.0 C 23.0,58.0 33.0,48.0 33.0,33.0 L 28.0,33.0 Z" style="fill: rgb(217, 217, 38); stroke-width: 1px; stroke: none;"/>
<path d="M 33.0,33.0 C 33.0,48.0 43.0,58.0 58.0,58.0 C 73.0,58.0 83.0,48.0 83.0,33.0 L 78.0,33.0 C 78.0,45.5 70.5,53.0 58.0,53.0 C 45.5,53.0 38.0,45.5 38.0,33.0 L 33.0,33.0 Z" style="fill: rgb(217, 217, 38); stroke-width: 1px; stroke: none;"/>
<path d="M 83.0,33.0 C 83.0,48.0 93.0,58.0 108.0,58.0 C 123.0,58.0 133.0,48.0 133.0,33.0 L 128.0,33.0 C 128.0,45.5 120.5,53.0 108.0,53.0 C 95.5,53.0 88.0,45.5 88.0,33.0 L 83.0,33.0 Z" style="fill: rgb(217, 217, 38); stroke-width: 1px; stroke: none;"/>
<path d="M 133.0,33.0 C 133.0,48.0 143.0,58.0 158.0,58.0 C 173.0,58.0 183.0,48.0 183.0,33.0 L 178.0,33.0 C 178.0,45.5 170.5,53.0 158.0,53.0 C 145.5,53.0 138.0,45.5 138.0,33.0 L 133.0,33.0 Z" style="fill: rgb(217, 217, 38); stroke-width: 1px; stroke: none;"/>
<path d="M 183.0,33.0 C 183.0,48.0 193.0,58.0 208.0,58.0 L 208.0,53.0 C 195.5,53.0 188.0,45.5 188.0,33.0 L 183.0,33.0 Z" style="fill: rgb(217, 217, 38); stroke-width: 1px; stroke: none;"/>
<path d="M 8.0,58.0 C 8.0,73.0 18.0,83.0 33.0,83.0 C 48.0,83.0 58.0,73.0 58.0,58.0 L 53.0,58.0 C 53.0,70.5 45.5,78.0 33.0,78.0 C 20.5,78.0 13.0,70.5 13.0,58.0 L 8.0,58.0 Z" style="fill: rgb(217, 217, 38); stroke-width: 1px; stroke: none;"/>
<path d="M 58.0,58.0 C 58.0,73.0 68.0,83.0 83.0,83.0 C 98.0,83.0 108.0,73.0 108.0,58.0 L 103.0,58.0 C 103.0,70.5 95.5,78.0 83.0,78.0 C 70.5,78.0 63.0,70.5 63.0,58.0 L 58.0,58.0 Z" style="fill: rgb(217, 217, 38); stroke-width: 1px; stroke: none;"/>
<path d="M 108.0,58.0 C 108.0,73.0 118.0,83.0 133.0,83.0 C 148.0,83.0 158.0,73.0 158.0,58.0 L 153.0,58.0 C 153.0,70.5 145.5,78.0 133.0,78.0 C 120.5,78.0 113.0,70.5 113.0,58.0 L 108.0,58.0 Z" style="fill: rgb(217, 217, 38); stroke-width: 1px; stroke: none;"/>
<path d="M 158.0,58.0 C 158.0,73.0 168.0,83.0 183.0,83.0 C 198.0,83.0 208.0,73.0 208.0,58.0 L 203.0,58.0 C 203.0,70.5 195.5,78.0 183.0,78.0 C 170.5,78.0 163.0,70.5 163.0,58.0 L 158.0,58.0 Z" style="fill: rgb(217, 217, 38); stroke-width: 1px; stroke: none;"/>
<path d="M 28.0,83.0 C 28.0,95.5 20.5,103.0 8.0,103.0 L 8.0,108.0 C 23.0,108.0 33.0,98.0 33.0,83.0 L 28.0,83.0 Z" style="fill: rgb(217, 217, 38); stroke-width: 1px; stroke: none;"/>
<path d="M 33.0,83.0 C 33.0,98.0 43.0,108.0 58.0,108.0 C 73.0,108.0 83.0,98.0 83.0,83.0 L 78.0,83.0 C 78.0,95.5 70.5,103.0 58.0,103.0 C 45.5,103.0 38.0,95.5 38.0,83.0 L 33.0,83.0 Z" style="fill: rgb(217, 217, 38); stroke-width: 1px; stroke: none;"/>
<path d="M 83.0,83.0 C 83.0,98.0 93.0,108.0 108.0,108.0 C 123.0,108.0 133.0,98.0 133.0,83.0 L 128.0,83.0 C 128.0,95.5 120.5,103.0 108.0,103.0 C 95.5,103.0 88.0,95.5 88.0,83.0 L 83.0,83.0 Z" style="fill: rgb(217, 217, 38); stroke-width: 1px; stroke: none;"/>
<path d="M 133.0,83.0 C 133.0,98.0 143.0,108.0 158.0,108.0 C 173.0,108.0 183.0,98.0 183.0,83.0 L 178.0,83.0 C 178.0,95.5 170.5,103.0 158.0,103.0 C 145.5,103.0 138.0,95.5 138.0,83.0 L 133.0,83.0 Z" style="fill: rgb(217, 217, 38); stroke-width: 1px; stroke: none;"/>
<path d="M 183.0,83.0 C 183.0,98.0 193.0,108.0 208.0,108.0 L 208.0,103.0 C 195.5,103.0 188.0,95.5 188.0,83.0 L 183.0,83.0 Z" style="fill: rgb(217, 217, 38); stroke-width: 1px; stroke: none;"/>
<path d="M 8.0,108.0 C 8.0,123.0 18.0,133.0 33.0,133.0 C 48.0,133.0 58.0,123.0 58.0,108.0 L 53.0,108.0 C 53.0,120.5 45.5,128.0 33.0,128.0 C 20.5,128.0 13.0,120.5 13.0,108.0 L 8.0,108.0 Z" style="fill: rgb(217, 217, 38); stroke-width: 1px; stroke: none;"/>
<path d="M 58.0,108.0 C 58.0,123.0 68.0,133.0 83.0,133.0 C 98.0,133.0 108.0,123.0 108.0,108.0 L 103.0,108.0 C 103.0,120.5 95.5,128.0 83.0,128.0 C 70.5,128.0 63.0,120.5 63.0,108.0 L 58.0,108.0 Z" style="fill: rgb(217, 217, 38); stroke-width: 1px; stroke: none;"/>
<path d="M 108.0,108.0 C 108.0,123.0 118.0,133.0 133.0,133.0 C 148.0,133.0 158.0,123.0 158.0,108.0 L 153.0,108.0 C 153.0,120.5 145.5,128.0 133.0,128.0 C 120.5,128.0 113.0,120.5 113.0,108.0 L 108.0,108.0 Z" style="fill: rgb(217, 217, 38); stroke-width: 1px; stroke: none;"/>
<path d="M 158.0,108.0 C 158.0,123.0 168.0,133.0 183.0,133.0 C 197.99951171875,133.0 207.99935913085938,123.00064849853516 208.0,108.00144958496094 L 208.0,108.00144958496094 C 208.0,108.00096893310547 208.0,108.00048065185547 208.0,108.0 L 203.0,108.0 C 203.0,120.5 195.5,128.0 183.0,128.0 C 170.5,128.0 163.0,120.5 163.0,108.0 L 158.0,108.0 Z" style="fill: rgb(217, 217, 38); stroke-width: 1px; stroke: none;"/>
<path d="M 28.0,133.0 C 28.0,141.8299102783203 24.257568359375,148.1648712158203 17.65391445159912,151.1236572265625 L 17.65391445159912,151.1236572265625 C 18.317426681518555,152.60964965820312 19.01328468322754,154.0901336669922 19.740904808044434,155.56454467773438 L 19.740904808044434,155.56454467773438 C 27.98912239074707,151.7308349609375 33.0,143.61813354492188 33.0,133.0 L 28.0,133.0 Z" style="fill: rgb(217, 217, 38); stroke-width: 1px; stroke: none;"/>
<path d="M 33.0,133.0 C 33.0,148.0 43.0,158.0 58.0,158.0 C 73.0,158.0 83.0,148.0 83.0,133.0 L 78.0,133.0 C 78.0,145.5 70.5,153.0 58.0,153.0 C 45.5,153.0 38.0,145.5 38.0,133.0 L 33.0,133.0 Z" style="fill: rgb(217, 217, 38); stroke-width: 1px; stroke: none;"/>
<path d="M 83.0,133.0 C 83.0,148.0 93.0,158.0 108.0,158.0 C 123.0,158.0 133.0,148.0 133.0,133.0 L 128.0,133.0 C 128.0,145.5 120.5,153.0 108.0,153.0 C 95.5,153.0 88.0,145.5 88.0,133.0 L 83.0,133.0 Z" style="fill: rgb(217, 217, 38); stroke-width: 1px; stroke: none;"/>
<path d="M 133.0,133.0 C 133.0,148.0 143.0,158.0 158.0,158.0 C 173.0,158.0 183.0,148.0 183.0,133.0 L 178.0,133.0 C 178.0,145.5 170.5,153.0 158.0,153.0 C 145.5,153.0 138.0,145.5 138.0,133.0 L 133.0,133.0 Z" style="fill: rgb(217, 217, 38); stroke-width: 1px; stroke: none;"/>
<path d="M 183.0,133.0 C 183.0,143.61813354492188 188.01087951660156,151.7308349609375 196.25909423828125,155.56454467773438 L 196.25909423828125,155.56454467773438 C 196.98670959472656,154.0901336669922 197.6825714111328,152.60964965820312 198.34608459472656,151.1236572265625 L 198.34608459472656,151.1236572265625 C 191.742431640625,148.1648712158203 188.0,141.8299102783203 188.0,133.0 L 183.0,133.0 Z" style="fill: rgb(217, 217, 38); stroke-width: 1px; stroke: none;"/>
<path d="M 53.0,158.0 C 53.0,170.30209350585938 45.735599517822266,177.76126098632812 33.58993148803711,177.99436950683594 L 33.58993148803711,177.99436950683594 C 34.77490234375,179.5807647705078 35.99701499938965,181.1553955078125 37.25541305541992,182.71737670898438 L 37.25541305541992,182.71737670898438 C 49.861454010009766,180.99488830566406 58.0,171.53208923339844 58.0,158.0 L 53.0,158.0 Z" style="fill: rgb(217, 217, 38); stroke-width: 1px; stroke: none;"/>
<path d="M 58.0,158.0 C 58.0,173.0 68.0,183.0 83.0,183.0 C 98.0,183.0 108.0,173.0 108.0,158.0 L 103.0,158.0 C 103.0,170.5 95.5,178.0 83.0,178.0 C 70.5,178.0 63.0,170.5 63.0,158.0 L 58.0,158.0 Z" style="fill: rgb(217, 217, 38); stroke-width: 1px; stroke: none;"/>
<path d="M 108.0,158.0 C 108.0,173.0 118.0,183.0 133.0,183.0 C 148.0,183.0 158.0,173.0 158.0,158.0 L 153.0,158.0 C 153.0,170.5 145.5,178.0 133.0,178.0 C 120.5,178.0 113.0,170.5 113.0,158.0 L 108.0,158.0 Z" style="fill: rgb(217, 217, 38); stroke-width: 1px; stroke: none;"/>
<path d="M 158.0,158.0 C 158.0,171.53208923339844 166.1385498046875,180.99488830566406 178.7445831298828,182.71737670898438 L 178.7445831298828,182.71737670898438 C 180.00299072265625,181.1553955078125 181.22509765625,179.5807647705078 182.41006469726562,177.99436950683594 L 182.41006469726562,177.99436950683594 C 170.264404296875,177.76126098632812 163.0,170.30209350585938 163.0,158.0 L 158.0,158.0 Z" style="fill: rgb(217, 217, 38); stroke-width: 1px; stroke: none;"/>
<path d="M 37.48360824584961,183.0 L 37.48360824584961,183.0 C 37.65728759765625,183.21461486816406 37.8316535949707,183.4290008544922 38.00670051574707,183.6431427001953 L 38.00669860839844,183.6431427001953 C 38.00223731994629,183.43026733398438 38.0,183.21588134765625 38.0,183.0 L 37.48360824584961,183.0 Z" style="fill: rgb(217, 217, 38); stroke-width: 1px; stroke: none;"/>
<path d="M 78.0,183.0 C 78.0,195.5 70.5,203.0 58.0,203.0 C 57.445823669433594,203.0 56.90147399902344,202.98526000976562 56.36717224121094,202.95599365234375 L 56.367164611816406,202.95599365234375 C 58.14933395385742,204.5828399658203 59.97342300415039,206.18838500976562 61.83818435668945,207.7713623046875 L 61.83818435668945,207.7713623046875 C 74.68158721923828,206.202392578125 83.0,196.68080139160156 83.0,183.0 L 37.48360824584961,183.0 Z" style="fill: rgb(217, 217, 38); stroke-width: 1px; stroke: none;"/>
<path d="M 83.0,183.0 C 83.0,198.0 93.0,208.0 108.0,208.0 C 123.0,208.0 133.0,198.0 133.0,183.0 L 128.0,183.0 C 128.0,195.5 120.5,203.0 108.0,203.0 C 95.5,203.0 88.0,195.5 88.0,183.0 L 83.0,183.0 Z" style="fill: rgb(217, 217, 38); stroke-width: 1px; stroke: none;"/>
<path d="M 178.0,183.0 C 178.0,183.21588134765625 177.9977569580078,183.43026733398438 177.99330139160156,183.6431427001953 L 177.99330139160156,183.6431427001953 C 178.16835021972656,183.4290008544922 178.34271240234375,183.21461486816406 178.51638793945312,183.0 L 178.0,183.0 Z" style="fill: rgb(217, 217, 38); stroke-width: 1px; stroke: none;"/>
<path d="M 133.0,183.0 C 133.0,196.68080139160156 141.3184051513672,206.202392578125 154.1618194580078,207.7713623046875 L 154.1618194580078,207.7713623046875 C 156.02658081054688,206.18838500976562 157.8506622314453,204.5828399658203 159.63282775878906,202.95599365234375 L 159.63282775878906,202.95599365234375 C 159.09852600097656,202.98526000976562 158.55418395996094,203.0 158.0,203.0 C 145.5,203.0 138.0,195.5 138.0,183.0 L 178.0,183.0 Z" style="fill: rgb(217, 217, 38); stroke-width: 1px; stroke: none;"/>
<path d="M 62.10798645019531,208.0 C 62.40739440917969,208.25328063964844 62.70784378051758,208.5059814453125 63.00932693481445,208.7581024169922 L 63.00932693481445,208.7581024169922 C 63.003116607666016,208.5074920654297 63.0,208.25479125976562 63.0,208.0 L 62.10798645019531,208.0 Z" style="fill: rgb(217, 217, 38); stroke-width: 1px; stroke: none;"/>
<path d="M 103.0,208.0 C 103.0,218.3860626220703 97.82222747802734,225.3202667236328 88.90072631835938,227.36859130859375 L 88.90072631835938,227.36859130859375 C 90.72840118408203,228.49697875976562 92.58028411865234,229.60597229003906 94.45567321777344,230.69483947753906 L 94.45567321777344,230.69483947753906 C 102.87345886230469,226.91668701171875 108.0,218.73997497558594 108.0,208.0 L 62.10798645019531,208.0 Z" style="fill: rgb(217, 217, 38); stroke-width: 1px; stroke: none;"/>
<path d="M 153.0,208.0 C 153.0,208.25479125976562 152.99688720703125,208.5074920654297 152.9906768798828,208.7581024169922 L 152.9906768798828,208.7581024169922 C 153.2921600341797,208.5059814453125 153.5926055908203,208.25328063964844 153.8920135498047,208.0 L 153.0,208.0 Z" style="fill: rgb(217, 217, 38); stroke-width: 1px; stroke: none;"/>
<path d="M 108.0,208.0 C 108.0,218.73997497558594 113.12654113769531,226.91668701171875 121.54432678222656,230.69483947753906 L 121.54432678222656,230.69483947753906 C 123.41971588134766,229.60597229003906 125.27159881591797,228.49697875976562 127.09927368164062,227.36859130859375 L 127.09927368164062,227.36859130859375 C 118.17777252197266,225.3202667236328 113.0,218.3860626220703 113.0,208.0 L 153.0,208.0 Z" style="fill: rgb(217, 217, 38); stroke-width: 1px; stroke: none;"/>
<path d="M 8.0,8.0 L 208.0,8.0 L 208.0,108.0 C 208.0,158.0 168.0,208.0 108.0,238.0 C 48.0,208.0 8.0,158.0 8.0,108.0 L 8.0,8.0 Z" style="fill: none; stroke-width: 1px; stroke: rgb(0, 0, 0);"/>
</g>
<rect clip-path="url(#contour)" fill="url(#lighting)" height="246.0" width="216.0" x="0.0" y="0.0"/>
</svg>
