<?xml version="1.0" encoding="UTF-8" standalone="no"?>
<svg xmlns="http://www.w3.org/2000/svg" height="246.0" width="216.0">
<defs>
<clipPath id="contour">
<path d="M 0.0,0.0 L 200.0,0.0 L 200.0,100.0 C 200.0,150.0 160.0,200.0 100.0,230.0 C 40.0,200.0 0.0,150.0 0.0,100.0 L 0.0,0.0 Z"/>
</clipPath>
<radialGradient id="lighting">
<stop offset="25%" stop-color="white" stop-opacity="35%"/>
<stop offset="100%" stop-color="white" stop-opacity="0%"/>
</radialGradient>
</defs>
<g transform="translate(8.0,8.0)">
<path clip-path="url(#contour)" comment="FieldBackground" d="M 0.0,0.0 L 200.0,0.0 L 200.0,100.0 C 200.0,150.0 160.0,200.0 100.0,230.0 C 40.0,200.0 0.0,150.0 0.0,100.0 L 0.0,0.0 Z" style="fill: rgb(230, 230, 230); stroke-width: 1px; stroke: none;"/>
<path clip-path="url(#contour)" comment="Fret FieldBackground" d="M 0.0,0.0 L 0.0,10.0 L 60.66666793823242,70.66666412353516 L 70.66666412353516,60.66666793823242 L 10.0,0.0 L 0.0,0.0 Z" style="fill: rgb(51, 153, 51); stroke-width: 1px; stroke: none;"/>
<path clip-path="url(#contour)" comment="Fret FieldBackground" d="M 82.66666412353516,72.66666412353516 L 72.66666412353516,82.66666412353516 L 117.33333587646484,127.33333587646484 L 127.33333587646484,117.33333587646484 L 82.66666412353516,72.66666412353516 Z" style="fill: rgb(51, 153, 51); stroke-width: 1px; stroke: none;"/>
<path clip-path="url(#contour)" comment="Fret FieldBackground" d="M 139.3333282470703,129.3333282470703 L 129.3333282470703,139.3333282470703 L 168.01669311523438,178.01669311523438 C 171.13836669921875,174.33641052246094 174.05723571777344,170.5808868408203 176.76170349121094,166.76170349121094 L 139.3333282470703,129.3333282470703 Z" style="fill: rgb(51, 153, 51); stroke-width: 1px; stroke: none;"/>
<path clip-path="url(#contour)" comment="Fret FieldBackground" d="M 190.0,0.0 L 101.0,89.0 L 111.0,99.0 L 200.0,10.0 L 200.0,0.0 L 190.0,0.0 Z" style="fill: rgb(51, 153, 51); stroke-width: 1px; stroke: none;"/>
<path clip-path="url(#contour)" comment="Fret FieldBackground" d="M 89.0,101.0 L 23.238300323486328,166.76170349121094 C 25.942768096923828,170.5808868408203 28.861637115478516,174.33641052246094 31.983314514160156,178.01669311523438 L 99.0,111.0 L 89.0,101.0 Z" style="fill: rgb(51, 153, 51); stroke-width: 1px; stroke: none;"/>
<path clip-path="url(#contour)" comment="Fret FieldBackground" d="M 100.0,33.33333206176758 L 33.33333206176758,100.0 L 60.66666793823242,127.33333587646484 L 70.66666412353516,117.33333587646484 L 53.33333206176758,100.0 L 100.0,53.33333206176758 L 117.33333587646484,70.66666412353516 L 127.33333587646484,60.66666793823242 L 100.0,33.33333206176758 Z" style="fill: rgb(51, 153, 51); stroke-width: 1px; stroke: none;"/>
<path clip-path="url(#contour)" comment="Fret FieldBackground" d="M 139.3333282470703,72.66666412353516 L 129.3333282470703,82.66666412353516 L 146.6666717529297,100.0 L 100.0,146.6666717529297 L 82.66666412353516,129.3333282470703 L 72.66666412353516,139.3333282470703 L 100.0,166.6666717529297 L 166.6666717529297,100.0 L 139.3333282470703,72.66666412353516 Z" style="fill: rgb(51, 153, 51); stroke-width: 1px; stroke: none;"/>
<path clip-path="url(#contour)" comment="outer shield shape border" d="M 0.0,0.0 L 200.0,0.0 L 200.0,100.0 C 200.0,150.0 160.0,200.0 100.0,230.0 C 40.0,200.0 0.0,150.0 0.0,100.0 L 0.0,0.0 Z" style="fill: none; stroke-width: 1px; stroke: rgb(0, 0, 0);"/>
</g>
</svg>
