<?xml version="1.0" encoding="UTF-8" standalone="no"?>
<svg xmlns="http://www.w3.org/2000/svg" height="246.0" width="216.0">
<defs>
<clipPath id="contour">
<path d="M 8.0,8.0 L 208.0,8.0 L 208.0,108.0 C 208.0,158.0 168.0,208.0 108.0,238.0 C 48.0,208.0 8.0,158.0 8.0,108.0 L 8.0,8.0 Z"/>
</clipPath>
<radialGradient id="lighting">
<stop offset="25%" stop-color="white" stop-opacity="35%"/>
<stop offset="100%" stop-color="white" stop-opacity="0%"/>
</radialGradient>
</defs>
<g transform="translate(8.0,8.0)">
<path d="M 0.0,0.0 L 0.0,28.75 L 100.0,28.75 L 100.0,0.0 L 0.0,0.0 Z" style="fill: rgb(13, 38, 217); stroke-width: 1px; stroke: none;"/>
<path d="M 0.0,28.75 L 0.0,57.5 L 100.0,57.5 L 100.0,28.75 L 0.0,28.75 Z" style="fill: rgb(38, 217, 38); stroke-width: 1px; stroke: none;"/>
<path d="M 0.0,57.5 L 0.0,86.25 L 100.0,86.25 L 100.0,57.5 L 0.0,57.5 Z" style="fill: rgb(13, 38, 217); stroke-width: 1px; stroke: none;"/>
<path d="M 0.0,86.25 L 0.0,100.0 L 100.0,100.0 L 100.0,86.25 L 0.0,86.25 Z" style="fill: rgb(38, 217, 38); stroke-width: 1px; stroke: none;"/>
<path d="M 100.0,0.0 L 100.0,100.0 L 128.75,100.0 L 128.75,0.0 L 100.0,0.0 Z" style="fill: rgb(230, 230, 230); stroke-width: 1px; stroke: none;"/>
<path d="M 128.75,0.0 L 128.75,100.0 L 157.5,100.0 L 157.5,0.0 L 128.75,0.0 Z" style="fill: rgb(166, 64, 166); stroke-width: 1px; stroke: none;"/>
<path d="M 157.5,0.0 L 157.5,100.0 L 186.25,100.0 L 186.25,0.0 L 157.5,0.0 Z" style="fill: rgb(230, 230, 230); stroke-width: 1px; stroke: none;"/>
<path d="M 186.25,0.0 L 186.25,100.0 L 200.0,100.0 L 200.0,0.0 L 186.25,0.0 Z" style="fill: rgb(166, 64, 166); stroke-width: 1px; stroke: none;"/>
<path d="M 100.0,100.0 L 100.0,230.0 C 160.0,200.0 200.0,150.0 200.0,100.0 L 100.0,100.0 Z" style="fill: rgb(217, 217, 38); stroke-width: 1px; stroke: none;"/>
<path d="M 113.63961029052734,100.0 L 100.0,113.63961029052734 L 100.0,156.06602478027344 L 150.0,106.0660171508789 L 189.3125,145.37850952148438 L 189.3125,145.37850952148438 C 194.3158416748047,134.7395477294922 197.6636199951172,123.8011245727539 199.1397247314453,112.77932739257812 L 199.1397247314453,112.77932739257812 L 186.36038208007812,100.0 L 113.63961029052734,100.0 Z" style="fill: rgb(38, 217, 38); stroke-width: 1px; stroke: none;"/>
<path d="M 150.0,148.492431640625 L 100.0,198.492431640625 L 100.0,230.0 C 109.13268280029297,225.43365478515625 117.80200958251953,220.40394592285156 125.93743133544922,214.9813995361328 L 125.93743133544922,214.9813995361328 L 150.0,190.91883850097656 L 152.8845977783203,193.8034210205078 L 152.8845977783203,193.8034210205078 C 160.4541778564453,186.77310180664062 167.24485778808594,179.35525512695312 173.15704345703125,171.6494598388672 L 173.15704345703125,171.6494598388672 L 150.0,148.492431640625 L 150.0,148.492431640625 Z" style="fill: rgb(38, 217, 38); stroke-width: 1px; stroke: none;"/>
<path d="M 0.0,100.0 C 0.0,150.0 40.0,200.0 100.0,230.0 L 100.0,100.0 L 0.0,100.0 Z" style="fill: rgb(38, 38, 38); stroke-width: 1px; stroke: none;"/>
<path d="M 28.78679656982422,100.0 L 50.0,121.21320343017578 L 71.21320343017578,100.0 L 28.78679656982422,100.0 Z" style="fill: rgb(217, 38, 38); stroke-width: 1px; stroke: none;"/>
<path d="M 100.0,113.63961029052734 L 50.0,163.63961791992188 L 1.150444507598877,114.79005432128906 L 1.1504353284835815,114.79005432128906 C 5.959587097167969,145.88304138183594 25.5888729095459,176.20645141601562 55.17201232910156,200.8939971923828 L 55.17201232910156,200.8939971923828 L 100.0,156.06602478027344 L 100.0,113.63961029052734 L 100.0,113.63961029052734 Z" style="fill: rgb(217, 38, 38); stroke-width: 1px; stroke: none;"/>
<path d="M 100.0,198.492431640625 L 79.80467224121094,218.68775939941406 L 79.80467224121094,218.68775939941406 C 86.24166870117188,222.7106475830078 92.9841079711914,226.49205017089844 100.0,230.0 L 100.0,198.492431640625 L 100.0,198.492431640625 Z" style="fill: rgb(217, 38, 38); stroke-width: 1px; stroke: none;"/>
<path d="M 0.0,0.0 L 200.0,0.0 L 200.0,100.0 C 200.0,150.0 160.0,200.0 100.0,230.0 C 40.0,200.0 0.0,150.0 0.0,100.0 L 0.0,0.0 Z" style="fill: none; stroke-width: 1px; stroke: rgb(0, 0, 0);"/>
</g>
<rect clip-path="url(#contour)" fill="url(#lighting)" height="246.0" width="216.0" x="0.0" y="0.0"/>
</svg>
