<?xml version="1.0" encoding="UTF-8" standalone="no"?>
<svg xmlns="http://www.w3.org/2000/svg" height="246.0" width="216.0">
<defs>
<clipPath id="contour">
<path d="M 8.0,8.0 L 208.0,8.0 L 208.0,108.0 C 208.0,158.0 168.0,208.0 108.0,238.0 C 48.0,208.0 8.0,158.0 8.0,108.0 L 8.0,8.0 Z"/>
</clipPath>
<radialGradient id="lighting">
<stop offset="25%" stop-color="white" stop-opacity="35%"/>
<stop offset="100%" stop-color="white" stop-opacity="0%"/>
</radialGradient>
</defs>
<g>
<path d="M 8.0,8.0 L 8.0,36.75 L 208.0,36.75 L 208.0,8.0 L 8.0,8.0 Z" style="fill: rgb(217, 217, 38); stroke-width: 1px; stroke: none;"/>
<path d="M 8.0,36.75 L 8.0,65.5 L 208.0,65.5 L 208.0,36.75 L 8.0,36.75 Z" style="fill: rgb(38, 38, 217); stroke-width: 1px; stroke: none;"/>
<path d="M 8.0,65.5 L 8.0,94.25 L 208.0,94.25 L 208.0,65.5 L 8.0,65.5 Z" style="fill: rgb(217, 217, 38); stroke-width: 1px; stroke: none;"/>
<path d="M 8.0,94.25 L 8.0,108.0 C 8.0,113.0066909790039 8.401071667671204,118.01338958740234 9.18313455581665,123.0 L 206.81686401367188,123.0 C 207.5989227294922,118.01338958740234 208.0,113.0066909790039 208.0,108.0 L 208.0,94.25 L 8.0,94.25 Z" style="fill: rgb(38, 38, 217); stroke-width: 1px; stroke: none;"/>
<path d="M 9.18313455581665,123.0 L 9.18313455581665,123.0 C 10.705798387527466,132.70885467529297 13.672703266143799,142.34158325195312 17.935644149780273,151.75 L 198.06436157226562,151.75 C 202.32730102539062,142.34158325195312 205.29420471191406,132.70885467529297 206.81686401367188,123.0 L 9.18313455581665,123.0 Z" style="fill: rgb(217, 217, 38); stroke-width: 1px; stroke: none;"/>
<path d="M 17.935644149780273,151.75 C 22.416110038757324,161.63848876953125 28.328250885009766,171.2791748046875 35.5,180.5 L 180.5,180.5 C 187.6717529296875,171.2791748046875 193.58389282226562,161.63848876953125 198.06436157226562,151.75 L 17.935644149780273,151.75 Z" style="fill: rgb(38, 38, 217); stroke-width: 1px; stroke: none;"/>
<path d="M 35.5,180.5 C 43.41093063354492,190.6711883544922 52.85449981689453,200.33151245117188 63.599761962890625,209.25 L 152.40023803710938,209.25 C 163.1455078125,200.33151245117188 172.5890655517578,190.6711883544922 180.5,180.5 L 35.5,180.5 Z" style="fill: rgb(217, 217, 38); stroke-width: 1px; stroke: none;"/>
<path d="M 63.599761962890625,209.25 L 63.599761962890625,209.25 C 76.6244125366211,220.06036376953125 91.56159210205078,229.78079223632812 108.0,238.0 C 124.43840789794922,229.78079223632812 139.37557983398438,220.06036376953125 152.40023803710938,209.25 L 63.599761962890625,209.25 Z" style="fill: rgb(38, 38, 217); stroke-width: 1px; stroke: none;"/>
<path d="M 8.0,8.0 L 8.0,65.5 L 208.0,65.5 L 208.0,8.0 L 8.0,8.0 Z" style="fill: rgb(217, 217, 38); stroke-width: 1px; stroke: none;"/>
<path d="M 8.0,8.0 L 8.0,65.5 L 65.5,65.5 L 8.0,8.0 L 8.0,8.0 Z" style="fill: rgb(38, 38, 217); stroke-width: 1px; stroke: none;"/>
<path d="M 8.0,8.0 L 65.5,8.0 L 65.5,65.5 L 8.0,65.5 L 8.0,8.0 Z" style="fill: none; stroke-width: 1px; stroke: rgb(255, 0, 255);"/>
<path d="M 71.75,8.0 L 71.75,65.5 L 101.75,65.5 L 101.75,8.0 L 71.75,8.0 Z" style="fill: rgb(38, 38, 217); stroke-width: 1px; stroke: none;"/>
<path d="M 65.5,8.0 L 108.0,8.0 L 108.0,65.5 L 65.5,65.5 L 65.5,8.0 Z" style="fill: none; stroke-width: 1px; stroke: rgb(255, 0, 255);"/>
<path d="M 114.25,8.0 L 114.25,65.5 L 144.25,65.5 L 144.25,8.0 L 114.25,8.0 Z" style="fill: rgb(38, 38, 217); stroke-width: 1px; stroke: none;"/>
<path d="M 108.0,8.0 L 150.5,8.0 L 150.5,65.5 L 108.0,65.5 L 108.0,8.0 Z" style="fill: none; stroke-width: 1px; stroke: rgb(255, 0, 255);"/>
<path d="M 208.0,8.0 L 150.5,65.5 L 208.0,65.5 L 208.0,8.0 L 208.0,8.0 Z" style="fill: rgb(38, 38, 217); stroke-width: 1px; stroke: none;"/>
<path d="M 150.5,8.0 L 208.0,8.0 L 208.0,65.5 L 150.5,65.5 L 150.5,8.0 Z" style="fill: none; stroke-width: 1px; stroke: rgb(255, 0, 255);"/>
<path d="M 71.0,65.45000076293945 L 145.0,65.45000076293945 L 145.0,102.44999694824219 C 145.0,120.94999694824219 130.1999969482422,139.4499969482422 108.0,150.5500030517578 C 85.80000305175781,139.4499969482422 71.0,120.94999694824219 71.0,102.44999694824219 L 71.0,65.45000076293945 Z" style="fill: rgb(230, 230, 230); stroke-width: 1px; stroke: none;"/>
<path d="M 71.0,65.45000076293945 L 145.0,65.45000076293945 L 145.0,102.44999694824219 C 145.0,120.94999694824219 130.1999969482422,139.4499969482422 108.0,150.5500030517578 C 85.80000305175781,139.4499969482422 71.0,120.94999694824219 71.0,102.44999694824219 L 71.0,65.45000076293945 Z" style="fill: none; stroke-width: 1px; stroke: rgb(0, 0, 0);"/>
<path d="M 8.0,8.0 L 208.0,8.0 L 208.0,108.0 C 208.0,158.0 168.0,208.0 108.0,238.0 C 48.0,208.0 8.0,158.0 8.0,108.0 L 8.0,8.0 Z" style="fill: none; stroke-width: 1px; stroke: rgb(0, 0, 0);"/>
</g>
<rect clip-path="url(#contour)" fill="url(#lighting)" height="246.0" width="216.0" x="0.0" y="0.0"/>
</svg>
