<?xml version="1.0" encoding="UTF-8" standalone="no"?>
<svg xmlns="http://www.w3.org/2000/svg" height="246.0" width="216.0">
<defs>
<clipPath id="contour">
<path d="M 0.0,0.0 L 200.0,0.0 L 200.0,100.0 C 200.0,150.0 160.0,200.0 100.0,230.0 C 40.0,200.0 0.0,150.0 0.0,100.0 L 0.0,0.0 Z"/>
</clipPath>
<radialGradient id="lighting">
<stop offset="25%" stop-color="white" stop-opacity="35%"/>
<stop offset="100%" stop-color="white" stop-opacity="0%"/>
</radialGradient>
</defs>
<g transform="translate(8.0,8.0)">
<path clip-path="url(#contour)" comment="FieldBackground" d="M 0.0,0.0 L 0.0,100.0 L 100.0,100.0 L 100.0,0.0 L 0.0,0.0 Z" style="fill-rule: evenodd; fill: rgb(230, 230, 230); stroke-width: 1px; stroke: none;"/>
<path clip-path="url(#contour)" comment="FieldBackground" d="M 62.52692413330078,0.0 C 61.33918762207031,2.174109935760498 61.09886932373047,4.5010504722595215 62.69230651855469,6.094489097595215 C 65.38461303710938,8.786796569824219 66.53845977783203,6.863719463348389 69.23076629638672,9.55602741241455 C 72.34237670898438,12.667631149291992 67.9019546508789,18.29657554626465 64.05580139160156,18.29657554626465 C 63.147850036621094,18.29657554626465 62.27301025390625,17.982885360717773 61.53845977783203,17.248334884643555 C 58.846153259277344,14.55602741241455 60.769229888916016,13.402181625366211 58.07692337036133,10.70987319946289 C 57.29091262817383,9.923864364624023 56.3264274597168,9.584052085876465 55.28984451293945,9.584052085876465 C 50.23969268798828,9.584052085876465 43.47831726074219,17.649728775024414 47.30769348144531,21.47910499572754 C 50.0,24.171411514282227 51.153846740722656,22.248334884643555 53.846153259277344,24.940643310546875 C 56.95775604248047,28.05224609375 52.51734161376953,33.681190490722656 48.67118835449219,33.681190490722656 C 47.76323318481445,33.681190490722656 46.888397216796875,33.36750030517578 46.153846740722656,32.63294982910156 C 43.46154022216797,29.940643310546875 45.38461685180664,28.78679656982422 42.69230651855469,26.0944881439209 C 41.90629959106445,25.30847930908203 40.941810607910156,24.96866798400879 39.90522766113281,24.96866798400879 C 34.855079650878906,24.96866798400879 28.093700408935547,33.03434371948242 31.923076629638672,36.86371994018555 C 34.61538314819336,39.556026458740234 35.769229888916016,37.63294982910156 38.46154022216797,40.32525634765625 C 41.573143005371094,43.43686294555664 37.13272476196289,49.0658073425293 33.28657150268555,49.0658073425293 C 32.37861633300781,49.0658073425293 31.503780364990234,48.75211715698242 30.769229888916016,48.0175666809082 C 28.076923370361328,45.32525634765625 30.0,44.17141342163086 27.30769157409668,41.479103088378906 C 26.521682739257812,40.69309616088867 25.55719566345215,40.3532829284668 24.520614624023438,40.3532829284668 C 19.470462799072266,40.3532829284668 12.709085464477539,48.41896057128906 16.538461685180664,52.24833679199219 C 19.230770111083984,54.940643310546875 20.384614944458008,53.0175666809082 23.076923370361328,55.70987319946289 C 26.188526153564453,58.821475982666016 21.748109817504883,64.45042419433594 17.90195655822754,64.45042419433594 C 16.994001388549805,64.45042419433594 16.119165420532227,64.13673400878906 15.384614944458008,63.40217971801758 C 12.692307472229004,60.70987319946289 14.615385055541992,59.556026458740234 11.923076629638672,56.86371994018555 C 11.137067794799805,56.07770919799805 10.17258071899414,55.73789978027344 9.135998725891113,55.73789978027344 C 4.085846900939941,55.73789978027344 -2.6755294799804688,63.80357360839844 1.1538461446762085,67.63294982910156 C 3.846153736114502,70.32525634765625 5.0,68.40218353271484 7.692307472229004,71.09449005126953 C 10.803911209106445,74.20609283447266 6.363494396209717,79.83503723144531 2.5173404216766357,79.83503723144531 C 1.6093865633010864,79.83503723144531 0.7345499992370605,79.52134704589844 2.425637874898536E-15,78.78679656982422 L 0.0,78.78679656982422 L 0.0,100.0 L 15.568086624145508,100.0 C 16.791343688964844,98.34535217285156 18.741832733154297,97.08804321289062 20.559581756591797,97.08804321289062 C 21.46753692626953,97.08804321289062 22.34237289428711,97.4017333984375 23.076923370361328,98.13628387451172 C 23.78618049621582,98.84553527832031 24.17513084411621,99.44802856445312 24.41253662109375,100.0 L 37.47307586669922,100.0 C 38.66081237792969,97.82588958740234 38.90113067626953,95.49894714355469 37.30769348144531,93.90550994873047 C 34.61538314819336,91.21320343017578 33.46154022216797,93.13628387451172 30.769229888916016,90.4439697265625 C 27.65762710571289,87.33236694335938 32.098045349121094,81.70342254638672 35.94419860839844,81.70342254638672 C 36.852149963378906,81.70342254638672 37.72698974609375,82.0171127319336 38.46154022216797,82.75166320800781 C 41.153846740722656,85.4439697265625 39.230770111083984,86.59781646728516 41.92307662963867,89.29012298583984 C 42.70908737182617,90.07613372802734 43.6735725402832,90.41594696044922 44.71015548706055,90.41594696044922 C 49.76030731201172,90.41594696044922 56.52168273925781,82.35027313232422 52.69230651855469,78.5208969116211 C 50.0,75.8285903930664 48.846153259277344,77.75166320800781 46.153846740722656,75.05935668945312 C 43.04224395751953,71.94775390625 47.48265838623047,66.31880950927734 51.32881164550781,66.31880950927734 C 52.23676681518555,66.31880950927734 53.111602783203125,66.63249969482422 53.846153259277344,67.36705017089844 C 56.53845977783203,70.05935668945312 54.61538314819336,71.21320343017578 57.30769348144531,73.90550994873047 C 58.09370040893555,74.69152069091797 59.058189392089844,75.03133392333984 60.09477233886719,75.03133392333984 C 65.1449203491211,75.03133392333984 71.90629577636719,66.96565246582031 68.07691955566406,63.13628005981445 C 65.38461303710938,60.443973541259766 64.23076629638672,62.36705017089844 61.53845977783203,59.67474365234375 C 58.426856994628906,56.56313705444336 62.86727523803711,50.9341926574707 66.71343231201172,50.9341926574707 C 67.62138366699219,50.9341926574707 68.4962158203125,51.24788284301758 69.23076629638672,51.9824333190918 C 71.92308044433594,54.67474365234375 70.0,55.82858657836914 72.69230651855469,58.520896911621094 C 73.47831726074219,59.30690383911133 74.44280242919922,59.6467170715332 75.47938537597656,59.6467170715332 C 80.529541015625,59.6467170715332 87.2909164428711,51.58103942871094 83.46154022216797,47.75166320800781 C 80.76923370361328,45.059356689453125 79.61538696289062,46.9824333190918 76.92308044433594,44.29012680053711 C 73.81147003173828,41.178524017333984 78.25189208984375,35.54957962036133 82.0980453491211,35.54957962036133 C 83.00599670410156,35.54957962036133 83.8808364868164,35.8632698059082 84.61538696289062,36.59782028198242 C 87.30769348144531,39.29012680053711 85.38461303710938,40.443973541259766 88.07691955566406,43.13628005981445 C 88.86293029785156,43.92229080200195 89.8274154663086,44.26210021972656 90.86399841308594,44.26210021972656 C 95.91415405273438,44.26210021972656 102.67552947998047,36.19642639160156 98.84615325927734,32.36705017089844 C 96.15384674072266,29.674741744995117 95.0,31.59781837463379 92.30769348144531,28.9055118560791 C 89.19609069824219,25.793907165527344 93.63650512695312,20.164962768554688 97.48265838623047,20.164962768554688 C 98.39060974121094,20.164962768554688 99.26544952392578,20.478652954101562 100.0,21.21320343017578 L 100.0,0.0 L 84.43191528320312,0.0 C 83.20865631103516,1.6546505689620972 81.25817108154297,2.9119598865509033 79.44041442871094,2.9119598865509033 C 78.53246307373047,2.9119598865509033 77.65762329101562,2.5982697010040283 76.92308044433594,1.8637195825576782 C 76.21382141113281,1.1544620990753174 75.82486724853516,0.5519736409187317 75.58746337890625,0.0 L 62.52692413330078,0.0 Z" style="fill-rule: evenodd; fill: rgb(38, 64, 204); stroke-width: 1px; stroke: none;"/>
<path clip-path="url(#contour)" comment="FieldBackground" d="M 100.0,0.0 L 100.0,100.0 L 200.0,100.0 L 200.0,0.0 L 100.0,0.0 Z" style="fill-rule: evenodd; fill: rgb(38, 38, 38); stroke-width: 1px; stroke: none;"/>
<path clip-path="url(#contour)" comment="FieldBackground" d="M 170.74644470214844,0.0 Q 169.23077392578125,1.8988579511642456 169.23077392578125,5.3133864402771 Q 161.53846740722656,5.3133864402771 161.53846740722656,13.005694389343262 Q 153.84616088867188,13.005694389343262 153.84616088867188,20.698001861572266 Q 146.15383911132812,20.698001861572266 146.15383911132812,28.390310287475586 Q 138.46153259277344,28.390310287475586 138.46153259277344,36.082618713378906 Q 130.76922607421875,36.082618713378906 130.76922607421875,43.774925231933594 Q 123.07691955566406,43.774925231933594 123.07691955566406,51.46723175048828 Q 115.38461303710938,51.46723175048828 115.38461303710938,59.159542083740234 Q 107.69230651855469,59.159542083740234 107.69230651855469,66.85184478759766 Q 100.0,66.85184478759766 100.0,74.54415893554688 L 100.0,100.0 L 129.25355529785156,100.0 Q 130.76922607421875,98.10114288330078 130.76922607421875,94.68661499023438 Q 138.46153259277344,94.68661499023438 138.46153259277344,86.99430847167969 Q 146.15383911132812,86.99430847167969 146.15383911132812,79.30199432373047 Q 153.84616088867188,79.30199432373047 153.84616088867188,71.60968780517578 Q 161.53846740722656,71.60968780517578 161.53846740722656,63.917381286621094 Q 169.23077392578125,63.917381286621094 169.23077392578125,56.225074768066406 Q 176.92308044433594,56.225074768066406 176.92308044433594,48.53276824951172 Q 184.61538696289062,48.53276824951172 184.61538696289062,40.840457916259766 Q 192.3076934814453,40.840457916259766 192.3076934814453,33.14815139770508 Q 199.99960327148438,33.14815139770508 200.0,25.456628799438477 L 200.0,0.0 L 170.74644470214844,0.0 Z" style="fill-rule: evenodd; fill: rgb(217, 217, 38); stroke-width: 1px; stroke: none;"/>
<path clip-path="url(#contour)" comment="FieldBackground" d="M 100.0,100.0 L 100.0,230.0 C 160.0,200.0 200.0,150.0 200.0,100.0 L 100.0,100.0 Z" style="fill-rule: evenodd; fill: rgb(230, 230, 230); stroke-width: 1px; stroke: none;"/>
<path clip-path="url(#contour)" comment="FieldBackground" d="M 175.502685546875,100.0 Q 173.6092071533203,102.30396270751953 169.41175842285156,102.30396270751953 Q 161.76470947265625,102.30396270751953 161.76470947265625,109.95101928710938 Q 161.76470947265625,117.59808349609375 154.11764526367188,117.59808349609375 Q 146.4705810546875,117.59808349609375 146.4705810546875,125.2451400756836 Q 146.4705810546875,132.89219665527344 138.8235321044922,132.89219665527344 Q 131.1764678955078,132.89219665527344 131.1764678955078,140.5392608642578 Q 131.1764678955078,148.18630981445312 123.52941131591797,148.18630981445312 Q 115.88235473632812,148.18630981445312 115.88235473632812,155.8333740234375 Q 115.88235473632812,163.48043823242188 108.23529052734375,163.48043823242188 Q 100.5882339477539,163.48043823242188 100.5882339477539,171.1274871826172 Q 100.5882339477539,173.2484130859375 100.0,174.7810821533203 L 100.0,227.7078094482422 Q 100.28823852539062,227.69602966308594 100.5882339477539,227.69602966308594 Q 108.23529052734375,227.69602966308594 108.23529052734375,220.04898071289062 Q 108.23529052734375,212.40191650390625 115.88235473632812,212.40191650390625 Q 123.52941131591797,212.40191650390625 123.52941131591797,204.75485229492188 Q 123.52941131591797,197.10780334472656 131.1764678955078,197.10780334472656 Q 138.8235321044922,197.10780334472656 138.8235321044922,189.4607391357422 Q 138.8235321044922,181.81369018554688 146.4705810546875,181.81369018554688 Q 154.11764526367188,181.81369018554688 154.11764526367188,174.1666259765625 Q 154.11764526367188,166.51956176757812 161.76470947265625,166.51956176757812 Q 169.41175842285156,166.51956176757812 169.41175842285156,158.8725128173828 Q 169.41175842285156,151.22544860839844 177.05882263183594,151.22544860839844 Q 184.7058868408203,151.22544860839844 184.7058868408203,143.57838439941406 Q 184.7058868408203,135.93133544921875 192.35293579101562,135.93133544921875 Q 192.84161376953125,135.93133544921875 193.29905700683594,135.9001007080078 L 193.299072265625,135.9001007080078 C 197.6728057861328,124.12051391601562 200.0,112.06025695800781 200.0,100.0 L 175.502685546875,100.0 Z M 100.0,227.7078094482422 Q 99.99999237060547,227.7078094482422 99.99999237060547,227.7078094482422 L 100.0,227.7078094482422 Z" style="fill-rule: evenodd; fill: rgb(51, 153, 51); stroke-width: 1px; stroke: none;"/>
<path clip-path="url(#contour)" comment="FieldBackground" d="M 175.502685546875,100.0 Q 173.6092071533203,102.30396270751953 169.41175842285156,102.30396270751953 Q 161.76470947265625,102.30396270751953 161.76470947265625,109.95101928710938 Q 161.76470947265625,117.59808349609375 154.11764526367188,117.59808349609375 Q 146.4705810546875,117.59808349609375 146.4705810546875,125.2451400756836 Q 146.4705810546875,132.89219665527344 138.8235321044922,132.89219665527344 Q 131.1764678955078,132.89219665527344 131.1764678955078,140.5392608642578 Q 131.1764678955078,148.18630981445312 123.52941131591797,148.18630981445312 Q 115.88235473632812,148.18630981445312 115.88235473632812,155.8333740234375 Q 115.88235473632812,163.48043823242188 108.23529052734375,163.48043823242188 Q 100.5882339477539,163.48043823242188 100.5882339477539,171.1274871826172 Q 100.5882339477539,173.2484130859375 100.0,174.7810821533203 L 100.0,227.7078094482422 Q 100.28823852539062,227.69602966308594 100.5882339477539,227.69602966308594 Q 108.23529052734375,227.69602966308594 108.23529052734375,220.04898071289062 Q 108.23529052734375,212.40191650390625 115.88235473632812,212.40191650390625 Q 123.52941131591797,212.40191650390625 123.52941131591797,204.75485229492188 Q 123.52941131591797,197.10780334472656 131.1764678955078,197.10780334472656 Q 138.8235321044922,197.10780334472656 138.8235321044922,189.4607391357422 Q 138.8235321044922,181.81369018554688 146.4705810546875,181.81369018554688 Q 154.11764526367188,181.81369018554688 154.11764526367188,174.1666259765625 Q 154.11764526367188,166.51956176757812 161.76470947265625,166.51956176757812 Q 169.41175842285156,166.51956176757812 169.41175842285156,158.8725128173828 Q 169.41175842285156,151.22544860839844 177.05882263183594,151.22544860839844 Q 184.7058868408203,151.22544860839844 184.7058868408203,143.57838439941406 Q 184.7058868408203,135.93133544921875 192.35293579101562,135.93133544921875 Q 192.84161376953125,135.93133544921875 193.29905700683594,135.9001007080078 L 193.299072265625,135.9001007080078 C 197.6728057861328,124.12051391601562 200.0,112.06025695800781 200.0,100.0 L 175.502685546875,100.0 Z M 100.0,227.7078094482422 Q 99.99999237060547,227.7078094482422 99.99999237060547,227.7078094482422 L 100.0,227.7078094482422 Z" style="fill-rule: evenodd; fill: rgb(51, 153, 51); stroke-width: 1px; stroke: none;"/>
<path clip-path="url(#contour)" comment="FieldBackground" d="M 0.0,100.0 C 0.0,150.0 40.0,200.0 100.0,230.0 L 100.0,100.0 L 0.0,100.0 Z" style="fill-rule: evenodd; fill: rgb(38, 38, 38); stroke-width: 1px; stroke: none;"/>
<path clip-path="url(#contour)" comment="FieldBackground" d="M 77.05882263183594,100.0 L 77.05882263183594,102.30396270751953 L 61.764705657958984,102.30396270751953 L 61.764705657958984,109.95101928710938 L 61.764705657958984,117.59808349609375 L 46.47058868408203,117.59808349609375 L 46.47058868408203,125.2451400756836 L 46.47058868408203,132.89219665527344 L 31.176469802856445,132.89219665527344 L 31.176469802856445,140.5392608642578 L 31.176469802856445,148.18630981445312 L 15.882352828979492,148.18630981445312 L 15.882352828979492,155.30288696289062 C 21.97738265991211,165.85987854003906 29.69915008544922,176.04054260253906 38.82352828979492,185.6207275390625 L 38.82352828979492,181.81369018554688 L 54.117645263671875,181.81369018554688 L 54.117645263671875,174.1666259765625 L 54.117645263671875,166.51956176757812 L 69.4117660522461,166.51956176757812 L 69.4117660522461,158.8725128173828 L 69.4117660522461,151.22544860839844 L 84.70587921142578,151.22544860839844 L 84.70587921142578,143.57838439941406 L 84.70587921142578,135.93133544921875 L 100.0,135.93133544921875 L 100.0,100.0 L 77.05882263183594,100.0 Z" style="fill-rule: evenodd; fill: rgb(179, 38, 26); stroke-width: 1px; stroke: none;"/>
<path clip-path="url(#contour)" comment="outer shield shape border" d="M 0.0,0.0 L 0.0,100.0 C 0.0,150.0 40.0,200.0 100.0,230.0 C 160.0,200.0 200.0,150.0 200.0,100.0 L 200.0,0.0 L 0.0,0.0 Z" style="fill-rule: evenodd; fill: none; stroke-width: 1px; stroke: rgb(0, 0, 0);"/>
</g>
</svg>
