<?xml version="1.0" encoding="UTF-8" standalone="no"?>
<svg xmlns="http://www.w3.org/2000/svg" height="246.0" width="216.0">
<defs>
<clipPath id="contour">
<path d="M 8.0,8.0 L 208.0,8.0 L 208.0,108.0 C 208.0,158.0 168.0,208.0 108.0,238.0 C 48.0,208.0 8.0,158.0 8.0,108.0 L 8.0,8.0 Z"/>
</clipPath>
<radialGradient id="lighting">
<stop offset="25%" stop-color="white" stop-opacity="35%"/>
<stop offset="100%" stop-color="white" stop-opacity="0%"/>
</radialGradient>
</defs>
<g>
<path d="M 8.0,8.0 L 8.0,108.0 C 8.0,158.0 48.0,208.0 108.0,238.0 L 108.0,8.0 L 8.0,8.0 Z" style="fill: rgb(217, 217, 38); stroke-width: 1px; stroke: none;"/>
<path d="M 28.0,54.0 L 88.0,54.0 L 88.0,192.0 L 28.0,192.0 L 28.0,54.0 Z" style="fill: none; stroke-width: 1px; stroke: rgb(0, 255, 255);"/>
<path d="M 108.0,8.0 L 108.0,238.0 C 168.0,208.0 208.0,158.0 208.0,108.0 L 208.0,8.0 L 108.0,8.0 Z" style="fill: rgb(217, 38, 38); stroke-width: 1px; stroke: none;"/>
<path d="M 128.0,54.0 L 188.0,54.0 L 188.0,192.0 L 128.0,192.0 L 128.0,54.0 Z" style="fill: none; stroke-width: 1px; stroke: rgb(0, 255, 255);"/>
<path d="M 8.0,8.0 L 8.0,65.5 L 208.0,65.5 L 208.0,8.0 L 8.0,8.0 Z" style="fill: rgb(38, 38, 217); stroke-width: 1px; stroke: none;"/>
<path d="M 16.0,19.5 L 40.0,19.5 L 40.0,54.0 L 16.0,54.0 L 16.0,19.5 Z" style="fill: none; stroke-width: 1px; stroke: rgb(0, 255, 255);"/>
<path d="M 56.0,19.5 L 80.0,19.5 L 80.0,54.0 L 56.0,54.0 L 56.0,19.5 Z" style="fill: none; stroke-width: 1px; stroke: rgb(0, 255, 255);"/>
<path d="M 96.0,19.5 L 120.0,19.5 L 120.0,54.0 L 96.0,54.0 L 96.0,19.5 Z" style="fill: none; stroke-width: 1px; stroke: rgb(0, 255, 255);"/>
<path d="M 136.0,19.5 L 160.0,19.5 L 160.0,54.0 L 136.0,54.0 L 136.0,19.5 Z" style="fill: none; stroke-width: 1px; stroke: rgb(0, 255, 255);"/>
<path d="M 176.0,19.5 L 200.0,19.5 L 200.0,54.0 L 176.0,54.0 L 176.0,19.5 Z" style="fill: none; stroke-width: 1px; stroke: rgb(0, 255, 255);"/>
<path d="M 71.0,65.45000076293945 L 145.0,65.45000076293945 L 145.0,102.44999694824219 C 145.0,120.94999694824219 130.1999969482422,139.4499969482422 108.0,150.5500030517578 C 85.80000305175781,139.4499969482422 71.0,120.94999694824219 71.0,102.44999694824219 L 71.0,65.45000076293945 Z" style="fill: rgb(217, 38, 38); stroke-width: 1px; stroke: none;"/>
<path d="M 93.0,65.45000076293945 L 93.0,141.069580078125 L 93.0,141.069580078125 C 97.47286987304688,144.60765075683594 102.51016998291016,147.80508422851562 108.0,150.5500030517578 C 113.48983001708984,147.80508422851562 118.52713012695312,144.60765075683594 123.0,141.069580078125 L 123.0,141.069580078125 L 123.0,65.45000076293945 L 93.0,65.45000076293945 Z" style="fill: rgb(230, 230, 230); stroke-width: 1px; stroke: none;"/>
<path d="M 71.0,87.44999694824219 L 71.0,102.44999694824219 C 71.0,107.50017547607422 72.10289001464844,112.55035400390625 74.15813446044922,117.44999694824219 L 141.8418731689453,117.44999694824219 C 143.89710998535156,112.55035400390625 145.0,107.50017547607422 145.0,102.44999694824219 L 145.0,87.44999694824219 L 71.0,87.44999694824219 Z" style="fill: rgb(230, 230, 230); stroke-width: 1px; stroke: none;"/>
<path d="M 71.0,65.45000076293945 L 71.0,86.6632080078125 L 124.33031463623047,139.99351501464844 L 124.33031463623047,139.99351501464844 C 132.90193939208984,132.90289306640625 139.24693298339844,124.53824615478516 142.5140380859375,115.75083923339844 L 142.5140380859375,115.75083923339844 L 92.21320343017578,65.45000076293945 L 71.0,65.45000076293945 Z" style="fill: rgb(230, 230, 230); stroke-width: 1px; stroke: none;"/>
<path d="M 71.0,65.45000076293945 L 145.0,65.45000076293945 L 145.0,102.44999694824219 C 145.0,120.94999694824219 130.1999969482422,139.4499969482422 108.0,150.5500030517578 C 85.80000305175781,139.4499969482422 71.0,120.94999694824219 71.0,102.44999694824219 L 71.0,65.45000076293945 Z" style="fill: none; stroke-width: 1px; stroke: rgb(0, 0, 0);"/>
<path d="M 8.0,8.0 L 208.0,8.0 L 208.0,108.0 C 208.0,158.0 168.0,208.0 108.0,238.0 C 48.0,208.0 8.0,158.0 8.0,108.0 L 8.0,8.0 Z" style="fill: none; stroke-width: 1px; stroke: rgb(0, 0, 0);"/>
</g>
<rect clip-path="url(#contour)" fill="url(#lighting)" height="246.0" width="216.0" x="0.0" y="0.0"/>
</svg>
