<?xml version="1.0" encoding="UTF-8" standalone="no"?>
<svg xmlns="http://www.w3.org/2000/svg" height="246.0" width="216.0">
<defs>
<clipPath id="contour">
<path d="M 8.0,8.0 L 208.0,8.0 L 208.0,108.0 C 208.0,158.0 168.0,208.0 108.0,238.0 C 48.0,208.0 8.0,158.0 8.0,108.0 L 8.0,8.0 Z"/>
</clipPath>
<radialGradient id="lighting">
<stop offset="25%" stop-color="white" stop-opacity="35%"/>
<stop offset="100%" stop-color="white" stop-opacity="0%"/>
</radialGradient>
</defs>
<g transform="translate(8.0,8.0)">
<path d="M 0.0,0.0 L 200.0,0.0 L 200.0,100.0 C 200.0,150.0 160.0,200.0 100.0,230.0 C 40.0,200.0 0.0,150.0 0.0,100.0 L 0.0,0.0 Z" style="fill: rgb(217, 38, 38); stroke-width: 1px; stroke: none;"/>
<path d="M 0.0,0.0 L 0.0,10.60660171508789 Q 11.174174308776855,14.331326484680176 14.898900032043457,25.50550079345703 Q 18.623624801635742,36.6796760559082 29.797800064086914,40.40439987182617 Q 40.97197341918945,44.129127502441406 44.69669723510742,55.30330276489258 Q 48.421424865722656,66.47747802734375 59.59560012817383,70.20220184326172 Q 70.769775390625,73.92692565917969 74.49449920654297,85.1010971069336 Q 78.21922302246094,96.27527618408203 89.39339447021484,100.0 Q 85.66867065429688,111.1741714477539 74.49449920654297,114.8989028930664 Q 63.3203239440918,118.62362670898438 59.59560012817383,129.7978057861328 Q 55.870872497558594,140.9719696044922 44.69669723510742,144.6967010498047 Q 33.522525787353516,148.42141723632812 29.797800064086914,159.59559631347656 Q 28.018512725830078,164.93345642089844 24.539308547973633,168.57139587402344 L 24.539308547973633,168.57139587402344 C 27.095365524291992,172.0740966796875 29.83214569091797,175.52110290527344 32.74056625366211,178.90333557128906 L 32.74056625366211,178.90333557128906 Q 33.055477142333984,178.10682678222656 33.33333206176758,177.2732696533203 Q 37.5,164.7732696533203 50.0,160.60659790039062 Q 62.5,156.43994140625 66.66666412353516,143.93994140625 Q 70.83333587646484,131.43994140625 83.33333587646484,127.27326965332031 Q 95.83333587646484,123.10660552978516 100.0,110.60660552978516 Q 112.5,114.77326965332031 116.66666412353516,127.27326965332031 Q 120.83333587646484,139.7732696533203 133.3333282470703,143.93994140625 Q 145.8333282470703,148.10659790039062 150.0,160.60659790039062 Q 154.1666717529297,173.10659790039062 166.6666717529297,177.2732696533203 Q 167.4404754638672,177.5312042236328 168.18235778808594,177.82107543945312 L 168.18235778808594,177.82107543945312 C 171.92434692382812,173.39610290527344 175.37327575683594,168.86280822753906 178.50904846191406,164.2412872314453 L 178.50904846191406,164.2412872314453 Q 175.0594024658203,161.21466064453125 170.2021942138672,159.59559631347656 Q 159.0280303955078,155.87088012695312 155.3032989501953,144.6967010498047 Q 151.57858276367188,133.52252197265625 140.40440368652344,129.7978057861328 Q 129.230224609375,126.07307434082031 125.50550079345703,114.8989028930664 Q 121.78077697753906,103.72472381591797 110.60660552978516,100.0 Q 114.33132934570312,88.8258285522461 125.50550079345703,85.1010971069336 Q 136.67967224121094,81.37637329101562 140.40440368652344,70.20220184326172 Q 144.12911987304688,59.02802658081055 155.3032989501953,55.30330276489258 Q 166.47747802734375,51.578575134277344 170.2021942138672,40.40439987182617 Q 173.9269256591797,29.230226516723633 185.10110473632812,25.50550079345703 Q 196.2752685546875,21.780776977539062 200.0,10.60660171508789 L 200.0,0.0 L 189.39340209960938,0.0 Q 185.66867065429688,11.174174308776855 174.49449157714844,14.898900032043457 Q 163.32032775878906,18.623624801635742 159.59559631347656,29.797800064086914 Q 155.87088012695312,40.97197341918945 144.6967010498047,44.69669723510742 Q 133.52252197265625,48.421424865722656 129.7978057861328,59.59560012817383 Q 126.07307434082031,70.769775390625 114.8989028930664,74.49449920654297 Q 103.72472381591797,78.21922302246094 100.0,89.39339447021484 Q 88.8258285522461,85.66867065429688 85.1010971069336,74.49449920654297 Q 81.37637329101562,63.3203239440918 70.20220184326172,59.59560012817383 Q 59.02802658081055,55.870872497558594 55.30330276489258,44.69669723510742 Q 51.578575134277344,33.522525787353516 40.40439987182617,29.797800064086914 Q 29.230226516723633,26.073074340820312 25.50550079345703,14.898900032043457 Q 21.780776977539062,3.7247250080108643 10.60660171508789,0.0 L 0.0,0.0 Z" style="fill: rgb(13, 38, 217); stroke-width: 1px; stroke: none;"/>
<path d="M 0.0,0.0 L 200.0,0.0 L 200.0,100.0 C 200.0,150.0 160.0,200.0 100.0,230.0 C 40.0,200.0 0.0,150.0 0.0,100.0 L 0.0,0.0 Z" style="fill: none; stroke-width: 1px; stroke: rgb(0, 0, 0);"/>
</g>
<rect clip-path="url(#contour)" fill="url(#lighting)" height="246.0" width="216.0" x="0.0" y="0.0"/>
</svg>
