<?xml version="1.0" encoding="UTF-8" standalone="no"?>
<svg xmlns="http://www.w3.org/2000/svg" height="246.0" width="216.0">
<defs>
<clipPath id="contour">
<path d="M 8.0,8.0 L 208.0,8.0 L 208.0,108.0 C 208.0,158.0 168.0,208.0 108.0,238.0 C 48.0,208.0 8.0,158.0 8.0,108.0 L 8.0,8.0 Z"/>
</clipPath>
<radialGradient id="lighting">
<stop offset="25%" stop-color="white" stop-opacity="35%"/>
<stop offset="100%" stop-color="white" stop-opacity="0%"/>
</radialGradient>
</defs>
<g transform="translate(8.0,8.0)">
<path d="M 0.0,0.0 L 0.0,100.0 L 100.0,100.0 L 100.0,0.0 L 0.0,0.0 Z" style="fill: rgb(230, 230, 230); stroke-width: 1px; stroke: rgb(0, 255, 255);"/>
<path d="M 0.0,0.0 L 0.0,15.909902572631836 L 4.440892098500626E-16,15.909902572631836 C 0.7345499992370605,15.175352096557617 1.6093865633010864,14.861661911010742 2.5173404216766357,14.861661911010742 C 6.363494396209717,14.861661911010742 10.803911209106445,20.4906063079834 7.692307472229004,23.602210998535156 C 5.0,26.294517517089844 3.846153736114502,24.371440887451172 1.1538461446762085,27.063749313354492 C -2.6755294799804688,30.893123626708984 4.085846900939941,38.95880126953125 9.135998725891113,38.95880126953125 C 10.17258071899414,38.95880126953125 11.137067794799805,38.618988037109375 11.923076629638672,37.83298110961914 C 14.615385055541992,35.14067077636719 12.692307472229004,33.98682403564453 15.384614944458008,31.294517517089844 C 16.119165420532227,30.559967041015625 16.994001388549805,30.24627685546875 17.90195655822754,30.24627685546875 C 21.748109817504883,30.24627685546875 26.188526153564453,35.875221252441406 23.076923370361328,38.98682403564453 C 20.384614944458008,41.679134368896484 19.230770111083984,39.75605773925781 16.538461685180664,42.4483642578125 C 12.709085464477539,46.277740478515625 19.470462799072266,54.34341812133789 24.520614624023438,54.34341812133789 C 25.55719566345215,54.34341812133789 26.521682739257812,54.003604888916016 27.30769157409668,53.217594146728516 C 30.0,50.52528762817383 28.076923370361328,49.37144088745117 30.769229888916016,46.679134368896484 C 31.503780364990234,45.944583892822266 32.37861633300781,45.63089370727539 33.28657150268555,45.63089370727539 C 37.13272476196289,45.63089370727539 41.573143005371094,51.25983810424805 38.46154022216797,54.37144088745117 C 35.769229888916016,57.06374740600586 34.61538314819336,55.14067077636719 31.923076629638672,57.83298110961914 C 28.093700408935547,61.662353515625 34.855079650878906,69.72803497314453 39.90522766113281,69.72803497314453 C 40.941810607910156,69.72803497314453 41.90629959106445,69.38822174072266 42.69230651855469,68.60221099853516 C 45.38461685180664,65.90990447998047 43.46154022216797,64.75605773925781 46.153846740722656,62.06374740600586 C 46.888397216796875,61.32919692993164 47.76323318481445,61.015506744384766 48.67118835449219,61.015506744384766 C 52.51734161376953,61.015506744384766 56.95775604248047,66.64445495605469 53.846153259277344,69.75605773925781 C 51.153846740722656,72.4483642578125 50.0,70.52528381347656 47.30769348144531,73.21759796142578 C 43.47831726074219,77.0469741821289 50.23969268798828,85.1126480102539 55.28984451293945,85.1126480102539 C 56.3264274597168,85.1126480102539 57.29091262817383,84.77283477783203 58.07692337036133,83.98682403564453 C 60.769229888916016,81.29451751708984 58.846153259277344,80.14067077636719 61.53845977783203,77.4483642578125 C 62.27301025390625,76.71381378173828 63.147850036621094,76.4001235961914 64.05580139160156,76.4001235961914 C 67.9019546508789,76.4001235961914 72.34237670898438,82.02906799316406 69.23076629638672,85.14067077636719 C 66.53845977783203,87.83297729492188 65.38461303710938,85.90990447998047 62.69230651855469,88.60221099853516 C 59.433963775634766,91.86055755615234 63.84331512451172,98.18597412109375 68.34188079833984,100.0 L 72.64238739013672,100.0 C 72.93185424804688,99.83516693115234 73.20611572265625,99.62686157226562 73.46154022216797,99.37144470214844 C 76.15384674072266,96.67913055419922 74.23076629638672,95.52528381347656 76.92308044433594,92.83297729492188 C 77.65762329101562,92.09842681884766 78.53246307373047,91.78473663330078 79.44041442871094,91.78473663330078 C 83.07869720458984,91.78473663330078 87.24874877929688,96.8216781616211 85.05500793457031,100.0 L 100.0,100.0 L 100.0,84.09009552001953 L 100.0,84.09009552001953 C 99.26544952392578,84.82464599609375 98.39060974121094,85.13833618164062 97.48265838623047,85.13833618164062 C 93.63650512695312,85.13833618164062 89.19609069824219,79.50939178466797 92.30769348144531,76.39778900146484 C 95.0,73.70548248291016 96.15384674072266,75.62855529785156 98.84615325927734,72.93624877929688 C 102.67552947998047,69.10687255859375 95.91415405273438,61.04119873046875 90.86399841308594,61.04119873046875 C 89.8274154663086,61.04119873046875 88.86293029785156,61.381011962890625 88.07691955566406,62.16701889038086 C 85.38461303710938,64.85932922363281 87.30769348144531,66.01317596435547 84.61538696289062,68.70548248291016 C 83.8808364868164,69.44003295898438 83.00599670410156,69.75372314453125 82.0980453491211,69.75372314453125 C 78.25189208984375,69.75372314453125 73.81147003173828,64.1247787475586 76.92308044433594,61.01317596435547 C 79.61538696289062,58.320865631103516 80.76923370361328,60.24394226074219 83.46154022216797,57.5516357421875 C 87.2909164428711,53.722259521484375 80.529541015625,45.65658187866211 75.47938537597656,45.65658187866211 C 74.44280242919922,45.65658187866211 73.47831726074219,45.996395111083984 72.69230651855469,46.782405853271484 C 70.0,49.47471237182617 71.92308044433594,50.62855911254883 69.23076629638672,53.320865631103516 C 68.4962158203125,54.055416107177734 67.62138366699219,54.36910629272461 66.71343231201172,54.36910629272461 C 62.86727523803711,54.36910629272461 58.426856994628906,48.74016189575195 61.53845977783203,45.62855911254883 C 64.23076629638672,42.93625259399414 65.38461303710938,44.85932922363281 68.07691955566406,42.16701889038086 C 71.90629577636719,38.337646484375 65.1449203491211,30.271968841552734 60.09477233886719,30.271968841552734 C 59.058189392089844,30.271968841552734 58.09370040893555,30.611780166625977 57.30769348144531,31.397789001464844 C 54.61538314819336,34.09009552001953 56.53845977783203,35.24394226074219 53.846153259277344,37.93625259399414 C 53.111602783203125,38.67080307006836 52.23676681518555,38.984493255615234 51.32881164550781,38.984493255615234 C 47.48265838623047,38.984493255615234 43.04224395751953,33.35554885864258 46.153846740722656,30.24394416809082 C 48.846153259277344,27.5516357421875 50.0,29.474712371826172 52.69230651855469,26.782405853271484 C 56.52168273925781,22.95302963256836 49.76030731201172,14.88735294342041 44.71015548706055,14.88735294342041 C 43.6735725402832,14.88735294342041 42.70908737182617,15.227165222167969 41.92307662963867,16.013174057006836 C 39.230770111083984,18.705482482910156 41.153846740722656,19.85932731628418 38.46154022216797,22.5516357421875 C 37.72698974609375,23.28618621826172 36.852149963378906,23.599876403808594 35.94419860839844,23.599876403808594 C 32.098045349121094,23.599876403808594 27.65762710571289,17.970932006835938 30.769229888916016,14.859328269958496 C 33.46154022216797,12.167020797729492 34.61538314819336,14.090097427368164 37.30769348144531,11.39778995513916 C 40.566036224365234,8.139445304870605 36.15668487548828,1.8140233755111694 31.658119201660156,0.0 L 27.35761260986328,0.0 C 27.06814956665039,0.16483594477176666 26.793882369995117,0.37313875555992126 26.538461685180664,0.6285589337348938 C 23.846153259277344,3.320866584777832 25.769229888916016,4.47471284866333 23.076923370361328,7.167020320892334 C 22.34237289428711,7.9015703201293945 21.46753692626953,8.21526050567627 20.559581756591797,8.21526050567627 C 16.92129898071289,8.21526050567627 12.751253128051758,3.17832350730896 14.944994926452637,0.0 L 0.0,0.0 Z" style="fill: rgb(13, 38, 217); stroke-width: 1px; stroke: rgb(0, 255, 255);"/>
<path d="M 100.0,0.0 L 100.0,100.0 L 200.0,100.0 L 200.0,0.0 L 100.0,0.0 Z" style="fill: rgb(38, 38, 38); stroke-width: 1px; stroke: rgb(0, 255, 255);"/>
<path d="M 100.0,0.0 L 100.0,19.092437744140625 L 100.0,19.092437744140625 Q 100.00027465820312,26.784191131591797 107.69230651855469,26.784191131591797 L 107.69230651855469,26.784191131591797 Q 107.69230651855469,34.476497650146484 115.38461303710938,34.476497650146484 Q 115.38461303710938,42.16880798339844 123.07691955566406,42.16880798339844 Q 123.07691955566406,49.861114501953125 130.76922607421875,49.861114501953125 Q 130.76922607421875,57.55342102050781 138.46153259277344,57.55342102050781 Q 138.46153259277344,65.2457275390625 146.15383911132812,65.2457275390625 Q 146.15383911132812,72.93803405761719 153.84616088867188,72.93803405761719 Q 153.84616088867188,80.6303482055664 161.53846740722656,80.6303482055664 Q 161.53846740722656,88.3226547241211 169.23077392578125,88.3226547241211 Q 169.23077392578125,96.01496124267578 176.92308044433594,96.01496124267578 Q 176.92308044433594,98.36709594726562 177.64230346679688,100.0 L 200.0,100.0 L 200.0,80.90811920166016 L 200.0,80.90811920166016 Q 200.0,73.21581268310547 192.3076934814453,73.21581268310547 Q 192.3076934814453,65.52349853515625 184.61538696289062,65.52349853515625 Q 184.61538696289062,57.83119201660156 176.92308044433594,57.83119201660156 Q 176.92308044433594,50.138885498046875 169.23077392578125,50.138885498046875 Q 169.23077392578125,42.44657897949219 161.53846740722656,42.44657897949219 Q 161.53846740722656,34.7542724609375 153.84616088867188,34.7542724609375 Q 153.84616088867188,27.061962127685547 146.15383911132812,27.061962127685547 Q 146.15383911132812,19.36965560913086 138.46153259277344,19.36965560913086 Q 138.46153259277344,11.677348136901855 130.76922607421875,11.677348136901855 Q 130.76922607421875,3.9850399494171143 123.07691955566406,3.9850399494171143 Q 123.07691955566406,1.6329048871994019 122.35769653320312,0.0 L 100.0,0.0 Z" style="fill: rgb(217, 217, 38); stroke-width: 1px; stroke: rgb(0, 255, 255);"/>
<path d="M 100.0,100.0 L 100.0,230.0 C 160.0,200.0 200.0,150.0 200.0,100.0 L 100.0,100.0 Z" style="fill: rgb(230, 230, 230); stroke-width: 1px; stroke: rgb(0, 255, 255);"/>
<path d="M 100.0,100.0 L 100.0,121.21320343017578 Q 100.0,128.86026000976562 107.64705657958984,128.86026000976562 Q 115.29412078857422,128.86026000976562 115.29412078857422,136.50732421875 Q 115.29412078857422,144.1543731689453 122.94117736816406,144.1543731689453 Q 130.58824157714844,144.1543731689453 130.58824157714844,151.8014373779297 Q 130.58824157714844,159.44850158691406 138.23529052734375,159.44850158691406 Q 145.88235473632812,159.44850158691406 145.88235473632812,167.09555053710938 Q 145.88235473632812,174.74261474609375 153.5294189453125,174.74261474609375 Q 161.1764678955078,174.74261474609375 161.1764678955078,182.38967895507812 Q 161.1764678955078,183.9962921142578 161.51402282714844,185.265380859375 L 161.51402282714844,185.265380859375 C 169.79518127441406,176.52383422851562 176.9098663330078,167.2862091064453 182.68858337402344,157.7219696044922 L 182.68858337402344,157.7219696044922 Q 180.81187438964844,155.25738525390625 176.4705810546875,155.25738525390625 Q 168.8235321044922,155.25738525390625 168.8235321044922,147.61032104492188 Q 168.8235321044922,139.96327209472656 161.1764678955078,139.96327209472656 Q 153.5294189453125,139.96327209472656 153.5294189453125,132.3162078857422 Q 153.5294189453125,124.66915130615234 145.88235473632812,124.66915130615234 Q 138.23529052734375,124.66915130615234 138.23529052734375,117.02208709716797 Q 138.23529052734375,109.37503051757812 130.58824157714844,109.37503051757812 Q 122.94117736816406,109.37503051757812 122.94117736816406,101.72797393798828 Q 122.94117736816406,100.8087387084961 122.83068084716797,100.0 L 100.0,100.0 Z" style="fill: rgb(38, 217, 38); stroke-width: 1px; stroke: rgb(0, 255, 255);"/>
<path d="M 0.0,100.0 C 0.0,150.0 40.0,200.0 100.0,230.0 L 100.0,100.0 L 0.0,100.0 Z" style="fill: rgb(38, 38, 38); stroke-width: 1px; stroke: rgb(0, 255, 255);"/>
<path d="M 0.0,100.0 C 0.0,109.66828918457031 1.4956125020980835,119.33657836914062 4.34223747253418,128.86026000976562 L 15.29411792755127,128.86026000976562 L 15.29411792755127,136.50732421875 L 15.29411792755127,144.1543731689453 L 30.58823585510254,144.1543731689453 L 30.58823585510254,151.8014373779297 L 30.58823585510254,159.44850158691406 L 38.235294342041016,159.44850158691406 L 45.882354736328125,159.44850158691406 L 45.882354736328125,167.09555053710938 L 45.882354736328125,174.74261474609375 L 53.52941131591797,174.74261474609375 L 61.17647171020508,174.74261474609375 L 61.17647171020508,182.38967895507812 L 61.17647171020508,190.03672790527344 L 76.47058868408203,190.03672790527344 L 76.47058868408203,197.6837921142578 L 76.47058868408203,205.3308563232422 L 91.76470947265625,205.3308563232422 L 91.76470947265625,212.9779052734375 L 91.76470947265625,220.62496948242188 L 99.4117660522461,220.62496948242188 L 100.0,220.62496948242188 L 100.0,185.8456268310547 L 99.4117660522461,185.8456268310547 L 99.4117660522461,178.1985626220703 L 99.4117660522461,170.55149841308594 L 84.11764526367188,170.55149841308594 L 84.11764526367188,162.90444946289062 L 84.11764526367188,155.25738525390625 L 76.47058868408203,155.25738525390625 L 68.82353210449219,155.25738525390625 L 68.82353210449219,147.61032104492188 L 68.82353210449219,139.96327209472656 L 53.52941131591797,139.96327209472656 L 53.52941131591797,132.3162078857422 L 53.52941131591797,124.66915130615234 L 45.882354736328125,124.66915130615234 L 38.235294342041016,124.66915130615234 L 38.235294342041016,117.02208709716797 L 38.235294342041016,109.37503051757812 L 30.58823585510254,109.37503051757812 L 22.941177368164062,109.37503051757812 L 22.941177368164062,101.72797393798828 L 22.941177368164062,100.0 L 0.0,100.0 Z" style="fill: rgb(217, 38, 38); stroke-width: 1px; stroke: rgb(0, 255, 255);"/>
<path d="M 0.0,0.0 L 200.0,0.0 L 200.0,100.0 C 200.0,150.0 160.0,200.0 100.0,230.0 C 40.0,200.0 0.0,150.0 0.0,100.0 L 0.0,0.0 Z" style="fill: none; stroke-width: 1px; stroke: rgb(0, 0, 0);"/>
</g>
<rect clip-path="url(#contour)" fill="url(#lighting)" height="246.0" width="216.0" x="0.0" y="0.0"/>
</svg>
