<?xml version="1.0" encoding="UTF-8" standalone="no"?>
<svg xmlns="http://www.w3.org/2000/svg" height="246.0" width="216.0">
<defs>
<clipPath id="contour">
<path d="M 8.0,8.0 L 208.0,8.0 L 208.0,108.0 C 208.0,158.0 168.0,208.0 108.0,238.0 C 48.0,208.0 8.0,158.0 8.0,108.0 L 8.0,8.0 Z"/>
</clipPath>
<radialGradient id="lighting">
<stop offset="25%" stop-color="white" stop-opacity="35%"/>
<stop offset="100%" stop-color="white" stop-opacity="0%"/>
</radialGradient>
</defs>
<g>
<path d="M 8.0,8.0 L 208.0,8.0 L 208.0,108.0 C 208.0,158.0 168.0,208.0 108.0,238.0 C 48.0,208.0 8.0,158.0 8.0,108.0 L 8.0,8.0 Z" style="fill: rgb(230, 230, 230); stroke-width: 1px; stroke: none;"/>
<path d="M 8.0,8.0 L 8.0,18.61156177520752 L 8.000000361669692,18.61156177520752 C 8.037639651447535,18.678829193115234 8.05800049751997,18.715733528137207 8.05800049751997,18.715733528137207 C 8.05800049751997,18.715733528137207 10.086085796356201,16.095160484313965 11.225457668304443,14.773502826690674 L 15.349999904632568,18.715731620788574 C 15.349999904632568,18.715731620788574 12.980599403381348,13.795937538146973 11.079277276992798,8.0 L 8.0,8.0 Z" style="fill: rgb(38, 38, 38); stroke-width: 1px; stroke: none;"/>
<path d="M 33.65119171142578,8.0 C 31.76604461669922,13.797683715820312 29.428571701049805,18.670159339904785 29.428571701049805,18.670159339904785 L 34.12280082702637,14.750704288482666 C 35.17102813720703,16.07239055633545 36.62942886352539,18.715733528137207 36.62942886352539,18.715733528137207 C 36.62942886352539,18.715733528137207 38.657514572143555,16.095160484313965 39.7968864440918,14.773502826690674 L 43.92142868041992,18.715731620788574 C 43.92142868041992,18.715731620788574 41.55202865600586,13.795937538146973 39.650705337524414,8.0 L 33.65119171142578,8.0 Z" style="fill: rgb(38, 38, 38); stroke-width: 1px; stroke: none;"/>
<path d="M 62.222618103027344,8.0 L 62.222618103027344,8.0 C 60.33747482299805,13.797683715820312 58.0,18.670159339904785 58.0,18.670159339904785 L 62.69422912597656,14.750704288482666 C 63.74245834350586,16.07239055633545 65.20085906982422,18.715733528137207 65.20085906982422,18.715733528137207 C 65.20085906982422,18.715733528137207 67.22894287109375,16.095160484313965 68.36831665039062,14.773502826690674 L 72.49285888671875,18.715731620788574 C 72.49285888671875,18.715731620788574 70.12345504760742,13.795937538146973 68.22213363647461,8.0 L 62.222618103027344,8.0 Z" style="fill: rgb(38, 38, 38); stroke-width: 1px; stroke: none;"/>
<path d="M 90.79405212402344,8.0 C 88.90890502929688,13.797683715820312 86.57142639160156,18.670159339904785 86.57142639160156,18.670159339904785 L 91.26565551757812,14.750704288482666 C 92.31388854980469,16.07239055633545 93.77228546142578,18.715733528137207 93.77228546142578,18.715733528137207 C 93.77228546142578,18.715733528137207 95.80036926269531,16.095160484313965 96.93974304199219,14.773502826690674 L 101.06428527832031,18.715731620788574 C 101.06428527832031,18.715731620788574 98.69488525390625,13.795937538146973 96.79356384277344,8.0 L 90.79405212402344,8.0 Z" style="fill: rgb(38, 38, 38); stroke-width: 1px; stroke: none;"/>
<path d="M 119.365478515625,8.0 C 117.48033142089844,13.797683715820312 115.14286041259766,18.670159339904785 115.14286041259766,18.670159339904785 L 119.83708953857422,14.750704288482666 C 120.88531494140625,16.07239055633545 122.34371185302734,18.715733528137207 122.34371185302734,18.715733528137207 C 122.34371185302734,18.715733528137207 124.3718032836914,16.095160484313965 125.51116943359375,14.773502826690674 L 129.63571166992188,18.715731620788574 C 129.63571166992188,18.715731620788574 127.26631164550781,13.795937538146973 125.364990234375,8.0 L 119.365478515625,8.0 Z" style="fill: rgb(38, 38, 38); stroke-width: 1px; stroke: none;"/>
<path d="M 147.93690490722656,8.0 C 146.0517578125,13.797683715820312 143.7142791748047,18.670159339904785 143.7142791748047,18.670159339904785 L 148.40850830078125,14.750704288482666 C 149.4567413330078,16.07239055633545 150.91514587402344,18.715733528137207 150.91514587402344,18.715733528137207 C 150.91514587402344,18.715733528137207 152.94322204589844,16.095160484313965 154.0825958251953,14.773502826690674 L 158.20713806152344,18.715731620788574 C 158.20713806152344,18.715731620788574 155.83773803710938,13.795937538146973 153.93641662597656,8.0 L 147.93690490722656,8.0 Z" style="fill: rgb(38, 38, 38); stroke-width: 1px; stroke: none;"/>
<path d="M 176.50833129882812,8.0 C 174.62318420410156,13.797683715820312 172.2857208251953,18.670159339904785 172.2857208251953,18.670159339904785 L 176.97994995117188,14.750704288482666 C 178.02816772460938,16.07239055633545 179.486572265625,18.715733528137207 179.486572265625,18.715733528137207 C 179.486572265625,18.715733528137207 181.51466369628906,16.095160484313965 182.65402221679688,14.773502826690674 L 186.778564453125,18.715731620788574 C 186.778564453125,18.715731620788574 184.40916442871094,13.795937538146973 182.50784301757812,8.0 L 176.50833129882812,8.0 Z" style="fill: rgb(38, 38, 38); stroke-width: 1px; stroke: none;"/>
<path d="M 205.0797576904297,8.0 C 203.19461059570312,13.797683715820312 200.85714721679688,18.670159339904785 200.85714721679688,18.670159339904785 L 205.55137634277344,14.750704288482666 C 206.47573852539062,15.916223526000977 207.71908569335938,18.109525680541992 208.0,18.61156177520752 L 208.0,18.61156177520752 L 208.0,8.0 L 205.0797576904297,8.0 Z" style="fill: rgb(38, 38, 38); stroke-width: 1px; stroke: none;"/>
<path d="M 22.524399757385254,25.858585357666016 C 20.979771614074707,25.858585357666016 19.72614288330078,27.112205505371094 19.72614288330078,28.656850814819336 C 19.72614288330078,30.201492309570312 20.979771614074707,31.45511817932129 22.524399757385254,31.45511817932129 C 24.06905746459961,31.45511817932129 25.32268524169922,30.201492309570312 25.32268524169922,28.656850814819336 C 25.32268524169922,27.112205505371094 24.06905746459961,25.858585357666016 22.524399757385254,25.858585357666016 L 22.524399757385254,25.858585357666016 Z" style="fill: rgb(38, 38, 38); stroke-width: 1px; stroke: none;"/>
<path d="M 18.494914054870605,30.783536911010742 C 16.950257301330566,30.783536911010742 15.696629047393799,32.03715896606445 15.696629047393799,33.581804275512695 C 15.696629047393799,35.126447677612305 16.950257301330566,36.38007354736328 18.494914054870605,36.38007354736328 C 20.03954315185547,36.38007354736328 21.293171882629395,35.126447677612305 21.293171882629395,33.581804275512695 C 21.293171882629395,32.03715896606445 20.03954315185547,30.783536911010742 18.494914054870605,30.783536911010742 L 18.494914054870605,30.783536911010742 Z" style="fill: rgb(38, 38, 38); stroke-width: 1px; stroke: none;"/>
<path d="M 26.55391502380371,30.783536911010742 C 25.009286880493164,30.783536911010742 23.75565814971924,32.03715896606445 23.75565814971924,33.581804275512695 C 23.75565814971924,35.126447677612305 25.009286880493164,36.38007354736328 26.55391502380371,36.38007354736328 C 28.09857177734375,36.38007354736328 29.35219955444336,35.126447677612305 29.35219955444336,33.581804275512695 C 29.35219955444336,32.03715896606445 28.09857177734375,30.783536911010742 26.55391502380371,30.783536911010742 L 26.55391502380371,30.783536911010742 Z" style="fill: rgb(38, 38, 38); stroke-width: 1px; stroke: none;"/>
<path d="M 21.705657958984375,32.0982723236084 C 21.614514350891113,40.89424514770508 15.142857074737549,54.38444519042969 15.142857074737549,54.38444519042969 L 19.83708667755127,50.464988708496094 C 20.88531494140625,51.78667449951172 22.343714714050293,54.43001937866211 22.343714714050293,54.43001937866211 C 22.343714714050293,54.43001937866211 24.37179946899414,51.809444427490234 25.511171340942383,50.487789154052734 L 29.635713577270508,54.430015563964844 C 29.635713577270508,54.430015563964844 23.072914123535156,40.8031005859375 23.02734375,32.18942451477051 L 21.705657958984375,32.09827423095703 L 21.705657958984375,32.0982723236084 L 21.705657958984375,32.0982723236084 Z" style="fill: rgb(38, 38, 38); stroke-width: 1px; stroke: none;"/>
<path d="M 51.095829010009766,25.858585357666016 C 49.55120086669922,25.858585357666016 48.29757308959961,27.112205505371094 48.29757308959961,28.656850814819336 C 48.29757308959961,30.201492309570312 49.55120086669922,31.45511817932129 51.095829010009766,31.45511817932129 C 52.64048385620117,31.45511817932129 53.89411163330078,30.201492309570312 53.89411163330078,28.656850814819336 C 53.89411163330078,27.112205505371094 52.64048385620117,25.858585357666016 51.095829010009766,25.858585357666016 L 51.095829010009766,25.858585357666016 Z" style="fill: rgb(38, 38, 38); stroke-width: 1px; stroke: none;"/>
<path d="M 47.066341400146484,30.783536911010742 C 45.52168655395508,30.783536911010742 44.26805877685547,32.03715896606445 44.26805877685547,33.581804275512695 C 44.26805877685547,35.126447677612305 45.52168655395508,36.38007354736328 47.066341400146484,36.38007354736328 C 48.6109733581543,36.38007354736328 49.864601135253906,35.126447677612305 49.864601135253906,33.581804275512695 C 49.864601135253906,32.03715896606445 48.6109733581543,30.783536911010742 47.066341400146484,30.783536911010742 L 47.066341400146484,30.783536911010742 Z" style="fill: rgb(38, 38, 38); stroke-width: 1px; stroke: none;"/>
<path d="M 55.125343322753906,30.783536911010742 C 53.58071517944336,30.783536911010742 52.32708740234375,32.03715896606445 52.32708740234375,33.581804275512695 C 52.32708740234375,35.126447677612305 53.58071517944336,36.38007354736328 55.125343322753906,36.38007354736328 C 56.66999816894531,36.38007354736328 57.92362976074219,35.126447677612305 57.92362976074219,33.581804275512695 C 57.92362976074219,32.03715896606445 56.66999816894531,30.783536911010742 55.125343322753906,30.783536911010742 L 55.125343322753906,30.783536911010742 Z" style="fill: rgb(38, 38, 38); stroke-width: 1px; stroke: none;"/>
<path d="M 50.27708435058594,32.0982723236084 C 50.185943603515625,40.89424514770508 43.71428680419922,54.38444519042969 43.71428680419922,54.38444519042969 L 48.40851593017578,50.464988708496094 C 49.45674133300781,51.78667449951172 50.91514205932617,54.43001937866211 50.91514205932617,54.43001937866211 C 50.91514205932617,54.43001937866211 52.94322967529297,51.809444427490234 54.08259963989258,50.487789154052734 L 58.2071418762207,54.430015563964844 C 58.2071418762207,54.430015563964844 51.644344329833984,40.8031005859375 51.59877014160156,32.18942451477051 L 50.27708435058594,32.09827423095703 L 50.27708435058594,32.0982723236084 L 50.27708435058594,32.0982723236084 Z" style="fill: rgb(38, 38, 38); stroke-width: 1px; stroke: none;"/>
<path d="M 79.6672592163086,25.858585357666016 C 78.12262725830078,25.858585357666016 76.86900329589844,27.112205505371094 76.86900329589844,28.656850814819336 C 76.86900329589844,30.201492309570312 78.12262725830078,31.45511817932129 79.6672592163086,31.45511817932129 C 81.2119140625,31.45511817932129 82.46554565429688,30.201492309570312 82.46554565429688,28.656850814819336 C 82.46554565429688,27.112205505371094 81.2119140625,25.858585357666016 79.6672592163086,25.858585357666016 L 79.6672592163086,25.858585357666016 Z" style="fill: rgb(38, 38, 38); stroke-width: 1px; stroke: none;"/>
<path d="M 75.63777160644531,30.783536911010742 C 74.0931167602539,30.783536911010742 72.83948516845703,32.03715896606445 72.83948516845703,33.581804275512695 C 72.83948516845703,35.126447677612305 74.0931167602539,36.38007354736328 75.63777160644531,36.38007354736328 C 77.18240356445312,36.38007354736328 78.43602752685547,35.126447677612305 78.43602752685547,33.581804275512695 C 78.43602752685547,32.03715896606445 77.18240356445312,30.783536911010742 75.63777160644531,30.783536911010742 L 75.63777160644531,30.783536911010742 Z" style="fill: rgb(38, 38, 38); stroke-width: 1px; stroke: none;"/>
<path d="M 83.69676971435547,30.783536911010742 C 82.15214538574219,30.783536911010742 80.89851379394531,32.03715896606445 80.89851379394531,33.581804275512695 C 80.89851379394531,35.126447677612305 82.15214538574219,36.38007354736328 83.69676971435547,36.38007354736328 C 85.2414321899414,36.38007354736328 86.49505615234375,35.126447677612305 86.49505615234375,33.581804275512695 C 86.49505615234375,32.03715896606445 85.2414321899414,30.783536911010742 83.69676971435547,30.783536911010742 L 83.69676971435547,30.783536911010742 Z" style="fill: rgb(38, 38, 38); stroke-width: 1px; stroke: none;"/>
<path d="M 78.84851837158203,32.0982723236084 C 78.75736999511719,40.89424514770508 72.28571319580078,54.38444519042969 72.28571319580078,54.38444519042969 L 76.97994232177734,50.464988708496094 C 78.0281753540039,51.78667449951172 79.486572265625,54.43001937866211 79.486572265625,54.43001937866211 C 79.486572265625,54.43001937866211 81.51465606689453,51.809444427490234 82.6540298461914,50.487789154052734 L 86.77857208251953,54.430015563964844 C 86.77857208251953,54.430015563964844 80.21577453613281,40.8031005859375 80.17020416259766,32.18942451477051 L 78.84851837158203,32.09827423095703 L 78.84851837158203,32.0982723236084 L 78.84851837158203,32.0982723236084 Z" style="fill: rgb(38, 38, 38); stroke-width: 1px; stroke: none;"/>
<path d="M 108.23868560791016,25.858585357666016 C 106.69405364990234,25.858585357666016 105.4404296875,27.112205505371094 105.4404296875,28.656850814819336 C 105.4404296875,30.201492309570312 106.69405364990234,31.45511817932129 108.23868560791016,31.45511817932129 C 109.78334045410156,31.45511817932129 111.03697204589844,30.201492309570312 111.03697204589844,28.656850814819336 C 111.03697204589844,27.112205505371094 109.78334045410156,25.858585357666016 108.23868560791016,25.858585357666016 L 108.23868560791016,25.858585357666016 Z" style="fill: rgb(38, 38, 38); stroke-width: 1px; stroke: none;"/>
<path d="M 104.20919799804688,30.783536911010742 C 102.66454315185547,30.783536911010742 101.4109115600586,32.03715896606445 101.4109115600586,33.581804275512695 C 101.4109115600586,35.126447677612305 102.66454315185547,36.38007354736328 104.20919799804688,36.38007354736328 C 105.75382995605469,36.38007354736328 107.00745391845703,35.126447677612305 107.00745391845703,33.581804275512695 C 107.00745391845703,32.03715896606445 105.75382995605469,30.783536911010742 104.20919799804688,30.783536911010742 L 104.20919799804688,30.783536911010742 Z" style="fill: rgb(38, 38, 38); stroke-width: 1px; stroke: none;"/>
<path d="M 112.26820373535156,30.783536911010742 C 110.72357177734375,30.783536911010742 109.46994018554688,32.03715896606445 109.46994018554688,33.581804275512695 C 109.46994018554688,35.126447677612305 110.72357177734375,36.38007354736328 112.26820373535156,36.38007354736328 C 113.81285858154297,36.38007354736328 115.06648254394531,35.126447677612305 115.06648254394531,33.581804275512695 C 115.06648254394531,32.03715896606445 113.81285858154297,30.783536911010742 112.26820373535156,30.783536911010742 L 112.26820373535156,30.783536911010742 Z" style="fill: rgb(38, 38, 38); stroke-width: 1px; stroke: none;"/>
<path d="M 107.4199447631836,32.0982723236084 C 107.32879638671875,40.89424514770508 100.85713958740234,54.38444519042969 100.85713958740234,54.38444519042969 L 105.5513687133789,50.464988708496094 C 106.59960174560547,51.78667449951172 108.05799865722656,54.43001937866211 108.05799865722656,54.43001937866211 C 108.05799865722656,54.43001937866211 110.0860824584961,51.809444427490234 111.22545623779297,50.487789154052734 L 115.3499984741211,54.430015563964844 C 115.3499984741211,54.430015563964844 108.78720092773438,40.8031005859375 108.74163055419922,32.18942451477051 L 107.4199447631836,32.09827423095703 L 107.4199447631836,32.0982723236084 L 107.4199447631836,32.0982723236084 Z" style="fill: rgb(38, 38, 38); stroke-width: 1px; stroke: none;"/>
<path d="M 136.81011962890625,25.858585357666016 C 135.26548767089844,25.858585357666016 134.01185607910156,27.112205505371094 134.01185607910156,28.656850814819336 C 134.01185607910156,30.201492309570312 135.26548767089844,31.45511817932129 136.81011962890625,31.45511817932129 C 138.35476684570312,31.45511817932129 139.6083984375,30.201492309570312 139.6083984375,28.656850814819336 C 139.6083984375,27.112205505371094 138.35476684570312,25.858585357666016 136.81011962890625,25.858585357666016 L 136.81011962890625,25.858585357666016 Z" style="fill: rgb(38, 38, 38); stroke-width: 1px; stroke: none;"/>
<path d="M 132.78063201904297,30.783536911010742 C 131.23596954345703,30.783536911010742 129.9823455810547,32.03715896606445 129.9823455810547,33.581804275512695 C 129.9823455810547,35.126447677612305 131.23596954345703,36.38007354736328 132.78063201904297,36.38007354736328 C 134.32525634765625,36.38007354736328 135.57888793945312,35.126447677612305 135.57888793945312,33.581804275512695 C 135.57888793945312,32.03715896606445 134.32525634765625,30.783536911010742 132.78063201904297,30.783536911010742 L 132.78063201904297,30.783536911010742 Z" style="fill: rgb(38, 38, 38); stroke-width: 1px; stroke: none;"/>
<path d="M 140.83963012695312,30.783536911010742 C 139.2949981689453,30.783536911010742 138.04136657714844,32.03715896606445 138.04136657714844,33.581804275512695 C 138.04136657714844,35.126447677612305 139.2949981689453,36.38007354736328 140.83963012695312,36.38007354736328 C 142.38429260253906,36.38007354736328 143.63790893554688,35.126447677612305 143.63790893554688,33.581804275512695 C 143.63790893554688,32.03715896606445 142.38429260253906,30.783536911010742 140.83963012695312,30.783536911010742 L 140.83963012695312,30.783536911010742 Z" style="fill: rgb(38, 38, 38); stroke-width: 1px; stroke: none;"/>
<path d="M 135.99137115478516,32.0982723236084 C 135.90023040771484,40.89424514770508 129.42857360839844,54.38444519042969 129.42857360839844,54.38444519042969 L 134.122802734375,50.464988708496094 C 135.17102813720703,51.78667449951172 136.62942504882812,54.43001937866211 136.62942504882812,54.43001937866211 C 136.62942504882812,54.43001937866211 138.6575164794922,51.809444427490234 139.79689025878906,50.487789154052734 L 143.9214324951172,54.430015563964844 C 143.9214324951172,54.430015563964844 137.35862731933594,40.8031005859375 137.3130645751953,32.18942451477051 L 135.99137115478516,32.09827423095703 L 135.99137115478516,32.0982723236084 L 135.99137115478516,32.0982723236084 Z" style="fill: rgb(38, 38, 38); stroke-width: 1px; stroke: none;"/>
<path d="M 165.3815460205078,25.858585357666016 C 163.8369140625,25.858585357666016 162.58328247070312,27.112205505371094 162.58328247070312,28.656850814819336 C 162.58328247070312,30.201492309570312 163.8369140625,31.45511817932129 165.3815460205078,31.45511817932129 C 166.9261932373047,31.45511817932129 168.17982482910156,30.201492309570312 168.17982482910156,28.656850814819336 C 168.17982482910156,27.112205505371094 166.9261932373047,25.858585357666016 165.3815460205078,25.858585357666016 L 165.3815460205078,25.858585357666016 Z" style="fill: rgb(38, 38, 38); stroke-width: 1px; stroke: none;"/>
<path d="M 161.35205078125,30.783536911010742 C 159.80740356445312,30.783536911010742 158.55377197265625,32.03715896606445 158.55377197265625,33.581804275512695 C 158.55377197265625,35.126447677612305 159.80740356445312,36.38007354736328 161.35205078125,36.38007354736328 C 162.8966827392578,36.38007354736328 164.1503143310547,35.126447677612305 164.1503143310547,33.581804275512695 C 164.1503143310547,32.03715896606445 162.8966827392578,30.783536911010742 161.35205078125,30.783536911010742 L 161.35205078125,30.783536911010742 Z" style="fill: rgb(38, 38, 38); stroke-width: 1px; stroke: none;"/>
<path d="M 169.4110565185547,30.783536911010742 C 167.86642456054688,30.783536911010742 166.61279296875,32.03715896606445 166.61279296875,33.581804275512695 C 166.61279296875,35.126447677612305 167.86642456054688,36.38007354736328 169.4110565185547,36.38007354736328 C 170.95571899414062,36.38007354736328 172.2093505859375,35.126447677612305 172.2093505859375,33.581804275512695 C 172.2093505859375,32.03715896606445 170.95571899414062,30.783536911010742 169.4110565185547,30.783536911010742 L 169.4110565185547,30.783536911010742 Z" style="fill: rgb(38, 38, 38); stroke-width: 1px; stroke: none;"/>
<path d="M 164.56280517578125,32.0982723236084 C 164.47166442871094,40.89424514770508 158.0,54.38444519042969 158.0,54.38444519042969 L 162.69422912597656,50.464988708496094 C 163.74246215820312,51.78667449951172 165.2008514404297,54.43001937866211 165.2008514404297,54.43001937866211 C 165.2008514404297,54.43001937866211 167.22894287109375,51.809444427490234 168.36831665039062,50.487789154052734 L 172.49285888671875,54.430015563964844 C 172.49285888671875,54.430015563964844 165.9300537109375,40.8031005859375 165.88449096679688,32.18942451477051 L 164.56280517578125,32.09827423095703 L 164.56280517578125,32.0982723236084 L 164.56280517578125,32.0982723236084 Z" style="fill: rgb(38, 38, 38); stroke-width: 1px; stroke: none;"/>
<path d="M 193.95297241210938,25.858585357666016 C 192.40834045410156,25.858585357666016 191.1547088623047,27.112205505371094 191.1547088623047,28.656850814819336 C 191.1547088623047,30.201492309570312 192.40834045410156,31.45511817932129 193.95297241210938,31.45511817932129 C 195.4976348876953,31.45511817932129 196.75125122070312,30.201492309570312 196.75125122070312,28.656850814819336 C 196.75125122070312,27.112205505371094 195.4976348876953,25.858585357666016 193.95297241210938,25.858585357666016 L 193.95297241210938,25.858585357666016 Z" style="fill: rgb(38, 38, 38); stroke-width: 1px; stroke: none;"/>
<path d="M 189.92349243164062,30.783536911010742 C 188.3788299560547,30.783536911010742 187.1251983642578,32.03715896606445 187.1251983642578,33.581804275512695 C 187.1251983642578,35.126447677612305 188.3788299560547,36.38007354736328 189.92349243164062,36.38007354736328 C 191.46810913085938,36.38007354736328 192.72174072265625,35.126447677612305 192.72174072265625,33.581804275512695 C 192.72174072265625,32.03715896606445 191.46810913085938,30.783536911010742 189.92349243164062,30.783536911010742 L 189.92349243164062,30.783536911010742 Z" style="fill: rgb(38, 38, 38); stroke-width: 1px; stroke: none;"/>
<path d="M 197.98248291015625,30.783536911010742 C 196.43785095214844,30.783536911010742 195.18423461914062,32.03715896606445 195.18423461914062,33.581804275512695 C 195.18423461914062,35.126447677612305 196.43785095214844,36.38007354736328 197.98248291015625,36.38007354736328 C 199.5271453857422,36.38007354736328 200.78077697753906,35.126447677612305 200.78077697753906,33.581804275512695 C 200.78077697753906,32.03715896606445 199.5271453857422,30.783536911010742 197.98248291015625,30.783536911010742 L 197.98248291015625,30.783536911010742 Z" style="fill: rgb(38, 38, 38); stroke-width: 1px; stroke: none;"/>
<path d="M 193.1342315673828,32.0982723236084 C 193.0430908203125,40.89424514770508 186.57142639160156,54.38444519042969 186.57142639160156,54.38444519042969 L 191.26565551757812,50.464988708496094 C 192.3138885498047,51.78667449951172 193.7722930908203,54.43001937866211 193.7722930908203,54.43001937866211 C 193.7722930908203,54.43001937866211 195.8003692626953,51.809444427490234 196.9397430419922,50.487789154052734 L 201.0642852783203,54.430015563964844 C 201.0642852783203,54.430015563964844 194.50148010253906,40.8031005859375 194.45591735839844,32.18942451477051 L 193.1342315673828,32.09827423095703 L 193.1342315673828,32.0982723236084 L 193.1342315673828,32.0982723236084 Z" style="fill: rgb(38, 38, 38); stroke-width: 1px; stroke: none;"/>
<path d="M 8.23868553340435,61.572872161865234 C 8.158288598060608,61.572872161865234 8.078680023550987,61.57626724243164 7.999995542500983,61.582923889160156 L 8.0,61.582923889160156 L 8.0,67.15935134887695 L 8.000000000000068,67.15935134887695 C 8.078683026134968,67.16600799560547 8.15829011797905,67.16940307617188 8.23868553340435,67.16940307617188 C 9.783342719078064,67.16940307617188 11.036970615386963,65.91577911376953 11.036970615386963,64.37113571166992 C 11.036970615386963,62.82649230957031 9.783342719078064,61.572872161865234 8.23868553340435,61.572872161865234 L 8.23868553340435,61.572872161865234 Z" style="fill: rgb(38, 38, 38); stroke-width: 1px; stroke: none;"/>
<path d="M 12.268200397491455,66.49782180786133 C 10.723572254180908,66.49782180786133 9.469943404197693,67.75144577026367 9.469943404197693,69.29608917236328 C 9.469943404197693,70.84073257446289 10.723572254180908,72.0943603515625 12.268200397491455,72.0943603515625 C 13.812857151031494,72.0943603515625 15.06648588180542,70.84073257446289 15.06648588180542,69.29608917236328 C 15.06648588180542,67.75144577026367 13.812857151031494,66.49782180786133 12.268200397491455,66.49782180786133 L 12.268200397491455,66.49782180786133 Z" style="fill: rgb(38, 38, 38); stroke-width: 1px; stroke: none;"/>
<path d="M 8.0,67.8525619506836 L 8.0,90.04013061523438 L 8.000000361669692,90.04013061523438 C 8.037639651447535,90.1073989868164 8.05800049751997,90.14430236816406 8.05800049751997,90.14430236816406 C 8.05800049751997,90.14430236816406 10.086085796356201,87.52373504638672 11.225457668304443,86.20207214355469 L 15.349999904632568,90.14430236816406 C 15.349999904632568,90.14430236816406 8.787199914455414,76.51738739013672 8.7416290640831,67.9037094116211 L 8.00000000000008,67.8525619506836 L 8.0,67.8525619506836 Z" style="fill: rgb(38, 38, 38); stroke-width: 1px; stroke: none;"/>
<path d="M 36.81011390686035,61.572872161865234 C 35.265485763549805,61.572872161865234 34.011857986450195,62.82649230957031 34.011857986450195,64.37113571166992 C 34.011857986450195,65.91577911376953 35.265485763549805,67.16940307617188 36.81011390686035,67.16940307617188 C 38.35477066040039,67.16940307617188 39.6083984375,65.91577911376953 39.6083984375,64.37113571166992 C 39.6083984375,62.82649230957031 38.35477066040039,61.572872161865234 36.81011390686035,61.572872161865234 L 36.81011390686035,61.572872161865234 Z" style="fill: rgb(38, 38, 38); stroke-width: 1px; stroke: none;"/>
<path d="M 32.7806282043457,66.49782180786133 C 31.235971450805664,66.49782180786133 29.982343673706055,67.75144577026367 29.982343673706055,69.29608917236328 C 29.982343673706055,70.84073257446289 31.235971450805664,72.0943603515625 32.7806282043457,72.0943603515625 C 34.32525825500488,72.0943603515625 35.57888603210449,70.84073257446289 35.57888603210449,69.29608917236328 C 35.57888603210449,67.75144577026367 34.32525825500488,66.49782180786133 32.7806282043457,66.49782180786133 L 32.7806282043457,66.49782180786133 Z" style="fill: rgb(38, 38, 38); stroke-width: 1px; stroke: none;"/>
<path d="M 40.839630126953125,66.49782180786133 C 39.295000076293945,66.49782180786133 38.041372299194336,67.75144577026367 38.041372299194336,69.29608917236328 C 38.041372299194336,70.84073257446289 39.295000076293945,72.0943603515625 40.839630126953125,72.0943603515625 C 42.38428497314453,72.0943603515625 43.63791275024414,70.84073257446289 43.63791275024414,69.29608917236328 C 43.63791275024414,67.75144577026367 42.38428497314453,66.49782180786133 40.839630126953125,66.49782180786133 L 40.839630126953125,66.49782180786133 Z" style="fill: rgb(38, 38, 38); stroke-width: 1px; stroke: none;"/>
<path d="M 35.991371154785156,67.81255722045898 C 35.90022850036621,76.60852813720703 29.428571701049805,90.0987319946289 29.428571701049805,90.0987319946289 L 34.12280082702637,86.17927551269531 C 35.17102813720703,87.50096130371094 36.62942886352539,90.14430236816406 36.62942886352539,90.14430236816406 C 36.62942886352539,90.14430236816406 38.657514572143555,87.52373504638672 39.7968864440918,86.20207214355469 L 43.92142868041992,90.14430236816406 C 43.92142868041992,90.14430236816406 37.35862922668457,76.51738739013672 37.31305694580078,67.9037094116211 L 35.991371154785156,67.81256103515625 L 35.991371154785156,67.81255722045898 L 35.991371154785156,67.81255722045898 Z" style="fill: rgb(38, 38, 38); stroke-width: 1px; stroke: none;"/>
<path d="M 65.38154220581055,61.572872161865234 C 63.8369140625,61.572872161865234 62.58328628540039,62.82649230957031 62.58328628540039,64.37113571166992 C 62.58328628540039,65.91577911376953 63.8369140625,67.16940307617188 65.38154220581055,67.16940307617188 C 66.92620086669922,67.16940307617188 68.17982864379883,65.91577911376953 68.17982864379883,64.37113571166992 C 68.17982864379883,62.82649230957031 66.92620086669922,61.572872161865234 65.38154220581055,61.572872161865234 L 65.38154220581055,61.572872161865234 Z" style="fill: rgb(38, 38, 38); stroke-width: 1px; stroke: none;"/>
<path d="M 61.35205841064453,66.49782180786133 C 59.80739974975586,66.49782180786133 58.55377197265625,67.75144577026367 58.55377197265625,69.29608917236328 C 58.55377197265625,70.84073257446289 59.80739974975586,72.0943603515625 61.35205841064453,72.0943603515625 C 62.89668655395508,72.0943603515625 64.15031433105469,70.84073257446289 64.15031433105469,69.29608917236328 C 64.15031433105469,67.75144577026367 62.89668655395508,66.49782180786133 61.35205841064453,66.49782180786133 L 61.35205841064453,66.49782180786133 Z" style="fill: rgb(38, 38, 38); stroke-width: 1px; stroke: none;"/>
<path d="M 69.41105651855469,66.49782180786133 C 67.86642837524414,66.49782180786133 66.61280059814453,67.75144577026367 66.61280059814453,69.29608917236328 C 66.61280059814453,70.84073257446289 67.86642837524414,72.0943603515625 69.41105651855469,72.0943603515625 C 70.95571517944336,72.0943603515625 72.20934295654297,70.84073257446289 72.20934295654297,69.29608917236328 C 72.20934295654297,67.75144577026367 70.95571517944336,66.49782180786133 69.41105651855469,66.49782180786133 L 69.41105651855469,66.49782180786133 Z" style="fill: rgb(38, 38, 38); stroke-width: 1px; stroke: none;"/>
<path d="M 64.56280136108398,67.81255722045898 C 64.4716567993164,76.60852813720703 58.0,90.0987319946289 58.0,90.0987319946289 L 62.69422912597656,86.17927551269531 C 63.74245834350586,87.50096130371094 65.20085906982422,90.14430236816406 65.20085906982422,90.14430236816406 C 65.20085906982422,90.14430236816406 67.22894287109375,87.52373504638672 68.36831665039062,86.20207214355469 L 72.49285888671875,90.14430236816406 C 72.49285888671875,90.14430236816406 65.93005752563477,76.51738739013672 65.88448715209961,67.9037094116211 L 64.56280136108398,67.81256103515625 L 64.56280136108398,67.81255722045898 L 64.56280136108398,67.81255722045898 Z" style="fill: rgb(38, 38, 38); stroke-width: 1px; stroke: none;"/>
<path d="M 93.95297241210938,61.572872161865234 C 92.40834045410156,61.572872161865234 91.15471649169922,62.82649230957031 91.15471649169922,64.37113571166992 C 91.15471649169922,65.91577911376953 92.40834045410156,67.16940307617188 93.95297241210938,67.16940307617188 C 95.49762725830078,67.16940307617188 96.75125885009766,65.91577911376953 96.75125885009766,64.37113571166992 C 96.75125885009766,62.82649230957031 95.49762725830078,61.572872161865234 93.95297241210938,61.572872161865234 L 93.95297241210938,61.572872161865234 Z" style="fill: rgb(38, 38, 38); stroke-width: 1px; stroke: none;"/>
<path d="M 89.9234848022461,66.49782180786133 C 88.37882995605469,66.49782180786133 87.12519836425781,67.75144577026367 87.12519836425781,69.29608917236328 C 87.12519836425781,70.84073257446289 88.37882995605469,72.0943603515625 89.9234848022461,72.0943603515625 C 91.4681167602539,72.0943603515625 92.72174072265625,70.84073257446289 92.72174072265625,69.29608917236328 C 92.72174072265625,67.75144577026367 91.4681167602539,66.49782180786133 89.9234848022461,66.49782180786133 L 89.9234848022461,66.49782180786133 Z" style="fill: rgb(38, 38, 38); stroke-width: 1px; stroke: none;"/>
<path d="M 97.98248291015625,66.49782180786133 C 96.43785858154297,66.49782180786133 95.1842269897461,67.75144577026367 95.1842269897461,69.29608917236328 C 95.1842269897461,70.84073257446289 96.43785858154297,72.0943603515625 97.98248291015625,72.0943603515625 C 99.52714538574219,72.0943603515625 100.78076934814453,70.84073257446289 100.78076934814453,69.29608917236328 C 100.78076934814453,67.75144577026367 99.52714538574219,66.49782180786133 97.98248291015625,66.49782180786133 L 97.98248291015625,66.49782180786133 Z" style="fill: rgb(38, 38, 38); stroke-width: 1px; stroke: none;"/>
<path d="M 93.13423156738281,67.81255722045898 C 93.04308319091797,76.60852813720703 86.57142639160156,90.0987319946289 86.57142639160156,90.0987319946289 L 91.26565551757812,86.17927551269531 C 92.31388854980469,87.50096130371094 93.77228546142578,90.14430236816406 93.77228546142578,90.14430236816406 C 93.77228546142578,90.14430236816406 95.80036926269531,87.52373504638672 96.93974304199219,86.20207214355469 L 101.06428527832031,90.14430236816406 C 101.06428527832031,90.14430236816406 94.5014877319336,76.51738739013672 94.45591735839844,67.9037094116211 L 93.13423156738281,67.81256103515625 L 93.13423156738281,67.81255722045898 L 93.13423156738281,67.81255722045898 Z" style="fill: rgb(38, 38, 38); stroke-width: 1px; stroke: none;"/>
<path d="M 122.52439880371094,61.572872161865234 C 120.97977447509766,61.572872161865234 119.72614288330078,62.82649230957031 119.72614288330078,64.37113571166992 C 119.72614288330078,65.91577911376953 120.97977447509766,67.16940307617188 122.52439880371094,67.16940307617188 C 124.06905364990234,67.16940307617188 125.32268524169922,65.91577911376953 125.32268524169922,64.37113571166992 C 125.32268524169922,62.82649230957031 124.06905364990234,61.572872161865234 122.52439880371094,61.572872161865234 L 122.52439880371094,61.572872161865234 Z" style="fill: rgb(38, 38, 38); stroke-width: 1px; stroke: none;"/>
<path d="M 118.49491119384766,66.49782180786133 C 116.95025634765625,66.49782180786133 115.6966323852539,67.75144577026367 115.6966323852539,69.29608917236328 C 115.6966323852539,70.84073257446289 116.95025634765625,72.0943603515625 118.49491119384766,72.0943603515625 C 120.03954315185547,72.0943603515625 121.29317474365234,70.84073257446289 121.29317474365234,69.29608917236328 C 121.29317474365234,67.75144577026367 120.03954315185547,66.49782180786133 118.49491119384766,66.49782180786133 L 118.49491119384766,66.49782180786133 Z" style="fill: rgb(38, 38, 38); stroke-width: 1px; stroke: none;"/>
<path d="M 126.55391693115234,66.49782180786133 C 125.00928497314453,66.49782180786133 123.75566101074219,67.75144577026367 123.75566101074219,69.29608917236328 C 123.75566101074219,70.84073257446289 125.00928497314453,72.0943603515625 126.55391693115234,72.0943603515625 C 128.09857177734375,72.0943603515625 129.35220336914062,70.84073257446289 129.35220336914062,69.29608917236328 C 129.35220336914062,67.75144577026367 128.09857177734375,66.49782180786133 126.55391693115234,66.49782180786133 L 126.55391693115234,66.49782180786133 Z" style="fill: rgb(38, 38, 38); stroke-width: 1px; stroke: none;"/>
<path d="M 121.70565795898438,67.81255722045898 C 121.61451721191406,76.60852813720703 115.14286041259766,90.0987319946289 115.14286041259766,90.0987319946289 L 119.83708953857422,86.17927551269531 C 120.88531494140625,87.50096130371094 122.34371185302734,90.14430236816406 122.34371185302734,90.14430236816406 C 122.34371185302734,90.14430236816406 124.3718032836914,87.52373504638672 125.51116943359375,86.20207214355469 L 129.63571166992188,90.14430236816406 C 129.63571166992188,90.14430236816406 123.07291412353516,76.51738739013672 123.02734375,67.9037094116211 L 121.70565795898438,67.81256103515625 L 121.70565795898438,67.81255722045898 L 121.70565795898438,67.81255722045898 Z" style="fill: rgb(38, 38, 38); stroke-width: 1px; stroke: none;"/>
<path d="M 151.0958251953125,61.572872161865234 C 149.5511932373047,61.572872161865234 148.29757690429688,62.82649230957031 148.29757690429688,64.37113571166992 C 148.29757690429688,65.91577911376953 149.5511932373047,67.16940307617188 151.0958251953125,67.16940307617188 C 152.64048767089844,67.16940307617188 153.8941192626953,65.91577911376953 153.8941192626953,64.37113571166992 C 153.8941192626953,62.82649230957031 152.64048767089844,61.572872161865234 151.0958251953125,61.572872161865234 L 151.0958251953125,61.572872161865234 Z" style="fill: rgb(38, 38, 38); stroke-width: 1px; stroke: none;"/>
<path d="M 147.06634521484375,66.49782180786133 C 145.5216827392578,66.49782180786133 144.26805114746094,67.75144577026367 144.26805114746094,69.29608917236328 C 144.26805114746094,70.84073257446289 145.5216827392578,72.0943603515625 147.06634521484375,72.0943603515625 C 148.61097717285156,72.0943603515625 149.86459350585938,70.84073257446289 149.86459350585938,69.29608917236328 C 149.86459350585938,67.75144577026367 148.61097717285156,66.49782180786133 147.06634521484375,66.49782180786133 L 147.06634521484375,66.49782180786133 Z" style="fill: rgb(38, 38, 38); stroke-width: 1px; stroke: none;"/>
<path d="M 155.12533569335938,66.49782180786133 C 153.58071899414062,66.49782180786133 152.32708740234375,67.75144577026367 152.32708740234375,69.29608917236328 C 152.32708740234375,70.84073257446289 153.58071899414062,72.0943603515625 155.12533569335938,72.0943603515625 C 156.6699981689453,72.0943603515625 157.9236297607422,70.84073257446289 157.9236297607422,69.29608917236328 C 157.9236297607422,67.75144577026367 156.6699981689453,66.49782180786133 155.12533569335938,66.49782180786133 L 155.12533569335938,66.49782180786133 Z" style="fill: rgb(38, 38, 38); stroke-width: 1px; stroke: none;"/>
<path d="M 150.27708435058594,67.81255722045898 C 150.18594360351562,76.60852813720703 143.7142791748047,90.0987319946289 143.7142791748047,90.0987319946289 L 148.40850830078125,86.17927551269531 C 149.4567413330078,87.50096130371094 150.91514587402344,90.14430236816406 150.91514587402344,90.14430236816406 C 150.91514587402344,90.14430236816406 152.94322204589844,87.52373504638672 154.0825958251953,86.20207214355469 L 158.20713806152344,90.14430236816406 C 158.20713806152344,90.14430236816406 151.64434814453125,76.51738739013672 151.59877014160156,67.9037094116211 L 150.27708435058594,67.81256103515625 L 150.27708435058594,67.81255722045898 L 150.27708435058594,67.81255722045898 Z" style="fill: rgb(38, 38, 38); stroke-width: 1px; stroke: none;"/>
<path d="M 179.66725158691406,61.572872161865234 C 178.1226348876953,61.572872161865234 176.86900329589844,62.82649230957031 176.86900329589844,64.37113571166992 C 176.86900329589844,65.91577911376953 178.1226348876953,67.16940307617188 179.66725158691406,67.16940307617188 C 181.2119140625,67.16940307617188 182.46554565429688,65.91577911376953 182.46554565429688,64.37113571166992 C 182.46554565429688,62.82649230957031 181.2119140625,61.572872161865234 179.66725158691406,61.572872161865234 L 179.66725158691406,61.572872161865234 Z" style="fill: rgb(38, 38, 38); stroke-width: 1px; stroke: none;"/>
<path d="M 175.6377716064453,66.49782180786133 C 174.09310913085938,66.49782180786133 172.83949279785156,67.75144577026367 172.83949279785156,69.29608917236328 C 172.83949279785156,70.84073257446289 174.09310913085938,72.0943603515625 175.6377716064453,72.0943603515625 C 177.18240356445312,72.0943603515625 178.43603515625,70.84073257446289 178.43603515625,69.29608917236328 C 178.43603515625,67.75144577026367 177.18240356445312,66.49782180786133 175.6377716064453,66.49782180786133 L 175.6377716064453,66.49782180786133 Z" style="fill: rgb(38, 38, 38); stroke-width: 1px; stroke: none;"/>
<path d="M 183.69677734375,66.49782180786133 C 182.1521453857422,66.49782180786133 180.8985137939453,67.75144577026367 180.8985137939453,69.29608917236328 C 180.8985137939453,70.84073257446289 182.1521453857422,72.0943603515625 183.69677734375,72.0943603515625 C 185.24142456054688,72.0943603515625 186.49505615234375,70.84073257446289 186.49505615234375,69.29608917236328 C 186.49505615234375,67.75144577026367 185.24142456054688,66.49782180786133 183.69677734375,66.49782180786133 L 183.69677734375,66.49782180786133 Z" style="fill: rgb(38, 38, 38); stroke-width: 1px; stroke: none;"/>
<path d="M 178.8485107421875,67.81255722045898 C 178.7573699951172,76.60852813720703 172.2857208251953,90.0987319946289 172.2857208251953,90.0987319946289 L 176.97994995117188,86.17927551269531 C 178.02816772460938,87.50096130371094 179.486572265625,90.14430236816406 179.486572265625,90.14430236816406 C 179.486572265625,90.14430236816406 181.51466369628906,87.52373504638672 182.65402221679688,86.20207214355469 L 186.778564453125,90.14430236816406 C 186.778564453125,90.14430236816406 180.2157745361328,76.51738739013672 180.17019653320312,67.9037094116211 L 178.8485107421875,67.81256103515625 L 178.8485107421875,67.81255722045898 L 178.8485107421875,67.81255722045898 Z" style="fill: rgb(38, 38, 38); stroke-width: 1px; stroke: none;"/>
<path d="M 208.0,61.582923889160156 L 208.0,61.582923889160156 C 206.56695556640625,61.704158782958984 205.4404296875,62.90688705444336 205.4404296875,64.37113571166992 C 205.4404296875,65.83538436889648 206.56695556640625,67.03811645507812 208.0,67.15935134887695 L 208.0,67.15935134887695 L 208.0,61.582923889160156 L 208.0,61.582923889160156 Z" style="fill: rgb(38, 38, 38); stroke-width: 1px; stroke: none;"/>
<path d="M 204.20919799804688,66.49782180786133 C 202.66455078125,66.49782180786133 201.41091918945312,67.75144577026367 201.41091918945312,69.29608917236328 C 201.41091918945312,70.84073257446289 202.66453552246094,72.0943603515625 204.20919799804688,72.0943603515625 C 205.7538299560547,72.0943603515625 207.00746154785156,70.84073257446289 207.00746154785156,69.29608917236328 C 207.00746154785156,67.75144577026367 205.7538299560547,66.49782180786133 204.20919799804688,66.49782180786133 L 204.20919799804688,66.49782180786133 Z" style="fill: rgb(38, 38, 38); stroke-width: 1px; stroke: none;"/>
<path d="M 207.41993713378906,67.81255722045898 C 207.32879638671875,76.60852813720703 200.85714721679688,90.0987319946289 200.85714721679688,90.0987319946289 L 205.55137634277344,86.17927551269531 C 206.47573852539062,87.34479522705078 207.71908569335938,89.53809356689453 208.0,90.04013061523438 L 208.0,90.04013061523438 L 208.0,67.8525619506836 L 207.41993713378906,67.81256103515625 L 207.41993713378906,67.81255722045898 L 207.41993713378906,67.81255722045898 Z" style="fill: rgb(38, 38, 38); stroke-width: 1px; stroke: none;"/>
<path d="M 22.524399757385254,97.28715515136719 C 20.979771614074707,97.28715515136719 19.72614288330078,98.54077911376953 19.72614288330078,100.08541870117188 C 19.72614288330078,101.63006591796875 20.979771614074707,102.8836898803711 22.524399757385254,102.8836898803711 C 24.06905746459961,102.8836898803711 25.32268524169922,101.63006591796875 25.32268524169922,100.08541870117188 C 25.32268524169922,98.54077911376953 24.06905746459961,97.28715515136719 22.524399757385254,97.28715515136719 L 22.524399757385254,97.28715515136719 Z" style="fill: rgb(38, 38, 38); stroke-width: 1px; stroke: none;"/>
<path d="M 18.494914054870605,102.21210479736328 C 16.950257301330566,102.21210479736328 15.696629047393799,103.46572875976562 15.696629047393799,105.0103759765625 C 15.696629047393799,106.55501556396484 16.950257301330566,107.80864715576172 18.494914054870605,107.80864715576172 C 20.03954315185547,107.80864715576172 21.293171882629395,106.55501556396484 21.293171882629395,105.0103759765625 C 21.293171882629395,103.46572875976562 20.03954315185547,102.21210479736328 18.494914054870605,102.21210479736328 L 18.494914054870605,102.21210479736328 Z" style="fill: rgb(38, 38, 38); stroke-width: 1px; stroke: none;"/>
<path d="M 26.55391502380371,102.21210479736328 C 25.009286880493164,102.21210479736328 23.75565814971924,103.46572875976562 23.75565814971924,105.0103759765625 C 23.75565814971924,106.55501556396484 25.009286880493164,107.80864715576172 26.55391502380371,107.80864715576172 C 28.09857177734375,107.80864715576172 29.35219955444336,106.55501556396484 29.35219955444336,105.0103759765625 C 29.35219955444336,103.46572875976562 28.09857177734375,102.21210479736328 26.55391502380371,102.21210479736328 L 26.55391502380371,102.21210479736328 Z" style="fill: rgb(38, 38, 38); stroke-width: 1px; stroke: none;"/>
<path d="M 21.705657958984375,103.52684783935547 C 21.614514350891113,112.32281494140625 15.142857074737549,125.81301879882812 15.142857074737549,125.81301879882812 L 19.83708667755127,121.89356231689453 C 20.88531494140625,123.21524810791016 22.343714714050293,125.85858917236328 22.343714714050293,125.85858917236328 C 22.343714714050293,125.85858917236328 24.37179946899414,123.2380142211914 25.511171340942383,121.9163589477539 L 29.635713577270508,125.85858917236328 C 29.635713577270508,125.85858917236328 23.072914123535156,112.23167419433594 23.02734375,103.61799621582031 L 21.705657958984375,103.52684783935547 L 21.705657958984375,103.52684783935547 L 21.705657958984375,103.52684783935547 Z" style="fill: rgb(38, 38, 38); stroke-width: 1px; stroke: none;"/>
<path d="M 51.095829010009766,97.28715515136719 C 49.55120086669922,97.28715515136719 48.29757308959961,98.54077911376953 48.29757308959961,100.08541870117188 C 48.29757308959961,101.63006591796875 49.55120086669922,102.8836898803711 51.095829010009766,102.8836898803711 C 52.64048385620117,102.8836898803711 53.89411163330078,101.63006591796875 53.89411163330078,100.08541870117188 C 53.89411163330078,98.54077911376953 52.64048385620117,97.28715515136719 51.095829010009766,97.28715515136719 L 51.095829010009766,97.28715515136719 Z" style="fill: rgb(38, 38, 38); stroke-width: 1px; stroke: none;"/>
<path d="M 47.066341400146484,102.21210479736328 C 45.52168655395508,102.21210479736328 44.26805877685547,103.46572875976562 44.26805877685547,105.0103759765625 C 44.26805877685547,106.55501556396484 45.52168655395508,107.80864715576172 47.066341400146484,107.80864715576172 C 48.6109733581543,107.80864715576172 49.864601135253906,106.55501556396484 49.864601135253906,105.0103759765625 C 49.864601135253906,103.46572875976562 48.6109733581543,102.21210479736328 47.066341400146484,102.21210479736328 L 47.066341400146484,102.21210479736328 Z" style="fill: rgb(38, 38, 38); stroke-width: 1px; stroke: none;"/>
<path d="M 55.125343322753906,102.21210479736328 C 53.58071517944336,102.21210479736328 52.32708740234375,103.46572875976562 52.32708740234375,105.0103759765625 C 52.32708740234375,106.55501556396484 53.58071517944336,107.80864715576172 55.125343322753906,107.80864715576172 C 56.66999816894531,107.80864715576172 57.92362976074219,106.55501556396484 57.92362976074219,105.0103759765625 C 57.92362976074219,103.46572875976562 56.66999816894531,102.21210479736328 55.125343322753906,102.21210479736328 L 55.125343322753906,102.21210479736328 Z" style="fill: rgb(38, 38, 38); stroke-width: 1px; stroke: none;"/>
<path d="M 50.27708435058594,103.52684783935547 C 50.185943603515625,112.32281494140625 43.71428680419922,125.81301879882812 43.71428680419922,125.81301879882812 L 48.40851593017578,121.89356231689453 C 49.45674133300781,123.21524810791016 50.91514205932617,125.85858917236328 50.91514205932617,125.85858917236328 C 50.91514205932617,125.85858917236328 52.94322967529297,123.2380142211914 54.08259963989258,121.9163589477539 L 58.2071418762207,125.85858917236328 C 58.2071418762207,125.85858917236328 51.644344329833984,112.23167419433594 51.59877014160156,103.61799621582031 L 50.27708435058594,103.52684783935547 L 50.27708435058594,103.52684783935547 L 50.27708435058594,103.52684783935547 Z" style="fill: rgb(38, 38, 38); stroke-width: 1px; stroke: none;"/>
<path d="M 79.6672592163086,97.28715515136719 C 78.12262725830078,97.28715515136719 76.86900329589844,98.54077911376953 76.86900329589844,100.08541870117188 C 76.86900329589844,101.63006591796875 78.12262725830078,102.8836898803711 79.6672592163086,102.8836898803711 C 81.2119140625,102.8836898803711 82.46554565429688,101.63006591796875 82.46554565429688,100.08541870117188 C 82.46554565429688,98.54077911376953 81.2119140625,97.28715515136719 79.6672592163086,97.28715515136719 L 79.6672592163086,97.28715515136719 Z" style="fill: rgb(38, 38, 38); stroke-width: 1px; stroke: none;"/>
<path d="M 75.63777160644531,102.21210479736328 C 74.0931167602539,102.21210479736328 72.83948516845703,103.46572875976562 72.83948516845703,105.0103759765625 C 72.83948516845703,106.55501556396484 74.0931167602539,107.80864715576172 75.63777160644531,107.80864715576172 C 77.18240356445312,107.80864715576172 78.43602752685547,106.55501556396484 78.43602752685547,105.0103759765625 C 78.43602752685547,103.46572875976562 77.18240356445312,102.21210479736328 75.63777160644531,102.21210479736328 L 75.63777160644531,102.21210479736328 Z" style="fill: rgb(38, 38, 38); stroke-width: 1px; stroke: none;"/>
<path d="M 83.69676971435547,102.21210479736328 C 82.15214538574219,102.21210479736328 80.89851379394531,103.46572875976562 80.89851379394531,105.0103759765625 C 80.89851379394531,106.55501556396484 82.15214538574219,107.80864715576172 83.69676971435547,107.80864715576172 C 85.2414321899414,107.80864715576172 86.49505615234375,106.55501556396484 86.49505615234375,105.0103759765625 C 86.49505615234375,103.46572875976562 85.2414321899414,102.21210479736328 83.69676971435547,102.21210479736328 L 83.69676971435547,102.21210479736328 Z" style="fill: rgb(38, 38, 38); stroke-width: 1px; stroke: none;"/>
<path d="M 78.84851837158203,103.52684783935547 C 78.75736999511719,112.32281494140625 72.28571319580078,125.81301879882812 72.28571319580078,125.81301879882812 L 76.97994232177734,121.89356231689453 C 78.0281753540039,123.21524810791016 79.486572265625,125.85858917236328 79.486572265625,125.85858917236328 C 79.486572265625,125.85858917236328 81.51465606689453,123.2380142211914 82.6540298461914,121.9163589477539 L 86.77857208251953,125.85858917236328 C 86.77857208251953,125.85858917236328 80.21577453613281,112.23167419433594 80.17020416259766,103.61799621582031 L 78.84851837158203,103.52684783935547 L 78.84851837158203,103.52684783935547 L 78.84851837158203,103.52684783935547 Z" style="fill: rgb(38, 38, 38); stroke-width: 1px; stroke: none;"/>
<path d="M 108.23868560791016,97.28715515136719 C 106.69405364990234,97.28715515136719 105.4404296875,98.54077911376953 105.4404296875,100.08541870117188 C 105.4404296875,101.63006591796875 106.69405364990234,102.8836898803711 108.23868560791016,102.8836898803711 C 109.78334045410156,102.8836898803711 111.03697204589844,101.63006591796875 111.03697204589844,100.08541870117188 C 111.03697204589844,98.54077911376953 109.78334045410156,97.28715515136719 108.23868560791016,97.28715515136719 L 108.23868560791016,97.28715515136719 Z" style="fill: rgb(38, 38, 38); stroke-width: 1px; stroke: none;"/>
<path d="M 104.20919799804688,102.21210479736328 C 102.66454315185547,102.21210479736328 101.4109115600586,103.46572875976562 101.4109115600586,105.0103759765625 C 101.4109115600586,106.55501556396484 102.66454315185547,107.80864715576172 104.20919799804688,107.80864715576172 C 105.75382995605469,107.80864715576172 107.00745391845703,106.55501556396484 107.00745391845703,105.0103759765625 C 107.00745391845703,103.46572875976562 105.75382995605469,102.21210479736328 104.20919799804688,102.21210479736328 L 104.20919799804688,102.21210479736328 Z" style="fill: rgb(38, 38, 38); stroke-width: 1px; stroke: none;"/>
<path d="M 112.26820373535156,102.21210479736328 C 110.72357177734375,102.21210479736328 109.46994018554688,103.46572875976562 109.46994018554688,105.0103759765625 C 109.46994018554688,106.55501556396484 110.72357177734375,107.80864715576172 112.26820373535156,107.80864715576172 C 113.81285858154297,107.80864715576172 115.06648254394531,106.55501556396484 115.06648254394531,105.0103759765625 C 115.06648254394531,103.46572875976562 113.81285858154297,102.21210479736328 112.26820373535156,102.21210479736328 L 112.26820373535156,102.21210479736328 Z" style="fill: rgb(38, 38, 38); stroke-width: 1px; stroke: none;"/>
<path d="M 107.4199447631836,103.52684783935547 C 107.32879638671875,112.32281494140625 100.85713958740234,125.81301879882812 100.85713958740234,125.81301879882812 L 105.5513687133789,121.89356231689453 C 106.59960174560547,123.21524810791016 108.05799865722656,125.85858917236328 108.05799865722656,125.85858917236328 C 108.05799865722656,125.85858917236328 110.0860824584961,123.2380142211914 111.22545623779297,121.9163589477539 L 115.3499984741211,125.85858917236328 C 115.3499984741211,125.85858917236328 108.78720092773438,112.23167419433594 108.74163055419922,103.61799621582031 L 107.4199447631836,103.52684783935547 L 107.4199447631836,103.52684783935547 L 107.4199447631836,103.52684783935547 Z" style="fill: rgb(38, 38, 38); stroke-width: 1px; stroke: none;"/>
<path d="M 136.81011962890625,97.28715515136719 C 135.26548767089844,97.28715515136719 134.01185607910156,98.54077911376953 134.01185607910156,100.08541870117188 C 134.01185607910156,101.63006591796875 135.26548767089844,102.8836898803711 136.81011962890625,102.8836898803711 C 138.35476684570312,102.8836898803711 139.6083984375,101.63006591796875 139.6083984375,100.08541870117188 C 139.6083984375,98.54077911376953 138.35476684570312,97.28715515136719 136.81011962890625,97.28715515136719 L 136.81011962890625,97.28715515136719 Z" style="fill: rgb(38, 38, 38); stroke-width: 1px; stroke: none;"/>
<path d="M 132.78063201904297,102.21210479736328 C 131.23596954345703,102.21210479736328 129.9823455810547,103.46572875976562 129.9823455810547,105.0103759765625 C 129.9823455810547,106.55501556396484 131.23596954345703,107.80864715576172 132.78063201904297,107.80864715576172 C 134.32525634765625,107.80864715576172 135.57888793945312,106.55501556396484 135.57888793945312,105.0103759765625 C 135.57888793945312,103.46572875976562 134.32525634765625,102.21210479736328 132.78063201904297,102.21210479736328 L 132.78063201904297,102.21210479736328 Z" style="fill: rgb(38, 38, 38); stroke-width: 1px; stroke: none;"/>
<path d="M 140.83963012695312,102.21210479736328 C 139.2949981689453,102.21210479736328 138.04136657714844,103.46572875976562 138.04136657714844,105.0103759765625 C 138.04136657714844,106.55501556396484 139.2949981689453,107.80864715576172 140.83963012695312,107.80864715576172 C 142.38429260253906,107.80864715576172 143.63790893554688,106.55501556396484 143.63790893554688,105.0103759765625 C 143.63790893554688,103.46572875976562 142.38429260253906,102.21210479736328 140.83963012695312,102.21210479736328 L 140.83963012695312,102.21210479736328 Z" style="fill: rgb(38, 38, 38); stroke-width: 1px; stroke: none;"/>
<path d="M 135.99137115478516,103.52684783935547 C 135.90023040771484,112.32281494140625 129.42857360839844,125.81301879882812 129.42857360839844,125.81301879882812 L 134.122802734375,121.89356231689453 C 135.17102813720703,123.21524810791016 136.62942504882812,125.85858917236328 136.62942504882812,125.85858917236328 C 136.62942504882812,125.85858917236328 138.6575164794922,123.2380142211914 139.79689025878906,121.9163589477539 L 143.9214324951172,125.85858917236328 C 143.9214324951172,125.85858917236328 137.35862731933594,112.23167419433594 137.3130645751953,103.61799621582031 L 135.99137115478516,103.52684783935547 L 135.99137115478516,103.52684783935547 L 135.99137115478516,103.52684783935547 Z" style="fill: rgb(38, 38, 38); stroke-width: 1px; stroke: none;"/>
<path d="M 165.3815460205078,97.28715515136719 C 163.8369140625,97.28715515136719 162.58328247070312,98.54077911376953 162.58328247070312,100.08541870117188 C 162.58328247070312,101.63006591796875 163.8369140625,102.8836898803711 165.3815460205078,102.8836898803711 C 166.9261932373047,102.8836898803711 168.17982482910156,101.63006591796875 168.17982482910156,100.08541870117188 C 168.17982482910156,98.54077911376953 166.9261932373047,97.28715515136719 165.3815460205078,97.28715515136719 L 165.3815460205078,97.28715515136719 Z" style="fill: rgb(38, 38, 38); stroke-width: 1px; stroke: none;"/>
<path d="M 161.35205078125,102.21210479736328 C 159.80740356445312,102.21210479736328 158.55377197265625,103.46572875976562 158.55377197265625,105.0103759765625 C 158.55377197265625,106.55501556396484 159.80740356445312,107.80864715576172 161.35205078125,107.80864715576172 C 162.8966827392578,107.80864715576172 164.1503143310547,106.55501556396484 164.1503143310547,105.0103759765625 C 164.1503143310547,103.46572875976562 162.8966827392578,102.21210479736328 161.35205078125,102.21210479736328 L 161.35205078125,102.21210479736328 Z" style="fill: rgb(38, 38, 38); stroke-width: 1px; stroke: none;"/>
<path d="M 169.4110565185547,102.21210479736328 C 167.86642456054688,102.21210479736328 166.61279296875,103.46572875976562 166.61279296875,105.0103759765625 C 166.61279296875,106.55501556396484 167.86642456054688,107.80864715576172 169.4110565185547,107.80864715576172 C 170.95571899414062,107.80864715576172 172.2093505859375,106.55501556396484 172.2093505859375,105.0103759765625 C 172.2093505859375,103.46572875976562 170.95571899414062,102.21210479736328 169.4110565185547,102.21210479736328 L 169.4110565185547,102.21210479736328 Z" style="fill: rgb(38, 38, 38); stroke-width: 1px; stroke: none;"/>
<path d="M 164.56280517578125,103.52684783935547 C 164.47166442871094,112.32281494140625 158.0,125.81301879882812 158.0,125.81301879882812 L 162.69422912597656,121.89356231689453 C 163.74246215820312,123.21524810791016 165.2008514404297,125.85858917236328 165.2008514404297,125.85858917236328 C 165.2008514404297,125.85858917236328 167.22894287109375,123.2380142211914 168.36831665039062,121.9163589477539 L 172.49285888671875,125.85858917236328 C 172.49285888671875,125.85858917236328 165.9300537109375,112.23167419433594 165.88449096679688,103.61799621582031 L 164.56280517578125,103.52684783935547 L 164.56280517578125,103.52684783935547 L 164.56280517578125,103.52684783935547 Z" style="fill: rgb(38, 38, 38); stroke-width: 1px; stroke: none;"/>
<path d="M 193.95297241210938,97.28715515136719 C 192.40834045410156,97.28715515136719 191.1547088623047,98.54077911376953 191.1547088623047,100.08541870117188 C 191.1547088623047,101.63006591796875 192.40834045410156,102.8836898803711 193.95297241210938,102.8836898803711 C 195.4976348876953,102.8836898803711 196.75125122070312,101.63006591796875 196.75125122070312,100.08541870117188 C 196.75125122070312,98.54077911376953 195.4976348876953,97.28715515136719 193.95297241210938,97.28715515136719 L 193.95297241210938,97.28715515136719 Z" style="fill: rgb(38, 38, 38); stroke-width: 1px; stroke: none;"/>
<path d="M 189.92349243164062,102.21210479736328 C 188.3788299560547,102.21210479736328 187.1251983642578,103.46572875976562 187.1251983642578,105.0103759765625 C 187.1251983642578,106.55501556396484 188.3788299560547,107.80864715576172 189.92349243164062,107.80864715576172 C 191.46810913085938,107.80864715576172 192.72174072265625,106.55501556396484 192.72174072265625,105.0103759765625 C 192.72174072265625,103.46572875976562 191.46810913085938,102.21210479736328 189.92349243164062,102.21210479736328 L 189.92349243164062,102.21210479736328 Z" style="fill: rgb(38, 38, 38); stroke-width: 1px; stroke: none;"/>
<path d="M 197.98248291015625,102.21210479736328 C 196.43785095214844,102.21210479736328 195.18423461914062,103.46572875976562 195.18423461914062,105.0103759765625 C 195.18423461914062,106.55501556396484 196.43785095214844,107.80864715576172 197.98248291015625,107.80864715576172 C 199.5271453857422,107.80864715576172 200.78077697753906,106.55501556396484 200.78077697753906,105.0103759765625 C 200.78077697753906,103.46572875976562 199.5271453857422,102.21210479736328 197.98248291015625,102.21210479736328 L 197.98248291015625,102.21210479736328 Z" style="fill: rgb(38, 38, 38); stroke-width: 1px; stroke: none;"/>
<path d="M 193.1342315673828,103.52684783935547 C 193.0430908203125,112.32281494140625 186.57142639160156,125.81301879882812 186.57142639160156,125.81301879882812 L 191.26565551757812,121.89356231689453 C 192.3138885498047,123.21524810791016 193.7722930908203,125.85858917236328 193.7722930908203,125.85858917236328 C 193.7722930908203,125.85858917236328 195.8003692626953,123.2380142211914 196.9397430419922,121.9163589477539 L 201.0642852783203,125.85858917236328 C 201.0642852783203,125.85858917236328 194.50148010253906,112.23167419433594 194.45591735839844,103.61799621582031 L 193.1342315673828,103.52684783935547 L 193.1342315673828,103.52684783935547 L 193.1342315673828,103.52684783935547 Z" style="fill: rgb(38, 38, 38); stroke-width: 1px; stroke: none;"/>
<path d="M 12.675882339477539,137.95591735839844 C 13.166664123535156,139.53842163085938 13.69468355178833,141.11676025390625 14.259274005889893,142.69027709960938 L 14.259274005889893,142.69027709960938 C 14.75830602645874,142.18482971191406 15.06648588180542,141.49050903320312 15.06648588180542,140.7246551513672 C 15.06648588180542,139.3184814453125 14.02754259109497,138.1534881591797 12.675896644592285,137.95591735839844 L 12.675882339477539,137.95591735839844 Z" style="fill: rgb(38, 38, 38); stroke-width: 1px; stroke: none;"/>
<path d="M 36.81011390686035,133.0014419555664 C 35.265485763549805,133.0014419555664 34.011857986450195,134.25505828857422 34.011857986450195,135.7997055053711 C 34.011857986450195,137.34434509277344 35.265485763549805,138.5979766845703 36.81011390686035,138.5979766845703 C 38.35477066040039,138.5979766845703 39.6083984375,137.34434509277344 39.6083984375,135.7997055053711 C 39.6083984375,134.25505828857422 38.35477066040039,133.0014419555664 36.81011390686035,133.0014419555664 L 36.81011390686035,133.0014419555664 Z" style="fill: rgb(38, 38, 38); stroke-width: 1px; stroke: none;"/>
<path d="M 32.7806282043457,137.9263916015625 C 31.235971450805664,137.9263916015625 29.982343673706055,139.18002319335938 29.982343673706055,140.7246551513672 C 29.982343673706055,142.26930236816406 31.235971450805664,143.52293395996094 32.7806282043457,143.52293395996094 C 34.32525825500488,143.52293395996094 35.57888603210449,142.26930236816406 35.57888603210449,140.7246551513672 C 35.57888603210449,139.18002319335938 34.32525825500488,137.9263916015625 32.7806282043457,137.9263916015625 L 32.7806282043457,137.9263916015625 Z" style="fill: rgb(38, 38, 38); stroke-width: 1px; stroke: none;"/>
<path d="M 40.839630126953125,137.9263916015625 C 39.295000076293945,137.9263916015625 38.041372299194336,139.18002319335938 38.041372299194336,140.7246551513672 C 38.041372299194336,142.26930236816406 39.295000076293945,143.52293395996094 40.839630126953125,143.52293395996094 C 42.38428497314453,143.52293395996094 43.63791275024414,142.26930236816406 43.63791275024414,140.7246551513672 C 43.63791275024414,139.18002319335938 42.38428497314453,137.9263916015625 40.839630126953125,137.9263916015625 L 40.839630126953125,137.9263916015625 Z" style="fill: rgb(38, 38, 38); stroke-width: 1px; stroke: none;"/>
<path d="M 35.991371154785156,139.2411346435547 C 35.90022850036621,148.037109375 29.428571701049805,161.5272979736328 29.428571701049805,161.5272979736328 L 34.12280082702637,157.60784912109375 C 35.17102813720703,158.92953491210938 36.62942886352539,161.5728759765625 36.62942886352539,161.5728759765625 C 36.62942886352539,161.5728759765625 38.657514572143555,158.95230102539062 39.7968864440918,157.63064575195312 L 43.92142868041992,161.5728759765625 C 43.92142868041992,161.5728759765625 37.35862922668457,147.94595336914062 37.31305694580078,139.332275390625 L 35.991371154785156,139.2411346435547 L 35.991371154785156,139.2411346435547 L 35.991371154785156,139.2411346435547 Z" style="fill: rgb(38, 38, 38); stroke-width: 1px; stroke: none;"/>
<path d="M 65.38154220581055,133.0014419555664 C 63.8369140625,133.0014419555664 62.58328628540039,134.25505828857422 62.58328628540039,135.7997055053711 C 62.58328628540039,137.34434509277344 63.8369140625,138.5979766845703 65.38154220581055,138.5979766845703 C 66.92620086669922,138.5979766845703 68.17982864379883,137.34434509277344 68.17982864379883,135.7997055053711 C 68.17982864379883,134.25505828857422 66.92620086669922,133.0014419555664 65.38154220581055,133.0014419555664 L 65.38154220581055,133.0014419555664 Z" style="fill: rgb(38, 38, 38); stroke-width: 1px; stroke: none;"/>
<path d="M 61.35205841064453,137.9263916015625 C 59.80739974975586,137.9263916015625 58.55377197265625,139.18002319335938 58.55377197265625,140.7246551513672 C 58.55377197265625,142.26930236816406 59.80739974975586,143.52293395996094 61.35205841064453,143.52293395996094 C 62.89668655395508,143.52293395996094 64.15031433105469,142.26930236816406 64.15031433105469,140.7246551513672 C 64.15031433105469,139.18002319335938 62.89668655395508,137.9263916015625 61.35205841064453,137.9263916015625 L 61.35205841064453,137.9263916015625 Z" style="fill: rgb(38, 38, 38); stroke-width: 1px; stroke: none;"/>
<path d="M 69.41105651855469,137.9263916015625 C 67.86642837524414,137.9263916015625 66.61280059814453,139.18002319335938 66.61280059814453,140.7246551513672 C 66.61280059814453,142.26930236816406 67.86642837524414,143.52293395996094 69.41105651855469,143.52293395996094 C 70.95571517944336,143.52293395996094 72.20934295654297,142.26930236816406 72.20934295654297,140.7246551513672 C 72.20934295654297,139.18002319335938 70.95571517944336,137.9263916015625 69.41105651855469,137.9263916015625 L 69.41105651855469,137.9263916015625 Z" style="fill: rgb(38, 38, 38); stroke-width: 1px; stroke: none;"/>
<path d="M 64.56280136108398,139.2411346435547 C 64.4716567993164,148.037109375 58.0,161.5272979736328 58.0,161.5272979736328 L 62.69422912597656,157.60784912109375 C 63.74245834350586,158.92953491210938 65.20085906982422,161.5728759765625 65.20085906982422,161.5728759765625 C 65.20085906982422,161.5728759765625 67.22894287109375,158.95230102539062 68.36831665039062,157.63064575195312 L 72.49285888671875,161.5728759765625 C 72.49285888671875,161.5728759765625 65.93005752563477,147.94595336914062 65.88448715209961,139.332275390625 L 64.56280136108398,139.2411346435547 L 64.56280136108398,139.2411346435547 L 64.56280136108398,139.2411346435547 Z" style="fill: rgb(38, 38, 38); stroke-width: 1px; stroke: none;"/>
<path d="M 93.95297241210938,133.0014419555664 C 92.40834045410156,133.0014419555664 91.15471649169922,134.25505828857422 91.15471649169922,135.7997055053711 C 91.15471649169922,137.34434509277344 92.40834045410156,138.5979766845703 93.95297241210938,138.5979766845703 C 95.49762725830078,138.5979766845703 96.75125885009766,137.34434509277344 96.75125885009766,135.7997055053711 C 96.75125885009766,134.25505828857422 95.49762725830078,133.0014419555664 93.95297241210938,133.0014419555664 L 93.95297241210938,133.0014419555664 Z" style="fill: rgb(38, 38, 38); stroke-width: 1px; stroke: none;"/>
<path d="M 89.9234848022461,137.9263916015625 C 88.37882995605469,137.9263916015625 87.12519836425781,139.18002319335938 87.12519836425781,140.7246551513672 C 87.12519836425781,142.26930236816406 88.37882995605469,143.52293395996094 89.9234848022461,143.52293395996094 C 91.4681167602539,143.52293395996094 92.72174072265625,142.26930236816406 92.72174072265625,140.7246551513672 C 92.72174072265625,139.18002319335938 91.4681167602539,137.9263916015625 89.9234848022461,137.9263916015625 L 89.9234848022461,137.9263916015625 Z" style="fill: rgb(38, 38, 38); stroke-width: 1px; stroke: none;"/>
<path d="M 97.98248291015625,137.9263916015625 C 96.43785858154297,137.9263916015625 95.1842269897461,139.18002319335938 95.1842269897461,140.7246551513672 C 95.1842269897461,142.26930236816406 96.43785858154297,143.52293395996094 97.98248291015625,143.52293395996094 C 99.52714538574219,143.52293395996094 100.78076934814453,142.26930236816406 100.78076934814453,140.7246551513672 C 100.78076934814453,139.18002319335938 99.52714538574219,137.9263916015625 97.98248291015625,137.9263916015625 L 97.98248291015625,137.9263916015625 Z" style="fill: rgb(38, 38, 38); stroke-width: 1px; stroke: none;"/>
<path d="M 93.13423156738281,139.2411346435547 C 93.04308319091797,148.037109375 86.57142639160156,161.5272979736328 86.57142639160156,161.5272979736328 L 91.26565551757812,157.60784912109375 C 92.31388854980469,158.92953491210938 93.77228546142578,161.5728759765625 93.77228546142578,161.5728759765625 C 93.77228546142578,161.5728759765625 95.80036926269531,158.95230102539062 96.93974304199219,157.63064575195312 L 101.06428527832031,161.5728759765625 C 101.06428527832031,161.5728759765625 94.5014877319336,147.94595336914062 94.45591735839844,139.332275390625 L 93.13423156738281,139.2411346435547 L 93.13423156738281,139.2411346435547 L 93.13423156738281,139.2411346435547 Z" style="fill: rgb(38, 38, 38); stroke-width: 1px; stroke: none;"/>
<path d="M 122.52439880371094,133.0014419555664 C 120.97977447509766,133.0014419555664 119.72614288330078,134.25505828857422 119.72614288330078,135.7997055053711 C 119.72614288330078,137.34434509277344 120.97977447509766,138.5979766845703 122.52439880371094,138.5979766845703 C 124.06905364990234,138.5979766845703 125.32268524169922,137.34434509277344 125.32268524169922,135.7997055053711 C 125.32268524169922,134.25505828857422 124.06905364990234,133.0014419555664 122.52439880371094,133.0014419555664 L 122.52439880371094,133.0014419555664 Z" style="fill: rgb(38, 38, 38); stroke-width: 1px; stroke: none;"/>
<path d="M 118.49491119384766,137.9263916015625 C 116.95025634765625,137.9263916015625 115.6966323852539,139.18002319335938 115.6966323852539,140.7246551513672 C 115.6966323852539,142.26930236816406 116.95025634765625,143.52293395996094 118.49491119384766,143.52293395996094 C 120.03954315185547,143.52293395996094 121.29317474365234,142.26930236816406 121.29317474365234,140.7246551513672 C 121.29317474365234,139.18002319335938 120.03954315185547,137.9263916015625 118.49491119384766,137.9263916015625 L 118.49491119384766,137.9263916015625 Z" style="fill: rgb(38, 38, 38); stroke-width: 1px; stroke: none;"/>
<path d="M 126.55391693115234,137.9263916015625 C 125.00928497314453,137.9263916015625 123.75566101074219,139.18002319335938 123.75566101074219,140.7246551513672 C 123.75566101074219,142.26930236816406 125.00928497314453,143.52293395996094 126.55391693115234,143.52293395996094 C 128.09857177734375,143.52293395996094 129.35220336914062,142.26930236816406 129.35220336914062,140.7246551513672 C 129.35220336914062,139.18002319335938 128.09857177734375,137.9263916015625 126.55391693115234,137.9263916015625 L 126.55391693115234,137.9263916015625 Z" style="fill: rgb(38, 38, 38); stroke-width: 1px; stroke: none;"/>
<path d="M 121.70565795898438,139.2411346435547 C 121.61451721191406,148.037109375 115.14286041259766,161.5272979736328 115.14286041259766,161.5272979736328 L 119.83708953857422,157.60784912109375 C 120.88531494140625,158.92953491210938 122.34371185302734,161.5728759765625 122.34371185302734,161.5728759765625 C 122.34371185302734,161.5728759765625 124.3718032836914,158.95230102539062 125.51116943359375,157.63064575195312 L 129.63571166992188,161.5728759765625 C 129.63571166992188,161.5728759765625 123.07291412353516,147.94595336914062 123.02734375,139.332275390625 L 121.70565795898438,139.2411346435547 L 121.70565795898438,139.2411346435547 L 121.70565795898438,139.2411346435547 Z" style="fill: rgb(38, 38, 38); stroke-width: 1px; stroke: none;"/>
<path d="M 151.0958251953125,133.0014419555664 C 149.5511932373047,133.0014419555664 148.29757690429688,134.25505828857422 148.29757690429688,135.7997055053711 C 148.29757690429688,137.34434509277344 149.5511932373047,138.5979766845703 151.0958251953125,138.5979766845703 C 152.64048767089844,138.5979766845703 153.8941192626953,137.34434509277344 153.8941192626953,135.7997055053711 C 153.8941192626953,134.25505828857422 152.64048767089844,133.0014419555664 151.0958251953125,133.0014419555664 L 151.0958251953125,133.0014419555664 Z" style="fill: rgb(38, 38, 38); stroke-width: 1px; stroke: none;"/>
<path d="M 147.06634521484375,137.9263916015625 C 145.5216827392578,137.9263916015625 144.26805114746094,139.18002319335938 144.26805114746094,140.7246551513672 C 144.26805114746094,142.26930236816406 145.5216827392578,143.52293395996094 147.06634521484375,143.52293395996094 C 148.61097717285156,143.52293395996094 149.86459350585938,142.26930236816406 149.86459350585938,140.7246551513672 C 149.86459350585938,139.18002319335938 148.61097717285156,137.9263916015625 147.06634521484375,137.9263916015625 L 147.06634521484375,137.9263916015625 Z" style="fill: rgb(38, 38, 38); stroke-width: 1px; stroke: none;"/>
<path d="M 155.12533569335938,137.9263916015625 C 153.58071899414062,137.9263916015625 152.32708740234375,139.18002319335938 152.32708740234375,140.7246551513672 C 152.32708740234375,142.26930236816406 153.58071899414062,143.52293395996094 155.12533569335938,143.52293395996094 C 156.6699981689453,143.52293395996094 157.9236297607422,142.26930236816406 157.9236297607422,140.7246551513672 C 157.9236297607422,139.18002319335938 156.6699981689453,137.9263916015625 155.12533569335938,137.9263916015625 L 155.12533569335938,137.9263916015625 Z" style="fill: rgb(38, 38, 38); stroke-width: 1px; stroke: none;"/>
<path d="M 150.27708435058594,139.2411346435547 C 150.18594360351562,148.037109375 143.7142791748047,161.5272979736328 143.7142791748047,161.5272979736328 L 148.40850830078125,157.60784912109375 C 149.4567413330078,158.92953491210938 150.91514587402344,161.5728759765625 150.91514587402344,161.5728759765625 C 150.91514587402344,161.5728759765625 152.94322204589844,158.95230102539062 154.0825958251953,157.63064575195312 L 158.20713806152344,161.5728759765625 C 158.20713806152344,161.5728759765625 151.64434814453125,147.94595336914062 151.59877014160156,139.332275390625 L 150.27708435058594,139.2411346435547 L 150.27708435058594,139.2411346435547 L 150.27708435058594,139.2411346435547 Z" style="fill: rgb(38, 38, 38); stroke-width: 1px; stroke: none;"/>
<path d="M 179.66725158691406,133.0014419555664 C 178.1226348876953,133.0014419555664 176.86900329589844,134.25505828857422 176.86900329589844,135.7997055053711 C 176.86900329589844,137.34434509277344 178.1226348876953,138.5979766845703 179.66725158691406,138.5979766845703 C 181.2119140625,138.5979766845703 182.46554565429688,137.34434509277344 182.46554565429688,135.7997055053711 C 182.46554565429688,134.25505828857422 181.2119140625,133.0014419555664 179.66725158691406,133.0014419555664 L 179.66725158691406,133.0014419555664 Z" style="fill: rgb(38, 38, 38); stroke-width: 1px; stroke: none;"/>
<path d="M 175.6377716064453,137.9263916015625 C 174.09310913085938,137.9263916015625 172.83949279785156,139.18002319335938 172.83949279785156,140.7246551513672 C 172.83949279785156,142.26930236816406 174.09310913085938,143.52293395996094 175.6377716064453,143.52293395996094 C 177.18240356445312,143.52293395996094 178.43603515625,142.26930236816406 178.43603515625,140.7246551513672 C 178.43603515625,139.18002319335938 177.18240356445312,137.9263916015625 175.6377716064453,137.9263916015625 L 175.6377716064453,137.9263916015625 Z" style="fill: rgb(38, 38, 38); stroke-width: 1px; stroke: none;"/>
<path d="M 183.69677734375,137.9263916015625 C 182.1521453857422,137.9263916015625 180.8985137939453,139.18002319335938 180.8985137939453,140.7246551513672 C 180.8985137939453,142.26930236816406 182.1521453857422,143.52293395996094 183.69677734375,143.52293395996094 C 185.24142456054688,143.52293395996094 186.49505615234375,142.26930236816406 186.49505615234375,140.7246551513672 C 186.49505615234375,139.18002319335938 185.24142456054688,137.9263916015625 183.69677734375,137.9263916015625 L 183.69677734375,137.9263916015625 Z" style="fill: rgb(38, 38, 38); stroke-width: 1px; stroke: none;"/>
<path d="M 178.8485107421875,139.2411346435547 C 178.7573699951172,148.037109375 172.2857208251953,161.5272979736328 172.2857208251953,161.5272979736328 L 176.97994995117188,157.60784912109375 C 178.02816772460938,158.92953491210938 179.486572265625,161.5728759765625 179.486572265625,161.5728759765625 C 179.486572265625,161.5728759765625 181.51466369628906,158.95230102539062 182.65402221679688,157.63064575195312 L 186.778564453125,161.5728759765625 C 186.778564453125,161.5728759765625 180.2157745361328,147.94595336914062 180.17019653320312,139.332275390625 L 178.8485107421875,139.2411346435547 L 178.8485107421875,139.2411346435547 L 178.8485107421875,139.2411346435547 Z" style="fill: rgb(38, 38, 38); stroke-width: 1px; stroke: none;"/>
<path d="M 203.28463745117188,138.0829315185547 C 202.19386291503906,138.4650115966797 201.41091918945312,139.50396728515625 201.41091918945312,140.7246551513672 C 201.41091918945312,141.3017578125 201.58590698242188,141.83824157714844 201.88568115234375,142.2838897705078 L 201.88568115234375,142.2838897705078 C 202.38099670410156,140.8871612548828 202.84747314453125,139.4866943359375 203.28465270996094,138.0829315185547 L 203.28463745117188,138.0829315185547 Z" style="fill: rgb(38, 38, 38); stroke-width: 1px; stroke: none;"/>
<path d="M 51.095829010009766,168.71572875976562 C 49.55120086669922,168.71572875976562 48.29757308959961,169.96934509277344 48.29757308959961,171.5139923095703 C 48.29757308959961,173.0586395263672 49.55120086669922,174.312255859375 51.095829010009766,174.312255859375 C 52.64048385620117,174.312255859375 53.89411163330078,173.0586395263672 53.89411163330078,171.5139923095703 C 53.89411163330078,169.96934509277344 52.64048385620117,168.71572875976562 51.095829010009766,168.71572875976562 L 51.095829010009766,168.71572875976562 Z" style="fill: rgb(38, 38, 38); stroke-width: 1px; stroke: none;"/>
<path d="M 47.066341400146484,173.64068603515625 C 45.52168655395508,173.64068603515625 44.26805877685547,174.89430236816406 44.26805877685547,176.43894958496094 C 44.26805877685547,177.9835968017578 45.52168655395508,179.23721313476562 47.066341400146484,179.23721313476562 C 48.6109733581543,179.23721313476562 49.864601135253906,177.9835968017578 49.864601135253906,176.43894958496094 C 49.864601135253906,174.89430236816406 48.6109733581543,173.64068603515625 47.066341400146484,173.64068603515625 L 47.066341400146484,173.64068603515625 Z" style="fill: rgb(38, 38, 38); stroke-width: 1px; stroke: none;"/>
<path d="M 55.125343322753906,173.64068603515625 C 53.58071517944336,173.64068603515625 52.32708740234375,174.89430236816406 52.32708740234375,176.43894958496094 C 52.32708740234375,177.9835968017578 53.58071517944336,179.23721313476562 55.125343322753906,179.23721313476562 C 56.66999816894531,179.23721313476562 57.92362976074219,177.9835968017578 57.92362976074219,176.43894958496094 C 57.92362976074219,174.89430236816406 56.66999816894531,173.64068603515625 55.125343322753906,173.64068603515625 L 55.125343322753906,173.64068603515625 Z" style="fill: rgb(38, 38, 38); stroke-width: 1px; stroke: none;"/>
<path d="M 50.27708435058594,174.95541381835938 C 50.22014236450195,180.4508514404297 47.67266845703125,187.77859497070312 45.76889419555664,192.5040740966797 L 45.76889419555664,192.5040740966797 C 46.29726791381836,193.06825256347656 46.83048629760742,193.6304168701172 47.368507385253906,194.19049072265625 L 47.368507385253906,194.19049072265625 L 48.40851593017578,193.32212829589844 C 49.45674133300781,194.64381408691406 50.91514205932617,197.2871551513672 50.91514205932617,197.2871551513672 C 50.91514205932617,197.2871551513672 52.94322967529297,194.66659545898438 54.08259963989258,193.3449249267578 L 58.2071418762207,197.2871551513672 C 58.2071418762207,197.2871551513672 51.644344329833984,183.66024780273438 51.59877014160156,175.04656982421875 L 50.27708435058594,174.95541381835938 L 50.27708435058594,174.95541381835938 L 50.27708435058594,174.95541381835938 Z" style="fill: rgb(38, 38, 38); stroke-width: 1px; stroke: none;"/>
<path d="M 79.6672592163086,168.71572875976562 C 78.12262725830078,168.71572875976562 76.86900329589844,169.96934509277344 76.86900329589844,171.5139923095703 C 76.86900329589844,173.0586395263672 78.12262725830078,174.312255859375 79.6672592163086,174.312255859375 C 81.2119140625,174.312255859375 82.46554565429688,173.0586395263672 82.46554565429688,171.5139923095703 C 82.46554565429688,169.96934509277344 81.2119140625,168.71572875976562 79.6672592163086,168.71572875976562 L 79.6672592163086,168.71572875976562 Z" style="fill: rgb(38, 38, 38); stroke-width: 1px; stroke: none;"/>
<path d="M 75.63777160644531,173.64068603515625 C 74.0931167602539,173.64068603515625 72.83948516845703,174.89430236816406 72.83948516845703,176.43894958496094 C 72.83948516845703,177.9835968017578 74.0931167602539,179.23721313476562 75.63777160644531,179.23721313476562 C 77.18240356445312,179.23721313476562 78.43602752685547,177.9835968017578 78.43602752685547,176.43894958496094 C 78.43602752685547,174.89430236816406 77.18240356445312,173.64068603515625 75.63777160644531,173.64068603515625 L 75.63777160644531,173.64068603515625 Z" style="fill: rgb(38, 38, 38); stroke-width: 1px; stroke: none;"/>
<path d="M 83.69676971435547,173.64068603515625 C 82.15214538574219,173.64068603515625 80.89851379394531,174.89430236816406 80.89851379394531,176.43894958496094 C 80.89851379394531,177.9835968017578 82.15214538574219,179.23721313476562 83.69676971435547,179.23721313476562 C 85.2414321899414,179.23721313476562 86.49505615234375,177.9835968017578 86.49505615234375,176.43894958496094 C 86.49505615234375,174.89430236816406 85.2414321899414,173.64068603515625 83.69676971435547,173.64068603515625 L 83.69676971435547,173.64068603515625 Z" style="fill: rgb(38, 38, 38); stroke-width: 1px; stroke: none;"/>
<path d="M 78.84851837158203,174.95541381835938 C 78.75736999511719,183.7513885498047 72.28571319580078,197.24159240722656 72.28571319580078,197.24159240722656 L 76.97994232177734,193.32212829589844 C 78.0281753540039,194.64381408691406 79.486572265625,197.2871551513672 79.486572265625,197.2871551513672 C 79.486572265625,197.2871551513672 81.51465606689453,194.66659545898438 82.6540298461914,193.3449249267578 L 86.77857208251953,197.2871551513672 C 86.77857208251953,197.2871551513672 80.21577453613281,183.66024780273438 80.17020416259766,175.04656982421875 L 78.84851837158203,174.95541381835938 L 78.84851837158203,174.95541381835938 L 78.84851837158203,174.95541381835938 Z" style="fill: rgb(38, 38, 38); stroke-width: 1px; stroke: none;"/>
<path d="M 108.23868560791016,168.71572875976562 C 106.69405364990234,168.71572875976562 105.4404296875,169.96934509277344 105.4404296875,171.5139923095703 C 105.4404296875,173.0586395263672 106.69405364990234,174.312255859375 108.23868560791016,174.312255859375 C 109.78334045410156,174.312255859375 111.03697204589844,173.0586395263672 111.03697204589844,171.5139923095703 C 111.03697204589844,169.96934509277344 109.78334045410156,168.71572875976562 108.23868560791016,168.71572875976562 L 108.23868560791016,168.71572875976562 Z" style="fill: rgb(38, 38, 38); stroke-width: 1px; stroke: none;"/>
<path d="M 104.20919799804688,173.64068603515625 C 102.66454315185547,173.64068603515625 101.4109115600586,174.89430236816406 101.4109115600586,176.43894958496094 C 101.4109115600586,177.9835968017578 102.66454315185547,179.23721313476562 104.20919799804688,179.23721313476562 C 105.75382995605469,179.23721313476562 107.00745391845703,177.9835968017578 107.00745391845703,176.43894958496094 C 107.00745391845703,174.89430236816406 105.75382995605469,173.64068603515625 104.20919799804688,173.64068603515625 L 104.20919799804688,173.64068603515625 Z" style="fill: rgb(38, 38, 38); stroke-width: 1px; stroke: none;"/>
<path d="M 112.26820373535156,173.64068603515625 C 110.72357177734375,173.64068603515625 109.46994018554688,174.89430236816406 109.46994018554688,176.43894958496094 C 109.46994018554688,177.9835968017578 110.72357177734375,179.23721313476562 112.26820373535156,179.23721313476562 C 113.81285858154297,179.23721313476562 115.06648254394531,177.9835968017578 115.06648254394531,176.43894958496094 C 115.06648254394531,174.89430236816406 113.81285858154297,173.64068603515625 112.26820373535156,173.64068603515625 L 112.26820373535156,173.64068603515625 Z" style="fill: rgb(38, 38, 38); stroke-width: 1px; stroke: none;"/>
<path d="M 107.4199447631836,174.95541381835938 C 107.32879638671875,183.7513885498047 100.85713958740234,197.24159240722656 100.85713958740234,197.24159240722656 L 105.5513687133789,193.32212829589844 C 106.59960174560547,194.64381408691406 108.05799865722656,197.2871551513672 108.05799865722656,197.2871551513672 C 108.05799865722656,197.2871551513672 110.0860824584961,194.66659545898438 111.22545623779297,193.3449249267578 L 115.3499984741211,197.2871551513672 C 115.3499984741211,197.2871551513672 108.78720092773438,183.66024780273438 108.74163055419922,175.04656982421875 L 107.4199447631836,174.95541381835938 L 107.4199447631836,174.95541381835938 L 107.4199447631836,174.95541381835938 Z" style="fill: rgb(38, 38, 38); stroke-width: 1px; stroke: none;"/>
<path d="M 136.81011962890625,168.71572875976562 C 135.26548767089844,168.71572875976562 134.01185607910156,169.96934509277344 134.01185607910156,171.5139923095703 C 134.01185607910156,173.0586395263672 135.26548767089844,174.312255859375 136.81011962890625,174.312255859375 C 138.35476684570312,174.312255859375 139.6083984375,173.0586395263672 139.6083984375,171.5139923095703 C 139.6083984375,169.96934509277344 138.35476684570312,168.71572875976562 136.81011962890625,168.71572875976562 L 136.81011962890625,168.71572875976562 Z" style="fill: rgb(38, 38, 38); stroke-width: 1px; stroke: none;"/>
<path d="M 132.78063201904297,173.64068603515625 C 131.23596954345703,173.64068603515625 129.9823455810547,174.89430236816406 129.9823455810547,176.43894958496094 C 129.9823455810547,177.9835968017578 131.23596954345703,179.23721313476562 132.78063201904297,179.23721313476562 C 134.32525634765625,179.23721313476562 135.57888793945312,177.9835968017578 135.57888793945312,176.43894958496094 C 135.57888793945312,174.89430236816406 134.32525634765625,173.64068603515625 132.78063201904297,173.64068603515625 L 132.78063201904297,173.64068603515625 Z" style="fill: rgb(38, 38, 38); stroke-width: 1px; stroke: none;"/>
<path d="M 140.83963012695312,173.64068603515625 C 139.2949981689453,173.64068603515625 138.04136657714844,174.89430236816406 138.04136657714844,176.43894958496094 C 138.04136657714844,177.9835968017578 139.2949981689453,179.23721313476562 140.83963012695312,179.23721313476562 C 142.38429260253906,179.23721313476562 143.63790893554688,177.9835968017578 143.63790893554688,176.43894958496094 C 143.63790893554688,174.89430236816406 142.38429260253906,173.64068603515625 140.83963012695312,173.64068603515625 L 140.83963012695312,173.64068603515625 Z" style="fill: rgb(38, 38, 38); stroke-width: 1px; stroke: none;"/>
<path d="M 135.99137115478516,174.95541381835938 C 135.90023040771484,183.7513885498047 129.42857360839844,197.24159240722656 129.42857360839844,197.24159240722656 L 134.122802734375,193.32212829589844 C 135.17102813720703,194.64381408691406 136.62942504882812,197.2871551513672 136.62942504882812,197.2871551513672 C 136.62942504882812,197.2871551513672 138.6575164794922,194.66659545898438 139.79689025878906,193.3449249267578 L 143.9214324951172,197.2871551513672 C 143.9214324951172,197.2871551513672 137.35862731933594,183.66024780273438 137.3130645751953,175.04656982421875 L 135.99137115478516,174.95541381835938 L 135.99137115478516,174.95541381835938 L 135.99137115478516,174.95541381835938 Z" style="fill: rgb(38, 38, 38); stroke-width: 1px; stroke: none;"/>
<path d="M 165.3815460205078,168.71572875976562 C 163.8369140625,168.71572875976562 162.58328247070312,169.96934509277344 162.58328247070312,171.5139923095703 C 162.58328247070312,173.0586395263672 163.8369140625,174.312255859375 165.3815460205078,174.312255859375 C 166.9261932373047,174.312255859375 168.17982482910156,173.0586395263672 168.17982482910156,171.5139923095703 C 168.17982482910156,169.96934509277344 166.9261932373047,168.71572875976562 165.3815460205078,168.71572875976562 L 165.3815460205078,168.71572875976562 Z" style="fill: rgb(38, 38, 38); stroke-width: 1px; stroke: none;"/>
<path d="M 161.35205078125,173.64068603515625 C 159.80740356445312,173.64068603515625 158.55377197265625,174.89430236816406 158.55377197265625,176.43894958496094 C 158.55377197265625,177.9835968017578 159.80740356445312,179.23721313476562 161.35205078125,179.23721313476562 C 162.8966827392578,179.23721313476562 164.1503143310547,177.9835968017578 164.1503143310547,176.43894958496094 C 164.1503143310547,174.89430236816406 162.8966827392578,173.64068603515625 161.35205078125,173.64068603515625 L 161.35205078125,173.64068603515625 Z" style="fill: rgb(38, 38, 38); stroke-width: 1px; stroke: none;"/>
<path d="M 169.4110565185547,173.64068603515625 C 167.86642456054688,173.64068603515625 166.61279296875,174.89430236816406 166.61279296875,176.43894958496094 C 166.61279296875,177.9835968017578 167.86642456054688,179.23721313476562 169.4110565185547,179.23721313476562 C 170.95571899414062,179.23721313476562 172.2093505859375,177.9835968017578 172.2093505859375,176.43894958496094 C 172.2093505859375,174.89430236816406 170.95571899414062,173.64068603515625 169.4110565185547,173.64068603515625 L 169.4110565185547,173.64068603515625 Z" style="fill: rgb(38, 38, 38); stroke-width: 1px; stroke: none;"/>
<path d="M 164.56280517578125,174.95541381835938 C 164.47166442871094,183.7513885498047 158.0,197.24159240722656 158.0,197.24159240722656 L 162.69422912597656,193.32212829589844 C 163.74246215820312,194.64381408691406 165.2008514404297,197.2871551513672 165.2008514404297,197.2871551513672 C 165.2008514404297,197.2871551513672 167.22894287109375,194.66659545898438 168.36831665039062,193.3449249267578 L 168.92861938476562,193.88046264648438 L 168.92861938476562,193.88046264648438 C 169.4075469970703,193.37957763671875 169.8826446533203,192.8770294189453 170.35386657714844,192.37286376953125 L 170.35386657714844,192.37286376953125 C 168.43418884277344,187.6200714111328 165.9126739501953,180.3743438720703 165.88449096679688,175.04656982421875 L 164.56280517578125,174.95541381835938 L 164.56280517578125,174.95541381835938 L 164.56280517578125,174.95541381835938 Z" style="fill: rgb(38, 38, 38); stroke-width: 1px; stroke: none;"/>
<path d="M 65.38154220581055,204.4300079345703 C 63.8369140625,204.4300079345703 62.58328628540039,205.6836395263672 62.58328628540039,207.228271484375 C 62.58328628540039,207.8167724609375 62.76525115966797,208.36302185058594 63.07594680786133,208.81378173828125 L 63.07594680786133,208.81378173828125 C 63.46607208251953,209.13975524902344 63.857933044433594,209.46473693847656 64.25151824951172,209.78872680664062 L 64.25152587890625,209.78872680664062 C 64.59716415405273,209.94161987304688 64.97949600219727,210.02655029296875 65.38154220581055,210.02655029296875 C 66.92620086669922,210.02655029296875 68.17982864379883,208.77291870117188 68.17982864379883,207.228271484375 C 68.17982864379883,205.6836395263672 66.92620086669922,204.4300079345703 65.38154220581055,204.4300079345703 L 65.38154220581055,204.4300079345703 Z" style="fill: rgb(38, 38, 38); stroke-width: 1px; stroke: none;"/>
<path d="M 69.41105651855469,209.35496520996094 C 68.01044464111328,209.35496520996094 66.84909439086914,210.38572692871094 66.64471435546875,211.72955322265625 L 66.64471435546875,211.72955322265625 C 67.91097640991211,212.74127197265625 69.19424819946289,213.7428436279297 70.49416732788086,214.73391723632812 L 70.49416732788086,214.73391723632812 C 71.50147247314453,214.31031799316406 72.20934295654297,213.31393432617188 72.20934295654297,212.15322875976562 C 72.20934295654297,210.60858154296875 70.95571517944336,209.35496520996094 69.41105651855469,209.35496520996094 L 69.41105651855469,209.35496520996094 Z" style="fill: rgb(38, 38, 38); stroke-width: 1px; stroke: none;"/>
<path d="M 65.4001235961914,210.72744750976562 C 65.56317901611328,210.85975646972656 65.72652053833008,210.9918975830078 65.89015197753906,211.1238555908203 L 65.89015197753906,211.1238555908203 C 65.88702392578125,211.00192260742188 65.8851203918457,210.8809051513672 65.88448715209961,210.76084899902344 L 65.40018463134766,210.72744750976562 L 65.4001235961914,210.72744750976562 Z" style="fill: rgb(38, 38, 38); stroke-width: 1px; stroke: none;"/>
<path d="M 93.95297241210938,204.4300079345703 C 92.40834045410156,204.4300079345703 91.15471649169922,205.6836395263672 91.15471649169922,207.228271484375 C 91.15471649169922,208.77291870117188 92.40834045410156,210.02655029296875 93.95297241210938,210.02655029296875 C 95.49762725830078,210.02655029296875 96.75125885009766,208.77291870117188 96.75125885009766,207.228271484375 C 96.75125885009766,205.6836395263672 95.49762725830078,204.4300079345703 93.95297241210938,204.4300079345703 L 93.95297241210938,204.4300079345703 Z" style="fill: rgb(38, 38, 38); stroke-width: 1px; stroke: none;"/>
<path d="M 89.9234848022461,209.35496520996094 C 88.37882995605469,209.35496520996094 87.12519836425781,210.60858154296875 87.12519836425781,212.15322875976562 C 87.12519836425781,213.6978759765625 88.37882995605469,214.95150756835938 89.9234848022461,214.95150756835938 C 91.4681167602539,214.95150756835938 92.72174072265625,213.6978759765625 92.72174072265625,212.15322875976562 C 92.72174072265625,210.60858154296875 91.4681167602539,209.35496520996094 89.9234848022461,209.35496520996094 L 89.9234848022461,209.35496520996094 Z" style="fill: rgb(38, 38, 38); stroke-width: 1px; stroke: none;"/>
<path d="M 97.98248291015625,209.35496520996094 C 96.43785858154297,209.35496520996094 95.1842269897461,210.60858154296875 95.1842269897461,212.15322875976562 C 95.1842269897461,213.6978759765625 96.43785858154297,214.95150756835938 97.98248291015625,214.95150756835938 C 99.52714538574219,214.95150756835938 100.78076934814453,213.6978759765625 100.78076934814453,212.15322875976562 C 100.78076934814453,210.60858154296875 99.52714538574219,209.35496520996094 97.98248291015625,209.35496520996094 L 97.98248291015625,209.35496520996094 Z" style="fill: rgb(38, 38, 38); stroke-width: 1px; stroke: none;"/>
<path d="M 93.13423156738281,210.66970825195312 C 93.08047485351562,215.85711669921875 90.80755615234375,222.67721557617188 88.95166778564453,227.40003967285156 L 88.95166778564453,227.40003967285156 C 91.01468658447266,228.67300415039062 93.1085433959961,229.9212646484375 95.23219299316406,231.14376831054688 L 95.23219299316406,231.14376831054688 C 95.81283569335938,230.4146728515625 96.45629119873047,229.62001037597656 96.93974304199219,229.05921936035156 L 101.06428527832031,233.00144958496094 C 101.06428527832031,233.00144958496094 94.5014877319336,219.37452697753906 94.45591735839844,210.76084899902344 L 93.13423156738281,210.66970825195312 L 93.13423156738281,210.66970825195312 L 93.13423156738281,210.66970825195312 Z" style="fill: rgb(38, 38, 38); stroke-width: 1px; stroke: none;"/>
<path d="M 122.52439880371094,204.4300079345703 C 120.97977447509766,204.4300079345703 119.72614288330078,205.6836395263672 119.72614288330078,207.228271484375 C 119.72614288330078,208.77291870117188 120.97977447509766,210.02655029296875 122.52439880371094,210.02655029296875 C 124.06905364990234,210.02655029296875 125.32268524169922,208.77291870117188 125.32268524169922,207.228271484375 C 125.32268524169922,205.6836395263672 124.06905364990234,204.4300079345703 122.52439880371094,204.4300079345703 L 122.52439880371094,204.4300079345703 Z" style="fill: rgb(38, 38, 38); stroke-width: 1px; stroke: none;"/>
<path d="M 118.49491119384766,209.35496520996094 C 116.95025634765625,209.35496520996094 115.6966323852539,210.60858154296875 115.6966323852539,212.15322875976562 C 115.6966323852539,213.6978759765625 116.95025634765625,214.95150756835938 118.49491119384766,214.95150756835938 C 120.03954315185547,214.95150756835938 121.29317474365234,213.6978759765625 121.29317474365234,212.15322875976562 C 121.29317474365234,210.60858154296875 120.03954315185547,209.35496520996094 118.49491119384766,209.35496520996094 L 118.49491119384766,209.35496520996094 Z" style="fill: rgb(38, 38, 38); stroke-width: 1px; stroke: none;"/>
<path d="M 126.55391693115234,209.35496520996094 C 125.00928497314453,209.35496520996094 123.75566101074219,210.60858154296875 123.75566101074219,212.15322875976562 C 123.75566101074219,213.6978759765625 125.00928497314453,214.95150756835938 126.55391693115234,214.95150756835938 C 128.09857177734375,214.95150756835938 129.35220336914062,213.6978759765625 129.35220336914062,212.15322875976562 C 129.35220336914062,210.60858154296875 128.09857177734375,209.35496520996094 126.55391693115234,209.35496520996094 L 126.55391693115234,209.35496520996094 Z" style="fill: rgb(38, 38, 38); stroke-width: 1px; stroke: none;"/>
<path d="M 121.70565795898438,210.66970825195312 C 121.61451721191406,219.46566772460938 115.14286041259766,232.95587158203125 115.14286041259766,232.95587158203125 L 119.83708953857422,229.0364227294922 C 120.24273681640625,229.5478973388672 120.70980834960938,230.25729370117188 121.13002014160156,230.93482971191406 L 121.13002014160156,230.93482971191406 C 123.17748260498047,229.75148010253906 125.19710540771484,228.54415893554688 127.18795013427734,227.31381225585938 L 127.18795013427734,227.31381225585938 C 125.317626953125,222.57427978515625 123.05403900146484,215.80722045898438 123.02734375,210.76084899902344 L 121.70565795898438,210.66970825195312 L 121.70565795898438,210.66970825195312 L 121.70565795898438,210.66970825195312 Z" style="fill: rgb(38, 38, 38); stroke-width: 1px; stroke: none;"/>
<path d="M 151.0958251953125,204.4300079345703 C 149.5511932373047,204.4300079345703 148.29757690429688,205.6836395263672 148.29757690429688,207.228271484375 C 148.29757690429688,208.77291870117188 149.5511932373047,210.02655029296875 151.0958251953125,210.02655029296875 C 151.23072814941406,210.02655029296875 151.3634033203125,210.01698303222656 151.49322509765625,209.99850463867188 L 151.4932403564453,209.99850463867188 C 152.2513427734375,209.37644958496094 153.00308227539062,208.75071716308594 153.74838256835938,208.12139892578125 L 153.74838256835938,208.12139892578125 C 153.84288024902344,207.84088134765625 153.8941192626953,207.54052734375 153.8941192626953,207.228271484375 C 153.8941192626953,205.6836395263672 152.64048767089844,204.4300079345703 151.0958251953125,204.4300079345703 L 151.0958251953125,204.4300079345703 Z" style="fill: rgb(38, 38, 38); stroke-width: 1px; stroke: none;"/>
<path d="M 147.06634521484375,209.35496520996094 C 145.5216827392578,209.35496520996094 144.26805114746094,210.60858154296875 144.26805114746094,212.15322875976562 C 144.26805114746094,213.1987762451172 144.84243774414062,214.11099243164062 145.69265747070312,214.59132385253906 L 145.69265747070312,214.59132385253906 C 147.06822204589844,213.54022216796875 148.42507934570312,212.47735595703125 149.76280212402344,211.40313720703125 L 149.76280212402344,211.40313720703125 C 149.43467712402344,210.2223663330078 148.35118103027344,209.35496520996094 147.06634521484375,209.35496520996094 L 147.06634521484375,209.35496520996094 Z" style="fill: rgb(38, 38, 38); stroke-width: 1px; stroke: none;"/>
<path d="M 150.27708435058594,210.66970825195312 C 150.27597045898438,210.7770538330078 150.27391052246094,210.88510131835938 150.2709197998047,210.9938201904297 L 150.2709197998047,210.9938201904297 C 150.3941650390625,210.89422607421875 150.5172576904297,210.79454040527344 150.6401824951172,210.6947479248047 L 150.64019775390625,210.6947479248047 L 150.27708435058594,210.66970825195312 L 150.27708435058594,210.66970825195312 L 150.27708435058594,210.66970825195312 Z" style="fill: rgb(38, 38, 38); stroke-width: 1px; stroke: none;"/>
<path d="M 8.0,8.0 L 208.0,8.0 L 208.0,108.0 C 208.0,158.0 168.0,208.0 108.0,238.0 C 48.0,208.0 8.0,158.0 8.0,108.0 L 8.0,8.0 Z" style="fill: none; stroke-width: 1px; stroke: rgb(0, 0, 0);"/>
</g>
<rect clip-path="url(#contour)" fill="url(#lighting)" height="246.0" width="216.0" x="0.0" y="0.0"/>
</svg>
