<?xml version="1.0" encoding="UTF-8" standalone="no"?>
<svg xmlns="http://www.w3.org/2000/svg" height="416.0" width="216.0">
<defs>
<clipPath id="contour">
<path d="M 8.0,8.0 L 208.0,8.0 L 208.0,408.0 L 108.0,328.0 L 8.0,408.0 L 8.0,8.0 Z"/>
</clipPath>
<radialGradient id="lighting">
<stop offset="25%" stop-color="white" stop-opacity="35%"/>
<stop offset="100%" stop-color="white" stop-opacity="0%"/>
</radialGradient>
</defs>
<g transform="translate(8.0,8.0)">
<path d="M 0.0,0.0 L 200.0,0.0 L 200.0,400.0 L 100.0,320.0 L 0.0,400.0 L 0.0,0.0 Z" style="fill: rgb(217, 217, 38); stroke-width: 1px; stroke: none;"/>
<path d="M 0.0,0.0 L 0.0,38.60450744628906 L -6.927791673660977E-14,38.60450744628906 L 17.39130401611328,38.60450744628906 L 34.78260803222656,38.60450744628906 L 34.78260803222656,55.995811462402344 L 34.78260803222656,73.38711547851562 L 52.173912048339844,73.38711547851562 L 69.56521606445312,73.38711547851562 L 69.56521606445312,90.7784194946289 L 69.56521606445312,108.16972351074219 L 86.9565200805664,108.16972351074219 L 104.34782409667969,108.16972351074219 L 104.34782409667969,125.56102752685547 L 104.34782409667969,142.95233154296875 L 121.73912811279297,142.95233154296875 L 139.13043212890625,142.95233154296875 L 139.13043212890625,160.34364318847656 L 139.13043212890625,177.7349395751953 L 156.52174377441406,177.7349395751953 L 173.9130401611328,177.7349395751953 L 173.9130401611328,195.12625122070312 L 173.9130401611328,212.51754760742188 L 191.30435180664062,212.51754760742188 L 200.0,212.51754760742188 L 200.0,187.48245239257812 L 191.30435180664062,187.48245239257812 L 191.30435180664062,170.0911407470703 L 191.30435180664062,152.69984436035156 L 156.52174377441406,152.69984436035156 L 156.52174377441406,135.30853271484375 L 156.52174377441406,117.91722869873047 L 139.13043212890625,117.91722869873047 L 121.73912811279297,117.91722869873047 L 121.73912811279297,100.52592468261719 L 121.73912811279297,83.1346206665039 L 86.9565200805664,83.1346206665039 L 86.9565200805664,65.74331665039062 L 86.9565200805664,48.352012634277344 L 69.56521606445312,48.352012634277344 L 52.173912048339844,48.352012634277344 L 52.173912048339844,30.960710525512695 L 52.173912048339844,13.569405555725098 L 34.78260803222656,13.569405555725098 L 17.39130401611328,13.569405555725098 L 17.39130401611328,0.0 L 0.0,0.0 Z" style="fill: rgb(13, 38, 217); stroke-width: 1px; stroke: none;"/>
<path d="M 0.0,0.0 L 200.0,0.0 L 200.0,400.0 L 100.0,320.0 L 0.0,400.0 L 0.0,0.0 Z" style="fill: none; stroke-width: 1px; stroke: rgb(0, 0, 0);"/>
</g>
<rect clip-path="url(#contour)" fill="url(#lighting)" height="416.0" width="216.0" x="0.0" y="0.0"/>
</svg>
