<?xml version="1.0" encoding="UTF-8" standalone="no"?>
<svg xmlns="http://www.w3.org/2000/svg" height="246.0" width="216.0">
<defs>
<clipPath id="contour">
<path d="M 0.0,0.0 L 200.0,0.0 L 200.0,100.0 C 200.0,150.0 160.0,200.0 100.0,230.0 C 40.0,200.0 0.0,150.0 0.0,100.0 L 0.0,0.0 Z"/>
</clipPath>
<radialGradient id="lighting">
<stop offset="25%" stop-color="white" stop-opacity="35%"/>
<stop offset="100%" stop-color="white" stop-opacity="0%"/>
</radialGradient>
</defs>
<g transform="translate(8.0,8.0)">
<path clip-path="url(#contour)" comment="FieldBackground" d="M 0.0,0.0 L 200.0,0.0 L 200.0,100.0 C 200.0,150.0 160.0,200.0 100.0,230.0 C 40.0,200.0 0.0,150.0 0.0,100.0 L 0.0,0.0 Z" style="fill: rgb(179, 38, 26); stroke-width: 1px; stroke: none;"/>
<path clip-path="url(#contour)" comment="'fleur-de-lis' FieldBackground" d="M 89.77550506591797,72.47257232666016 C 89.77550506591797,72.47257995605469 89.7755126953125,72.47258758544922 89.7755126953125,72.47259521484375 L 89.77552032470703,72.47259521484375 C 89.7755126953125,72.47258758544922 89.77550506591797,72.47257995605469 89.77550506591797,72.47257232666016 Z" style="fill: rgb(217, 217, 38); stroke-width: 1px; stroke: rgb(38, 38, 38);"/>
<path clip-path="url(#contour)" comment="'fleur-de-lis' FieldBackground" d="M 100.03144836425781,8.103782653808594 C 99.99169921875,8.103782653808594 99.95384216308594,8.13427734375 99.89730072021484,8.202120780944824 C 95.31698608398438,12.166251182556152 91.25016021728516,15.842827796936035 88.0665283203125,19.930194854736328 C 79.13182830810547,31.39125633239746 76.133056640625,43.83821487426758 81.14470672607422,53.902584075927734 C 84.82783508300781,61.81787872314453 87.66447448730469,67.53910064697266 89.77550506591797,72.47257232666016 C 85.28125762939453,65.9966049194336 78.9051742553711,61.57704544067383 71.77867889404297,59.592041015625 C 70.00869750976562,59.06533432006836 68.08165740966797,58.774208068847656 66.06127166748047,58.774208068847656 C 61.30598449707031,58.774208068847656 56.03359603881836,60.386959075927734 51.0748291015625,64.33667755126953 C 42.34552764892578,71.29957580566406 39.798622131347656,90.50404357910156 65.45249938964844,94.20115661621094 C 62.74128341674805,91.05860900878906 62.967220306396484,84.21894073486328 68.38965606689453,81.79528045654297 C 70.12242126464844,81.12619018554688 71.95191192626953,80.8440170288086 73.6537094116211,80.8440170288086 C 76.02674102783203,80.8440170288086 78.1514663696289,81.39269256591797 79.41938781738281,82.20606994628906 C 81.4664535522461,83.15819549560547 83.97557830810547,86.24128723144531 85.42826080322266,90.07270812988281 L 79.09075164794922,90.07270812988281 L 79.09075164794922,101.1517333984375 L 85.77640533447266,101.1517333984375 C 83.79054260253906,106.9716796875 78.84843444824219,110.16581726074219 67.23944091796875,118.76644134521484 C 77.13949584960938,118.76644134521484 89.21674346923828,112.3786392211914 91.7636489868164,110.05767822265625 C 91.96062469482422,109.88240051269531 92.15692901611328,109.63277435302734 92.35135650634766,109.3220443725586 C 91.5713119506836,114.18263244628906 87.84429168701172,118.04356384277344 81.2679443359375,120.28636169433594 C 82.14299774169922,122.49388885498047 86.15686798095703,126.93517303466797 91.74333953857422,126.93517303466797 C 91.92644500732422,126.93517303466797 92.11123657226562,126.93040466308594 92.29766845703125,126.92062377929688 C 93.44788360595703,131.85011291503906 94.59809875488281,134.6024169921875 99.89730072021484,139.0800323486328 C 99.95892333984375,139.13137817382812 99.98973083496094,139.1570587158203 100.02053833007812,139.1570587158203 C 100.05135345458984,139.1570587158203 100.08216094970703,139.13137817382812 100.1437759399414,139.0800323486328 C 105.44297790527344,134.6024169921875 106.59319305419922,131.85011291503906 107.743408203125,126.92062377929688 C 107.92984008789062,126.93040466308594 108.11463928222656,126.93517303466797 108.29774475097656,126.93517303466797 C 113.88420867919922,126.93517303466797 117.89807891845703,122.49388885498047 118.77313995361328,120.28636169433594 C 112.437255859375,118.12557220458984 108.74613952636719,114.46282196044922 107.787109375,109.85118865966797 C 107.85458374023438,109.92843627929688 107.92218780517578,109.99744415283203 107.98987579345703,110.05767822265625 C 110.53678131103516,112.3786392211914 122.61402893066406,118.76644134521484 132.5140838623047,118.76644134521484 C 120.90508270263672,110.16581726074219 115.96298217773438,106.9716796875 113.97711944580078,101.1517333984375 L 120.97086334228516,101.1517333984375 L 120.97086334228516,90.07270812988281 L 114.32526397705078,90.07270812988281 C 115.77793884277344,86.24128723144531 118.28706359863281,83.15819549560547 120.33413696289062,82.20606994628906 C 121.60205078125,81.39269256591797 123.7267837524414,80.8440170288086 126.09981536865234,80.8440170288086 C 127.80160522460938,80.8440170288086 129.631103515625,81.12619018554688 131.36386108398438,81.79528045654297 C 136.7863006591797,84.21894073486328 137.01223754882812,91.05860900878906 134.301025390625,94.20115661621094 C 159.95489501953125,90.50404357910156 157.40798950195312,71.29957580566406 148.67869567871094,64.33667755126953 C 143.7199249267578,60.386959075927734 138.44754028320312,58.774208068847656 133.69224548339844,58.774208068847656 C 131.67185974121094,58.774208068847656 129.7448272705078,59.06533432006836 127.97484588623047,59.592041015625 C 121.22071838378906,61.473323822021484 115.14064025878906,65.54139709472656 110.69776916503906,71.47432708740234 C 112.75882720947266,66.76602935791016 115.45893859863281,61.28986358642578 118.89636993408203,53.902584075927734 C 123.8874740600586,43.83821105957031 120.90924072265625,31.391254425048828 111.97454833984375,19.930194854736328 C 108.7909164428711,15.822287559509277 104.74462890625,12.125171661376953 100.1437759399414,8.161041259765625 L 100.1437759399414,8.161042213439941 C 100.09761810302734,8.124113082885742 100.06390380859375,8.103782653808594 100.03144836425781,8.103782653808594 Z" style="fill: rgb(217, 217, 38); stroke-width: 1px; stroke: rgb(38, 38, 38);"/>
<path clip-path="url(#contour)" comment="'fleur-de-lis' mobile debug reticle" d="M 20.8,7.360000000000014 L 179.2,7.360000000000014 L 179.2,139.83999999999997 L 20.8,139.83999999999997 L 20.8,7.360000000000014 Z" style="fill: none; stroke-width: 1px; stroke: rgb(0, 255, 255);"/>
<path clip-path="url(#contour)" comment="outer shield shape border" d="M 0.0,0.0 L 200.0,0.0 L 200.0,100.0 C 200.0,150.0 160.0,200.0 100.0,230.0 C 40.0,200.0 0.0,150.0 0.0,100.0 L 0.0,0.0 Z" style="fill: none; stroke-width: 1px; stroke: rgb(0, 0, 0);"/>
</g>
</svg>
