<?xml version="1.0" encoding="UTF-8" standalone="no"?>
<svg xmlns="http://www.w3.org/2000/svg" height="246.0" width="216.0">
<defs>
<clipPath id="contour">
<path d="M 0.0,0.0 L 200.0,0.0 L 200.0,100.0 C 200.0,150.0 160.0,200.0 100.0,230.0 C 40.0,200.0 0.0,150.0 0.0,100.0 L 0.0,0.0 Z"/>
</clipPath>
<radialGradient id="lighting">
<stop offset="25%" stop-color="white" stop-opacity="35%"/>
<stop offset="100%" stop-color="white" stop-opacity="0%"/>
</radialGradient>
</defs>
<g transform="translate(8.0,8.0)">
<path clip-path="url(#contour)" comment="FieldBackground" d="M 0.0,0.0 L 0.0,100.0 C 0.0,150.0 40.0,200.0 100.0,230.0 L 100.0,0.0 L 0.0,0.0 Z" style="fill: rgb(217, 217, 38); stroke-width: 1px; stroke: none;"/>
<path clip-path="url(#contour)" comment="FieldBackground" d="M 100.0,0.0 L 100.0,230.0 C 160.0,200.0 200.0,150.0 200.0,100.0 L 200.0,0.0 L 100.0,0.0 Z" style="fill: rgb(38, 64, 204); stroke-width: 1px; stroke: none;"/>
<path clip-path="url(#contour)" comment="counterchanged intersection #0 of Chevron CounterchangedBackground color 1 Color(red=0.85, green=0.85, blue=0.15) counter Color(red=0.15, green=0.25, blue=0.8)" d="M 100.0,78.78679656982422 L 18.74393081665039,160.04286193847656 C 23.953516006469727,168.3079833984375 30.161781311035156,176.31600952148438 37.25748062133789,183.95571899414062 L 100.0,121.21320343017578 L 100.0,78.78679656982422 Z" style="fill: rgb(38, 64, 204); stroke-width: 1px; stroke: none;"/>
<path clip-path="url(#contour)" comment="counterchanged intersection #0 of Chevron CounterchangedBackground color 0 Color(red=0.15, green=0.25, blue=0.8) counter Color(red=0.85, green=0.85, blue=0.15)" d="M 100.0,78.78679656982422 L 100.0,121.21320343017578 L 162.74252319335938,183.95571899414062 C 169.31027221679688,176.88441467285156 175.1177520751953,169.49757385253906 180.07672119140625,161.88336181640625 C 180.475341796875,161.2713165283203 180.86846923828125,160.65780639648438 181.25607299804688,160.04286193847656 L 100.0,78.78679656982422 Z" style="fill: rgb(217, 217, 38); stroke-width: 1px; stroke: none;"/>
<path clip-path="url(#contour)" comment="counterchanged intersection #0 of clipped 'fleur-de-lis' CounterchangedBackground color 1 Color(red=0.85, green=0.85, blue=0.15) counter Color(red=0.15, green=0.25, blue=0.8)" d="M 151.90521240234375,138.8013458251953 C 151.89710998535156,138.8013458251953 151.88938903808594,138.80755615234375 151.87786865234375,138.82139587402344 C 150.9443817138672,139.62930297851562 150.11553955078125,140.37860107421875 149.46670532226562,141.2116241455078 C 147.64578247070312,143.5474395751953 147.03460693359375,146.0841827392578 148.05601501464844,148.13534545898438 C 148.806640625,149.74851989746094 149.384765625,150.91452026367188 149.81500244140625,151.91998291015625 C 148.8990478515625,150.60015869140625 147.59957885742188,149.69943237304688 146.1471710205078,149.2948760986328 C 145.78643798828125,149.18753051757812 145.39370727539062,149.12820434570312 144.98193359375,149.12820434570312 C 144.01278686523438,149.12820434570312 142.93824768066406,149.45687866210938 141.92764282226562,150.26185607910156 C 140.1485595703125,151.68092346191406 139.62950134277344,155.59487915039062 144.8578643798828,156.34837341308594 C 144.30531311035156,155.70790100097656 144.3513641357422,154.31394958496094 145.4564666748047,153.8199920654297 C 145.8096160888672,153.68362426757812 146.18247985839844,153.62612915039062 146.52931213378906,153.62612915039062 C 147.012939453125,153.62612915039062 147.4459686279297,153.73794555664062 147.70437622070312,153.90371704101562 C 148.12158203125,154.09776306152344 148.63294982910156,154.72610473632812 148.92901611328125,155.50697326660156 L 147.6374053955078,155.50697326660156 L 147.6374053955078,157.76492309570312 L 148.99996948242188,157.76492309570312 C 148.59524536132812,158.9510498046875 147.5880126953125,159.60203552246094 145.22206115722656,161.35487365722656 C 147.23973083496094,161.35487365722656 149.7011260986328,160.05300903320312 150.22019958496094,159.57998657226562 C 150.26034545898438,159.5442657470703 150.3003387451172,159.49339294433594 150.3399658203125,159.43006896972656 C 150.18099975585938,160.42066955566406 149.42141723632812,161.20755004882812 148.0811309814453,161.66464233398438 C 148.25946044921875,162.1145477294922 149.0775146484375,163.0196990966797 150.21604919433594,163.0196990966797 C 150.2533721923828,163.0196990966797 150.29103088378906,163.0187225341797 150.3290252685547,163.01673889160156 C 150.56344604492188,164.02139282226562 150.79786682128906,164.5823211669922 151.87786865234375,165.494873046875 C 151.8904266357422,165.50534057617188 151.89669799804688,165.5105743408203 151.90298461914062,165.5105743408203 C 151.90927124023438,165.5105743408203 151.91554260253906,165.50534057617188 151.9281005859375,165.494873046875 C 153.0081024169922,164.5823211669922 153.24252319335938,164.02139282226562 153.47694396972656,163.01673889160156 C 153.5149383544922,163.0187225341797 153.55259704589844,163.0196990966797 153.5899200439453,163.0196990966797 C 154.72845458984375,163.0196990966797 155.5465087890625,162.1145477294922 155.724853515625,161.66464233398438 C 154.43356323242188,161.22425842285156 153.68130493164062,160.477783203125 153.48583984375,159.5379180908203 C 153.49960327148438,159.55364990234375 153.5133819580078,159.56771850585938 153.5271759033203,159.57998657226562 C 154.04623413085938,160.05300903320312 156.50762939453125,161.35487365722656 158.5253143310547,161.35487365722656 C 156.1593475341797,159.60203552246094 155.15213012695312,158.9510498046875 154.7473907470703,157.76492309570312 L 156.17274475097656,157.76492309570312 L 156.17274475097656,155.50697326660156 L 154.81834411621094,155.50697326660156 C 155.11441040039062,154.72610473632812 155.6257781982422,154.09776306152344 156.04298400878906,153.90371704101562 C 156.3013916015625,153.73794555664062 156.7344207763672,153.62612915039062 157.21804809570312,153.62612915039062 C 157.56488037109375,153.62612915039062 157.937744140625,153.68362426757812 158.2908935546875,153.8199920654297 C 159.39601135253906,154.31394958496094 159.44204711914062,155.70790100097656 158.88949584960938,156.34837341308594 C 164.1178741455078,155.59487915039062 163.5988006591797,151.68092346191406 161.81973266601562,150.26185607910156 C 160.80911254882812,149.45687866210938 159.7345733642578,149.12820434570312 158.7654266357422,149.12820434570312 C 158.35366821289062,149.12820434570312 157.96092224121094,149.18753051757812 157.60018920898438,149.2948760986328 C 156.2236785888672,149.6782989501953 154.98452758789062,150.50738525390625 154.0790557861328,151.71653747558594 C 154.4990997314453,150.75697326660156 155.0493927001953,149.64089965820312 155.7499542236328,148.13534545898438 C 156.7671661376953,146.0841827392578 156.16018676757812,143.5474395751953 154.33926391601562,141.2116241455078 C 153.6904296875,140.37440490722656 152.8657684326172,139.6209259033203 151.9281005859375,138.81301879882812 C 151.91868591308594,138.8054962158203 151.9118194580078,138.8013458251953 151.90521240234375,138.8013458251953 Z" style="fill: rgb(38, 64, 204); stroke-width: 1px; stroke: none;"/>
<path clip-path="url(#contour)" comment="counterchanged intersection #0 of clipped 'fleur-de-lis' CounterchangedBackground color 0 Color(red=0.15, green=0.25, blue=0.8) counter Color(red=0.85, green=0.85, blue=0.15)" d="M 151.90521240234375,138.8013458251953 C 151.89710998535156,138.8013458251953 151.88938903808594,138.80755615234375 151.87786865234375,138.82139587402344 C 150.9443817138672,139.62930297851562 150.11553955078125,140.37860107421875 149.46670532226562,141.2116241455078 C 147.64578247070312,143.5474395751953 147.03460693359375,146.0841827392578 148.05601501464844,148.13534545898438 C 148.806640625,149.74851989746094 149.384765625,150.91452026367188 149.81500244140625,151.91998291015625 C 148.8990478515625,150.60015869140625 147.59957885742188,149.69943237304688 146.1471710205078,149.2948760986328 C 145.78643798828125,149.18753051757812 145.39370727539062,149.12820434570312 144.98193359375,149.12820434570312 C 144.01278686523438,149.12820434570312 142.93824768066406,149.45687866210938 141.92764282226562,150.26185607910156 C 140.1485595703125,151.68092346191406 139.62950134277344,155.59487915039062 144.8578643798828,156.34837341308594 C 144.30531311035156,155.70790100097656 144.3513641357422,154.31394958496094 145.4564666748047,153.8199920654297 C 145.8096160888672,153.68362426757812 146.18247985839844,153.62612915039062 146.52931213378906,153.62612915039062 C 147.012939453125,153.62612915039062 147.4459686279297,153.73794555664062 147.70437622070312,153.90371704101562 C 148.12158203125,154.09776306152344 148.63294982910156,154.72610473632812 148.92901611328125,155.50697326660156 L 147.6374053955078,155.50697326660156 L 147.6374053955078,157.76492309570312 L 148.99996948242188,157.76492309570312 C 148.59524536132812,158.9510498046875 147.5880126953125,159.60203552246094 145.22206115722656,161.35487365722656 C 147.23973083496094,161.35487365722656 149.7011260986328,160.05300903320312 150.22019958496094,159.57998657226562 C 150.26034545898438,159.5442657470703 150.3003387451172,159.49339294433594 150.3399658203125,159.43006896972656 C 150.18099975585938,160.42066955566406 149.42141723632812,161.20755004882812 148.0811309814453,161.66464233398438 C 148.25946044921875,162.1145477294922 149.0775146484375,163.0196990966797 150.21604919433594,163.0196990966797 C 150.2533721923828,163.0196990966797 150.29103088378906,163.0187225341797 150.3290252685547,163.01673889160156 C 150.56344604492188,164.02139282226562 150.79786682128906,164.5823211669922 151.87786865234375,165.494873046875 C 151.8904266357422,165.50534057617188 151.89669799804688,165.5105743408203 151.90298461914062,165.5105743408203 C 151.90927124023438,165.5105743408203 151.91554260253906,165.50534057617188 151.9281005859375,165.494873046875 C 153.0081024169922,164.5823211669922 153.24252319335938,164.02139282226562 153.47694396972656,163.01673889160156 C 153.5149383544922,163.0187225341797 153.55259704589844,163.0196990966797 153.5899200439453,163.0196990966797 C 154.72845458984375,163.0196990966797 155.5465087890625,162.1145477294922 155.724853515625,161.66464233398438 C 154.43356323242188,161.22425842285156 153.68130493164062,160.477783203125 153.48583984375,159.5379180908203 C 153.49960327148438,159.55364990234375 153.5133819580078,159.56771850585938 153.5271759033203,159.57998657226562 C 154.04623413085938,160.05300903320312 156.50762939453125,161.35487365722656 158.5253143310547,161.35487365722656 C 156.1593475341797,159.60203552246094 155.15213012695312,158.9510498046875 154.7473907470703,157.76492309570312 L 156.17274475097656,157.76492309570312 L 156.17274475097656,155.50697326660156 L 154.81834411621094,155.50697326660156 C 155.11441040039062,154.72610473632812 155.6257781982422,154.09776306152344 156.04298400878906,153.90371704101562 C 156.3013916015625,153.73794555664062 156.7344207763672,153.62612915039062 157.21804809570312,153.62612915039062 C 157.56488037109375,153.62612915039062 157.937744140625,153.68362426757812 158.2908935546875,153.8199920654297 C 159.39601135253906,154.31394958496094 159.44204711914062,155.70790100097656 158.88949584960938,156.34837341308594 C 164.1178741455078,155.59487915039062 163.5988006591797,151.68092346191406 161.81973266601562,150.26185607910156 C 160.80911254882812,149.45687866210938 159.7345733642578,149.12820434570312 158.7654266357422,149.12820434570312 C 158.35366821289062,149.12820434570312 157.96092224121094,149.18753051757812 157.60018920898438,149.2948760986328 C 156.2236785888672,149.6782989501953 154.98452758789062,150.50738525390625 154.0790557861328,151.71653747558594 C 154.4990997314453,150.75697326660156 155.0493927001953,149.64089965820312 155.7499542236328,148.13534545898438 C 156.7671661376953,146.0841827392578 156.16018676757812,143.5474395751953 154.33926391601562,141.2116241455078 C 153.6904296875,140.37440490722656 152.8657684326172,139.6209259033203 151.9281005859375,138.81301879882812 C 151.91868591308594,138.8054962158203 151.9118194580078,138.8013458251953 151.90521240234375,138.8013458251953 Z" style="fill: rgb(217, 217, 38); stroke-width: 1px; stroke: none;"/>
<path clip-path="url(#contour)" comment="clipped 'fleur-de-lis' mobile debug reticle" d="M 138.3988037109375,138.64976501464844 L 138.3988037109375,159.61199951171875 L 144.4365692138672,165.64976501464844 L 165.3988037109375,165.64976501464844 L 165.3988037109375,144.1855926513672 L 159.86297607421875,138.64976501464844 L 138.3988037109375,138.64976501464844 Z" style="fill: none; stroke-width: 1px; stroke: rgb(0, 255, 255);"/>
<path clip-path="url(#contour)" comment="debug repeat reticle" d="M 136.89879845431648,137.14976072323302 L 166.89879845431648,137.14976072323302 L 166.89879845431648,167.14976072323302 L 136.89879845431648,167.14976072323302 L 136.89879845431648,137.14976072323302 Z" style="fill: none; stroke-width: 1px; stroke: rgb(255, 0, 255);"/>
<path clip-path="url(#contour)" comment="counterchanged intersection #0 of clipped 'fleur-de-lis' CounterchangedBackground color 1 Color(red=0.85, green=0.85, blue=0.15) counter Color(red=0.15, green=0.25, blue=0.8)" d="M 111.69219970703125,97.80480194091797 C 111.68409729003906,97.80480194091797 111.67638397216797,97.81101989746094 111.66485595703125,97.82484436035156 C 110.73136901855469,98.63275146484375 109.90253448486328,99.3820571899414 109.25369262695312,100.21508026123047 C 107.4327621459961,102.55089569091797 106.82160186767578,105.08763885498047 107.8429946899414,107.13880157470703 C 108.59363555908203,108.75196838378906 109.1717529296875,109.91798400878906 109.60198974609375,110.92344665527344 C 108.68604278564453,109.6036148071289 107.3865737915039,108.70288848876953 105.93415832519531,108.29833221435547 C 105.57343292236328,108.19098663330078 105.18069458007812,108.13166046142578 104.76892852783203,108.13166046142578 C 103.7997817993164,108.13166046142578 102.7252426147461,108.46034240722656 101.71463012695312,109.26531219482422 C 99.93555450439453,110.68437957763672 99.41648864746094,114.59833526611328 104.64485931396484,115.35182189941406 C 104.09230041503906,114.71135711669922 104.13835144042969,113.3174057006836 105.24346160888672,112.82345581054688 C 105.59661102294922,112.68708801269531 105.96946716308594,112.62957763671875 106.31629943847656,112.62957763671875 C 106.79993438720703,112.62957763671875 107.23296356201172,112.74140167236328 107.49137115478516,112.90717315673828 C 107.9085693359375,113.1012191772461 108.4199447631836,113.72956848144531 108.71600341796875,114.51042938232422 L 107.42439270019531,114.51042938232422 L 107.42439270019531,116.76837921142578 L 108.78695678710938,116.76837921142578 C 108.38223266601562,117.95451354980469 107.37500762939453,118.6054916381836 105.00904846191406,120.35833740234375 C 107.02671813964844,120.35833740234375 109.48811340332031,119.05647277832031 110.00718688964844,118.58345031738281 C 110.04733276367188,118.5477294921875 110.08733367919922,118.49685668945312 110.12696075439453,118.43352508544922 C 109.96798706054688,119.42413330078125 109.20840454101562,120.21100616455078 107.86811065673828,120.66809844970703 C 108.04645538330078,121.11800384521484 108.864501953125,122.02316284179688 110.00304412841797,122.02316284179688 C 110.04035949707031,122.02316284179688 110.0780258178711,122.02218627929688 110.11602020263672,122.02019500732422 C 110.3504409790039,123.02484893798828 110.5848617553711,123.58577728271484 111.66485595703125,124.49833679199219 C 111.67741394042969,124.50879669189453 111.6836929321289,124.51403045654297 111.68997192382812,124.51403045654297 C 111.69625091552734,124.51403045654297 111.7025375366211,124.50879669189453 111.71509552001953,124.49833679199219 C 112.79508972167969,123.58577728271484 113.02951049804688,123.02484893798828 113.26393127441406,122.02019500732422 C 113.30192565917969,122.02218627929688 113.33958435058594,122.02316284179688 113.37690734863281,122.02316284179688 C 114.51544952392578,122.02316284179688 115.33349609375,121.11800384521484 115.51183319091797,120.66809844970703 C 114.2205581665039,120.22772216796875 113.46829223632812,119.48123931884766 113.27283477783203,118.54136657714844 C 113.28659057617188,118.55711364746094 113.30036926269531,118.57117462158203 113.31416320800781,118.58345031738281 C 113.8332290649414,119.05647277832031 116.29462432861328,120.35833740234375 118.31230163574219,120.35833740234375 C 115.94633483886719,118.6054916381836 114.93911743164062,117.95451354980469 114.53438568115234,116.76837921142578 L 115.9597396850586,116.76837921142578 L 115.9597396850586,114.51042938232422 L 114.60533905029297,114.51042938232422 C 114.90140533447266,113.72956848144531 115.41277313232422,113.1012191772461 115.82997131347656,112.90717315673828 C 116.08837890625,112.74140167236328 116.52140808105469,112.62957763671875 117.00504302978516,112.62957763671875 C 117.35187530517578,112.62957763671875 117.72473907470703,112.68708801269531 118.077880859375,112.82345581054688 C 119.18299865722656,113.3174057006836 119.22904205322266,114.71135711669922 118.67648315429688,115.35182189941406 C 123.90486145019531,114.59833526611328 123.38578796386719,110.68437957763672 121.60671997070312,109.26531219482422 C 120.59609985351562,108.46034240722656 119.52156829833984,108.13166046142578 118.55241394042969,108.13166046142578 C 118.14065551757812,108.13166046142578 117.74791717529297,108.19098663330078 117.3871841430664,108.29833221435547 C 116.01066589355469,108.68174743652344 114.77151489257812,109.5108413696289 113.86604309082031,110.72000122070312 C 114.28609466552734,109.76042938232422 114.83638763427734,108.64435577392578 115.53694915771484,107.13880157470703 C 116.55416107177734,105.08763885498047 115.94718170166016,102.55089569091797 114.12625122070312,100.21508026123047 C 113.4774169921875,99.37786865234375 112.65276336669922,98.62438201904297 111.715087890625,97.81647491455078 L 111.71509552001953,97.81647491455078 C 111.70568084716797,97.80894470214844 111.69881439208984,97.80480194091797 111.69219970703125,97.80480194091797 Z" style="fill: rgb(38, 64, 204); stroke-width: 1px; stroke: none;"/>
<path clip-path="url(#contour)" comment="counterchanged intersection #0 of clipped 'fleur-de-lis' CounterchangedBackground color 0 Color(red=0.15, green=0.25, blue=0.8) counter Color(red=0.85, green=0.85, blue=0.15)" d="M 111.69219970703125,97.80480194091797 C 111.68409729003906,97.80480194091797 111.67638397216797,97.81101989746094 111.66485595703125,97.82484436035156 C 110.73136901855469,98.63275146484375 109.90253448486328,99.3820571899414 109.25369262695312,100.21508026123047 C 107.4327621459961,102.55089569091797 106.82160186767578,105.08763885498047 107.8429946899414,107.13880157470703 C 108.59363555908203,108.75196838378906 109.1717529296875,109.91798400878906 109.60198974609375,110.92344665527344 C 108.68604278564453,109.6036148071289 107.3865737915039,108.70288848876953 105.93415832519531,108.29833221435547 C 105.57343292236328,108.19098663330078 105.18069458007812,108.13166046142578 104.76892852783203,108.13166046142578 C 103.7997817993164,108.13166046142578 102.7252426147461,108.46034240722656 101.71463012695312,109.26531219482422 C 99.93555450439453,110.68437957763672 99.41648864746094,114.59833526611328 104.64485931396484,115.35182189941406 C 104.09230041503906,114.71135711669922 104.13835144042969,113.3174057006836 105.24346160888672,112.82345581054688 C 105.59661102294922,112.68708801269531 105.96946716308594,112.62957763671875 106.31629943847656,112.62957763671875 C 106.79993438720703,112.62957763671875 107.23296356201172,112.74140167236328 107.49137115478516,112.90717315673828 C 107.9085693359375,113.1012191772461 108.4199447631836,113.72956848144531 108.71600341796875,114.51042938232422 L 107.42439270019531,114.51042938232422 L 107.42439270019531,116.76837921142578 L 108.78695678710938,116.76837921142578 C 108.38223266601562,117.95451354980469 107.37500762939453,118.6054916381836 105.00904846191406,120.35833740234375 C 107.02671813964844,120.35833740234375 109.48811340332031,119.05647277832031 110.00718688964844,118.58345031738281 C 110.04733276367188,118.5477294921875 110.08733367919922,118.49685668945312 110.12696075439453,118.43352508544922 C 109.96798706054688,119.42413330078125 109.20840454101562,120.21100616455078 107.86811065673828,120.66809844970703 C 108.04645538330078,121.11800384521484 108.864501953125,122.02316284179688 110.00304412841797,122.02316284179688 C 110.04035949707031,122.02316284179688 110.0780258178711,122.02218627929688 110.11602020263672,122.02019500732422 C 110.3504409790039,123.02484893798828 110.5848617553711,123.58577728271484 111.66485595703125,124.49833679199219 C 111.67741394042969,124.50879669189453 111.6836929321289,124.51403045654297 111.68997192382812,124.51403045654297 C 111.69625091552734,124.51403045654297 111.7025375366211,124.50879669189453 111.71509552001953,124.49833679199219 C 112.79508972167969,123.58577728271484 113.02951049804688,123.02484893798828 113.26393127441406,122.02019500732422 C 113.30192565917969,122.02218627929688 113.33958435058594,122.02316284179688 113.37690734863281,122.02316284179688 C 114.51544952392578,122.02316284179688 115.33349609375,121.11800384521484 115.51183319091797,120.66809844970703 C 114.2205581665039,120.22772216796875 113.46829223632812,119.48123931884766 113.27283477783203,118.54136657714844 C 113.28659057617188,118.55711364746094 113.30036926269531,118.57117462158203 113.31416320800781,118.58345031738281 C 113.8332290649414,119.05647277832031 116.29462432861328,120.35833740234375 118.31230163574219,120.35833740234375 C 115.94633483886719,118.6054916381836 114.93911743164062,117.95451354980469 114.53438568115234,116.76837921142578 L 115.9597396850586,116.76837921142578 L 115.9597396850586,114.51042938232422 L 114.60533905029297,114.51042938232422 C 114.90140533447266,113.72956848144531 115.41277313232422,113.1012191772461 115.82997131347656,112.90717315673828 C 116.08837890625,112.74140167236328 116.52140808105469,112.62957763671875 117.00504302978516,112.62957763671875 C 117.35187530517578,112.62957763671875 117.72473907470703,112.68708801269531 118.077880859375,112.82345581054688 C 119.18299865722656,113.3174057006836 119.22904205322266,114.71135711669922 118.67648315429688,115.35182189941406 C 123.90486145019531,114.59833526611328 123.38578796386719,110.68437957763672 121.60671997070312,109.26531219482422 C 120.59609985351562,108.46034240722656 119.52156829833984,108.13166046142578 118.55241394042969,108.13166046142578 C 118.14065551757812,108.13166046142578 117.74791717529297,108.19098663330078 117.3871841430664,108.29833221435547 C 116.01066589355469,108.68174743652344 114.77151489257812,109.5108413696289 113.86604309082031,110.72000122070312 C 114.28609466552734,109.76042938232422 114.83638763427734,108.64435577392578 115.53694915771484,107.13880157470703 C 116.55416107177734,105.08763885498047 115.94718170166016,102.55089569091797 114.12625122070312,100.21508026123047 C 113.4774169921875,99.37786865234375 112.65276336669922,98.62438201904297 111.715087890625,97.81647491455078 L 111.71509552001953,97.81647491455078 C 111.70568084716797,97.80894470214844 111.69881439208984,97.80480194091797 111.69219970703125,97.80480194091797 Z" style="fill: rgb(217, 217, 38); stroke-width: 1px; stroke: none;"/>
<path clip-path="url(#contour)" comment="clipped 'fleur-de-lis' mobile debug reticle" d="M 98.185791015625,97.6532211303711 L 98.185791015625,123.02741241455078 L 100.0,121.21320343017578 L 103.44001770019531,124.6532211303711 L 125.185791015625,124.6532211303711 L 125.185791015625,103.97257995605469 L 118.86642456054688,97.6532211303711 L 98.185791015625,97.6532211303711 Z" style="fill: none; stroke-width: 1px; stroke: rgb(0, 255, 255);"/>
<path clip-path="url(#contour)" comment="debug repeat reticle" d="M 96.68578921930118,96.15321854713268 L 126.68578921930118,96.15321854713268 L 126.68578921930118,126.15321854713268 L 96.68578921930118,126.15321854713268 L 96.68578921930118,96.15321854713268 Z" style="fill: none; stroke-width: 1px; stroke: rgb(255, 0, 255);"/>
<path clip-path="url(#contour)" comment="counterchanged intersection #0 of clipped 'fleur-de-lis' CounterchangedBackground color 1 Color(red=0.85, green=0.85, blue=0.15) counter Color(red=0.15, green=0.25, blue=0.8)" d="M 72.6116943359375,123.79383087158203 C 72.6116943359375,123.79383087158203 72.6116943359375,123.79383087158203 72.61170196533203,123.79383850097656 C 72.61170196533203,123.79383087158203 72.6116943359375,123.79383087158203 72.6116943359375,123.79383087158203 Z" style="fill: rgb(38, 64, 204); stroke-width: 1px; stroke: none;"/>
<path clip-path="url(#contour)" comment="counterchanged intersection #0 of clipped 'fleur-de-lis' CounterchangedBackground color 0 Color(red=0.15, green=0.25, blue=0.8) counter Color(red=0.85, green=0.85, blue=0.15)" d="M 72.6116943359375,123.79383087158203 C 72.6116943359375,123.79383087158203 72.6116943359375,123.79383087158203 72.61170196533203,123.79383850097656 C 72.61170196533203,123.79383087158203 72.6116943359375,123.79383087158203 72.6116943359375,123.79383087158203 Z" style="fill: rgb(217, 217, 38); stroke-width: 1px; stroke: none;"/>
<path clip-path="url(#contour)" comment="counterchanged intersection #0 of clipped 'fleur-de-lis' CounterchangedBackground color 1 Color(red=0.85, green=0.85, blue=0.15) counter Color(red=0.15, green=0.25, blue=0.8)" d="M 72.6116943359375,123.79383087158203 C 72.6116943359375,123.79383087158203 72.6116943359375,123.79383087158203 72.61170196533203,123.79383850097656 C 72.61170196533203,123.79383087158203 72.6116943359375,123.79383087158203 72.6116943359375,123.79383087158203 Z" style="fill: rgb(38, 64, 204); stroke-width: 1px; stroke: none;"/>
<path clip-path="url(#contour)" comment="counterchanged intersection #0 of clipped 'fleur-de-lis' CounterchangedBackground color 0 Color(red=0.15, green=0.25, blue=0.8) counter Color(red=0.85, green=0.85, blue=0.15)" d="M 72.6116943359375,123.79383087158203 C 72.6116943359375,123.79383087158203 72.61170196533203,123.79383087158203 72.61170196533203,123.79383850097656 C 72.6116943359375,123.79383087158203 72.6116943359375,123.79383087158203 72.6116943359375,123.79383087158203 Z" style="fill: rgb(217, 217, 38); stroke-width: 1px; stroke: none;"/>
<path clip-path="url(#contour)" comment="counterchanged intersection #1 of clipped 'fleur-de-lis' CounterchangedBackground color 0 Color(red=0.15, green=0.25, blue=0.8) counter Color(red=0.85, green=0.85, blue=0.15)" d="M 74.701904296875,110.6751937866211 C 74.69380187988281,110.6751937866211 74.68608856201172,110.68140411376953 74.674560546875,110.69523620605469 C 73.74107360839844,111.50314331054688 72.91223907470703,112.25244140625 72.26339721679688,113.08546447753906 C 70.44246673583984,115.42127990722656 69.83130645751953,117.95802307128906 70.85269927978516,120.00918579101562 C 71.60334014892578,121.62236022949219 72.18145751953125,122.78836822509766 72.6116943359375,123.79383087158203 C 71.69574737548828,122.4739990234375 70.39627838134766,121.57327270507812 68.94386291503906,121.1687240600586 C 68.58313751220703,121.0613784790039 68.19039916992188,121.00204467773438 67.77863311767578,121.00204467773438 C 66.80948638916016,121.00204467773438 65.73494720458984,121.33073425292969 64.72432708740234,122.13569641113281 C 62.94526290893555,123.55477142333984 62.42618942260742,127.46871948242188 67.6545639038086,128.2222137451172 C 67.10200500488281,127.58174896240234 67.1480484008789,126.18778991699219 68.25316619873047,125.69384002685547 C 68.60631561279297,125.55747985839844 68.97917175292969,125.49996948242188 69.32600402832031,125.49996948242188 C 69.80963897705078,125.49996948242188 70.24266815185547,125.61178588867188 70.5010757446289,125.77755737304688 C 70.91827392578125,125.97161102294922 71.42964935302734,126.5999526977539 71.7257080078125,127.38081359863281 L 70.43409729003906,127.38081359863281 L 70.43409729003906,129.63876342773438 L 71.79666137695312,129.63876342773438 C 71.39193725585938,130.8249053955078 70.38471221923828,131.4758758544922 68.01874542236328,133.22872924804688 C 70.03642272949219,133.22872924804688 72.49781799316406,131.92686462402344 73.01689147949219,131.45384216308594 C 73.05703735351562,131.41812133789062 73.09703826904297,131.36724853515625 73.13666534423828,131.3039093017578 C 72.97769165039062,132.29452514648438 72.21810913085938,133.08139038085938 70.87781524658203,133.53848266601562 C 71.05615997314453,133.98838806152344 71.87420654296875,134.89353942871094 73.01274871826172,134.89353942871094 C 73.05006408691406,134.89353942871094 73.08773040771484,134.892578125 73.12572479248047,134.8905792236328 C 73.36014556884766,135.89523315429688 73.59455871582031,136.45616149902344 74.674560546875,137.3687286376953 C 74.68711853027344,137.37918090820312 74.69339752197266,137.38441467285156 74.69967651367188,137.38441467285156 C 74.7059555053711,137.38441467285156 74.71223449707031,137.37918090820312 74.72479248046875,137.3687286376953 C 75.80479431152344,136.45616149902344 76.03921508789062,135.89523315429688 76.27363586425781,134.8905792236328 C 76.31163024902344,134.892578125 76.34928894042969,134.89353942871094 76.38661193847656,134.89353942871094 C 77.52515411376953,134.89353942871094 78.34320068359375,133.98838806152344 78.52153778076172,133.53848266601562 C 77.23026275634766,133.09811401367188 76.47799682617188,132.35162353515625 76.28253936767578,131.41175842285156 C 76.29629516601562,131.42750549316406 76.31006622314453,131.44155883789062 76.32386779785156,131.45384216308594 C 76.84293365478516,131.92686462402344 79.30432891845703,133.22872924804688 81.32200622558594,133.22872924804688 C 78.95603942871094,131.4758758544922 77.94882202148438,130.8249053955078 77.5440902709961,129.63876342773438 L 78.96944427490234,129.63876342773438 L 78.96944427490234,127.38081359863281 L 77.61504364013672,127.38081359863281 C 77.9111099243164,126.5999526977539 78.42247772216797,125.97161102294922 78.83967590332031,125.77755737304688 C 79.09808349609375,125.61178588867188 79.53111267089844,125.49996948242188 80.0147476196289,125.49996948242188 C 80.36157989501953,125.49996948242188 80.73444366455078,125.55747985839844 81.08758544921875,125.69384002685547 C 82.19270324707031,126.18778991699219 82.2387466430664,127.58174896240234 81.68618774414062,128.2222137451172 C 86.91456604003906,127.46871948242188 86.39549255371094,123.55477142333984 84.61642456054688,122.13569641113281 C 83.60580444335938,121.33073425292969 82.5312728881836,121.00204467773438 81.56211853027344,121.00204467773438 C 81.15036010742188,121.00204467773438 80.75762176513672,121.0613784790039 80.39688873291016,121.1687240600586 C 79.02037048339844,121.55213928222656 77.78121948242188,122.3812255859375 76.87574768066406,123.59038543701172 C 77.2957992553711,122.63081359863281 77.8460922241211,121.5147476196289 78.5466537475586,120.00918579101562 C 79.5638656616211,117.95802307128906 78.9568862915039,115.42127990722656 77.13595581054688,113.08546447753906 C 76.48712158203125,112.24825286865234 75.66246795654297,111.49476623535156 74.72479248046875,110.68685913085938 C 74.71538543701172,110.67933654785156 74.7085189819336,110.6751937866211 74.701904296875,110.6751937866211 L 72.6116943359375,123.79383087158203 Z" style="fill: rgb(217, 217, 38); stroke-width: 1px; stroke: none;"/>
<path clip-path="url(#contour)" comment="clipped 'fleur-de-lis' mobile debug reticle" d="M 68.26319122314453,110.52360534667969 L 61.195491790771484,117.59130096435547 L 61.195491790771484,137.5236053466797 L 83.6895980834961,137.5236053466797 L 88.19549560546875,133.01771545410156 L 88.19549560546875,110.52360534667969 L 68.26319122314453,110.52360534667969 Z" style="fill: none; stroke-width: 1px; stroke: rgb(0, 255, 255);"/>
<path clip-path="url(#contour)" comment="debug repeat reticle" d="M 59.69549326585249,109.02360544447139 L 89.69549326585249,109.02360544447139 L 89.69549326585249,139.0236054444714 L 59.69549326585249,139.0236054444714 L 59.69549326585249,109.02360544447139 Z" style="fill: none; stroke-width: 1px; stroke: rgb(255, 0, 255);"/>
<path clip-path="url(#contour)" comment="counterchanged intersection #0 of clipped 'fleur-de-lis' CounterchangedBackground color 1 Color(red=0.85, green=0.85, blue=0.15) counter Color(red=0.15, green=0.25, blue=0.8)" d="M 43.71543502807617,143.30245971679688 C 43.70733642578125,143.30245971679688 43.69961929321289,143.3086700439453 43.68809509277344,143.32249450683594 C 42.754608154296875,144.13040161132812 41.9257698059082,144.87969970703125 41.27693176269531,145.7127227783203 C 39.45600128173828,148.0485382080078 38.84484100341797,150.5852813720703 39.866233825683594,152.63644409179688 C 40.61687469482422,154.24961853027344 41.19499206542969,155.41563415527344 41.62522888183594,156.4210968017578 C 40.70928192138672,155.10125732421875 39.40980911254883,154.20053100585938 37.9573974609375,153.79598999023438 C 37.5966682434082,153.6886444091797 37.20392990112305,153.62930297851562 36.79216766357422,153.62930297851562 C 35.82301712036133,153.62930297851562 34.74848175048828,153.95799255371094 33.73786544799805,154.76296997070312 C 31.95879554748535,156.18203735351562 31.43972396850586,160.0959930419922 36.668094635009766,160.84947204589844 C 36.11553955078125,160.20901489257812 36.16158676147461,158.81504821777344 37.266700744628906,158.32110595703125 C 37.61984634399414,158.1847381591797 37.992706298828125,158.12722778320312 38.33953857421875,158.12722778320312 C 38.82317352294922,158.12722778320312 39.256202697753906,158.2390594482422 39.51460647583008,158.40481567382812 C 39.93180847167969,158.598876953125 40.443180084228516,159.2272186279297 40.73924255371094,160.00807189941406 L 39.4476318359375,160.00807189941406 L 39.4476318359375,162.2660369873047 L 40.81019592285156,162.2660369873047 C 40.40546798706055,163.45216369628906 39.39824676513672,164.10313415527344 37.032283782958984,165.85598754882812 C 39.049957275390625,165.85598754882812 41.5113525390625,164.5541229248047 42.03042221069336,164.0811004638672 C 42.0705680847168,164.04537963867188 42.110572814941406,163.9945068359375 42.15019989013672,163.93118286132812 C 41.9912223815918,164.92178344726562 41.23163986206055,165.7086639404297 39.89134979248047,166.16575622558594 C 40.0696907043457,166.61566162109375 40.88773727416992,167.52081298828125 42.026283264160156,167.52081298828125 C 42.0635986328125,167.52081298828125 42.101261138916016,167.51983642578125 42.139259338378906,167.51783752441406 C 42.37367630004883,168.52249145507812 42.608097076416016,169.0834197998047 43.68809509277344,169.99598693847656 C 43.700653076171875,170.00645446777344 43.706932067871094,170.01168823242188 43.71321105957031,170.01168823242188 C 43.71949005126953,170.01168823242188 43.725772857666016,170.00645446777344 43.73833084106445,169.99598693847656 C 44.818328857421875,169.0834197998047 45.0527458190918,168.52249145507812 45.287166595458984,167.51783752441406 C 45.32516098022461,167.51983642578125 45.362823486328125,167.52081298828125 45.400142669677734,167.52081298828125 C 46.53868865966797,167.52081298828125 47.35673141479492,166.61566162109375 47.535072326660156,166.16575622558594 C 46.24379348754883,165.72537231445312 45.49152755737305,164.9788818359375 45.29607391357422,164.0390167236328 C 45.3098258972168,164.0547637939453 45.323604583740234,164.06883239746094 45.337398529052734,164.0811004638672 C 45.856468200683594,164.5541229248047 48.31786346435547,165.85598754882812 50.33553695678711,165.85598754882812 C 47.969573974609375,164.10313415527344 46.96235275268555,163.45216369628906 46.55762481689453,162.2660369873047 L 47.98297882080078,162.2660369873047 L 47.98297882080078,160.00807189941406 L 46.628578186035156,160.00807189941406 C 46.92464065551758,159.2272186279297 47.43600845336914,158.598876953125 47.85321044921875,158.40481567382812 C 48.11161804199219,158.2390594482422 48.544647216796875,158.12722778320312 49.028282165527344,158.12722778320312 C 49.37511444091797,158.12722778320312 49.74797439575195,158.1847381591797 50.10111999511719,158.32110595703125 C 51.206233978271484,158.81504821777344 51.252281188964844,160.20901489257812 50.69972229003906,160.84947204589844 C 55.928096771240234,160.0959930419922 55.40902328491211,156.18203735351562 53.62995529174805,154.76296997070312 C 52.61933898925781,153.95799255371094 51.544803619384766,153.62930297851562 50.575653076171875,153.62930297851562 C 50.16389083862305,153.62930297851562 49.77115249633789,153.6886444091797 49.41041946411133,153.79598999023438 C 48.03390121459961,154.1793975830078 46.79475402832031,155.00848388671875 45.889278411865234,156.2176513671875 C 46.309329986572266,155.25807189941406 46.85962677001953,154.1420135498047 47.56018829345703,152.63644409179688 C 48.577396392822266,150.5852813720703 47.970420837402344,148.0485382080078 46.14949035644531,145.7127227783203 C 45.50065231323242,144.87551879882812 44.676002502441406,144.1220245361328 43.73832702636719,143.31411743164062 L 43.73833084106445,143.31411743164062 C 43.728919982910156,143.3065948486328 43.722049713134766,143.30245971679688 43.71543502807617,143.30245971679688 Z" style="fill: rgb(38, 64, 204); stroke-width: 1px; stroke: none;"/>
<path clip-path="url(#contour)" comment="counterchanged intersection #0 of clipped 'fleur-de-lis' CounterchangedBackground color 0 Color(red=0.15, green=0.25, blue=0.8) counter Color(red=0.85, green=0.85, blue=0.15)" d="M 43.71543502807617,143.30245971679688 C 43.70733642578125,143.30245971679688 43.69961929321289,143.3086700439453 43.68809509277344,143.32249450683594 C 42.754608154296875,144.13040161132812 41.9257698059082,144.87969970703125 41.27693176269531,145.7127227783203 C 39.45600128173828,148.0485382080078 38.84484100341797,150.5852813720703 39.866233825683594,152.63644409179688 C 40.61687469482422,154.24961853027344 41.19499206542969,155.41563415527344 41.62522888183594,156.4210968017578 C 40.70928192138672,155.10125732421875 39.40980911254883,154.20053100585938 37.9573974609375,153.79598999023438 C 37.5966682434082,153.6886444091797 37.20392990112305,153.62930297851562 36.79216766357422,153.62930297851562 C 35.82301712036133,153.62930297851562 34.74848175048828,153.95799255371094 33.73786544799805,154.76296997070312 C 31.95879554748535,156.18203735351562 31.43972396850586,160.0959930419922 36.668094635009766,160.84947204589844 C 36.11553955078125,160.20901489257812 36.16158676147461,158.81504821777344 37.266700744628906,158.32110595703125 C 37.61984634399414,158.1847381591797 37.992706298828125,158.12722778320312 38.33953857421875,158.12722778320312 C 38.82317352294922,158.12722778320312 39.256202697753906,158.2390594482422 39.51460647583008,158.40481567382812 C 39.93180847167969,158.598876953125 40.443180084228516,159.2272186279297 40.73924255371094,160.00807189941406 L 39.4476318359375,160.00807189941406 L 39.4476318359375,162.2660369873047 L 40.81019592285156,162.2660369873047 C 40.40546798706055,163.45216369628906 39.39824676513672,164.10313415527344 37.032283782958984,165.85598754882812 C 39.049957275390625,165.85598754882812 41.5113525390625,164.5541229248047 42.03042221069336,164.0811004638672 C 42.0705680847168,164.04537963867188 42.110572814941406,163.9945068359375 42.15019989013672,163.93118286132812 C 41.9912223815918,164.92178344726562 41.23163986206055,165.7086639404297 39.89134979248047,166.16575622558594 C 40.0696907043457,166.61566162109375 40.88773727416992,167.52081298828125 42.026283264160156,167.52081298828125 C 42.0635986328125,167.52081298828125 42.101261138916016,167.51983642578125 42.139259338378906,167.51783752441406 C 42.37367630004883,168.52249145507812 42.608097076416016,169.0834197998047 43.68809509277344,169.99598693847656 C 43.700653076171875,170.00645446777344 43.706932067871094,170.01168823242188 43.71321105957031,170.01168823242188 C 43.71949005126953,170.01168823242188 43.725772857666016,170.00645446777344 43.73833084106445,169.99598693847656 C 44.818328857421875,169.0834197998047 45.0527458190918,168.52249145507812 45.287166595458984,167.51783752441406 C 45.32516098022461,167.51983642578125 45.362823486328125,167.52081298828125 45.400142669677734,167.52081298828125 C 46.53868865966797,167.52081298828125 47.35673141479492,166.61566162109375 47.535072326660156,166.16575622558594 C 46.24379348754883,165.72537231445312 45.49152755737305,164.9788818359375 45.29607391357422,164.0390167236328 C 45.3098258972168,164.0547637939453 45.323604583740234,164.06883239746094 45.337398529052734,164.0811004638672 C 45.856468200683594,164.5541229248047 48.31786346435547,165.85598754882812 50.33553695678711,165.85598754882812 C 47.969573974609375,164.10313415527344 46.96235275268555,163.45216369628906 46.55762481689453,162.2660369873047 L 47.98297882080078,162.2660369873047 L 47.98297882080078,160.00807189941406 L 46.628578186035156,160.00807189941406 C 46.92464065551758,159.2272186279297 47.43600845336914,158.598876953125 47.85321044921875,158.40481567382812 C 48.11161804199219,158.2390594482422 48.544647216796875,158.12722778320312 49.028282165527344,158.12722778320312 C 49.37511444091797,158.12722778320312 49.74797439575195,158.1847381591797 50.10111999511719,158.32110595703125 C 51.206233978271484,158.81504821777344 51.252281188964844,160.20901489257812 50.69972229003906,160.84947204589844 C 55.928096771240234,160.0959930419922 55.40902328491211,156.18203735351562 53.62995529174805,154.76296997070312 C 52.61933898925781,153.95799255371094 51.544803619384766,153.62930297851562 50.575653076171875,153.62930297851562 C 50.16389083862305,153.62930297851562 49.77115249633789,153.6886444091797 49.41041946411133,153.79598999023438 C 48.03390121459961,154.1793975830078 46.79475402832031,155.00848388671875 45.889278411865234,156.2176513671875 C 46.309329986572266,155.25807189941406 46.85962677001953,154.1420135498047 47.56018829345703,152.63644409179688 C 48.577396392822266,150.5852813720703 47.970420837402344,148.0485382080078 46.14949035644531,145.7127227783203 C 45.50065231323242,144.87551879882812 44.676002502441406,144.1220245361328 43.73832702636719,143.31411743164062 L 43.73833084106445,143.31411743164062 C 43.728919982910156,143.3065948486328 43.722049713134766,143.30245971679688 43.71543502807617,143.30245971679688 Z" style="fill: rgb(217, 217, 38); stroke-width: 1px; stroke: none;"/>
<path clip-path="url(#contour)" comment="clipped 'fleur-de-lis' mobile debug reticle" d="M 35.63592529296875,143.15086364746094 L 30.209026336669922,148.57777404785156 L 30.209026336669922,170.15086364746094 L 51.06233215332031,170.15086364746094 L 57.20902633666992,164.00418090820312 L 57.20902633666992,143.15086364746094 L 35.63592529296875,143.15086364746094 Z" style="fill: none; stroke-width: 1px; stroke: rgb(0, 255, 255);"/>
<path clip-path="url(#contour)" comment="debug repeat reticle" d="M 28.70902646411313,141.6508684655243 L 58.70902646411313,141.6508684655243 L 58.70902646411313,171.6508684655243 L 28.70902646411313,171.6508684655243 L 28.70902646411313,141.6508684655243 Z" style="fill: none; stroke-width: 1px; stroke: rgb(255, 0, 255);"/>
<path clip-path="url(#contour)" comment="outer shield shape border" d="M 0.0,0.0 L 200.0,0.0 L 200.0,100.0 C 200.0,150.0 160.0,200.0 100.0,230.0 C 40.0,200.0 0.0,150.0 0.0,100.0 L 0.0,0.0 Z" style="fill: none; stroke-width: 1px; stroke: rgb(0, 0, 0);"/>
</g>
</svg>
