<?xml version="1.0" encoding="UTF-8" standalone="no"?>
<svg xmlns="http://www.w3.org/2000/svg" height="246.0" width="216.0">
<defs>
<clipPath id="contour">
<path d="M 8.0,8.0 L 208.0,8.0 L 208.0,108.0 C 208.0,158.0 168.0,208.0 108.0,238.0 C 48.0,208.0 8.0,158.0 8.0,108.0 L 8.0,8.0 Z"/>
</clipPath>
<radialGradient id="lighting">
<stop offset="25%" stop-color="white" stop-opacity="35%"/>
<stop offset="100%" stop-color="white" stop-opacity="0%"/>
</radialGradient>
</defs>
<g>
<path d="M 8.0,8.0 L 8.0,36.75 L 36.75,36.75 L 36.75,8.0 L 8.0,8.0 Z" style="fill: rgb(230, 230, 230); stroke-width: 1px; stroke: none;"/>
<path d="M 36.75,8.0 L 36.75,36.75 L 65.5,36.75 L 65.5,8.0 L 36.75,8.0 Z" style="fill: rgb(38, 38, 38); stroke-width: 1px; stroke: none;"/>
<path d="M 65.5,8.0 L 65.5,36.75 L 94.25,36.75 L 94.25,8.0 L 65.5,8.0 Z" style="fill: rgb(230, 230, 230); stroke-width: 1px; stroke: none;"/>
<path d="M 94.25,8.0 L 94.25,36.75 L 108.0,36.75 L 108.0,8.0 L 94.25,8.0 Z" style="fill: rgb(38, 38, 38); stroke-width: 1px; stroke: none;"/>
<path d="M 8.0,36.75 L 8.0,65.5 L 36.75,65.5 L 36.75,36.75 L 8.0,36.75 Z" style="fill: rgb(38, 38, 38); stroke-width: 1px; stroke: none;"/>
<path d="M 36.75,36.75 L 36.75,65.5 L 65.5,65.5 L 65.5,36.75 L 36.75,36.75 Z" style="fill: rgb(230, 230, 230); stroke-width: 1px; stroke: none;"/>
<path d="M 65.5,36.75 L 65.5,65.5 L 94.25,65.5 L 94.25,36.75 L 65.5,36.75 Z" style="fill: rgb(38, 38, 38); stroke-width: 1px; stroke: none;"/>
<path d="M 94.25,36.75 L 94.25,65.5 L 108.0,65.5 L 108.0,36.75 L 94.25,36.75 Z" style="fill: rgb(230, 230, 230); stroke-width: 1px; stroke: none;"/>
<path d="M 8.0,65.5 L 8.0,94.25 L 36.75,94.25 L 36.75,65.5 L 8.0,65.5 Z" style="fill: rgb(230, 230, 230); stroke-width: 1px; stroke: none;"/>
<path d="M 36.75,65.5 L 36.75,94.25 L 65.5,94.25 L 65.5,65.5 L 36.75,65.5 Z" style="fill: rgb(38, 38, 38); stroke-width: 1px; stroke: none;"/>
<path d="M 65.5,65.5 L 65.5,94.25 L 94.25,94.25 L 94.25,65.5 L 65.5,65.5 Z" style="fill: rgb(230, 230, 230); stroke-width: 1px; stroke: none;"/>
<path d="M 94.25,65.5 L 94.25,94.25 L 108.0,94.25 L 108.0,65.5 L 94.25,65.5 Z" style="fill: rgb(38, 38, 38); stroke-width: 1px; stroke: none;"/>
<path d="M 8.0,94.25 L 8.0,108.0 L 36.75,108.0 L 36.75,94.25 L 8.0,94.25 Z" style="fill: rgb(38, 38, 38); stroke-width: 1px; stroke: none;"/>
<path d="M 36.75,94.25 L 36.75,108.0 L 65.5,108.0 L 65.5,94.25 L 36.75,94.25 Z" style="fill: rgb(230, 230, 230); stroke-width: 1px; stroke: none;"/>
<path d="M 65.5,94.25 L 65.5,108.0 L 94.25,108.0 L 94.25,94.25 L 65.5,94.25 Z" style="fill: rgb(38, 38, 38); stroke-width: 1px; stroke: none;"/>
<path d="M 94.25,94.25 L 94.25,108.0 L 108.0,108.0 L 108.0,94.25 L 94.25,94.25 Z" style="fill: rgb(230, 230, 230); stroke-width: 1px; stroke: none;"/>
<path d="M 108.0,8.0 L 108.0,108.0 L 208.0,108.0 L 208.0,8.0 L 108.0,8.0 Z" style="fill: rgb(217, 38, 38); stroke-width: 1px; stroke: none;"/>
<path d="M 108.0,108.0 L 108.0,136.75 L 136.75,136.75 L 136.75,108.0 L 108.0,108.0 Z" style="fill: rgb(230, 230, 230); stroke-width: 1px; stroke: none;"/>
<path d="M 136.75,108.0 L 136.75,136.75 L 165.5,136.75 L 165.5,108.0 L 136.75,108.0 Z" style="fill: rgb(38, 38, 38); stroke-width: 1px; stroke: none;"/>
<path d="M 165.5,108.0 L 165.5,136.75 L 194.25,136.75 L 194.25,108.0 L 165.5,108.0 Z" style="fill: rgb(230, 230, 230); stroke-width: 1px; stroke: none;"/>
<path d="M 194.25,108.0 L 194.25,136.75 L 203.69065856933594,136.75 C 206.5159149169922,127.26195526123047 208.0,117.63097381591797 208.0,108.0 L 194.25,108.0 Z" style="fill: rgb(38, 38, 38); stroke-width: 1px; stroke: none;"/>
<path d="M 108.0,136.75 L 108.0,165.5 L 136.75,165.5 L 136.75,136.75 L 108.0,136.75 Z" style="fill: rgb(38, 38, 38); stroke-width: 1px; stroke: none;"/>
<path d="M 136.75,136.75 L 136.75,165.5 L 165.5,165.5 L 165.5,136.75 L 136.75,136.75 Z" style="fill: rgb(230, 230, 230); stroke-width: 1px; stroke: none;"/>
<path d="M 165.5,136.75 L 165.5,165.5 L 190.82241821289062,165.5 C 192.02366638183594,163.503662109375 193.1667022705078,161.4931640625 194.25,159.4700469970703 L 194.25,159.4700469970703 L 194.25,136.75 L 165.5,136.75 Z" style="fill: rgb(38, 38, 38); stroke-width: 1px; stroke: none;"/>
<path d="M 194.25,136.75 L 194.25,159.4700469970703 L 194.25,159.4700469970703 C 198.22772216796875,152.04144287109375 201.40000915527344,144.4427032470703 203.69065856933594,136.75 L 194.25,136.75 Z" style="fill: rgb(230, 230, 230); stroke-width: 1px; stroke: none;"/>
<path d="M 108.0,165.5 L 108.0,194.25 L 136.75,194.25 L 136.75,165.5 L 108.0,165.5 Z" style="fill: rgb(230, 230, 230); stroke-width: 1px; stroke: none;"/>
<path d="M 136.75,165.5 L 136.75,194.25 L 165.5,194.25 L 165.5,165.5 L 136.75,165.5 Z" style="fill: rgb(38, 38, 38); stroke-width: 1px; stroke: none;"/>
<path d="M 165.5,165.5 L 165.5,194.25 L 168.5742950439453,194.25 C 177.32261657714844,185.15121459960938 184.80319213867188,175.50335693359375 190.82241821289062,165.5 L 165.5,165.5 Z" style="fill: rgb(230, 230, 230); stroke-width: 1px; stroke: none;"/>
<path d="M 108.0,194.25 L 108.0,223.0 L 133.9095230102539,223.0 C 134.8637237548828,222.36419677734375 135.8105926513672,221.7229766845703 136.75,221.07647705078125 L 136.75,221.07647705078125 L 136.75,194.25 L 108.0,194.25 Z" style="fill: rgb(38, 38, 38); stroke-width: 1px; stroke: none;"/>
<path d="M 136.75,194.25 L 136.75,221.07647705078125 L 136.75,221.07647705078125 C 147.33389282226562,213.7926025390625 156.97145080566406,205.8372344970703 165.5,197.37307739257812 L 165.5,197.37307739257812 L 165.5,194.25 L 136.75,194.25 Z" style="fill: rgb(230, 230, 230); stroke-width: 1px; stroke: none;"/>
<path d="M 165.5,194.25 L 165.5,197.37307739257812 L 165.5,197.37307739257812 C 166.54139709472656,196.33953857421875 167.56626892089844,195.2984161376953 168.5742950439453,194.25 L 165.5,194.25 Z" style="fill: rgb(38, 38, 38); stroke-width: 1px; stroke: none;"/>
<path d="M 108.0,223.0 L 108.0,238.0 C 117.12224578857422,233.43887329101562 125.78218078613281,228.4154510498047 133.9095230102539,223.0 L 108.0,223.0 Z" style="fill: rgb(230, 230, 230); stroke-width: 1px; stroke: none;"/>
<path d="M 8.0,108.0 C 8.0,158.0 48.0,208.0 108.0,238.0 L 108.0,108.0 L 8.0,108.0 Z" style="fill: rgb(217, 38, 38); stroke-width: 1px; stroke: none;"/>
<path d="M 8.0,8.0 L 208.0,8.0 L 208.0,108.0 C 208.0,158.0 168.0,208.0 108.0,238.0 C 48.0,208.0 8.0,158.0 8.0,108.0 L 8.0,8.0 Z" style="fill: none; stroke-width: 1px; stroke: rgb(0, 0, 0);"/>
</g>
<rect clip-path="url(#contour)" fill="url(#lighting)" height="246.0" width="216.0" x="0.0" y="0.0"/>
</svg>
