<?xml version="1.0" encoding="UTF-8" standalone="no"?>
<svg xmlns="http://www.w3.org/2000/svg" height="246.0" width="216.0">
<defs>
<clipPath id="contour">
<path d="M 8.0,8.0 L 208.0,8.0 L 208.0,108.0 C 208.0,158.0 168.0,208.0 108.0,238.0 C 48.0,208.0 8.0,158.0 8.0,108.0 L 8.0,8.0 Z"/>
</clipPath>
<radialGradient id="lighting">
<stop offset="25%" stop-color="white" stop-opacity="35%"/>
<stop offset="100%" stop-color="white" stop-opacity="0%"/>
</radialGradient>
</defs>
<g transform="translate(8.0,8.0)">
<path d="M 0.0,0.0 L 0.0,100.0 L 100.0,100.0 L 100.0,0.0 L 0.0,0.0 Z" style="fill: rgb(230, 230, 230); stroke-width: 1px; stroke: none;"/>
<path d="M 68.34188079833984,0.0 C 63.84331512451172,1.8140233755111694 59.433963775634766,8.139445304870605 62.69230651855469,11.39778995513916 C 65.38461303710938,14.090097427368164 66.53845977783203,12.167020797729492 69.23076629638672,14.859328269958496 C 72.34237670898438,17.970932006835938 67.9019546508789,23.599876403808594 64.05580139160156,23.599876403808594 C 63.147850036621094,23.599876403808594 62.27301025390625,23.28618621826172 61.53845977783203,22.5516357421875 C 58.846153259277344,19.85932731628418 60.769229888916016,18.705482482910156 58.07692337036133,16.013174057006836 C 57.29091262817383,15.227165222167969 56.3264274597168,14.88735294342041 55.28984451293945,14.88735294342041 C 50.23969268798828,14.88735294342041 43.47831726074219,22.95302963256836 47.30769348144531,26.782405853271484 C 50.0,29.474712371826172 51.153846740722656,27.5516357421875 53.846153259277344,30.24394416809082 C 56.95775604248047,33.35554885864258 52.51734161376953,38.984493255615234 48.67118835449219,38.984493255615234 C 47.76323318481445,38.984493255615234 46.888397216796875,38.67080307006836 46.153846740722656,37.93625259399414 C 43.46154022216797,35.24394226074219 45.38461685180664,34.09009552001953 42.69230651855469,31.397789001464844 C 41.90629959106445,30.611780166625977 40.941810607910156,30.271968841552734 39.90522766113281,30.271968841552734 C 34.855079650878906,30.271968841552734 28.093700408935547,38.337646484375 31.923076629638672,42.16701889038086 C 34.61538314819336,44.85932922363281 35.769229888916016,42.93625259399414 38.46154022216797,45.62855911254883 C 41.573143005371094,48.74016189575195 37.13272476196289,54.36910629272461 33.28657150268555,54.36910629272461 C 32.37861633300781,54.36910629272461 31.503780364990234,54.055416107177734 30.769229888916016,53.320865631103516 C 28.076923370361328,50.62855911254883 30.0,49.47471237182617 27.30769157409668,46.782405853271484 C 26.521682739257812,45.996395111083984 25.55719566345215,45.65658187866211 24.520614624023438,45.65658187866211 C 19.470462799072266,45.65658187866211 12.709085464477539,53.722259521484375 16.538461685180664,57.5516357421875 C 19.230770111083984,60.24394226074219 20.384614944458008,58.320865631103516 23.076923370361328,61.01317596435547 C 26.188526153564453,64.1247787475586 21.748109817504883,69.75372314453125 17.90195655822754,69.75372314453125 C 16.994001388549805,69.75372314453125 16.119165420532227,69.44003295898438 15.384614944458008,68.70548248291016 C 12.692307472229004,66.01317596435547 14.615385055541992,64.85932922363281 11.923076629638672,62.16701889038086 C 11.137067794799805,61.381011962890625 10.17258071899414,61.04119873046875 9.135998725891113,61.04119873046875 C 4.085846900939941,61.04119873046875 -2.6755294799804688,69.10687255859375 1.1538461446762085,72.93624877929688 C 3.846153736114502,75.62855529785156 5.0,73.70548248291016 7.692307472229004,76.39778900146484 C 10.803911209106445,79.50939178466797 6.363494396209717,85.13833618164062 2.5173404216766357,85.13833618164062 C 1.6093865633010864,85.13833618164062 0.7345499992370605,84.82464599609375 2.425637874898536E-15,84.09009552001953 L 0.0,84.09009552001953 L 0.0,100.0 L 14.944994926452637,100.0 C 12.751253128051758,96.8216781616211 16.92129898071289,91.78473663330078 20.559581756591797,91.78473663330078 C 21.46753692626953,91.78473663330078 22.34237289428711,92.09842681884766 23.076923370361328,92.83297729492188 C 25.769229888916016,95.52528381347656 23.846153259277344,96.67913055419922 26.538461685180664,99.37144470214844 C 26.793882369995117,99.62686157226562 27.06814956665039,99.83516693115234 27.35761260986328,100.0 L 31.658119201660156,100.0 C 36.15668487548828,98.18597412109375 40.566036224365234,91.86055755615234 37.30769348144531,88.60221099853516 C 34.61538314819336,85.90990447998047 33.46154022216797,87.83297729492188 30.769229888916016,85.14067077636719 C 27.65762710571289,82.02906799316406 32.098045349121094,76.4001235961914 35.94419860839844,76.4001235961914 C 36.852149963378906,76.4001235961914 37.72698974609375,76.71381378173828 38.46154022216797,77.4483642578125 C 41.153846740722656,80.14067077636719 39.230770111083984,81.29451751708984 41.92307662963867,83.98682403564453 C 42.70908737182617,84.77283477783203 43.6735725402832,85.1126480102539 44.71015548706055,85.1126480102539 C 49.76030731201172,85.1126480102539 56.52168273925781,77.0469741821289 52.69230651855469,73.21759796142578 C 50.0,70.52528381347656 48.846153259277344,72.4483642578125 46.153846740722656,69.75605773925781 C 43.04224395751953,66.64445495605469 47.48265838623047,61.015506744384766 51.32881164550781,61.015506744384766 C 52.23676681518555,61.015506744384766 53.111602783203125,61.32919692993164 53.846153259277344,62.06374740600586 C 56.53845977783203,64.75605773925781 54.61538314819336,65.90990447998047 57.30769348144531,68.60221099853516 C 58.09370040893555,69.38822174072266 59.058189392089844,69.72803497314453 60.09477233886719,69.72803497314453 C 65.1449203491211,69.72803497314453 71.90629577636719,61.662353515625 68.07691955566406,57.83298110961914 C 65.38461303710938,55.14067077636719 64.23076629638672,57.06374740600586 61.53845977783203,54.37144088745117 C 58.426856994628906,51.25983810424805 62.86727523803711,45.63089370727539 66.71343231201172,45.63089370727539 C 67.62138366699219,45.63089370727539 68.4962158203125,45.944583892822266 69.23076629638672,46.679134368896484 C 71.92308044433594,49.37144088745117 70.0,50.52528762817383 72.69230651855469,53.217594146728516 C 73.47831726074219,54.003604888916016 74.44280242919922,54.34341812133789 75.47938537597656,54.34341812133789 C 80.529541015625,54.34341812133789 87.2909164428711,46.277740478515625 83.46154022216797,42.4483642578125 C 80.76923370361328,39.75605773925781 79.61538696289062,41.679134368896484 76.92308044433594,38.98682403564453 C 73.81147003173828,35.875221252441406 78.25189208984375,30.24627685546875 82.0980453491211,30.24627685546875 C 83.00599670410156,30.24627685546875 83.8808364868164,30.559967041015625 84.61538696289062,31.294517517089844 C 87.30769348144531,33.98682403564453 85.38461303710938,35.14067077636719 88.07691955566406,37.83298110961914 C 88.86293029785156,38.618988037109375 89.8274154663086,38.95880126953125 90.86399841308594,38.95880126953125 C 95.91415405273438,38.95880126953125 102.67552947998047,30.893123626708984 98.84615325927734,27.063749313354492 C 96.15384674072266,24.371440887451172 95.0,26.294517517089844 92.30769348144531,23.602210998535156 C 89.19609069824219,20.4906063079834 93.63650512695312,14.861661911010742 97.48265838623047,14.861661911010742 C 98.39060974121094,14.861661911010742 99.26544952392578,15.175352096557617 100.0,15.909902572631836 L 100.0,15.909902572631836 L 100.0,0.0 L 85.05500793457031,0.0 C 87.24874877929688,3.17832350730896 83.07869720458984,8.21526050567627 79.44041442871094,8.21526050567627 C 78.53246307373047,8.21526050567627 77.65762329101562,7.9015703201293945 76.92308044433594,7.167020320892334 C 74.23076629638672,4.47471284866333 76.15384674072266,3.320866584777832 73.46154022216797,0.6285589337348938 C 73.20611572265625,0.37313875555992126 72.93185424804688,0.16483594477176666 72.64238739013672,0.0 L 68.34188079833984,0.0 Z" style="fill: rgb(13, 38, 217); stroke-width: 1px; stroke: none;"/>
<path d="M 100.0,0.0 L 100.0,100.0 L 200.0,100.0 L 200.0,0.0 L 100.0,0.0 Z" style="fill: rgb(38, 38, 38); stroke-width: 1px; stroke: none;"/>
<path d="M 177.64230346679688,0.0 Q 176.92308044433594,1.6329048871994019 176.92308044433594,3.9850399494171143 Q 169.23077392578125,3.9850399494171143 169.23077392578125,11.677348136901855 Q 161.53846740722656,11.677348136901855 161.53846740722656,19.36965560913086 Q 153.84616088867188,19.36965560913086 153.84616088867188,27.061962127685547 Q 146.15383911132812,27.061962127685547 146.15383911132812,34.7542724609375 Q 138.46153259277344,34.7542724609375 138.46153259277344,42.44657897949219 Q 130.76922607421875,42.44657897949219 130.76922607421875,50.138885498046875 Q 123.07691955566406,50.138885498046875 123.07691955566406,57.83119201660156 Q 115.38461303710938,57.83119201660156 115.38461303710938,65.52349853515625 Q 107.69230651855469,65.52349853515625 107.69230651855469,73.21581268310547 Q 100.0,73.21581268310547 100.0,80.90811920166016 L 100.0,80.90811920166016 L 100.0,100.0 L 122.35769653320312,100.0 Q 123.07691955566406,98.36709594726562 123.07691955566406,96.01496124267578 Q 130.76922607421875,96.01496124267578 130.76922607421875,88.3226547241211 Q 138.46153259277344,88.3226547241211 138.46153259277344,80.6303482055664 Q 146.15383911132812,80.6303482055664 146.15383911132812,72.93803405761719 Q 153.84616088867188,72.93803405761719 153.84616088867188,65.2457275390625 Q 161.53846740722656,65.2457275390625 161.53846740722656,57.55342102050781 Q 169.23077392578125,57.55342102050781 169.23077392578125,49.861114501953125 Q 176.92308044433594,49.861114501953125 176.92308044433594,42.16880798339844 Q 184.61538696289062,42.16880798339844 184.61538696289062,34.476497650146484 Q 192.3076934814453,34.476497650146484 192.3076934814453,26.784191131591797 Q 199.99960327148438,26.784191131591797 200.0,19.092666625976562 L 200.0,19.092666625976562 L 200.0,0.0 L 177.64230346679688,0.0 Z" style="fill: rgb(217, 217, 38); stroke-width: 1px; stroke: none;"/>
<path d="M 100.0,100.0 L 100.0,230.0 C 160.0,200.0 200.0,150.0 200.0,100.0 L 100.0,100.0 Z" style="fill: rgb(230, 230, 230); stroke-width: 1px; stroke: none;"/>
<path d="M 177.16932678222656,100.0 Q 177.05882263183594,100.8087387084961 177.05882263183594,101.72797393798828 Q 177.05882263183594,109.37503051757812 169.41175842285156,109.37503051757812 Q 161.76470947265625,109.37503051757812 161.76470947265625,117.02208709716797 Q 161.76470947265625,124.66915130615234 154.11764526367188,124.66915130615234 Q 146.4705810546875,124.66915130615234 146.4705810546875,132.3162078857422 Q 146.4705810546875,139.96327209472656 138.8235321044922,139.96327209472656 Q 131.1764678955078,139.96327209472656 131.1764678955078,147.61032104492188 Q 131.1764678955078,155.25738525390625 123.52941131591797,155.25738525390625 Q 115.88235473632812,155.25738525390625 115.88235473632812,162.90444946289062 Q 115.88235473632812,170.55149841308594 108.23529052734375,170.55149841308594 Q 100.5882339477539,170.55149841308594 100.5882339477539,178.1985626220703 Q 100.5882339477539,180.31947326660156 100.0,181.85215759277344 L 100.0,181.85215759277344 L 100.0,220.63673400878906 L 99.99998474121094,220.63673400878906 Q 100.28822326660156,220.62496948242188 100.5882339477539,220.62496948242188 Q 108.23529052734375,220.62496948242188 108.23529052734375,212.9779052734375 Q 108.23529052734375,205.3308563232422 115.88235473632812,205.3308563232422 Q 123.52941131591797,205.3308563232422 123.52941131591797,197.6837921142578 Q 123.52941131591797,190.03672790527344 131.1764678955078,190.03672790527344 Q 138.8235321044922,190.03672790527344 138.8235321044922,182.38967895507812 Q 138.8235321044922,174.74261474609375 146.4705810546875,174.74261474609375 Q 154.11764526367188,174.74261474609375 154.11764526367188,167.09555053710938 Q 154.11764526367188,159.44850158691406 161.76470947265625,159.44850158691406 Q 169.41175842285156,159.44850158691406 169.41175842285156,151.8014373779297 Q 169.41175842285156,144.1543731689453 177.05882263183594,144.1543731689453 Q 184.7058868408203,144.1543731689453 184.7058868408203,136.50732421875 Q 184.7058868408203,128.86026000976562 192.35293579101562,128.86026000976562 Q 194.33999633789062,128.86026000976562 195.81072998046875,128.34393310546875 L 195.81072998046875,128.34393310546875 C 198.5579376220703,118.98722839355469 200.0,109.49361419677734 200.0,100.0 L 177.16932678222656,100.0 Z" style="fill: rgb(38, 217, 38); stroke-width: 1px; stroke: none;"/>
<path d="M 0.0,100.0 C 0.0,150.0 40.0,200.0 100.0,230.0 L 100.0,100.0 L 0.0,100.0 Z" style="fill: rgb(38, 38, 38); stroke-width: 1px; stroke: none;"/>
<path d="M 77.05882263183594,100.0 L 77.05882263183594,101.72797393798828 L 77.05882263183594,109.37503051757812 L 61.764705657958984,109.37503051757812 L 61.764705657958984,117.02208709716797 L 61.764705657958984,124.66915130615234 L 54.117645263671875,124.66915130615234 L 46.47058868408203,124.66915130615234 L 46.47058868408203,132.3162078857422 L 46.47058868408203,139.96327209472656 L 31.176469802856445,139.96327209472656 L 31.176469802856445,147.61032104492188 L 31.176469802856445,155.25738525390625 L 23.52941131591797,155.25738525390625 L 15.882352828979492,155.25738525390625 L 15.882352828979492,155.30288696289062 L 15.882352828979492,155.30288696289062 C 21.97738265991211,165.85987854003906 29.69915008544922,176.04054260253906 38.82352828979492,185.6207275390625 L 38.82352828979492,185.6207275390625 L 38.82352828979492,182.38967895507812 L 38.82352828979492,174.74261474609375 L 46.47058868408203,174.74261474609375 L 54.117645263671875,174.74261474609375 L 54.117645263671875,167.09555053710938 L 54.117645263671875,159.44850158691406 L 69.4117660522461,159.44850158691406 L 69.4117660522461,151.8014373779297 L 69.4117660522461,144.1543731689453 L 84.70587921142578,144.1543731689453 L 84.70587921142578,136.50732421875 L 84.70587921142578,128.86026000976562 L 92.35294342041016,128.86026000976562 L 100.0,128.86026000976562 L 100.0,100.0 L 77.05882263183594,100.0 Z" style="fill: rgb(217, 38, 38); stroke-width: 1px; stroke: none;"/>
<path d="M 0.0,0.0 L 200.0,0.0 L 200.0,100.0 C 200.0,150.0 160.0,200.0 100.0,230.0 C 40.0,200.0 0.0,150.0 0.0,100.0 L 0.0,0.0 Z" style="fill: none; stroke-width: 1px; stroke: rgb(0, 0, 0);"/>
</g>
<rect clip-path="url(#contour)" fill="url(#lighting)" height="246.0" width="216.0" x="0.0" y="0.0"/>
</svg>
