<?xml version="1.0" encoding="UTF-8" standalone="no"?>
<svg xmlns="http://www.w3.org/2000/svg" height="216.0" width="116.0">
<defs>
<clipPath id="contour">
<path d="M 0.0,0.0 L 100.0,0.0 L 100.0,200.0 L 50.0,160.0 L 0.0,200.0 L 0.0,0.0 Z"/>
</clipPath>
<radialGradient id="lighting">
<stop offset="25%" stop-color="white" stop-opacity="35%"/>
<stop offset="100%" stop-color="white" stop-opacity="0%"/>
</radialGradient>
</defs>
<g transform="translate(8.0,8.0)">
<path clip-path="url(#contour)" comment="FieldBackground" d="M 0.0,0.0 L 100.0,0.0 L 100.0,200.0 L 50.0,160.0 L 0.0,200.0 L 0.0,0.0 Z" style="fill: rgb(38, 38, 38); stroke-width: 1px; stroke: none;"/>
<path clip-path="url(#contour)" comment="Bend FieldBackground" d="M 0.0,0.0 L 0.0,10.60660171508789 L 100.0,110.60660552978516 L 100.0,89.39339447021484 L 10.60660171508789,0.0 L 0.0,0.0 Z" style="fill: rgb(230, 230, 230); stroke-width: 1px; stroke: none;"/>
<path clip-path="url(#contour)" comment="Bend sinister FieldBackground" d="M 89.39339447021484,0.0 L 0.0,89.39339447021484 L 0.0,110.60660552978516 L 1.4210854715202004E-14,110.60660552978516 L 100.0,10.60660171508789 L 100.0,0.0 L 89.39339447021484,0.0 Z" style="fill: rgb(230, 230, 230); stroke-width: 1px; stroke: none;"/>
<path clip-path="url(#contour)" comment="Cross FieldBackground" d="M 42.5,0.0 L 42.5,42.5 L 0.0,42.5 L 0.0,57.5 L 42.5,57.5 L 42.5,166.0 L 50.0,160.0 L 57.5,166.0 L 57.5,57.5 L 100.0,57.5 L 100.0,42.5 L 57.5,42.5 L 57.5,0.0 L 42.5,0.0 Z" style="fill: rgb(230, 230, 230); stroke-width: 1px; stroke: none;"/>
<path clip-path="url(#contour)" comment="outer shield shape border" d="M 0.0,0.0 L 100.0,0.0 L 100.0,200.0 L 50.0,160.0 L 0.0,200.0 L 0.0,0.0 Z" style="fill: none; stroke-width: 1px; stroke: rgb(0, 0, 0);"/>
</g>
</svg>
