<?xml version="1.0" encoding="UTF-8" standalone="no"?>
<svg xmlns="http://www.w3.org/2000/svg" height="246.0" width="216.0">
<defs>
<clipPath id="contour">
<path d="M 8.0,8.0 L 208.0,8.0 L 208.0,108.0 C 208.0,158.0 168.0,208.0 108.0,238.0 C 48.0,208.0 8.0,158.0 8.0,108.0 L 8.0,8.0 Z"/>
</clipPath>
<radialGradient id="lighting">
<stop offset="25%" stop-color="white" stop-opacity="35%"/>
<stop offset="100%" stop-color="white" stop-opacity="0%"/>
</radialGradient>
</defs>
<g>
<path d="M 8.0,8.0 L 208.0,8.0 L 208.0,108.0 C 208.0,158.0 168.0,208.0 108.0,238.0 C 48.0,208.0 8.0,158.0 8.0,108.0 L 8.0,8.0 Z" style="fill: rgb(217, 38, 38); stroke-width: 1px; stroke: none;"/>
<path d="M 8.0,8.0 L 8.0,29.21320343017578 L 86.78679656982422,108.0 L 26.74393081665039,168.04286193847656 L 26.74393081665039,168.04286193847656 C 31.953516006469727,176.3079833984375 38.161781311035156,184.31600952148438 45.25748062133789,191.95571899414062 L 45.25748062133789,191.95571899414062 L 108.0,129.21320343017578 L 170.74252319335938,191.95571899414062 L 170.74252319335938,191.95571899414062 C 177.8382110595703,184.31600952148438 184.04647827148438,176.3079833984375 189.25607299804688,168.04286193847656 L 189.25607299804688,168.04286193847656 L 129.21320343017578,108.0 L 208.0,29.21320343017578 L 208.0,8.0 L 186.7867889404297,8.0 L 108.0,86.78679656982422 L 29.21320343017578,8.0 L 8.0,8.0 Z" style="fill: rgb(230, 230, 230); stroke-width: 1px; stroke: none;"/>
<path d="M 8.127373829483986,18.626291275024414 L 8.127373829483986,18.626291275024414 C 8.127373829483986,18.626291275024414 8.127373829483986,18.626291275024414 8.127373829483986,18.626291275024414 C 8.127373769879341,18.626291275024414 8.127373695373535,18.626291275024414 8.12737362086773,18.62629222869873 L 8.127374097704887,18.62629222869873 L 8.127373829483986,18.626291275024414 L 8.127373829483986,18.626291275024414 L 8.127373829483986,18.626291275024414 Z" style="fill: rgb(38, 38, 38); stroke-width: 1px; stroke: none;"/>
<path d="M 8.0,8.0 L 8.0,18.498918533325195 L 7.999999999999999,18.498918533325195 L 8.127373829483986,18.626291275024414 L 8.127373829483986,18.626291275024414 C 8.492284893989563,18.156389236450195 10.211080312728882,15.950169086456299 11.225457668304443,14.773502826690674 L 15.349999904632568,18.715731620788574 C 15.349999904632568,18.715731620788574 12.980599403381348,13.795937538146973 11.079277276992798,8.0 L 8.127373829483986,18.626291275024414 Z" style="fill: rgb(38, 38, 38); stroke-width: 1px; stroke: none;"/>
<path d="M 32.504655838012695,11.291451930999756 C 32.208452224731445,12.091303825378418 31.914493560791016,12.852051734924316 31.63248062133789,13.559969425201416 L 31.63248062133789,13.559969425201416 L 33.414560317993164,15.342051029205322 L 34.12280082702637,14.750704288482666 C 34.93295097351074,15.772203922271729 35.98811149597168,17.583178520202637 36.42562484741211,18.353116035461426 L 36.69880294799805,18.626291275024414 L 36.69880294799805,18.626291275024414 C 36.88899612426758,18.381375312805176 37.44697952270508,17.664779663085938 38.081321716308594,16.868118286132812 L 38.081321716308594,16.868118286132812 L 32.504655838012695,11.291451930999756 L 32.504655838012695,11.291451930999756 Z" style="fill: rgb(38, 38, 38); stroke-width: 1px; stroke: none;"/>
<path d="M 36.69880294799805,18.626291275024414 C 36.69880294799805,18.626291275024414 36.69880294799805,18.626291275024414 36.69880294799805,18.62629222869873 L 36.69880294799805,18.62629222869873 L 36.69880294799805,18.626291275024414 L 32.504655838012695,11.291451930999756 Z" style="fill: rgb(38, 38, 38); stroke-width: 1px; stroke: none;"/>
<path d="M 179.55593872070312,18.626291275024414 C 179.55593872070312,18.626291275024414 179.55593872070312,18.626291275024414 179.55593872070312,18.62629222869873 L 179.55593872070312,18.62629222869873 L 179.55593872070312,18.626291275024414 L 179.55593872070312,18.626291275024414 Z" style="fill: rgb(38, 38, 38); stroke-width: 1px; stroke: none;"/>
<path d="M 183.61819458007812,11.16859221458435 L 178.22103881835938,16.565753936767578 L 178.22103881835938,16.565753936767578 C 178.6610565185547,17.27142906188965 179.05535888671875,17.95290756225586 179.28277587890625,18.353116035461426 L 179.55593872070312,18.626291275024414 L 179.55593872070312,18.626291275024414 C 179.9208526611328,18.156389236450195 181.6396484375,15.950169086456299 182.65402221679688,14.773502826690674 L 186.778564453125,18.715731620788574 C 186.778564453125,18.715731620788574 185.22100830078125,15.481622219085693 183.61819458007812,11.16859221458435 L 179.55593872070312,18.626291275024414 Z" style="fill: rgb(38, 38, 38); stroke-width: 1px; stroke: none;"/>
<path d="M 205.0797576904297,8.0 C 204.42242431640625,10.021596670150757 203.71009826660156,11.930702209472656 203.06105041503906,13.559969425201416 L 203.06105041503906,13.559969425201416 L 204.8431396484375,15.342051029205322 L 205.55137634277344,14.750704288482666 C 206.3615264892578,15.772203922271729 207.41668701171875,17.583178520202637 207.8542022705078,18.353116035461426 L 208.0,18.498918533325195 L 208.0,8.0 L 205.0797576904297,8.0 Z" style="fill: rgb(38, 38, 38); stroke-width: 1px; stroke: none;"/>
<path d="M 22.524399757385254,25.858585357666016 C 20.979771614074707,25.858585357666016 19.72614288330078,27.112205505371094 19.72614288330078,28.656850814819336 C 19.72614288330078,30.201492309570312 20.979771614074707,31.45511817932129 22.524399757385254,31.45511817932129 C 24.06905746459961,31.45511817932129 25.32268524169922,30.201492309570312 25.32268524169922,28.656850814819336 C 25.32268524169922,27.112205505371094 24.06905746459961,25.858585357666016 22.524399757385254,25.858585357666016 L 22.524399757385254,25.858585357666016 Z" style="fill: rgb(38, 38, 38); stroke-width: 1px; stroke: none;"/>
<path d="M 18.494914054870605,30.783536911010742 C 16.950257301330566,30.783536911010742 15.696629047393799,32.03715896606445 15.696629047393799,33.581804275512695 C 15.696629047393799,35.126447677612305 16.950257301330566,36.38007354736328 18.494914054870605,36.38007354736328 C 20.03954315185547,36.38007354736328 21.293171882629395,35.126447677612305 21.293171882629395,33.581804275512695 C 21.293171882629395,32.03715896606445 20.03954315185547,30.783536911010742 18.494914054870605,30.783536911010742 L 18.494914054870605,30.783536911010742 Z" style="fill: rgb(38, 38, 38); stroke-width: 1px; stroke: none;"/>
<path d="M 26.55391502380371,30.783536911010742 C 25.009286880493164,30.783536911010742 23.75565814971924,32.03715896606445 23.75565814971924,33.581804275512695 C 23.75565814971924,35.126447677612305 25.009286880493164,36.38007354736328 26.55391502380371,36.38007354736328 C 28.09857177734375,36.38007354736328 29.35219955444336,35.126447677612305 29.35219955444336,33.581804275512695 C 29.35219955444336,32.03715896606445 28.09857177734375,30.783536911010742 26.55391502380371,30.783536911010742 L 26.55391502380371,30.783536911010742 Z" style="fill: rgb(38, 38, 38); stroke-width: 1px; stroke: none;"/>
<path d="M 21.705657958984375,32.0982723236084 C 21.67672061920166,34.890939712524414 21.004612922668457,38.15679359436035 20.100656509399414,41.31386184692383 L 20.100656509399414,41.31386184692383 L 26.96866226196289,48.18186569213867 L 26.96866226196289,48.18186569213867 C 25.145370483398438,43.480403900146484 23.05300521850586,37.04003143310547 23.02734375,32.18942451477051 L 21.705657958984375,32.09827423095703 L 21.705657958984375,32.0982723236084 L 21.705657958984375,32.0982723236084 Z" style="fill: rgb(38, 38, 38); stroke-width: 1px; stroke: none;"/>
<path d="M 48.60136032104492,27.38815689086914 C 48.40712356567383,27.769044876098633 48.29757308959961,28.200231552124023 48.29757308959961,28.656850814819336 C 48.29757308959961,30.201492309570312 49.55120086669922,31.45511817932129 51.095829010009766,31.45511817932129 C 51.552452087402344,31.45511817932129 51.983642578125,31.34556770324707 52.364532470703125,31.151330947875977 L 52.364532470703125,31.151330947875977 L 48.60136032104492,27.38815689086914 L 48.60136032104492,27.38815689086914 Z" style="fill: rgb(38, 38, 38); stroke-width: 1px; stroke: none;"/>
<path d="M 47.066341400146484,30.783536911010742 C 45.52168655395508,30.783536911010742 44.26805877685547,32.03715896606445 44.26805877685547,33.581804275512695 C 44.26805877685547,35.126447677612305 45.52168655395508,36.38007354736328 47.066341400146484,36.38007354736328 C 48.6109733581543,36.38007354736328 49.864601135253906,35.126447677612305 49.864601135253906,33.581804275512695 C 49.864601135253906,32.03715896606445 48.6109733581543,30.783536911010742 47.066341400146484,30.783536911010742 L 47.066341400146484,30.783536911010742 Z" style="fill: rgb(38, 38, 38); stroke-width: 1px; stroke: none;"/>
<path d="M 52.98866271972656,31.775461196899414 C 52.57600021362305,32.26301383972168 52.32708740234375,32.893516540527344 52.32708740234375,33.581804275512695 C 52.32708740234375,35.126447677612305 53.58071517944336,36.38007354736328 55.125343322753906,36.38007354736328 C 55.813636779785156,36.38007354736328 56.44414520263672,36.13115882873535 56.93170166015625,35.718496322631836 L 56.93170166015625,35.718496322631836 L 52.98866271972656,31.775461196899414 L 52.98866271972656,31.775461196899414 Z" style="fill: rgb(38, 38, 38); stroke-width: 1px; stroke: none;"/>
<path d="M 50.98451614379883,54.340576171875 C 50.98451614379883,54.340576171875 50.98451614379883,54.340576171875 50.98451614379883,54.340576171875 L 50.98451614379883,54.340576171875 L 50.98451614379883,54.340576171875 L 50.98451614379883,54.340576171875 Z" style="fill: rgb(38, 38, 38); stroke-width: 1px; stroke: none;"/>
<path d="M 50.27708435058594,32.0982723236084 C 50.22161865234375,37.45124626159668 47.80307388305664,44.54276657104492 45.91819381713867,49.274253845214844 L 45.91819381713867,49.274253845214844 L 47.70027542114258,51.05633544921875 L 48.40851593017578,50.464988708496094 C 49.218666076660156,51.486488342285156 50.273826599121094,53.297462463378906 50.71133804321289,54.06740188598633 L 50.98451614379883,54.340576171875 L 50.98451614379883,54.340576171875 C 51.34942626953125,53.87067413330078 53.06822204589844,51.66445541381836 54.08259963989258,50.487789154052734 L 58.2071418762207,54.430015563964844 C 58.2071418762207,54.430015563964844 51.644344329833984,40.8031005859375 51.59877014160156,32.18942451477051 L 50.27708435058594,32.09827423095703 L 50.27708435058594,32.0982723236084 L 50.98451614379883,54.340576171875 Z" style="fill: rgb(38, 38, 38); stroke-width: 1px; stroke: none;"/>
<path d="M 142.81201171875,51.974788665771484 L 142.09881591796875,52.68797302246094 L 143.9214324951172,54.430015563964844 C 143.9214324951172,54.430015563964844 143.47401428222656,53.50100326538086 142.81201171875,51.974788665771484 L 142.81201171875,51.974788665771484 Z" style="fill: rgb(38, 38, 38); stroke-width: 1px; stroke: none;"/>
<path d="M 167.6986541748047,27.088138580322266 L 163.81285095214844,30.973947525024414 L 163.81285095214844,30.973947525024414 C 164.26036071777344,31.27763557434082 164.80035400390625,31.45511817932129 165.3815460205078,31.45511817932129 C 166.9261932373047,31.45511817932129 168.17982482910156,30.201492309570312 168.17982482910156,28.656850814819336 C 168.17982482910156,28.075651168823242 168.00234985351562,27.535654067993164 167.6986541748047,27.088138580322266 L 167.6986541748047,27.088138580322266 Z" style="fill: rgb(38, 38, 38); stroke-width: 1px; stroke: none;"/>
<path d="M 163.2555389404297,31.5312557220459 L 159.30149841308594,35.485294342041016 L 159.30149841308594,35.485294342041016 C 159.81260681152344,36.03559494018555 160.54234313964844,36.38007354736328 161.35205078125,36.38007354736328 C 162.8966827392578,36.38007354736328 164.1503143310547,35.126447677612305 164.1503143310547,33.581804275512695 C 164.1503143310547,32.7721004486084 163.8058319091797,32.04236602783203 163.2555389404297,31.5312557220459 L 163.2555389404297,31.5312557220459 Z" style="fill: rgb(38, 38, 38); stroke-width: 1px; stroke: none;"/>
<path d="M 169.4110565185547,30.783536911010742 C 167.86642456054688,30.783536911010742 166.61279296875,32.03715896606445 166.61279296875,33.581804275512695 C 166.61279296875,35.126447677612305 167.86642456054688,36.38007354736328 169.4110565185547,36.38007354736328 C 170.95571899414062,36.38007354736328 172.2093505859375,35.126447677612305 172.2093505859375,33.581804275512695 C 172.2093505859375,32.03715896606445 170.95571899414062,30.783536911010742 169.4110565185547,30.783536911010742 L 169.4110565185547,30.783536911010742 Z" style="fill: rgb(38, 38, 38); stroke-width: 1px; stroke: none;"/>
<path d="M 165.27023315429688,54.340576171875 C 165.27023315429688,54.340576171875 165.27023315429688,54.340576171875 165.27023315429688,54.340576171875 L 165.27023315429688,54.340576171875 L 165.27023315429688,54.340576171875 L 165.27023315429688,54.340576171875 Z" style="fill: rgb(38, 38, 38); stroke-width: 1px; stroke: none;"/>
<path d="M 164.56280517578125,32.0982723236084 C 164.50733947753906,37.45124626159668 162.0887908935547,44.54276657104492 160.2039031982422,49.274253845214844 L 160.2039031982422,49.274253845214844 L 161.98599243164062,51.05633544921875 L 162.69422912597656,50.464988708496094 C 163.50437927246094,51.486488342285156 164.55953979492188,53.297462463378906 164.99705505371094,54.06740188598633 L 165.27023315429688,54.340576171875 L 165.27023315429688,54.340576171875 C 165.63514709472656,53.87067413330078 167.35394287109375,51.66445541381836 168.36831665039062,50.487789154052734 L 172.49285888671875,54.430015563964844 C 172.49285888671875,54.430015563964844 165.9300537109375,40.8031005859375 165.88449096679688,32.18942451477051 L 164.56280517578125,32.09827423095703 L 164.56280517578125,32.0982723236084 L 165.27023315429688,54.340576171875 Z" style="fill: rgb(38, 38, 38); stroke-width: 1px; stroke: none;"/>
<path d="M 193.95297241210938,25.858585357666016 C 192.40834045410156,25.858585357666016 191.1547088623047,27.112205505371094 191.1547088623047,28.656850814819336 C 191.1547088623047,30.201492309570312 192.40834045410156,31.45511817932129 193.95297241210938,31.45511817932129 C 195.4976348876953,31.45511817932129 196.75125122070312,30.201492309570312 196.75125122070312,28.656850814819336 C 196.75125122070312,27.112205505371094 195.4976348876953,25.858585357666016 193.95297241210938,25.858585357666016 L 193.95297241210938,25.858585357666016 Z" style="fill: rgb(38, 38, 38); stroke-width: 1px; stroke: none;"/>
<path d="M 189.92349243164062,30.783536911010742 C 188.3788299560547,30.783536911010742 187.1251983642578,32.03715896606445 187.1251983642578,33.581804275512695 C 187.1251983642578,35.126447677612305 188.3788299560547,36.38007354736328 189.92349243164062,36.38007354736328 C 191.46810913085938,36.38007354736328 192.72174072265625,35.126447677612305 192.72174072265625,33.581804275512695 C 192.72174072265625,32.03715896606445 191.46810913085938,30.783536911010742 189.92349243164062,30.783536911010742 L 189.92349243164062,30.783536911010742 Z" style="fill: rgb(38, 38, 38); stroke-width: 1px; stroke: none;"/>
<path d="M 197.98248291015625,30.783536911010742 C 196.43785095214844,30.783536911010742 195.18423461914062,32.03715896606445 195.18423461914062,33.581804275512695 C 195.18423461914062,35.126447677612305 196.43785095214844,36.38007354736328 197.98248291015625,36.38007354736328 C 199.5271453857422,36.38007354736328 200.78077697753906,35.126447677612305 200.78077697753906,33.581804275512695 C 200.78077697753906,32.03715896606445 199.5271453857422,30.783536911010742 197.98248291015625,30.783536911010742 L 197.98248291015625,30.783536911010742 Z" style="fill: rgb(38, 38, 38); stroke-width: 1px; stroke: none;"/>
<path d="M 193.1342315673828,32.0982723236084 C 193.08389282226562,36.955801010131836 191.08767700195312,43.24494552612305 189.31011962890625,47.90308380126953 L 189.31011962890625,47.90308380126953 L 196.01766967773438,41.195533752441406 L 196.01766967773438,41.195533752441406 C 195.12518310546875,38.08369255065918 194.47019958496094,34.8901424407959 194.45591735839844,32.18942451477051 L 193.1342315673828,32.09827423095703 L 193.1342315673828,32.0982723236084 L 193.1342315673828,32.0982723236084 Z" style="fill: rgb(38, 38, 38); stroke-width: 1px; stroke: none;"/>
<path d="M 65.38154220581055,61.572872161865234 C 63.8369140625,61.572872161865234 62.58328628540039,62.82649230957031 62.58328628540039,64.37113571166992 C 62.58328628540039,65.91577911376953 63.8369140625,67.16940307617188 65.38154220581055,67.16940307617188 C 66.92620086669922,67.16940307617188 68.17982864379883,65.91577911376953 68.17982864379883,64.37113571166992 C 68.17982864379883,62.82649230957031 66.92620086669922,61.572872161865234 65.38154220581055,61.572872161865234 L 65.38154220581055,61.572872161865234 Z" style="fill: rgb(38, 38, 38); stroke-width: 1px; stroke: none;"/>
<path d="M 61.35205841064453,66.49782180786133 C 59.80739974975586,66.49782180786133 58.55377197265625,67.75144577026367 58.55377197265625,69.29608917236328 C 58.55377197265625,70.84073257446289 59.80739974975586,72.0943603515625 61.35205841064453,72.0943603515625 C 62.89668655395508,72.0943603515625 64.15031433105469,70.84073257446289 64.15031433105469,69.29608917236328 C 64.15031433105469,67.75144577026367 62.89668655395508,66.49782180786133 61.35205841064453,66.49782180786133 L 61.35205841064453,66.49782180786133 Z" style="fill: rgb(38, 38, 38); stroke-width: 1px; stroke: none;"/>
<path d="M 69.41105651855469,66.49782180786133 C 67.86642837524414,66.49782180786133 66.61280059814453,67.75144577026367 66.61280059814453,69.29608917236328 C 66.61280059814453,70.84073257446289 67.86642837524414,72.0943603515625 69.41105651855469,72.0943603515625 C 70.95571517944336,72.0943603515625 72.20934295654297,70.84073257446289 72.20934295654297,69.29608917236328 C 72.20934295654297,67.75144577026367 70.95571517944336,66.49782180786133 69.41105651855469,66.49782180786133 L 69.41105651855469,66.49782180786133 Z" style="fill: rgb(38, 38, 38); stroke-width: 1px; stroke: none;"/>
<path d="M 64.56280136108398,67.81255722045898 C 64.51671600341797,72.26021575927734 62.839263916015625,77.90808868408203 61.19202423095703,82.40522766113281 L 61.19202423095703,82.40522766113281 L 66.84391021728516,88.05711364746094 L 66.84391021728516,88.05711364746094 C 67.37364959716797,87.39459991455078 67.93519592285156,86.7044906616211 68.36831665039062,86.20207214355469 L 72.49285888671875,90.14430236816406 C 72.49285888671875,90.14430236816406 65.93005752563477,76.51738739013672 65.88448715209961,67.9037094116211 L 64.56280136108398,67.81256103515625 L 64.56280136108398,67.81255722045898 L 64.56280136108398,67.81255722045898 Z" style="fill: rgb(38, 38, 38); stroke-width: 1px; stroke: none;"/>
<path d="M 88.25965881347656,67.04645919799805 C 87.57151794433594,67.55640411376953 87.12519836425781,68.37444305419922 87.12519836425781,69.29608917236328 C 87.12519836425781,70.84073257446289 88.37882995605469,72.0943603515625 89.9234848022461,72.0943603515625 C 90.84512329101562,72.0943603515625 91.66316223144531,71.64804458618164 92.17310333251953,70.95990371704102 L 92.17310333251953,70.95990371704102 L 88.25965881347656,67.04645919799805 L 88.25965881347656,67.04645919799805 Z" style="fill: rgb(38, 38, 38); stroke-width: 1px; stroke: none;"/>
<path d="M 93.84165954589844,90.05486297607422 C 93.84165954589844,90.05486297607422 93.84165954589844,90.05486297607422 93.84165954589844,90.05486297607422 L 93.84165954589844,90.05486297607422 L 93.84165954589844,90.05486297607422 L 93.84165954589844,90.05486297607422 Z" style="fill: rgb(38, 38, 38); stroke-width: 1px; stroke: none;"/>
<path d="M 92.78286743164062,71.56966400146484 C 92.03645324707031,76.18292999267578 90.24391174316406,81.30207061767578 88.77533721923828,84.98854064941406 L 88.77533721923828,84.98854064941406 L 90.55741882324219,86.77062225341797 L 91.26565551757812,86.17927551269531 C 92.0758056640625,87.20077514648438 93.13096618652344,89.01174926757812 93.5684814453125,89.78168487548828 L 93.84165954589844,90.05486297607422 L 93.84165954589844,90.05486297607422 C 94.20657348632812,89.5849609375 95.92536926269531,87.37873840332031 96.93974304199219,86.20207214355469 L 101.06428527832031,90.14430236816406 C 101.06428527832031,90.14430236816406 97.05432891845703,81.81807708740234 95.28160095214844,74.06839752197266 L 95.28160095214844,74.06839752197266 L 92.78286743164062,71.56966400146484 L 93.84165954589844,90.05486297607422 Z" style="fill: rgb(38, 38, 38); stroke-width: 1px; stroke: none;"/>
<path d="M 127.92835998535156,66.85843276977539 L 124.11626434326172,70.67052841186523 L 124.11626434326172,70.67052841186523 C 124.59671783447266,71.52032852172852 125.50869750976562,72.0943603515625 126.55391693115234,72.0943603515625 C 128.09857177734375,72.0943603515625 129.35220336914062,70.84073257446289 129.35220336914062,69.29608917236328 C 129.35220336914062,68.25085830688477 128.77816772460938,67.33888626098633 127.92835998535156,66.85843276977539 L 127.92835998535156,66.85843276977539 Z" style="fill: rgb(38, 38, 38); stroke-width: 1px; stroke: none;"/>
<path d="M 122.4130859375,90.05486297607422 C 122.4130859375,90.05486297607422 122.4130859375,90.05486297607422 122.4130859375,90.05486297607422 L 122.4130859375,90.05486297607422 L 122.4130859375,90.05486297607422 L 122.4130859375,90.05486297607422 Z" style="fill: rgb(38, 38, 38); stroke-width: 1px; stroke: none;"/>
<path d="M 123.34186553955078,71.4449348449707 L 120.90684509277344,73.87995147705078 L 120.90684509277344,73.87995147705078 C 120.026611328125,77.82918548583984 118.57363891601562,81.90880584716797 117.34676361083984,84.98854064941406 L 117.34676361083984,84.98854064941406 L 119.12884521484375,86.77062225341797 L 119.83708953857422,86.17927551269531 C 120.6472396850586,87.20077514648438 121.70240020751953,89.01174926757812 122.13990783691406,89.78168487548828 L 122.4130859375,90.05486297607422 L 122.4130859375,90.05486297607422 C 122.77799987792969,89.5849609375 124.49679565429688,87.37873840332031 125.51116943359375,86.20207214355469 L 129.63571166992188,90.14430236816406 C 129.63571166992188,90.14430236816406 124.65589904785156,79.80427551269531 123.34186553955078,71.4449348449707 L 122.4130859375,90.05486297607422 Z" style="fill: rgb(38, 38, 38); stroke-width: 1px; stroke: none;"/>
<path d="M 151.0958251953125,61.572872161865234 C 149.5511932373047,61.572872161865234 148.29757690429688,62.82649230957031 148.29757690429688,64.37113571166992 C 148.29757690429688,65.91577911376953 149.5511932373047,67.16940307617188 151.0958251953125,67.16940307617188 C 152.64048767089844,67.16940307617188 153.8941192626953,65.91577911376953 153.8941192626953,64.37113571166992 C 153.8941192626953,62.82649230957031 152.64048767089844,61.572872161865234 151.0958251953125,61.572872161865234 L 151.0958251953125,61.572872161865234 Z" style="fill: rgb(38, 38, 38); stroke-width: 1px; stroke: none;"/>
<path d="M 147.06634521484375,66.49782180786133 C 145.5216827392578,66.49782180786133 144.26805114746094,67.75144577026367 144.26805114746094,69.29608917236328 C 144.26805114746094,70.84073257446289 145.5216827392578,72.0943603515625 147.06634521484375,72.0943603515625 C 148.61097717285156,72.0943603515625 149.86459350585938,70.84073257446289 149.86459350585938,69.29608917236328 C 149.86459350585938,67.75144577026367 148.61097717285156,66.49782180786133 147.06634521484375,66.49782180786133 L 147.06634521484375,66.49782180786133 Z" style="fill: rgb(38, 38, 38); stroke-width: 1px; stroke: none;"/>
<path d="M 155.12533569335938,66.49782180786133 C 153.58071899414062,66.49782180786133 152.32708740234375,67.75144577026367 152.32708740234375,69.29608917236328 C 152.32708740234375,70.84073257446289 153.58071899414062,72.0943603515625 155.12533569335938,72.0943603515625 C 156.6699981689453,72.0943603515625 157.9236297607422,70.84073257446289 157.9236297607422,69.29608917236328 C 157.9236297607422,67.75144577026367 156.6699981689453,66.49782180786133 155.12533569335938,66.49782180786133 L 155.12533569335938,66.49782180786133 Z" style="fill: rgb(38, 38, 38); stroke-width: 1px; stroke: none;"/>
<path d="M 150.27708435058594,67.81255722045898 C 150.22161865234375,73.16553497314453 147.80307006835938,80.25704956054688 145.91819763183594,84.98854064941406 L 145.91819763183594,84.98854064941406 L 147.7002716064453,86.77062225341797 L 148.40850830078125,86.17927551269531 C 148.74508666992188,86.6036605834961 149.12396240234375,87.16429901123047 149.48326110839844,87.72994995117188 L 149.48324584960938,87.72994995117188 L 154.93052673339844,82.28266906738281 L 154.93052673339844,82.28266906738281 C 153.28067016601562,77.7943115234375 151.62161254882812,72.21968841552734 151.59877014160156,67.9037094116211 L 150.27708435058594,67.81256103515625 L 150.27708435058594,67.81255722045898 L 150.27708435058594,67.81255722045898 Z" style="fill: rgb(38, 38, 38); stroke-width: 1px; stroke: none;"/>
<path d="M 79.6672592163086,97.28715515136719 C 78.6917724609375,97.28715515136719 77.83235168457031,97.78713989257812 77.33145141601562,98.5446548461914 L 77.33145141601562,98.5446548461914 L 81.2080307006836,102.42123413085938 L 81.2080307006836,102.42123413085938 C 81.9655532836914,101.92033386230469 82.46554565429688,101.0609130859375 82.46554565429688,100.08541870117188 C 82.46554565429688,98.54077911376953 81.2119140625,97.28715515136719 79.6672592163086,97.28715515136719 L 79.6672592163086,97.28715515136719 Z" style="fill: rgb(38, 38, 38); stroke-width: 1px; stroke: none;"/>
<path d="M 83.69676971435547,102.21210479736328 C 82.9499740600586,102.21210479736328 82.27119445800781,102.5051498413086 81.76923370361328,102.98243713378906 L 81.76923370361328,102.98243713378906 L 85.72472381591797,106.93792724609375 L 85.72472381591797,106.93792724609375 C 86.20201873779297,106.43595886230469 86.49505615234375,105.7571792602539 86.49505615234375,105.0103759765625 C 86.49505615234375,103.46572875976562 85.2414321899414,102.21210479736328 83.69676971435547,102.21210479736328 L 83.69676971435547,102.21210479736328 Z" style="fill: rgb(38, 38, 38); stroke-width: 1px; stroke: none;"/>
<path d="M 79.55594635009766,125.76914978027344 C 79.55594635009766,125.76914978027344 79.55594635009766,125.76914978027344 79.55594635009766,125.76914978027344 L 79.55594635009766,125.76914978027344 L 79.55594635009766,125.76914978027344 L 79.55594635009766,125.76914978027344 Z" style="fill: rgb(38, 38, 38); stroke-width: 1px; stroke: none;"/>
<path d="M 81.82872772216797,112.95806884765625 L 74.75370025634766,120.03309631347656 L 74.75370025634766,120.03309631347656 C 74.66472625732422,120.26109313964844 74.57660675048828,120.4844741821289 74.4896240234375,120.70282745361328 L 74.4896240234375,120.70282745361328 L 76.2717056274414,122.48490905761719 L 76.97994232177734,121.89356231689453 C 77.79009246826172,122.9150619506836 78.84525299072266,124.72603607177734 79.28276824951172,125.4959716796875 L 79.55594635009766,125.76914978027344 L 79.55594635009766,125.76914978027344 C 79.92085266113281,125.29924774169922 81.6396484375,123.09302520751953 82.6540298461914,121.9163589477539 L 86.77857208251953,125.85858917236328 C 86.77857208251953,125.85858917236328 83.78632354736328,119.64551544189453 81.82872772216797,112.95806884765625 L 79.55594635009766,125.76914978027344 Z" style="fill: rgb(38, 38, 38); stroke-width: 1px; stroke: none;"/>
<path d="M 108.23868560791016,97.28715515136719 C 106.69405364990234,97.28715515136719 105.4404296875,98.54077911376953 105.4404296875,100.08541870117188 C 105.4404296875,101.63006591796875 106.69405364990234,102.8836898803711 108.23868560791016,102.8836898803711 C 109.78334045410156,102.8836898803711 111.03697204589844,101.63006591796875 111.03697204589844,100.08541870117188 C 111.03697204589844,98.54077911376953 109.78334045410156,97.28715515136719 108.23868560791016,97.28715515136719 L 108.23868560791016,97.28715515136719 Z" style="fill: rgb(38, 38, 38); stroke-width: 1px; stroke: none;"/>
<path d="M 104.20919799804688,102.21210479736328 C 102.66454315185547,102.21210479736328 101.4109115600586,103.46572875976562 101.4109115600586,105.0103759765625 C 101.4109115600586,106.55501556396484 102.66454315185547,107.80864715576172 104.20919799804688,107.80864715576172 C 105.75382995605469,107.80864715576172 107.00745391845703,106.55501556396484 107.00745391845703,105.0103759765625 C 107.00745391845703,103.46572875976562 105.75382995605469,102.21210479736328 104.20919799804688,102.21210479736328 L 104.20919799804688,102.21210479736328 Z" style="fill: rgb(38, 38, 38); stroke-width: 1px; stroke: none;"/>
<path d="M 112.26820373535156,102.21210479736328 C 110.72357177734375,102.21210479736328 109.46994018554688,103.46572875976562 109.46994018554688,105.0103759765625 C 109.46994018554688,106.55501556396484 110.72357177734375,107.80864715576172 112.26820373535156,107.80864715576172 C 113.81285858154297,107.80864715576172 115.06648254394531,106.55501556396484 115.06648254394531,105.0103759765625 C 115.06648254394531,103.46572875976562 113.81285858154297,102.21210479736328 112.26820373535156,102.21210479736328 L 112.26820373535156,102.21210479736328 Z" style="fill: rgb(38, 38, 38); stroke-width: 1px; stroke: none;"/>
<path d="M 108.12737274169922,125.76914978027344 C 108.12737274169922,125.76914978027344 108.12737274169922,125.76914978027344 108.12737274169922,125.76914978027344 L 108.12737274169922,125.76914978027344 L 108.12737274169922,125.76914978027344 L 108.12737274169922,125.76914978027344 Z" style="fill: rgb(38, 38, 38); stroke-width: 1px; stroke: none;"/>
<path d="M 107.4199447631836,103.52684783935547 C 107.3644790649414,108.87982177734375 104.94593048095703,115.9713363647461 103.06105041503906,120.70282745361328 L 103.06105041503906,120.70282745361328 L 104.84313201904297,122.48490905761719 L 105.5513687133789,121.89356231689453 C 106.36151885986328,122.9150619506836 107.41668701171875,124.72603607177734 107.85419464111328,125.4959716796875 L 108.12737274169922,125.76914978027344 L 108.12737274169922,125.76914978027344 C 108.4922866821289,125.29924774169922 110.2110824584961,123.09302520751953 111.22545623779297,121.9163589477539 L 115.3499984741211,125.85858917236328 C 115.3499984741211,125.85858917236328 108.78720092773438,112.23167419433594 108.74163055419922,103.61799621582031 L 107.4199447631836,103.52684783935547 L 107.4199447631836,103.52684783935547 L 108.12737274169922,125.76914978027344 Z" style="fill: rgb(38, 38, 38); stroke-width: 1px; stroke: none;"/>
<path d="M 136.81011962890625,97.28715515136719 C 135.26548767089844,97.28715515136719 134.01185607910156,98.54077911376953 134.01185607910156,100.08541870117188 C 134.01185607910156,100.93854522705078 134.39427185058594,101.70288848876953 134.99691772460938,102.2162857055664 L 134.99691772460938,102.2162857055664 L 138.9409942626953,98.272216796875 L 138.9409942626953,98.272216796875 C 138.42759704589844,97.66957092285156 137.66323852539062,97.28715515136719 136.81011962890625,97.28715515136719 L 136.81011962890625,97.28715515136719 Z" style="fill: rgb(38, 38, 38); stroke-width: 1px; stroke: none;"/>
<path d="M 132.78063201904297,102.21210479736328 C 131.23596954345703,102.21210479736328 129.9823455810547,103.46572875976562 129.9823455810547,105.0103759765625 C 129.9823455810547,105.63542938232422 130.1876220703125,106.21283721923828 130.53440856933594,106.67879486083984 L 130.53440856933594,106.67879486083984 L 134.44903564453125,102.76416778564453 L 134.44903564453125,102.76416778564453 C 133.9830780029297,102.41738891601562 133.40567779541016,102.21210479736328 132.78063201904297,102.21210479736328 L 132.78063201904297,102.21210479736328 Z" style="fill: rgb(38, 38, 38); stroke-width: 1px; stroke: none;"/>
<path d="M 136.6988067626953,125.76914978027344 C 136.6988067626953,125.76914978027344 136.6988067626953,125.76914978027344 136.6988067626953,125.76914978027344 L 136.6988067626953,125.76914978027344 L 136.6988067626953,125.76914978027344 L 136.6988067626953,125.76914978027344 Z" style="fill: rgb(38, 38, 38); stroke-width: 1px; stroke: none;"/>
<path d="M 134.28973388671875,113.07653045654297 L 134.28973388671875,113.07653045654297 C 133.47893524169922,115.85199737548828 132.49927520751953,118.52696228027344 131.63247680664062,120.70282745361328 L 131.63248443603516,120.70282745361328 L 133.41455841064453,122.48490905761719 L 134.122802734375,121.89356231689453 C 134.93295288085938,122.9150619506836 135.9881134033203,124.72603607177734 136.42562866210938,125.4959716796875 L 136.6988067626953,125.76914978027344 L 136.6988067626953,125.76914978027344 C 137.063720703125,125.29924774169922 138.78250122070312,123.09302520751953 139.79689025878906,121.9163589477539 L 143.9214324951172,125.85858917236328 C 143.9214324951172,125.85858917236328 142.82887268066406,123.59001922607422 141.5322265625,120.31902313232422 L 141.5322265625,120.31902313232422 L 134.28973388671875,113.07653045654297 L 136.6988067626953,125.76914978027344 Z" style="fill: rgb(38, 38, 38); stroke-width: 1px; stroke: none;"/>
<path d="M 36.69880294799805,161.48342895507812 C 36.69880294799805,161.48342895507812 36.69880294799805,161.48342895507812 36.69880294799805,161.48342895507812 L 36.69880294799805,161.48342895507812 L 36.69880294799805,161.48342895507812 L 36.69880294799805,161.48342895507812 Z" style="fill: rgb(38, 38, 38); stroke-width: 1px; stroke: none;"/>
<path d="M 40.76105499267578,154.02574157714844 L 35.36389350891113,159.4228973388672 L 35.36389350891113,159.4228973388672 C 35.80391502380371,160.12857055664062 36.19820976257324,160.81005859375 36.42562484741211,161.21026611328125 L 36.69880294799805,161.48342895507812 L 36.69880294799805,161.48342895507812 C 37.06371307373047,161.01353454589844 38.782508850097656,158.80731201171875 39.7968864440918,157.63064575195312 L 43.92142868041992,161.5728759765625 C 43.92142868041992,161.5728759765625 42.36386489868164,158.33876037597656 40.76105499267578,154.02574157714844 L 36.69880294799805,161.48342895507812 Z" style="fill: rgb(38, 38, 38); stroke-width: 1px; stroke: none;"/>
<path d="M 65.38154220581055,133.0014419555664 C 63.8369140625,133.0014419555664 62.58328628540039,134.25505828857422 62.58328628540039,135.7997055053711 C 62.58328628540039,137.34434509277344 63.8369140625,138.5979766845703 65.38154220581055,138.5979766845703 C 66.92620086669922,138.5979766845703 68.17982864379883,137.34434509277344 68.17982864379883,135.7997055053711 C 68.17982864379883,134.25505828857422 66.92620086669922,133.0014419555664 65.38154220581055,133.0014419555664 L 65.38154220581055,133.0014419555664 Z" style="fill: rgb(38, 38, 38); stroke-width: 1px; stroke: none;"/>
<path d="M 61.35205841064453,137.9263916015625 C 59.80739974975586,137.9263916015625 58.55377197265625,139.18002319335938 58.55377197265625,140.7246551513672 C 58.55377197265625,142.26930236816406 59.80739974975586,143.52293395996094 61.35205841064453,143.52293395996094 C 62.89668655395508,143.52293395996094 64.15031433105469,142.26930236816406 64.15031433105469,140.7246551513672 C 64.15031433105469,139.18002319335938 62.89668655395508,137.9263916015625 61.35205841064453,137.9263916015625 L 61.35205841064453,137.9263916015625 Z" style="fill: rgb(38, 38, 38); stroke-width: 1px; stroke: none;"/>
<path d="M 69.41105651855469,137.9263916015625 C 67.86642837524414,137.9263916015625 66.61280059814453,139.18002319335938 66.61280059814453,140.7246551513672 C 66.61280059814453,142.26930236816406 67.86642837524414,143.52293395996094 69.41105651855469,143.52293395996094 C 70.95571517944336,143.52293395996094 72.20934295654297,142.26930236816406 72.20934295654297,140.7246551513672 C 72.20934295654297,139.18002319335938 70.95571517944336,137.9263916015625 69.41105651855469,137.9263916015625 L 69.41105651855469,137.9263916015625 Z" style="fill: rgb(38, 38, 38); stroke-width: 1px; stroke: none;"/>
<path d="M 65.27022933959961,161.48342895507812 C 65.27022933959961,161.48342895507812 65.27022933959961,161.48342895507812 65.27022933959961,161.48342895507812 L 65.27023315429688,161.48342895507812 L 65.27022933959961,161.48342895507812 L 65.27022933959961,161.48342895507812 Z" style="fill: rgb(38, 38, 38); stroke-width: 1px; stroke: none;"/>
<path d="M 64.56280136108398,139.2411346435547 C 64.50733184814453,144.59410095214844 62.08878707885742,151.6856231689453 60.20391082763672,156.4171142578125 L 60.20391082763672,156.4171142578125 L 61.98598861694336,158.19918823242188 L 62.69422912597656,157.60784912109375 C 63.50437927246094,158.6293487548828 64.55953979492188,160.44032287597656 64.99705505371094,161.21026611328125 L 65.27022933959961,161.48342895507812 L 65.27022933959961,161.48342895507812 C 65.6351432800293,161.01353454589844 67.35393905639648,158.80731201171875 68.36831665039062,157.63064575195312 L 72.49285888671875,161.5728759765625 C 72.49285888671875,161.5728759765625 65.93005752563477,147.94595336914062 65.88448715209961,139.332275390625 L 64.56280136108398,139.2411346435547 L 64.56280136108398,139.2411346435547 L 65.27022933959961,161.48342895507812 Z" style="fill: rgb(38, 38, 38); stroke-width: 1px; stroke: none;"/>
<path d="M 93.95297241210938,133.0014419555664 C 92.40834045410156,133.0014419555664 91.15471649169922,134.25505828857422 91.15471649169922,135.7997055053711 C 91.15471649169922,137.34434509277344 92.40834045410156,138.5979766845703 93.95297241210938,138.5979766845703 C 95.49762725830078,138.5979766845703 96.75125885009766,137.34434509277344 96.75125885009766,135.7997055053711 C 96.75125885009766,134.25505828857422 95.49762725830078,133.0014419555664 93.95297241210938,133.0014419555664 L 93.95297241210938,133.0014419555664 Z" style="fill: rgb(38, 38, 38); stroke-width: 1px; stroke: none;"/>
<path d="M 89.9234848022461,137.9263916015625 C 88.37882995605469,137.9263916015625 87.12519836425781,139.18002319335938 87.12519836425781,140.7246551513672 C 87.12519836425781,142.26930236816406 88.37882995605469,143.52293395996094 89.9234848022461,143.52293395996094 C 91.4681167602539,143.52293395996094 92.72174072265625,142.26930236816406 92.72174072265625,140.7246551513672 C 92.72174072265625,139.18002319335938 91.4681167602539,137.9263916015625 89.9234848022461,137.9263916015625 L 89.9234848022461,137.9263916015625 Z" style="fill: rgb(38, 38, 38); stroke-width: 1px; stroke: none;"/>
<path d="M 97.98248291015625,137.9263916015625 C 96.43785858154297,137.9263916015625 95.1842269897461,139.18002319335938 95.1842269897461,140.7246551513672 C 95.1842269897461,141.10958862304688 95.26207733154297,141.4764404296875 95.40288543701172,141.81031799316406 L 95.40288543701172,141.81031799316406 L 99.06815338134766,138.14505004882812 L 99.06815338134766,138.14505004882812 C 98.73426818847656,138.00424194335938 98.36741638183594,137.9263916015625 97.98248291015625,137.9263916015625 L 97.98248291015625,137.9263916015625 Z" style="fill: rgb(38, 38, 38); stroke-width: 1px; stroke: none;"/>
<path d="M 93.13423156738281,139.2411346435547 C 93.11654663085938,140.94790649414062 92.8586196899414,142.83143615722656 92.45435333251953,144.75885009765625 L 92.45435333251953,144.75885009765625 L 94.7138900756836,142.4993133544922 L 94.7138900756836,142.4993133544922 C 94.55397033691406,141.39566040039062 94.46119689941406,140.330322265625 94.45591735839844,139.332275390625 L 93.13423156738281,139.2411346435547 L 93.13423156738281,139.2411346435547 L 93.13423156738281,139.2411346435547 Z" style="fill: rgb(38, 38, 38); stroke-width: 1px; stroke: none;"/>
<path d="M 122.52439880371094,133.0014419555664 C 120.97977447509766,133.0014419555664 119.72614288330078,134.25505828857422 119.72614288330078,135.7997055053711 C 119.72614288330078,137.34434509277344 120.97977447509766,138.5979766845703 122.52439880371094,138.5979766845703 C 124.06905364990234,138.5979766845703 125.32268524169922,137.34434509277344 125.32268524169922,135.7997055053711 C 125.32268524169922,134.25505828857422 124.06905364990234,133.0014419555664 122.52439880371094,133.0014419555664 L 122.52439880371094,133.0014419555664 Z" style="fill: rgb(38, 38, 38); stroke-width: 1px; stroke: none;"/>
<path d="M 118.49491119384766,137.9263916015625 C 117.98329162597656,137.9263916015625 117.50359344482422,138.0639190673828 117.09080505371094,138.30401611328125 L 117.09080505371094,138.30401611328125 L 120.91555786132812,142.12875366210938 L 120.91555786132812,142.12875366210938 C 121.1556396484375,141.71597290039062 121.29317474365234,141.2362823486328 121.29317474365234,140.7246551513672 C 121.29317474365234,139.18002319335938 120.03954315185547,137.9263916015625 118.49491119384766,137.9263916015625 L 118.49491119384766,137.9263916015625 Z" style="fill: rgb(38, 38, 38); stroke-width: 1px; stroke: none;"/>
<path d="M 126.55391693115234,137.9263916015625 C 125.00928497314453,137.9263916015625 123.75566101074219,139.18002319335938 123.75566101074219,140.7246551513672 C 123.75566101074219,142.26930236816406 125.00928497314453,143.52293395996094 126.55391693115234,143.52293395996094 C 128.09857177734375,143.52293395996094 129.35220336914062,142.26930236816406 129.35220336914062,140.7246551513672 C 129.35220336914062,139.18002319335938 128.09857177734375,137.9263916015625 126.55391693115234,137.9263916015625 L 126.55391693115234,137.9263916015625 Z" style="fill: rgb(38, 38, 38); stroke-width: 1px; stroke: none;"/>
<path d="M 121.70565795898438,139.2411346435547 C 121.69457244873047,140.310791015625 121.5891342163086,141.44985961914062 121.41244506835938,142.6256561279297 L 121.41244506835938,142.6256561279297 L 123.73001861572266,144.94322204589844 L 123.73001098632812,144.94322204589844 C 123.30537414550781,142.97195434570312 123.03644561767578,141.05218505859375 123.02734375,139.332275390625 L 121.70565795898438,139.2411346435547 L 121.70565795898438,139.2411346435547 L 121.70565795898438,139.2411346435547 Z" style="fill: rgb(38, 38, 38); stroke-width: 1px; stroke: none;"/>
<path d="M 151.0958251953125,133.0014419555664 C 149.5511932373047,133.0014419555664 148.29757690429688,134.25505828857422 148.29757690429688,135.7997055053711 C 148.29757690429688,137.34434509277344 149.5511932373047,138.5979766845703 151.0958251953125,138.5979766845703 C 152.64048767089844,138.5979766845703 153.8941192626953,137.34434509277344 153.8941192626953,135.7997055053711 C 153.8941192626953,134.25505828857422 152.64048767089844,133.0014419555664 151.0958251953125,133.0014419555664 L 151.0958251953125,133.0014419555664 Z" style="fill: rgb(38, 38, 38); stroke-width: 1px; stroke: none;"/>
<path d="M 147.06634521484375,137.9263916015625 C 145.5216827392578,137.9263916015625 144.26805114746094,139.18002319335938 144.26805114746094,140.7246551513672 C 144.26805114746094,142.26930236816406 145.5216827392578,143.52293395996094 147.06634521484375,143.52293395996094 C 148.61097717285156,143.52293395996094 149.86459350585938,142.26930236816406 149.86459350585938,140.7246551513672 C 149.86459350585938,139.18002319335938 148.61097717285156,137.9263916015625 147.06634521484375,137.9263916015625 L 147.06634521484375,137.9263916015625 Z" style="fill: rgb(38, 38, 38); stroke-width: 1px; stroke: none;"/>
<path d="M 155.12533569335938,137.9263916015625 C 153.58071899414062,137.9263916015625 152.32708740234375,139.18002319335938 152.32708740234375,140.7246551513672 C 152.32708740234375,142.26930236816406 153.58071899414062,143.52293395996094 155.12533569335938,143.52293395996094 C 156.6699981689453,143.52293395996094 157.9236297607422,142.26930236816406 157.9236297607422,140.7246551513672 C 157.9236297607422,139.18002319335938 156.6699981689453,137.9263916015625 155.12533569335938,137.9263916015625 L 155.12533569335938,137.9263916015625 Z" style="fill: rgb(38, 38, 38); stroke-width: 1px; stroke: none;"/>
<path d="M 150.98451232910156,161.48342895507812 C 150.98451232910156,161.48342895507812 150.98451232910156,161.48342895507812 150.98451232910156,161.48342895507812 L 150.98451232910156,161.48342895507812 L 150.98451232910156,161.48342895507812 L 150.98451232910156,161.48342895507812 Z" style="fill: rgb(38, 38, 38); stroke-width: 1px; stroke: none;"/>
<path d="M 150.27708435058594,139.2411346435547 C 150.22161865234375,144.59410095214844 147.80307006835938,151.6856231689453 145.91819763183594,156.4171142578125 L 145.91819763183594,156.4171142578125 L 147.7002716064453,158.19918823242188 L 148.40850830078125,157.60784912109375 C 149.21865844726562,158.6293487548828 150.27381896972656,160.44032287597656 150.71133422851562,161.21026611328125 L 150.98451232910156,161.48342895507812 L 150.98451232910156,161.48342895507812 C 151.34942626953125,161.01353454589844 153.06822204589844,158.80731201171875 154.0825958251953,157.63064575195312 L 158.20713806152344,161.5728759765625 C 158.20713806152344,161.5728759765625 151.64434814453125,147.94595336914062 151.59877014160156,139.332275390625 L 150.27708435058594,139.2411346435547 L 150.27708435058594,139.2411346435547 L 150.98451232910156,161.48342895507812 Z" style="fill: rgb(38, 38, 38); stroke-width: 1px; stroke: none;"/>
<path d="M 175.36180114746094,154.14859008789062 C 175.0655975341797,154.9484405517578 174.77163696289062,155.70919799804688 174.4896240234375,156.4171142578125 L 174.4896240234375,156.4171142578125 L 176.27169799804688,158.19918823242188 L 176.97994995117188,157.60784912109375 C 177.79010009765625,158.6293487548828 178.8452606201172,160.44032287597656 179.28277587890625,161.21026611328125 L 179.55593872070312,161.48342895507812 L 179.55593872070312,161.48342895507812 C 179.7461395263672,161.238525390625 180.3041229248047,160.5219268798828 180.93846130371094,159.7252655029297 L 180.93846130371094,159.7252655029297 L 175.36180114746094,154.14859008789062 L 175.36180114746094,154.14859008789062 Z" style="fill: rgb(38, 38, 38); stroke-width: 1px; stroke: none;"/>
<path d="M 179.55593872070312,161.48342895507812 C 179.55593872070312,161.48342895507812 179.55593872070312,161.48342895507812 179.55593872070312,161.48342895507812 L 179.55593872070312,161.48342895507812 L 179.55593872070312,161.48342895507812 L 175.36180114746094,154.14859008789062 Z" style="fill: rgb(38, 38, 38); stroke-width: 1px; stroke: none;"/>
<path d="M 51.095829010009766,168.71572875976562 C 49.55120086669922,168.71572875976562 48.29757308959961,169.96934509277344 48.29757308959961,171.5139923095703 C 48.29757308959961,173.0586395263672 49.55120086669922,174.312255859375 51.095829010009766,174.312255859375 C 52.64048385620117,174.312255859375 53.89411163330078,173.0586395263672 53.89411163330078,171.5139923095703 C 53.89411163330078,169.96934509277344 52.64048385620117,168.71572875976562 51.095829010009766,168.71572875976562 L 51.095829010009766,168.71572875976562 Z" style="fill: rgb(38, 38, 38); stroke-width: 1px; stroke: none;"/>
<path d="M 47.066341400146484,173.64068603515625 C 45.52168655395508,173.64068603515625 44.26805877685547,174.89430236816406 44.26805877685547,176.43894958496094 C 44.26805877685547,177.9835968017578 45.52168655395508,179.23721313476562 47.066341400146484,179.23721313476562 C 48.6109733581543,179.23721313476562 49.864601135253906,177.9835968017578 49.864601135253906,176.43894958496094 C 49.864601135253906,174.89430236816406 48.6109733581543,173.64068603515625 47.066341400146484,173.64068603515625 L 47.066341400146484,173.64068603515625 Z" style="fill: rgb(38, 38, 38); stroke-width: 1px; stroke: none;"/>
<path d="M 55.125343322753906,173.64068603515625 C 53.58071517944336,173.64068603515625 52.32708740234375,174.89430236816406 52.32708740234375,176.43894958496094 C 52.32708740234375,177.9835968017578 53.58071517944336,179.23721313476562 55.125343322753906,179.23721313476562 C 56.66999816894531,179.23721313476562 57.92362976074219,177.9835968017578 57.92362976074219,176.43894958496094 C 57.92362976074219,174.89430236816406 56.66999816894531,173.64068603515625 55.125343322753906,173.64068603515625 L 55.125343322753906,173.64068603515625 Z" style="fill: rgb(38, 38, 38); stroke-width: 1px; stroke: none;"/>
<path d="M 50.27708435058594,174.95541381835938 C 50.22675323486328,179.8129425048828 48.23052978515625,186.10208129882812 46.452980041503906,190.76022338867188 L 46.452980041503906,190.76022338867188 L 53.160526275634766,184.05267333984375 L 53.160526275634766,184.05267333984375 C 52.26803207397461,180.94082641601562 51.613059997558594,177.74728393554688 51.59877014160156,175.04656982421875 L 50.27708435058594,174.95541381835938 L 50.27708435058594,174.95541381835938 L 50.27708435058594,174.95541381835938 Z" style="fill: rgb(38, 38, 38); stroke-width: 1px; stroke: none;"/>
<path d="M 165.3815460205078,168.71572875976562 C 163.8369140625,168.71572875976562 162.58328247070312,169.96934509277344 162.58328247070312,171.5139923095703 C 162.58328247070312,173.0586395263672 163.8369140625,174.312255859375 165.3815460205078,174.312255859375 C 166.9261932373047,174.312255859375 168.17982482910156,173.0586395263672 168.17982482910156,171.5139923095703 C 168.17982482910156,169.96934509277344 166.9261932373047,168.71572875976562 165.3815460205078,168.71572875976562 L 165.3815460205078,168.71572875976562 Z" style="fill: rgb(38, 38, 38); stroke-width: 1px; stroke: none;"/>
<path d="M 161.35205078125,173.64068603515625 C 159.80740356445312,173.64068603515625 158.55377197265625,174.89430236816406 158.55377197265625,176.43894958496094 C 158.55377197265625,177.9835968017578 159.80740356445312,179.23721313476562 161.35205078125,179.23721313476562 C 162.8966827392578,179.23721313476562 164.1503143310547,177.9835968017578 164.1503143310547,176.43894958496094 C 164.1503143310547,174.89430236816406 162.8966827392578,173.64068603515625 161.35205078125,173.64068603515625 L 161.35205078125,173.64068603515625 Z" style="fill: rgb(38, 38, 38); stroke-width: 1px; stroke: none;"/>
<path d="M 169.4110565185547,173.64068603515625 C 167.86642456054688,173.64068603515625 166.61279296875,174.89430236816406 166.61279296875,176.43894958496094 C 166.61279296875,177.9835968017578 167.86642456054688,179.23721313476562 169.4110565185547,179.23721313476562 C 170.95571899414062,179.23721313476562 172.2093505859375,177.9835968017578 172.2093505859375,176.43894958496094 C 172.2093505859375,174.89430236816406 170.95571899414062,173.64068603515625 169.4110565185547,173.64068603515625 L 169.4110565185547,173.64068603515625 Z" style="fill: rgb(38, 38, 38); stroke-width: 1px; stroke: none;"/>
<path d="M 164.56280517578125,174.95541381835938 C 164.5338592529297,177.74807739257812 163.86175537109375,181.01393127441406 162.95779418945312,184.17100524902344 L 162.95779418945312,184.17100524902344 L 169.8258056640625,191.03900146484375 L 169.8258056640625,191.03900146484375 C 168.00250244140625,186.33753967285156 165.91014099121094,179.8971710205078 165.88449096679688,175.04656982421875 L 164.56280517578125,174.95541381835938 L 164.56280517578125,174.95541381835938 L 164.56280517578125,174.95541381835938 Z" style="fill: rgb(38, 38, 38); stroke-width: 1px; stroke: none;"/>
<path d="M 8.0,8.0 L 208.0,8.0 L 208.0,108.0 C 208.0,158.0 168.0,208.0 108.0,238.0 C 48.0,208.0 8.0,158.0 8.0,108.0 L 8.0,8.0 Z" style="fill: none; stroke-width: 1px; stroke: rgb(0, 0, 0);"/>
</g>
<rect clip-path="url(#contour)" fill="url(#lighting)" height="246.0" width="216.0" x="0.0" y="0.0"/>
</svg>
