<?xml version="1.0" encoding="UTF-8" standalone="no"?>
<svg xmlns="http://www.w3.org/2000/svg" height="216.0" width="116.0">
<defs>
<clipPath id="contour">
<path d="M 0.0,0.0 L 100.0,0.0 L 100.0,200.0 L 50.0,160.0 L 0.0,200.0 L 0.0,0.0 Z"/>
</clipPath>
<radialGradient id="lighting">
<stop offset="25%" stop-color="white" stop-opacity="35%"/>
<stop offset="100%" stop-color="white" stop-opacity="0%"/>
</radialGradient>
</defs>
<g transform="translate(8.0,8.0)">
<path clip-path="url(#contour)" comment="FieldBackground" d="M 0.0,0.0 L 0.0,200.0 L 50.0,160.0 L 100.0,200.0 L 100.0,0.0 L 0.0,0.0 Z" style="fill-rule: evenodd; fill: rgb(38, 38, 38); stroke-width: 1px; stroke: none;"/>
<path clip-path="url(#contour)" comment="FieldBackground" d="M 0.0,0.0 L 0.0,4.71404504776001 L 30.47631072998047,35.19035720825195 L 35.19035720825195,30.47631072998047 L 4.71404504776001,0.0 L 0.0,0.0 Z M 95.28595733642578,0.0 L 50.5,44.785953521728516 L 55.214046478271484,49.5 L 100.0,4.71404504776001 L 100.0,0.0 L 95.28595733642578,0.0 Z M 50.0,16.66666603088379 L 16.66666603088379,50.0 L 30.47631072998047,63.80964279174805 L 35.19035720825195,59.09560012817383 L 26.094757080078125,50.0 L 50.0,26.094757080078125 L 59.09560012817383,35.19035720825195 L 63.80964279174805,30.47631072998047 L 50.0,16.66666603088379 Z M 40.90439987182617,36.19035720825195 L 36.19035720825195,40.90439987182617 L 59.09560012817383,63.80964279174805 L 63.80964279174805,59.09560012817383 L 40.90439987182617,36.19035720825195 Z M 69.52368927001953,36.19035720825195 L 64.80964660644531,40.90439987182617 L 73.90524291992188,50.0 L 50.0,73.90524291992188 L 40.90439987182617,64.80964660644531 L 36.19035720825195,69.52368927001953 L 50.0,83.33333587646484 L 83.33333587646484,50.0 L 69.52368927001953,36.19035720825195 Z M 44.785953521728516,50.5 L 0.0,95.28595733642578 L 0.0,104.71404266357422 L 49.5,55.214046478271484 L 44.785953521728516,50.5 Z M 69.52368927001953,64.80964660644531 L 64.80964660644531,69.52368927001953 L 100.0,104.71404266357422 L 100.0,95.28595733642578 L 69.52368927001953,64.80964660644531 Z" style="fill-rule: evenodd; fill: rgb(128, 64, 128); stroke-width: 1px; stroke: none;"/>
<path clip-path="url(#contour)" comment="FieldBackground" d="M 0.0,0.0 L 0.0,4.71404504776001 L 30.47631072998047,35.19035720825195 L 35.19035720825195,30.47631072998047 L 4.71404504776001,0.0 L 0.0,0.0 Z M 95.28595733642578,0.0 L 50.5,44.785953521728516 L 55.214046478271484,49.5 L 100.0,4.71404504776001 L 100.0,0.0 L 95.28595733642578,0.0 Z M 50.0,16.66666603088379 L 16.66666603088379,50.0 L 30.47631072998047,63.80964279174805 L 35.19035720825195,59.09560012817383 L 26.094757080078125,50.0 L 50.0,26.094757080078125 L 59.09560012817383,35.19035720825195 L 63.80964279174805,30.47631072998047 L 50.0,16.66666603088379 Z M 40.90439987182617,36.19035720825195 L 36.19035720825195,40.90439987182617 L 59.09560012817383,63.80964279174805 L 63.80964279174805,59.09560012817383 L 40.90439987182617,36.19035720825195 Z M 69.52368927001953,36.19035720825195 L 64.80964660644531,40.90439987182617 L 73.90524291992188,50.0 L 50.0,73.90524291992188 L 40.90439987182617,64.80964660644531 L 36.19035720825195,69.52368927001953 L 50.0,83.33333587646484 L 83.33333587646484,50.0 L 69.52368927001953,36.19035720825195 Z M 44.785953521728516,50.5 L 0.0,95.28595733642578 L 0.0,104.71404266357422 L 49.5,55.214046478271484 L 44.785953521728516,50.5 Z M 69.52368927001953,64.80964660644531 L 64.80964660644531,69.52368927001953 L 100.0,104.71404266357422 L 100.0,95.28595733642578 L 69.52368927001953,64.80964660644531 Z" style="fill-rule: evenodd; fill: rgb(128, 64, 128); stroke-width: 1px; stroke: none;"/>
<path clip-path="url(#contour)" comment="FieldBackground" d="M 0.0,0.0 L 0.0,4.71404504776001 L 30.47631072998047,35.19035720825195 L 35.19035720825195,30.47631072998047 L 4.71404504776001,0.0 L 0.0,0.0 Z M 95.28595733642578,0.0 L 50.5,44.785953521728516 L 55.214046478271484,49.5 L 100.0,4.71404504776001 L 100.0,0.0 L 95.28595733642578,0.0 Z M 50.0,16.66666603088379 L 16.66666603088379,50.0 L 30.47631072998047,63.80964279174805 L 35.19035720825195,59.09560012817383 L 26.094757080078125,50.0 L 50.0,26.094757080078125 L 59.09560012817383,35.19035720825195 L 63.80964279174805,30.47631072998047 L 50.0,16.66666603088379 Z M 40.90439987182617,36.19035720825195 L 36.19035720825195,40.90439987182617 L 59.09560012817383,63.80964279174805 L 63.80964279174805,59.09560012817383 L 40.90439987182617,36.19035720825195 Z M 69.52368927001953,36.19035720825195 L 64.80964660644531,40.90439987182617 L 73.90524291992188,50.0 L 50.0,73.90524291992188 L 40.90439987182617,64.80964660644531 L 36.19035720825195,69.52368927001953 L 50.0,83.33333587646484 L 83.33333587646484,50.0 L 69.52368927001953,36.19035720825195 Z M 44.785953521728516,50.5 L 0.0,95.28595733642578 L 0.0,104.71404266357422 L 49.5,55.214046478271484 L 44.785953521728516,50.5 Z M 69.52368927001953,64.80964660644531 L 64.80964660644531,69.52368927001953 L 100.0,104.71404266357422 L 100.0,95.28595733642578 L 69.52368927001953,64.80964660644531 Z" style="fill-rule: evenodd; fill: rgb(128, 64, 128); stroke-width: 1px; stroke: none;"/>
<path clip-path="url(#contour)" comment="FieldBackground" d="M 0.0,0.0 L 0.0,4.71404504776001 L 30.47631072998047,35.19035720825195 L 35.19035720825195,30.47631072998047 L 4.71404504776001,0.0 L 0.0,0.0 Z M 95.28595733642578,0.0 L 50.5,44.785953521728516 L 55.214046478271484,49.5 L 100.0,4.71404504776001 L 100.0,0.0 L 95.28595733642578,0.0 Z M 50.0,16.66666603088379 L 16.66666603088379,50.0 L 30.47631072998047,63.80964279174805 L 35.19035720825195,59.09560012817383 L 26.094757080078125,50.0 L 50.0,26.094757080078125 L 59.09560012817383,35.19035720825195 L 63.80964279174805,30.47631072998047 L 50.0,16.66666603088379 Z M 40.90439987182617,36.19035720825195 L 36.19035720825195,40.90439987182617 L 59.09560012817383,63.80964279174805 L 63.80964279174805,59.09560012817383 L 40.90439987182617,36.19035720825195 Z M 69.52368927001953,36.19035720825195 L 64.80964660644531,40.90439987182617 L 73.90524291992188,50.0 L 50.0,73.90524291992188 L 40.90439987182617,64.80964660644531 L 36.19035720825195,69.52368927001953 L 50.0,83.33333587646484 L 83.33333587646484,50.0 L 69.52368927001953,36.19035720825195 Z M 44.785953521728516,50.5 L 0.0,95.28595733642578 L 0.0,104.71404266357422 L 49.5,55.214046478271484 L 44.785953521728516,50.5 Z M 69.52368927001953,64.80964660644531 L 64.80964660644531,69.52368927001953 L 100.0,104.71404266357422 L 100.0,95.28595733642578 L 69.52368927001953,64.80964660644531 Z" style="fill-rule: evenodd; fill: rgb(128, 64, 128); stroke-width: 1px; stroke: none;"/>
<path clip-path="url(#contour)" comment="FieldBackground" d="M 0.0,0.0 L 0.0,4.71404504776001 L 30.47631072998047,35.19035720825195 L 35.19035720825195,30.47631072998047 L 4.71404504776001,0.0 L 0.0,0.0 Z M 95.28595733642578,0.0 L 50.5,44.785953521728516 L 55.214046478271484,49.5 L 100.0,4.71404504776001 L 100.0,0.0 L 95.28595733642578,0.0 Z M 50.0,16.66666603088379 L 16.66666603088379,50.0 L 30.47631072998047,63.80964279174805 L 35.19035720825195,59.09560012817383 L 26.094757080078125,50.0 L 50.0,26.094757080078125 L 59.09560012817383,35.19035720825195 L 63.80964279174805,30.47631072998047 L 50.0,16.66666603088379 Z M 40.90439987182617,36.19035720825195 L 36.19035720825195,40.90439987182617 L 59.09560012817383,63.80964279174805 L 63.80964279174805,59.09560012817383 L 40.90439987182617,36.19035720825195 Z M 69.52368927001953,36.19035720825195 L 64.80964660644531,40.90439987182617 L 73.90524291992188,50.0 L 50.0,73.90524291992188 L 40.90439987182617,64.80964660644531 L 36.19035720825195,69.52368927001953 L 50.0,83.33333587646484 L 83.33333587646484,50.0 L 69.52368927001953,36.19035720825195 Z M 44.785953521728516,50.5 L 0.0,95.28595733642578 L 0.0,104.71404266357422 L 49.5,55.214046478271484 L 44.785953521728516,50.5 Z M 69.52368927001953,64.80964660644531 L 64.80964660644531,69.52368927001953 L 100.0,104.71404266357422 L 100.0,95.28595733642578 L 69.52368927001953,64.80964660644531 Z" style="fill-rule: evenodd; fill: rgb(128, 64, 128); stroke-width: 1px; stroke: none;"/>
<path clip-path="url(#contour)" comment="FieldBackground" d="M 0.0,0.0 L 0.0,4.71404504776001 L 30.47631072998047,35.19035720825195 L 35.19035720825195,30.47631072998047 L 4.71404504776001,0.0 L 0.0,0.0 Z M 95.28595733642578,0.0 L 50.5,44.785953521728516 L 55.214046478271484,49.5 L 100.0,4.71404504776001 L 100.0,0.0 L 95.28595733642578,0.0 Z M 50.0,16.66666603088379 L 16.66666603088379,50.0 L 30.47631072998047,63.80964279174805 L 35.19035720825195,59.09560012817383 L 26.094757080078125,50.0 L 50.0,26.094757080078125 L 59.09560012817383,35.19035720825195 L 63.80964279174805,30.47631072998047 L 50.0,16.66666603088379 Z M 40.90439987182617,36.19035720825195 L 36.19035720825195,40.90439987182617 L 59.09560012817383,63.80964279174805 L 63.80964279174805,59.09560012817383 L 40.90439987182617,36.19035720825195 Z M 69.52368927001953,36.19035720825195 L 64.80964660644531,40.90439987182617 L 73.90524291992188,50.0 L 50.0,73.90524291992188 L 40.90439987182617,64.80964660644531 L 36.19035720825195,69.52368927001953 L 50.0,83.33333587646484 L 83.33333587646484,50.0 L 69.52368927001953,36.19035720825195 Z M 44.785953521728516,50.5 L 0.0,95.28595733642578 L 0.0,104.71404266357422 L 49.5,55.214046478271484 L 44.785953521728516,50.5 Z M 69.52368927001953,64.80964660644531 L 64.80964660644531,69.52368927001953 L 100.0,104.71404266357422 L 100.0,95.28595733642578 L 69.52368927001953,64.80964660644531 Z" style="fill-rule: evenodd; fill: rgb(128, 64, 128); stroke-width: 1px; stroke: none;"/>
<path clip-path="url(#contour)" comment="FieldBackground" d="M 0.0,0.0 L 0.0,4.71404504776001 L 30.47631072998047,35.19035720825195 L 35.19035720825195,30.47631072998047 L 4.71404504776001,0.0 L 0.0,0.0 Z M 95.28595733642578,0.0 L 50.5,44.785953521728516 L 55.214046478271484,49.5 L 100.0,4.71404504776001 L 100.0,0.0 L 95.28595733642578,0.0 Z M 50.0,16.66666603088379 L 16.66666603088379,50.0 L 30.47631072998047,63.80964279174805 L 35.19035720825195,59.09560012817383 L 26.094757080078125,50.0 L 50.0,26.094757080078125 L 59.09560012817383,35.19035720825195 L 63.80964279174805,30.47631072998047 L 50.0,16.66666603088379 Z M 40.90439987182617,36.19035720825195 L 36.19035720825195,40.90439987182617 L 59.09560012817383,63.80964279174805 L 63.80964279174805,59.09560012817383 L 40.90439987182617,36.19035720825195 Z M 69.52368927001953,36.19035720825195 L 64.80964660644531,40.90439987182617 L 73.90524291992188,50.0 L 50.0,73.90524291992188 L 40.90439987182617,64.80964660644531 L 36.19035720825195,69.52368927001953 L 50.0,83.33333587646484 L 83.33333587646484,50.0 L 69.52368927001953,36.19035720825195 Z M 44.785953521728516,50.5 L 0.0,95.28595733642578 L 0.0,104.71404266357422 L 49.5,55.214046478271484 L 44.785953521728516,50.5 Z M 69.52368927001953,64.80964660644531 L 64.80964660644531,69.52368927001953 L 100.0,104.71404266357422 L 100.0,95.28595733642578 L 69.52368927001953,64.80964660644531 Z" style="fill-rule: evenodd; fill: rgb(128, 64, 128); stroke-width: 1px; stroke: none;"/>
<path clip-path="url(#contour)" comment="outer shield shape border" d="M 0.0,0.0 L 0.0,200.0 L 50.0,160.0 L 100.0,200.0 L 100.0,0.0 L 0.0,0.0 Z" style="fill-rule: evenodd; fill: none; stroke-width: 1px; stroke: rgb(0, 0, 0);"/>
</g>
</svg>
