<?xml version="1.0" encoding="UTF-8" standalone="no"?>
<svg xmlns="http://www.w3.org/2000/svg" height="246.0" width="216.0">
<defs>
<clipPath id="contour">
<path d="M 8.0,8.0 L 208.0,8.0 L 208.0,108.0 C 208.0,158.0 168.0,208.0 108.0,238.0 C 48.0,208.0 8.0,158.0 8.0,108.0 L 8.0,8.0 Z"/>
</clipPath>
<radialGradient id="lighting">
<stop offset="25%" stop-color="white" stop-opacity="35%"/>
<stop offset="100%" stop-color="white" stop-opacity="0%"/>
</radialGradient>
</defs>
<g transform="translate(8.0,8.0)">
<path d="M 0.0,0.0 L 200.0,0.0 L 200.0,100.0 C 200.0,150.0 160.0,200.0 100.0,230.0 C 40.0,200.0 0.0,150.0 0.0,100.0 L 0.0,0.0 Z" style="fill: rgb(217, 38, 38); stroke-width: 1px; stroke: none;"/>
<path d="M 87.57439422607422,113.62986755371094 C 87.57440185546875,113.62987518310547 87.57440185546875,113.6298828125 87.57440948486328,113.62989044189453 L 87.57441711425781,113.62989044189453 C 87.57440948486328,113.6298828125 87.57440185546875,113.62987518310547 87.57439422607422,113.62986755371094 L 87.57439422607422,113.62986755371094 Z" style="fill: rgb(217, 217, 38); stroke-width: 1px; stroke: none;"/>
<path d="M 100.03822326660156,35.40390396118164 C 99.98991394042969,35.40390396118164 99.94390106201172,35.44096374511719 99.87519073486328,35.52341079711914 C 94.308837890625,40.3409309387207 89.36650848388672,44.808990478515625 85.49752044677734,49.77627944946289 C 74.6393814086914,63.70465087890625 70.99503326416016,78.83116149902344 77.08557891845703,91.06217193603516 C 81.56160736083984,100.68144989013672 85.0089111328125,107.63432312011719 87.57439422607422,113.62986755371094 C 82.11263275146484,105.759765625 74.36392974853516,100.3887710571289 65.70325469970703,97.9764404296875 C 63.5522346496582,97.33634185791016 61.21034622192383,96.9825439453125 58.75502014160156,96.9825439453125 C 52.97602081298828,96.9825439453125 46.568607330322266,98.94248962402344 40.542327880859375,103.74248504638672 C 29.93380355834961,112.204345703125 26.838603973388672,135.54310607910156 58.015193939208984,140.0361328125 C 54.72031021118164,136.21705627441406 54.99488830566406,127.90496063232422 61.584651947021484,124.95954132080078 C 63.69044494628906,124.14641571044922 65.91378784179688,123.8034896850586 67.98194122314453,123.8034896850586 C 70.86582946777344,123.8034896850586 73.44796752929688,124.47028350830078 74.98883819580078,125.4587631225586 C 77.47659301757812,126.61585998535156 80.52587890625,130.3626708984375 82.2912826538086,135.0189208984375 L 74.5894546508789,135.0189208984375 L 74.5894546508789,148.48301696777344 L 82.7143783569336,148.48301696777344 C 80.3010025024414,155.5558624267578 74.29497528076172,159.4376220703125 60.18682098388672,169.8897705078125 C 72.2181396484375,169.8897705078125 86.89534759521484,162.12681579589844 89.99053955078125,159.3061981201172 L 89.99054718017578,159.3061981201172 C 90.22992706298828,159.0931854248047 90.46849060058594,158.78982543945312 90.70477294921875,158.41220092773438 L 90.70478057861328,158.41220092773438 C 89.75680541992188,164.3191680908203 85.22743225097656,169.0112762451172 77.23534393310547,171.7368927001953 C 78.29878234863281,174.41966247558594 83.17675018310547,179.8170623779297 89.96585845947266,179.8170623779297 C 90.18838500976562,179.8170623779297 90.4129638671875,179.81126403808594 90.63953399658203,179.79937744140625 C 92.03736114501953,185.79006958007812 93.43518829345703,189.1348876953125 99.87519073486328,194.57643127441406 C 99.95008087158203,194.6388397216797 99.98751831054688,194.67002868652344 100.02496337890625,194.67002868652344 C 100.06240844726562,194.67002868652344 100.09984588623047,194.6388397216797 100.17472839355469,194.57643127441406 C 106.61473083496094,189.1348876953125 108.01255798339844,185.79006958007812 109.41039276123047,179.79937744140625 C 109.63695526123047,179.81126403808594 109.86153411865234,179.8170623779297 110.08406066894531,179.8170623779297 C 116.87317657470703,179.8170623779297 121.75113677978516,174.41966247558594 122.81458282470703,171.7368927001953 C 115.1147232055664,169.11093139648438 110.62899017333984,164.65968322753906 109.46349334716797,159.05526733398438 L 109.4635009765625,159.05526733398438 C 109.54550170898438,159.14913940429688 109.6276626586914,159.23300170898438 109.70991516113281,159.3061981201172 L 109.70992279052734,159.3061981201172 C 112.80511474609375,162.12681579589844 127.4823226928711,169.8897705078125 139.51364135742188,169.8897705078125 C 125.40548706054688,159.4376220703125 119.39945983886719,155.5558624267578 116.986083984375,148.48301696777344 L 125.48542785644531,148.48301696777344 L 125.48542785644531,135.0189208984375 L 117.4091796875,135.0189208984375 C 119.1745834350586,130.3626708984375 122.22386169433594,126.61585998535156 124.71162414550781,125.4587631225586 C 126.25249481201172,124.47028350830078 128.83462524414062,123.8034896850586 131.71852111816406,123.8034896850586 C 133.78668212890625,123.8034896850586 136.01002502441406,124.14641571044922 138.11581420898438,124.95954132080078 C 144.70558166503906,127.90496063232422 144.9801483154297,136.21705627441406 141.68527221679688,140.0361328125 C 172.8618621826172,135.54310607910156 169.76666259765625,112.204345703125 159.15814208984375,103.74248504638672 C 153.13185119628906,98.94248962402344 146.7244415283203,96.9825439453125 140.9454345703125,96.9825439453125 C 138.4901123046875,96.9825439453125 136.14822387695312,97.33634185791016 133.99720764160156,97.9764404296875 C 125.78907012939453,100.2627182006836 118.40008544921875,105.20655822753906 113.00076293945312,112.4167251586914 C 115.5055160522461,106.69483184814453 118.78690338134766,100.03976440429688 122.96434020996094,91.06217193603516 C 129.02992248535156,78.83116149902344 125.41053771972656,63.70465087890625 114.55239868164062,49.77627944946289 C 110.68341064453125,44.78403091430664 105.76603698730469,40.29100799560547 100.17472076416016,35.473487854003906 L 100.17472839355469,35.473487854003906 C 100.1186294555664,35.42860794067383 100.0776596069336,35.40390396118164 100.03822326660156,35.40390396118164 L 100.03822326660156,35.40390396118164 Z" style="fill: rgb(217, 217, 38); stroke-width: 1px; stroke: none;"/>
<path d="M 0.0,0.0 L 200.0,0.0 L 200.0,100.0 C 200.0,150.0 160.0,200.0 100.0,230.0 C 40.0,200.0 0.0,150.0 0.0,100.0 L 0.0,0.0 Z" style="fill: none; stroke-width: 1px; stroke: rgb(0, 0, 0);"/>
</g>
<rect clip-path="url(#contour)" fill="url(#lighting)" height="246.0" width="216.0" x="0.0" y="0.0"/>
</svg>
