<?xml version="1.0" encoding="UTF-8" standalone="no"?>
<svg xmlns="http://www.w3.org/2000/svg" height="246.0" width="216.0">
<defs>
<clipPath id="contour">
<path d="M 8.0,8.0 L 208.0,8.0 L 208.0,108.0 C 208.0,158.0 168.0,208.0 108.0,238.0 C 48.0,208.0 8.0,158.0 8.0,108.0 L 8.0,8.0 Z"/>
</clipPath>
<radialGradient id="lighting">
<stop offset="25%" stop-color="white" stop-opacity="35%"/>
<stop offset="100%" stop-color="white" stop-opacity="0%"/>
</radialGradient>
</defs>
<g transform="translate(8.0,8.0)">
<path clip-path="url(#contour)" d="M 0.0,0.0 L 0.0,100.0 C 0.0,150.0 40.0,200.0 100.0,230.0 C 160.0,200.0 200.0,150.0 200.0,100.0 L 200.0,0.0 L 0.0,0.0 Z" style="fill: rgb(217, 38, 38); stroke-width: 1px; stroke: none;"/>
<path clip-path="url(#contour)" d="M 0.0,0.0 C 0.0,15.0 10.0,25.0 25.0,25.0 C 40.0,25.0 50.0,15.0 50.0,0.0 L 45.0,0.0 C 45.0,12.5 37.5,20.0 25.0,20.0 C 12.5,20.0 5.0,12.5 5.0,0.0 L 0.0,0.0 Z" style="fill: rgb(217, 217, 38); stroke-width: 1px; stroke: none;"/>
<path clip-path="url(#contour)" d="M 50.0,0.0 C 50.0,15.0 60.0,25.0 75.0,25.0 C 90.0,25.0 100.0,15.0 100.0,0.0 L 95.0,0.0 C 95.0,12.5 87.5,20.0 75.0,20.0 C 62.5,20.0 55.0,12.5 55.0,0.0 L 50.0,0.0 Z" style="fill: rgb(217, 217, 38); stroke-width: 1px; stroke: none;"/>
<path clip-path="url(#contour)" d="M 100.0,0.0 C 100.0,15.0 110.0,25.0 125.0,25.0 C 140.0,25.0 150.0,15.0 150.0,0.0 L 145.0,0.0 C 145.0,12.5 137.5,20.0 125.0,20.0 C 112.5,20.0 105.0,12.5 105.0,0.0 L 100.0,0.0 Z" style="fill: rgb(217, 217, 38); stroke-width: 1px; stroke: none;"/>
<path clip-path="url(#contour)" d="M 150.0,0.0 C 150.0,15.0 160.0,25.0 175.0,25.0 C 190.0,25.0 200.0,15.0 200.0,0.0 L 195.0,0.0 C 195.0,12.5 187.5,20.0 175.0,20.0 C 162.5,20.0 155.0,12.5 155.0,0.0 L 150.0,0.0 Z" style="fill: rgb(217, 217, 38); stroke-width: 1px; stroke: none;"/>
<path clip-path="url(#contour)" d="M 20.0,25.0 C 20.0,37.5 12.5,45.0 0.0,45.0 L 0.0,50.0 C 15.0,50.0 25.0,40.0 25.0,25.0 L 20.0,25.0 Z" style="fill: rgb(217, 217, 38); stroke-width: 1px; stroke: none;"/>
<path clip-path="url(#contour)" d="M 25.0,25.0 C 25.0,40.0 35.0,50.0 50.0,50.0 C 65.0,50.0 75.0,40.0 75.0,25.0 L 70.0,25.0 C 70.0,37.5 62.5,45.0 50.0,45.0 C 37.5,45.0 30.0,37.5 30.0,25.0 L 25.0,25.0 Z" style="fill: rgb(217, 217, 38); stroke-width: 1px; stroke: none;"/>
<path clip-path="url(#contour)" d="M 75.0,25.0 C 75.0,40.0 85.0,50.0 100.0,50.0 C 115.0,50.0 125.0,40.0 125.0,25.0 L 120.0,25.0 C 120.0,37.5 112.5,45.0 100.0,45.0 C 87.5,45.0 80.0,37.5 80.0,25.0 L 75.0,25.0 Z" style="fill: rgb(217, 217, 38); stroke-width: 1px; stroke: none;"/>
<path clip-path="url(#contour)" d="M 125.0,25.0 C 125.0,40.0 135.0,50.0 150.0,50.0 C 165.0,50.0 175.0,40.0 175.0,25.0 L 170.0,25.0 C 170.0,37.5 162.5,45.0 150.0,45.0 C 137.5,45.0 130.0,37.5 130.0,25.0 L 125.0,25.0 Z" style="fill: rgb(217, 217, 38); stroke-width: 1px; stroke: none;"/>
<path clip-path="url(#contour)" d="M 175.0,25.0 C 175.0,40.0 185.0,50.0 200.0,50.0 L 200.0,45.0 C 187.5,45.0 180.0,37.5 180.0,25.0 L 175.0,25.0 Z" style="fill: rgb(217, 217, 38); stroke-width: 1px; stroke: none;"/>
<path clip-path="url(#contour)" d="M 0.0,50.0 C 0.0,65.0 10.0,75.0 25.0,75.0 C 40.0,75.0 50.0,65.0 50.0,50.0 L 45.0,50.0 C 45.0,62.5 37.5,70.0 25.0,70.0 C 12.5,70.0 5.0,62.5 5.0,50.0 L 0.0,50.0 Z" style="fill: rgb(217, 217, 38); stroke-width: 1px; stroke: none;"/>
<path clip-path="url(#contour)" d="M 50.0,50.0 C 50.0,65.0 60.0,75.0 75.0,75.0 C 90.0,75.0 100.0,65.0 100.0,50.0 L 95.0,50.0 C 95.0,62.5 87.5,70.0 75.0,70.0 C 62.5,70.0 55.0,62.5 55.0,50.0 L 50.0,50.0 Z" style="fill: rgb(217, 217, 38); stroke-width: 1px; stroke: none;"/>
<path clip-path="url(#contour)" d="M 100.0,50.0 C 100.0,65.0 110.0,75.0 125.0,75.0 C 140.0,75.0 150.0,65.0 150.0,50.0 L 145.0,50.0 C 145.0,62.5 137.5,70.0 125.0,70.0 C 112.5,70.0 105.0,62.5 105.0,50.0 L 100.0,50.0 Z" style="fill: rgb(217, 217, 38); stroke-width: 1px; stroke: none;"/>
<path clip-path="url(#contour)" d="M 150.0,50.0 C 150.0,65.0 160.0,75.0 175.0,75.0 C 190.0,75.0 200.0,65.0 200.0,50.0 L 195.0,50.0 C 195.0,62.5 187.5,70.0 175.0,70.0 C 162.5,70.0 155.0,62.5 155.0,50.0 L 150.0,50.0 Z" style="fill: rgb(217, 217, 38); stroke-width: 1px; stroke: none;"/>
<path clip-path="url(#contour)" d="M 20.0,75.0 C 20.0,87.5 12.5,95.0 0.0,95.0 L 0.0,100.0 C 15.0,100.0 25.0,90.0 25.0,75.0 L 20.0,75.0 Z" style="fill: rgb(217, 217, 38); stroke-width: 1px; stroke: none;"/>
<path clip-path="url(#contour)" d="M 25.0,75.0 C 25.0,90.0 35.0,100.0 50.0,100.0 C 65.0,100.0 75.0,90.0 75.0,75.0 L 70.0,75.0 C 70.0,87.5 62.5,95.0 50.0,95.0 C 37.5,95.0 30.0,87.5 30.0,75.0 L 25.0,75.0 Z" style="fill: rgb(217, 217, 38); stroke-width: 1px; stroke: none;"/>
<path clip-path="url(#contour)" d="M 75.0,75.0 C 75.0,90.0 85.0,100.0 100.0,100.0 C 115.0,100.0 125.0,90.0 125.0,75.0 L 120.0,75.0 C 120.0,87.5 112.5,95.0 100.0,95.0 C 87.5,95.0 80.0,87.5 80.0,75.0 L 75.0,75.0 Z" style="fill: rgb(217, 217, 38); stroke-width: 1px; stroke: none;"/>
<path clip-path="url(#contour)" d="M 125.0,75.0 C 125.0,90.0 135.0,100.0 150.0,100.0 C 165.0,100.0 175.0,90.0 175.0,75.0 L 170.0,75.0 C 170.0,87.5 162.5,95.0 150.0,95.0 C 137.5,95.0 130.0,87.5 130.0,75.0 L 125.0,75.0 Z" style="fill: rgb(217, 217, 38); stroke-width: 1px; stroke: none;"/>
<path clip-path="url(#contour)" d="M 175.0,75.0 C 175.0,90.0 185.0,100.0 200.0,100.0 L 200.0,95.0 C 187.5,95.0 180.0,87.5 180.0,75.0 L 175.0,75.0 Z" style="fill: rgb(217, 217, 38); stroke-width: 1px; stroke: none;"/>
<path clip-path="url(#contour)" d="M 0.0,100.0 C 0.0,115.0 10.0,125.0 25.0,125.0 C 40.0,125.0 50.0,115.0 50.0,100.0 L 45.0,100.0 C 45.0,112.5 37.5,120.0 25.0,120.0 C 12.5,120.0 5.0,112.5 5.0,100.0 L 0.0,100.0 Z" style="fill: rgb(217, 217, 38); stroke-width: 1px; stroke: none;"/>
<path clip-path="url(#contour)" d="M 50.0,100.0 C 50.0,115.0 60.0,125.0 75.0,125.0 C 90.0,125.0 100.0,115.0 100.0,100.0 L 95.0,100.0 C 95.0,112.5 87.5,120.0 75.0,120.0 C 62.5,120.0 55.0,112.5 55.0,100.0 L 50.0,100.0 Z" style="fill: rgb(217, 217, 38); stroke-width: 1px; stroke: none;"/>
<path clip-path="url(#contour)" d="M 100.0,100.0 C 100.0,115.0 110.0,125.0 125.0,125.0 C 140.0,125.0 150.0,115.0 150.0,100.0 L 145.0,100.0 C 145.0,112.5 137.5,120.0 125.0,120.0 C 112.5,120.0 105.0,112.5 105.0,100.0 L 100.0,100.0 Z" style="fill: rgb(217, 217, 38); stroke-width: 1px; stroke: none;"/>
<path clip-path="url(#contour)" d="M 150.0,100.0 C 150.0,115.0 160.0,125.0 175.0,125.0 C 189.99951171875,125.0 199.99935913085938,115.00064849853516 200.0,100.00144958496094 L 200.0,100.00144958496094 C 200.0,100.00096893310547 200.0,100.00048065185547 200.0,100.0 L 195.0,100.0 C 195.0,112.5 187.5,120.0 175.0,120.0 C 162.5,120.0 155.0,112.5 155.0,100.0 L 150.0,100.0 Z" style="fill: rgb(217, 217, 38); stroke-width: 1px; stroke: none;"/>
<path clip-path="url(#contour)" d="M 20.0,125.0 C 20.0,133.8299102783203 16.257568359375,140.1648712158203 9.653914451599121,143.1236572265625 L 9.653914451599121,143.1236572265625 C 10.317426681518555,144.60964965820312 11.013284683227539,146.0901336669922 11.740904808044434,147.56454467773438 L 11.740904808044434,147.56454467773438 C 19.98912239074707,143.7308349609375 25.0,135.61813354492188 25.0,125.0 L 20.0,125.0 Z" style="fill: rgb(217, 217, 38); stroke-width: 1px; stroke: none;"/>
<path clip-path="url(#contour)" d="M 25.0,125.0 C 25.0,140.0 35.0,150.0 50.0,150.0 C 65.0,150.0 75.0,140.0 75.0,125.0 L 70.0,125.0 C 70.0,137.5 62.5,145.0 50.0,145.0 C 37.5,145.0 30.0,137.5 30.0,125.0 L 25.0,125.0 Z" style="fill: rgb(217, 217, 38); stroke-width: 1px; stroke: none;"/>
<path clip-path="url(#contour)" d="M 75.0,125.0 C 75.0,140.0 85.0,150.0 100.0,150.0 C 115.0,150.0 125.0,140.0 125.0,125.0 L 120.0,125.0 C 120.0,137.5 112.5,145.0 100.0,145.0 C 87.5,145.0 80.0,137.5 80.0,125.0 L 75.0,125.0 Z" style="fill: rgb(217, 217, 38); stroke-width: 1px; stroke: none;"/>
<path clip-path="url(#contour)" d="M 125.0,125.0 C 125.0,140.0 135.0,150.0 150.0,150.0 C 165.0,150.0 175.0,140.0 175.0,125.0 L 170.0,125.0 C 170.0,137.5 162.5,145.0 150.0,145.0 C 137.5,145.0 130.0,137.5 130.0,125.0 L 125.0,125.0 Z" style="fill: rgb(217, 217, 38); stroke-width: 1px; stroke: none;"/>
<path clip-path="url(#contour)" d="M 175.0,125.0 C 175.0,135.61813354492188 180.01087951660156,143.7308349609375 188.25909423828125,147.56454467773438 L 188.25909423828125,147.56454467773438 C 188.98670959472656,146.0901336669922 189.6825714111328,144.60964965820312 190.34608459472656,143.1236572265625 L 190.34608459472656,143.1236572265625 C 183.742431640625,140.1648712158203 180.0,133.8299102783203 180.0,125.0 L 175.0,125.0 Z" style="fill: rgb(217, 217, 38); stroke-width: 1px; stroke: none;"/>
<path clip-path="url(#contour)" d="M 45.0,150.0 C 45.0,162.30209350585938 37.735599517822266,169.76126098632812 25.58993148803711,169.99436950683594 L 25.58993148803711,169.99436950683594 C 26.77490234375,171.5807647705078 27.99701499938965,173.1553955078125 29.255413055419922,174.71737670898438 L 29.255413055419922,174.71737670898438 C 41.861454010009766,172.99488830566406 50.0,163.53208923339844 50.0,150.0 L 45.0,150.0 Z" style="fill: rgb(217, 217, 38); stroke-width: 1px; stroke: none;"/>
<path clip-path="url(#contour)" d="M 50.0,150.0 C 50.0,165.0 60.0,175.0 75.0,175.0 C 90.0,175.0 100.0,165.0 100.0,150.0 L 95.0,150.0 C 95.0,162.5 87.5,170.0 75.0,170.0 C 62.5,170.0 55.0,162.5 55.0,150.0 L 50.0,150.0 Z" style="fill: rgb(217, 217, 38); stroke-width: 1px; stroke: none;"/>
<path clip-path="url(#contour)" d="M 100.0,150.0 C 100.0,165.0 110.0,175.0 125.0,175.0 C 140.0,175.0 150.0,165.0 150.0,150.0 L 145.0,150.0 C 145.0,162.5 137.5,170.0 125.0,170.0 C 112.5,170.0 105.0,162.5 105.0,150.0 L 100.0,150.0 Z" style="fill: rgb(217, 217, 38); stroke-width: 1px; stroke: none;"/>
<path clip-path="url(#contour)" d="M 150.0,150.0 C 150.0,163.53208923339844 158.1385498046875,172.99488830566406 170.7445831298828,174.71737670898438 L 170.7445831298828,174.71737670898438 C 172.00299072265625,173.1553955078125 173.22509765625,171.5807647705078 174.41006469726562,169.99436950683594 L 174.41006469726562,169.99436950683594 C 162.264404296875,169.76126098632812 155.0,162.30209350585938 155.0,150.0 L 150.0,150.0 Z" style="fill: rgb(217, 217, 38); stroke-width: 1px; stroke: none;"/>
<path clip-path="url(#contour)" d="M 29.48360824584961,175.0 L 29.48360824584961,175.0 C 29.65728759765625,175.21461486816406 29.831653594970703,175.4290008544922 30.00670051574707,175.6431427001953 L 30.006698608398438,175.6431427001953 C 30.00223731994629,175.43026733398438 30.0,175.21588134765625 30.0,175.0 L 29.48360824584961,175.0 Z" style="fill: rgb(217, 217, 38); stroke-width: 1px; stroke: none;"/>
<path clip-path="url(#contour)" d="M 70.0,175.0 C 70.0,187.5 62.5,195.0 50.0,195.0 C 49.445823669433594,195.0 48.90147399902344,194.98526000976562 48.36717224121094,194.95599365234375 L 48.367164611816406,194.95599365234375 C 50.14933395385742,196.5828399658203 51.97342300415039,198.18838500976562 53.83818435668945,199.7713623046875 L 53.83818435668945,199.7713623046875 C 66.68158721923828,198.202392578125 75.0,188.68080139160156 75.0,175.0 L 29.48360824584961,175.0 Z" style="fill: rgb(217, 217, 38); stroke-width: 1px; stroke: none;"/>
<path clip-path="url(#contour)" d="M 75.0,175.0 C 75.0,190.0 85.0,200.0 100.0,200.0 C 115.0,200.0 125.0,190.0 125.0,175.0 L 120.0,175.0 C 120.0,187.5 112.5,195.0 100.0,195.0 C 87.5,195.0 80.0,187.5 80.0,175.0 L 75.0,175.0 Z" style="fill: rgb(217, 217, 38); stroke-width: 1px; stroke: none;"/>
<path clip-path="url(#contour)" d="M 170.0,175.0 C 170.0,175.21588134765625 169.9977569580078,175.43026733398438 169.99330139160156,175.6431427001953 L 169.99330139160156,175.6431427001953 C 170.16835021972656,175.4290008544922 170.34271240234375,175.21461486816406 170.51638793945312,175.0 L 170.0,175.0 Z" style="fill: rgb(217, 217, 38); stroke-width: 1px; stroke: none;"/>
<path clip-path="url(#contour)" d="M 125.0,175.0 C 125.0,188.68080139160156 133.3184051513672,198.202392578125 146.1618194580078,199.7713623046875 L 146.1618194580078,199.7713623046875 C 148.02658081054688,198.18838500976562 149.8506622314453,196.5828399658203 151.63282775878906,194.95599365234375 L 151.63282775878906,194.95599365234375 C 151.09852600097656,194.98526000976562 150.55418395996094,195.0 150.0,195.0 C 137.5,195.0 130.0,187.5 130.0,175.0 L 170.0,175.0 Z" style="fill: rgb(217, 217, 38); stroke-width: 1px; stroke: none;"/>
<path clip-path="url(#contour)" d="M 54.10798645019531,200.0 C 54.40739440917969,200.25328063964844 54.70784378051758,200.5059814453125 55.00932693481445,200.7581024169922 L 55.00932693481445,200.7581024169922 C 55.003116607666016,200.5074920654297 55.0,200.25479125976562 55.0,200.0 L 54.10798645019531,200.0 Z" style="fill: rgb(217, 217, 38); stroke-width: 1px; stroke: none;"/>
<path clip-path="url(#contour)" d="M 95.0,200.0 C 95.0,210.3860626220703 89.82222747802734,217.3202667236328 80.90072631835938,219.36859130859375 L 80.90072631835938,219.36859130859375 C 82.72840118408203,220.49697875976562 84.58028411865234,221.60597229003906 86.45567321777344,222.69483947753906 L 86.45567321777344,222.69483947753906 C 94.87345886230469,218.91668701171875 100.0,210.73997497558594 100.0,200.0 L 54.10798645019531,200.0 Z" style="fill: rgb(217, 217, 38); stroke-width: 1px; stroke: none;"/>
<path clip-path="url(#contour)" d="M 145.0,200.0 C 145.0,200.25479125976562 144.99688720703125,200.5074920654297 144.9906768798828,200.7581024169922 L 144.9906768798828,200.7581024169922 C 145.2921600341797,200.5059814453125 145.5926055908203,200.25328063964844 145.8920135498047,200.0 L 145.0,200.0 Z" style="fill: rgb(217, 217, 38); stroke-width: 1px; stroke: none;"/>
<path clip-path="url(#contour)" d="M 100.0,200.0 C 100.0,210.73997497558594 105.12654113769531,218.91668701171875 113.54432678222656,222.69483947753906 L 113.54432678222656,222.69483947753906 C 115.41971588134766,221.60597229003906 117.27159881591797,220.49697875976562 119.09927368164062,219.36859130859375 L 119.09927368164062,219.36859130859375 C 110.17777252197266,217.3202667236328 105.0,210.3860626220703 105.0,200.0 L 145.0,200.0 Z" style="fill: rgb(217, 217, 38); stroke-width: 1px; stroke: none;"/>
<path clip-path="url(#contour)" d="M 0.0,0.0 L 200.0,0.0 L 200.0,100.0 C 200.0,150.0 160.0,200.0 100.0,230.0 C 40.0,200.0 0.0,150.0 0.0,100.0 L 0.0,0.0 Z" style="fill: none; stroke-width: 1px; stroke: rgb(0, 0, 0);"/>
</g>
</svg>
