<?xml version="1.0" encoding="UTF-8" standalone="no"?>
<svg xmlns="http://www.w3.org/2000/svg" height="246.0" width="216.0">
<defs>
<clipPath id="contour">
<path d="M 8.0,8.0 L 208.0,8.0 L 208.0,108.0 C 208.0,158.0 168.0,208.0 108.0,238.0 C 48.0,208.0 8.0,158.0 8.0,108.0 L 8.0,8.0 Z"/>
</clipPath>
<radialGradient id="lighting">
<stop offset="25%" stop-color="white" stop-opacity="35%"/>
<stop offset="100%" stop-color="white" stop-opacity="0%"/>
</radialGradient>
</defs>
<g>
<path d="M 8.0,8.0 L 8.0,108.0 L 108.0,108.0 L 108.0,8.0 L 8.0,8.0 Z" style="fill: rgb(230, 230, 230); stroke-width: 1px; stroke: none;"/>
<path d="M 108.0,8.0 L 108.0,108.0 L 208.0,108.0 L 208.0,8.0 L 108.0,8.0 Z" style="fill: rgb(217, 38, 38); stroke-width: 1px; stroke: none;"/>
<path d="M 108.0,8.0 L 108.0,18.0 L 130.33333587646484,40.33333206176758 L 140.3333282470703,30.33333396911621 L 118.0,8.0 L 108.0,8.0 Z" style="fill: rgb(217, 217, 38); stroke-width: 1px; stroke: none;"/>
<path d="M 152.3333282470703,42.33333206176758 L 142.3333282470703,52.33333206176758 L 163.6666717529297,73.66666412353516 L 173.6666717529297,63.66666793823242 L 152.3333282470703,42.33333206176758 L 152.3333282470703,42.33333206176758 Z" style="fill: rgb(217, 217, 38); stroke-width: 1px; stroke: none;"/>
<path d="M 185.6666717529297,75.66666412353516 L 175.6666717529297,85.66666412353516 L 198.0,108.0 L 208.0,108.0 L 208.0,98.0 L 185.6666717529297,75.66666412353516 L 185.6666717529297,75.66666412353516 Z" style="fill: rgb(217, 217, 38); stroke-width: 1px; stroke: none;"/>
<path d="M 198.0,8.0 L 159.0,47.0 L 169.0,57.0 L 208.0,18.0 L 208.0,8.0 L 198.0,8.0 Z" style="fill: rgb(217, 217, 38); stroke-width: 1px; stroke: none;"/>
<path d="M 147.0,59.0 L 108.0,98.0 L 108.0,108.0 L 118.0,108.0 L 157.0,69.0 L 147.0,59.0 L 147.0,59.0 Z" style="fill: rgb(217, 217, 38); stroke-width: 1px; stroke: none;"/>
<path d="M 158.0,14.666666507720947 L 114.66666412353516,58.0 L 130.33333587646484,73.66666412353516 L 140.3333282470703,63.66666793823242 L 134.66666412353516,58.0 L 158.0,34.66666603088379 L 163.6666717529297,40.33333206176758 L 173.6666717529297,30.33333396911621 L 158.0,14.666666507720947 L 158.0,14.666666507720947 Z" style="fill: rgb(217, 217, 38); stroke-width: 1px; stroke: none;"/>
<path d="M 185.6666717529297,42.33333206176758 L 175.6666717529297,52.33333206176758 L 181.3333282470703,58.0 L 158.0,81.33333587646484 L 152.3333282470703,75.66666412353516 L 142.3333282470703,85.66666412353516 L 158.0,101.33333587646484 L 201.3333282470703,58.0 L 185.6666717529297,42.33333206176758 L 185.6666717529297,42.33333206176758 Z" style="fill: rgb(217, 217, 38); stroke-width: 1px; stroke: none;"/>
<path d="M 108.0,108.0 L 108.0,238.0 C 168.0,208.0 208.0,158.0 208.0,108.0 L 108.0,108.0 Z" style="fill: rgb(230, 230, 230); stroke-width: 1px; stroke: none;"/>
<path d="M 8.0,108.0 C 8.0,158.0 48.0,208.0 108.0,238.0 L 108.0,108.0 L 8.0,108.0 Z" style="fill: rgb(217, 38, 38); stroke-width: 1px; stroke: none;"/>
<path d="M 8.0,108.0 C 8.0,111.5330581665039 8.199719578027725,115.06610870361328 8.592102527618408,118.59210968017578 L 8.5921071767807,118.59210968017578 L 30.33333396911621,140.3333282470703 L 40.33333206176758,130.33333587646484 L 18.0,108.0 L 8.0,108.0 Z" style="fill: rgb(217, 217, 38); stroke-width: 1px; stroke: none;"/>
<path d="M 52.33333206176758,142.3333282470703 L 42.33333206176758,152.3333282470703 L 63.66666793823242,173.6666717529297 L 73.66666412353516,163.6666717529297 L 52.33333206176758,142.3333282470703 L 52.33333206176758,142.3333282470703 Z" style="fill: rgb(217, 217, 38); stroke-width: 1px; stroke: none;"/>
<path d="M 85.66666412353516,175.6666717529297 L 75.66666412353516,185.6666717529297 L 108.0,218.0 L 108.0,198.0 L 85.66666412353516,175.6666717529297 L 85.66666412353516,175.6666717529297 Z" style="fill: rgb(217, 217, 38); stroke-width: 1px; stroke: none;"/>
<path d="M 98.0,108.0 L 59.0,147.0 L 69.0,157.0 L 108.0,118.0 L 108.0,108.0 L 98.0,108.0 Z" style="fill: rgb(217, 217, 38); stroke-width: 1px; stroke: none;"/>
<path d="M 47.0,159.0 L 31.238300323486328,174.76170349121094 L 31.238300323486328,174.76170349121094 C 33.94276809692383,178.5808868408203 36.861637115478516,182.33641052246094 39.983314514160156,186.01669311523438 L 39.983314514160156,186.01669311523438 L 57.0,169.0 L 47.0,159.0 L 47.0,159.0 Z" style="fill: rgb(217, 217, 38); stroke-width: 1px; stroke: none;"/>
<path d="M 58.0,114.66666412353516 L 18.880227088928223,153.78643798828125 L 18.880227088928223,153.78643798828125 C 22.078908920288086,160.526123046875 25.94183921813965,167.14434814453125 30.413957595825195,173.58604431152344 L 30.413957595825195,173.58604431152344 L 40.33333206176758,163.6666717529297 L 34.66666603088379,158.0 L 58.0,134.66666412353516 L 63.66666793823242,140.3333282470703 L 73.66666412353516,130.33333587646484 L 58.0,114.66666412353516 L 58.0,114.66666412353516 Z" style="fill: rgb(217, 217, 38); stroke-width: 1px; stroke: none;"/>
<path d="M 85.66666412353516,142.3333282470703 L 75.66666412353516,152.3333282470703 L 81.33333587646484,158.0 L 58.0,181.3333282470703 L 52.33333206176758,175.6666717529297 L 42.33333206176758,185.6666717529297 L 58.0,201.3333282470703 L 101.33333587646484,158.0 L 85.66666412353516,142.3333282470703 L 85.66666412353516,142.3333282470703 Z" style="fill: rgb(217, 217, 38); stroke-width: 1px; stroke: none;"/>
<path d="M 8.0,8.0 L 8.0,29.21320343017578 L 170.74252319335938,191.95571899414062 L 170.74252319335938,191.95571899414062 C 177.8382110595703,184.31600952148438 184.04647827148438,176.3079833984375 189.25607299804688,168.04286193847656 L 189.25607299804688,168.04286193847656 L 29.21320343017578,8.0 L 8.0,8.0 Z" style="fill: rgb(38, 38, 38); stroke-width: 1px; stroke: none;"/>
<path d="M 95.19629328212355,96.69668199024744 L 101.19629328212355,96.69668199024744 L 101.19629328212355,102.69668199024744 L 95.19629328212355,102.69668199024744 L 95.19629328212355,96.69668199024744 Z" style="fill: none; stroke-width: 1px; stroke: rgb(0, 255, 255);"/>
<path d="M 38.49084583292753,38.721909565475784 L 44.49084583292753,38.721909565475784 L 44.49084583292753,44.721909565475784 L 38.49084583292753,44.721909565475784 L 38.49084583292753,38.721909565475784 Z" style="fill: none; stroke-width: 1px; stroke: rgb(0, 255, 255);"/>
<path d="M 150.01284324746845,150.48709352871398 L 156.01284324746845,150.48709352871398 L 156.01284324746845,156.48709352871398 L 150.01284324746845,156.48709352871398 L 150.01284324746845,150.48709352871398 Z" style="fill: none; stroke-width: 1px; stroke: rgb(0, 255, 255);"/>
<path d="M 8.0,8.0 L 208.0,8.0 L 208.0,108.0 C 208.0,158.0 168.0,208.0 108.0,238.0 C 48.0,208.0 8.0,158.0 8.0,108.0 L 8.0,8.0 Z" style="fill: none; stroke-width: 1px; stroke: rgb(0, 0, 0);"/>
</g>
<rect clip-path="url(#contour)" fill="url(#lighting)" height="246.0" width="216.0" x="0.0" y="0.0"/>
</svg>
