<?xml version="1.0" encoding="UTF-8" standalone="no"?>
<svg xmlns="http://www.w3.org/2000/svg" height="246.0" width="216.0">
<defs>
<clipPath id="contour">
<path d="M 8.0,8.0 L 208.0,8.0 L 208.0,108.0 C 208.0,158.0 168.0,208.0 108.0,238.0 C 48.0,208.0 8.0,158.0 8.0,108.0 L 8.0,8.0 Z"/>
</clipPath>
<radialGradient id="lighting">
<stop offset="25%" stop-color="white" stop-opacity="35%"/>
<stop offset="100%" stop-color="white" stop-opacity="0%"/>
</radialGradient>
</defs>
<g transform="translate(8.0,8.0)">
<path d="M 0.0,0.0 L 0.0,28.75 L 28.75,28.75 L 28.75,0.0 L 0.0,0.0 Z" style="fill: rgb(230, 230, 230); stroke-width: 1px; stroke: none;"/>
<path d="M 28.75,0.0 L 28.75,28.75 L 57.5,28.75 L 57.5,0.0 L 28.75,0.0 Z" style="fill: rgb(38, 38, 38); stroke-width: 1px; stroke: none;"/>
<path d="M 57.5,0.0 L 57.5,28.75 L 86.25,28.75 L 86.25,0.0 L 57.5,0.0 Z" style="fill: rgb(230, 230, 230); stroke-width: 1px; stroke: none;"/>
<path d="M 86.25,0.0 L 86.25,28.75 L 100.0,28.75 L 100.0,0.0 L 86.25,0.0 Z" style="fill: rgb(38, 38, 38); stroke-width: 1px; stroke: none;"/>
<path d="M 0.0,28.75 L 0.0,57.5 L 28.75,57.5 L 28.75,28.75 L 0.0,28.75 Z" style="fill: rgb(38, 38, 38); stroke-width: 1px; stroke: none;"/>
<path d="M 28.75,28.75 L 28.75,57.5 L 57.5,57.5 L 57.5,28.75 L 28.75,28.75 Z" style="fill: rgb(230, 230, 230); stroke-width: 1px; stroke: none;"/>
<path d="M 57.5,28.75 L 57.5,57.5 L 86.25,57.5 L 86.25,28.75 L 57.5,28.75 Z" style="fill: rgb(38, 38, 38); stroke-width: 1px; stroke: none;"/>
<path d="M 86.25,28.75 L 86.25,57.5 L 100.0,57.5 L 100.0,28.75 L 86.25,28.75 Z" style="fill: rgb(230, 230, 230); stroke-width: 1px; stroke: none;"/>
<path d="M 0.0,57.5 L 0.0,86.25 L 28.75,86.25 L 28.75,57.5 L 0.0,57.5 Z" style="fill: rgb(230, 230, 230); stroke-width: 1px; stroke: none;"/>
<path d="M 28.75,57.5 L 28.75,86.25 L 57.5,86.25 L 57.5,57.5 L 28.75,57.5 Z" style="fill: rgb(38, 38, 38); stroke-width: 1px; stroke: none;"/>
<path d="M 57.5,57.5 L 57.5,86.25 L 86.25,86.25 L 86.25,57.5 L 57.5,57.5 Z" style="fill: rgb(230, 230, 230); stroke-width: 1px; stroke: none;"/>
<path d="M 86.25,57.5 L 86.25,86.25 L 100.0,86.25 L 100.0,57.5 L 86.25,57.5 Z" style="fill: rgb(38, 38, 38); stroke-width: 1px; stroke: none;"/>
<path d="M 0.0,86.25 L 0.0,100.0 L 28.75,100.0 L 28.75,86.25 L 0.0,86.25 Z" style="fill: rgb(38, 38, 38); stroke-width: 1px; stroke: none;"/>
<path d="M 28.75,86.25 L 28.75,100.0 L 57.5,100.0 L 57.5,86.25 L 28.75,86.25 Z" style="fill: rgb(230, 230, 230); stroke-width: 1px; stroke: none;"/>
<path d="M 57.5,86.25 L 57.5,100.0 L 86.25,100.0 L 86.25,86.25 L 57.5,86.25 Z" style="fill: rgb(38, 38, 38); stroke-width: 1px; stroke: none;"/>
<path d="M 86.25,86.25 L 86.25,100.0 L 100.0,100.0 L 100.0,86.25 L 86.25,86.25 Z" style="fill: rgb(230, 230, 230); stroke-width: 1px; stroke: none;"/>
<path d="M 100.0,0.0 L 100.0,100.0 L 200.0,100.0 L 200.0,0.0 L 100.0,0.0 Z" style="fill: rgb(217, 38, 38); stroke-width: 1px; stroke: none;"/>
<path d="M 100.0,100.0 L 100.0,128.75 L 128.75,128.75 L 128.75,100.0 L 100.0,100.0 Z" style="fill: rgb(230, 230, 230); stroke-width: 1px; stroke: none;"/>
<path d="M 128.75,100.0 L 128.75,128.75 L 157.5,128.75 L 157.5,100.0 L 128.75,100.0 Z" style="fill: rgb(38, 38, 38); stroke-width: 1px; stroke: none;"/>
<path d="M 157.5,100.0 L 157.5,128.75 L 186.25,128.75 L 186.25,100.0 L 157.5,100.0 Z" style="fill: rgb(230, 230, 230); stroke-width: 1px; stroke: none;"/>
<path d="M 186.25,100.0 L 186.25,128.75 L 195.69065856933594,128.75 C 198.5159149169922,119.26195526123047 200.0,109.63097381591797 200.0,100.0 L 186.25,100.0 Z" style="fill: rgb(38, 38, 38); stroke-width: 1px; stroke: none;"/>
<path d="M 100.0,128.75 L 100.0,157.5 L 128.75,157.5 L 128.75,128.75 L 100.0,128.75 Z" style="fill: rgb(38, 38, 38); stroke-width: 1px; stroke: none;"/>
<path d="M 128.75,128.75 L 128.75,157.5 L 157.5,157.5 L 157.5,128.75 L 128.75,128.75 Z" style="fill: rgb(230, 230, 230); stroke-width: 1px; stroke: none;"/>
<path d="M 157.5,128.75 L 157.5,157.5 L 182.82241821289062,157.5 C 184.02366638183594,155.503662109375 185.1667022705078,153.4931640625 186.25,151.4700469970703 L 186.25,151.4700469970703 L 186.25,128.75 L 157.5,128.75 Z" style="fill: rgb(38, 38, 38); stroke-width: 1px; stroke: none;"/>
<path d="M 186.25,128.75 L 186.25,151.4700469970703 L 186.25,151.4700469970703 C 190.22772216796875,144.04144287109375 193.40000915527344,136.4427032470703 195.69065856933594,128.75 L 186.25,128.75 Z" style="fill: rgb(230, 230, 230); stroke-width: 1px; stroke: none;"/>
<path d="M 100.0,157.5 L 100.0,186.25 L 128.75,186.25 L 128.75,157.5 L 100.0,157.5 Z" style="fill: rgb(230, 230, 230); stroke-width: 1px; stroke: none;"/>
<path d="M 128.75,157.5 L 128.75,186.25 L 157.5,186.25 L 157.5,157.5 L 128.75,157.5 Z" style="fill: rgb(38, 38, 38); stroke-width: 1px; stroke: none;"/>
<path d="M 157.5,157.5 L 157.5,186.25 L 160.5742950439453,186.25 C 169.32261657714844,177.15121459960938 176.80319213867188,167.50335693359375 182.82241821289062,157.5 L 157.5,157.5 Z" style="fill: rgb(230, 230, 230); stroke-width: 1px; stroke: none;"/>
<path d="M 100.0,186.25 L 100.0,215.0 L 125.9095230102539,215.0 C 126.86372375488281,214.36419677734375 127.81059265136719,213.7229766845703 128.75,213.07647705078125 L 128.75,213.07647705078125 L 128.75,186.25 L 100.0,186.25 Z" style="fill: rgb(38, 38, 38); stroke-width: 1px; stroke: none;"/>
<path d="M 128.75,186.25 L 128.75,213.07647705078125 L 128.75,213.07647705078125 C 139.33389282226562,205.7926025390625 148.97145080566406,197.8372344970703 157.5,189.37307739257812 L 157.5,189.37307739257812 L 157.5,186.25 L 128.75,186.25 Z" style="fill: rgb(230, 230, 230); stroke-width: 1px; stroke: none;"/>
<path d="M 157.5,186.25 L 157.5,189.37307739257812 L 157.5,189.37307739257812 C 158.54139709472656,188.33953857421875 159.56626892089844,187.2984161376953 160.5742950439453,186.25 L 157.5,186.25 Z" style="fill: rgb(38, 38, 38); stroke-width: 1px; stroke: none;"/>
<path d="M 100.0,215.0 L 100.0,230.0 C 109.12224578857422,225.43887329101562 117.78218078613281,220.4154510498047 125.9095230102539,215.0 L 100.0,215.0 Z" style="fill: rgb(230, 230, 230); stroke-width: 1px; stroke: none;"/>
<path d="M 0.0,100.0 C 0.0,150.0 40.0,200.0 100.0,230.0 L 100.0,100.0 L 0.0,100.0 Z" style="fill: rgb(217, 38, 38); stroke-width: 1px; stroke: none;"/>
<path d="M 0.0,0.0 L 200.0,0.0 L 200.0,100.0 C 200.0,150.0 160.0,200.0 100.0,230.0 C 40.0,200.0 0.0,150.0 0.0,100.0 L 0.0,0.0 Z" style="fill: none; stroke-width: 1px; stroke: rgb(0, 0, 0);"/>
</g>
<rect clip-path="url(#contour)" fill="url(#lighting)" height="246.0" width="216.0" x="0.0" y="0.0"/>
</svg>
