<?xml version="1.0" encoding="UTF-8" standalone="no"?>
<svg xmlns="http://www.w3.org/2000/svg" height="246.0" width="216.0">
<defs>
<clipPath id="contour">
<path d="M 0.0,0.0 L 200.0,0.0 L 200.0,100.0 C 200.0,150.0 160.0,200.0 100.0,230.0 C 40.0,200.0 0.0,150.0 0.0,100.0 L 0.0,0.0 Z"/>
</clipPath>
<radialGradient id="lighting">
<stop offset="25%" stop-color="white" stop-opacity="35%"/>
<stop offset="100%" stop-color="white" stop-opacity="0%"/>
</radialGradient>
</defs>
<g transform="translate(8.0,8.0)">
<path clip-path="url(#contour)" comment="BarryVariationRenderer background" d="M 0.0,0.0 L 200.0,0.0 L 200.0,100.0 C 200.0,150.0 160.0,200.0 100.0,230.0 C 40.0,200.0 0.0,150.0 0.0,100.0 L 0.0,0.0 Z" style="fill: rgb(217, 217, 38); stroke-width: 1px; stroke: none;"/>
<path clip-path="url(#contour)" comment="clipped barry 28.75" d="M 0.0,28.75 L 0.0,57.5 L 200.0,57.5 L 200.0,28.75 L 0.0,28.75 Z" style="fill: rgb(38, 64, 204); stroke-width: 1px; stroke: none;"/>
<path clip-path="url(#contour)" comment="clipped barry 86.25" d="M 0.0,86.25 L 0.0,100.0 C 0.0,105.0066909790039 0.4010716676712036,110.01338958740234 1.1831345558166504,115.0 L 198.81686401367188,115.0 C 199.5989227294922,110.01338958740234 200.0,105.0066909790039 200.0,100.0 L 200.0,86.25 L 0.0,86.25 Z" style="fill: rgb(38, 64, 204); stroke-width: 1px; stroke: none;"/>
<path clip-path="url(#contour)" comment="clipped barry 143.75" d="M 9.935644149780273,143.75 C 14.416110038757324,153.63848876953125 20.328250885009766,163.2791748046875 27.5,172.5 L 172.5,172.5 C 179.6717529296875,163.2791748046875 185.58389282226562,153.63848876953125 190.06436157226562,143.75 L 9.935644149780273,143.75 Z" style="fill: rgb(38, 64, 204); stroke-width: 1px; stroke: none;"/>
<path clip-path="url(#contour)" comment="clipped barry 201.25" d="M 55.599761962890625,201.25 C 68.6244125366211,212.06036376953125 83.56159210205078,221.78079223632812 100.0,230.0 C 116.43840789794922,221.78079223632812 131.37557983398438,212.06036376953125 144.40023803710938,201.25 L 55.599761962890625,201.25 Z" style="fill: rgb(38, 64, 204); stroke-width: 1px; stroke: none;"/>
<path clip-path="url(#contour)" comment="Chief FieldBackground" d="M 0.0,0.0 L 0.0,57.5 L 200.0,57.5 L 200.0,0.0 L 0.0,0.0 Z" style="fill: rgb(217, 217, 38); stroke-width: 1px; stroke: none;"/>
<path clip-path="url(#contour)" comment="Gyron FieldBackground" d="M 0.0,0.0 L 0.0,19.16666603088379 L 19.16666603088379,19.16666603088379 L 0.0,0.0 Z" style="fill: rgb(38, 64, 204); stroke-width: 1px; stroke: none;"/>
<path clip-path="url(#contour)" comment="Pallet FieldBackground" d="M 71.25,0.0 L 71.25,57.5 L 86.25,57.5 L 86.25,0.0 L 71.25,0.0 Z" style="fill: rgb(38, 64, 204); stroke-width: 1px; stroke: none;"/>
<path clip-path="url(#contour)" comment="Pallet FieldBackground" d="M 113.75,0.0 L 113.75,57.5 L 128.75,57.5 L 128.75,0.0 L 113.75,0.0 Z" style="fill: rgb(38, 64, 204); stroke-width: 1px; stroke: none;"/>
<path clip-path="url(#contour)" comment="Gyron sinister FieldBackground" d="M 200.0,0.0 L 180.8333282470703,19.16666603088379 L 200.0,19.16666603088379 L 200.0,0.0 Z" style="fill: rgb(38, 64, 204); stroke-width: 1px; stroke: none;"/>
<path clip-path="url(#contour)" comment="FieldBackground" d="M 0.0,-15.0 L 200.0,-15.0 L 200.0,85.0 C 200.0,135.0 160.0,185.0 100.0,215.0 C 40.0,185.0 0.0,135.0 0.0,85.0 L 0.0,-15.0 Z" style="fill: rgb(230, 230, 230); stroke-width: 1px; stroke: none;"/>
<path clip-path="url(#contour)" comment="inescutcheon border" d="M 0.0,-15.0 L 200.0,-15.0 L 200.0,85.0 C 200.0,135.0 160.0,185.0 100.0,215.0 C 40.0,185.0 0.0,135.0 0.0,85.0 L 0.0,-15.0 Z" style="fill: none; stroke-width: 1px; stroke: rgb(0, 0, 0);"/>
<path clip-path="url(#contour)" comment="outer shield shape border" d="M 0.0,0.0 L 200.0,0.0 L 200.0,100.0 C 200.0,150.0 160.0,200.0 100.0,230.0 C 40.0,200.0 0.0,150.0 0.0,100.0 L 0.0,0.0 Z" style="fill: none; stroke-width: 1px; stroke: rgb(0, 0, 0);"/>
</g>
</svg>
