<?xml version="1.0" encoding="UTF-8" standalone="no"?>
<svg xmlns="http://www.w3.org/2000/svg" height="246.0" width="216.0">
<defs>
<clipPath id="contour">
<path d="M 8.0,8.0 L 208.0,8.0 L 208.0,108.0 C 208.0,158.0 168.0,208.0 108.0,238.0 C 48.0,208.0 8.0,158.0 8.0,108.0 L 8.0,8.0 Z"/>
</clipPath>
<radialGradient id="lighting">
<stop offset="25%" stop-color="white" stop-opacity="35%"/>
<stop offset="100%" stop-color="white" stop-opacity="0%"/>
</radialGradient>
</defs>
<g>
<path d="M 8.0,8.0 L 208.0,8.0 L 208.0,108.0 C 208.0,158.0 168.0,208.0 108.0,238.0 C 48.0,208.0 8.0,158.0 8.0,108.0 L 8.0,8.0 Z" style="fill: rgb(217, 217, 38); stroke-width: 1px; stroke: none;"/>
<path d="M 8.0,8.0 L 8.0,11.725830078125 L -0.6485385894775391,11.725830078125 L 8.190296113491058,11.725830078125 L 8.190296113491058,29.403499603271484 L 8.190296113491058,47.08116912841797 L 43.54563522338867,47.08116912841797 L 43.54563522338867,64.75883865356445 L 43.54563522338867,82.43650817871094 L 78.90097045898438,82.43650817871094 L 78.90097045898438,100.11417388916016 L 78.90097045898438,117.7918472290039 L 114.25630950927734,117.7918472290039 L 114.25630950927734,135.46951293945312 L 114.25630950927734,153.14718627929688 L 131.9339828491211,153.14718627929688 L 149.6116485595703,153.14718627929688 L 149.6116485595703,170.82485961914062 L 149.6116485595703,188.5025177001953 L 167.28932189941406,188.5025177001953 L 184.9669952392578,188.5025177001953 L 173.8672332763672,188.5025177001953 C 180.9002227783203,180.5221405029297 186.97393798828125,172.16859436035156 191.96681213378906,163.56349182128906 L 184.77670288085938,163.56349182128906 L 167.09902954101562,163.56349182128906 L 167.09902954101562,145.8858184814453 L 167.09902954101562,128.2081527709961 L 149.42135620117188,128.2081527709961 L 131.74369049072266,128.2081527709961 L 131.74369049072266,110.53048706054688 L 131.74369049072266,92.85281372070312 L 96.38835144042969,92.85281372070312 L 96.38835144042969,75.1751480102539 L 96.38835144042969,57.497474670410156 L 78.71067810058594,57.497474670410156 L 61.03300857543945,57.497474670410156 L 61.03300857543945,39.81980514526367 L 61.03300857543945,22.142135620117188 L 43.35533905029297,22.142135620117188 L 25.677669525146484,22.142135620117188 L 25.677669525146484,8.0 L 8.0,8.0 Z" style="fill: rgb(38, 38, 217); stroke-width: 1px; stroke: none;"/>
<path d="M 8.0,8.0 L 208.0,8.0 L 208.0,108.0 C 208.0,158.0 168.0,208.0 108.0,238.0 C 48.0,208.0 8.0,158.0 8.0,108.0 L 8.0,8.0 Z" style="fill: none; stroke-width: 1px; stroke: rgb(0, 0, 0);"/>
</g>
<rect clip-path="url(#contour)" fill="url(#lighting)" height="246.0" width="216.0" x="0.0" y="0.0"/>
</svg>
