<?xml version="1.0" encoding="UTF-8" standalone="no"?>
<svg xmlns="http://www.w3.org/2000/svg" height="246.0" width="216.0">
<defs>
<clipPath id="contour">
<path d="M 8.0,8.0 L 208.0,8.0 L 208.0,108.0 C 208.0,158.0 168.0,208.0 108.0,238.0 C 48.0,208.0 8.0,158.0 8.0,108.0 L 8.0,8.0 Z"/>
</clipPath>
<radialGradient id="lighting">
<stop offset="25%" stop-color="white" stop-opacity="35%"/>
<stop offset="100%" stop-color="white" stop-opacity="0%"/>
</radialGradient>
</defs>
<g transform="translate(8.0,8.0)">
<path d="M 0.0,0.0 L 200.0,0.0 L 200.0,100.0 C 200.0,150.0 160.0,200.0 100.0,230.0 C 40.0,200.0 0.0,150.0 0.0,100.0 L 0.0,0.0 Z" style="fill: rgb(217, 38, 38); stroke-width: 1px; stroke: none;"/>
<path d="M 0.0,0.0 L 0.0,21.21320343017578 L 78.78679656982422,100.0 L 18.74393081665039,160.04286193847656 L 18.74393081665039,160.04286193847656 C 23.953516006469727,168.3079833984375 30.161781311035156,176.31600952148438 37.25748062133789,183.95571899414062 L 37.25748062133789,183.95571899414062 L 100.0,121.21320343017578 L 162.74252319335938,183.95571899414062 L 162.74252319335938,183.95571899414062 C 169.8382110595703,176.31600952148438 176.04647827148438,168.3079833984375 181.25607299804688,160.04286193847656 L 181.25607299804688,160.04286193847656 L 121.21320343017578,100.0 L 200.0,21.21320343017578 L 200.0,0.0 L 178.7867889404297,0.0 L 100.0,78.78679656982422 L 21.21320343017578,0.0 L 0.0,0.0 Z" style="fill: rgb(230, 230, 230); stroke-width: 1px; stroke: none;"/>
<path d="M 0.1273738294839859,10.626291275024414 L 0.1273738294839859,10.626291275024414 C 0.1273738294839859,10.626291275024414 0.1273738294839859,10.626291275024414 0.1273738294839859,10.626291275024414 C 0.12737376987934113,10.626291275024414 0.12737369537353516,10.626291275024414 0.1273736208677292,10.62629222869873 L 0.1273740977048874,10.62629222869873 L 0.1273738294839859,10.626291275024414 L 0.1273738294839859,10.626291275024414 L 0.1273738294839859,10.626291275024414 Z" style="fill: rgb(38, 38, 38); stroke-width: 1px; stroke: none;"/>
<path d="M 0.0,0.0 L 0.0,10.498918533325195 L -5.551115123125783E-16,10.498918533325195 L 0.1273738294839859,10.626291275024414 L 0.1273738294839859,10.626291275024414 C 0.492284893989563,10.156389236450195 2.211080312728882,7.950169086456299 3.2254576683044434,6.773502826690674 L 7.349999904632568,10.715731620788574 C 7.349999904632568,10.715731620788574 4.980599403381348,5.795937538146973 3.079277276992798,0.0 L 0.1273738294839859,10.626291275024414 Z" style="fill: rgb(38, 38, 38); stroke-width: 1px; stroke: none;"/>
<path d="M 24.504655838012695,3.291451930999756 C 24.208452224731445,4.091303825378418 23.914493560791016,4.852051734924316 23.63248062133789,5.559969425201416 L 23.63248062133789,5.559969425201416 L 25.414560317993164,7.342051029205322 L 26.122800827026367,6.750704288482666 C 26.932950973510742,7.7722039222717285 27.98811149597168,9.583178520202637 28.42562484741211,10.353116035461426 L 28.698802947998047,10.626291275024414 L 28.698802947998047,10.626291275024414 C 28.888996124267578,10.381375312805176 29.446979522705078,9.664779663085938 30.081321716308594,8.868118286132812 L 30.081321716308594,8.868118286132812 L 24.504655838012695,3.291451930999756 L 24.504655838012695,3.291451930999756 Z" style="fill: rgb(38, 38, 38); stroke-width: 1px; stroke: none;"/>
<path d="M 28.698802947998047,10.626291275024414 C 28.698802947998047,10.626291275024414 28.698802947998047,10.626291275024414 28.698802947998047,10.62629222869873 L 28.698802947998047,10.62629222869873 L 28.698802947998047,10.626291275024414 L 24.504655838012695,3.291451930999756 Z" style="fill: rgb(38, 38, 38); stroke-width: 1px; stroke: none;"/>
<path d="M 171.55593872070312,10.626291275024414 C 171.55593872070312,10.626291275024414 171.55593872070312,10.626291275024414 171.55593872070312,10.62629222869873 L 171.55593872070312,10.62629222869873 L 171.55593872070312,10.626291275024414 L 171.55593872070312,10.626291275024414 Z" style="fill: rgb(38, 38, 38); stroke-width: 1px; stroke: none;"/>
<path d="M 175.61819458007812,3.1685922145843506 L 170.22103881835938,8.565753936767578 L 170.22103881835938,8.565753936767578 C 170.6610565185547,9.271429061889648 171.05535888671875,9.95290756225586 171.28277587890625,10.353116035461426 L 171.55593872070312,10.626291275024414 L 171.55593872070312,10.626291275024414 C 171.9208526611328,10.156389236450195 173.6396484375,7.950169086456299 174.65402221679688,6.773502826690674 L 178.778564453125,10.715731620788574 C 178.778564453125,10.715731620788574 177.22100830078125,7.481622219085693 175.61819458007812,3.1685922145843506 L 171.55593872070312,10.626291275024414 Z" style="fill: rgb(38, 38, 38); stroke-width: 1px; stroke: none;"/>
<path d="M 197.0797576904297,0.0 C 196.42242431640625,2.021596670150757 195.71009826660156,3.9307022094726562 195.06105041503906,5.559969425201416 L 195.06105041503906,5.559969425201416 L 196.8431396484375,7.342051029205322 L 197.55137634277344,6.750704288482666 C 198.3615264892578,7.7722039222717285 199.41668701171875,9.583178520202637 199.8542022705078,10.353116035461426 L 200.0,10.498918533325195 L 200.0,0.0 L 197.0797576904297,0.0 Z" style="fill: rgb(38, 38, 38); stroke-width: 1px; stroke: none;"/>
<path d="M 14.524399757385254,17.858585357666016 C 12.979771614074707,17.858585357666016 11.726142883300781,19.112205505371094 11.726142883300781,20.656850814819336 C 11.726142883300781,22.201492309570312 12.979771614074707,23.45511817932129 14.524399757385254,23.45511817932129 C 16.06905746459961,23.45511817932129 17.32268524169922,22.201492309570312 17.32268524169922,20.656850814819336 C 17.32268524169922,19.112205505371094 16.06905746459961,17.858585357666016 14.524399757385254,17.858585357666016 L 14.524399757385254,17.858585357666016 Z" style="fill: rgb(38, 38, 38); stroke-width: 1px; stroke: none;"/>
<path d="M 10.494914054870605,22.783536911010742 C 8.950257301330566,22.783536911010742 7.696629047393799,24.037158966064453 7.696629047393799,25.581804275512695 C 7.696629047393799,27.126447677612305 8.950257301330566,28.38007354736328 10.494914054870605,28.38007354736328 C 12.039543151855469,28.38007354736328 13.293171882629395,27.126447677612305 13.293171882629395,25.581804275512695 C 13.293171882629395,24.037158966064453 12.039543151855469,22.783536911010742 10.494914054870605,22.783536911010742 L 10.494914054870605,22.783536911010742 Z" style="fill: rgb(38, 38, 38); stroke-width: 1px; stroke: none;"/>
<path d="M 18.55391502380371,22.783536911010742 C 17.009286880493164,22.783536911010742 15.755658149719238,24.037158966064453 15.755658149719238,25.581804275512695 C 15.755658149719238,27.126447677612305 17.009286880493164,28.38007354736328 18.55391502380371,28.38007354736328 C 20.09857177734375,28.38007354736328 21.35219955444336,27.126447677612305 21.35219955444336,25.581804275512695 C 21.35219955444336,24.037158966064453 20.09857177734375,22.783536911010742 18.55391502380371,22.783536911010742 L 18.55391502380371,22.783536911010742 Z" style="fill: rgb(38, 38, 38); stroke-width: 1px; stroke: none;"/>
<path d="M 13.705657958984375,24.0982723236084 C 13.67672061920166,26.890939712524414 13.004612922668457,30.15679359436035 12.100656509399414,33.31386184692383 L 12.100656509399414,33.31386184692383 L 18.96866226196289,40.18186569213867 L 18.96866226196289,40.18186569213867 C 17.145370483398438,35.480403900146484 15.05300521850586,29.04003143310547 15.02734375,24.189424514770508 L 13.705657958984375,24.09827423095703 L 13.705657958984375,24.0982723236084 L 13.705657958984375,24.0982723236084 Z" style="fill: rgb(38, 38, 38); stroke-width: 1px; stroke: none;"/>
<path d="M 40.60136032104492,19.38815689086914 C 40.40712356567383,19.769044876098633 40.29757308959961,20.200231552124023 40.29757308959961,20.656850814819336 C 40.29757308959961,22.201492309570312 41.55120086669922,23.45511817932129 43.095829010009766,23.45511817932129 C 43.552452087402344,23.45511817932129 43.983642578125,23.34556770324707 44.364532470703125,23.151330947875977 L 44.364532470703125,23.151330947875977 L 40.60136032104492,19.38815689086914 L 40.60136032104492,19.38815689086914 Z" style="fill: rgb(38, 38, 38); stroke-width: 1px; stroke: none;"/>
<path d="M 39.066341400146484,22.783536911010742 C 37.52168655395508,22.783536911010742 36.26805877685547,24.037158966064453 36.26805877685547,25.581804275512695 C 36.26805877685547,27.126447677612305 37.52168655395508,28.38007354736328 39.066341400146484,28.38007354736328 C 40.6109733581543,28.38007354736328 41.864601135253906,27.126447677612305 41.864601135253906,25.581804275512695 C 41.864601135253906,24.037158966064453 40.6109733581543,22.783536911010742 39.066341400146484,22.783536911010742 L 39.066341400146484,22.783536911010742 Z" style="fill: rgb(38, 38, 38); stroke-width: 1px; stroke: none;"/>
<path d="M 44.98866271972656,23.775461196899414 C 44.57600021362305,24.26301383972168 44.32708740234375,24.893516540527344 44.32708740234375,25.581804275512695 C 44.32708740234375,27.126447677612305 45.58071517944336,28.38007354736328 47.125343322753906,28.38007354736328 C 47.813636779785156,28.38007354736328 48.44414520263672,28.13115882873535 48.93170166015625,27.718496322631836 L 48.93170166015625,27.718496322631836 L 44.98866271972656,23.775461196899414 L 44.98866271972656,23.775461196899414 Z" style="fill: rgb(38, 38, 38); stroke-width: 1px; stroke: none;"/>
<path d="M 42.98451614379883,46.340576171875 C 42.98451614379883,46.340576171875 42.98451614379883,46.340576171875 42.98451614379883,46.340576171875 L 42.98451614379883,46.340576171875 L 42.98451614379883,46.340576171875 L 42.98451614379883,46.340576171875 Z" style="fill: rgb(38, 38, 38); stroke-width: 1px; stroke: none;"/>
<path d="M 42.27708435058594,24.0982723236084 C 42.22161865234375,29.45124626159668 39.80307388305664,36.54276657104492 37.91819381713867,41.274253845214844 L 37.91819381713867,41.274253845214844 L 39.70027542114258,43.05633544921875 L 40.40851593017578,42.464988708496094 C 41.218666076660156,43.486488342285156 42.273826599121094,45.297462463378906 42.71133804321289,46.06740188598633 L 42.98451614379883,46.340576171875 L 42.98451614379883,46.340576171875 C 43.34942626953125,45.87067413330078 45.06822204589844,43.66445541381836 46.08259963989258,42.487789154052734 L 50.2071418762207,46.430015563964844 C 50.2071418762207,46.430015563964844 43.644344329833984,32.8031005859375 43.59877014160156,24.189424514770508 L 42.27708435058594,24.09827423095703 L 42.27708435058594,24.0982723236084 L 42.98451614379883,46.340576171875 Z" style="fill: rgb(38, 38, 38); stroke-width: 1px; stroke: none;"/>
<path d="M 134.81201171875,43.974788665771484 L 134.09881591796875,44.68797302246094 L 135.9214324951172,46.430015563964844 C 135.9214324951172,46.430015563964844 135.47401428222656,45.50100326538086 134.81201171875,43.974788665771484 L 134.81201171875,43.974788665771484 Z" style="fill: rgb(38, 38, 38); stroke-width: 1px; stroke: none;"/>
<path d="M 159.6986541748047,19.088138580322266 L 155.81285095214844,22.973947525024414 L 155.81285095214844,22.973947525024414 C 156.26036071777344,23.27763557434082 156.80035400390625,23.45511817932129 157.3815460205078,23.45511817932129 C 158.9261932373047,23.45511817932129 160.17982482910156,22.201492309570312 160.17982482910156,20.656850814819336 C 160.17982482910156,20.075651168823242 160.00234985351562,19.535654067993164 159.6986541748047,19.088138580322266 L 159.6986541748047,19.088138580322266 Z" style="fill: rgb(38, 38, 38); stroke-width: 1px; stroke: none;"/>
<path d="M 155.2555389404297,23.5312557220459 L 151.30149841308594,27.485294342041016 L 151.30149841308594,27.485294342041016 C 151.81260681152344,28.035594940185547 152.54234313964844,28.38007354736328 153.35205078125,28.38007354736328 C 154.8966827392578,28.38007354736328 156.1503143310547,27.126447677612305 156.1503143310547,25.581804275512695 C 156.1503143310547,24.7721004486084 155.8058319091797,24.04236602783203 155.2555389404297,23.5312557220459 L 155.2555389404297,23.5312557220459 Z" style="fill: rgb(38, 38, 38); stroke-width: 1px; stroke: none;"/>
<path d="M 161.4110565185547,22.783536911010742 C 159.86642456054688,22.783536911010742 158.61279296875,24.037158966064453 158.61279296875,25.581804275512695 C 158.61279296875,27.126447677612305 159.86642456054688,28.38007354736328 161.4110565185547,28.38007354736328 C 162.95571899414062,28.38007354736328 164.2093505859375,27.126447677612305 164.2093505859375,25.581804275512695 C 164.2093505859375,24.037158966064453 162.95571899414062,22.783536911010742 161.4110565185547,22.783536911010742 L 161.4110565185547,22.783536911010742 Z" style="fill: rgb(38, 38, 38); stroke-width: 1px; stroke: none;"/>
<path d="M 157.27023315429688,46.340576171875 C 157.27023315429688,46.340576171875 157.27023315429688,46.340576171875 157.27023315429688,46.340576171875 L 157.27023315429688,46.340576171875 L 157.27023315429688,46.340576171875 L 157.27023315429688,46.340576171875 Z" style="fill: rgb(38, 38, 38); stroke-width: 1px; stroke: none;"/>
<path d="M 156.56280517578125,24.0982723236084 C 156.50733947753906,29.45124626159668 154.0887908935547,36.54276657104492 152.2039031982422,41.274253845214844 L 152.2039031982422,41.274253845214844 L 153.98599243164062,43.05633544921875 L 154.69422912597656,42.464988708496094 C 155.50437927246094,43.486488342285156 156.55953979492188,45.297462463378906 156.99705505371094,46.06740188598633 L 157.27023315429688,46.340576171875 L 157.27023315429688,46.340576171875 C 157.63514709472656,45.87067413330078 159.35394287109375,43.66445541381836 160.36831665039062,42.487789154052734 L 164.49285888671875,46.430015563964844 C 164.49285888671875,46.430015563964844 157.9300537109375,32.8031005859375 157.88449096679688,24.189424514770508 L 156.56280517578125,24.09827423095703 L 156.56280517578125,24.0982723236084 L 157.27023315429688,46.340576171875 Z" style="fill: rgb(38, 38, 38); stroke-width: 1px; stroke: none;"/>
<path d="M 185.95297241210938,17.858585357666016 C 184.40834045410156,17.858585357666016 183.1547088623047,19.112205505371094 183.1547088623047,20.656850814819336 C 183.1547088623047,22.201492309570312 184.40834045410156,23.45511817932129 185.95297241210938,23.45511817932129 C 187.4976348876953,23.45511817932129 188.75125122070312,22.201492309570312 188.75125122070312,20.656850814819336 C 188.75125122070312,19.112205505371094 187.4976348876953,17.858585357666016 185.95297241210938,17.858585357666016 L 185.95297241210938,17.858585357666016 Z" style="fill: rgb(38, 38, 38); stroke-width: 1px; stroke: none;"/>
<path d="M 181.92349243164062,22.783536911010742 C 180.3788299560547,22.783536911010742 179.1251983642578,24.037158966064453 179.1251983642578,25.581804275512695 C 179.1251983642578,27.126447677612305 180.3788299560547,28.38007354736328 181.92349243164062,28.38007354736328 C 183.46810913085938,28.38007354736328 184.72174072265625,27.126447677612305 184.72174072265625,25.581804275512695 C 184.72174072265625,24.037158966064453 183.46810913085938,22.783536911010742 181.92349243164062,22.783536911010742 L 181.92349243164062,22.783536911010742 Z" style="fill: rgb(38, 38, 38); stroke-width: 1px; stroke: none;"/>
<path d="M 189.98248291015625,22.783536911010742 C 188.43785095214844,22.783536911010742 187.18423461914062,24.037158966064453 187.18423461914062,25.581804275512695 C 187.18423461914062,27.126447677612305 188.43785095214844,28.38007354736328 189.98248291015625,28.38007354736328 C 191.5271453857422,28.38007354736328 192.78077697753906,27.126447677612305 192.78077697753906,25.581804275512695 C 192.78077697753906,24.037158966064453 191.5271453857422,22.783536911010742 189.98248291015625,22.783536911010742 L 189.98248291015625,22.783536911010742 Z" style="fill: rgb(38, 38, 38); stroke-width: 1px; stroke: none;"/>
<path d="M 185.1342315673828,24.0982723236084 C 185.08389282226562,28.955801010131836 183.08767700195312,35.24494552612305 181.31011962890625,39.90308380126953 L 181.31011962890625,39.90308380126953 L 188.01766967773438,33.195533752441406 L 188.01766967773438,33.195533752441406 C 187.12518310546875,30.08369255065918 186.47019958496094,26.8901424407959 186.45591735839844,24.189424514770508 L 185.1342315673828,24.09827423095703 L 185.1342315673828,24.0982723236084 L 185.1342315673828,24.0982723236084 Z" style="fill: rgb(38, 38, 38); stroke-width: 1px; stroke: none;"/>
<path d="M 57.38154220581055,53.572872161865234 C 55.8369140625,53.572872161865234 54.58328628540039,54.82649230957031 54.58328628540039,56.37113571166992 C 54.58328628540039,57.91577911376953 55.8369140625,59.169403076171875 57.38154220581055,59.169403076171875 C 58.92620086669922,59.169403076171875 60.17982864379883,57.91577911376953 60.17982864379883,56.37113571166992 C 60.17982864379883,54.82649230957031 58.92620086669922,53.572872161865234 57.38154220581055,53.572872161865234 L 57.38154220581055,53.572872161865234 Z" style="fill: rgb(38, 38, 38); stroke-width: 1px; stroke: none;"/>
<path d="M 53.35205841064453,58.49782180786133 C 51.80739974975586,58.49782180786133 50.55377197265625,59.75144577026367 50.55377197265625,61.29608917236328 C 50.55377197265625,62.84073257446289 51.80739974975586,64.0943603515625 53.35205841064453,64.0943603515625 C 54.89668655395508,64.0943603515625 56.15031433105469,62.84073257446289 56.15031433105469,61.29608917236328 C 56.15031433105469,59.75144577026367 54.89668655395508,58.49782180786133 53.35205841064453,58.49782180786133 L 53.35205841064453,58.49782180786133 Z" style="fill: rgb(38, 38, 38); stroke-width: 1px; stroke: none;"/>
<path d="M 61.41105651855469,58.49782180786133 C 59.86642837524414,58.49782180786133 58.61280059814453,59.75144577026367 58.61280059814453,61.29608917236328 C 58.61280059814453,62.84073257446289 59.86642837524414,64.0943603515625 61.41105651855469,64.0943603515625 C 62.95571517944336,64.0943603515625 64.20934295654297,62.84073257446289 64.20934295654297,61.29608917236328 C 64.20934295654297,59.75144577026367 62.95571517944336,58.49782180786133 61.41105651855469,58.49782180786133 L 61.41105651855469,58.49782180786133 Z" style="fill: rgb(38, 38, 38); stroke-width: 1px; stroke: none;"/>
<path d="M 56.562801361083984,59.812557220458984 C 56.51671600341797,64.26021575927734 54.839263916015625,69.90808868408203 53.19202423095703,74.40522766113281 L 53.19202423095703,74.40522766113281 L 58.843910217285156,80.05711364746094 L 58.843910217285156,80.05711364746094 C 59.37364959716797,79.39459991455078 59.93519592285156,78.7044906616211 60.368316650390625,78.20207214355469 L 64.49285888671875,82.14430236816406 C 64.49285888671875,82.14430236816406 57.930057525634766,68.51738739013672 57.88448715209961,59.903709411621094 L 56.562801361083984,59.81256103515625 L 56.562801361083984,59.812557220458984 L 56.562801361083984,59.812557220458984 Z" style="fill: rgb(38, 38, 38); stroke-width: 1px; stroke: none;"/>
<path d="M 80.25965881347656,59.04645919799805 C 79.57151794433594,59.55640411376953 79.12519836425781,60.37444305419922 79.12519836425781,61.29608917236328 C 79.12519836425781,62.84073257446289 80.37882995605469,64.0943603515625 81.9234848022461,64.0943603515625 C 82.84512329101562,64.0943603515625 83.66316223144531,63.64804458618164 84.17310333251953,62.959903717041016 L 84.17310333251953,62.959903717041016 L 80.25965881347656,59.04645919799805 L 80.25965881347656,59.04645919799805 Z" style="fill: rgb(38, 38, 38); stroke-width: 1px; stroke: none;"/>
<path d="M 85.84165954589844,82.05486297607422 C 85.84165954589844,82.05486297607422 85.84165954589844,82.05486297607422 85.84165954589844,82.05486297607422 L 85.84165954589844,82.05486297607422 L 85.84165954589844,82.05486297607422 L 85.84165954589844,82.05486297607422 Z" style="fill: rgb(38, 38, 38); stroke-width: 1px; stroke: none;"/>
<path d="M 84.78286743164062,63.569664001464844 C 84.03645324707031,68.18292999267578 82.24391174316406,73.30207061767578 80.77533721923828,76.98854064941406 L 80.77533721923828,76.98854064941406 L 82.55741882324219,78.77062225341797 L 83.26565551757812,78.17927551269531 C 84.0758056640625,79.20077514648438 85.13096618652344,81.01174926757812 85.5684814453125,81.78168487548828 L 85.84165954589844,82.05486297607422 L 85.84165954589844,82.05486297607422 C 86.20657348632812,81.5849609375 87.92536926269531,79.37873840332031 88.93974304199219,78.20207214355469 L 93.06428527832031,82.14430236816406 C 93.06428527832031,82.14430236816406 89.05432891845703,73.81807708740234 87.28160095214844,66.06839752197266 L 87.28160095214844,66.06839752197266 L 84.78286743164062,63.569664001464844 L 85.84165954589844,82.05486297607422 Z" style="fill: rgb(38, 38, 38); stroke-width: 1px; stroke: none;"/>
<path d="M 119.92835998535156,58.85843276977539 L 116.11626434326172,62.670528411865234 L 116.11626434326172,62.670528411865234 C 116.59671783447266,63.520328521728516 117.50869750976562,64.0943603515625 118.55391693115234,64.0943603515625 C 120.09857177734375,64.0943603515625 121.35220336914062,62.84073257446289 121.35220336914062,61.29608917236328 C 121.35220336914062,60.250858306884766 120.77816772460938,59.33888626098633 119.92835998535156,58.85843276977539 L 119.92835998535156,58.85843276977539 Z" style="fill: rgb(38, 38, 38); stroke-width: 1px; stroke: none;"/>
<path d="M 114.4130859375,82.05486297607422 C 114.4130859375,82.05486297607422 114.4130859375,82.05486297607422 114.4130859375,82.05486297607422 L 114.4130859375,82.05486297607422 L 114.4130859375,82.05486297607422 L 114.4130859375,82.05486297607422 Z" style="fill: rgb(38, 38, 38); stroke-width: 1px; stroke: none;"/>
<path d="M 115.34186553955078,63.4449348449707 L 112.90684509277344,65.87995147705078 L 112.90684509277344,65.87995147705078 C 112.026611328125,69.82918548583984 110.57363891601562,73.90880584716797 109.34676361083984,76.98854064941406 L 109.34676361083984,76.98854064941406 L 111.12884521484375,78.77062225341797 L 111.83708953857422,78.17927551269531 C 112.6472396850586,79.20077514648438 113.70240020751953,81.01174926757812 114.13990783691406,81.78168487548828 L 114.4130859375,82.05486297607422 L 114.4130859375,82.05486297607422 C 114.77799987792969,81.5849609375 116.49679565429688,79.37873840332031 117.51116943359375,78.20207214355469 L 121.63571166992188,82.14430236816406 C 121.63571166992188,82.14430236816406 116.65589904785156,71.80427551269531 115.34186553955078,63.4449348449707 L 114.4130859375,82.05486297607422 Z" style="fill: rgb(38, 38, 38); stroke-width: 1px; stroke: none;"/>
<path d="M 143.0958251953125,53.572872161865234 C 141.5511932373047,53.572872161865234 140.29757690429688,54.82649230957031 140.29757690429688,56.37113571166992 C 140.29757690429688,57.91577911376953 141.5511932373047,59.169403076171875 143.0958251953125,59.169403076171875 C 144.64048767089844,59.169403076171875 145.8941192626953,57.91577911376953 145.8941192626953,56.37113571166992 C 145.8941192626953,54.82649230957031 144.64048767089844,53.572872161865234 143.0958251953125,53.572872161865234 L 143.0958251953125,53.572872161865234 Z" style="fill: rgb(38, 38, 38); stroke-width: 1px; stroke: none;"/>
<path d="M 139.06634521484375,58.49782180786133 C 137.5216827392578,58.49782180786133 136.26805114746094,59.75144577026367 136.26805114746094,61.29608917236328 C 136.26805114746094,62.84073257446289 137.5216827392578,64.0943603515625 139.06634521484375,64.0943603515625 C 140.61097717285156,64.0943603515625 141.86459350585938,62.84073257446289 141.86459350585938,61.29608917236328 C 141.86459350585938,59.75144577026367 140.61097717285156,58.49782180786133 139.06634521484375,58.49782180786133 L 139.06634521484375,58.49782180786133 Z" style="fill: rgb(38, 38, 38); stroke-width: 1px; stroke: none;"/>
<path d="M 147.12533569335938,58.49782180786133 C 145.58071899414062,58.49782180786133 144.32708740234375,59.75144577026367 144.32708740234375,61.29608917236328 C 144.32708740234375,62.84073257446289 145.58071899414062,64.0943603515625 147.12533569335938,64.0943603515625 C 148.6699981689453,64.0943603515625 149.9236297607422,62.84073257446289 149.9236297607422,61.29608917236328 C 149.9236297607422,59.75144577026367 148.6699981689453,58.49782180786133 147.12533569335938,58.49782180786133 L 147.12533569335938,58.49782180786133 Z" style="fill: rgb(38, 38, 38); stroke-width: 1px; stroke: none;"/>
<path d="M 142.27708435058594,59.812557220458984 C 142.22161865234375,65.16553497314453 139.80307006835938,72.25704956054688 137.91819763183594,76.98854064941406 L 137.91819763183594,76.98854064941406 L 139.7002716064453,78.77062225341797 L 140.40850830078125,78.17927551269531 C 140.74508666992188,78.6036605834961 141.12396240234375,79.16429901123047 141.48326110839844,79.72994995117188 L 141.48324584960938,79.72994995117188 L 146.93052673339844,74.28266906738281 L 146.93052673339844,74.28266906738281 C 145.28067016601562,69.7943115234375 143.62161254882812,64.21968841552734 143.59877014160156,59.903709411621094 L 142.27708435058594,59.81256103515625 L 142.27708435058594,59.812557220458984 L 142.27708435058594,59.812557220458984 Z" style="fill: rgb(38, 38, 38); stroke-width: 1px; stroke: none;"/>
<path d="M 71.6672592163086,89.28715515136719 C 70.6917724609375,89.28715515136719 69.83235168457031,89.78713989257812 69.33145141601562,90.5446548461914 L 69.33145141601562,90.5446548461914 L 73.2080307006836,94.42123413085938 L 73.2080307006836,94.42123413085938 C 73.9655532836914,93.92033386230469 74.46554565429688,93.0609130859375 74.46554565429688,92.08541870117188 C 74.46554565429688,90.54077911376953 73.2119140625,89.28715515136719 71.6672592163086,89.28715515136719 L 71.6672592163086,89.28715515136719 Z" style="fill: rgb(38, 38, 38); stroke-width: 1px; stroke: none;"/>
<path d="M 75.69676971435547,94.21210479736328 C 74.9499740600586,94.21210479736328 74.27119445800781,94.5051498413086 73.76923370361328,94.98243713378906 L 73.76923370361328,94.98243713378906 L 77.72472381591797,98.93792724609375 L 77.72472381591797,98.93792724609375 C 78.20201873779297,98.43595886230469 78.49505615234375,97.7571792602539 78.49505615234375,97.0103759765625 C 78.49505615234375,95.46572875976562 77.2414321899414,94.21210479736328 75.69676971435547,94.21210479736328 L 75.69676971435547,94.21210479736328 Z" style="fill: rgb(38, 38, 38); stroke-width: 1px; stroke: none;"/>
<path d="M 71.55594635009766,117.76914978027344 C 71.55594635009766,117.76914978027344 71.55594635009766,117.76914978027344 71.55594635009766,117.76914978027344 L 71.55594635009766,117.76914978027344 L 71.55594635009766,117.76914978027344 L 71.55594635009766,117.76914978027344 Z" style="fill: rgb(38, 38, 38); stroke-width: 1px; stroke: none;"/>
<path d="M 73.82872772216797,104.95806884765625 L 66.75370025634766,112.03309631347656 L 66.75370025634766,112.03309631347656 C 66.66472625732422,112.26109313964844 66.57660675048828,112.4844741821289 66.4896240234375,112.70282745361328 L 66.4896240234375,112.70282745361328 L 68.2717056274414,114.48490905761719 L 68.97994232177734,113.89356231689453 C 69.79009246826172,114.9150619506836 70.84525299072266,116.72603607177734 71.28276824951172,117.4959716796875 L 71.55594635009766,117.76914978027344 L 71.55594635009766,117.76914978027344 C 71.92085266113281,117.29924774169922 73.6396484375,115.09302520751953 74.6540298461914,113.9163589477539 L 78.77857208251953,117.85858917236328 C 78.77857208251953,117.85858917236328 75.78632354736328,111.64551544189453 73.82872772216797,104.95806884765625 L 71.55594635009766,117.76914978027344 Z" style="fill: rgb(38, 38, 38); stroke-width: 1px; stroke: none;"/>
<path d="M 100.23868560791016,89.28715515136719 C 98.69405364990234,89.28715515136719 97.4404296875,90.54077911376953 97.4404296875,92.08541870117188 C 97.4404296875,93.63006591796875 98.69405364990234,94.8836898803711 100.23868560791016,94.8836898803711 C 101.78334045410156,94.8836898803711 103.03697204589844,93.63006591796875 103.03697204589844,92.08541870117188 C 103.03697204589844,90.54077911376953 101.78334045410156,89.28715515136719 100.23868560791016,89.28715515136719 L 100.23868560791016,89.28715515136719 Z" style="fill: rgb(38, 38, 38); stroke-width: 1px; stroke: none;"/>
<path d="M 96.20919799804688,94.21210479736328 C 94.66454315185547,94.21210479736328 93.4109115600586,95.46572875976562 93.4109115600586,97.0103759765625 C 93.4109115600586,98.55501556396484 94.66454315185547,99.80864715576172 96.20919799804688,99.80864715576172 C 97.75382995605469,99.80864715576172 99.00745391845703,98.55501556396484 99.00745391845703,97.0103759765625 C 99.00745391845703,95.46572875976562 97.75382995605469,94.21210479736328 96.20919799804688,94.21210479736328 L 96.20919799804688,94.21210479736328 Z" style="fill: rgb(38, 38, 38); stroke-width: 1px; stroke: none;"/>
<path d="M 104.26820373535156,94.21210479736328 C 102.72357177734375,94.21210479736328 101.46994018554688,95.46572875976562 101.46994018554688,97.0103759765625 C 101.46994018554688,98.55501556396484 102.72357177734375,99.80864715576172 104.26820373535156,99.80864715576172 C 105.81285858154297,99.80864715576172 107.06648254394531,98.55501556396484 107.06648254394531,97.0103759765625 C 107.06648254394531,95.46572875976562 105.81285858154297,94.21210479736328 104.26820373535156,94.21210479736328 L 104.26820373535156,94.21210479736328 Z" style="fill: rgb(38, 38, 38); stroke-width: 1px; stroke: none;"/>
<path d="M 100.12737274169922,117.76914978027344 C 100.12737274169922,117.76914978027344 100.12737274169922,117.76914978027344 100.12737274169922,117.76914978027344 L 100.12737274169922,117.76914978027344 L 100.12737274169922,117.76914978027344 L 100.12737274169922,117.76914978027344 Z" style="fill: rgb(38, 38, 38); stroke-width: 1px; stroke: none;"/>
<path d="M 99.4199447631836,95.52684783935547 C 99.3644790649414,100.87982177734375 96.94593048095703,107.9713363647461 95.06105041503906,112.70282745361328 L 95.06105041503906,112.70282745361328 L 96.84313201904297,114.48490905761719 L 97.5513687133789,113.89356231689453 C 98.36151885986328,114.9150619506836 99.41668701171875,116.72603607177734 99.85419464111328,117.4959716796875 L 100.12737274169922,117.76914978027344 L 100.12737274169922,117.76914978027344 C 100.4922866821289,117.29924774169922 102.2110824584961,115.09302520751953 103.22545623779297,113.9163589477539 L 107.3499984741211,117.85858917236328 C 107.3499984741211,117.85858917236328 100.78720092773438,104.23167419433594 100.74163055419922,95.61799621582031 L 99.4199447631836,95.52684783935547 L 99.4199447631836,95.52684783935547 L 100.12737274169922,117.76914978027344 Z" style="fill: rgb(38, 38, 38); stroke-width: 1px; stroke: none;"/>
<path d="M 128.81011962890625,89.28715515136719 C 127.26548767089844,89.28715515136719 126.01185607910156,90.54077911376953 126.01185607910156,92.08541870117188 C 126.01185607910156,92.93854522705078 126.39427185058594,93.70288848876953 126.99691772460938,94.2162857055664 L 126.99691772460938,94.2162857055664 L 130.9409942626953,90.272216796875 L 130.9409942626953,90.272216796875 C 130.42759704589844,89.66957092285156 129.66323852539062,89.28715515136719 128.81011962890625,89.28715515136719 L 128.81011962890625,89.28715515136719 Z" style="fill: rgb(38, 38, 38); stroke-width: 1px; stroke: none;"/>
<path d="M 124.78063201904297,94.21210479736328 C 123.23596954345703,94.21210479736328 121.98234558105469,95.46572875976562 121.98234558105469,97.0103759765625 C 121.98234558105469,97.63542938232422 122.1876220703125,98.21283721923828 122.53440856933594,98.67879486083984 L 122.53440856933594,98.67879486083984 L 126.44903564453125,94.76416778564453 L 126.44903564453125,94.76416778564453 C 125.98307800292969,94.41738891601562 125.40567779541016,94.21210479736328 124.78063201904297,94.21210479736328 L 124.78063201904297,94.21210479736328 Z" style="fill: rgb(38, 38, 38); stroke-width: 1px; stroke: none;"/>
<path d="M 128.6988067626953,117.76914978027344 C 128.6988067626953,117.76914978027344 128.6988067626953,117.76914978027344 128.6988067626953,117.76914978027344 L 128.6988067626953,117.76914978027344 L 128.6988067626953,117.76914978027344 L 128.6988067626953,117.76914978027344 Z" style="fill: rgb(38, 38, 38); stroke-width: 1px; stroke: none;"/>
<path d="M 126.28973388671875,105.07653045654297 L 126.28973388671875,105.07653045654297 C 125.47893524169922,107.85199737548828 124.49927520751953,110.52696228027344 123.63247680664062,112.70282745361328 L 123.63248443603516,112.70282745361328 L 125.41455841064453,114.48490905761719 L 126.122802734375,113.89356231689453 C 126.93295288085938,114.9150619506836 127.98811340332031,116.72603607177734 128.42562866210938,117.4959716796875 L 128.6988067626953,117.76914978027344 L 128.6988067626953,117.76914978027344 C 129.063720703125,117.29924774169922 130.78250122070312,115.09302520751953 131.79689025878906,113.9163589477539 L 135.9214324951172,117.85858917236328 C 135.9214324951172,117.85858917236328 134.82887268066406,115.59001922607422 133.5322265625,112.31902313232422 L 133.5322265625,112.31902313232422 L 126.28973388671875,105.07653045654297 L 128.6988067626953,117.76914978027344 Z" style="fill: rgb(38, 38, 38); stroke-width: 1px; stroke: none;"/>
<path d="M 28.698802947998047,153.48342895507812 C 28.698802947998047,153.48342895507812 28.698802947998047,153.48342895507812 28.698802947998047,153.48342895507812 L 28.698802947998047,153.48342895507812 L 28.698802947998047,153.48342895507812 L 28.698802947998047,153.48342895507812 Z" style="fill: rgb(38, 38, 38); stroke-width: 1px; stroke: none;"/>
<path d="M 32.76105499267578,146.02574157714844 L 27.363893508911133,151.4228973388672 L 27.363893508911133,151.4228973388672 C 27.80391502380371,152.12857055664062 28.198209762573242,152.81005859375 28.42562484741211,153.21026611328125 L 28.698802947998047,153.48342895507812 L 28.698802947998047,153.48342895507812 C 29.06371307373047,153.01353454589844 30.782508850097656,150.80731201171875 31.796886444091797,149.63064575195312 L 35.92142868041992,153.5728759765625 C 35.92142868041992,153.5728759765625 34.36386489868164,150.33876037597656 32.76105499267578,146.02574157714844 L 28.698802947998047,153.48342895507812 Z" style="fill: rgb(38, 38, 38); stroke-width: 1px; stroke: none;"/>
<path d="M 57.38154220581055,125.0014419555664 C 55.8369140625,125.0014419555664 54.58328628540039,126.25505828857422 54.58328628540039,127.7997055053711 C 54.58328628540039,129.34434509277344 55.8369140625,130.5979766845703 57.38154220581055,130.5979766845703 C 58.92620086669922,130.5979766845703 60.17982864379883,129.34434509277344 60.17982864379883,127.7997055053711 C 60.17982864379883,126.25505828857422 58.92620086669922,125.0014419555664 57.38154220581055,125.0014419555664 L 57.38154220581055,125.0014419555664 Z" style="fill: rgb(38, 38, 38); stroke-width: 1px; stroke: none;"/>
<path d="M 53.35205841064453,129.9263916015625 C 51.80739974975586,129.9263916015625 50.55377197265625,131.18002319335938 50.55377197265625,132.7246551513672 C 50.55377197265625,134.26930236816406 51.80739974975586,135.52293395996094 53.35205841064453,135.52293395996094 C 54.89668655395508,135.52293395996094 56.15031433105469,134.26930236816406 56.15031433105469,132.7246551513672 C 56.15031433105469,131.18002319335938 54.89668655395508,129.9263916015625 53.35205841064453,129.9263916015625 L 53.35205841064453,129.9263916015625 Z" style="fill: rgb(38, 38, 38); stroke-width: 1px; stroke: none;"/>
<path d="M 61.41105651855469,129.9263916015625 C 59.86642837524414,129.9263916015625 58.61280059814453,131.18002319335938 58.61280059814453,132.7246551513672 C 58.61280059814453,134.26930236816406 59.86642837524414,135.52293395996094 61.41105651855469,135.52293395996094 C 62.95571517944336,135.52293395996094 64.20934295654297,134.26930236816406 64.20934295654297,132.7246551513672 C 64.20934295654297,131.18002319335938 62.95571517944336,129.9263916015625 61.41105651855469,129.9263916015625 L 61.41105651855469,129.9263916015625 Z" style="fill: rgb(38, 38, 38); stroke-width: 1px; stroke: none;"/>
<path d="M 57.27022933959961,153.48342895507812 C 57.27022933959961,153.48342895507812 57.27022933959961,153.48342895507812 57.27022933959961,153.48342895507812 L 57.270233154296875,153.48342895507812 L 57.27022933959961,153.48342895507812 L 57.27022933959961,153.48342895507812 Z" style="fill: rgb(38, 38, 38); stroke-width: 1px; stroke: none;"/>
<path d="M 56.562801361083984,131.2411346435547 C 56.50733184814453,136.59410095214844 54.08878707885742,143.6856231689453 52.20391082763672,148.4171142578125 L 52.20391082763672,148.4171142578125 L 53.98598861694336,150.19918823242188 L 54.69422912597656,149.60784912109375 C 55.50437927246094,150.6293487548828 56.559539794921875,152.44032287597656 56.99705505371094,153.21026611328125 L 57.27022933959961,153.48342895507812 L 57.27022933959961,153.48342895507812 C 57.6351432800293,153.01353454589844 59.353939056396484,150.80731201171875 60.368316650390625,149.63064575195312 L 64.49285888671875,153.5728759765625 C 64.49285888671875,153.5728759765625 57.930057525634766,139.94595336914062 57.88448715209961,131.332275390625 L 56.562801361083984,131.2411346435547 L 56.562801361083984,131.2411346435547 L 57.27022933959961,153.48342895507812 Z" style="fill: rgb(38, 38, 38); stroke-width: 1px; stroke: none;"/>
<path d="M 85.95297241210938,125.0014419555664 C 84.40834045410156,125.0014419555664 83.15471649169922,126.25505828857422 83.15471649169922,127.7997055053711 C 83.15471649169922,129.34434509277344 84.40834045410156,130.5979766845703 85.95297241210938,130.5979766845703 C 87.49762725830078,130.5979766845703 88.75125885009766,129.34434509277344 88.75125885009766,127.7997055053711 C 88.75125885009766,126.25505828857422 87.49762725830078,125.0014419555664 85.95297241210938,125.0014419555664 L 85.95297241210938,125.0014419555664 Z" style="fill: rgb(38, 38, 38); stroke-width: 1px; stroke: none;"/>
<path d="M 81.9234848022461,129.9263916015625 C 80.37882995605469,129.9263916015625 79.12519836425781,131.18002319335938 79.12519836425781,132.7246551513672 C 79.12519836425781,134.26930236816406 80.37882995605469,135.52293395996094 81.9234848022461,135.52293395996094 C 83.4681167602539,135.52293395996094 84.72174072265625,134.26930236816406 84.72174072265625,132.7246551513672 C 84.72174072265625,131.18002319335938 83.4681167602539,129.9263916015625 81.9234848022461,129.9263916015625 L 81.9234848022461,129.9263916015625 Z" style="fill: rgb(38, 38, 38); stroke-width: 1px; stroke: none;"/>
<path d="M 89.98248291015625,129.9263916015625 C 88.43785858154297,129.9263916015625 87.1842269897461,131.18002319335938 87.1842269897461,132.7246551513672 C 87.1842269897461,133.10958862304688 87.26207733154297,133.4764404296875 87.40288543701172,133.81031799316406 L 87.40288543701172,133.81031799316406 L 91.06815338134766,130.14505004882812 L 91.06815338134766,130.14505004882812 C 90.73426818847656,130.00424194335938 90.36741638183594,129.9263916015625 89.98248291015625,129.9263916015625 L 89.98248291015625,129.9263916015625 Z" style="fill: rgb(38, 38, 38); stroke-width: 1px; stroke: none;"/>
<path d="M 85.13423156738281,131.2411346435547 C 85.11654663085938,132.94790649414062 84.8586196899414,134.83143615722656 84.45435333251953,136.75885009765625 L 84.45435333251953,136.75885009765625 L 86.7138900756836,134.4993133544922 L 86.7138900756836,134.4993133544922 C 86.55397033691406,133.39566040039062 86.46119689941406,132.330322265625 86.45591735839844,131.332275390625 L 85.13423156738281,131.2411346435547 L 85.13423156738281,131.2411346435547 L 85.13423156738281,131.2411346435547 Z" style="fill: rgb(38, 38, 38); stroke-width: 1px; stroke: none;"/>
<path d="M 114.52439880371094,125.0014419555664 C 112.97977447509766,125.0014419555664 111.72614288330078,126.25505828857422 111.72614288330078,127.7997055053711 C 111.72614288330078,129.34434509277344 112.97977447509766,130.5979766845703 114.52439880371094,130.5979766845703 C 116.06905364990234,130.5979766845703 117.32268524169922,129.34434509277344 117.32268524169922,127.7997055053711 C 117.32268524169922,126.25505828857422 116.06905364990234,125.0014419555664 114.52439880371094,125.0014419555664 L 114.52439880371094,125.0014419555664 Z" style="fill: rgb(38, 38, 38); stroke-width: 1px; stroke: none;"/>
<path d="M 110.49491119384766,129.9263916015625 C 109.98329162597656,129.9263916015625 109.50359344482422,130.0639190673828 109.09080505371094,130.30401611328125 L 109.09080505371094,130.30401611328125 L 112.91555786132812,134.12875366210938 L 112.91555786132812,134.12875366210938 C 113.1556396484375,133.71597290039062 113.29317474365234,133.2362823486328 113.29317474365234,132.7246551513672 C 113.29317474365234,131.18002319335938 112.03954315185547,129.9263916015625 110.49491119384766,129.9263916015625 L 110.49491119384766,129.9263916015625 Z" style="fill: rgb(38, 38, 38); stroke-width: 1px; stroke: none;"/>
<path d="M 118.55391693115234,129.9263916015625 C 117.00928497314453,129.9263916015625 115.75566101074219,131.18002319335938 115.75566101074219,132.7246551513672 C 115.75566101074219,134.26930236816406 117.00928497314453,135.52293395996094 118.55391693115234,135.52293395996094 C 120.09857177734375,135.52293395996094 121.35220336914062,134.26930236816406 121.35220336914062,132.7246551513672 C 121.35220336914062,131.18002319335938 120.09857177734375,129.9263916015625 118.55391693115234,129.9263916015625 L 118.55391693115234,129.9263916015625 Z" style="fill: rgb(38, 38, 38); stroke-width: 1px; stroke: none;"/>
<path d="M 113.70565795898438,131.2411346435547 C 113.69457244873047,132.310791015625 113.5891342163086,133.44985961914062 113.41244506835938,134.6256561279297 L 113.41244506835938,134.6256561279297 L 115.73001861572266,136.94322204589844 L 115.73001098632812,136.94322204589844 C 115.30537414550781,134.97195434570312 115.03644561767578,133.05218505859375 115.02734375,131.332275390625 L 113.70565795898438,131.2411346435547 L 113.70565795898438,131.2411346435547 L 113.70565795898438,131.2411346435547 Z" style="fill: rgb(38, 38, 38); stroke-width: 1px; stroke: none;"/>
<path d="M 143.0958251953125,125.0014419555664 C 141.5511932373047,125.0014419555664 140.29757690429688,126.25505828857422 140.29757690429688,127.7997055053711 C 140.29757690429688,129.34434509277344 141.5511932373047,130.5979766845703 143.0958251953125,130.5979766845703 C 144.64048767089844,130.5979766845703 145.8941192626953,129.34434509277344 145.8941192626953,127.7997055053711 C 145.8941192626953,126.25505828857422 144.64048767089844,125.0014419555664 143.0958251953125,125.0014419555664 L 143.0958251953125,125.0014419555664 Z" style="fill: rgb(38, 38, 38); stroke-width: 1px; stroke: none;"/>
<path d="M 139.06634521484375,129.9263916015625 C 137.5216827392578,129.9263916015625 136.26805114746094,131.18002319335938 136.26805114746094,132.7246551513672 C 136.26805114746094,134.26930236816406 137.5216827392578,135.52293395996094 139.06634521484375,135.52293395996094 C 140.61097717285156,135.52293395996094 141.86459350585938,134.26930236816406 141.86459350585938,132.7246551513672 C 141.86459350585938,131.18002319335938 140.61097717285156,129.9263916015625 139.06634521484375,129.9263916015625 L 139.06634521484375,129.9263916015625 Z" style="fill: rgb(38, 38, 38); stroke-width: 1px; stroke: none;"/>
<path d="M 147.12533569335938,129.9263916015625 C 145.58071899414062,129.9263916015625 144.32708740234375,131.18002319335938 144.32708740234375,132.7246551513672 C 144.32708740234375,134.26930236816406 145.58071899414062,135.52293395996094 147.12533569335938,135.52293395996094 C 148.6699981689453,135.52293395996094 149.9236297607422,134.26930236816406 149.9236297607422,132.7246551513672 C 149.9236297607422,131.18002319335938 148.6699981689453,129.9263916015625 147.12533569335938,129.9263916015625 L 147.12533569335938,129.9263916015625 Z" style="fill: rgb(38, 38, 38); stroke-width: 1px; stroke: none;"/>
<path d="M 142.98451232910156,153.48342895507812 C 142.98451232910156,153.48342895507812 142.98451232910156,153.48342895507812 142.98451232910156,153.48342895507812 L 142.98451232910156,153.48342895507812 L 142.98451232910156,153.48342895507812 L 142.98451232910156,153.48342895507812 Z" style="fill: rgb(38, 38, 38); stroke-width: 1px; stroke: none;"/>
<path d="M 142.27708435058594,131.2411346435547 C 142.22161865234375,136.59410095214844 139.80307006835938,143.6856231689453 137.91819763183594,148.4171142578125 L 137.91819763183594,148.4171142578125 L 139.7002716064453,150.19918823242188 L 140.40850830078125,149.60784912109375 C 141.21865844726562,150.6293487548828 142.27381896972656,152.44032287597656 142.71133422851562,153.21026611328125 L 142.98451232910156,153.48342895507812 L 142.98451232910156,153.48342895507812 C 143.34942626953125,153.01353454589844 145.06822204589844,150.80731201171875 146.0825958251953,149.63064575195312 L 150.20713806152344,153.5728759765625 C 150.20713806152344,153.5728759765625 143.64434814453125,139.94595336914062 143.59877014160156,131.332275390625 L 142.27708435058594,131.2411346435547 L 142.27708435058594,131.2411346435547 L 142.98451232910156,153.48342895507812 Z" style="fill: rgb(38, 38, 38); stroke-width: 1px; stroke: none;"/>
<path d="M 167.36180114746094,146.14859008789062 C 167.0655975341797,146.9484405517578 166.77163696289062,147.70919799804688 166.4896240234375,148.4171142578125 L 166.4896240234375,148.4171142578125 L 168.27169799804688,150.19918823242188 L 168.97994995117188,149.60784912109375 C 169.79010009765625,150.6293487548828 170.8452606201172,152.44032287597656 171.28277587890625,153.21026611328125 L 171.55593872070312,153.48342895507812 L 171.55593872070312,153.48342895507812 C 171.7461395263672,153.238525390625 172.3041229248047,152.5219268798828 172.93846130371094,151.7252655029297 L 172.93846130371094,151.7252655029297 L 167.36180114746094,146.14859008789062 L 167.36180114746094,146.14859008789062 Z" style="fill: rgb(38, 38, 38); stroke-width: 1px; stroke: none;"/>
<path d="M 171.55593872070312,153.48342895507812 C 171.55593872070312,153.48342895507812 171.55593872070312,153.48342895507812 171.55593872070312,153.48342895507812 L 171.55593872070312,153.48342895507812 L 171.55593872070312,153.48342895507812 L 167.36180114746094,146.14859008789062 Z" style="fill: rgb(38, 38, 38); stroke-width: 1px; stroke: none;"/>
<path d="M 43.095829010009766,160.71572875976562 C 41.55120086669922,160.71572875976562 40.29757308959961,161.96934509277344 40.29757308959961,163.5139923095703 C 40.29757308959961,165.0586395263672 41.55120086669922,166.312255859375 43.095829010009766,166.312255859375 C 44.64048385620117,166.312255859375 45.89411163330078,165.0586395263672 45.89411163330078,163.5139923095703 C 45.89411163330078,161.96934509277344 44.64048385620117,160.71572875976562 43.095829010009766,160.71572875976562 L 43.095829010009766,160.71572875976562 Z" style="fill: rgb(38, 38, 38); stroke-width: 1px; stroke: none;"/>
<path d="M 39.066341400146484,165.64068603515625 C 37.52168655395508,165.64068603515625 36.26805877685547,166.89430236816406 36.26805877685547,168.43894958496094 C 36.26805877685547,169.9835968017578 37.52168655395508,171.23721313476562 39.066341400146484,171.23721313476562 C 40.6109733581543,171.23721313476562 41.864601135253906,169.9835968017578 41.864601135253906,168.43894958496094 C 41.864601135253906,166.89430236816406 40.6109733581543,165.64068603515625 39.066341400146484,165.64068603515625 L 39.066341400146484,165.64068603515625 Z" style="fill: rgb(38, 38, 38); stroke-width: 1px; stroke: none;"/>
<path d="M 47.125343322753906,165.64068603515625 C 45.58071517944336,165.64068603515625 44.32708740234375,166.89430236816406 44.32708740234375,168.43894958496094 C 44.32708740234375,169.9835968017578 45.58071517944336,171.23721313476562 47.125343322753906,171.23721313476562 C 48.66999816894531,171.23721313476562 49.92362976074219,169.9835968017578 49.92362976074219,168.43894958496094 C 49.92362976074219,166.89430236816406 48.66999816894531,165.64068603515625 47.125343322753906,165.64068603515625 L 47.125343322753906,165.64068603515625 Z" style="fill: rgb(38, 38, 38); stroke-width: 1px; stroke: none;"/>
<path d="M 42.27708435058594,166.95541381835938 C 42.22675323486328,171.8129425048828 40.23052978515625,178.10208129882812 38.452980041503906,182.76022338867188 L 38.452980041503906,182.76022338867188 L 45.160526275634766,176.05267333984375 L 45.160526275634766,176.05267333984375 C 44.26803207397461,172.94082641601562 43.613059997558594,169.74728393554688 43.59877014160156,167.04656982421875 L 42.27708435058594,166.95541381835938 L 42.27708435058594,166.95541381835938 L 42.27708435058594,166.95541381835938 Z" style="fill: rgb(38, 38, 38); stroke-width: 1px; stroke: none;"/>
<path d="M 157.3815460205078,160.71572875976562 C 155.8369140625,160.71572875976562 154.58328247070312,161.96934509277344 154.58328247070312,163.5139923095703 C 154.58328247070312,165.0586395263672 155.8369140625,166.312255859375 157.3815460205078,166.312255859375 C 158.9261932373047,166.312255859375 160.17982482910156,165.0586395263672 160.17982482910156,163.5139923095703 C 160.17982482910156,161.96934509277344 158.9261932373047,160.71572875976562 157.3815460205078,160.71572875976562 L 157.3815460205078,160.71572875976562 Z" style="fill: rgb(38, 38, 38); stroke-width: 1px; stroke: none;"/>
<path d="M 153.35205078125,165.64068603515625 C 151.80740356445312,165.64068603515625 150.55377197265625,166.89430236816406 150.55377197265625,168.43894958496094 C 150.55377197265625,169.9835968017578 151.80740356445312,171.23721313476562 153.35205078125,171.23721313476562 C 154.8966827392578,171.23721313476562 156.1503143310547,169.9835968017578 156.1503143310547,168.43894958496094 C 156.1503143310547,166.89430236816406 154.8966827392578,165.64068603515625 153.35205078125,165.64068603515625 L 153.35205078125,165.64068603515625 Z" style="fill: rgb(38, 38, 38); stroke-width: 1px; stroke: none;"/>
<path d="M 161.4110565185547,165.64068603515625 C 159.86642456054688,165.64068603515625 158.61279296875,166.89430236816406 158.61279296875,168.43894958496094 C 158.61279296875,169.9835968017578 159.86642456054688,171.23721313476562 161.4110565185547,171.23721313476562 C 162.95571899414062,171.23721313476562 164.2093505859375,169.9835968017578 164.2093505859375,168.43894958496094 C 164.2093505859375,166.89430236816406 162.95571899414062,165.64068603515625 161.4110565185547,165.64068603515625 L 161.4110565185547,165.64068603515625 Z" style="fill: rgb(38, 38, 38); stroke-width: 1px; stroke: none;"/>
<path d="M 156.56280517578125,166.95541381835938 C 156.5338592529297,169.74807739257812 155.86175537109375,173.01393127441406 154.95779418945312,176.17100524902344 L 154.95779418945312,176.17100524902344 L 161.8258056640625,183.03900146484375 L 161.8258056640625,183.03900146484375 C 160.00250244140625,178.33753967285156 157.91014099121094,171.8971710205078 157.88449096679688,167.04656982421875 L 156.56280517578125,166.95541381835938 L 156.56280517578125,166.95541381835938 L 156.56280517578125,166.95541381835938 Z" style="fill: rgb(38, 38, 38); stroke-width: 1px; stroke: none;"/>
<path d="M 0.0,0.0 L 200.0,0.0 L 200.0,100.0 C 200.0,150.0 160.0,200.0 100.0,230.0 C 40.0,200.0 0.0,150.0 0.0,100.0 L 0.0,0.0 Z" style="fill: none; stroke-width: 1px; stroke: rgb(0, 0, 0);"/>
</g>
<rect clip-path="url(#contour)" fill="url(#lighting)" height="246.0" width="216.0" x="0.0" y="0.0"/>
</svg>
