<?xml version="1.0" encoding="UTF-8" standalone="no"?>
<svg xmlns="http://www.w3.org/2000/svg" height="246.0" width="216.0">
<defs>
<clipPath id="contour">
<path d="M 0.0,0.0 L 200.0,0.0 L 200.0,100.0 C 200.0,150.0 160.0,200.0 100.0,230.0 C 40.0,200.0 0.0,150.0 0.0,100.0 L 0.0,0.0 Z"/>
</clipPath>
<radialGradient id="lighting">
<stop offset="25%" stop-color="white" stop-opacity="35%"/>
<stop offset="100%" stop-color="white" stop-opacity="0%"/>
</radialGradient>
</defs>
<g transform="translate(8.0,8.0)">
<path clip-path="url(#contour)" comment="FieldBackground" d="M 0.0,0.0 L 0.0,100.0 C 0.0,150.0 40.0,200.0 100.0,230.0 C 160.0,200.0 200.0,150.0 200.0,100.0 L 200.0,0.0 L 0.0,0.0 Z" style="fill-rule: evenodd; fill: rgb(230, 230, 230); stroke-width: 1px; stroke: none;"/>
<path clip-path="url(#contour)" comment="clipped FieldBackground" d="M 95.04906463623047,0.0 L 0.0,95.04906463623047 L 0.0,100.0 C 0.0,114.26115417480469 3.254089832305908,128.52230834960938 9.298198699951172,142.31939697265625 L 100.0,51.61760330200195 L 190.70179748535156,142.31939697265625 C 196.74591064453125,128.52230834960938 200.0,114.26115417480469 200.0,100.0 L 200.0,95.04906463623047 L 104.95093536376953,0.0 L 95.04906463623047,0.0 Z" style="fill-rule: evenodd; fill: rgb(179, 38, 26); stroke-width: 1px; stroke: none;"/>
<path clip-path="url(#contour)" comment="clipped FieldBackground" d="M 100.0,71.71572875976562 L 16.076921463012695,155.63880920410156 C 22.559659957885742,166.79566955566406 30.859355926513672,177.52891540527344 40.71086883544922,187.5734100341797 L 100.0,128.28427124023438 L 159.2891387939453,187.5734100341797 C 169.14064025878906,177.52891540527344 177.44033813476562,166.79566955566406 183.92308044433594,155.63880920410156 L 100.0,71.71572875976562 Z" style="fill-rule: evenodd; fill: rgb(179, 38, 26); stroke-width: 1px; stroke: none;"/>
<path clip-path="url(#contour)" comment="clipped FieldBackground" d="M 100.0,148.3824005126953 L 51.0347785949707,197.34762573242188 C 60.83296203613281,205.9758758544922 71.8240737915039,213.97100830078125 83.81302642822266,221.13790893554688 L 100.0,204.95094299316406 L 116.18697357177734,221.13790893554688 C 128.17593383789062,213.97100830078125 139.1670379638672,205.9758758544922 148.96522521972656,197.34762573242188 L 100.0,148.3824005126953 Z" style="fill-rule: evenodd; fill: rgb(179, 38, 26); stroke-width: 1px; stroke: none;"/>
<path clip-path="url(#contour)" comment="outer shield shape border" d="M 0.0,0.0 L 0.0,100.0 C 0.0,150.0 40.0,200.0 100.0,230.0 C 160.0,200.0 200.0,150.0 200.0,100.0 L 200.0,0.0 L 0.0,0.0 Z" style="fill-rule: evenodd; fill: none; stroke-width: 1px; stroke: rgb(0, 0, 0);"/>
</g>
</svg>
