<?xml version="1.0" encoding="UTF-8" standalone="no"?>
<svg xmlns="http://www.w3.org/2000/svg" height="246.0" width="216.0">
<defs>
<clipPath id="contour">
<path d="M 8.0,8.0 L 208.0,8.0 L 208.0,108.0 C 208.0,158.0 168.0,208.0 108.0,238.0 C 48.0,208.0 8.0,158.0 8.0,108.0 L 8.0,8.0 Z"/>
</clipPath>
<radialGradient id="lighting">
<stop offset="25%" stop-color="white" stop-opacity="35%"/>
<stop offset="100%" stop-color="white" stop-opacity="0%"/>
</radialGradient>
</defs>
<g>
<path d="M 8.0,8.0 L 8.0,108.0 C 8.0,158.0 48.0,208.0 108.0,238.0 L 108.0,8.0 L 8.0,8.0 Z" style="fill: rgb(217, 217, 38); stroke-width: 1px; stroke: none;"/>
<path d="M 28.0,54.0 L 88.0,54.0 L 88.0,192.0 L 28.0,192.0 L 28.0,54.0 Z" style="fill: none; stroke-width: 1px; stroke: rgb(0, 255, 255);"/>
<path d="M 108.0,8.0 L 108.0,238.0 C 168.0,208.0 208.0,158.0 208.0,108.0 L 208.0,8.0 L 108.0,8.0 Z" style="fill: rgb(217, 38, 38); stroke-width: 1px; stroke: none;"/>
<path d="M 128.0,54.0 L 188.0,54.0 L 188.0,192.0 L 128.0,192.0 L 128.0,54.0 Z" style="fill: none; stroke-width: 1px; stroke: rgb(0, 255, 255);"/>
<path d="M 8.0,8.0 L 8.0,65.5 L 208.0,65.5 L 208.0,8.0 L 8.0,8.0 Z" style="fill: rgb(38, 38, 217); stroke-width: 1px; stroke: none;"/>
<path d="M 78.0,33.2 L 84.0,33.2 L 84.0,39.8 L 78.0,39.8 L 78.0,33.2 Z" style="fill: none; stroke-width: 1px; stroke: rgb(0, 255, 255);"/>
<path d="M 29.0,33.2 L 35.0,33.2 L 35.0,39.8 L 29.0,39.8 L 29.0,33.2 Z" style="fill: none; stroke-width: 1px; stroke: rgb(0, 255, 255);"/>
<path d="M 176.2,18.2 L 182.8,18.2 L 182.8,24.8 L 176.2,24.8 L 176.2,18.2 Z" style="fill: none; stroke-width: 1px; stroke: rgb(0, 255, 255);"/>
<path d="M 176.2,48.2 L 182.8,48.2 L 182.8,54.8 L 176.2,54.8 L 176.2,48.2 Z" style="fill: none; stroke-width: 1px; stroke: rgb(0, 255, 255);"/>
<path d="M 125.2,33.2 L 131.8,33.2 L 131.8,39.8 L 125.2,39.8 L 125.2,33.2 Z" style="fill: none; stroke-width: 1px; stroke: rgb(0, 255, 255);"/>
<path d="M 76.0,71.20000076293945 L 140.0,71.20000076293945 L 140.0,103.19999694824219 C 140.0,119.19999694824219 127.19999694824219,135.1999969482422 108.0,144.8000030517578 C 88.80000305175781,135.1999969482422 76.0,119.19999694824219 76.0,103.19999694824219 L 76.0,71.20000076293945 Z" style="fill: rgb(217, 38, 38); stroke-width: 1px; stroke: none;"/>
<path d="M 93.0,71.20000076293945 L 93.0,134.9322052001953 L 93.0,134.9322052001953 C 97.35054016113281,138.6595916748047 102.40337371826172,142.00169372558594 108.0,144.8000030517578 C 113.59662628173828,142.00169372558594 118.64945983886719,138.6595916748047 123.0,134.9322052001953 L 123.0,134.9322052001953 L 123.0,71.20000076293945 L 93.0,71.20000076293945 Z" style="fill: rgb(230, 230, 230); stroke-width: 1px; stroke: none;"/>
<path d="M 76.0,88.0 L 76.0,103.19999694824219 C 76.0,108.19837188720703 77.24919128417969,113.19674682617188 79.55244445800781,118.0 L 136.4475555419922,118.0 C 138.7508087158203,113.19674682617188 140.0,108.19837188720703 140.0,103.19999694824219 L 140.0,88.0 L 76.0,88.0 Z" style="fill: rgb(230, 230, 230); stroke-width: 1px; stroke: none;"/>
<path d="M 76.0,71.20000076293945 L 76.0,92.21320343017578 L 120.64518737792969,136.85838317871094 L 120.64518737792969,136.85838317871094 C 129.57656860351562,129.88150024414062 135.95663452148438,121.34199523925781 138.6192169189453,112.40601348876953 L 138.6192169189453,112.40601348876953 L 97.4132080078125,71.20000076293945 L 76.0,71.20000076293945 Z" style="fill: rgb(230, 230, 230); stroke-width: 1px; stroke: none;"/>
<path d="M 76.0,71.20000076293945 L 140.0,71.20000076293945 L 140.0,103.19999694824219 C 140.0,119.19999694824219 127.19999694824219,135.1999969482422 108.0,144.8000030517578 C 88.80000305175781,135.1999969482422 76.0,119.19999694824219 76.0,103.19999694824219 L 76.0,71.20000076293945 Z" style="fill: none; stroke-width: 1px; stroke: rgb(0, 0, 0);"/>
<path d="M 8.0,8.0 L 208.0,8.0 L 208.0,108.0 C 208.0,158.0 168.0,208.0 108.0,238.0 C 48.0,208.0 8.0,158.0 8.0,108.0 L 8.0,8.0 Z" style="fill: none; stroke-width: 1px; stroke: rgb(0, 0, 0);"/>
</g>
<rect clip-path="url(#contour)" fill="url(#lighting)" height="246.0" width="216.0" x="0.0" y="0.0"/>
</svg>
