<?xml version="1.0" encoding="UTF-8" standalone="no"?>
<svg xmlns="http://www.w3.org/2000/svg" height="116.0" width="216.0">
<defs>
<clipPath id="contour">
<path d="M 8.0,8.0 L 208.0,8.0 L 168.0,58.0 L 208.0,108.0 L 8.0,108.0 L 8.0,8.0 Z"/>
</clipPath>
<radialGradient id="lighting">
<stop offset="25%" stop-color="white" stop-opacity="35%"/>
<stop offset="100%" stop-color="white" stop-opacity="0%"/>
</radialGradient>
</defs>
<g transform="translate(8.0,8.0)">
<path d="M 0.0,0.0 L 200.0,0.0 L 160.0,50.0 L 200.0,100.0 L 0.0,100.0 L 0.0,0.0 Z" style="fill: rgb(230, 230, 230); stroke-width: 1px; stroke: none;"/>
<path d="M 45.0,0.0 L 80.33333587646484,35.33333206176758 L 85.33333587646484,30.33333396911621 L 55.0,0.0 L 45.0,0.0 Z" style="fill: rgb(38, 38, 38); stroke-width: 1px; stroke: none;"/>
<path d="M 91.33333587646484,36.33333206176758 L 86.33333587646484,41.33333206176758 L 108.66666412353516,63.66666793823242 L 113.66666412353516,58.66666793823242 L 91.33333587646484,36.33333206176758 L 91.33333587646484,36.33333206176758 Z" style="fill: rgb(38, 38, 38); stroke-width: 1px; stroke: none;"/>
<path d="M 119.66666412353516,64.66666412353516 L 114.66666412353516,69.66666412353516 L 145.0,100.0 L 155.0,100.0 L 119.66666412353516,64.66666412353516 L 119.66666412353516,64.66666412353516 Z" style="fill: rgb(38, 38, 38); stroke-width: 1px; stroke: none;"/>
<path d="M 145.0,0.0 L 100.5,44.5 L 105.5,49.5 L 155.0,0.0 L 145.0,0.0 Z" style="fill: rgb(38, 38, 38); stroke-width: 1px; stroke: none;"/>
<path d="M 94.5,50.5 L 45.0,100.0 L 55.0,100.0 L 99.5,55.5 L 94.5,50.5 L 94.5,50.5 Z" style="fill: rgb(38, 38, 38); stroke-width: 1px; stroke: none;"/>
<path d="M 100.0,16.66666603088379 L 66.66666412353516,50.0 L 80.33333587646484,63.66666793823242 L 85.33333587646484,58.66666793823242 L 76.66666412353516,50.0 L 100.0,26.66666603088379 L 108.66666412353516,35.33333206176758 L 113.66666412353516,30.33333396911621 L 100.0,16.66666603088379 L 100.0,16.66666603088379 Z" style="fill: rgb(38, 38, 38); stroke-width: 1px; stroke: none;"/>
<path d="M 119.66666412353516,36.33333206176758 L 114.66666412353516,41.33333206176758 L 123.33333587646484,50.0 L 100.0,73.33333587646484 L 91.33333587646484,64.66666412353516 L 86.33333587646484,69.66666412353516 L 100.0,83.33333587646484 L 133.3333282470703,50.0 L 119.66666412353516,36.33333206176758 L 119.66666412353516,36.33333206176758 Z" style="fill: rgb(38, 38, 38); stroke-width: 1px; stroke: none;"/>
<path d="M 0.0,0.0 L 200.0,0.0 L 160.0,50.0 L 200.0,100.0 L 0.0,100.0 L 0.0,0.0 Z" style="fill: none; stroke-width: 1px; stroke: rgb(0, 0, 0);"/>
</g>
<rect clip-path="url(#contour)" fill="url(#lighting)" height="116.0" width="216.0" x="0.0" y="0.0"/>
</svg>
