<?xml version="1.0" encoding="UTF-8" standalone="no"?>
<svg xmlns="http://www.w3.org/2000/svg" height="246.0" width="216.0">
<defs>
<clipPath id="contour">
<path d="M 8.0,8.0 L 208.0,8.0 L 208.0,108.0 C 208.0,158.0 168.0,208.0 108.0,238.0 C 48.0,208.0 8.0,158.0 8.0,108.0 L 8.0,8.0 Z"/>
</clipPath>
<radialGradient id="lighting">
<stop offset="25%" stop-color="white" stop-opacity="35%"/>
<stop offset="100%" stop-color="white" stop-opacity="0%"/>
</radialGradient>
</defs>
<g transform="translate(8.0,8.0)">
<path clip-path="url(#contour)" d="M 0.0,0.0 L 200.0,0.0 L 200.0,100.0 C 200.0,150.0 160.0,200.0 100.0,230.0 C 40.0,200.0 0.0,150.0 0.0,100.0 L 0.0,0.0 Z" style="fill: rgb(217, 38, 38); stroke-width: 1px; stroke: none;"/>
<path clip-path="url(#contour)" d="M 85.0,0.0 L 85.0,221.84283447265625 C 89.8441162109375,224.70089721679688 94.84833526611328,227.42416381835938 100.0,230.0 C 105.15166473388672,227.42416381835938 110.1558837890625,224.70089721679688 115.0,221.84283447265625 L 115.0,0.0 L 85.0,0.0 Z" style="fill: rgb(230, 230, 230); stroke-width: 1px; stroke: none;"/>
<path clip-path="url(#contour)" d="M 86.61759185791016,0.0 C 86.09025573730469,1.6218082904815674 85.51741027832031,3.1505329608917236 85.0,4.443343162536621 L 85.0,6.907426834106445 L 86.9843978881836,5.250547885894775 C 87.79969024658203,6.278524875640869 88.93399810791016,8.33445930480957 88.93399810791016,8.33445930480957 C 88.93399810791016,8.33445930480957 90.51139831542969,6.296236515045166 91.39757537841797,5.268280506134033 L 94.60555267333984,8.334457397460938 C 94.60555267333984,8.334457397460938 92.76268768310547,4.507951736450195 91.28388214111328,0.0 L 86.61759185791016,0.0 Z" style="fill: rgb(38, 38, 38); stroke-width: 1px; stroke: none;"/>
<path clip-path="url(#contour)" d="M 108.83981323242188,0.0 C 107.37358856201172,4.509309768676758 105.55555725097656,8.299013137817383 105.55555725097656,8.299013137817383 L 109.20661926269531,5.250547885894775 C 110.02191162109375,6.278524875640869 111.15621948242188,8.33445930480957 111.15621948242188,8.33445930480957 C 111.15621948242188,8.33445930480957 112.7336196899414,6.296236515045166 113.61979675292969,5.268280506134033 L 115.0,6.587472438812256 L 115.0,4.102707862854004 C 114.51473999023438,2.8822178840637207 113.99085998535156,1.4777213335037231 113.506103515625,0.0 L 108.83981323242188,0.0 Z" style="fill: rgb(38, 38, 38); stroke-width: 1px; stroke: none;"/>
<path clip-path="url(#contour)" d="M 100.1856460571289,13.890010833740234 C 98.98426818847656,13.890010833740234 98.00922393798828,14.8650484085083 98.00922393798828,16.066438674926758 C 98.00922393798828,17.2678279876709 98.98426818847656,18.242870330810547 100.1856460571289,18.242870330810547 C 101.38704681396484,18.242870330810547 102.36209106445312,17.2678279876709 102.36209106445312,16.066438674926758 C 102.36209106445312,14.8650484085083 101.38704681396484,13.890010833740234 100.1856460571289,13.890010833740234 L 100.1856460571289,13.890010833740234 Z" style="fill: rgb(38, 38, 38); stroke-width: 1px; stroke: none;"/>
<path clip-path="url(#contour)" d="M 97.05159759521484,17.72052764892578 C 95.8501968383789,17.72052764892578 94.87515258789062,18.695568084716797 94.87515258789062,19.89695930480957 C 94.87515258789062,21.09834861755371 95.8501968383789,22.07339096069336 97.05159759521484,22.07339096069336 C 98.25297546386719,22.07339096069336 99.22801971435547,21.09834861755371 99.22801971435547,19.89695930480957 C 99.22801971435547,18.695568084716797 98.25297546386719,17.72052764892578 97.05159759521484,17.72052764892578 L 97.05159759521484,17.72052764892578 Z" style="fill: rgb(38, 38, 38); stroke-width: 1px; stroke: none;"/>
<path clip-path="url(#contour)" d="M 103.31970977783203,17.72052764892578 C 102.11833190917969,17.72052764892578 101.1432876586914,18.695568084716797 101.1432876586914,19.89695930480957 C 101.1432876586914,21.09834861755371 102.11833190917969,22.07339096069336 103.31970977783203,22.07339096069336 C 104.52111053466797,22.07339096069336 105.49615478515625,21.09834861755371 105.49615478515625,19.89695930480957 C 105.49615478515625,18.695568084716797 104.52111053466797,17.72052764892578 103.31970977783203,17.72052764892578 L 103.31970977783203,17.72052764892578 Z" style="fill: rgb(38, 38, 38); stroke-width: 1px; stroke: none;"/>
<path clip-path="url(#contour)" d="M 99.54884338378906,18.743101119995117 C 99.47795867919922,25.584413528442383 94.44444274902344,36.07678985595703 94.44444274902344,36.07678985595703 L 98.09551239013672,33.028324127197266 C 98.91079711914062,34.05630111694336 100.04511260986328,36.11223602294922 100.04511260986328,36.11223602294922 C 100.04511260986328,36.11223602294922 101.62251281738281,34.074012756347656 102.5086898803711,33.046058654785156 L 105.71666717529297,36.11223602294922 C 105.71666717529297,36.11223602294922 100.61226654052734,25.51352310180664 100.57682037353516,18.813997268676758 L 99.54884338378906,18.743101119995117 L 99.54884338378906,18.743101119995117 Z" style="fill: rgb(38, 38, 38); stroke-width: 1px; stroke: none;"/>
<path clip-path="url(#contour)" d="M 89.07453155517578,41.667789459228516 C 87.87315368652344,41.667789459228516 86.89810943603516,42.642826080322266 86.89810943603516,43.844215393066406 C 86.89810943603516,45.04560470581055 87.87315368652344,46.02064895629883 89.07453155517578,46.02064895629883 C 90.27593231201172,46.02064895629883 91.2509765625,45.04560470581055 91.2509765625,43.844215393066406 C 91.2509765625,42.642826080322266 90.27593231201172,41.667789459228516 89.07453155517578,41.667789459228516 L 89.07453155517578,41.667789459228516 Z" style="fill: rgb(38, 38, 38); stroke-width: 1px; stroke: none;"/>
<path clip-path="url(#contour)" d="M 85.94049072265625,45.49830627441406 C 85.60370635986328,45.49830627441406 85.28471374511719,45.57492446899414 85.0,45.711673736572266 L 85.0,49.63779830932617 C 85.28471374511719,49.7745475769043 85.60370635986328,49.85116958618164 85.94049072265625,49.85116958618164 C 87.1418685913086,49.85116958618164 88.11691284179688,48.87612533569336 88.11691284179688,47.67473602294922 C 88.11691284179688,46.47334671020508 87.1418685913086,45.49830627441406 85.94049072265625,45.49830627441406 L 85.94049072265625,45.49830627441406 Z" style="fill: rgb(38, 38, 38); stroke-width: 1px; stroke: none;"/>
<path clip-path="url(#contour)" d="M 92.20860290527344,45.49830627441406 C 91.0072250366211,45.49830627441406 90.03218078613281,46.47334671020508 90.03218078613281,47.67473602294922 C 90.03218078613281,48.87612533569336 91.0072250366211,49.85116958618164 92.20860290527344,49.85116958618164 C 93.41000366210938,49.85116958618164 94.38504791259766,48.87612533569336 94.38504791259766,47.67473602294922 C 94.38504791259766,46.47334671020508 93.41000366210938,45.49830627441406 92.20860290527344,45.49830627441406 L 92.20860290527344,45.49830627441406 Z" style="fill: rgb(38, 38, 38); stroke-width: 1px; stroke: none;"/>
<path clip-path="url(#contour)" d="M 88.43773651123047,46.520877838134766 C 88.39412689208984,50.72939682006836 86.47254180908203,56.31956481933594 85.0,59.998897552490234 L 85.0,62.462982177734375 L 86.9843978881836,60.80610275268555 C 87.79969024658203,61.83407974243164 88.93399810791016,63.8900146484375 88.93399810791016,63.8900146484375 C 88.93399810791016,63.8900146484375 90.51139831542969,61.85179138183594 91.39757537841797,60.82383728027344 L 94.60555267333984,63.8900146484375 C 94.60555267333984,63.8900146484375 89.50115203857422,53.29130172729492 89.46571350097656,46.591773986816406 L 88.43773651123047,46.520877838134766 L 88.43773651123047,46.520877838134766 Z" style="fill: rgb(38, 38, 38); stroke-width: 1px; stroke: none;"/>
<path clip-path="url(#contour)" d="M 111.2967529296875,41.667789459228516 C 110.09537506103516,41.667789459228516 109.12033081054688,42.642826080322266 109.12033081054688,43.844215393066406 C 109.12033081054688,45.04560470581055 110.09537506103516,46.02064895629883 111.2967529296875,46.02064895629883 C 112.49815368652344,46.02064895629883 113.47319793701172,45.04560470581055 113.47319793701172,43.844215393066406 C 113.47319793701172,42.642826080322266 112.49815368652344,41.667789459228516 111.2967529296875,41.667789459228516 L 111.2967529296875,41.667789459228516 Z" style="fill: rgb(38, 38, 38); stroke-width: 1px; stroke: none;"/>
<path clip-path="url(#contour)" d="M 108.16271209716797,45.49830627441406 C 106.96131134033203,45.49830627441406 105.98626708984375,46.47334671020508 105.98626708984375,47.67473602294922 C 105.98626708984375,48.87612533569336 106.96131134033203,49.85116958618164 108.16271209716797,49.85116958618164 C 109.36408996582031,49.85116958618164 110.3391342163086,48.87612533569336 110.3391342163086,47.67473602294922 C 110.3391342163086,46.47334671020508 109.36408996582031,45.49830627441406 108.16271209716797,45.49830627441406 L 108.16271209716797,45.49830627441406 Z" style="fill: rgb(38, 38, 38); stroke-width: 1px; stroke: none;"/>
<path clip-path="url(#contour)" d="M 114.43082427978516,45.49830627441406 C 113.22944641113281,45.49830627441406 112.25440216064453,46.47334671020508 112.25440216064453,47.67473602294922 C 112.25440216064453,48.87612533569336 113.22944641113281,49.85116958618164 114.43082427978516,49.85116958618164 C 114.62772369384766,49.85116958618164 114.81855010986328,49.82497787475586 115.0,49.7758903503418 L 115.0,45.573585510253906 C 114.81855010986328,45.524497985839844 114.62773132324219,45.49830627441406 114.43082427978516,45.49830627441406 L 114.43082427978516,45.49830627441406 Z" style="fill: rgb(38, 38, 38); stroke-width: 1px; stroke: none;"/>
<path clip-path="url(#contour)" d="M 110.65995788574219,46.520877838134766 C 110.58906555175781,53.36219024658203 105.55555725097656,63.85456848144531 105.55555725097656,63.85456848144531 L 109.20661926269531,60.80610275268555 C 110.02191162109375,61.83407974243164 111.15621948242188,63.8900146484375 111.15621948242188,63.8900146484375 C 111.15621948242188,63.8900146484375 112.7336196899414,61.85179138183594 113.61979675292969,60.82383728027344 L 115.0,62.143028259277344 L 115.0,59.65826416015625 C 113.53138732910156,55.964515686035156 111.70906066894531,50.58538055419922 111.68793487548828,46.591773986816406 L 110.65995788574219,46.520877838134766 L 110.65995788574219,46.520877838134766 Z" style="fill: rgb(38, 38, 38); stroke-width: 1px; stroke: none;"/>
<path clip-path="url(#contour)" d="M 100.1856460571289,69.44556427001953 C 98.98426818847656,69.44556427001953 98.00922393798828,70.42060089111328 98.00922393798828,71.62199401855469 C 98.00922393798828,72.8233871459961 98.98426818847656,73.79842376708984 100.1856460571289,73.79842376708984 C 101.38704681396484,73.79842376708984 102.36209106445312,72.8233871459961 102.36209106445312,71.62199401855469 C 102.36209106445312,70.42060089111328 101.38704681396484,69.44556427001953 100.1856460571289,69.44556427001953 L 100.1856460571289,69.44556427001953 Z" style="fill: rgb(38, 38, 38); stroke-width: 1px; stroke: none;"/>
<path clip-path="url(#contour)" d="M 97.05159759521484,73.27608489990234 C 95.8501968383789,73.27608489990234 94.87515258789062,74.2511215209961 94.87515258789062,75.4525146484375 C 94.87515258789062,76.65390014648438 95.8501968383789,77.62894439697266 97.05159759521484,77.62894439697266 C 98.25297546386719,77.62894439697266 99.22801971435547,76.65390014648438 99.22801971435547,75.4525146484375 C 99.22801971435547,74.2511215209961 98.25297546386719,73.27608489990234 97.05159759521484,73.27608489990234 L 97.05159759521484,73.27608489990234 Z" style="fill: rgb(38, 38, 38); stroke-width: 1px; stroke: none;"/>
<path clip-path="url(#contour)" d="M 103.31970977783203,73.27608489990234 C 102.11833190917969,73.27608489990234 101.1432876586914,74.2511215209961 101.1432876586914,75.4525146484375 C 101.1432876586914,76.65390014648438 102.11833190917969,77.62894439697266 103.31970977783203,77.62894439697266 C 104.52111053466797,77.62894439697266 105.49615478515625,76.65390014648438 105.49615478515625,75.4525146484375 C 105.49615478515625,74.2511215209961 104.52111053466797,73.27608489990234 103.31970977783203,73.27608489990234 L 103.31970977783203,73.27608489990234 Z" style="fill: rgb(38, 38, 38); stroke-width: 1px; stroke: none;"/>
<path clip-path="url(#contour)" d="M 99.54884338378906,74.29866027832031 C 99.47795867919922,81.13996887207031 94.44444274902344,91.6323471069336 94.44444274902344,91.6323471069336 L 98.09551239013672,88.58387756347656 C 98.91079711914062,89.61185455322266 100.04511260986328,91.66779327392578 100.04511260986328,91.66779327392578 C 100.04511260986328,91.66779327392578 101.62251281738281,89.62957000732422 102.5086898803711,88.60161590576172 L 105.71666717529297,91.66779327392578 C 105.71666717529297,91.66779327392578 100.61226654052734,81.06907653808594 100.57682037353516,74.36955261230469 L 99.54884338378906,74.29866027832031 L 99.54884338378906,74.29866027832031 Z" style="fill: rgb(38, 38, 38); stroke-width: 1px; stroke: none;"/>
<path clip-path="url(#contour)" d="M 89.07453155517578,97.22334289550781 C 87.87315368652344,97.22334289550781 86.89810943603516,98.19837951660156 86.89810943603516,99.39977264404297 C 86.89810943603516,100.60115814208984 87.87315368652344,101.57620239257812 89.07453155517578,101.57620239257812 C 90.27593231201172,101.57620239257812 91.2509765625,100.60115814208984 91.2509765625,99.39977264404297 C 91.2509765625,98.19837951660156 90.27593231201172,97.22334289550781 89.07453155517578,97.22334289550781 L 89.07453155517578,97.22334289550781 Z" style="fill: rgb(38, 38, 38); stroke-width: 1px; stroke: none;"/>
<path clip-path="url(#contour)" d="M 85.94049072265625,101.05386352539062 C 85.60370635986328,101.05386352539062 85.28471374511719,101.13048553466797 85.0,101.26722717285156 L 85.0,105.19335174560547 C 85.28471374511719,105.3301010131836 85.60370635986328,105.40672302246094 85.94049072265625,105.40672302246094 C 87.1418685913086,105.40672302246094 88.11691284179688,104.43167877197266 88.11691284179688,103.23029327392578 C 88.11691284179688,102.02890014648438 87.1418685913086,101.05386352539062 85.94049072265625,101.05386352539062 L 85.94049072265625,101.05386352539062 Z" style="fill: rgb(38, 38, 38); stroke-width: 1px; stroke: none;"/>
<path clip-path="url(#contour)" d="M 92.20860290527344,101.05386352539062 C 91.0072250366211,101.05386352539062 90.03218078613281,102.02890014648438 90.03218078613281,103.23029327392578 C 90.03218078613281,104.43167877197266 91.0072250366211,105.40672302246094 92.20860290527344,105.40672302246094 C 93.41000366210938,105.40672302246094 94.38504791259766,104.43167877197266 94.38504791259766,103.23029327392578 C 94.38504791259766,102.02890014648438 93.41000366210938,101.05386352539062 92.20860290527344,101.05386352539062 L 92.20860290527344,101.05386352539062 Z" style="fill: rgb(38, 38, 38); stroke-width: 1px; stroke: none;"/>
<path clip-path="url(#contour)" d="M 88.43773651123047,102.07643127441406 C 88.39412689208984,106.28495025634766 86.47254180908203,111.8751220703125 85.0,115.55445098876953 L 85.0,118.01853942871094 L 86.9843978881836,116.36165618896484 C 87.79969024658203,117.38963317871094 88.93399810791016,119.44557189941406 88.93399810791016,119.44557189941406 C 88.93399810791016,119.44557189941406 90.51139831542969,117.4073486328125 91.39757537841797,116.37939453125 L 94.60555267333984,119.44557189941406 C 94.60555267333984,119.44557189941406 89.50115203857422,108.84685516357422 89.46571350097656,102.14733123779297 L 88.43773651123047,102.07643127441406 L 88.43773651123047,102.07643127441406 Z" style="fill: rgb(38, 38, 38); stroke-width: 1px; stroke: none;"/>
<path clip-path="url(#contour)" d="M 111.2967529296875,97.22334289550781 C 110.09537506103516,97.22334289550781 109.12033081054688,98.19837951660156 109.12033081054688,99.39977264404297 C 109.12033081054688,100.60115814208984 110.09537506103516,101.57620239257812 111.2967529296875,101.57620239257812 C 112.49815368652344,101.57620239257812 113.47319793701172,100.60115814208984 113.47319793701172,99.39977264404297 C 113.47319793701172,98.19837951660156 112.49815368652344,97.22334289550781 111.2967529296875,97.22334289550781 L 111.2967529296875,97.22334289550781 Z" style="fill: rgb(38, 38, 38); stroke-width: 1px; stroke: none;"/>
<path clip-path="url(#contour)" d="M 108.16271209716797,101.05386352539062 C 106.96131134033203,101.05386352539062 105.98626708984375,102.02890014648438 105.98626708984375,103.23029327392578 C 105.98626708984375,104.43167877197266 106.96131134033203,105.40672302246094 108.16271209716797,105.40672302246094 C 109.36408996582031,105.40672302246094 110.3391342163086,104.43167877197266 110.3391342163086,103.23029327392578 C 110.3391342163086,102.02890014648438 109.36408996582031,101.05386352539062 108.16271209716797,101.05386352539062 L 108.16271209716797,101.05386352539062 Z" style="fill: rgb(38, 38, 38); stroke-width: 1px; stroke: none;"/>
<path clip-path="url(#contour)" d="M 114.43082427978516,101.05386352539062 C 113.22944641113281,101.05386352539062 112.25440216064453,102.02890014648438 112.25440216064453,103.23029327392578 C 112.25440216064453,104.43167877197266 113.22944641113281,105.40672302246094 114.43082427978516,105.40672302246094 C 114.62772369384766,105.40672302246094 114.81855010986328,105.38053131103516 115.0,105.3314437866211 L 115.0,101.12914276123047 C 114.81855010986328,101.0800552368164 114.62773132324219,101.05386352539062 114.43082427978516,101.05386352539062 L 114.43082427978516,101.05386352539062 Z" style="fill: rgb(38, 38, 38); stroke-width: 1px; stroke: none;"/>
<path clip-path="url(#contour)" d="M 110.65995788574219,102.07643127441406 C 110.58906555175781,108.9177474975586 105.55555725097656,119.41012573242188 105.55555725097656,119.41012573242188 L 109.20661926269531,116.36165618896484 C 110.02191162109375,117.38963317871094 111.15621948242188,119.44557189941406 111.15621948242188,119.44557189941406 C 111.15621948242188,119.44557189941406 112.7336196899414,117.4073486328125 113.61979675292969,116.37939453125 L 115.0,117.6985855102539 L 115.0,115.21382141113281 C 113.53138732910156,111.52007293701172 111.70906066894531,106.14093780517578 111.68793487548828,102.14733123779297 L 110.65995788574219,102.07643127441406 L 110.65995788574219,102.07643127441406 Z" style="fill: rgb(38, 38, 38); stroke-width: 1px; stroke: none;"/>
<path clip-path="url(#contour)" d="M 100.1856460571289,125.0011215209961 C 98.98426818847656,125.0011215209961 98.00922393798828,125.97615814208984 98.00922393798828,127.17755126953125 C 98.00922393798828,128.37893676757812 98.98426818847656,129.35398864746094 100.1856460571289,129.35398864746094 C 101.38704681396484,129.35398864746094 102.36209106445312,128.37893676757812 102.36209106445312,127.17755126953125 C 102.36209106445312,125.97615814208984 101.38704681396484,125.0011215209961 100.1856460571289,125.0011215209961 L 100.1856460571289,125.0011215209961 Z" style="fill: rgb(38, 38, 38); stroke-width: 1px; stroke: none;"/>
<path clip-path="url(#contour)" d="M 97.05159759521484,128.83163452148438 C 95.8501968383789,128.83163452148438 94.87515258789062,129.8066864013672 94.87515258789062,131.00807189941406 C 94.87515258789062,132.20945739746094 95.8501968383789,133.18450927734375 97.05159759521484,133.18450927734375 C 98.25297546386719,133.18450927734375 99.22801971435547,132.20945739746094 99.22801971435547,131.00807189941406 C 99.22801971435547,129.8066864013672 98.25297546386719,128.83163452148438 97.05159759521484,128.83163452148438 L 97.05159759521484,128.83163452148438 Z" style="fill: rgb(38, 38, 38); stroke-width: 1px; stroke: none;"/>
<path clip-path="url(#contour)" d="M 103.31970977783203,128.83163452148438 C 102.11833190917969,128.83163452148438 101.1432876586914,129.8066864013672 101.1432876586914,131.00807189941406 C 101.1432876586914,132.20945739746094 102.11833190917969,133.18450927734375 103.31970977783203,133.18450927734375 C 104.52111053466797,133.18450927734375 105.49615478515625,132.20945739746094 105.49615478515625,131.00807189941406 C 105.49615478515625,129.8066864013672 104.52111053466797,128.83163452148438 103.31970977783203,128.83163452148438 L 103.31970977783203,128.83163452148438 Z" style="fill: rgb(38, 38, 38); stroke-width: 1px; stroke: none;"/>
<path clip-path="url(#contour)" d="M 99.54884338378906,129.85421752929688 C 99.47795867919922,136.69552612304688 94.44444274902344,147.18789672851562 94.44444274902344,147.18789672851562 L 98.09551239013672,144.13943481445312 C 98.91079711914062,145.16741943359375 100.04511260986328,147.2233428955078 100.04511260986328,147.2233428955078 C 100.04511260986328,147.2233428955078 101.62251281738281,145.18511962890625 102.5086898803711,144.15716552734375 L 105.71666717529297,147.2233428955078 C 105.71666717529297,147.2233428955078 100.61226654052734,136.6246337890625 100.57682037353516,129.92510986328125 L 99.54884338378906,129.85421752929688 L 99.54884338378906,129.85421752929688 Z" style="fill: rgb(38, 38, 38); stroke-width: 1px; stroke: none;"/>
<path clip-path="url(#contour)" d="M 89.07453155517578,152.77890014648438 C 87.87315368652344,152.77890014648438 86.89810943603516,153.75393676757812 86.89810943603516,154.955322265625 C 86.89810943603516,156.15672302246094 87.87315368652344,157.1317596435547 89.07453155517578,157.1317596435547 C 90.27593231201172,157.1317596435547 91.2509765625,156.15672302246094 91.2509765625,154.955322265625 C 91.2509765625,153.75393676757812 90.27593231201172,152.77890014648438 89.07453155517578,152.77890014648438 L 89.07453155517578,152.77890014648438 Z" style="fill: rgb(38, 38, 38); stroke-width: 1px; stroke: none;"/>
<path clip-path="url(#contour)" d="M 85.94049072265625,156.6094207763672 C 85.60370635986328,156.6094207763672 85.28471374511719,156.68603515625 85.0,156.82278442382812 L 85.0,160.74891662597656 C 85.28471374511719,160.8856658935547 85.60370635986328,160.9622802734375 85.94049072265625,160.9622802734375 C 87.1418685913086,160.9622802734375 88.11691284179688,159.98724365234375 88.11691284179688,158.7858428955078 C 88.11691284179688,157.58445739746094 87.1418685913086,156.6094207763672 85.94049072265625,156.6094207763672 L 85.94049072265625,156.6094207763672 Z" style="fill: rgb(38, 38, 38); stroke-width: 1px; stroke: none;"/>
<path clip-path="url(#contour)" d="M 92.20860290527344,156.6094207763672 C 91.0072250366211,156.6094207763672 90.03218078613281,157.58445739746094 90.03218078613281,158.7858428955078 C 90.03218078613281,159.98724365234375 91.0072250366211,160.9622802734375 92.20860290527344,160.9622802734375 C 93.41000366210938,160.9622802734375 94.38504791259766,159.98724365234375 94.38504791259766,158.7858428955078 C 94.38504791259766,157.58445739746094 93.41000366210938,156.6094207763672 92.20860290527344,156.6094207763672 L 92.20860290527344,156.6094207763672 Z" style="fill: rgb(38, 38, 38); stroke-width: 1px; stroke: none;"/>
<path clip-path="url(#contour)" d="M 88.43773651123047,157.63198852539062 C 88.39412689208984,161.8404998779297 86.47254180908203,167.43067932128906 85.0,171.11001586914062 L 85.0,173.5740966796875 L 86.9843978881836,171.91722106933594 C 87.79969024658203,172.9451904296875 88.93399810791016,175.00112915039062 88.93399810791016,175.00112915039062 C 88.93399810791016,175.00112915039062 90.51139831542969,172.96290588378906 91.39757537841797,171.93495178222656 L 94.60555267333984,175.00112915039062 C 94.60555267333984,175.00112915039062 89.50115203857422,164.4024200439453 89.46571350097656,157.702880859375 L 88.43773651123047,157.63198852539062 L 88.43773651123047,157.63198852539062 Z" style="fill: rgb(38, 38, 38); stroke-width: 1px; stroke: none;"/>
<path clip-path="url(#contour)" d="M 111.2967529296875,152.77890014648438 C 110.09537506103516,152.77890014648438 109.12033081054688,153.75393676757812 109.12033081054688,154.955322265625 C 109.12033081054688,156.15672302246094 110.09537506103516,157.1317596435547 111.2967529296875,157.1317596435547 C 112.49815368652344,157.1317596435547 113.47319793701172,156.15672302246094 113.47319793701172,154.955322265625 C 113.47319793701172,153.75393676757812 112.49815368652344,152.77890014648438 111.2967529296875,152.77890014648438 L 111.2967529296875,152.77890014648438 Z" style="fill: rgb(38, 38, 38); stroke-width: 1px; stroke: none;"/>
<path clip-path="url(#contour)" d="M 108.16271209716797,156.6094207763672 C 106.96131134033203,156.6094207763672 105.98626708984375,157.58445739746094 105.98626708984375,158.7858428955078 C 105.98626708984375,159.98724365234375 106.96131134033203,160.9622802734375 108.16271209716797,160.9622802734375 C 109.36408996582031,160.9622802734375 110.3391342163086,159.98724365234375 110.3391342163086,158.7858428955078 C 110.3391342163086,157.58445739746094 109.36408996582031,156.6094207763672 108.16271209716797,156.6094207763672 L 108.16271209716797,156.6094207763672 Z" style="fill: rgb(38, 38, 38); stroke-width: 1px; stroke: none;"/>
<path clip-path="url(#contour)" d="M 114.43082427978516,156.6094207763672 C 113.22944641113281,156.6094207763672 112.25440216064453,157.58445739746094 112.25440216064453,158.7858428955078 C 112.25440216064453,159.98724365234375 113.22944641113281,160.9622802734375 114.43082427978516,160.9622802734375 C 114.62772369384766,160.9622802734375 114.81855010986328,160.9360809326172 115.0,160.88699340820312 L 115.0,156.6846923828125 C 114.81855010986328,156.63560485839844 114.62773132324219,156.6094207763672 114.43082427978516,156.6094207763672 L 114.43082427978516,156.6094207763672 Z" style="fill: rgb(38, 38, 38); stroke-width: 1px; stroke: none;"/>
<path clip-path="url(#contour)" d="M 110.65995788574219,157.63198852539062 C 110.58906555175781,164.47329711914062 105.55555725097656,174.96568298339844 105.55555725097656,174.96568298339844 L 109.20661926269531,171.91722106933594 C 110.02191162109375,172.9451904296875 111.15621948242188,175.00112915039062 111.15621948242188,175.00112915039062 C 111.15621948242188,175.00112915039062 112.7336196899414,172.96290588378906 113.61979675292969,171.93495178222656 L 115.0,173.25413513183594 L 115.0,170.76937866210938 C 113.53138732910156,167.07562255859375 111.70906066894531,161.6964874267578 111.68793487548828,157.702880859375 L 110.65995788574219,157.63198852539062 L 110.65995788574219,157.63198852539062 Z" style="fill: rgb(38, 38, 38); stroke-width: 1px; stroke: none;"/>
<path clip-path="url(#contour)" d="M 100.1856460571289,180.55667114257812 C 98.98426818847656,180.55667114257812 98.00922393798828,181.53170776367188 98.00922393798828,182.7331085205078 C 98.00922393798828,183.9344940185547 98.98426818847656,184.90953063964844 100.1856460571289,184.90953063964844 C 101.38704681396484,184.90953063964844 102.36209106445312,183.9344940185547 102.36209106445312,182.7331085205078 C 102.36209106445312,181.53170776367188 101.38704681396484,180.55667114257812 100.1856460571289,180.55667114257812 L 100.1856460571289,180.55667114257812 Z" style="fill: rgb(38, 38, 38); stroke-width: 1px; stroke: none;"/>
<path clip-path="url(#contour)" d="M 97.05159759521484,184.38719177246094 C 95.8501968383789,184.38719177246094 94.87515258789062,185.3622283935547 94.87515258789062,186.56362915039062 C 94.87515258789062,187.7650146484375 95.8501968383789,188.74005126953125 97.05159759521484,188.74005126953125 C 98.25297546386719,188.74005126953125 99.22801971435547,187.7650146484375 99.22801971435547,186.56362915039062 C 99.22801971435547,185.3622283935547 98.25297546386719,184.38719177246094 97.05159759521484,184.38719177246094 L 97.05159759521484,184.38719177246094 Z" style="fill: rgb(38, 38, 38); stroke-width: 1px; stroke: none;"/>
<path clip-path="url(#contour)" d="M 103.31970977783203,184.38719177246094 C 102.11833190917969,184.38719177246094 101.1432876586914,185.3622283935547 101.1432876586914,186.56362915039062 C 101.1432876586914,187.7650146484375 102.11833190917969,188.74005126953125 103.31970977783203,188.74005126953125 C 104.52111053466797,188.74005126953125 105.49615478515625,187.7650146484375 105.49615478515625,186.56362915039062 C 105.49615478515625,185.3622283935547 104.52111053466797,184.38719177246094 103.31970977783203,184.38719177246094 L 103.31970977783203,184.38719177246094 Z" style="fill: rgb(38, 38, 38); stroke-width: 1px; stroke: none;"/>
<path clip-path="url(#contour)" d="M 99.54884338378906,185.40977478027344 C 99.47795867919922,192.25108337402344 94.44444274902344,202.7434539794922 94.44444274902344,202.7434539794922 L 98.09551239013672,199.6949920654297 C 98.91079711914062,200.7229766845703 100.04511260986328,202.77890014648438 100.04511260986328,202.77890014648438 C 100.04511260986328,202.77890014648438 101.62251281738281,200.7406768798828 102.5086898803711,199.7127227783203 L 105.71666717529297,202.77890014648438 C 105.71666717529297,202.77890014648438 100.61226654052734,192.18019104003906 100.57682037353516,185.4806671142578 L 99.54884338378906,185.40977478027344 L 99.54884338378906,185.40977478027344 Z" style="fill: rgb(38, 38, 38); stroke-width: 1px; stroke: none;"/>
<path clip-path="url(#contour)" d="M 89.07453155517578,208.33445739746094 C 87.87315368652344,208.33445739746094 86.89810943603516,209.3094940185547 86.89810943603516,210.51087951660156 C 86.89810943603516,211.7122802734375 87.87315368652344,212.68731689453125 89.07453155517578,212.68731689453125 C 90.27593231201172,212.68731689453125 91.2509765625,211.7122802734375 91.2509765625,210.51087951660156 C 91.2509765625,209.3094940185547 90.27593231201172,208.33445739746094 89.07453155517578,208.33445739746094 L 89.07453155517578,208.33445739746094 Z" style="fill: rgb(38, 38, 38); stroke-width: 1px; stroke: none;"/>
<path clip-path="url(#contour)" d="M 85.94049072265625,212.16497802734375 C 85.60370635986328,212.16497802734375 85.28471374511719,212.24159240722656 85.0,212.3783416748047 L 85.0,216.30447387695312 C 85.28471374511719,216.4412078857422 85.60370635986328,216.51783752441406 85.94049072265625,216.51783752441406 C 87.1418685913086,216.51783752441406 88.11691284179688,215.54278564453125 88.11691284179688,214.34140014648438 C 88.11691284179688,213.1400146484375 87.1418685913086,212.16497802734375 85.94049072265625,212.16497802734375 L 85.94049072265625,212.16497802734375 Z" style="fill: rgb(38, 38, 38); stroke-width: 1px; stroke: none;"/>
<path clip-path="url(#contour)" d="M 92.20860290527344,212.16497802734375 C 91.0072250366211,212.16497802734375 90.03218078613281,213.1400146484375 90.03218078613281,214.34140014648438 C 90.03218078613281,215.54278564453125 91.0072250366211,216.51783752441406 92.20860290527344,216.51783752441406 C 93.41000366210938,216.51783752441406 94.38504791259766,215.54278564453125 94.38504791259766,214.34140014648438 C 94.38504791259766,213.1400146484375 93.41000366210938,212.16497802734375 92.20860290527344,212.16497802734375 L 92.20860290527344,212.16497802734375 Z" style="fill: rgb(38, 38, 38); stroke-width: 1px; stroke: none;"/>
<path clip-path="url(#contour)" d="M 88.43773651123047,213.1875457763672 C 88.40794372558594,216.06271362304688 87.50163269042969,219.582763671875 86.46080780029297,222.69781494140625 C 87.94342803955078,223.55857849121094 89.44073486328125,224.4067840576172 90.9523696899414,225.24203491210938 C 91.54444122314453,225.56918334960938 92.13871002197266,225.89434814453125 92.73516082763672,226.21751403808594 C 91.27415466308594,222.52748107910156 89.48663330078125,217.2135009765625 89.46571350097656,213.25843811035156 L 88.43773651123047,213.1875457763672 L 88.43773651123047,213.1875457763672 Z" style="fill: rgb(38, 38, 38); stroke-width: 1px; stroke: none;"/>
<path clip-path="url(#contour)" d="M 111.2967529296875,208.33445739746094 C 110.09537506103516,208.33445739746094 109.12033081054688,209.3094940185547 109.12033081054688,210.51087951660156 C 109.12033081054688,211.7122802734375 110.09537506103516,212.68731689453125 111.2967529296875,212.68731689453125 C 112.49815368652344,212.68731689453125 113.47319793701172,211.7122802734375 113.47319793701172,210.51087951660156 C 113.47319793701172,209.3094940185547 112.49815368652344,208.33445739746094 111.2967529296875,208.33445739746094 L 111.2967529296875,208.33445739746094 Z" style="fill: rgb(38, 38, 38); stroke-width: 1px; stroke: none;"/>
<path clip-path="url(#contour)" d="M 108.16271209716797,212.16497802734375 C 106.96131134033203,212.16497802734375 105.98626708984375,213.1400146484375 105.98626708984375,214.34140014648438 C 105.98626708984375,215.54278564453125 106.96131134033203,216.51783752441406 108.16271209716797,216.51783752441406 C 109.36408996582031,216.51783752441406 110.3391342163086,215.54278564453125 110.3391342163086,214.34140014648438 C 110.3391342163086,213.1400146484375 109.36408996582031,212.16497802734375 108.16271209716797,212.16497802734375 L 108.16271209716797,212.16497802734375 Z" style="fill: rgb(38, 38, 38); stroke-width: 1px; stroke: none;"/>
<path clip-path="url(#contour)" d="M 114.43082427978516,212.16497802734375 C 113.22944641113281,212.16497802734375 112.25440216064453,213.1400146484375 112.25440216064453,214.34140014648438 C 112.25440216064453,215.54278564453125 113.22944641113281,216.51783752441406 114.43082427978516,216.51783752441406 C 114.62772369384766,216.51783752441406 114.81855010986328,216.49163818359375 115.0,216.4425506591797 L 115.0,212.24024963378906 C 114.81855010986328,212.191162109375 114.62773132324219,212.16497802734375 114.43082427978516,212.16497802734375 L 114.43082427978516,212.16497802734375 Z" style="fill: rgb(38, 38, 38); stroke-width: 1px; stroke: none;"/>
<path clip-path="url(#contour)" d="M 110.65995788574219,213.1875457763672 C 110.61843872070312,217.19461059570312 108.87442779541016,222.45419311523438 107.43653106689453,226.12440490722656 C 109.53289031982422,224.98641967773438 111.602294921875,223.8236541748047 113.6438217163086,222.6370391845703 C 112.60176086425781,219.5348358154297 111.7027359008789,216.05654907226562 111.68793487548828,213.25843811035156 L 110.65995788574219,213.1875457763672 L 110.65995788574219,213.1875457763672 Z" style="fill: rgb(38, 38, 38); stroke-width: 1px; stroke: none;"/>
<path clip-path="url(#contour)" d="M 0.0,0.0 L 200.0,0.0 L 200.0,100.0 C 200.0,150.0 160.0,200.0 100.0,230.0 C 40.0,200.0 0.0,150.0 0.0,100.0 L 0.0,0.0 Z" style="fill: none; stroke-width: 1px; stroke: rgb(0, 0, 0);"/>
</g>
</svg>
