<?xml version="1.0" encoding="UTF-8" standalone="no"?>
<svg xmlns="http://www.w3.org/2000/svg" height="246.0" width="216.0">
<defs>
<clipPath id="contour">
<path d="M 8.0,8.0 L 208.0,8.0 L 208.0,108.0 C 208.0,158.0 168.0,208.0 108.0,238.0 C 48.0,208.0 8.0,158.0 8.0,108.0 L 8.0,8.0 Z"/>
</clipPath>
<radialGradient id="lighting">
<stop offset="25%" stop-color="white" stop-opacity="35%"/>
<stop offset="100%" stop-color="white" stop-opacity="0%"/>
</radialGradient>
</defs>
<g transform="translate(8.0,8.0)">
<path d="M 0.0,0.0 L 200.0,0.0 L 200.0,100.0 C 200.0,150.0 160.0,200.0 100.0,230.0 C 40.0,200.0 0.0,150.0 0.0,100.0 L 0.0,0.0 Z" style="fill: rgb(217, 38, 38); stroke-width: 1px; stroke: none;"/>
<path d="M 87.57439422607422,113.62986755371094 C 87.57440185546875,113.62987518310547 87.57440185546875,113.6298828125 87.57440948486328,113.62989044189453 L 87.57441711425781,113.62989044189453 C 87.57440948486328,113.6298828125 87.57440185546875,113.62987518310547 87.57439422607422,113.62986755371094 L 87.57439422607422,113.62986755371094 Z" style="fill: rgb(166, 64, 166); stroke-width: 1px; stroke: none;"/>
<path d="M 90.6269302368164,44.00067138671875 C 88.76455688476562,45.882205963134766 87.045166015625,47.789302825927734 85.49752044677734,49.77627944946289 C 81.82704162597656,54.484619140625 78.98088836669922,59.32986831665039 77.05644226074219,64.15390014648438 L 90.6269302368164,64.15390014648438 L 90.6269302368164,44.00067138671875 L 90.6269302368164,44.00067138671875 Z" style="fill: rgb(230, 230, 230); stroke-width: 1px; stroke: none;"/>
<path d="M 100.03822326660156,35.40390396118164 C 99.98991394042969,35.40390396118164 99.94390106201172,35.44096374511719 99.87519073486328,35.52341079711914 C 96.53544616699219,38.41386413574219 93.42034912109375,41.17851257324219 90.6269302368164,44.00067138671875 L 90.6269302368164,44.00067138671875 L 90.6269302368164,64.15390014648438 L 119.3769302368164,64.15390014648438 L 119.3769302368164,56.83835983276367 L 119.3769302368164,56.83835983276367 C 117.9783935546875,54.46361541748047 116.36641693115234,52.10322952270508 114.55239868164062,49.77627944946289 C 110.68341064453125,44.78403091430664 105.76603698730469,40.29100799560547 100.17472076416016,35.473487854003906 L 100.17472839355469,35.473487854003906 C 100.1186294555664,35.42860794067383 100.0776596069336,35.40390396118164 100.03822326660156,35.40390396118164 L 100.03822326660156,35.40390396118164 Z" style="fill: rgb(166, 64, 166); stroke-width: 1px; stroke: none;"/>
<path d="M 119.3769302368164,56.83835983276367 L 119.3769302368164,64.15390014648438 L 122.9878158569336,64.15390014648438 C 122.01588439941406,61.71399688720703 120.80818176269531,59.26866149902344 119.3769302368164,56.83835983276367 L 119.3769302368164,56.83835983276367 Z" style="fill: rgb(230, 230, 230); stroke-width: 1px; stroke: none;"/>
<path d="M 77.05644226074219,64.15390014648438 C 73.28792572021484,73.60049438476562 73.05387878417969,82.96572875976562 77.08557891845703,91.06217193603516 C 77.37641143798828,91.68717956542969 77.66289520263672,92.30093383789062 77.94507598876953,92.90390014648438 L 90.6269302368164,92.90390014648438 L 90.6269302368164,64.15390014648438 L 77.05644226074219,64.15390014648438 Z" style="fill: rgb(166, 64, 166); stroke-width: 1px; stroke: none;"/>
<path d="M 90.6269302368164,64.15390014648438 L 90.6269302368164,92.90390014648438 L 119.3769302368164,92.90390014648438 L 119.3769302368164,64.15390014648438 L 90.6269302368164,64.15390014648438 Z" style="fill: rgb(230, 230, 230); stroke-width: 1px; stroke: none;"/>
<path d="M 119.3769302368164,64.15390014648438 L 119.3769302368164,92.90390014648438 L 122.10484313964844,92.90390014648438 C 122.38702392578125,92.30093383789062 122.67350769042969,91.68717956542969 122.96434020996094,91.06217193603516 C 126.9795150756836,82.96572875976562 126.75081634521484,73.60049438476562 122.9878158569336,64.15390014648438 L 119.3769302368164,64.15390014648438 Z" style="fill: rgb(166, 64, 166); stroke-width: 1px; stroke: none;"/>
<path d="M 58.75502014160156,96.9825439453125 C 52.97602081298828,96.9825439453125 46.568607330322266,98.94248962402344 40.542327880859375,103.74248504638672 C 35.645301818847656,107.6485824584961 32.34925842285156,114.72474670410156 33.286251068115234,121.65390014648438 L 61.876930236816406,121.65390014648438 L 61.876930236816406,97.17638397216797 L 61.876930236816406,97.17638397216797 C 60.86179733276367,97.04898834228516 59.819061279296875,96.9825439453125 58.75502014160156,96.9825439453125 L 58.75502014160156,96.9825439453125 Z" style="fill: rgb(166, 64, 166); stroke-width: 1px; stroke: none;"/>
<path d="M 77.94507598876953,92.90390014648438 C 82.005859375,101.5809326171875 85.17560577392578,108.02388000488281 87.57439422607422,113.62986755371094 C 82.11263275146484,105.759765625 74.36392974853516,100.3887710571289 65.70325469970703,97.9764404296875 C 64.4843978881836,97.61373138427734 63.20426559448242,97.34295654296875 61.876930236816406,97.17638397216797 L 61.876930236816406,97.17638397216797 L 61.876930236816406,121.65390014648438 L 90.6269302368164,121.65390014648438 L 90.6269302368164,92.90390014648438 L 77.94507598876953,92.90390014648438 Z" style="fill: rgb(230, 230, 230); stroke-width: 1px; stroke: none;"/>
<path d="M 90.6269302368164,92.90390014648438 L 90.6269302368164,121.65390014648438 L 119.3769302368164,121.65390014648438 L 119.3769302368164,105.67402648925781 L 119.3769302368164,105.67402648925781 C 117.03982543945312,107.63059997558594 114.89752197265625,109.88381958007812 113.00076293945312,112.4167251586914 C 114.73887634277344,108.44615936279297 116.85096740722656,104.02622985839844 119.3769302368164,98.69270324707031 L 119.3769302368164,98.69270324707031 L 119.3769302368164,92.90390014648438 L 90.6269302368164,92.90390014648438 Z" style="fill: rgb(166, 64, 166); stroke-width: 1px; stroke: none;"/>
<path d="M 119.3769302368164,92.90390014648438 L 119.3769302368164,98.69270324707031 L 119.3769302368164,98.69270324707031 C 120.2376480102539,96.87530517578125 121.14643096923828,94.95182800292969 122.10484313964844,92.90390014648438 L 119.3769302368164,92.90390014648438 Z" style="fill: rgb(230, 230, 230); stroke-width: 1px; stroke: none;"/>
<path d="M 140.9454345703125,96.9825439453125 C 138.4901123046875,96.9825439453125 136.14822387695312,97.33634185791016 133.99720764160156,97.9764404296875 C 128.6725616455078,99.45955657958984 123.69261932373047,102.06101989746094 119.3769302368164,105.67402648925781 L 119.3769302368164,105.67402648925781 L 119.3769302368164,121.65390014648438 L 148.12692260742188,121.65390014648438 L 148.12692260742188,97.98234558105469 L 148.12693786621094,97.98234558105469 C 145.675537109375,97.29695892333984 143.2600860595703,96.9825439453125 140.9454345703125,96.9825439453125 L 119.3769302368164,92.90390014648438 Z" style="fill: rgb(230, 230, 230); stroke-width: 1px; stroke: none;"/>
<path d="M 148.12692260742188,97.98234558105469 L 148.12692260742188,121.65390014648438 L 166.41421508789062,121.65390014648438 C 167.35121154785156,114.72474670410156 164.05517578125,107.6485824584961 159.15814208984375,103.74248504638672 C 155.5455322265625,100.8650131225586 151.7959747314453,99.00817108154297 148.12692260742188,97.98234558105469 L 148.12692260742188,97.98234558105469 Z" style="fill: rgb(166, 64, 166); stroke-width: 1px; stroke: none;"/>
<path d="M 33.286251068115234,121.65390014648438 C 34.37908172607422,129.73550415039062 41.23011016845703,137.6171417236328 58.015193939208984,140.0361328125 C 54.72031021118164,136.21705627441406 54.99488830566406,127.90496063232422 61.584651947021484,124.95954132080078 C 61.68183517456055,124.92201232910156 61.77927017211914,124.88549041748047 61.876930236816406,124.8499526977539 L 61.876930236816406,124.8499526977539 L 61.876930236816406,121.65390014648438 L 33.286251068115234,121.65390014648438 Z" style="fill: rgb(230, 230, 230); stroke-width: 1px; stroke: none;"/>
<path d="M 61.876930236816406,121.65390014648438 L 61.876930236816406,124.8499526977539 L 61.876930236816406,124.8499526977539 C 63.89533233642578,124.11549377441406 66.00923156738281,123.8034896850586 67.98194122314453,123.8034896850586 C 70.86582946777344,123.8034896850586 73.44796752929688,124.47028350830078 74.98883819580078,125.4587631225586 C 77.47659301757812,126.61585998535156 80.52587890625,130.3626708984375 82.2912826538086,135.0189208984375 L 74.5894546508789,135.0189208984375 L 74.5894546508789,148.48301696777344 L 82.7143783569336,148.48301696777344 C 82.48717498779297,149.1488800048828 82.2281265258789,149.78646850585938 81.93347930908203,150.40390014648438 L 90.6269302368164,150.40390014648438 L 90.6269302368164,121.65390014648438 L 61.876930236816406,121.65390014648438 Z" style="fill: rgb(166, 64, 166); stroke-width: 1px; stroke: none;"/>
<path d="M 90.6269302368164,121.65390014648438 L 90.6269302368164,150.40390014648438 L 117.76698303222656,150.40390014648438 C 117.47233581542969,149.78646850585938 117.21328735351562,149.1488800048828 116.986083984375,148.48301696777344 L 119.3769302368164,148.48301696777344 L 119.3769302368164,135.0189208984375 L 117.4091796875,135.0189208984375 C 117.9591064453125,133.5684814453125 118.63362121582031,132.20628356933594 119.3769302368164,130.98313903808594 L 119.3769302368164,130.98313903808594 L 119.3769302368164,121.65390014648438 L 90.6269302368164,121.65390014648438 Z" style="fill: rgb(230, 230, 230); stroke-width: 1px; stroke: none;"/>
<path d="M 119.3769302368164,121.65390014648438 L 119.3769302368164,130.98313903808594 L 119.3769302368164,130.98313903808594 C 121.01982116699219,128.27967834472656 122.99880981445312,126.25541687011719 124.71162414550781,125.4587631225586 C 126.25249481201172,124.47028350830078 128.83462524414062,123.8034896850586 131.71852111816406,123.8034896850586 C 133.78668212890625,123.8034896850586 136.01002502441406,124.14641571044922 138.11581420898438,124.95954132080078 C 144.70558166503906,127.90496063232422 144.9801483154297,136.21705627441406 141.68527221679688,140.0361328125 C 144.0211181640625,139.69949340820312 146.1645965576172,139.257080078125 148.12692260742188,138.72305297851562 L 148.12692260742188,138.72305297851562 L 148.12692260742188,121.65390014648438 L 119.3769302368164,121.65390014648438 Z" style="fill: rgb(166, 64, 166); stroke-width: 1px; stroke: none;"/>
<path d="M 119.3769302368164,135.0189208984375 L 119.3769302368164,148.48301696777344 L 125.48542785644531,148.48301696777344 L 125.48542785644531,135.0189208984375 L 119.3769302368164,121.65390014648438 Z" style="fill: rgb(166, 64, 166); stroke-width: 1px; stroke: none;"/>
<path d="M 148.12692260742188,121.65390014648438 L 148.12692260742188,138.72305297851562 L 148.12692260742188,138.72305297851562 C 160.26565551757812,135.41961669921875 165.4734649658203,128.61085510253906 166.41421508789062,121.65390014648438 L 148.12692260742188,121.65390014648438 Z" style="fill: rgb(230, 230, 230); stroke-width: 1px; stroke: none;"/>
<path d="M 61.876930236816406,168.64004516601562 L 61.876930236816406,168.64004516601562 C 61.32689666748047,169.04608154296875 60.76362991333008,169.46243286132812 60.18682098388672,169.8897705078125 C 60.74496841430664,169.8897705078125 61.30881118774414,169.87306213378906 61.876930236816406,169.84091186523438 L 61.876930236816406,169.84091186523438 L 61.876930236816406,168.64004516601562 L 61.876930236816406,168.64004516601562 Z" style="fill: rgb(166, 64, 166); stroke-width: 1px; stroke: none;"/>
<path d="M 81.93347930908203,150.40390014648438 L 81.93347930908203,150.40390014648438 C 79.2262954711914,156.07684326171875 73.5135498046875,160.04983520507812 61.876930236816406,168.64004516601562 L 61.876930236816406,168.64004516601562 L 61.876930236816406,169.84091186523438 L 61.876930236816406,169.84091186523438 C 73.55500030517578,169.18014526367188 87.0389404296875,161.99595642089844 89.99053955078125,159.3061981201172 L 89.99054718017578,159.3061981201172 C 90.20366668701172,159.11654663085938 90.4161376953125,158.8553009033203 90.6269302368164,158.53378295898438 L 90.6269302368164,158.53378295898438 L 90.6269302368164,150.40390014648438 L 81.93347930908203,150.40390014648438 Z" style="fill: rgb(230, 230, 230); stroke-width: 1px; stroke: none;"/>
<path d="M 90.6269302368164,158.85313415527344 C 89.52806091308594,164.5526580810547 85.02753448486328,169.07945251464844 77.23534393310547,171.7368927001953 C 78.07099914550781,173.84503173828125 81.2621078491211,177.6294403076172 85.88507080078125,179.15390014648438 L 90.6269302368164,179.15390014648438 L 90.6269302368164,158.85313415527344 L 81.93347930908203,150.40390014648438 Z" style="fill: rgb(230, 230, 230); stroke-width: 1px; stroke: none;"/>
<path d="M 90.6269302368164,150.40390014648438 L 90.6269302368164,158.53378295898438 L 90.6269302368164,158.53378295898438 C 90.65290069580078,158.49415588378906 90.67884826660156,158.45362854003906 90.70477294921875,158.41220092773438 L 90.70478057861328,158.41220092773438 C 90.68106842041016,158.55995178222656 90.65512084960938,158.70692443847656 90.6269302368164,158.85313415527344 L 90.6269302368164,158.85313415527344 L 90.6269302368164,179.15390014648438 L 114.16484832763672,179.15390014648438 C 116.20867919921875,178.4799346923828 117.97264099121094,177.36424255371094 119.3769302368164,176.14697265625 L 119.3769302368164,176.14697265625 L 119.3769302368164,170.34426879882812 L 119.3769302368164,170.34426879882812 C 113.76863861083984,167.662109375 110.44315338134766,163.76605224609375 109.46349334716797,159.05526733398438 L 109.4635009765625,159.05526733398438 C 109.54550170898438,159.14913940429688 109.6276626586914,159.23300170898438 109.70991516113281,159.3061981201172 L 109.70992279052734,159.3061981201172 C 111.07831573486328,160.55320739746094 114.71046447753906,162.76620483398438 119.3769302368164,164.8473358154297 L 119.3769302368164,164.8473358154297 L 119.3769302368164,153.11732482910156 L 119.3769302368164,153.11732482910156 C 118.74856567382812,152.2404327392578 118.21636199951172,151.3455810546875 117.76698303222656,150.40390014648438 L 90.6269302368164,150.40390014648438 Z" style="fill: rgb(166, 64, 166); stroke-width: 1px; stroke: none;"/>
<path d="M 119.3769302368164,153.11732482910156 L 119.3769302368164,164.8473358154297 L 119.3769302368164,164.8473358154297 C 125.265625,167.4735565185547 132.80140686035156,169.8897705078125 139.51364135742188,169.8897705078125 C 128.7593536376953,161.92236328125 122.7129135131836,157.77276611328125 119.3769302368164,153.11732482910156 L 119.3769302368164,153.11732482910156 Z" style="fill: rgb(230, 230, 230); stroke-width: 1px; stroke: none;"/>
<path d="M 119.3769302368164,170.34426879882812 L 119.3769302368164,176.14697265625 L 119.3769302368164,176.14697265625 C 121.1490249633789,174.6108856201172 122.3483657836914,172.91302490234375 122.81458282470703,171.7368927001953 C 121.58683776855469,171.31817626953125 120.44081115722656,170.85305786132812 119.3769302368164,170.34426879882812 L 119.3769302368164,153.11732482910156 Z" style="fill: rgb(230, 230, 230); stroke-width: 1px; stroke: none;"/>
<path d="M 85.88507080078125,179.15390014648438 C 87.14518737792969,179.56944274902344 88.51168060302734,179.8170623779297 89.96585845947266,179.8170623779297 C 90.18425750732422,179.8170623779297 90.40463256835938,179.8114776611328 90.6269302368164,179.80003356933594 L 90.6269302368164,179.80003356933594 L 90.6269302368164,179.15390014648438 L 85.88507080078125,179.15390014648438 Z" style="fill: rgb(166, 64, 166); stroke-width: 1px; stroke: none;"/>
<path d="M 90.6269302368164,179.15390014648438 L 90.6269302368164,179.80003356933594 L 90.6269302368164,179.80003356933594 C 90.6311264038086,179.79981994628906 90.63533020019531,179.79959106445312 90.63953399658203,179.79937744140625 C 92.03736114501953,185.79006958007812 93.43518829345703,189.1348876953125 99.87519073486328,194.57643127441406 C 99.95008087158203,194.6388397216797 99.98751831054688,194.67002868652344 100.02496337890625,194.67002868652344 C 100.06240844726562,194.67002868652344 100.09984588623047,194.6388397216797 100.17472839355469,194.57643127441406 C 106.61473083496094,189.1348876953125 108.01255798339844,185.79006958007812 109.41039276123047,179.79937744140625 C 109.63695526123047,179.81126403808594 109.86153411865234,179.8170623779297 110.08406066894531,179.8170623779297 C 111.53823852539062,179.8170623779297 112.90473937988281,179.56944274902344 114.16484832763672,179.15390014648438 L 90.6269302368164,179.15390014648438 Z" style="fill: rgb(230, 230, 230); stroke-width: 1px; stroke: none;"/>
<path d="M 0.0,0.0 L 200.0,0.0 L 200.0,100.0 C 200.0,150.0 160.0,200.0 100.0,230.0 C 40.0,200.0 0.0,150.0 0.0,100.0 L 0.0,0.0 Z" style="fill: none; stroke-width: 1px; stroke: rgb(0, 0, 0);"/>
</g>
<rect clip-path="url(#contour)" fill="url(#lighting)" height="246.0" width="216.0" x="0.0" y="0.0"/>
</svg>
