<?xml version="1.0" encoding="UTF-8" standalone="no"?>
<svg xmlns="http://www.w3.org/2000/svg" height="246.0" width="216.0">
<defs>
<clipPath id="contour">
<path d="M 8.0,8.0 L 208.0,8.0 L 208.0,108.0 C 208.0,158.0 168.0,208.0 108.0,238.0 C 48.0,208.0 8.0,158.0 8.0,108.0 L 8.0,8.0 Z"/>
</clipPath>
<radialGradient id="lighting">
<stop offset="25%" stop-color="white" stop-opacity="35%"/>
<stop offset="100%" stop-color="white" stop-opacity="0%"/>
</radialGradient>
</defs>
<g>
<path d="M 8.0,8.0 L 8.0,28.0 L 28.0,28.0 L 28.0,8.0 L 8.0,8.0 Z" style="fill: rgb(230, 230, 230); stroke-width: 1px; stroke: none;"/>
<path d="M 28.0,8.0 L 28.0,28.0 L 48.0,28.0 L 48.0,8.0 L 28.0,8.0 Z" style="fill: rgb(38, 38, 38); stroke-width: 1px; stroke: none;"/>
<path d="M 48.0,8.0 L 48.0,28.0 L 68.0,28.0 L 68.0,8.0 L 48.0,8.0 Z" style="fill: rgb(230, 230, 230); stroke-width: 1px; stroke: none;"/>
<path d="M 68.0,8.0 L 68.0,28.0 L 88.0,28.0 L 88.0,8.0 L 68.0,8.0 Z" style="fill: rgb(38, 38, 38); stroke-width: 1px; stroke: none;"/>
<path d="M 88.0,8.0 L 88.0,28.0 L 108.0,28.0 L 108.0,8.0 L 88.0,8.0 Z" style="fill: rgb(230, 230, 230); stroke-width: 1px; stroke: none;"/>
<path d="M 8.0,28.0 L 8.0,48.0 L 28.0,48.0 L 28.0,28.0 L 8.0,28.0 Z" style="fill: rgb(38, 38, 38); stroke-width: 1px; stroke: none;"/>
<path d="M 28.0,28.0 L 28.0,48.0 L 48.0,48.0 L 48.0,28.0 L 28.0,28.0 Z" style="fill: rgb(230, 230, 230); stroke-width: 1px; stroke: none;"/>
<path d="M 48.0,28.0 L 48.0,48.0 L 68.0,48.0 L 68.0,28.0 L 48.0,28.0 Z" style="fill: rgb(38, 38, 38); stroke-width: 1px; stroke: none;"/>
<path d="M 68.0,28.0 L 68.0,48.0 L 88.0,48.0 L 88.0,28.0 L 68.0,28.0 Z" style="fill: rgb(230, 230, 230); stroke-width: 1px; stroke: none;"/>
<path d="M 88.0,28.0 L 88.0,48.0 L 108.0,48.0 L 108.0,28.0 L 88.0,28.0 Z" style="fill: rgb(38, 38, 38); stroke-width: 1px; stroke: none;"/>
<path d="M 8.0,48.0 L 8.0,68.0 L 28.0,68.0 L 28.0,48.0 L 8.0,48.0 Z" style="fill: rgb(230, 230, 230); stroke-width: 1px; stroke: none;"/>
<path d="M 28.0,48.0 L 28.0,68.0 L 48.0,68.0 L 48.0,48.0 L 28.0,48.0 Z" style="fill: rgb(38, 38, 38); stroke-width: 1px; stroke: none;"/>
<path d="M 48.0,48.0 L 48.0,68.0 L 68.0,68.0 L 68.0,48.0 L 48.0,48.0 Z" style="fill: rgb(230, 230, 230); stroke-width: 1px; stroke: none;"/>
<path d="M 68.0,48.0 L 68.0,68.0 L 88.0,68.0 L 88.0,48.0 L 68.0,48.0 Z" style="fill: rgb(38, 38, 38); stroke-width: 1px; stroke: none;"/>
<path d="M 88.0,48.0 L 88.0,68.0 L 108.0,68.0 L 108.0,48.0 L 88.0,48.0 Z" style="fill: rgb(230, 230, 230); stroke-width: 1px; stroke: none;"/>
<path d="M 8.0,68.0 L 8.0,88.0 L 28.0,88.0 L 28.0,68.0 L 8.0,68.0 Z" style="fill: rgb(38, 38, 38); stroke-width: 1px; stroke: none;"/>
<path d="M 28.0,68.0 L 28.0,88.0 L 48.0,88.0 L 48.0,68.0 L 28.0,68.0 Z" style="fill: rgb(230, 230, 230); stroke-width: 1px; stroke: none;"/>
<path d="M 48.0,68.0 L 48.0,88.0 L 68.0,88.0 L 68.0,68.0 L 48.0,68.0 Z" style="fill: rgb(38, 38, 38); stroke-width: 1px; stroke: none;"/>
<path d="M 68.0,68.0 L 68.0,88.0 L 88.0,88.0 L 88.0,68.0 L 68.0,68.0 Z" style="fill: rgb(230, 230, 230); stroke-width: 1px; stroke: none;"/>
<path d="M 88.0,68.0 L 88.0,88.0 L 108.0,88.0 L 108.0,68.0 L 88.0,68.0 Z" style="fill: rgb(38, 38, 38); stroke-width: 1px; stroke: none;"/>
<path d="M 8.0,88.0 L 8.0,108.0 L 28.0,108.0 L 28.0,88.0 L 8.0,88.0 Z" style="fill: rgb(230, 230, 230); stroke-width: 1px; stroke: none;"/>
<path d="M 28.0,88.0 L 28.0,108.0 L 48.0,108.0 L 48.0,88.0 L 28.0,88.0 Z" style="fill: rgb(38, 38, 38); stroke-width: 1px; stroke: none;"/>
<path d="M 48.0,88.0 L 48.0,108.0 L 68.0,108.0 L 68.0,88.0 L 48.0,88.0 Z" style="fill: rgb(230, 230, 230); stroke-width: 1px; stroke: none;"/>
<path d="M 68.0,88.0 L 68.0,108.0 L 88.0,108.0 L 88.0,88.0 L 68.0,88.0 Z" style="fill: rgb(38, 38, 38); stroke-width: 1px; stroke: none;"/>
<path d="M 88.0,88.0 L 88.0,108.0 L 108.0,108.0 L 108.0,88.0 L 88.0,88.0 Z" style="fill: rgb(230, 230, 230); stroke-width: 1px; stroke: none;"/>
<path d="M 108.0,8.0 L 108.0,108.0 L 208.0,108.0 L 208.0,8.0 L 108.0,8.0 Z" style="fill: rgb(217, 38, 38); stroke-width: 1px; stroke: none;"/>
<path d="M 108.0,108.0 L 108.0,128.0 L 128.0,128.0 L 128.0,108.0 L 108.0,108.0 Z" style="fill: rgb(230, 230, 230); stroke-width: 1px; stroke: none;"/>
<path d="M 128.0,108.0 L 128.0,128.0 L 148.0,128.0 L 148.0,108.0 L 128.0,108.0 Z" style="fill: rgb(38, 38, 38); stroke-width: 1px; stroke: none;"/>
<path d="M 148.0,108.0 L 148.0,128.0 L 168.0,128.0 L 168.0,108.0 L 148.0,108.0 Z" style="fill: rgb(230, 230, 230); stroke-width: 1px; stroke: none;"/>
<path d="M 168.0,108.0 L 168.0,128.0 L 188.0,128.0 L 188.0,108.0 L 168.0,108.0 Z" style="fill: rgb(38, 38, 38); stroke-width: 1px; stroke: none;"/>
<path d="M 188.0,108.0 L 188.0,128.0 L 205.9042205810547,128.0 C 207.28549194335938,121.36516571044922 208.0,114.68257904052734 208.0,108.0 L 188.0,108.0 Z" style="fill: rgb(230, 230, 230); stroke-width: 1px; stroke: none;"/>
<path d="M 108.0,128.0 L 108.0,148.0 L 128.0,148.0 L 128.0,128.0 L 108.0,128.0 Z" style="fill: rgb(38, 38, 38); stroke-width: 1px; stroke: none;"/>
<path d="M 128.0,128.0 L 128.0,148.0 L 148.0,148.0 L 148.0,128.0 L 128.0,128.0 Z" style="fill: rgb(230, 230, 230); stroke-width: 1px; stroke: none;"/>
<path d="M 148.0,128.0 L 148.0,148.0 L 168.0,148.0 L 168.0,128.0 L 148.0,128.0 Z" style="fill: rgb(38, 38, 38); stroke-width: 1px; stroke: none;"/>
<path d="M 168.0,128.0 L 168.0,148.0 L 188.0,148.0 L 188.0,128.0 L 168.0,128.0 Z" style="fill: rgb(230, 230, 230); stroke-width: 1px; stroke: none;"/>
<path d="M 188.0,128.0 L 188.0,148.0 L 199.68972778320312,148.0 C 202.41448974609375,141.41575622558594 204.50262451171875,134.73246002197266 205.9042205810547,128.0 L 188.0,128.0 Z" style="fill: rgb(38, 38, 38); stroke-width: 1px; stroke: none;"/>
<path d="M 108.0,148.0 L 108.0,168.0 L 128.0,168.0 L 128.0,148.0 L 108.0,148.0 Z" style="fill: rgb(230, 230, 230); stroke-width: 1px; stroke: none;"/>
<path d="M 128.0,148.0 L 128.0,168.0 L 148.0,168.0 L 148.0,148.0 L 128.0,148.0 Z" style="fill: rgb(38, 38, 38); stroke-width: 1px; stroke: none;"/>
<path d="M 148.0,148.0 L 148.0,168.0 L 168.0,168.0 L 168.0,148.0 L 148.0,148.0 Z" style="fill: rgb(230, 230, 230); stroke-width: 1px; stroke: none;"/>
<path d="M 168.0,148.0 L 168.0,168.0 L 188.0,168.0 L 188.0,148.0 L 168.0,148.0 Z" style="fill: rgb(38, 38, 38); stroke-width: 1px; stroke: none;"/>
<path d="M 188.0,148.0 L 188.0,168.0 L 189.2830810546875,168.0 C 193.392578125,161.47515869140625 196.87969970703125,154.79025268554688 199.68972778320312,148.0 L 188.0,148.0 Z" style="fill: rgb(230, 230, 230); stroke-width: 1px; stroke: none;"/>
<path d="M 108.0,168.0 L 108.0,188.0 L 128.0,188.0 L 128.0,168.0 L 108.0,168.0 Z" style="fill: rgb(38, 38, 38); stroke-width: 1px; stroke: none;"/>
<path d="M 128.0,168.0 L 128.0,188.0 L 148.0,188.0 L 148.0,168.0 L 128.0,168.0 Z" style="fill: rgb(230, 230, 230); stroke-width: 1px; stroke: none;"/>
<path d="M 148.0,168.0 L 148.0,188.0 L 168.0,188.0 L 168.0,168.0 L 148.0,168.0 Z" style="fill: rgb(38, 38, 38); stroke-width: 1px; stroke: none;"/>
<path d="M 168.0,168.0 L 168.0,188.0 L 174.30841064453125,188.0 C 179.39727783203125,182.18099975585938 183.9767608642578,176.1657257080078 188.0,170.0010528564453 L 188.0,170.0010528564453 L 188.0,168.0 L 168.0,168.0 Z" style="fill: rgb(230, 230, 230); stroke-width: 1px; stroke: none;"/>
<path d="M 188.0,168.0 L 188.0,170.0010528564453 L 188.0,170.0010528564453 C 188.43418884277344,169.33575439453125 188.86190795898438,168.66871643066406 189.2830810546875,168.0 L 188.0,168.0 Z" style="fill: rgb(38, 38, 38); stroke-width: 1px; stroke: none;"/>
<path d="M 108.0,188.0 L 108.0,208.0 L 128.0,208.0 L 128.0,188.0 L 108.0,188.0 Z" style="fill: rgb(230, 230, 230); stroke-width: 1px; stroke: none;"/>
<path d="M 128.0,188.0 L 128.0,208.0 L 148.0,208.0 L 148.0,188.0 L 128.0,188.0 Z" style="fill: rgb(38, 38, 38); stroke-width: 1px; stroke: none;"/>
<path d="M 148.0,188.0 L 148.0,208.0 L 153.8920135498047,208.0 C 158.89361572265625,203.76889038085938 163.60430908203125,199.375732421875 168.0,194.84463500976562 L 168.0,194.84463500976562 L 168.0,188.0 L 148.0,188.0 Z" style="fill: rgb(230, 230, 230); stroke-width: 1px; stroke: none;"/>
<path d="M 168.0,188.0 L 168.0,194.84463500976562 L 168.0,194.84463500976562 C 170.18136596679688,192.59608459472656 172.28514099121094,190.3135528564453 174.30841064453125,188.0 L 168.0,188.0 Z" style="fill: rgb(38, 38, 38); stroke-width: 1px; stroke: none;"/>
<path d="M 108.0,208.0 L 108.0,228.0 L 126.07072448730469,228.0 C 126.71680450439453,227.6056365966797 127.35990905761719,227.2088623046875 128.0,226.8096923828125 L 128.0,226.8096923828125 L 128.0,208.0 L 108.0,208.0 Z" style="fill: rgb(38, 38, 38); stroke-width: 1px; stroke: none;"/>
<path d="M 128.0,208.0 L 128.0,226.8096923828125 L 128.0,226.8096923828125 C 135.04541778564453,222.41612243652344 141.7260284423828,217.73342895507812 148.0,212.8034210205078 L 148.0,212.8034210205078 L 148.0,208.0 L 128.0,208.0 Z" style="fill: rgb(230, 230, 230); stroke-width: 1px; stroke: none;"/>
<path d="M 148.0,208.0 L 148.0,212.8034210205078 L 148.0,212.8034210205078 C 150.0060272216797,211.22711181640625 151.97048950195312,209.62551879882812 153.8920135498047,208.0 L 148.0,208.0 Z" style="fill: rgb(38, 38, 38); stroke-width: 1px; stroke: none;"/>
<path d="M 108.0,228.0 L 108.0,238.0 C 114.24797821044922,234.87600708007812 120.2790756225586,231.53515625 126.07072448730469,228.0 L 108.0,228.0 Z" style="fill: rgb(230, 230, 230); stroke-width: 1px; stroke: none;"/>
<path d="M 8.0,108.0 C 8.0,158.0 48.0,208.0 108.0,238.0 L 108.0,108.0 L 8.0,108.0 Z" style="fill: rgb(217, 38, 38); stroke-width: 1px; stroke: none;"/>
<path d="M 8.0,8.0 L 208.0,8.0 L 208.0,108.0 C 208.0,158.0 168.0,208.0 108.0,238.0 C 48.0,208.0 8.0,158.0 8.0,108.0 L 8.0,8.0 Z" style="fill: none; stroke-width: 1px; stroke: rgb(0, 0, 0);"/>
</g>
<rect clip-path="url(#contour)" fill="url(#lighting)" height="246.0" width="216.0" x="0.0" y="0.0"/>
</svg>
