<?xml version="1.0" encoding="UTF-8" standalone="no"?>
<svg xmlns="http://www.w3.org/2000/svg" height="216.0" width="416.0">
<defs>
<clipPath id="contour">
<path d="M 8.0,8.0 L 408.0,8.0 L 328.0,108.0 L 408.0,208.0 L 8.0,208.0 L 8.0,8.0 Z"/>
</clipPath>
<radialGradient id="lighting">
<stop offset="25%" stop-color="white" stop-opacity="35%"/>
<stop offset="100%" stop-color="white" stop-opacity="0%"/>
</radialGradient>
</defs>
<g>
<path d="M 8.0,8.0 L 408.0,8.0 L 328.0,108.0 L 408.0,208.0 L 8.0,208.0 L 8.0,8.0 Z" style="fill: rgb(230, 230, 230); stroke-width: 1px; stroke: none;"/>
<path d="M 98.0,8.0 L 163.6666717529297,73.66666412353516 L 173.6666717529297,63.66666793823242 L 118.0,8.0 L 98.0,8.0 Z" style="fill: rgb(38, 38, 38); stroke-width: 1px; stroke: none;"/>
<path d="M 185.6666717529297,75.66666412353516 L 175.6666717529297,85.66666412353516 L 230.3333282470703,140.3333282470703 L 240.3333282470703,130.33333587646484 L 185.6666717529297,75.66666412353516 L 185.6666717529297,75.66666412353516 Z" style="fill: rgb(38, 38, 38); stroke-width: 1px; stroke: none;"/>
<path d="M 252.3333282470703,142.3333282470703 L 242.3333282470703,152.3333282470703 L 298.0,208.0 L 318.0,208.0 L 252.3333282470703,142.3333282470703 L 252.3333282470703,142.3333282470703 Z" style="fill: rgb(38, 38, 38); stroke-width: 1px; stroke: none;"/>
<path d="M 298.0,8.0 L 209.0,97.0 L 219.0,107.0 L 318.0,8.0 L 298.0,8.0 Z" style="fill: rgb(38, 38, 38); stroke-width: 1px; stroke: none;"/>
<path d="M 197.0,109.0 L 98.0,208.0 L 118.0,208.0 L 207.0,119.0 L 197.0,109.0 L 197.0,109.0 Z" style="fill: rgb(38, 38, 38); stroke-width: 1px; stroke: none;"/>
<path d="M 208.0,31.33333396911621 L 131.33333587646484,108.0 L 163.6666717529297,140.3333282470703 L 173.6666717529297,130.33333587646484 L 151.3333282470703,108.0 L 208.0,51.33333206176758 L 230.3333282470703,73.66666412353516 L 240.3333282470703,63.66666793823242 L 208.0,31.33333396911621 L 208.0,31.33333396911621 Z" style="fill: rgb(38, 38, 38); stroke-width: 1px; stroke: none;"/>
<path d="M 252.3333282470703,75.66666412353516 L 242.3333282470703,85.66666412353516 L 264.6666564941406,108.0 L 208.0,164.6666717529297 L 185.6666717529297,142.3333282470703 L 175.6666717529297,152.3333282470703 L 208.0,184.6666717529297 L 284.6666564941406,108.0 L 252.3333282470703,75.66666412353516 L 252.3333282470703,75.66666412353516 Z" style="fill: rgb(38, 38, 38); stroke-width: 1px; stroke: none;"/>
<path d="M 8.0,8.0 L 408.0,8.0 L 328.0,108.0 L 408.0,208.0 L 8.0,208.0 L 8.0,8.0 Z" style="fill: none; stroke-width: 1px; stroke: rgb(0, 0, 0);"/>
</g>
<rect clip-path="url(#contour)" fill="url(#lighting)" height="216.0" width="416.0" x="0.0" y="0.0"/>
</svg>
