<?xml version="1.0" encoding="UTF-8" standalone="no"?>
<svg xmlns="http://www.w3.org/2000/svg" height="246.0" width="216.0">
<defs>
<clipPath id="contour">
<path d="M 8.0,8.0 L 208.0,8.0 L 208.0,108.0 C 208.0,158.0 168.0,208.0 108.0,238.0 C 48.0,208.0 8.0,158.0 8.0,108.0 L 8.0,8.0 Z"/>
</clipPath>
<radialGradient id="lighting">
<stop offset="25%" stop-color="white" stop-opacity="35%"/>
<stop offset="100%" stop-color="white" stop-opacity="0%"/>
</radialGradient>
</defs>
<g transform="translate(8.0,8.0)">
<path d="M 0.0,0.0 L 0.0,100.0 L 100.0,100.0 L 100.0,0.0 L 0.0,0.0 Z" style="fill: rgb(230, 230, 230); stroke-width: 1px; stroke: none;"/>
<path d="M 50.0,28.78679656982422 L 0.0,78.78679656982422 L 0.0,100.0 L 21.21320343017578,100.0 L 50.0,71.21320343017578 L 78.78679656982422,100.0 L 100.0,100.0 L 100.0,78.78679656982422 L 50.0,28.78679656982422 L 50.0,28.78679656982422 Z" style="fill: rgb(13, 38, 217); stroke-width: 1px; stroke: none;"/>
<path d="M 100.0,0.0 L 100.0,100.0 L 200.0,100.0 L 200.0,0.0 L 100.0,0.0 Z" style="fill: rgb(38, 38, 38); stroke-width: 1px; stroke: none;"/>
<path d="M 150.0,30.908117294311523 Q 141.6666717529297,30.908117294311523 141.6666717529297,39.241451263427734 Q 133.3333282470703,39.241451263427734 133.3333282470703,47.57478332519531 Q 125.0,47.57478332519531 125.0,55.90811538696289 Q 116.66666412353516,55.90811538696289 116.66666412353516,64.24144744873047 Q 108.33333587646484,64.24144744873047 108.33333587646484,72.57478332519531 L 108.33333587646484,72.57478332519531 Q 100.0,72.57478332519531 100.0,80.90811920166016 L 100.0,100.0 L 119.09188079833984,100.0 Q 126.81890869140625,100.0 126.81890869140625,92.2729721069336 Q 134.5459442138672,92.2729721069336 134.5459442138672,84.54594421386719 Q 142.27296447753906,84.54594421386719 142.27296447753906,76.81890869140625 Q 150.0,76.81890869140625 150.0,69.09188079833984 Q 150.0,76.81890869140625 157.72703552246094,76.81890869140625 Q 157.72703552246094,84.54594421386719 165.4540557861328,84.54594421386719 Q 165.4540557861328,92.2729721069336 173.18109130859375,92.2729721069336 L 173.18109130859375,92.2729721069336 Q 173.18109130859375,100.0 180.90811157226562,100.0 L 200.0,100.0 L 200.0,80.90811920166016 Q 200.0,72.57478332519531 191.6666717529297,72.57478332519531 Q 191.6666717529297,64.24144744873047 183.3333282470703,64.24144744873047 Q 183.3333282470703,55.90811538696289 175.0,55.90811538696289 Q 175.0,47.57478332519531 166.6666717529297,47.57478332519531 Q 166.6666717529297,39.241451263427734 158.3333282470703,39.241451263427734 Q 158.3333282470703,30.908117294311523 150.0,30.908117294311523 L 150.0,30.908117294311523 Z" style="fill: rgb(217, 217, 38); stroke-width: 1px; stroke: none;"/>
<path d="M 100.0,100.0 L 100.0,230.0 C 160.0,200.0 200.0,150.0 200.0,100.0 L 100.0,100.0 Z" style="fill: rgb(230, 230, 230); stroke-width: 1px; stroke: none;"/>
<path d="M 100.0,100.0 L 100.0,129.54653930664062 L 108.33333587646484,129.54653930664062 L 116.66666412353516,129.54653930664062 L 116.66666412353516,137.87986755371094 L 116.66666412353516,146.2132110595703 L 125.0,146.2132110595703 L 133.3333282470703,146.2132110595703 L 133.3333282470703,154.54653930664062 L 133.3333282470703,162.87986755371094 L 150.0,162.87986755371094 L 150.0,171.2132110595703 L 158.3333282470703,171.2132110595703 L 158.3333282470703,162.87986755371094 L 158.3333282470703,154.54653930664062 L 175.0,154.54653930664062 L 175.0,146.2132110595703 L 175.0,137.87986755371094 L 191.6666717529297,137.87986755371094 L 191.6666717529297,129.54653930664062 L 191.6666717529297,121.21320343017578 L 197.64410400390625,121.21320343017578 C 199.19569396972656,114.1801528930664 200.0,107.09008026123047 200.0,100.0 L 178.7867889404297,100.0 L 171.59010314941406,100.0 L 171.59010314941406,107.19670104980469 L 171.59010314941406,114.39339447021484 L 164.39340209960938,114.39339447021484 L 157.1967010498047,114.39339447021484 L 157.1967010498047,121.59009552001953 L 157.1967010498047,128.7867889404297 L 150.0,128.7867889404297 L 150.0,121.59009552001953 L 142.8032989501953,121.59009552001953 L 135.60659790039062,121.59009552001953 L 135.60659790039062,114.39339447021484 L 135.60659790039062,107.19670104980469 L 128.40989685058594,107.19670104980469 L 121.21320343017578,107.19670104980469 L 121.21320343017578,100.0 L 100.0,100.0 Z" style="fill: rgb(38, 217, 38); stroke-width: 1px; stroke: none;"/>
<path d="M 0.0,100.0 C 0.0,150.0 40.0,200.0 100.0,230.0 L 100.0,100.0 L 0.0,100.0 Z" style="fill: rgb(38, 38, 38); stroke-width: 1px; stroke: none;"/>
<path d="M 0.0,100.0 C 0.0,109.68417358398438 1.5005319118499756,119.36834716796875 4.356281757354736,128.90721130371094 L 4.356289863586426,128.90721130371094 Q 6.025148391723633,129.54653930664062 8.333333015441895,129.54653930664062 Q 16.66666603088379,129.54653930664062 16.66666603088379,137.87986755371094 Q 16.66666603088379,146.2132110595703 25.0,146.2132110595703 Q 33.33333206176758,146.2132110595703 33.33333206176758,154.54653930664062 Q 33.33333206176758,162.87986755371094 41.66666793823242,162.87986755371094 Q 50.0,162.87986755371094 50.0,171.2132110595703 Q 58.33333206176758,171.2132110595703 58.33333206176758,162.87986755371094 Q 58.33333206176758,154.54653930664062 66.66666412353516,154.54653930664062 Q 75.0,154.54653930664062 75.0,146.2132110595703 Q 75.0,137.87986755371094 83.33333587646484,137.87986755371094 Q 91.66666412353516,137.87986755371094 91.66666412353516,129.54653930664062 Q 91.66666412353516,121.21320343017578 100.0,121.21320343017578 L 100.0,100.0 L 78.78679656982422,100.0 Q 71.59009552001953,100.0 71.59009552001953,107.19670104980469 Q 71.59009552001953,114.39339447021484 64.39339447021484,114.39339447021484 Q 57.19669723510742,114.39339447021484 57.19669723510742,121.59009552001953 Q 57.19669723510742,128.7867889404297 50.0,128.7867889404297 Q 50.0,121.59009552001953 42.80330276489258,121.59009552001953 L 42.80330276489258,121.59009552001953 Q 35.60660171508789,121.59009552001953 35.60660171508789,114.39339447021484 Q 35.60660171508789,107.19670104980469 28.409902572631836,107.19670104980469 L 28.409902572631836,107.19670104980469 Q 21.21320343017578,107.19670104980469 21.21320343017578,100.0 L 0.0,100.0 Z" style="fill: rgb(217, 38, 38); stroke-width: 1px; stroke: none;"/>
<path d="M 0.0,0.0 L 200.0,0.0 L 200.0,100.0 C 200.0,150.0 160.0,200.0 100.0,230.0 C 40.0,200.0 0.0,150.0 0.0,100.0 L 0.0,0.0 Z" style="fill: none; stroke-width: 1px; stroke: rgb(0, 0, 0);"/>
</g>
<rect clip-path="url(#contour)" fill="url(#lighting)" height="246.0" width="216.0" x="0.0" y="0.0"/>
</svg>
