<?xml version="1.0" encoding="UTF-8" standalone="no"?>
<svg xmlns="http://www.w3.org/2000/svg" height="246.0" width="216.0">
<defs>
<clipPath id="contour">
<path d="M 0.0,0.0 L 200.0,0.0 L 200.0,100.0 C 200.0,150.0 160.0,200.0 100.0,230.0 C 40.0,200.0 0.0,150.0 0.0,100.0 L 0.0,0.0 Z"/>
</clipPath>
<radialGradient id="lighting">
<stop offset="25%" stop-color="white" stop-opacity="35%"/>
<stop offset="100%" stop-color="white" stop-opacity="0%"/>
</radialGradient>
</defs>
<g transform="translate(8.0,8.0)">
<path clip-path="url(#contour)" comment="FieldBackground" d="M 0.0,0.0 L 0.0,100.0 L 100.0,100.0 L 100.0,0.0 L 0.0,0.0 Z" style="fill-rule: evenodd; fill: rgb(230, 230, 230); stroke-width: 1px; stroke: none;"/>
<path clip-path="url(#contour)" comment="FieldBackground" d="M 50.0,21.715728759765625 L 0.0,71.71572875976562 L 0.0,100.0 L 28.284271240234375,100.0 L 50.0,78.28427124023438 L 71.71572875976562,100.0 L 100.0,100.0 L 100.0,71.71572875976562 L 50.0,21.715728759765625 Z" style="fill-rule: evenodd; fill: rgb(38, 64, 204); stroke-width: 1px; stroke: none;"/>
<path clip-path="url(#contour)" comment="FieldBackground" d="M 100.0,0.0 L 100.0,100.0 L 200.0,100.0 L 200.0,0.0 L 100.0,0.0 Z" style="fill-rule: evenodd; fill: rgb(38, 38, 38); stroke-width: 1px; stroke: none;"/>
<path clip-path="url(#contour)" comment="FieldBackground" d="M 150.0,24.54415512084961 Q 141.6666717529297,24.54415512084961 141.6666717529297,32.87749099731445 Q 133.3333282470703,32.87749099731445 133.3333282470703,41.21082305908203 Q 125.0,41.21082305908203 125.0,49.54415512084961 Q 116.66666412353516,49.54415512084961 116.66666412353516,57.87749099731445 Q 108.33333587646484,57.87749099731445 108.33333587646484,66.21082305908203 Q 100.0,66.21082305908203 100.0,74.54415893554688 L 100.0,100.0 L 128.44219970703125,100.0 Q 133.3333282470703,98.50682067871094 133.3333282470703,92.12251281738281 Q 141.6666717529297,92.12251281738281 141.6666717529297,83.78917694091797 Q 150.0,83.78917694091797 150.0,75.45584106445312 Q 150.0,83.78917694091797 158.3333282470703,83.78917694091797 Q 158.3333282470703,92.12251281738281 166.6666717529297,92.12251281738281 Q 166.6666717529297,98.50682067871094 171.55780029296875,100.0 L 200.0,100.0 L 200.0,74.54415893554688 Q 200.0,66.21082305908203 191.6666717529297,66.21082305908203 Q 191.6666717529297,57.87749099731445 183.3333282470703,57.87749099731445 Q 183.3333282470703,49.54415512084961 175.0,49.54415512084961 Q 175.0,41.21082305908203 166.6666717529297,41.21082305908203 Q 166.6666717529297,32.87749099731445 158.3333282470703,32.87749099731445 Q 158.3333282470703,24.54415512084961 150.0,24.54415512084961 Z" style="fill-rule: evenodd; fill: rgb(217, 217, 38); stroke-width: 1px; stroke: none;"/>
<path clip-path="url(#contour)" comment="FieldBackground" d="M 100.0,100.0 L 100.0,230.0 C 160.0,200.0 200.0,150.0 200.0,100.0 L 100.0,100.0 Z" style="fill-rule: evenodd; fill: rgb(230, 230, 230); stroke-width: 1px; stroke: none;"/>
<path clip-path="url(#contour)" comment="FieldBackground" d="M 100.0,100.0 L 100.0,136.6175994873047 L 116.66666412353516,136.6175994873047 L 116.66666412353516,144.95094299316406 L 116.66666412353516,153.28427124023438 L 133.3333282470703,153.28427124023438 L 133.3333282470703,161.6175994873047 L 133.3333282470703,169.95094299316406 L 150.0,169.95094299316406 L 150.0,178.28427124023438 L 158.3333282470703,178.28427124023438 L 158.3333282470703,169.95094299316406 L 158.3333282470703,161.6175994873047 L 175.0,161.6175994873047 L 175.0,153.28427124023438 L 175.0,144.95094299316406 L 189.5126190185547,144.95094299316406 C 190.26953125,143.32583618164062 190.98779296875,141.69383239746094 191.6666717529297,140.05567932128906 L 191.6666717529297,136.6175994873047 L 191.6666717529297,128.28427124023438 L 195.82823181152344,128.28427124023438 C 198.56407165527344,118.94686889648438 200.0,109.47343444824219 200.0,100.0 L 175.0,100.0 L 175.0,105.04906463623047 L 158.3333282470703,105.04906463623047 L 158.3333282470703,113.38239288330078 L 158.3333282470703,121.71572875976562 L 150.0,121.71572875976562 L 150.0,113.38239288330078 L 133.3333282470703,113.38239288330078 L 133.3333282470703,105.04906463623047 L 133.3333282470703,100.0 L 100.0,100.0 Z" style="fill-rule: evenodd; fill: rgb(51, 153, 51); stroke-width: 1px; stroke: none;"/>
<path clip-path="url(#contour)" comment="FieldBackground" d="M 0.0,100.0 C 0.0,150.0 40.0,200.0 100.0,230.0 L 100.0,100.0 L 0.0,100.0 Z" style="fill-rule: evenodd; fill: rgb(38, 38, 38); stroke-width: 1px; stroke: none;"/>
<path clip-path="url(#contour)" comment="FieldBackground" d="M 0.0,100.0 C 0.0,112.28368377685547 2.4142234325408936,124.56737518310547 6.946114540100098,136.55450439453125 L 6.946146011352539,136.55450439453125 Q 7.608189582824707,136.6175994873047 8.333333015441895,136.6175994873047 Q 16.66666603088379,136.6175994873047 16.66666603088379,144.95094299316406 Q 16.66666603088379,153.28427124023438 25.0,153.28427124023438 Q 33.33333206176758,153.28427124023438 33.33333206176758,161.6175994873047 Q 33.33333206176758,169.95094299316406 41.66666793823242,169.95094299316406 Q 50.0,169.95094299316406 50.0,178.28427124023438 Q 58.33333206176758,178.28427124023438 58.33333206176758,169.95094299316406 Q 58.33333206176758,161.6175994873047 66.66666412353516,161.6175994873047 Q 75.0,161.6175994873047 75.0,153.28427124023438 Q 75.0,144.95094299316406 83.33333587646484,144.95094299316406 Q 91.66666412353516,144.95094299316406 91.66666412353516,136.6175994873047 Q 91.66666412353516,128.28427124023438 100.0,128.28427124023438 L 100.0,100.0 L 74.59073638916016,100.0 Q 73.15322875976562,105.04906463623047 66.66666412353516,105.04906463623047 Q 58.33333206176758,105.04906463623047 58.33333206176758,113.38239288330078 Q 58.33333206176758,121.71572875976562 50.0,121.71572875976562 Q 50.0,113.38239288330078 41.66666793823242,113.38239288330078 Q 33.33333206176758,113.38239288330078 33.33333206176758,105.04906463623047 Q 33.33333206176758,101.94725799560547 32.17879104614258,100.0 L 0.0,100.0 Z" style="fill-rule: evenodd; fill: rgb(179, 38, 26); stroke-width: 1px; stroke: none;"/>
<path clip-path="url(#contour)" comment="outer shield shape border" d="M 0.0,0.0 L 0.0,100.0 C 0.0,150.0 40.0,200.0 100.0,230.0 C 160.0,200.0 200.0,150.0 200.0,100.0 L 200.0,0.0 L 0.0,0.0 Z" style="fill-rule: evenodd; fill: none; stroke-width: 1px; stroke: rgb(0, 0, 0);"/>
</g>
</svg>
