<?xml version="1.0" encoding="UTF-8" standalone="no"?>
<svg xmlns="http://www.w3.org/2000/svg" height="246.0" width="216.0">
<defs>
<clipPath id="contour">
<path d="M 8.0,8.0 L 208.0,8.0 L 208.0,108.0 C 208.0,158.0 168.0,208.0 108.0,238.0 C 48.0,208.0 8.0,158.0 8.0,108.0 L 8.0,8.0 Z"/>
</clipPath>
<radialGradient id="lighting">
<stop offset="25%" stop-color="white" stop-opacity="35%"/>
<stop offset="100%" stop-color="white" stop-opacity="0%"/>
</radialGradient>
</defs>
<g transform="translate(8.0,8.0)">
<path d="M 0.0,0.0 L 200.0,0.0 L 200.0,100.0 C 200.0,150.0 160.0,200.0 100.0,230.0 C 40.0,200.0 0.0,150.0 0.0,100.0 L 0.0,0.0 Z" style="fill: rgb(217, 38, 38); stroke-width: 1px; stroke: none;"/>
<path d="M 84.96974182128906,113.62986755371094 L 84.96974182128906,113.62986755371094 C 84.9697494506836,113.62987518310547 84.9697494506836,113.6298828125 84.96975708007812,113.62989044189453 L 84.96976470947266,113.62989044189453 C 84.96975708007812,113.6298828125 84.9697494506836,113.62987518310547 84.96974182128906,113.62986755371094 L 84.96974182128906,113.62986755371094 Z" style="fill: rgb(217, 217, 38); stroke-width: 1px; stroke: none;"/>
<path d="M 97.4335708618164,35.40390396118164 C 97.38526153564453,35.40390396118164 97.33924865722656,35.44096374511719 97.27054595947266,35.52341079711914 C 91.70418548583984,40.3409309387207 86.76185607910156,44.808990478515625 82.89286804199219,49.77627944946289 C 72.03472900390625,63.70465087890625 68.390380859375,78.83116149902344 74.48092651367188,91.06217193603516 C 78.95695495605469,100.68144989013672 82.40425872802734,107.63432312011719 84.96974182128906,113.62986755371094 C 79.50798797607422,105.759765625 71.75927734375,100.3887710571289 63.09860610961914,97.9764404296875 C 60.94758224487305,97.33634185791016 58.60569763183594,96.9825439453125 56.15037155151367,96.9825439453125 C 50.371368408203125,96.9825439453125 43.96395492553711,98.94248962402344 37.93767547607422,103.74248504638672 C 27.329151153564453,112.204345703125 24.233951568603516,135.54310607910156 55.41054153442383,140.0361328125 C 52.11566162109375,136.21705627441406 52.390235900878906,127.90496063232422 58.980003356933594,124.95954132080078 C 61.085792541503906,124.14641571044922 63.30913543701172,123.8034896850586 65.37728881835938,123.8034896850586 C 68.26117706298828,123.8034896850586 70.84331512451172,124.47028350830078 72.38418579101562,125.4587631225586 C 74.8719482421875,126.61585998535156 77.92122650146484,130.3626708984375 79.68663787841797,135.0189208984375 L 71.98480224609375,135.0189208984375 L 71.98480224609375,148.48301696777344 L 80.10972595214844,148.48301696777344 C 77.69635009765625,155.5558624267578 71.69032287597656,159.4376220703125 57.58217239379883,169.8897705078125 C 69.61348724365234,169.8897705078125 84.29069519042969,162.12681579589844 87.3858871459961,159.3061981201172 L 87.38589477539062,159.3061981201172 C 87.62527465820312,159.0931854248047 87.86383819580078,158.78982543945312 88.1001205444336,158.41220092773438 L 88.10012817382812,158.41220092773438 C 87.15215301513672,164.3191680908203 82.6227798461914,169.0112762451172 74.63069152832031,171.7368927001953 C 75.69412994384766,174.41966247558594 80.57209777832031,179.8170623779297 87.3612060546875,179.8170623779297 C 87.58373260498047,179.8170623779297 87.80831146240234,179.81126403808594 88.03488159179688,179.79937744140625 C 89.43270874023438,185.79006958007812 90.83053588867188,189.1348876953125 97.27054595947266,194.57643127441406 C 97.34542846679688,194.6388397216797 97.38286590576172,194.67002868652344 97.4203109741211,194.67002868652344 C 97.45775604248047,194.67002868652344 97.49519348144531,194.6388397216797 97.57008361816406,194.57643127441406 C 104.01007843017578,189.1348876953125 105.40790557861328,185.79006958007812 106.80574035644531,179.79937744140625 C 107.03230285644531,179.81126403808594 107.25688171386719,179.8170623779297 107.47940826416016,179.8170623779297 C 114.26852416992188,179.8170623779297 119.146484375,174.41966247558594 120.20993041992188,171.7368927001953 C 112.51007080078125,169.11093139648438 108.02433776855469,164.65968322753906 106.85884857177734,159.05526733398438 L 106.85884857177734,159.05526733398438 C 106.94084930419922,159.14913940429688 107.02301025390625,159.23300170898438 107.10526275634766,159.3061981201172 L 107.10527038574219,159.3061981201172 C 110.2004623413086,162.12681579589844 124.87767028808594,169.8897705078125 136.90899658203125,169.8897705078125 C 122.80083465576172,159.4376220703125 116.79480743408203,155.5558624267578 114.38143157958984,148.48301696777344 L 122.88077545166016,148.48301696777344 L 122.88077545166016,135.0189208984375 L 114.80452728271484,135.0189208984375 C 116.56993103027344,130.3626708984375 119.61921691894531,126.61585998535156 122.10697174072266,125.4587631225586 C 123.64784240722656,124.47028350830078 126.22998046875,123.8034896850586 129.11387634277344,123.8034896850586 C 131.18202209472656,123.8034896850586 133.40536499023438,124.14641571044922 135.5111541748047,124.95954132080078 C 142.10092163085938,127.90496063232422 142.37550354003906,136.21705627441406 139.0806121826172,140.0361328125 C 170.2572021484375,135.54310607910156 167.16200256347656,112.204345703125 156.55348205566406,103.74248504638672 C 150.52720642089844,98.94248962402344 144.1197967529297,96.9825439453125 138.34078979492188,96.9825439453125 C 135.88546752929688,96.9825439453125 133.5435791015625,97.33634185791016 131.39254760742188,97.9764404296875 C 123.18441772460938,100.2627182006836 115.7954330444336,105.20655822753906 110.39611053466797,112.4167251586914 C 112.90086364746094,106.69483184814453 116.18225860595703,100.03976440429688 120.35968780517578,91.06217193603516 C 126.4252700805664,78.83116149902344 122.8058853149414,63.70465087890625 111.94774627685547,49.77627944946289 C 108.0787582397461,44.78403091430664 103.16139221191406,40.29100799560547 97.57007598876953,35.473487854003906 L 97.57008361816406,35.473487854003906 C 97.51398468017578,35.42860794067383 97.47301483154297,35.40390396118164 97.4335708618164,35.40390396118164 L 97.4335708618164,35.40390396118164 Z" style="fill: rgb(217, 217, 38); stroke-width: 1px; stroke: none;"/>
<path d="M 0.0,0.0 L 200.0,0.0 L 200.0,100.0 C 200.0,150.0 160.0,200.0 100.0,230.0 C 40.0,200.0 0.0,150.0 0.0,100.0 L 0.0,0.0 Z" style="fill: none; stroke-width: 1px; stroke: rgb(0, 0, 0);"/>
</g>
<rect clip-path="url(#contour)" fill="url(#lighting)" height="246.0" width="216.0" x="0.0" y="0.0"/>
</svg>
