<?xml version="1.0" encoding="UTF-8" standalone="no"?>
<svg xmlns="http://www.w3.org/2000/svg" height="216.0" width="116.0">
<defs>
<clipPath id="contour">
<path d="M 0.0,0.0 L 100.0,0.0 L 100.0,200.0 L 50.0,160.0 L 0.0,200.0 L 0.0,0.0 Z"/>
</clipPath>
<radialGradient id="lighting">
<stop offset="25%" stop-color="white" stop-opacity="35%"/>
<stop offset="100%" stop-color="white" stop-opacity="0%"/>
</radialGradient>
</defs>
<g transform="translate(8.0,8.0)">
<path clip-path="url(#contour)" comment="FieldBackground" d="M 0.0,0.0 L 0.0,200.0 L 50.0,160.0 L 100.0,200.0 L 100.0,0.0 L 0.0,0.0 Z" style="fill-rule: evenodd; fill: rgb(217, 217, 38); stroke-width: 1px; stroke: none;"/>
<path clip-path="url(#contour)" comment="FieldBackground" d="M 0.0,0.0 L 0.0,22.142135620117188 L 16.0,22.142135620117188 L 16.0,30.142135620117188 L 16.0,38.14213562011719 L 32.0,38.14213562011719 L 32.0,46.14213562011719 L 32.0,54.14213562011719 L 48.0,54.14213562011719 L 48.0,62.14213562011719 L 48.0,70.14213562011719 L 64.0,70.14213562011719 L 64.0,78.14213562011719 L 64.0,86.14213562011719 L 80.0,86.14213562011719 L 80.0,94.14213562011719 L 80.0,102.14213562011719 L 96.0,102.14213562011719 L 96.0,110.14213562011719 L 96.0,118.14213562011719 L 100.0,118.14213562011719 L 100.0,81.85786437988281 L 88.0,81.85786437988281 L 88.0,73.85786437988281 L 88.0,65.85786437988281 L 72.0,65.85786437988281 L 72.0,57.85786437988281 L 72.0,49.85786437988281 L 56.0,49.85786437988281 L 56.0,41.85786437988281 L 56.0,33.85786437988281 L 40.0,33.85786437988281 L 40.0,25.857864379882812 L 40.0,17.857864379882812 L 24.0,17.857864379882812 L 24.0,9.857864379882812 L 24.0,1.8578643798828125 L 8.0,1.8578643798828125 L 8.0,0.0 L 0.0,0.0 Z" style="fill-rule: evenodd; fill: rgb(38, 64, 204); stroke-width: 1px; stroke: none;"/>
<path clip-path="url(#contour)" comment="outer shield shape border" d="M 0.0,0.0 L 0.0,200.0 L 50.0,160.0 L 100.0,200.0 L 100.0,0.0 L 0.0,0.0 Z" style="fill-rule: evenodd; fill: none; stroke-width: 1px; stroke: rgb(0, 0, 0);"/>
</g>
</svg>
