<?xml version="1.0" encoding="UTF-8" standalone="no"?>
<svg xmlns="http://www.w3.org/2000/svg" height="246.0" width="216.0">
<defs>
<clipPath id="contour">
<path d="M 8.0,8.0 L 208.0,8.0 L 208.0,108.0 C 208.0,158.0 168.0,208.0 108.0,238.0 C 48.0,208.0 8.0,158.0 8.0,108.0 L 8.0,8.0 Z"/>
</clipPath>
<radialGradient id="lighting">
<stop offset="25%" stop-color="white" stop-opacity="35%"/>
<stop offset="100%" stop-color="white" stop-opacity="0%"/>
</radialGradient>
</defs>
<g transform="translate(8.0,8.0)">
<path d="M 0.0,0.0 L 0.0,100.0 L 100.0,100.0 L 100.0,0.0 L 0.0,0.0 Z" style="fill: rgb(230, 230, 230); stroke-width: 1px; stroke: none;"/>
<path d="M 76.9704360961914,0.0 C 78.47895812988281,0.43513327836990356 79.77296447753906,0.22669456899166107 81.81818389892578,2.2719156742095947 C 85.49552917480469,5.949265480041504 80.24776458740234,12.601654052734375 75.70230865478516,12.601654052734375 C 74.6292724609375,12.601654052734375 73.59537506103516,12.230929374694824 72.7272720336914,11.362824440002441 C 69.54545593261719,8.18100643157959 71.81818389892578,6.8173699378967285 68.63636016845703,3.635551929473877 C 67.70744323730469,2.706632375717163 66.56759643554688,2.305035352706909 65.34254455566406,2.305035352706909 C 59.374183654785156,2.305035352706909 51.38346481323242,11.837199211120605 55.90909194946289,16.362825393676758 C 59.09090805053711,19.54464340209961 60.45454406738281,17.271915435791016 63.6363639831543,20.453733444213867 C 67.31371307373047,24.131084442138672 62.065948486328125,30.783472061157227 57.52049255371094,30.783472061157227 C 56.44745635986328,30.783472061157227 55.41355895996094,30.412748336791992 54.54545593261719,29.54464340209961 C 51.3636360168457,26.362825393676758 53.6363639831543,24.999187469482422 50.45454406738281,21.81736946105957 C 49.52562713623047,20.888450622558594 48.38577651977539,20.486854553222656 47.16072463989258,20.486854553222656 C 41.19236373901367,20.486854553222656 33.2016487121582,30.01901626586914 37.727272033691406,34.54464340209961 C 40.90909194946289,37.72645950317383 42.272727966308594,35.4537353515625 45.45454406738281,38.63555145263672 C 49.13189697265625,42.31290054321289 43.88412857055664,48.96529006958008 39.33867645263672,48.96529006958008 C 38.26564025878906,48.96529006958008 37.23173904418945,48.594566345214844 36.3636360168457,47.72645950317383 C 33.181819915771484,44.54464340209961 35.45454406738281,43.181007385253906 32.272727966308594,39.99918746948242 C 31.343807220458984,39.07027053833008 30.20395851135254,38.668670654296875 28.978906631469727,38.668670654296875 C 23.01054573059082,38.668670654296875 15.019828796386719,48.200836181640625 19.545454025268555,52.72645950317383 C 22.727272033691406,55.90827941894531 24.090909957885742,53.63555145263672 27.272727966308594,56.8173713684082 C 30.950077056884766,60.494720458984375 25.70231056213379,67.14710998535156 21.156856536865234,67.14710998535156 C 20.083820343017578,67.14710998535156 19.049922943115234,66.77638244628906 18.18181800842285,65.90827941894531 C 15.0,62.72645950317383 17.272727966308594,61.362823486328125 14.090909004211426,58.181007385253906 C 13.161989212036133,57.2520866394043 12.022140502929688,56.85049057006836 10.797088623046875,56.85049057006836 C 4.828728199005127,56.85049057006836 -3.161989450454712,66.38265228271484 1.3636363744735718,70.90827941894531 C 4.545454502105713,74.09009552001953 5.909090995788574,71.81736755371094 9.090909004211426,74.99919128417969 C 12.768259048461914,78.6765365600586 7.520493030548096,85.32892608642578 2.975038528442383,85.32892608642578 C 1.9020023345947266,85.32892608642578 0.8681045770645142,84.95819854736328 2.8421709430404007E-14,84.09009552001953 C 1.8207657603852567E-14,84.09009552001953 7.993605777301127E-15,84.09009552001953 -2.220446049250313E-15,84.09009552001953 L 0.0,84.09009552001953 L 0.0,100.0 L 23.029565811157227,100.0 C 21.521039962768555,99.56486511230469 20.227039337158203,99.77330780029297 18.18181800842285,97.72808074951172 C 14.504467964172363,94.05073547363281 19.752233505249023,87.39834594726562 24.29768943786621,87.39834594726562 C 25.370725631713867,87.39834594726562 26.40462303161621,87.76907348632812 27.272727966308594,88.63717651367188 C 30.454545974731445,91.8189926147461 28.18181800842285,93.18263244628906 31.363636016845703,96.36444854736328 C 32.29255676269531,97.29336547851562 33.432403564453125,97.69496154785156 34.65745544433594,97.69496154785156 C 40.625816345214844,97.69496154785156 48.61653518676758,88.16280364990234 44.09090805053711,83.63717651367188 C 40.90909194946289,80.45536041259766 39.54545593261719,82.72808074951172 36.3636360168457,79.5462646484375 C 32.68628692626953,75.8689193725586 37.934051513671875,69.2165298461914 42.47950744628906,69.2165298461914 C 43.55254364013672,69.2165298461914 44.58644104003906,69.58724975585938 45.45454406738281,70.45536041259766 C 48.6363639831543,73.63717651367188 46.3636360168457,75.00080871582031 49.54545593261719,78.18263244628906 C 50.47437286376953,79.1115493774414 51.61422348022461,79.51314544677734 52.83927536010742,79.51314544677734 C 58.80763626098633,79.51314544677734 66.79835510253906,69.9809799194336 62.272727966308594,65.45536041259766 C 59.09090805053711,62.27354049682617 57.727272033691406,64.5462646484375 54.54545593261719,61.36444854736328 C 50.86810302734375,57.68709945678711 56.11587142944336,51.03470993041992 60.66132354736328,51.03470993041992 C 61.73435974121094,51.03470993041992 62.76826095581055,51.405433654785156 63.6363639831543,52.27354049682617 C 66.81818389892578,55.45535659790039 64.54545593261719,56.818992614746094 67.7272720336914,60.00081253051758 C 68.65618896484375,60.92972946166992 69.7960433959961,61.331329345703125 71.0210952758789,61.331329345703125 C 76.98945617675781,61.331329345703125 84.98017120361328,51.799163818359375 80.45454406738281,47.27354049682617 C 77.2727279663086,44.09172058105469 75.90908813476562,46.36444854736328 72.7272720336914,43.1826286315918 C 69.04991912841797,39.505279541015625 74.29769134521484,32.85289001464844 78.8431396484375,32.85289001464844 C 79.91617584228516,32.85289001464844 80.95008087158203,33.22361755371094 81.81818389892578,34.09172058105469 C 85.0,37.27354049682617 82.7272720336914,38.637176513671875 85.90908813476562,41.818992614746094 C 86.8380126953125,42.7479133605957 87.97785949707031,43.14950942993164 89.20291137695312,43.14950942993164 C 95.17127227783203,43.14950942993164 103.1619873046875,33.617347717285156 98.63636016845703,29.091720581054688 C 95.45454406738281,25.909902572631836 94.09091186523438,28.18263053894043 90.90908813476562,25.000812530517578 C 87.23174285888672,21.323461532592773 92.47950744628906,14.671072959899902 97.02496337890625,14.671072959899902 C 98.0979995727539,14.671072959899902 99.13189697265625,15.041797637939453 100.0,15.909902572631836 L 100.0,15.909902572631836 L 100.0,0.0 L 76.9704360961914,0.0 Z" style="fill: rgb(13, 38, 217); stroke-width: 1px; stroke: none;"/>
<path d="M 100.0,0.0 L 100.0,100.0 L 200.0,100.0 L 200.0,0.0 L 100.0,0.0 Z" style="fill: rgb(38, 38, 38); stroke-width: 1px; stroke: none;"/>
<path d="M 176.97557067871094,0.0 Q 172.72727966308594,1.9662725925445557 172.72727966308594,8.1808443069458 Q 163.63636779785156,8.1808443069458 163.63636779785156,17.271753311157227 Q 154.5454559326172,17.271753311157227 154.5454559326172,26.36266326904297 Q 145.4545440673828,26.36266326904297 145.4545440673828,35.45357131958008 Q 136.36363220214844,35.45357131958008 136.36363220214844,44.54447937011719 Q 127.2727279663086,44.54447937011719 127.2727279663086,53.63539123535156 Q 118.18181610107422,53.63539123535156 118.18181610107422,62.72629928588867 L 118.18181610107422,62.72629928588867 Q 109.09091186523438,62.72629928588867 109.09091186523438,71.81720733642578 Q 100.0,71.81720733642578 100.0,80.90811920166016 L 100.0,80.90811920166016 L 100.0,100.0 L 123.02442932128906,100.0 Q 127.2727279663086,98.03372955322266 127.2727279663086,91.81915283203125 Q 136.36363220214844,91.81915283203125 136.36363220214844,82.7282485961914 Q 145.4545440673828,82.7282485961914 145.4545440673828,73.63733673095703 Q 154.5454559326172,73.63733673095703 154.5454559326172,64.54642486572266 Q 163.63636779785156,64.54642486572266 163.63636779785156,55.45552062988281 Q 172.72727966308594,55.45552062988281 172.72727966308594,46.36460876464844 Q 181.81817626953125,46.36460876464844 181.81817626953125,37.27370071411133 Q 190.90908813476562,37.27370071411133 190.90908813476562,28.18279266357422 Q 200.0,28.18279266357422 200.0,19.091882705688477 L 200.0,0.0 L 176.97557067871094,0.0 Z" style="fill: rgb(217, 217, 38); stroke-width: 1px; stroke: none;"/>
<path d="M 100.0,100.0 L 100.0,230.0 C 160.0,200.0 200.0,150.0 200.0,100.0 L 100.0,100.0 Z" style="fill: rgb(230, 230, 230); stroke-width: 1px; stroke: none;"/>
<path d="M 174.94903564453125,100.0 L 174.94903564453125,100.0 Q 174.0,101.91888427734375 174.0,104.78679656982422 Q 174.0,113.45346069335938 165.3333282470703,113.45346069335938 Q 156.6666717529297,113.45346069335938 156.6666717529297,122.12013244628906 Q 156.6666717529297,130.7867889404297 148.0,130.7867889404297 L 148.0,130.7867889404297 Q 139.3333282470703,130.7867889404297 139.3333282470703,139.45346069335938 Q 139.3333282470703,148.12013244628906 130.6666717529297,148.12013244628906 L 130.6666717529297,148.12013244628906 Q 122.0,148.12013244628906 122.0,156.7867889404297 Q 122.0,165.45346069335938 113.33333587646484,165.45346069335938 Q 104.66666412353516,165.45346069335938 104.66666412353516,174.12013244628906 Q 104.66666412353516,180.47972106933594 100.0,182.1726531982422 L 100.0,182.1726531982422 L 100.0,217.43753051757812 L 100.0,217.43753051757812 Q 101.8878402709961,216.54653930664062 104.66666412353516,216.54653930664062 Q 113.33333587646484,216.54653930664062 113.33333587646484,207.87986755371094 Q 113.33333587646484,199.2132110595703 122.0,199.2132110595703 L 122.0,199.2132110595703 Q 130.6666717529297,199.2132110595703 130.6666717529297,190.54653930664062 Q 130.6666717529297,181.87986755371094 139.3333282470703,181.87986755371094 L 139.3333282470703,181.87986755371094 Q 148.0,181.87986755371094 148.0,173.2132110595703 Q 148.0,164.54653930664062 156.6666717529297,164.54653930664062 L 156.6666717529297,164.54653930664062 Q 165.3333282470703,164.54653930664062 165.3333282470703,155.87986755371094 Q 165.3333282470703,147.2132110595703 174.0,147.2132110595703 Q 182.6666717529297,147.2132110595703 182.6666717529297,138.54653930664062 Q 182.6666717529297,129.87986755371094 191.3333282470703,129.87986755371094 Q 193.7981719970703,129.87986755371094 195.56201171875,129.17886352539062 L 195.56201171875,129.17886352539062 C 198.47084045410156,119.55223083496094 200.0,109.77611541748047 200.0,100.0 L 174.94903564453125,100.0 Z" style="fill: rgb(38, 217, 38); stroke-width: 1px; stroke: none;"/>
<path d="M 0.0,100.0 C 0.0,150.0 40.0,200.0 100.0,230.0 L 100.0,100.0 L 0.0,100.0 Z" style="fill: rgb(38, 38, 38); stroke-width: 1px; stroke: none;"/>
<path d="M 74.0,100.0 L 74.0,104.78679656982422 L 74.0,113.45346069335938 L 56.66666793823242,113.45346069335938 L 56.66666793823242,122.12013244628906 L 56.66666793823242,130.7867889404297 L 48.0,130.7867889404297 L 39.33333206176758,130.7867889404297 L 39.33333206176758,139.45346069335938 L 39.33333206176758,148.12013244628906 L 30.66666603088379,148.12013244628906 L 22.0,148.12013244628906 L 22.0,156.7867889404297 L 22.0,164.9867401123047 L 22.0,164.9867401123047 C 25.975385665893555,170.77151489257812 30.44175910949707,176.41578674316406 35.35944747924805,181.87986755371094 L 30.66666603088379,181.87986755371094 L 39.33333206176758,181.87986755371094 L 48.0,181.87986755371094 L 48.0,173.2132110595703 L 48.0,164.54653930664062 L 56.66666793823242,164.54653930664062 L 65.33333587646484,164.54653930664062 L 65.33333587646484,155.87986755371094 L 65.33333587646484,147.2132110595703 L 82.66666412353516,147.2132110595703 L 82.66666412353516,138.54653930664062 L 82.66666412353516,129.87986755371094 L 100.0,129.87986755371094 L 100.0,121.21320343017578 L 100.0,112.54653930664062 L 100.0,112.54653930664062 L 100.0,100.0 L 74.0,100.0 Z" style="fill: rgb(217, 38, 38); stroke-width: 1px; stroke: none;"/>
<path d="M 0.0,0.0 L 200.0,0.0 L 200.0,100.0 C 200.0,150.0 160.0,200.0 100.0,230.0 C 40.0,200.0 0.0,150.0 0.0,100.0 L 0.0,0.0 Z" style="fill: none; stroke-width: 1px; stroke: rgb(0, 0, 0);"/>
</g>
<rect clip-path="url(#contour)" fill="url(#lighting)" height="246.0" width="216.0" x="0.0" y="0.0"/>
</svg>
